<svg xmlns="http://www.w3.org/2000/svg" width="82.125" height="82.125" viewBox="0 0 82.125 82.125">
  <g id="Filled_outline" data-name="Filled outline" transform="translate(-16 -16)">
    <path id="Trazado_708157" data-name="Trazado 708157" d="M186.794,66.478l-.452,4.063-.3,2.737H147.713l-.3-2.737-.452-4.063a21.06,21.06,0,0,1,1.574-10.62,21.08,21.08,0,0,0,1.677-9.347l-.238-4.736a16.927,16.927,0,1,1,33.812,0l-.238,4.736a21.08,21.08,0,0,0,1.677,9.347A21.049,21.049,0,0,1,186.794,66.478Z" transform="translate(-108.444 -6.635)" fill="#8f4d2e"/>
    <path id="Trazado_708158" data-name="Trazado 708158" d="M263.412,66.473l-.452,4.063H247.6V55.48l2.737-5.475V39.055A15.071,15.071,0,0,0,239.26,24.531,16.946,16.946,0,0,1,260.4,41.771l-.238,4.736a21.08,21.08,0,0,0,1.677,9.347A21.049,21.049,0,0,1,263.412,66.473Z" transform="translate(-185.062 -6.63)" fill="#82462a"/>
    <path id="Trazado_708159" data-name="Trazado 708159" d="M224.973,226.95a1.915,1.915,0,0,1-1.916-1.916V216h-10.95v9.034a1.915,1.915,0,0,1-1.916,1.916H208v8.212h19.163V226.95Z" transform="translate(-159.15 -165.781)" fill="#fec9a3"/>
    <path id="Trazado_708160" data-name="Trazado 708160" d="M238.3,222.844a7.51,7.51,0,0,0,4.65-1.678V216H232v5.165a7.51,7.51,0,0,0,4.65,1.678Z" transform="translate(-179.044 -165.781)" fill="#feb784"/>
    <path id="Trazado_708161" data-name="Trazado 708161" d="M216.637,88.213v6.844a12.319,12.319,0,1,1-24.637,0V88.213a18.57,18.57,0,0,0,6.313-7.152l.53-1.061.777.648a34.175,34.175,0,0,0,17.017,7.564Z" transform="translate(-145.888 -53.05)" fill="#fec9a3"/>
    <path id="Trazado_708162" data-name="Trazado 708162" d="M287.721,121.941v6.844a12.324,12.324,0,0,1-9.965,12.094,15,15,0,0,0,4.49-10.725V120.69A34.133,34.133,0,0,0,287.721,121.941Z" transform="translate(-216.971 -86.778)" fill="#fec093"/>
    <path id="Trazado_708163" data-name="Trazado 708163" d="M224,312h13.687v9.581H224Z" transform="translate(-172.413 -245.356)" fill="#e0e0de"/>
    <path id="Trazado_708164" data-name="Trazado 708164" d="M139.311,315.531a4.154,4.154,0,0,1-4.614-2.756l-9.041-16.961a10.659,10.659,0,0,1-1.909,10.192v10.95H99.109v-10.95a10.676,10.676,0,0,1-1.889-10.319l-9.188,17.087a4.153,4.153,0,1,1-7.886-2.608L90.2,285.152A8.21,8.21,0,0,1,97.817,280h5.4l8.212,15.056L119.64,280h5.377a8.219,8.219,0,0,1,7.631,5.179l9.935,24.988a4.155,4.155,0,0,1-3.273,5.364Z" transform="translate(-52.997 -218.831)" fill="#ec8c8c"/>
    <path id="Trazado_708165" data-name="Trazado 708165" d="M74.164,396.834,75.151,384h8.212v13.187a4.607,4.607,0,1,1-9.2-.353Z" transform="translate(-48.201 -305.038)" fill="#f59898"/>
    <path id="Trazado_708166" data-name="Trazado 708166" d="M36.8,266.912a2.663,2.663,0,0,0-1.736,3.774l1.253,2.505H31.414a8.213,8.213,0,0,1-3.673-.867l-1.364-.682A1.642,1.642,0,0,0,24,273.112v3.863a2.738,2.738,0,0,0,1.513,2.449l2.228,1.114a8.212,8.212,0,0,0,3.673.867h10.38v-8.212l-1.874-4.686a2.663,2.663,0,0,0-3.118-1.593Z" transform="translate(-6.631 -207.917)" fill="#fec9a3"/>
    <path id="Trazado_708167" data-name="Trazado 708167" d="M80,352h8.212v5.475H80Z" transform="translate(-53.05 -278.513)" fill="#e0e0de"/>
    <path id="Trazado_708168" data-name="Trazado 708168" d="M234.382,319.046a4.154,4.154,0,0,1-4.614-2.756l-9.041-16.961a10.659,10.659,0,0,1-1.909,10.192v10.95H194.63c11.3-7.378,20.829-16.74,28.829-36.231a8.2,8.2,0,0,1,4.26,4.454l9.935,24.988a4.155,4.155,0,0,1-3.273,5.364Z" transform="translate(-148.068 -222.346)" fill="#e07f7f"/>
    <path id="Trazado_708169" data-name="Trazado 708169" d="M309.688,357.9,296,355.162V336l13.688,2.738Z" transform="translate(-232.094 -265.25)" fill="#a36548"/>
    <path id="Trazado_708170" data-name="Trazado 708170" d="M408,357.9l13.687-2.737V336L408,338.738Z" transform="translate(-324.931 -265.25)" fill="#8f4d2e"/>
    <path id="Trazado_708171" data-name="Trazado 708171" d="M376,352h5.475v19.162H376Z" transform="translate(-298.406 -278.513)" fill="#95573a"/>
    <path id="Trazado_708172" data-name="Trazado 708172" d="M312.425,318.844a4.847,4.847,0,0,0-4.05-4.781L296,312v4.106l13.688,2.737h2.737a4.847,4.847,0,0,1,4.05-4.781L328.85,312v4.106l-13.687,2.737Z" transform="translate(-232.094 -245.356)" fill="#d4bd81"/>
    <path id="Trazado_708173" data-name="Trazado 708173" d="M439.069,424.084l-5.475.913a1.369,1.369,0,0,1-1.594-1.35v-5.087a1.782,1.782,0,0,1,1.489-1.757l4.649-.775a1.782,1.782,0,0,1,2.075,1.758v4.95a1.369,1.369,0,0,1-1.144,1.35Z" transform="translate(-344.825 -331.564)" fill="#fec9a3"/>
    <path id="Trazado_708177" data-name="Trazado 708177" d="M97.641,65.6a1.371,1.371,0,0,0-1.11-.306L84.156,67.357a6.228,6.228,0,0,0-2.293.869l-.943-2.382a9.116,9.116,0,0,0-1.571-2.622l.357-3.237a23.714,23.714,0,0,0,.144-2.484,22.339,22.339,0,0,0-1.821-8.819,19.77,19.77,0,0,1-1.561-8.743L76.7,35.2c.014-.3.029-.607.029-.914A18.3,18.3,0,1,0,40.16,35.2l.232,4.722c.014.353.026.686.026,1.015a19.513,19.513,0,0,1-1.587,7.742,22.366,22.366,0,0,0-1.677,11.312l.356,3.192a9.292,9.292,0,0,0-1.084,1.568l-1.869-4.671a4.031,4.031,0,1,0-7.349,3.3l.263.524h-2.69a6.878,6.878,0,0,1-3.061-.723L20.358,62.5A3.011,3.011,0,0,0,16,65.2v3.863a4.084,4.084,0,0,0,2.27,3.673L20.5,73.845a9.63,9.63,0,0,0,4.285,1.012h.8V78.91L24.6,91.692a5.975,5.975,0,0,0,5.958,6.433q.152,0,.3-.008c.087,0,.174.008.261.008a5.51,5.51,0,0,0,5.176-3.62l6.248-11.616a11.972,11.972,0,0,0,2.2,4.765V98.125h2.737V87.175a1.369,1.369,0,0,0-.317-.876A9.332,9.332,0,0,1,48.357,73.17l-1.753-2.1A12.065,12.065,0,0,0,44.9,72.8a1.408,1.408,0,0,0-.141.171l0,0-.024.043c-.006.01-.011.02-.017.03a11.986,11.986,0,0,0-1.779,3.327L36.531,88.287V71.658l1.945-4.843a6.56,6.56,0,0,1,1.44-2.209,6.927,6.927,0,0,1,4.909-2.068h4.58L57.23,76.88a1.369,1.369,0,0,0,2.4,0l2.9-5.325V89.912a1.369,1.369,0,0,0,1.1,1.342L69.381,92.4v5.722h2.738V92.951L77.355,94c.034.006.193.022.238.022h2.59l.263.49a5.545,5.545,0,0,0,5.2,3.617,5.153,5.153,0,0,0,.9-.075,5.547,5.547,0,0,0,4.284-3.574l3.64-.607a2.726,2.726,0,0,0,2.281-2.56l.274-.055a1.369,1.369,0,0,0,1.1-1.342V66.644a1.369,1.369,0,0,0-.484-1.044ZM52.369,62.254a3.288,3.288,0,0,0,1.955-3V55.064a13.694,13.694,0,0,0,8.213,0v4.189a3.288,3.288,0,0,0,1.955,3l-1.647,3.021H54.017Zm6.062-9.3a10.962,10.962,0,0,1-10.95-10.95V35.878A20,20,0,0,0,53.405,29.1a35.455,35.455,0,0,0,15.976,7.233v5.677a10.962,10.962,0,0,1-10.95,10.95Zm18.5,11.673.025.026a6.343,6.343,0,0,1,1.42,2.192l.588,1.485a6.226,6.226,0,0,0-2.456-.975L65.8,65.572l1.655-3.035h4.567A6.781,6.781,0,0,1,76.929,64.629Zm.8,7.49L71.5,70.873l-6.228-1.246V68.259l10.781,1.8a3.467,3.467,0,0,1,2.63,2.063Zm6.878-2.062,10.78-1.8v1.369L88.95,70.916l-6.017,1.2h-.955a3.467,3.467,0,0,1,2.629-2.062ZM21.722,71.4l-2.228-1.114a1.362,1.362,0,0,1-.757-1.224V65.2a.274.274,0,0,1,.4-.245l1.364.682a9.63,9.63,0,0,0,4.285,1.012h4.905a1.369,1.369,0,0,0,1.224-1.981l-1.253-2.506A1.294,1.294,0,1,1,32.017,61.1l1.777,4.441v6.58H24.782a6.878,6.878,0,0,1-3.061-.723Zm12.072,3.46v2.737H28.319V74.856ZM27.328,91.9l.89-11.57h5.576V92.149a3.24,3.24,0,0,1-3,3.226,1.4,1.4,0,0,0-.154.008c-.027,0-.053,0-.08,0A3.237,3.237,0,0,1,27.328,91.9ZM44.766,72.976a1.368,1.368,0,0,1,.087-.106l-.083.108ZM40.033,61.093l-.157-1.407a19.624,19.624,0,0,1,1.471-9.927,22.234,22.234,0,0,0,1.809-8.821c0-.382-.014-.757-.029-1.135l-.233-4.737a15.559,15.559,0,1,1,31.1-.781c0,.241-.012.5-.026.781L73.736,39.8a22.518,22.518,0,0,0,1.778,9.956,19.617,19.617,0,0,1,1.6,7.744,20.974,20.974,0,0,1-.129,2.19L76.83,61.1a9.573,9.573,0,0,0-4.808-1.3h-6.2a.555.555,0,0,1-.548-.548v-5.4a13.692,13.692,0,0,0,6.844-11.846V35.162a1.369,1.369,0,0,0-1.175-1.355A32.726,32.726,0,0,1,54.61,26.546l-.777-.648a1.369,1.369,0,0,0-2.1.439L51.2,27.4a17.244,17.244,0,0,1-5.848,6.625,1.369,1.369,0,0,0-.61,1.139v6.844a13.692,13.692,0,0,0,6.844,11.846v5.4a.555.555,0,0,1-.548.547H44.826a9.642,9.642,0,0,0-4.793,1.293Zm18.4,12.273-2.92-5.354h5.841Zm6.844-.947,10.95,2.19V90.98l-10.95-2.19Zm13.687,2.437H81.7V91.281H78.962Zm7.112,20.5a2.448,2.448,0,0,1-.433.034,2.8,2.8,0,0,1-2.412-1.379c.026,0,.051-.007.077-.012l.03,0h0l.009,0,2.814-.563a2.7,2.7,0,0,0,1.378,1.2A2.854,2.854,0,0,1,86.074,95.353Zm7.944-4.184-5.475.913V86.994a.412.412,0,0,1,.345-.407l4.649-.775a.449.449,0,0,1,.07-.006.413.413,0,0,1,.411.413v4.949Zm-.931-8.057-4.649.775a3.141,3.141,0,0,0-2.632,3.108v3.713l-1.369.274V74.61l10.95-2.19v11.2a3.141,3.141,0,0,0-2.3-.511Z"/>
  </g>
</svg>
