<svg xmlns="http://www.w3.org/2000/svg" xmlns:xlink="http://www.w3.org/1999/xlink" width="1328" height="766" viewBox="0 0 1328 766">
  <defs>
    <linearGradient id="linear-gradient" x1="0.5" y1="1" x2="0.5" gradientUnits="objectBoundingBox">
      <stop offset="0" stop-color="#ffecf0"/>
      <stop offset="1" stop-color="#fff"/>
    </linearGradient>
    <clipPath id="clip-path">
      <rect id="Rectángulo_345071" data-name="Rectángulo 345071" width="1328" height="766" transform="translate(136 442)" fill="#88caf4" opacity="0.34"/>
    </clipPath>
    <clipPath id="clip-path-2">
      <rect id="Rectángulo_345062" data-name="Rectángulo 345062" width="1377.332" height="599.53" fill="#ffa031"/>
    </clipPath>
    <clipPath id="clip-path-3">
      <path id="Trazado_699310" data-name="Trazado 699310" d="M241.465,0C229.491.139,220.5,6.164,215.939,17.038c-4.39,10.239-4.692,24.841,0,42.907,16.514,62.323,81.177,119.982,119.954,199.781,38.626,79.788,40.136,90.766,40.136,90.766l-3.472,27.4S322.27,356.817,269.1,298.258c-53.166-58.71-152.216-131.721-177.359-151.9s-61.795-34.168-85.567,0c-8.489,12.2-7.584,26.792-1.208,42.306,11.5,27.854,41.041,58.71,66.939,84.613,40.438,40.032,131.01,123.433,154.643,142.11,23.773,18.8,76.927,61.572,88.436,89.426,8.64,20.767,23.784,52.534,26.211,105.068a376.8,376.8,0,0,1-2.88,61.884c-11.66,91.527-100.119,59.76-50.135,139.859,50.135,79.926,160.252,160.626,238.538,185.918,68.159,67.748,143.6,237.863,143.6,237.863s62.4,6.164,141.009-26.492c54.211-22.44,116.319-63.535,170.832-138.059a535.6,535.6,0,0,0,40.6-64.735C915.374,928.295,820.412,792.8,820.412,792.8c42.865-99.365,49.368-222.649,52.248-299.735-13.773-47.57-63.92-91.827-47.1-210.459,18.326-130.071-12.113-123.295-63.3-84.913-1.37,1.062-2.729,2.112-3.937,3.163C709.389,241.36,680.774,337.4,711.967,440.83c0,0-1.37,12.94-9.7,16.1-107.992-2.863-182.051-96.5-224.01-162.888C436.162,227.8,358.62,89.6,301.517,32.991,278.883,10.412,258.107.2,242.336,0Z" transform="translate(0)" fill="none"/>
    </clipPath>
    <linearGradient id="linear-gradient-2" x1="0.168" y1="0.939" x2="0.176" y2="0.939" gradientUnits="objectBoundingBox">
      <stop offset="0" stop-color="#f8c5a1"/>
      <stop offset="0.699" stop-color="#f9bb9a"/>
      <stop offset="1" stop-color="#fab597"/>
    </linearGradient>
    <clipPath id="clip-path-4">
      <path id="Trazado_699311" data-name="Trazado 699311" d="M126.259,39.32c-1.37,1.062-2.729,2.112-3.937,3.163C163.062,29.392,177.9,38.419,177.9,75c0,43.207-43.469,79.188-27.558,103.729,16.05,24.541,52.69,118.631,48.311,206.1-4.251,87.464-2.88,116.83-26.513,178.691-23.772,62.023-30.891,108.7-112.22,161.988,137.815-14.9,187.648,31.167,224.753,68.21,26.211,26.042,49.682,85.652,61.493,118.77a535.593,535.593,0,0,0,40.6-64.735C279.381,769.923,184.419,634.426,184.419,634.426c42.865-99.365,49.368-222.648,52.248-299.735-13.773-47.57-63.92-91.827-47.1-210.459,11.474-81.4,3.844-109.212-16.026-109.212-11.869,0-28.127,9.939-47.278,24.3" transform="translate(-59.924 -15.021)" fill="none"/>
    </clipPath>
    <linearGradient id="linear-gradient-3" x1="-2.129" y1="1.184" x2="-2.094" y2="1.184" gradientUnits="objectBoundingBox">
      <stop offset="0" stop-color="#f7b08a"/>
      <stop offset="0.394" stop-color="#f0a582"/>
      <stop offset="1" stop-color="#e38c72"/>
    </linearGradient>
    <clipPath id="clip-path-5">
      <path id="Trazado_699312" data-name="Trazado 699312" d="M120.029,144.48c-4.552,3.763-14.7,6.626-28.325,8.727a376.8,376.8,0,0,1-2.88,61.884c-11.66,91.527-100.119,59.76-50.135,139.859,50.135,79.926,160.252,160.626,238.538,185.917,68.159,67.748,143.6,237.863,143.6,237.863s62.4,6.164,141.009-26.492c-83.6-9.489-137.978-40.656-171.459-104.791-41.344-79.188-30.45-155.662-30.45-155.662s-81.479,11.139-173.259-32.818S92.459,334.322,92.459,334.322s48.16-13.7,56.8-42.456c8.78-28.9,20-24.541,35.583-33.568,15.608-9.038,31.971-37.193,27.57-54.808-4.541-17.454-50.437-43.946-50.437-43.946l2.578-43.969-9.093,14.464s-3.774-32.229,10.15-86.725c-14.842,51.8-21.508,81-45.582,101.166" transform="translate(-23.508 -43.314)" fill="none"/>
    </clipPath>
    <linearGradient id="linear-gradient-4" x1="-0.416" y1="0.992" x2="-0.395" y2="0.992" xlink:href="#linear-gradient-3"/>
    <clipPath id="clip-path-6">
      <path id="Trazado_699314" data-name="Trazado 699314" d="M29.892,88.372c-5.005,7.976-18.488,29.216-11.973,47.27,2.729,7.826,10.6,23.341,23.784,39.305,11.66,14.141,27.407,28.443,47.406,37.781a114.022,114.022,0,0,0,32.866,9.327c60.575-8.277,96.472-44.257,96.472-100.4C168.915,127.516,67.3,54.5,67.3,54.5,45.477,61.43,35.025,80.546,29.892,88.372" transform="translate(-16.175 -54.504)" fill="none"/>
    </clipPath>
    <linearGradient id="linear-gradient-5" x1="-0.669" y1="2.511" x2="-0.621" y2="2.511" xlink:href="#linear-gradient-2"/>
    <clipPath id="clip-path-7">
      <path id="Trazado_699315" data-name="Trazado 699315" d="M44.12,0C32.147.139,23.158,6.164,18.594,17.038,64.641,2.286,108.11,34.353,108.11,74.7c0,45.769,20.288,49.983,38.626,61.572s54.675,42.306,54.675,68.2c0,26.042,23.169.45,38.161,60.072s18.326,34.619,46.349,74.074c28.011,39.282,44.978,91.677,90.421,107.48,45.443,15.953,86.937,33.718,103.452,31.767,16.352-1.962,25.131-20.928,25.131-20.928-107.992-2.863-182.051-96.5-224.01-162.888C238.817,227.8,161.275,89.6,104.173,32.991,81.538,10.412,60.762.2,44.991,0Z" transform="translate(-18.594)" fill="none"/>
    </clipPath>
    <linearGradient id="linear-gradient-6" x1="-0.444" y1="2.576" x2="-0.42" y2="2.576" xlink:href="#linear-gradient-3"/>
    <clipPath id="clip-path-8">
      <path id="Trazado_699316" data-name="Trazado 699316" d="M6.179,31.594C-2.311,43.8-1.4,58.386,4.971,73.9,7.84,39.72,27.373,33.106,50.7,33.106c26.955,0,70.586,30.255,81.63,60.51,11.218,30.267,25.6,50.445,59.518,59.021,33.783,8.727,71.039,41.395,73.919,64.435s68.159,40.794,81.63,73.012c13.646,32.218,25.154-26.954,25.154-26.954S322.27,242.052,269.1,183.493c-53.166-58.71-152.216-131.721-177.359-151.9C77.624,20.27,59.89,10.885,42.83,10.885c-13.32,0-26.223,5.726-36.652,20.709" transform="translate(0 -10.885)" fill="none"/>
    </clipPath>
    <linearGradient id="linear-gradient-7" x1="0.006" y1="3.564" x2="0.037" y2="3.564" xlink:href="#linear-gradient-3"/>
    <clipPath id="clip-path-9">
      <path id="Trazado_699317" data-name="Trazado 699317" d="M29.892,88.372c-5.005,7.976-18.488,29.216-11.973,47.27,2.729,7.826,10.6,23.341,23.784,39.305,2.265-54.058,21.345-74.374,47.1-65.647,29.521,10.077,64.663,20.028,64.663,42.456,0,17.9-32.25,45.158-64.361,60.972a114.022,114.022,0,0,0,32.866,9.327c60.575-8.277,96.472-44.257,96.472-100.4C168.915,127.516,67.3,54.5,67.3,54.5,45.477,61.43,35.025,80.546,29.892,88.372" transform="translate(-16.175 -54.504)" fill="none"/>
    </clipPath>
    <linearGradient id="linear-gradient-8" x1="-0.884" y1="3.621" x2="-0.828" y2="3.621" xlink:href="#linear-gradient-3"/>
    <clipPath id="clip-path-10">
      <path id="Trazado_699319" data-name="Trazado 699319" d="M51.814,59.7s-27.256,30.267-31.5,45.769c-2.276,7.826-1.823,21.979.906,35.981,2.567,14,7.572,27.554,14.691,34.63,10.9,10.828,57.858,42.745,97.842,60.372,11.962,5.264,23.32,9.177,33.017,10.978a103.567,103.567,0,0,0,67.392-11.439c13.03-7.215,22.425-16.7,26.049-26.792,3.937-10.689,6.364-23.491,2.276-35.08-5.145-14.452-20.741-26.792-56.952-30.117,0-25.58-47.557-39.582-47.557-39.582s8.025-35.681-32.25-60.522c-41.343,0-73.919,15.8-73.919,15.8" transform="translate(-18.86 -43.901)" fill="none"/>
    </clipPath>
    <linearGradient id="linear-gradient-9" x1="-0.602" y1="2.45" x2="-0.565" y2="2.45" xlink:href="#linear-gradient-2"/>
    <clipPath id="clip-path-11">
      <path id="Trazado_699320" data-name="Trazado 699320" d="M51.814,59.7s-27.256,30.267-31.5,45.769c-2.276,7.826-1.823,21.979.906,35.981,25.433-59.471,43-59.01,67.543-56.759,26.664,2.413,35.595,8.588,44.084,37.943,8.327,29.355,60.436,19.416,60.436,51.483,0,25.892-30.45,49.833-59.53,62.334,11.962,5.264,23.32,9.177,33.017,10.978a103.567,103.567,0,0,0,67.392-11.439c13.03-7.215,22.425-16.7,26.049-26.792,3.937-10.689,6.364-23.491,2.276-35.08-5.145-14.452-20.741-26.792-56.952-30.117,0-25.58-47.557-39.582-47.557-39.582s8.025-35.681-32.25-60.522c-41.343,0-73.919,15.8-73.919,15.8" transform="translate(-18.86 -43.901)" fill="none"/>
    </clipPath>
    <linearGradient id="linear-gradient-10" x1="-0.878" y1="3.507" x2="-0.831" y2="3.507" xlink:href="#linear-gradient-3"/>
    <clipPath id="clip-path-12">
      <path id="Trazado_699321" data-name="Trazado 699321" d="M51.5,66.471s4.529,27.4-14.1,50.583c13.03-7.215,22.425-16.7,26.049-26.792,3.937-10.689,6.364-23.491,2.276-35.08A33.422,33.422,0,0,1,51.5,66.471" transform="translate(-37.4 -55.182)" fill="none"/>
    </clipPath>
    <linearGradient id="linear-gradient-11" x1="-6.473" y1="15.843" x2="-6.293" y2="15.843" xlink:href="#linear-gradient-3"/>
    <clipPath id="clip-path-13">
      <path id="Trazado_699323" data-name="Trazado 699323" d="M123.191,343.954a223.5,223.5,0,0,1-8.7-240.714,57.23,57.23,0,0,0-39.88,38.312A223.54,223.54,0,0,1,83.5,45.581a226.4,226.4,0,0,0,39.694,298.373" transform="translate(-44.585 -45.581)" fill="none"/>
    </clipPath>
    <linearGradient id="linear-gradient-12" x1="-2.662" y1="2.28" x2="-2.595" y2="2.28" xlink:href="#linear-gradient-3"/>
    <clipPath id="clip-path-14">
      <rect id="Rectángulo_345070" data-name="Rectángulo 345070" width="1022.751" height="1235.868" fill="none"/>
    </clipPath>
  </defs>
  <g id="Grupo_1003694" data-name="Grupo 1003694" transform="translate(-136 -442)">
    <path id="Rectángulo_345072" data-name="Rectángulo 345072" d="M0,0H1328a0,0,0,0,1,0,0V746a20,20,0,0,1-20,20H20A20,20,0,0,1,0,746V0A0,0,0,0,1,0,0Z" transform="translate(136 442)" fill="url(#linear-gradient)"/>
    <g id="Enmascarar_grupo_105" data-name="Enmascarar grupo 105" clip-path="url(#clip-path)">
      <g id="Grupo_990677" data-name="Grupo 990677" transform="translate(121.848 658.66)">
        <g id="Grupo_990676" data-name="Grupo 990676" transform="translate(10)" opacity="0.4" clip-path="url(#clip-path-2)">
          <path id="Trazado_699292" data-name="Trazado 699292" d="M242.22,109.982a2.6,2.6,0,1,1-2.619,2.6,2.608,2.608,0,0,1,2.619-2.6m-18.6,2.6a2.615,2.615,0,1,0,2.618-2.6,2.607,2.607,0,0,0-2.618,2.6m-15.97,0a2.615,2.615,0,1,0,2.615-2.6,2.6,2.6,0,0,0-2.615,2.6M5.233,96.871a2.578,2.578,0,0,0-.87-1.923c-.387,1.47-.766,2.944-1.1,4.434a2.6,2.6,0,0,0,1.974-2.511m186.447,15.71a2.616,2.616,0,1,0,2.616-2.6,2.6,2.6,0,0,0-2.616,2.6m-189.065,2.6a2.6,2.6,0,1,0-1.368-4.806c-.187,1.338-.358,2.678-.5,4.028a2.61,2.61,0,0,0,1.87.778m77.253-2.6a2.616,2.616,0,1,0,2.615-2.6,2.6,2.6,0,0,0-2.615,2.6m47.92,0a2.617,2.617,0,1,0,2.615-2.6,2.6,2.6,0,0,0-2.615,2.6m-15.976,0a2.617,2.617,0,1,0,2.616-2.6,2.605,2.605,0,0,0-2.616,2.6m-15.971,0a2.614,2.614,0,1,0,2.613-2.6,2.6,2.6,0,0,0-2.613,2.6m47.923,0a2.613,2.613,0,1,0,2.612-2.6,2.6,2.6,0,0,0-2.612,2.6m79.86-15.71a2.615,2.615,0,1,0,2.618-2.6,2.615,2.615,0,0,0-2.618,2.6m-63.89,15.71a2.617,2.617,0,1,0,2.615-2.6,2.6,2.6,0,0,0-2.615,2.6m15.973,0a2.616,2.616,0,1,0,2.621-2.6,2.6,2.6,0,0,0-2.621,2.6m15.973-15.71a2.616,2.616,0,1,0,2.616-2.6,2.612,2.612,0,0,0-2.616,2.6m-47.916,0a2.613,2.613,0,1,0,2.612-2.6,2.609,2.609,0,0,0-2.612,2.6m15.97,0a2.617,2.617,0,1,0,2.615-2.6,2.611,2.611,0,0,0-2.615,2.6m-127.787,0a2.616,2.616,0,1,0,2.612-2.6,2.61,2.61,0,0,0-2.612,2.6m175.707,0a2.615,2.615,0,1,0,2.615-2.6,2.612,2.612,0,0,0-2.615,2.6m31.946,0a2.616,2.616,0,1,0,2.619-2.6,2.616,2.616,0,0,0-2.619,2.6m-63.893,0a2.616,2.616,0,1,0,2.621-2.6,2.611,2.611,0,0,0-2.621,2.6m-111.817,0a2.618,2.618,0,1,0,2.62-2.6,2.615,2.615,0,0,0-2.62,2.6m-15.968,0a2.616,2.616,0,1,0,2.615-2.6,2.612,2.612,0,0,0-2.615,2.6m31.946,0a2.616,2.616,0,1,0,2.615-2.6,2.611,2.611,0,0,0-2.615,2.6m47.92,0a2.617,2.617,0,1,0,2.615-2.6,2.611,2.611,0,0,0-2.615,2.6m-31.947,0a2.614,2.614,0,1,0,2.613-2.6,2.613,2.613,0,0,0-2.613,2.6m15.971,0a2.616,2.616,0,1,0,2.616-2.6,2.613,2.613,0,0,0-2.616,2.6m-95.839,0a2.617,2.617,0,1,0,2.613-2.6,2.613,2.613,0,0,0-2.613,2.6m47.917,15.71a2.618,2.618,0,1,0,2.62-2.6,2.607,2.607,0,0,0-2.62,2.6M47.922,128.293a2.616,2.616,0,1,0,2.615-2.6,2.607,2.607,0,0,0-2.615,2.6m-31.949,0a2.617,2.617,0,1,0,2.613-2.6,2.608,2.608,0,0,0-2.613,2.6m47.917,0a2.618,2.618,0,1,0,2.62-2.6,2.61,2.61,0,0,0-2.62,2.6M2.615,146.607a2.6,2.6,0,1,0-1.87-4.419c.145,1.353.315,2.687.5,4.025a2.631,2.631,0,0,0,1.368.394m77.253-18.314a2.616,2.616,0,1,0,2.615-2.6,2.606,2.606,0,0,0-2.615,2.6M175.707,144a2.616,2.616,0,1,0,2.621-2.6,2.611,2.611,0,0,0-2.621,2.6m-79.866-15.71a2.614,2.614,0,1,0,2.613-2.6,2.608,2.608,0,0,0-2.613,2.6M159.734,144a2.617,2.617,0,1,0,2.615-2.6,2.611,2.611,0,0,0-2.615,2.6m63.89,0a2.615,2.615,0,1,0,2.618-2.6,2.615,2.615,0,0,0-2.618,2.6m-31.944,0a2.616,2.616,0,1,0,2.616-2.6,2.612,2.612,0,0,0-2.616,2.6m47.92,0a2.616,2.616,0,1,0,2.619-2.6A2.616,2.616,0,0,0,239.6,144m-31.946,0a2.615,2.615,0,1,0,2.615-2.6,2.612,2.612,0,0,0-2.615,2.6M31.947,128.293a2.616,2.616,0,1,0,2.612-2.6,2.6,2.6,0,0,0-2.612,2.6M0,128.293a2.617,2.617,0,1,0,2.615-2.6A2.606,2.606,0,0,0,0,128.293m15.973-15.712a2.617,2.617,0,1,0,2.613-2.6,2.6,2.6,0,0,0-2.613,2.6M239.6,128.293a2.616,2.616,0,1,0,2.619-2.6,2.611,2.611,0,0,0-2.619,2.6m-15.976,0a2.615,2.615,0,1,0,2.618-2.6,2.61,2.61,0,0,0-2.618,2.6M31.947,112.581a2.616,2.616,0,1,0,2.612-2.6,2.6,2.6,0,0,0-2.612,2.6m15.974,0a2.616,2.616,0,1,0,2.615-2.6,2.6,2.6,0,0,0-2.615,2.6m95.842,15.712a2.613,2.613,0,1,0,2.612-2.6,2.6,2.6,0,0,0-2.612,2.6m15.97,0a2.617,2.617,0,1,0,2.615-2.6,2.606,2.606,0,0,0-2.615,2.6m-47.922,0a2.617,2.617,0,1,0,2.616-2.6,2.609,2.609,0,0,0-2.616,2.6m95.842,0a2.615,2.615,0,1,0,2.615-2.6,2.607,2.607,0,0,0-2.615,2.6m-79.866,0a2.617,2.617,0,1,0,2.615-2.6,2.606,2.606,0,0,0-2.615,2.6m63.892,0a2.616,2.616,0,1,0,2.616-2.6,2.607,2.607,0,0,0-2.616,2.6m-15.973,0a2.616,2.616,0,1,0,2.621-2.6,2.606,2.606,0,0,0-2.621,2.6M79.868,18.314a2.616,2.616,0,1,0,2.615-2.6,2.6,2.6,0,0,0-2.615,2.6M207.655,65.446a2.615,2.615,0,1,0,2.615-2.6,2.6,2.6,0,0,0-2.615,2.6M127.788,34.027a2.617,2.617,0,1,0,2.615-2.6,2.611,2.611,0,0,0-2.615,2.6m-31.947,0a2.614,2.614,0,1,0,2.613-2.6,2.612,2.612,0,0,0-2.613,2.6m15.971,0a2.616,2.616,0,1,0,2.616-2.6,2.613,2.613,0,0,0-2.616,2.6m47.922,0a2.617,2.617,0,1,0,2.615-2.6,2.611,2.611,0,0,0-2.615,2.6m31.946,0a2.616,2.616,0,1,0,2.616-2.6,2.611,2.611,0,0,0-2.616,2.6m21.2,0a2.615,2.615,0,1,0-2.615,2.6,2.608,2.608,0,0,0,2.615-2.6M162.349,5.207a2.616,2.616,0,0,0,2.524-1.95c-1.674-.451-3.354-.881-5.059-1.27a2.733,2.733,0,0,0-.079.618,2.61,2.61,0,0,0,2.615,2.6M242.22,188.533a2.6,2.6,0,1,0,0,5.2,2.432,2.432,0,0,0,.844-.154c.586-.984,1.162-1.979,1.707-2.985a2.611,2.611,0,0,0-2.551-2.063M79.868,34.027a2.616,2.616,0,1,0,2.615-2.6,2.611,2.611,0,0,0-2.615,2.6m95.839,0a2.616,2.616,0,1,0,2.621-2.6,2.61,2.61,0,0,0-2.621,2.6m-127.785,0a2.616,2.616,0,1,0,2.615-2.6,2.611,2.611,0,0,0-2.615,2.6m15.968,0a2.618,2.618,0,1,0,2.62-2.6,2.614,2.614,0,0,0-2.62,2.6m79.874,0a2.613,2.613,0,1,0,2.612-2.6,2.608,2.608,0,0,0-2.612,2.6M191.68,18.314a2.616,2.616,0,1,0,2.616-2.6,2.6,2.6,0,0,0-2.616,2.6M111.812,2.605A2.616,2.616,0,1,0,114.429,0a2.612,2.612,0,0,0-2.616,2.605m63.895,15.709a2.616,2.616,0,1,0,2.621-2.6,2.6,2.6,0,0,0-2.621,2.6m-111.817,0a2.618,2.618,0,1,0,2.62-2.6,2.606,2.606,0,0,0-2.62,2.6m63.9-15.709A2.617,2.617,0,1,0,130.4,0a2.61,2.61,0,0,0-2.615,2.605m15.976,0A2.613,2.613,0,1,0,146.376,0a2.608,2.608,0,0,0-2.612,2.605m-45.31,2.6a2.609,2.609,0,0,0,2.615-2.6,2.131,2.131,0,0,0-.085-.618c-1.7.389-3.376.819-5.047,1.27a2.6,2.6,0,0,0,2.517,1.95m13.358,13.106a2.617,2.617,0,1,0,2.616-2.6,2.6,2.6,0,0,0-2.616,2.6m-15.971,0a2.614,2.614,0,1,0,2.613-2.6,2.6,2.6,0,0,0-2.613,2.6M143.764,144a2.613,2.613,0,1,0,2.612-2.6,2.609,2.609,0,0,0-2.612,2.6m0-125.689a2.613,2.613,0,1,0,2.612-2.6,2.6,2.6,0,0,0-2.612,2.6m15.97,0a2.617,2.617,0,1,0,2.615-2.6,2.6,2.6,0,0,0-2.615,2.6m-31.946,0a2.617,2.617,0,1,0,2.615-2.6,2.6,2.6,0,0,0-2.615,2.6M239.6,81.164a2.616,2.616,0,1,0,2.619-2.6,2.611,2.611,0,0,0-2.619,2.6m-79.866,0a2.617,2.617,0,1,0,2.615-2.6,2.606,2.606,0,0,0-2.615,2.6m-15.97,0a2.613,2.613,0,1,0,2.612-2.6,2.6,2.6,0,0,0-2.612,2.6m31.943,0a2.616,2.616,0,1,0,2.621-2.6,2.605,2.605,0,0,0-2.621,2.6m15.973,0a2.616,2.616,0,1,0,2.616-2.6,2.606,2.606,0,0,0-2.616,2.6m15.975,0a2.615,2.615,0,1,0,2.615-2.6,2.607,2.607,0,0,0-2.615,2.6m-79.866,0a2.617,2.617,0,1,0,2.615-2.6,2.606,2.606,0,0,0-2.615,2.6m-95.841,0a2.616,2.616,0,1,0,2.612-2.6,2.6,2.6,0,0,0-2.612,2.6m15.974,0a2.616,2.616,0,1,0,2.615-2.6,2.607,2.607,0,0,0-2.615,2.6m15.968,0a2.618,2.618,0,1,0,2.62-2.6,2.61,2.61,0,0,0-2.62,2.6m-47.917,0a2.617,2.617,0,1,0,2.613-2.6,2.608,2.608,0,0,0-2.613,2.6m95.839,0a2.617,2.617,0,1,0,2.616-2.6,2.608,2.608,0,0,0-2.616,2.6m-31.944,0a2.616,2.616,0,1,0,2.615-2.6,2.606,2.606,0,0,0-2.615,2.6m15.973,0a2.614,2.614,0,1,0,2.613-2.6,2.608,2.608,0,0,0-2.613,2.6M223.624,65.446a2.615,2.615,0,1,0,2.618-2.6,2.6,2.6,0,0,0-2.618,2.6m-63.89,0a2.617,2.617,0,1,0,2.615-2.6,2.6,2.6,0,0,0-2.615,2.6m-15.97,0a2.613,2.613,0,1,0,2.612-2.6,2.6,2.6,0,0,0-2.612,2.6m79.86,15.718a2.615,2.615,0,1,0,2.618-2.6,2.61,2.61,0,0,0-2.618,2.6M111.812,65.446a2.617,2.617,0,1,0,2.616-2.6,2.6,2.6,0,0,0-2.616,2.6m79.868,0a2.616,2.616,0,1,0,2.616-2.6,2.6,2.6,0,0,0-2.616,2.6m-15.973,0a2.616,2.616,0,1,0,2.621-2.6,2.6,2.6,0,0,0-2.621,2.6m-47.919,0a2.617,2.617,0,1,0,2.615-2.6,2.6,2.6,0,0,0-2.615,2.6m-79.866,0a2.616,2.616,0,1,0,2.615-2.6,2.6,2.6,0,0,0-2.615,2.6m-15.974,0a2.616,2.616,0,1,0,2.612-2.6,2.6,2.6,0,0,0-2.612,2.6m47.92,0a2.616,2.616,0,1,0,2.615-2.6,2.6,2.6,0,0,0-2.615,2.6m-15.978,0a2.618,2.618,0,1,0,2.62-2.6,2.6,2.6,0,0,0-2.62,2.6m31.95,0a2.614,2.614,0,1,0,2.613-2.6,2.6,2.6,0,0,0-2.613,2.6m53.15,172.826a2.613,2.613,0,1,0-2.615,2.6,2.607,2.607,0,0,0,2.615-2.6M69.126,49.737a2.618,2.618,0,1,0-2.616,2.6,2.607,2.607,0,0,0,2.616-2.6M258.19,109.982a2.6,2.6,0,1,0,1.867,4.417c-.143-1.356-.314-2.69-.5-4.028a2.618,2.618,0,0,0-1.366-.389M85.1,49.737a2.616,2.616,0,1,0-2.616,2.6,2.605,2.605,0,0,0,2.616-2.6m15.97,0a2.614,2.614,0,1,0-2.615,2.6,2.6,2.6,0,0,0,2.615-2.6M239.6,65.446a2.615,2.615,0,0,0,5.17.539c-.545-1-1.121-2-1.707-2.985a2.581,2.581,0,0,0-.844-.153,2.613,2.613,0,0,0-2.619,2.6m15.973,31.425a2.6,2.6,0,0,0,1.969,2.511c-.337-1.49-.713-2.964-1.1-4.434a2.575,2.575,0,0,0-.867,1.923M53.153,49.737a2.616,2.616,0,1,0-2.616,2.6,2.607,2.607,0,0,0,2.616-2.6m127.785,0a2.616,2.616,0,1,0-2.61,2.6,2.606,2.606,0,0,0,2.61-2.6m15.973,0a2.616,2.616,0,1,0-2.615,2.6,2.607,2.607,0,0,0,2.615-2.6m15.973,0a2.615,2.615,0,1,0-2.615,2.6,2.6,2.6,0,0,0,2.615-2.6m-47.917,0a2.617,2.617,0,1,0-2.618,2.6,2.608,2.608,0,0,0,2.618-2.6m-31.946,0a2.617,2.617,0,1,0-2.618,2.6,2.607,2.607,0,0,0,2.618-2.6m15.97,0a2.613,2.613,0,1,0-2.615,2.6,2.606,2.606,0,0,0,2.615-2.6m-31.946,0a2.617,2.617,0,1,0-2.616,2.6,2.608,2.608,0,0,0,2.616-2.6m-5.233,157.116a2.616,2.616,0,1,0,2.616-2.605,2.612,2.612,0,0,0-2.616,2.605m15.976,0a2.617,2.617,0,1,0,2.615-2.605,2.61,2.61,0,0,0-2.615,2.605m-31.947,0a2.614,2.614,0,1,0,2.613-2.605,2.612,2.612,0,0,0-2.613,2.605m63.893,0a2.616,2.616,0,1,0,2.615-2.605,2.61,2.61,0,0,0-2.615,2.605m-79.866,0a2.616,2.616,0,1,0,2.615-2.605,2.61,2.61,0,0,0-2.615,2.605m63.9,0a2.613,2.613,0,1,0,2.612-2.605,2.608,2.608,0,0,0-2.612,2.605M258.19,125.692a2.6,2.6,0,1,0,2.616,2.6,2.607,2.607,0,0,0-2.616-2.6M63.89,206.853a2.618,2.618,0,1,0,2.62-2.605,2.614,2.614,0,0,0-2.62,2.605m191.683-47.138a2.572,2.572,0,0,0,.867,1.921c.39-1.467.766-2.944,1.1-4.428a2.589,2.589,0,0,0-1.969,2.507M258.19,141.4a2.6,2.6,0,1,0,1.366,4.809c.187-1.338.358-2.672.5-4.025a2.6,2.6,0,0,0-1.867-.784m-29.336,65.449a2.615,2.615,0,1,0-2.612,2.6,2.6,2.6,0,0,0,2.612-2.6m-196.907,0a2.616,2.616,0,1,0,2.612-2.605,2.609,2.609,0,0,0-2.612,2.605m15.974,0a2.616,2.616,0,1,0,2.615-2.605,2.611,2.611,0,0,0-2.615,2.605m148.99,31.419a2.616,2.616,0,1,0-2.615,2.6,2.608,2.608,0,0,0,2.615-2.6m-95.842-15.709a2.614,2.614,0,1,0-2.615,2.6,2.611,2.611,0,0,0,2.615-2.6m15.976,0a2.617,2.617,0,1,0-2.616,2.6,2.616,2.616,0,0,0,2.616-2.6m31.946,0a2.613,2.613,0,1,0-2.615,2.6,2.613,2.613,0,0,0,2.615-2.6m-15.97,0a2.617,2.617,0,1,0-2.618,2.6,2.615,2.615,0,0,0,2.618-2.6m-63.895,0a2.618,2.618,0,1,0-2.616,2.6,2.615,2.615,0,0,0,2.616-2.6m106.581-15.71a2.616,2.616,0,1,0,2.621-2.605,2.61,2.61,0,0,0-2.621,2.605M85.1,222.563a2.616,2.616,0,1,0-2.616,2.6,2.613,2.613,0,0,0,2.616-2.6m-37.177,0a2.616,2.616,0,1,0,2.615-2.608,2.609,2.609,0,0,0-2.615,2.608m164.962,0a2.615,2.615,0,1,0-2.615,2.6,2.612,2.612,0,0,0,2.615-2.6M101.069,253.985a2.61,2.61,0,0,0-5.132-.662c1.671.453,3.354.889,5.047,1.279a2.146,2.146,0,0,0,.085-.618M127.788,144a2.617,2.617,0,1,0,2.615-2.6,2.612,2.612,0,0,0-2.615,2.6m53.15,78.56a2.616,2.616,0,1,0-2.61,2.6,2.613,2.613,0,0,0,2.61-2.6m-15.971,0a2.617,2.617,0,1,0-2.618,2.6,2.616,2.616,0,0,0,2.618-2.6m-2.618,28.82a2.6,2.6,0,0,0-2.615,2.6,2.756,2.756,0,0,0,.079.618c1.706-.391,3.386-.827,5.059-1.279a2.614,2.614,0,0,0-2.524-1.941m-34.561,2.6a2.617,2.617,0,1,0,2.615-2.6,2.608,2.608,0,0,0-2.615,2.6M228.854,49.737a2.615,2.615,0,1,0-2.612,2.6,2.6,2.6,0,0,0,2.612-2.6M111.812,253.985a2.617,2.617,0,1,0,2.616-2.6,2.611,2.611,0,0,0-2.616,2.6m37.179,0a2.613,2.613,0,1,0-2.615,2.6,2.6,2.6,0,0,0,2.615-2.6m31.947-15.713a2.616,2.616,0,1,0-2.61,2.6,2.607,2.607,0,0,0,2.61-2.6M18.586,68.042a2.6,2.6,0,1,0,0-5.2,2.641,2.641,0,0,0-.851.153q-.868,1.485-1.7,2.985a2.607,2.607,0,0,0,2.554,2.057m13.361-18.3a2.616,2.616,0,1,0,2.612-2.6,2.605,2.605,0,0,0-2.612,2.6M133.021,238.272a2.617,2.617,0,1,0-2.618,2.6,2.609,2.609,0,0,0,2.618-2.6m-47.922,0a2.616,2.616,0,1,0-2.616,2.6,2.607,2.607,0,0,0,2.616-2.6m31.946,0a2.617,2.617,0,1,0-2.616,2.6,2.61,2.61,0,0,0,2.616-2.6m47.922,0a2.617,2.617,0,1,0-2.618,2.6,2.61,2.61,0,0,0,2.618-2.6m-63.9,0a2.614,2.614,0,1,0-2.615,2.6,2.605,2.605,0,0,0,2.615-2.6m-31.943,0a2.618,2.618,0,1,0-2.616,2.6,2.609,2.609,0,0,0,2.616-2.6m127.785-15.709a2.616,2.616,0,1,0-2.615,2.6,2.614,2.614,0,0,0,2.615-2.6M79.868,159.715a2.616,2.616,0,1,0,2.615-2.6,2.605,2.605,0,0,0-2.615,2.6m15.973,0a2.614,2.614,0,1,0,2.613-2.6,2.607,2.607,0,0,0-2.613,2.6m-31.95,0a2.618,2.618,0,1,0,2.62-2.6,2.609,2.609,0,0,0-2.62,2.6m63.9,0a2.617,2.617,0,1,0,2.615-2.6,2.605,2.605,0,0,0-2.615,2.6m15.976,0a2.613,2.613,0,1,0,2.612-2.6,2.6,2.6,0,0,0-2.612,2.6m-95.842,0a2.616,2.616,0,1,0,2.615-2.6,2.606,2.606,0,0,0-2.615,2.6m63.89,0a2.616,2.616,0,1,0,2.616-2.6,2.608,2.608,0,0,0-2.616,2.6m111.812,15.71a2.615,2.615,0,1,0,2.618-2.6,2.607,2.607,0,0,0-2.618,2.6M31.947,159.715a2.616,2.616,0,1,0,2.612-2.6,2.6,2.6,0,0,0-2.612,2.6m175.707,15.71a2.615,2.615,0,1,0,2.615-2.6,2.6,2.6,0,0,0-2.615,2.6m31.946,0a2.616,2.616,0,1,0,2.619-2.6,2.609,2.609,0,0,0-2.619,2.6M15.973,159.715a2.617,2.617,0,1,0,2.613-2.6,2.607,2.607,0,0,0-2.613,2.6m-10.74,0a2.587,2.587,0,0,0-1.974-2.507c.338,1.484.717,2.961,1.1,4.428a2.575,2.575,0,0,0,.87-1.921M31.947,144a2.616,2.616,0,1,0,2.612-2.6,2.61,2.61,0,0,0-2.612,2.6m47.92,0a2.616,2.616,0,1,0,2.615-2.6,2.611,2.611,0,0,0-2.615,2.6M191.68,175.425a2.616,2.616,0,1,0,2.616-2.6,2.6,2.6,0,0,0-2.616,2.6M47.922,144a2.616,2.616,0,1,0,2.615-2.6,2.612,2.612,0,0,0-2.615,2.6m111.812,15.712a2.617,2.617,0,1,0,2.615-2.6,2.605,2.605,0,0,0-2.615,2.6M95.841,144a2.614,2.614,0,1,0,2.613-2.6,2.613,2.613,0,0,0-2.613,2.6m15.971,0a2.617,2.617,0,1,0,2.616-2.6,2.614,2.614,0,0,0-2.616,2.6M63.89,144a2.618,2.618,0,1,0,2.62-2.6,2.615,2.615,0,0,0-2.62,2.6m127.79,15.712a2.616,2.616,0,1,0,2.616-2.6,2.606,2.606,0,0,0-2.616,2.6m15.975,0a2.615,2.615,0,1,0,2.615-2.6,2.606,2.606,0,0,0-2.615,2.6m-31.947,0a2.616,2.616,0,1,0,2.621-2.6,2.6,2.6,0,0,0-2.621,2.6M15.973,144a2.617,2.617,0,1,0,2.613-2.6,2.613,2.613,0,0,0-2.613,2.6M239.6,159.715a2.616,2.616,0,1,0,2.619-2.6,2.61,2.61,0,0,0-2.619,2.6m-15.976,0a2.615,2.615,0,1,0,2.618-2.6,2.609,2.609,0,0,0-2.618,2.6m-15.97,31.422a2.615,2.615,0,1,0,2.615-2.6,2.606,2.606,0,0,0-2.615,2.6m-63.89,0a2.613,2.613,0,1,0,2.612-2.6,2.6,2.6,0,0,0-2.612,2.6m-15.976,0a2.617,2.617,0,1,0,2.615-2.6,2.6,2.6,0,0,0-2.615,2.6m31.946,0a2.617,2.617,0,1,0,2.615-2.6,2.6,2.6,0,0,0-2.615,2.6m-47.922,0a2.616,2.616,0,1,0,2.616-2.6,2.607,2.607,0,0,0-2.616,2.6m63.895,0a2.616,2.616,0,1,0,2.621-2.6,2.6,2.6,0,0,0-2.621,2.6m15.973,0a2.616,2.616,0,1,0,2.616-2.6,2.605,2.605,0,0,0-2.616,2.6m-159.733,0a2.616,2.616,0,1,0,2.612-2.6,2.6,2.6,0,0,0-2.612,2.6m15.974,0a2.616,2.616,0,1,0,2.615-2.6,2.606,2.606,0,0,0-2.615,2.6m47.919,0a2.614,2.614,0,1,0,2.613-2.6,2.606,2.606,0,0,0-2.613,2.6m95.839,15.716a2.616,2.616,0,1,0,2.616-2.605,2.611,2.611,0,0,0-2.616,2.605m31.944-15.716a2.615,2.615,0,1,0,2.618-2.6,2.608,2.608,0,0,0-2.618,2.6m-143.757,0a2.616,2.616,0,1,0,2.615-2.6,2.6,2.6,0,0,0-2.615,2.6m-15.978,0a2.618,2.618,0,1,0,2.62-2.6,2.609,2.609,0,0,0-2.62,2.6M31.947,175.425a2.616,2.616,0,1,0,2.612-2.6,2.6,2.6,0,0,0-2.612,2.6m95.841,0a2.617,2.617,0,1,0,2.615-2.6,2.6,2.6,0,0,0-2.615,2.6m-15.976,0a2.617,2.617,0,1,0,2.616-2.6,2.606,2.606,0,0,0-2.616,2.6m-15.971,0a2.614,2.614,0,1,0,2.613-2.6,2.605,2.605,0,0,0-2.613,2.6m63.893,0a2.617,2.617,0,1,0,2.615-2.6,2.6,2.6,0,0,0-2.615,2.6m-15.97,0a2.613,2.613,0,1,0,2.612-2.6,2.6,2.6,0,0,0-2.612,2.6m-63.9,0a2.616,2.616,0,1,0,2.615-2.6,2.6,2.6,0,0,0-2.615,2.6m127.787,31.428a2.615,2.615,0,1,0,2.615-2.605,2.611,2.611,0,0,0-2.615,2.605M21.206,191.137a2.616,2.616,0,0,0-5.174-.54q.832,1.51,1.7,2.985a2.488,2.488,0,0,0,.851.154,2.608,2.608,0,0,0,2.62-2.6m-5.233-15.712a2.617,2.617,0,1,0,2.613-2.6,2.605,2.605,0,0,0-2.613,2.6m159.734,0a2.616,2.616,0,1,0,2.621-2.6,2.6,2.6,0,0,0-2.621,2.6m-127.785,0a2.616,2.616,0,1,0,2.615-2.6,2.6,2.6,0,0,0-2.615,2.6m15.968,0a2.618,2.618,0,1,0,2.62-2.6,2.608,2.608,0,0,0-2.62,2.6" transform="translate(-103.624 -58)" fill="#ffa031"/>
          <path id="Trazado_699293" data-name="Trazado 699293" d="M975.342,336.528a2.6,2.6,0,1,1-2.62,2.6,2.608,2.608,0,0,1,2.62-2.6m-18.594,2.6a2.613,2.613,0,1,0,2.617-2.6,2.605,2.605,0,0,0-2.617,2.6m-15.97,0a2.614,2.614,0,1,0,2.613-2.6,2.6,2.6,0,0,0-2.613,2.6m-202.423-15.71a2.577,2.577,0,0,0-.87-1.921c-.387,1.47-.766,2.943-1.1,4.434a2.6,2.6,0,0,0,1.972-2.513M924.8,339.127a2.617,2.617,0,1,0,2.618-2.6,2.6,2.6,0,0,0-2.618,2.6m-189.065,2.6a2.6,2.6,0,1,0,0-5.2,2.64,2.64,0,0,0-1.369.389c-.186,1.338-.356,2.679-.5,4.028a2.607,2.607,0,0,0,1.87.778m77.251-2.6a2.617,2.617,0,1,0,2.615-2.6,2.6,2.6,0,0,0-2.615,2.6m47.922,0a2.617,2.617,0,1,0,2.617-2.6,2.6,2.6,0,0,0-2.617,2.6m-15.976,0a2.617,2.617,0,1,0,2.618-2.6,2.606,2.606,0,0,0-2.618,2.6m-15.971,0a2.614,2.614,0,1,0,2.613-2.6,2.6,2.6,0,0,0-2.613,2.6m47.923,0a2.613,2.613,0,1,0,2.612-2.6,2.6,2.6,0,0,0-2.612,2.6m79.862-15.71a2.613,2.613,0,1,0,2.617-2.6,2.613,2.613,0,0,0-2.617,2.6m-63.89,15.71a2.615,2.615,0,1,0,2.613-2.6,2.6,2.6,0,0,0-2.613,2.6m15.971,0a2.617,2.617,0,1,0,2.621-2.6,2.6,2.6,0,0,0-2.621,2.6m15.973-15.71a2.617,2.617,0,1,0,2.618-2.6,2.613,2.613,0,0,0-2.618,2.6m-47.916,0a2.613,2.613,0,1,0,2.612-2.6,2.609,2.609,0,0,0-2.612,2.6m15.971,0a2.615,2.615,0,1,0,2.613-2.6,2.61,2.61,0,0,0-2.613,2.6m-127.788,0a2.616,2.616,0,1,0,2.612-2.6,2.61,2.61,0,0,0-2.612,2.6m175.709,0a2.614,2.614,0,1,0,2.613-2.6,2.611,2.611,0,0,0-2.613,2.6m31.944,0a2.616,2.616,0,1,0,2.62-2.6,2.616,2.616,0,0,0-2.62,2.6m-63.893,0a2.617,2.617,0,1,0,2.621-2.6,2.61,2.61,0,0,0-2.621,2.6m-111.817,0a2.618,2.618,0,1,0,2.619-2.6,2.615,2.615,0,0,0-2.619,2.6m-15.967,0a2.615,2.615,0,1,0,2.613-2.6,2.61,2.61,0,0,0-2.613,2.6m31.943,0a2.617,2.617,0,1,0,2.615-2.6,2.612,2.612,0,0,0-2.615,2.6m47.922,0a2.617,2.617,0,1,0,2.617-2.6,2.612,2.612,0,0,0-2.617,2.6m-31.947,0a2.614,2.614,0,1,0,2.613-2.6,2.613,2.613,0,0,0-2.613,2.6m15.971,0a2.617,2.617,0,1,0,2.618-2.6,2.614,2.614,0,0,0-2.618,2.6m-95.839,0a2.617,2.617,0,1,0,2.613-2.6,2.613,2.613,0,0,0-2.613,2.6m47.917,15.71a2.618,2.618,0,1,0,2.619-2.6,2.607,2.607,0,0,0-2.619,2.6M781.045,354.84a2.615,2.615,0,1,0,2.613-2.6,2.605,2.605,0,0,0-2.613,2.6m-31.951,0a2.617,2.617,0,1,0,2.613-2.6,2.608,2.608,0,0,0-2.613,2.6m47.917,0a2.618,2.618,0,1,0,2.619-2.6,2.61,2.61,0,0,0-2.619,2.6m-61.275,18.314a2.6,2.6,0,1,0-1.87-4.419c.145,1.352.315,2.686.5,4.024a2.646,2.646,0,0,0,1.369.4m77.251-18.314a2.617,2.617,0,1,0,2.615-2.6,2.607,2.607,0,0,0-2.615,2.6m95.841,15.709a2.617,2.617,0,1,0,2.621-2.6,2.612,2.612,0,0,0-2.621,2.6M828.963,354.84a2.614,2.614,0,1,0,2.613-2.6,2.608,2.608,0,0,0-2.613,2.6m63.895,15.709a2.615,2.615,0,1,0,2.613-2.6,2.612,2.612,0,0,0-2.613,2.6m63.89,0a2.613,2.613,0,1,0,2.617-2.6,2.615,2.615,0,0,0-2.617,2.6m-31.946,0a2.617,2.617,0,1,0,2.618-2.6,2.615,2.615,0,0,0-2.618,2.6m47.92,0a2.616,2.616,0,1,0,2.62-2.6,2.618,2.618,0,0,0-2.62,2.6m-31.944,0a2.614,2.614,0,1,0,2.613-2.6,2.612,2.612,0,0,0-2.613,2.6M765.069,354.84a2.616,2.616,0,1,0,2.612-2.6,2.6,2.6,0,0,0-2.612,2.6m-31.947,0a2.617,2.617,0,1,0,2.615-2.6,2.606,2.606,0,0,0-2.615,2.6m15.973-15.713a2.617,2.617,0,1,0,2.613-2.6,2.6,2.6,0,0,0-2.613,2.6M972.722,354.84a2.616,2.616,0,1,0,2.62-2.6,2.611,2.611,0,0,0-2.62,2.6m-15.974,0a2.613,2.613,0,1,0,2.617-2.6,2.609,2.609,0,0,0-2.617,2.6M765.069,339.127a2.616,2.616,0,1,0,2.612-2.6,2.6,2.6,0,0,0-2.612,2.6m15.976,0a2.615,2.615,0,1,0,2.613-2.6,2.6,2.6,0,0,0-2.613,2.6m95.841,15.713a2.613,2.613,0,1,0,2.612-2.6,2.6,2.6,0,0,0-2.612,2.6m15.971,0a2.615,2.615,0,1,0,2.613-2.6,2.605,2.605,0,0,0-2.613,2.6m-47.923,0a2.617,2.617,0,1,0,2.618-2.6,2.609,2.609,0,0,0-2.618,2.6m95.844,0a2.614,2.614,0,1,0,2.613-2.6,2.606,2.606,0,0,0-2.613,2.6m-79.868,0a2.617,2.617,0,1,0,2.617-2.6,2.608,2.608,0,0,0-2.617,2.6m63.892,0a2.617,2.617,0,1,0,2.618-2.6,2.608,2.608,0,0,0-2.618,2.6m-15.973,0a2.617,2.617,0,1,0,2.621-2.6,2.606,2.606,0,0,0-2.621,2.6M812.988,244.861a2.617,2.617,0,1,0,2.615-2.6,2.6,2.6,0,0,0-2.615,2.6m127.79,47.132a2.614,2.614,0,1,0,2.613-2.6,2.6,2.6,0,0,0-2.613,2.6M860.91,260.574a2.617,2.617,0,1,0,2.617-2.605,2.613,2.613,0,0,0-2.617,2.605m-31.947,0a2.614,2.614,0,1,0,2.613-2.605,2.613,2.613,0,0,0-2.613,2.605m15.971,0a2.617,2.617,0,1,0,2.618-2.605,2.614,2.614,0,0,0-2.618,2.605m47.923,0a2.615,2.615,0,1,0,2.613-2.605,2.61,2.61,0,0,0-2.613,2.605m31.944,0a2.617,2.617,0,1,0,2.618-2.605,2.613,2.613,0,0,0-2.618,2.605m21.2,0a2.614,2.614,0,1,0-2.615,2.6,2.608,2.608,0,0,0,2.615-2.6m-50.535-28.82a2.617,2.617,0,0,0,2.524-1.95c-1.674-.451-3.354-.881-5.059-1.27a2.59,2.59,0,0,0,2.536,3.22m79.871,183.324a2.6,2.6,0,1,0,0,5.2,2.447,2.447,0,0,0,.845-.156c.585-.982,1.161-1.977,1.706-2.985a2.61,2.61,0,0,0-2.551-2.063m-162.354-154.5a2.617,2.617,0,1,0,2.615-2.605,2.612,2.612,0,0,0-2.615,2.605m95.841,0a2.617,2.617,0,1,0,2.621-2.605,2.611,2.611,0,0,0-2.621,2.605m-127.784,0a2.615,2.615,0,1,0,2.613-2.605,2.61,2.61,0,0,0-2.613,2.605m15.967,0a2.618,2.618,0,1,0,2.619-2.605,2.615,2.615,0,0,0-2.619,2.605m79.874,0a2.613,2.613,0,1,0,2.612-2.605,2.609,2.609,0,0,0-2.612,2.605M924.8,244.861a2.617,2.617,0,1,0,2.618-2.6,2.6,2.6,0,0,0-2.618,2.6m-79.868-15.709a2.617,2.617,0,1,0,2.618-2.605,2.613,2.613,0,0,0-2.618,2.605m63.895,15.709a2.617,2.617,0,1,0,2.621-2.6,2.6,2.6,0,0,0-2.621,2.6m-111.817,0a2.618,2.618,0,1,0,2.619-2.6,2.607,2.607,0,0,0-2.619,2.6m63.9-15.709a2.617,2.617,0,1,0,2.617-2.605,2.612,2.612,0,0,0-2.617,2.605m15.976,0a2.613,2.613,0,1,0,2.612-2.605,2.608,2.608,0,0,0-2.612,2.605m-45.31,2.6a2.608,2.608,0,0,0,2.615-2.6,2.173,2.173,0,0,0-.084-.618c-1.7.389-3.376.819-5.049,1.27a2.606,2.606,0,0,0,2.517,1.95m13.358,13.106a2.617,2.617,0,1,0,2.618-2.6,2.606,2.606,0,0,0-2.618,2.6m-15.971,0a2.614,2.614,0,1,0,2.613-2.6,2.6,2.6,0,0,0-2.613,2.6m47.923,125.688a2.613,2.613,0,1,0,2.612-2.6,2.61,2.61,0,0,0-2.612,2.6m0-125.688a2.613,2.613,0,1,0,2.612-2.6,2.6,2.6,0,0,0-2.612,2.6m15.971,0a2.615,2.615,0,1,0,2.613-2.6,2.6,2.6,0,0,0-2.613,2.6m-31.948,0a2.617,2.617,0,1,0,2.617-2.6,2.6,2.6,0,0,0-2.617,2.6m111.812,62.85a2.616,2.616,0,1,0,2.62-2.6,2.611,2.611,0,0,0-2.62,2.6m-79.865,0a2.615,2.615,0,1,0,2.613-2.6,2.6,2.6,0,0,0-2.613,2.6m-15.971,0a2.613,2.613,0,1,0,2.612-2.6,2.6,2.6,0,0,0-2.612,2.6m31.943,0a2.617,2.617,0,1,0,2.621-2.6,2.605,2.605,0,0,0-2.621,2.6m15.973,0a2.617,2.617,0,1,0,2.618-2.6,2.608,2.608,0,0,0-2.618,2.6m15.976,0a2.614,2.614,0,1,0,2.613-2.6,2.606,2.606,0,0,0-2.613,2.6m-79.868,0a2.617,2.617,0,1,0,2.617-2.6,2.607,2.607,0,0,0-2.617,2.6m-95.841,0a2.616,2.616,0,1,0,2.612-2.6,2.6,2.6,0,0,0-2.612,2.6m15.976,0a2.615,2.615,0,1,0,2.613-2.6,2.6,2.6,0,0,0-2.613,2.6m15.967,0a2.618,2.618,0,1,0,2.619-2.6,2.61,2.61,0,0,0-2.619,2.6m-47.917,0a2.617,2.617,0,1,0,2.613-2.6,2.608,2.608,0,0,0-2.613,2.6m95.839,0a2.617,2.617,0,1,0,2.618-2.6,2.609,2.609,0,0,0-2.618,2.6m-31.946,0a2.617,2.617,0,1,0,2.615-2.6,2.607,2.607,0,0,0-2.615,2.6m15.974,0a2.614,2.614,0,1,0,2.613-2.6,2.608,2.608,0,0,0-2.613,2.6m127.785-15.718a2.613,2.613,0,1,0,2.617-2.6,2.6,2.6,0,0,0-2.617,2.6m-63.89,0a2.615,2.615,0,1,0,2.613-2.6,2.6,2.6,0,0,0-2.613,2.6m-15.971,0a2.613,2.613,0,1,0,2.612-2.6,2.6,2.6,0,0,0-2.612,2.6m79.862,15.718a2.613,2.613,0,1,0,2.617-2.6,2.608,2.608,0,0,0-2.617,2.6M844.934,291.993a2.617,2.617,0,1,0,2.618-2.6,2.6,2.6,0,0,0-2.618,2.6m79.868,0a2.617,2.617,0,1,0,2.618-2.6,2.6,2.6,0,0,0-2.618,2.6m-15.973,0a2.617,2.617,0,1,0,2.621-2.6,2.6,2.6,0,0,0-2.621,2.6m-47.919,0a2.617,2.617,0,1,0,2.617-2.6,2.6,2.6,0,0,0-2.617,2.6m-79.865,0a2.615,2.615,0,1,0,2.613-2.6,2.6,2.6,0,0,0-2.613,2.6m-15.976,0a2.616,2.616,0,1,0,2.612-2.6,2.6,2.6,0,0,0-2.612,2.6m47.919,0a2.617,2.617,0,1,0,2.615-2.6,2.6,2.6,0,0,0-2.615,2.6m-15.976,0a2.618,2.618,0,1,0,2.619-2.6,2.6,2.6,0,0,0-2.619,2.6m31.95,0a2.614,2.614,0,1,0,2.613-2.6,2.6,2.6,0,0,0-2.613,2.6m53.15,172.826a2.613,2.613,0,1,0-2.615,2.6,2.606,2.606,0,0,0,2.615-2.6M802.248,276.284a2.618,2.618,0,1,0-2.616,2.6,2.607,2.607,0,0,0,2.616-2.6M991.31,336.528a2.6,2.6,0,1,0,1.87,4.417c-.145-1.355-.314-2.69-.5-4.028a2.624,2.624,0,0,0-1.369-.389M818.221,276.284a2.617,2.617,0,1,0-2.618,2.6,2.606,2.606,0,0,0,2.618-2.6m15.97,0a2.614,2.614,0,1,0-2.615,2.6,2.6,2.6,0,0,0,2.615-2.6m138.531,15.709a2.615,2.615,0,0,0,5.171.537c-.545-1-1.121-2-1.706-2.985a2.591,2.591,0,0,0-3.465,2.448M988.7,323.417a2.608,2.608,0,0,0,1.969,2.513c-.337-1.491-.711-2.964-1.1-4.434a2.57,2.57,0,0,0-.868,1.921m-202.42-47.132a2.615,2.615,0,1,0-2.617,2.6,2.607,2.607,0,0,0,2.617-2.6m127.787,0a2.617,2.617,0,1,0-2.612,2.6,2.607,2.607,0,0,0,2.612-2.6m15.973,0a2.617,2.617,0,1,0-2.615,2.6,2.608,2.608,0,0,0,2.615-2.6m15.971,0a2.614,2.614,0,1,0-2.615,2.6,2.6,2.6,0,0,0,2.615-2.6m-47.919,0a2.615,2.615,0,1,0-2.617,2.6,2.606,2.606,0,0,0,2.617-2.6m-31.943,0a2.617,2.617,0,1,0-2.618,2.6,2.608,2.608,0,0,0,2.618-2.6m15.968,0a2.613,2.613,0,1,0-2.615,2.6,2.606,2.606,0,0,0,2.615-2.6m-31.946,0a2.617,2.617,0,1,0-2.615,2.6,2.608,2.608,0,0,0,2.615-2.6M844.934,433.4a2.617,2.617,0,1,0,2.618-2.605,2.612,2.612,0,0,0-2.618,2.605m15.976,0a2.617,2.617,0,1,0,2.617-2.605,2.61,2.61,0,0,0-2.617,2.605m-31.947,0a2.614,2.614,0,1,0,2.613-2.605,2.611,2.611,0,0,0-2.613,2.605m63.895,0a2.615,2.615,0,1,0,2.613-2.605,2.608,2.608,0,0,0-2.613,2.605m-79.869,0a2.617,2.617,0,1,0,2.615-2.605,2.61,2.61,0,0,0-2.615,2.605m63.9,0a2.613,2.613,0,1,0,2.612-2.605,2.606,2.606,0,0,0-2.612,2.605M991.31,352.238a2.6,2.6,0,1,0,2.618,2.6,2.608,2.608,0,0,0-2.618-2.6M797.012,433.4a2.618,2.618,0,1,0,2.619-2.605,2.613,2.613,0,0,0-2.619,2.605M988.7,386.262a2.568,2.568,0,0,0,.868,1.921c.39-1.467.765-2.946,1.1-4.429a2.591,2.591,0,0,0-1.969,2.508m2.615-18.312a2.6,2.6,0,1,0,1.369,4.809c.187-1.338.356-2.672.5-4.024a2.612,2.612,0,0,0-1.87-.786M961.975,433.4a2.613,2.613,0,1,0-2.61,2.6,2.6,2.6,0,0,0,2.61-2.6m-196.905,0a2.616,2.616,0,1,0,2.612-2.605,2.607,2.607,0,0,0-2.612,2.605m15.976,0a2.615,2.615,0,1,0,2.613-2.605,2.608,2.608,0,0,0-2.613,2.605m148.99,31.419a2.617,2.617,0,1,0-2.615,2.6,2.608,2.608,0,0,0,2.615-2.6m-95.844-15.71a2.614,2.614,0,1,0-2.615,2.6,2.61,2.61,0,0,0,2.615-2.6m15.976,0a2.617,2.617,0,1,0-2.615,2.6,2.615,2.615,0,0,0,2.615-2.6m31.946,0a2.613,2.613,0,1,0-2.615,2.6,2.613,2.613,0,0,0,2.615-2.6m-15.968,0a2.617,2.617,0,1,0-2.618,2.6,2.616,2.616,0,0,0,2.618-2.6m-63.9,0a2.618,2.618,0,1,0-2.616,2.6,2.615,2.615,0,0,0,2.616-2.6M908.829,433.4a2.617,2.617,0,1,0,2.621-2.605,2.608,2.608,0,0,0-2.621,2.605m-90.608,15.709a2.617,2.617,0,1,0-2.618,2.6,2.614,2.614,0,0,0,2.618-2.6m-37.176,0a2.615,2.615,0,1,0,2.613-2.608,2.607,2.607,0,0,0-2.613,2.608m164.961,0a2.614,2.614,0,1,0-2.615,2.6,2.611,2.611,0,0,0,2.615-2.6M834.191,480.532a2.61,2.61,0,0,0-5.132-.663c1.672.454,3.354.89,5.049,1.279a2.184,2.184,0,0,0,.084-.616M860.91,370.549a2.617,2.617,0,1,0,2.617-2.6,2.614,2.614,0,0,0-2.617,2.6m53.152,78.56a2.617,2.617,0,1,0-2.612,2.6,2.615,2.615,0,0,0,2.612-2.6m-15.974,0a2.615,2.615,0,1,0-2.617,2.6,2.614,2.614,0,0,0,2.617-2.6m-2.617,28.821a2.6,2.6,0,0,0-2.613,2.6,2.651,2.651,0,0,0,.078.616c1.706-.389,3.386-.825,5.059-1.279a2.615,2.615,0,0,0-2.524-1.939m-34.561,2.6a2.617,2.617,0,1,0,2.617-2.6,2.61,2.61,0,0,0-2.617,2.6M961.975,276.284a2.613,2.613,0,1,0-2.61,2.6,2.6,2.6,0,0,0,2.61-2.6M844.934,480.532a2.617,2.617,0,1,0,2.618-2.6,2.611,2.611,0,0,0-2.618,2.6m37.179,0a2.613,2.613,0,1,0-2.615,2.6,2.6,2.6,0,0,0,2.615-2.6m31.949-15.713a2.617,2.617,0,1,0-2.612,2.6,2.608,2.608,0,0,0,2.612-2.6M751.708,294.588a2.6,2.6,0,1,0,0-5.194,2.7,2.7,0,0,0-.853.151q-.868,1.485-1.7,2.985a2.606,2.606,0,0,0,2.554,2.057m13.361-18.3a2.616,2.616,0,1,0,2.612-2.6,2.6,2.6,0,0,0-2.612,2.6M866.145,464.819a2.617,2.617,0,1,0-2.618,2.6,2.609,2.609,0,0,0,2.618-2.6m-47.923,0a2.617,2.617,0,1,0-2.618,2.6,2.607,2.607,0,0,0,2.618-2.6m31.946,0a2.617,2.617,0,1,0-2.615,2.6,2.608,2.608,0,0,0,2.615-2.6m47.92,0a2.615,2.615,0,1,0-2.617,2.6,2.607,2.607,0,0,0,2.617-2.6m-63.9,0a2.614,2.614,0,1,0-2.615,2.6,2.6,2.6,0,0,0,2.615-2.6m-31.943,0a2.618,2.618,0,1,0-2.616,2.6,2.608,2.608,0,0,0,2.616-2.6m127.787-15.71a2.617,2.617,0,1,0-2.615,2.6,2.615,2.615,0,0,0,2.615-2.6M812.988,386.262a2.617,2.617,0,1,0,2.615-2.605,2.607,2.607,0,0,0-2.615,2.605m15.974,0a2.614,2.614,0,1,0,2.613-2.605,2.608,2.608,0,0,0-2.613,2.605m-31.95,0a2.618,2.618,0,1,0,2.619-2.605,2.61,2.61,0,0,0-2.619,2.605m63.9,0a2.617,2.617,0,1,0,2.617-2.605,2.608,2.608,0,0,0-2.617,2.605m15.976,0a2.613,2.613,0,1,0,2.612-2.605,2.6,2.6,0,0,0-2.612,2.605m-95.841,0a2.615,2.615,0,1,0,2.613-2.605,2.605,2.605,0,0,0-2.613,2.605m63.889,0a2.617,2.617,0,1,0,2.618-2.605,2.609,2.609,0,0,0-2.618,2.605m111.814,15.71a2.613,2.613,0,1,0,2.617-2.6,2.606,2.606,0,0,0-2.617,2.6m-191.678-15.71a2.616,2.616,0,1,0,2.612-2.605,2.6,2.6,0,0,0-2.612,2.605m175.709,15.71a2.614,2.614,0,1,0,2.613-2.6,2.6,2.6,0,0,0-2.613,2.6m31.944,0a2.616,2.616,0,1,0,2.62-2.6,2.608,2.608,0,0,0-2.62,2.6m-223.628-15.71a2.617,2.617,0,1,0,2.613-2.605,2.608,2.608,0,0,0-2.613,2.605m-10.74,0a2.586,2.586,0,0,0-1.972-2.508c.337,1.483.716,2.962,1.1,4.429a2.574,2.574,0,0,0,.87-1.921m26.714-15.713a2.616,2.616,0,1,0,2.612-2.6,2.611,2.611,0,0,0-2.612,2.6m47.919,0a2.617,2.617,0,1,0,2.615-2.6,2.614,2.614,0,0,0-2.615,2.6M924.8,401.972a2.617,2.617,0,1,0,2.618-2.6,2.605,2.605,0,0,0-2.618,2.6M781.045,370.549a2.615,2.615,0,1,0,2.613-2.6,2.612,2.612,0,0,0-2.613,2.6m111.812,15.713a2.615,2.615,0,1,0,2.613-2.605,2.605,2.605,0,0,0-2.613,2.605m-63.895-15.713a2.614,2.614,0,1,0,2.613-2.6,2.615,2.615,0,0,0-2.613,2.6m15.971,0a2.617,2.617,0,1,0,2.618-2.6,2.615,2.615,0,0,0-2.618,2.6m-47.922,0a2.618,2.618,0,1,0,2.619-2.6,2.617,2.617,0,0,0-2.619,2.6M924.8,386.262a2.617,2.617,0,1,0,2.618-2.605,2.608,2.608,0,0,0-2.618,2.605m15.976,0a2.614,2.614,0,1,0,2.613-2.605,2.606,2.606,0,0,0-2.613,2.605m-31.949,0a2.617,2.617,0,1,0,2.621-2.605,2.606,2.606,0,0,0-2.621,2.605M749.095,370.549a2.617,2.617,0,1,0,2.613-2.6,2.614,2.614,0,0,0-2.613,2.6m223.628,15.713a2.616,2.616,0,1,0,2.62-2.605,2.611,2.611,0,0,0-2.62,2.605m-15.974,0a2.613,2.613,0,1,0,2.617-2.605,2.609,2.609,0,0,0-2.617,2.605m-15.97,31.422a2.614,2.614,0,1,0,2.613-2.605,2.605,2.605,0,0,0-2.613,2.605m-63.892,0a2.613,2.613,0,1,0,2.612-2.605,2.6,2.6,0,0,0-2.612,2.605m-15.976,0a2.617,2.617,0,1,0,2.617-2.605,2.607,2.607,0,0,0-2.617,2.605m31.948,0a2.615,2.615,0,1,0,2.613-2.605,2.6,2.6,0,0,0-2.613,2.605m-47.923,0a2.617,2.617,0,1,0,2.618-2.605,2.608,2.608,0,0,0-2.618,2.605m63.895,0a2.617,2.617,0,1,0,2.621-2.605,2.605,2.605,0,0,0-2.621,2.605m15.973,0a2.617,2.617,0,1,0,2.618-2.605,2.607,2.607,0,0,0-2.618,2.605m-159.733,0a2.616,2.616,0,1,0,2.612-2.605,2.6,2.6,0,0,0-2.612,2.605m15.976,0a2.615,2.615,0,1,0,2.613-2.605,2.6,2.6,0,0,0-2.613,2.605m47.917,0a2.614,2.614,0,1,0,2.613-2.605,2.607,2.607,0,0,0-2.613,2.605M924.8,433.4a2.617,2.617,0,1,0,2.618-2.605A2.611,2.611,0,0,0,924.8,433.4m31.946-15.716a2.613,2.613,0,1,0,2.617-2.605,2.608,2.608,0,0,0-2.617,2.605m-143.76,0a2.617,2.617,0,1,0,2.615-2.605,2.607,2.607,0,0,0-2.615,2.605m-15.976,0a2.618,2.618,0,1,0,2.619-2.605,2.61,2.61,0,0,0-2.619,2.605m-31.943-15.712a2.616,2.616,0,1,0,2.612-2.6,2.6,2.6,0,0,0-2.612,2.6m95.841,0a2.617,2.617,0,1,0,2.617-2.6,2.6,2.6,0,0,0-2.617,2.6m-15.976,0a2.617,2.617,0,1,0,2.618-2.6,2.606,2.606,0,0,0-2.618,2.6m-15.971,0a2.614,2.614,0,1,0,2.613-2.6,2.605,2.605,0,0,0-2.613,2.6m63.895,0a2.615,2.615,0,1,0,2.613-2.6,2.6,2.6,0,0,0-2.613,2.6m-15.971,0a2.613,2.613,0,1,0,2.612-2.6,2.6,2.6,0,0,0-2.612,2.6m-63.9,0a2.617,2.617,0,1,0,2.615-2.6,2.6,2.6,0,0,0-2.615,2.6M940.778,433.4a2.614,2.614,0,1,0,2.613-2.605,2.609,2.609,0,0,0-2.613,2.605m-186.45-15.716a2.616,2.616,0,0,0-5.174-.542q.832,1.512,1.7,2.985a2.5,2.5,0,0,0,.853.156,2.61,2.61,0,0,0,2.62-2.6m-5.233-15.712a2.617,2.617,0,1,0,2.613-2.6,2.605,2.605,0,0,0-2.613,2.6m159.734,0a2.617,2.617,0,1,0,2.621-2.6,2.6,2.6,0,0,0-2.621,2.6m-127.784,0a2.615,2.615,0,1,0,2.613-2.6,2.6,2.6,0,0,0-2.613,2.6m15.967,0a2.618,2.618,0,1,0,2.619-2.6,2.607,2.607,0,0,0-2.619,2.6" transform="translate(386.422 119.4)" fill="#ffa031"/>
          <path id="Trazado_699294" data-name="Trazado 699294" d="M522.456,98.195c-4.229,0-6.294-3.218-8.111-6.052-1.654-2.577-3.081-4.8-5.813-4.8s-4.158,2.224-5.809,4.8c-1.821,2.834-3.885,6.052-8.114,6.052s-6.288-3.218-8.11-6.052c-1.651-2.577-3.079-4.8-5.809-4.8s-4.161,2.224-5.813,4.8c-1.822,2.834-3.881,6.052-8.111,6.052s-6.293-3.218-8.113-6.052c-1.652-2.577-3.076-4.8-5.81-4.8a1.357,1.357,0,1,1,0-2.714c4.229,0,6.3,3.218,8.113,6.054,1.652,2.578,3.079,4.8,5.81,4.8s4.159-2.222,5.812-4.8c1.818-2.835,3.882-6.054,8.113-6.054s6.291,3.218,8.108,6.054c1.653,2.578,3.081,4.8,5.81,4.8s4.159-2.222,5.812-4.8c1.819-2.835,3.884-6.054,8.111-6.054s6.291,3.218,8.113,6.054c1.651,2.578,3.078,4.8,5.812,4.8a1.356,1.356,0,1,1,0,2.713m-27.165,21.252a1.359,1.359,0,0,0-1.365-1.356c-2.731,0-4.156-2.224-5.81-4.8-1.818-2.838-3.882-6.055-8.111-6.055s-6.291,3.217-8.111,6.055c-1.651,2.575-3.078,4.8-5.81,4.8s-4.158-2.224-5.81-4.8c-1.821-2.838-3.884-6.055-8.113-6.055a1.357,1.357,0,1,0,0,2.714c2.734,0,4.159,2.224,5.812,4.8,1.818,2.835,3.881,6.052,8.111,6.052s6.293-3.217,8.111-6.052c1.651-2.576,3.078-4.8,5.81-4.8s4.158,2.224,5.812,4.8c1.82,2.835,3.882,6.052,8.11,6.052a1.359,1.359,0,0,0,1.365-1.356" transform="translate(204.125 163.32)" fill="#0098e8"/>
          <path id="Trazado_699296" data-name="Trazado 699296" d="M812.629,201.256c-4.231,0-6.3-3.218-8.113-6.052-1.654-2.576-3.081-4.8-5.813-4.8s-4.158,2.224-5.809,4.8c-1.821,2.834-3.885,6.052-8.114,6.052s-6.288-3.218-8.11-6.052c-1.651-2.576-3.079-4.8-5.809-4.8s-4.161,2.224-5.813,4.8c-1.821,2.834-3.88,6.052-8.111,6.052s-6.293-3.218-8.113-6.052c-1.652-2.576-3.076-4.8-5.81-4.8a1.357,1.357,0,1,1,0-2.714c4.229,0,6.3,3.218,8.113,6.054,1.653,2.577,3.079,4.8,5.81,4.8s4.159-2.224,5.812-4.8c1.818-2.835,3.882-6.054,8.113-6.054s6.291,3.218,8.108,6.054c1.652,2.577,3.081,4.8,5.81,4.8s4.159-2.224,5.812-4.8c1.818-2.835,3.883-6.054,8.111-6.054s6.291,3.218,8.114,6.054c1.651,2.577,3.076,4.8,5.812,4.8a1.356,1.356,0,1,1,0,2.713m-27.167,21.252a1.359,1.359,0,0,0-1.363-1.356c-2.732,0-4.158-2.224-5.812-4.8-1.818-2.837-3.882-6.054-8.111-6.054s-6.291,3.217-8.111,6.054c-1.651,2.576-3.078,4.8-5.81,4.8s-4.158-2.224-5.81-4.8c-1.82-2.837-3.884-6.054-8.113-6.054a1.357,1.357,0,1,0,0,2.714c2.734,0,4.159,2.224,5.812,4.8,1.818,2.835,3.881,6.052,8.111,6.052s6.293-3.217,8.111-6.052c1.651-2.576,3.078-4.8,5.81-4.8s4.158,2.224,5.811,4.8c1.822,2.835,3.882,6.052,8.112,6.052a1.359,1.359,0,0,0,1.363-1.356" transform="translate(387.507 96.435)" fill="#ffa031"/>
          <path id="Trazado_699297" data-name="Trazado 699297" d="M747.917,155.378a3.738,3.738,0,1,0-3.76-3.741,3.748,3.748,0,0,0,3.76,3.741m-14.806,0a3.738,3.738,0,1,0-3.76-3.741,3.75,3.75,0,0,0,3.76,3.741m14.806-15.769a3.738,3.738,0,1,0-3.76-3.739,3.746,3.746,0,0,0,3.76,3.739m-14.806,0a3.738,3.738,0,1,0-3.76-3.739,3.749,3.749,0,0,0,3.76,3.739m14.806-15.768a3.738,3.738,0,1,0-3.76-3.739,3.746,3.746,0,0,0,3.76,3.739m-14.806,0a3.738,3.738,0,1,0-3.76-3.739,3.749,3.749,0,0,0,3.76,3.739m14.806-15.768a3.738,3.738,0,1,0-3.76-3.741,3.748,3.748,0,0,0,3.76,3.741m-14.806,0a3.738,3.738,0,1,0-3.76-3.741,3.75,3.75,0,0,0,3.76,3.741" transform="translate(381.432 51.687)" fill="#ffa031"/>
          <path id="Trazado_699298" data-name="Trazado 699298" d="M138.257,280.706a3.738,3.738,0,1,0-3.76-3.741,3.748,3.748,0,0,0,3.76,3.741m-14.806,0a3.738,3.738,0,1,0-3.76-3.741,3.748,3.748,0,0,0,3.76,3.741m14.806-15.768a3.738,3.738,0,1,0-3.76-3.741,3.749,3.749,0,0,0,3.76,3.741m-14.806,0a3.738,3.738,0,1,0-3.76-3.741,3.749,3.749,0,0,0,3.76,3.741m14.806-15.768a3.738,3.738,0,1,0-3.76-3.741,3.749,3.749,0,0,0,3.76,3.741m-14.806,0a3.738,3.738,0,1,0-3.76-3.741,3.749,3.749,0,0,0,3.76,3.741M138.257,233.4a3.738,3.738,0,1,0-3.76-3.741,3.748,3.748,0,0,0,3.76,3.741m-14.806,0a3.738,3.738,0,1,0-3.76-3.741,3.748,3.748,0,0,0,3.76,3.741" transform="translate(304.434 -166.784)" fill="#ffa031"/>
          <path id="Trazado_699299" data-name="Trazado 699299" d="M713.109,351.75a9.044,9.044,0,1,1-9.047-8.99,9.019,9.019,0,0,1,9.047,8.99" transform="translate(363.478 176.11)" fill="#0098e8" opacity="0.61"/>
          <path id="Trazado_699300" data-name="Trazado 699300" d="M256.311,93.739a9.045,9.045,0,1,1-9.045-8.99,9.018,9.018,0,0,1,9.045,8.99" transform="translate(387.165 29.173)" fill="#0098e8"/>
          <path id="Trazado_699301" data-name="Trazado 699301" d="M693.613,243.457a5.276,5.276,0,1,1-5.277-5.244,5.263,5.263,0,0,1,5.277,5.244" transform="translate(357.223 122.394)" fill="#ffa031"/>
          <path id="Trazado_699302" data-name="Trazado 699302" d="M593.23,81.086a5.277,5.277,0,1,1-5.277-5.244,5.261,5.261,0,0,1,5.277,5.244" transform="translate(314.785 13.968)" fill="#ffa031"/>
          <path id="Trazado_699303" data-name="Trazado 699303" d="M457.625,351.633a5.276,5.276,0,1,1-5.277-5.242,5.262,5.262,0,0,1,5.277,5.242" transform="translate(266.807 134.976)" fill="#ffa031" opacity="0.43"/>
          <path id="Trazado_699304" data-name="Trazado 699304" d="M80.176,257.106a5.276,5.276,0,1,1-5.276-5.244,5.262,5.262,0,0,1,5.276,5.244" transform="translate(-30.771 113.99)" fill="#ffa031"/>
          <path id="Trazado_699305" data-name="Trazado 699305" d="M659.217,108.061a8.522,8.522,0,1,1,8.574-8.521,8.558,8.558,0,0,1-8.574,8.521m0-11.861a3.34,3.34,0,1,0,3.36,3.339,3.354,3.354,0,0,0-3.36-3.339" transform="translate(340.27 46.765)" fill="#ffa031"/>
          <path id="Trazado_699306" data-name="Trazado 699306" d="M826.637,184.227a8.522,8.522,0,1,1,8.573-8.521,8.558,8.558,0,0,1-8.573,8.521m0-11.861A3.339,3.339,0,1,0,830,175.706a3.353,3.353,0,0,0-3.358-3.339" transform="translate(477.063 51.811)" fill="#ffa031" opacity="0.58"/>
          <path id="Trazado_699307" data-name="Trazado 699307" d="M207.018,199.044a8.522,8.522,0,1,1,8.573-8.521,8.556,8.556,0,0,1-8.573,8.521m0-11.861a3.34,3.34,0,1,0,3.36,3.339,3.354,3.354,0,0,0-3.36-3.339" transform="translate(949.395 -103.991)" fill="#ffa031"/>
          <path id="Trazado_699308" data-name="Trazado 699308" d="M193.82,352.135a8.522,8.522,0,1,1,8.573-8.521,8.557,8.557,0,0,1-8.573,8.521m0-11.861a3.339,3.339,0,1,0,3.357,3.339,3.355,3.355,0,0,0-3.357-3.339" transform="translate(261.204 119.103)" fill="#0098e8"/>
        </g>
      </g>
      <g id="Grupo_990678" data-name="Grupo 990678" transform="translate(-68.208 590.065)" opacity="0.07">
        <g id="Grupo_990679" data-name="Grupo 990679" transform="translate(0)">
          <g id="Grupo_990678-2" data-name="Grupo 990678" clip-path="url(#clip-path-3)">
            <path id="Trazado_699309" data-name="Trazado 699309" d="M0,0,1529.927,3.16l2.9,1410.519L2.9,1410.519Z" transform="matrix(0.367, -0.93, 0.93, 0.367, -428.391, 1074.668)" fill="url(#linear-gradient-2)"/>
          </g>
        </g>
        <g id="Grupo_990681" data-name="Grupo 990681" transform="translate(695.918 173.393)">
          <g id="Grupo_990680" data-name="Grupo 990680" clip-path="url(#clip-path-4)">
            <rect id="Rectángulo_345063" data-name="Rectángulo 345063" width="326.845" height="897.462" transform="translate(0 0)" fill="url(#linear-gradient-3)"/>
          </g>
        </g>
        <g id="Grupo_990683" data-name="Grupo 990683" transform="translate(273.004 499.989)">
          <g id="Grupo_990682" data-name="Grupo 990682" clip-path="url(#clip-path-5)">
            <rect id="Rectángulo_345064" data-name="Rectángulo 345064" width="573.129" height="741.581" transform="translate(-34.802 0)" fill="url(#linear-gradient-4)"/>
          </g>
        </g>
        <g id="Grupo_990685" data-name="Grupo 990685" transform="translate(187.845 629.16)">
          <g id="Grupo_990684" data-name="Grupo 990684" clip-path="url(#clip-path-6)">
            <path id="Trazado_699313" data-name="Trazado 699313" d="M0,0,244.059.606l.646,261.2L.646,261.2Z" transform="translate(-73.902 131.701) rotate(-62.447)" fill="url(#linear-gradient-5)"/>
          </g>
        </g>
        <g id="Grupo_990687" data-name="Grupo 990687" transform="translate(215.939)">
          <g id="Grupo_990686" data-name="Grupo 990686" clip-path="url(#clip-path-7)">
            <rect id="Rectángulo_345065" data-name="Rectángulo 345065" width="486.331" height="479.812" transform="translate(0)" fill="url(#linear-gradient-6)"/>
          </g>
        </g>
        <g id="Grupo_990689" data-name="Grupo 990689" transform="translate(0 125.65)">
          <g id="Grupo_990688" data-name="Grupo 990688" clip-path="url(#clip-path-8)">
            <rect id="Rectángulo_345066" data-name="Rectángulo 345066" width="374.867" height="311.417" transform="translate(-2.31 0)" fill="url(#linear-gradient-7)"/>
          </g>
        </g>
        <g id="Grupo_990691" data-name="Grupo 990691" transform="translate(187.845 629.16)">
          <g id="Grupo_990690" data-name="Grupo 990690" clip-path="url(#clip-path-9)">
            <rect id="Rectángulo_345067" data-name="Rectángulo 345067" width="207.042" height="167.552" transform="translate(-4.772 0)" fill="url(#linear-gradient-8)"/>
          </g>
        </g>
        <g id="Grupo_990693" data-name="Grupo 990693" transform="translate(219.033 506.765)">
          <g id="Grupo_990692" data-name="Grupo 990692" clip-path="url(#clip-path-10)">
            <path id="Trazado_699318" data-name="Trazado 699318" d="M0,0,309.418.855l.887,321.765L.887,321.765Z" transform="translate(-96.314 146.337) rotate(-57.031)" fill="url(#linear-gradient-9)"/>
          </g>
        </g>
        <g id="Grupo_990695" data-name="Grupo 990695" transform="translate(219.033 506.765)">
          <g id="Grupo_990694" data-name="Grupo 990694" clip-path="url(#clip-path-11)">
            <rect id="Rectángulo_345068" data-name="Rectángulo 345068" width="248.537" height="207.908" transform="translate(-0.818 0)" fill="url(#linear-gradient-10)"/>
          </g>
        </g>
        <g id="Grupo_990697" data-name="Grupo 990697" transform="translate(434.339 636.986)">
          <g id="Grupo_990696" data-name="Grupo 990696" clip-path="url(#clip-path-12)">
            <rect id="Rectángulo_345069" data-name="Rectángulo 345069" width="64.248" height="37.265" transform="matrix(0.079, -0.997, 0.997, 0.079, -4.909, 61.485)" fill="url(#linear-gradient-11)"/>
          </g>
        </g>
        <g id="Grupo_990699" data-name="Grupo 990699" transform="translate(517.786 526.158)">
          <g id="Grupo_990698" data-name="Grupo 990698" clip-path="url(#clip-path-13)">
            <path id="Trazado_699322" data-name="Trazado 699322" d="M0,0,172.1.239l.438,314.483-172.1-.239Z" transform="matrix(0.972, -0.237, 0.237, 0.972, -94.492, 16.721)" fill="url(#linear-gradient-12)"/>
          </g>
        </g>
        <g id="Grupo_990701" data-name="Grupo 990701" transform="translate(0.001)">
          <g id="Grupo_990700" data-name="Grupo 990700" clip-path="url(#clip-path-14)">
            <path id="Trazado_699324" data-name="Trazado 699324" d="M61.26,47.479c3.054-2.424,6.353-4.467,9.593-6.707,3.461-1.778,6.9-3.659,10.464-5.3a92.817,92.817,0,0,1,22.634-6.811,76.871,76.871,0,0,1,23.8-.231c7.827,1.3,15.7,3.636,21.972,8.473a92.242,92.242,0,0,0-22.449-2.7,143.145,143.145,0,0,0-22.112,1.882c-7.363,1-14.54,3.036-21.88,4.814Z" transform="translate(650.172 291.064)" fill="#e08172"/>
            <path id="Trazado_699325" data-name="Trazado 699325" d="M33.623,63.562c13.9-4.675,27.477-8.4,40.182-14.094a121.313,121.313,0,0,0,18.372-9.535,64.65,64.65,0,0,0,15.759-13.852c-1.73,7.261-6.712,13.379-12.182,18.412A66.644,66.644,0,0,1,76.836,56.371a92.848,92.848,0,0,1-21.276,6.176l-10.94,1.212c-3.693-.069-7.328.1-11-.2" transform="translate(356.852 274.982)" fill="#e08172"/>
            <path id="Trazado_699326" data-name="Trazado 699326" d="M29.627,55.755C40.091,49.891,50.1,44.881,59.438,38.705c9.326-6.153,17.954-12.94,25.782-21.863-1.1,5.968-4.39,11.278-8.129,16.022A58.775,58.775,0,0,1,63.6,44.985a66.724,66.724,0,0,1-16.328,7.688,62.013,62.013,0,0,1-17.641,3.082" transform="translate(314.441 177.571)" fill="#e08172"/>
            <path id="Trazado_699327" data-name="Trazado 699327" d="M24.8,39.449c6.074-8.219,14.215-14.221,22.727-19.22,8.664-4.779,17.85-8.738,28.023-10.089-7.676,6.707-15.91,11.717-24.26,16.611-4.262,2.3-8.42,4.721-12.868,6.753A130.029,130.029,0,0,1,24.8,39.449" transform="translate(263.2 106.91)" fill="#e08172"/>
            <path id="Trazado_699328" data-name="Trazado 699328" d="M9.94,73.059c6.109-3.451,12.159-6.291,17.641-10.043A115.325,115.325,0,0,0,43.108,51.092c9.732-8.669,17.734-19.023,24.841-30.879-.581,6.984-3.182,13.656-6.562,19.832A62.489,62.489,0,0,1,48.206,56.655c-10.568,9.523-24.33,15.653-38.266,16.4" transform="translate(105.496 213.113)" fill="#e08172"/>
            <path id="Trazado_699329" data-name="Trazado 699329" d="M19.6,90.54c4.3-5.206,8.814-9.766,12.809-14.822,4.03-4.975,8.013-9.916,11.648-15.133,7.56-10.262,14.122-21.067,20.974-32.506A62.793,62.793,0,0,1,60,47.437a82.845,82.845,0,0,1-9.79,17.534C42.335,75.811,31.918,85.161,19.6,90.54" transform="translate(207.979 296.047)" fill="#e08172"/>
            <path id="Trazado_699330" data-name="Trazado 699330" d="M29.627,87.779C31.253,82.8,33.4,78.36,35.283,73.789l5.876-13.413c4.065-8.865,7.862-17.708,12.635-26.885a47.89,47.89,0,0,1-1.01,15.353,69.1,69.1,0,0,1-4.715,14.591C43.8,72.692,37.907,81.419,29.627,87.779" transform="translate(314.441 353.108)" fill="#e08172"/>
            <path id="Trazado_699331" data-name="Trazado 699331" d="M20.9,103.781c-.952-11.659,2.834-23.606,9.43-33.418a57.2,57.2,0,0,1,11.95-13.044,45.358,45.358,0,0,1,15.353-8.554C49.684,57.3,42.589,65.457,36.608,74.553a141.93,141.93,0,0,0-8.4,13.967c-2.706,4.825-4.669,9.985-7.316,15.26" transform="translate(220.221 514.147)" fill="#e08172"/>
            <path id="Trazado_699332" data-name="Trazado 699332" d="M33.592,108.862c3.24-4.548,6.724-8.45,9.744-12.709C46.39,91.951,49.316,87.76,52,83.42a218.453,218.453,0,0,0,14.61-27.7c.813,5.541-.058,11.1-1.487,16.449a54.916,54.916,0,0,1-6.7,15.226c-5.992,9.362-14.517,17.327-24.829,21.471" transform="translate(356.523 587.434)" fill="#e08172"/>
            <path id="Trazado_699333" data-name="Trazado 699333" d="M26.672,115.9c3.914-4.306,7.746-8.127,11.137-12.374,3.3-4.306,6.713-8.415,9.709-12.917,6.26-8.819,11.846-18.054,18.3-27.566a55.452,55.452,0,0,1-3.995,16.68,72.462,72.462,0,0,1-8.106,15.191c-6.654,9.315-15.841,17.65-27.047,20.986" transform="translate(283.079 664.675)" fill="#e08172"/>
            <path id="Trazado_699334" data-name="Trazado 699334" d="M17.776,115.582c-.743-11.185,2.636-22.059,7.084-31.975,4.761-9.823,10.673-19.174,19.023-26.642-3.321,10.608-7.769,20.166-12.159,29.793-4.576,9.581-8.919,18.92-13.948,28.824" transform="translate(187.571 600.603)" fill="#e08172"/>
            <path id="Trazado_699335" data-name="Trazado 699335" d="M46.422,126.125l20.916-10.62c6.794-3.705,13.692-7.122,20.393-10.943,13.6-7.319,26.885-15.1,40.983-22.394a113.993,113.993,0,0,1-17.443,16.057,154.169,154.169,0,0,1-19.894,12.929c-13.913,7.48-29.068,13.333-44.955,14.972" transform="translate(492.692 866.328)" fill="#e08172"/>
            <path id="Trazado_699336" data-name="Trazado 699336" d="M187.341,69.587c-5.33,12.074-14.087,22.521-23.645,31.664a195.813,195.813,0,0,1-31.635,24.079A244.237,244.237,0,0,1,59,155.354c23.761-11.37,47.08-22.717,69.053-36.408,21.868-13.7,43.19-28.616,59.286-49.359" transform="translate(626.208 733.681)" fill="#e08172"/>
          </g>
        </g>
      </g>
    </g>
  </g>
</svg>
