<svg xmlns="http://www.w3.org/2000/svg" xmlns:xlink="http://www.w3.org/1999/xlink" width="85" height="82" viewBox="0 0 85 82">
  <defs>
    <filter id="Elipse_7683" x="4" y="5" width="77" height="77" filterUnits="userSpaceOnUse">
      <feOffset dy="3" input="SourceAlpha"/>
      <feGaussianBlur stdDeviation="3" result="blur"/>
      <feFlood flood-opacity="0.161"/>
      <feComposite operator="in" in2="blur"/>
      <feComposite in="SourceGraphic"/>
    </filter>
  </defs>
  <g id="Grupo_1010431" data-name="Grupo 1010431" transform="translate(-180 -787)">
    <rect id="Rectángulo_345654" data-name="Rectángulo 345654" width="85" height="81" rx="5" transform="translate(180 787)" fill="#4db1f0"/>
    <g id="Grupo_1003781" data-name="Grupo 1003781" transform="translate(193.197 798.281)">
      <g transform="matrix(1, 0, 0, 1, -13.2, -11.28)" filter="url(#Elipse_7683)">
        <circle id="Elipse_7683-2" data-name="Elipse 7683" cx="29.5" cy="29.5" r="29.5" transform="translate(13 11)" fill="#bfe5f9"/>
      </g>
    </g>
    <g id="Safety_Equipment" data-name="Safety Equipment" transform="translate(190.653 795.094)">
      <path id="Trazado_720419" data-name="Trazado 720419" d="M51.376,24.379V50.818a1.707,1.707,0,0,1-1.708,1.707H14.332a1.707,1.707,0,0,1-1.708-1.707V24.379a.416.416,0,0,1,.342-.413,5.931,5.931,0,0,0,1.654-.647c3.541-2.1,4.574-8.232,3.145-15.412a.413.413,0,0,1,.324-.494c1.042-.243,2.085-.476,3.127-.719,1.2-.27,2.39-.539,3.595-.818.854-.189,1.708-.386,2.561-.584a4.2,4.2,0,0,0,2.184,1.5A7.019,7.019,0,0,0,32,7.142a7.019,7.019,0,0,0,2.444-.35,4.2,4.2,0,0,0,2.184-1.5c.854.2,1.707.4,2.561.584,1.2.279,2.4.548,3.595.818,1.042.243,2.085.476,3.127.719a.413.413,0,0,1,.324.494c-1.429,7.181-.4,13.31,3.145,15.412a5.931,5.931,0,0,0,1.654.647.416.416,0,0,1,.341.413Z" fill="#f88f01"/>
      <path id="Trazado_720420" data-name="Trazado 720420" d="M51.034,23.966a5.931,5.931,0,0,1-1.654-.647c-3.541-2.1-4.574-8.232-3.145-15.412a.413.413,0,0,0-.324-.494c-1.042-.243-2.085-.476-3.127-.719-1.2-.27-2.39-.539-3.595-.818-.854-.189-1.708-.386-2.561-.584a2.861,2.861,0,0,1-.353.414c.223.048.445.1.668.146,1.2.267,2.4.526,3.595.785,1.042.233,2.085.457,3.127.69a.4.4,0,0,1,.324.474c-1.429,6.891-.4,12.773,3.145,14.791a6.08,6.08,0,0,0,1.654.621.4.4,0,0,1,.342.4V48.982a1.673,1.673,0,0,1-1.708,1.639h-34.8v.2a1.707,1.707,0,0,0,1.708,1.707H49.668a1.707,1.707,0,0,0,1.708-1.707V24.379a.416.416,0,0,0-.341-.413Z" fill="#d66e07"/>
      <path id="Trazado_720421" data-name="Trazado 720421" d="M32,22.154a42.314,42.314,0,0,1-2.782-6.931,50.378,50.378,0,0,1-1.86-10.346l.027,0a4.243,4.243,0,0,0,2.191,1.5,7.04,7.04,0,0,0,2.44.356,7.04,7.04,0,0,0,2.44-.356,4.243,4.243,0,0,0,2.191-1.5h-.006a50.386,50.386,0,0,1-1.86,10.349,42.3,42.3,0,0,1-2.791,6.949Z" fill="#d66e07"/>
      <path id="Trazado_720422" data-name="Trazado 720422" d="M24.81,5.875v26.7H21.216V6.693c1.2-.27,2.39-.539,3.595-.818Z" fill="#ededed"/>
      <path id="Trazado_720423" data-name="Trazado 720423" d="M42.784,6.693V32.575H39.189V5.875c1.2.279,2.4.548,3.595.818Z" fill="#ededed"/>
      <path id="Trazado_720424" data-name="Trazado 720424" d="M23.193,6.243V32.575h1.618V5.875c-.542.125-1.079.245-1.618.368Z" fill="#ccc"/>
      <path id="Trazado_720425" data-name="Trazado 720425" d="M39.189,5.875v.368c.659.15,1.32.3,1.977.45V32.575h1.618V6.693c-1.2-.27-2.39-.539-3.595-.818Z" fill="#ccc"/>
      <path id="Trazado_720426" data-name="Trazado 720426" d="M12.624,30.6H51.375v3.6H12.624Z" fill="#ededed"/>
      <path id="Trazado_720427" data-name="Trazado 720427" d="M12.624,40.483H51.375v3.6H12.624Z" fill="#ededed"/>
      <path id="Trazado_720428" data-name="Trazado 720428" d="M49.129,30.6h2.247v3.6H49.129Z" fill="#ccc"/>
      <path id="Trazado_720429" data-name="Trazado 720429" d="M49.129,40.483h2.247v3.6H49.129Z" fill="#ccc"/>
      <path id="Trazado_720430" data-name="Trazado 720430" d="M46.945,54.92a13.1,13.1,0,0,0,.073-1.382c0-6.233-4.415-11.512-10.517-13.328l.056-.43a1.5,1.5,0,0,0-1.488-1.51H28.931a1.5,1.5,0,0,0-1.488,1.51l.044.339C21.222,41.846,16.654,47.2,16.654,53.538a13.09,13.09,0,0,0,.079,1.434l-.005-.054a1.963,1.963,0,0,0-1.856,1.858c0,1.025.991,1.73,2.192,1.856,5.006.526,11.233.721,14.986.72s9.881-.194,14.888-.72c1.2-.126,2.192-.831,2.192-1.856a1.981,1.981,0,0,0-2.183-1.856Z" fill="#f88f01"/>
      <g id="Grupo_1007600" data-name="Grupo 1007600">
        <path id="Trazado_720431" data-name="Trazado 720431" d="M47.619,54.777a1.3,1.3,0,0,1,.094.455c0,.9-.991,1.526-2.192,1.637-5.006.464-11.135.636-14.888.635s-9.98-.171-14.986-.635a3.8,3.8,0,0,1-.745-.147,2.352,2.352,0,0,0,2.128,1.267c5.006.464,11.233.636,14.986.635s9.881-.171,14.888-.635c1.2-.111,2.192-.733,2.192-1.637a1.769,1.769,0,0,0-1.477-1.574Z" fill="#d66e07"/>
        <path id="Trazado_720432" data-name="Trazado 720432" d="M44.944,53.792q0,.431-.021.857a.728.728,0,0,0,.487.783,8.774,8.774,0,0,0,.993.068c.185-.143.109-.168.109-.422A16.442,16.442,0,0,0,41.1,43a16.854,16.854,0,0,1,3.839,10.793Z" fill="#d66e07"/>
        <path id="Trazado_720433" data-name="Trazado 720433" d="M34.41,50.73a.62.62,0,0,1-.082-.005.634.634,0,0,1-.548-.709l1.329-10.262a.864.864,0,0,0-.853-.838.633.633,0,0,1,0-1.266,2.134,2.134,0,0,1,2.122,2.14l-.005.081L35.038,50.178a.634.634,0,0,1-.628.552Z" fill="#d66e07"/>
        <path id="Trazado_720434" data-name="Trazado 720434" d="M32.186,56.86c-2.375,0-6.3-.112-11.443-.453a.634.634,0,1,1,.085-1.265c5.225.343,9.026.449,11.357.45s6.173-.108,11.39-.45a.634.634,0,1,1,.085,1.265c-5.124.339-9.085.453-11.476.453Z" fill="#d66e07"/>
      </g>
      <path id="Trazado_720435" data-name="Trazado 720435" d="M23.545,44.068q.474-.366.982-.695a1,1,0,1,1,1.084,1.681q-.437.281-.843.6a1,1,0,1,1-1.224-1.582Z" fill="#fff"/>
      <path id="Trazado_720436" data-name="Trazado 720436" d="M18.969,50.69A12.464,12.464,0,0,1,21.3,46.26a1,1,0,1,1,1.554,1.26,10.493,10.493,0,0,0-1.959,3.723,1,1,0,1,1-1.922-.552Z" fill="#fff"/>
      <path id="Trazado_720437" data-name="Trazado 720437" d="M31.984,56.42c-2.361,0-6.306-.113-11.356-.449a1,1,0,1,1,.135-2c5.175.339,8.922.444,11.221.444,2.324,0,6.1-.107,11.253-.445a1,1,0,1,1,.135,2c-5.028.335-9,.45-11.388.45Z" fill="#4f321a"/>
      <path id="Trazado_720438" data-name="Trazado 720438" d="M51.522,22.864c-5.225-1.168-5.2-9.612-4.1-15.108a1.425,1.425,0,0,0-1.084-1.679L36.919,3.93a1,1,0,0,0-1.054.42,4.71,4.71,0,0,1-3.9,1.434,4.391,4.391,0,0,1-3.83-1.434,1,1,0,0,0-1.054-.42L17.665,6.076a1.426,1.426,0,0,0-1.084,1.678c1.08,5.432,1.137,13.935-4.1,15.109a1.431,1.431,0,0,0-1.133,1.4V51.076a2.737,2.737,0,0,0,2.734,2.734h1.855c0,.029,0,.057,0,.086a2.868,2.868,0,0,0-1.9,2.648c0,1.478,1.261,2.643,3.066,2.833,5.046.53,11.192.718,14.929.718h.029c3.692,0,9.786-.188,14.832-.718,1.805-.19,3.066-1.354,3.066-2.833a2.9,2.9,0,0,0-2-2.678l0-.056h1.952a2.737,2.737,0,0,0,2.734-2.734V24.264a1.432,1.432,0,0,0-1.131-1.4Zm-.869,20.378H43.788A15.539,15.539,0,0,0,41.875,41.6h8.778ZM38.236,39.6c-.212-.083-.43-.157-.647-.233a2.477,2.477,0,0,0-2.437-2.13H30.892V35.216H50.653V39.6Zm-11.587-.344q-.487.159-.958.344H13.347v-4.38H28.892v2.036a2.477,2.477,0,0,0-2.243,2Zm-6.492,3.99h-6.81V41.6h8.717a15.765,15.765,0,0,0-1.906,1.646ZM13.347,31.57H28.892v1.646H13.347Zm14.86-15.876a44.439,44.439,0,0,0,2.656,6.714c-.461.874-.955,1.741-1.5,2.617a3.125,3.125,0,0,0-.473,1.647v2.9H25.664V6.3l.728-.166a48.716,48.716,0,0,0,1.814,9.556Zm9.37-9.563.67.153V29.57H30.892v-2.9a1.124,1.124,0,0,1,.173-.593,42.82,42.82,0,0,0,4.7-10.385,48.767,48.767,0,0,0,1.815-9.563ZM50.653,33.216H30.892V31.57H50.653ZM40.247,29.57V6.74l1.646.375V29.57Zm-16.583,0H22.019V7.135l1.646-.375Zm26.989-4.865V29.57H43.892v-22l1.462.333c-1.148,6.252-.8,15.028,5.3,16.8ZM31.965,7.783a8.1,8.1,0,0,0,3.491-.674,44.464,44.464,0,0,1-1.607,8,43.529,43.529,0,0,1-1.864,5,43.884,43.884,0,0,1-1.868-5A44.455,44.455,0,0,1,28.51,7.1a8.12,8.12,0,0,0,3.456.687ZM18.646,7.9l1.373-.313V29.57H13.347V24.705c6.094-1.773,6.45-10.532,5.3-16.8Zm-5.3,43.171V45.242H18.49a14.188,14.188,0,0,0-2.484,6.568H14.081a.735.735,0,0,1-.734-.734Zm33.339,6.312c-4.969.522-10.979.708-14.623.708h-.028c-3.979,0-10.07-.219-14.721-.708-.618-.065-1.275-.382-1.275-.843a.963.963,0,0,1,.973-.845,1,1,0,0,0,.981-1.083s-.075-.889-.075-1.343A13.032,13.032,0,0,1,26.8,41.3l1.128,8.779a1,1,0,1,0,1.983-.257L28.6,39.68a.483.483,0,0,1,.472-.447h6.078a.483.483,0,0,1,.471.447L34.313,49.823a1,1,0,1,0,1.983.257l1.119-8.66a12.865,12.865,0,0,1,8.57,11.854c0,.453-.075,1.337-.076,1.344A1,1,0,0,0,46.937,55.7a.966.966,0,0,1,1.024.845c0,.461-.657.778-1.275.843Zm3.233-5.578H47.9a14.13,14.13,0,0,0-2.45-6.568h5.2v5.834a.735.735,0,0,1-.734.734Z" fill="#4f321a"/>
    </g>
  </g>
</svg>
