<svg xmlns="http://www.w3.org/2000/svg" width="80" height="80" viewBox="0 0 80 80">
  <g id="Grupo_108600" data-name="Grupo 108600" transform="translate(0 0)">
    <rect id="Rectángulo_36105" data-name="Rectángulo 36105" width="80" height="80" rx="10" transform="translate(0 0)" fill="#4db1f0"/>
    <g id="precaucion" transform="translate(8.542 11.46)">
      <path id="Trazado_695928" data-name="Trazado 695928" d="M18.307,68.293c-2.966,0-4.179-2.1-2.7-4.67l26.961-46.7c1.483-2.568,3.909-2.568,5.392,0l26.961,46.7c1.483,2.568.27,4.67-2.7,4.67Zm0,0" transform="translate(-13.096 -13.115)" fill="#fedb41"/>
      <path id="Trazado_695929" data-name="Trazado 695929" d="M285.657,63.623,258.7,16.926A3.276,3.276,0,0,0,256,15V68.293H282.96c2.966,0,4.179-2.1,2.7-4.67Zm0,0" transform="translate(-223.828 -13.115)" fill="#fcbf29"/>
      <g id="Grupo_960876" data-name="Grupo 960876" transform="translate(0 0)">
        <path id="Trazado_695930" data-name="Trazado 695930" d="M59.133,57.064H5.211A5.122,5.122,0,0,1,.563,54.749a5.123,5.123,0,0,1,.32-5.183l26.961-46.7A5.123,5.123,0,0,1,32.172,0,5.123,5.123,0,0,1,36.5,2.869l26.961,46.7a4.7,4.7,0,0,1-4.329,7.5ZM32.172,3.771c-.247,0-.671.3-1.063.983L4.149,51.451c-.392.679-.444,1.2-.32,1.413s.6.429,1.383.429H59.133c.784,0,1.26-.216,1.384-.429s.072-.733-.321-1.412L33.236,4.754c-.392-.679-.817-.983-1.063-.983Zm0,0" transform="translate(-0.001 -0.001)" fill="#555a66"/>
        <path id="Trazado_695931" data-name="Trazado 695931" d="M221.812,327.652a4.914,4.914,0,1,0,4.914,4.915A4.92,4.92,0,0,0,221.812,327.652Zm0,0" transform="translate(-189.64 -286.475)" fill="#555a66"/>
        <path id="Trazado_695932" data-name="Trazado 695932" d="M221.812,99.484A4.92,4.92,0,0,0,216.9,104.4v16.558a4.914,4.914,0,0,0,9.828,0V104.4A4.92,4.92,0,0,0,221.812,99.484Zm0,0" transform="translate(-189.64 -86.982)" fill="#555a66"/>
      </g>
      <path id="Trazado_695933" data-name="Trazado 695933" d="M287.29,49.566l-26.961-46.7A5.123,5.123,0,0,0,256,0V3.771c.247,0,.671.3,1.063.983l26.961,46.7c.392.679.444,1.2.321,1.412s-.6.429-1.384.429H256v3.771h26.961a4.7,4.7,0,0,0,4.329-7.5Zm0,0" transform="translate(-223.829 0)" fill="#3c3a41"/>
      <path id="Trazado_695934" data-name="Trazado 695934" d="M260.914,332.566A4.92,4.92,0,0,0,256,327.652v9.828A4.92,4.92,0,0,0,260.914,332.566Zm0,0" transform="translate(-223.828 -286.476)" fill="#3c3a41"/>
      <path id="Trazado_695935" data-name="Trazado 695935" d="M260.914,120.957V104.4A4.92,4.92,0,0,0,256,99.484v26.387A4.92,4.92,0,0,0,260.914,120.957Zm0,0" transform="translate(-223.828 -86.982)" fill="#3c3a41"/>
    </g>
  </g>
</svg>
