<svg xmlns="http://www.w3.org/2000/svg" xmlns:xlink="http://www.w3.org/1999/xlink" width="113" height="113" viewBox="0 0 113 113">
  <defs>
    <clipPath id="clip-path">
      <circle id="Elipse_7732" data-name="Elipse 7732" cx="49.5" cy="49.5" r="49.5" transform="translate(216.999 5402.827)" fill="#0098e8" opacity="0.23"/>
    </clipPath>
    <clipPath id="clip-path-2">
      <rect id="Rectángulo_347304" data-name="Rectángulo 347304" width="86.77" height="229.7" fill="none"/>
    </clipPath>
  </defs>
  <g id="Grupo_1010475" data-name="Grupo 1010475" transform="translate(-210 -5649.827)">
    <circle id="Elipse_5329" data-name="Elipse 5329" cx="56.5" cy="56.5" r="56.5" transform="translate(210 5649.827)" fill="#0098e8"/>
    <g id="Enmascarar_grupo_1000207" data-name="Enmascarar grupo 1000207" transform="translate(0 253.699)" clip-path="url(#clip-path)">
      <g id="Grupo_1007405" data-name="Grupo 1007405" transform="translate(223.337 5414.188)">
        <g id="Grupo_1007386" data-name="Grupo 1007386" clip-path="url(#clip-path-2)">
          <path id="Trazado_719632" data-name="Trazado 719632" d="M59.556,181.687a80.761,80.761,0,0,0-.778,11.728c6.024,1.611,13.211,5.229,19.235,6.84-5.21,1.24-30.772,2.778-30.789,2.315-.257-7.049-.555-19.433.675-26.378Z" transform="translate(6.224 23.337)" fill="#847452"/>
          <path id="Trazado_719633" data-name="Trazado 719633" d="M74.248,196.37q-5.176.657-10.368,1.169t-10.4.875q-2.927.2-5.857.361c-.281.016-.282.453,0,.438q5.21-.282,10.409-.709t10.385-1q2.917-.323,5.828-.693c.275-.036.279-.473,0-.438" transform="translate(6.28 26.009)" fill="#fff"/>
          <path id="Trazado_719634" data-name="Trazado 719634" d="M47.174,194.207a7.156,7.156,0,0,1,4.713,2.805,7.036,7.036,0,0,1,.8,1.393c.111.258.488.035.377-.221a7.577,7.577,0,0,0-4.171-3.978,7.087,7.087,0,0,0-1.6-.421.228.228,0,0,0-.27.153.221.221,0,0,0,.153.27" transform="translate(6.227 25.667)" fill="#fff"/>
          <path id="Trazado_719635" data-name="Trazado 719635" d="M65.91,194.364a2.724,2.724,0,0,0-1.715,3.148.219.219,0,0,0,.422-.117,2.277,2.277,0,0,1,1.409-2.609c.264-.093.151-.515-.117-.422" transform="translate(8.493 25.742)" fill="#fff"/>
          <path id="Trazado_719636" data-name="Trazado 719636" d="M59.764,190.948a11.188,11.188,0,0,0-5.467,2.77c-.206.193.1.5.31.309a10.749,10.749,0,0,1,5.274-2.657c.276-.053.159-.476-.117-.422" transform="translate(7.183 25.291)" fill="#fff"/>
          <path id="Trazado_719637" data-name="Trazado 719637" d="M58.739,189.223a15.418,15.418,0,0,0-5.77,2.888c-.22.177.093.484.309.31a14.909,14.909,0,0,1,5.576-2.776.219.219,0,0,0-.116-.422" transform="translate(7.006 25.062)" fill="#fff"/>
          <path id="Trazado_719638" data-name="Trazado 719638" d="M59.029,187.733a7.546,7.546,0,0,0-5.913,2.359c-.191.206.117.516.31.31a7.122,7.122,0,0,1,5.6-2.232c.281.018.281-.42,0-.437" transform="translate(7.027 24.864)" fill="#fff"/>
          <path id="Trazado_719639" data-name="Trazado 719639" d="M49.171,186.788a1.791,1.791,0,1,0,1.553-2,1.79,1.79,0,0,0-1.553,2" transform="translate(6.511 24.473)" fill="#fff"/>
          <path id="Trazado_719640" data-name="Trazado 719640" d="M30.305,184.962a80.763,80.763,0,0,0-.778,11.728c6.024,1.611,13.211,5.229,19.235,6.84-5.21,1.239-30.772,2.778-30.789,2.315-.257-7.048-.555-19.433.675-26.378Z" transform="translate(2.35 23.77)" fill="#847452"/>
          <path id="Trazado_719641" data-name="Trazado 719641" d="M51.2,14.341a39.53,39.53,0,0,0-8.361-1.1L16.915,11.708a29.86,29.86,0,0,0-.467,9.6c11.685-.208,23.366-3,34.964-1.562a8.571,8.571,0,0,0-.057-2.93Z" transform="translate(2.153 1.551)" fill="#e19160"/>
          <path id="Trazado_719642" data-name="Trazado 719642" d="M37.162,25.712c1.949.456,4.166.729,5.889-.279s2.156-3.785.333-4.55a2.521,2.521,0,0,0,1.556-2.7,2.6,2.6,0,0,0-2.486-1.94c-.219.352.2.8.639.8a1.734,1.734,0,0,0,1.129-.572,6.252,6.252,0,0,0,1.538-6.923,7,7,0,0,0-6.275-3.921A6.6,6.6,0,0,0,34.492.1c-2.719-.565-5.974,1.252-6.2,3.817C27.155.975,22.644.692,19.386,1.753a7.122,7.122,0,0,0-3.748,2.359,2.661,2.661,0,0,0,.489,3.765c.022-1.306-1.438-2.3-2.863-2.3a6.146,6.146,0,0,0-3.8,1.649C7.565,8.82,6.16,11.24,6.87,13.463a5.078,5.078,0,0,0-4.644,3.705A4.446,4.446,0,0,0,5,22.081a4.395,4.395,0,0,0-4.17,3.293,3.882,3.882,0,0,0,2.728,4.263C1.324,29.93.569,32.89,1.789,34.6s3.521,2.436,5.658,3.051a1.152,1.152,0,0,0-1.363,1.02A2.165,2.165,0,0,0,6.9,40.29c1.944,1.861,4.957,2.351,7.772,2.649a7.858,7.858,0,0,0,3.265-.129,2.464,2.464,0,0,0,1.879-2.252,1.586,1.586,0,0,0-2.371-1.093,6.891,6.891,0,0,0,6.664,2.722,9.06,9.06,0,0,0,6.214-4.038,2.4,2.4,0,0,0,.488-2.059,1.2,1.2,0,0,0-1.855-.476c-.493.566.046,1.4.711,1.765,1.394.762,3.556.358,4.212-1.032a2.006,2.006,0,0,0-2.545-2.536,3.8,3.8,0,0,0,4.158-.666,3.037,3.037,0,0,0,.4-3.846Z" transform="translate(0.103 0)"/>
          <path id="Trazado_719643" data-name="Trazado 719643" d="M54.769,89.388c5.4,20.055,9.447,33.061,14.85,53.115a43.894,43.894,0,0,1,1.749,8.878,43.994,43.994,0,0,1-1.168,10.77c-2.254,11.7-7.079,36.638-7.644,37.147-.482.434-12.526,2.344-15.4.621a448.507,448.507,0,0,1,5.677-45.111,8.265,8.265,0,0,0,.2-2.735,8.406,8.406,0,0,0-1.694-3.392c-8.7-12.409-10.815-16.211-15.449-30.64a20.6,20.6,0,0,1-1.286-6.482,16.759,16.759,0,0,1,2.32-7.63A34.247,34.247,0,0,1,47.453,92.151Z" transform="translate(4.583 11.84)" fill="#3e7b93"/>
          <path id="Trazado_719644" data-name="Trazado 719644" d="M57.55,88.857c.545,12.05-6.766,43.266-8.424,50.06-7.066,28.957-6.225,32.974-17.9,60.4,0,0-10.409-.723-14.187-.785-1.9-25.913,7.482-39.013,7.951-40.272a12.859,12.859,0,0,0,.606-3.344c.726-7.925-.818-20.138-2.754-23.28-4.341-7.039-6.233-16.016-3.2-23.71,2.479-6.29,9.564-10.051,8-16.627Z" transform="translate(2.223 11.769)" fill="#6da8c6"/>
          <path id="Trazado_719645" data-name="Trazado 719645" d="M37.782,18.524c.616,4.494,1.137,13.552,1.137,13.552l3.011-1.607-2.5,5.025s.6,5.341-.767,8.627c-.769,1.856-9.209-2.387-10.9-3.465l-.86,8.114s-2.949,5.18-12.876-.651c.087.008,2.623-10.344,2.786-14.492-.592,1.565-3.018,1.713-4.184.513a4.738,4.738,0,0,1-.717-4.721,5.363,5.363,0,0,1,2.666-3.309,3.238,3.238,0,0,1,3.932.866,98.113,98.113,0,0,0,2-12.7Z" transform="translate(1.536 1.891)" fill="#f6a472"/>
          <path id="Trazado_719646" data-name="Trazado 719646" d="M49.115,19.554a7.415,7.415,0,0,0-6.552-2.31,11.228,11.228,0,0,0-1.581.341,1.494,1.494,0,0,0-.8.45,1.6,1.6,0,0,0-.2,1.07q.2,4.169.57,8.327a1.025,1.025,0,0,0-1.106.644,2.983,2.983,0,0,0-.145,1.373q.093,1.86.188,3.72a1.662,1.662,0,0,0,.212.884,3.493,3.493,0,0,0,.589.527c1.4,1.274-.089,4.213,1.763,5.129a2.177,2.177,0,0,0,.647.188A6.149,6.149,0,0,0,48.489,37.4a3.485,3.485,0,0,1,1.2-1.317c.427-.2,2.012-.479,2.434-.687,0,0-.117-1.286-.149-2.251q-.127-3.873-.464-7.732a6.1,6.1,0,0,1-2.7-.242.7.7,0,0,1-.4-.316c-.233-.422.181-.828.491-1.155a3.483,3.483,0,0,0,.835-3.192,2.589,2.589,0,0,0-.616-.957" transform="translate(5.203 2.274)" fill="#606060"/>
          <path id="Trazado_719647" data-name="Trazado 719647" d="M42.943,22.668a1.533,1.533,0,1,1-1.019.725,1.165,1.165,0,0,1,1.439-.533Z" transform="translate(5.528 2.999)"/>
          <path id="Trazado_719648" data-name="Trazado 719648" d="M42.068,32.162a10.5,10.5,0,0,0,2.246.1.224.224,0,0,0,.22-.22l-.065-1.579-.031-.772a5.526,5.526,0,0,0-.044-.711.628.628,0,0,0-.27-.446,1.042,1.042,0,0,0-.639-.062l-1.58.119a.222.222,0,0,0-.22.219l.194,2.75.027.388c.02.279.458.281.438,0l-.194-2.75-.027-.388c-.074.072-.146.146-.219.219l1.35-.1.33-.025a.775.775,0,0,1,.28-.006c.131.048.114.279.119.393.039.918.074,1.836.111,2.754.074-.072.146-.145.219-.219a9.922,9.922,0,0,1-2.129-.088.228.228,0,0,0-.27.153.221.221,0,0,0,.153.27" transform="translate(5.521 3.769)"/>
          <path id="Trazado_719649" data-name="Trazado 719649" d="M48.82,33.047l-7.162.525c-.28.02-.282.458,0,.437l7.162-.525c.28-.02.281-.458,0-.437" transform="translate(5.49 4.377)"/>
          <path id="Trazado_719650" data-name="Trazado 719650" d="M46.658,24.155a3.287,3.287,0,0,0-1.556.035.219.219,0,0,0,.117.422,2.8,2.8,0,0,1,1.323-.035.219.219,0,0,0,.117-.422" transform="translate(5.953 3.189)"/>
          <path id="Trazado_719651" data-name="Trazado 719651" d="M50.1,25.1l7.446-1.075a14.423,14.423,0,0,1,3.315-.221c1.727.152,3.592.9,5.1.035.733-.42,1.245-1.171,2.011-1.524a4.536,4.536,0,0,1,2.07-.25l8.561.3a1.349,1.349,0,0,1,.938.276,1.32,1.32,0,0,1,.287.743c.606,3.7.132,5.984.2,9.737a2.2,2.2,0,0,1-.344,1.5c-.428.5-9.321,1.457-13.441.95L50.681,34.462Z" transform="translate(6.635 2.92)"/>
          <path id="Trazado_719652" data-name="Trazado 719652" d="M74.291,22.371a89.045,89.045,0,0,1,.66,12.474.54.54,0,0,1-.062.3.286.286,0,0,1-.3.1c-.43-.058-.823.47-.821-.007a106.557,106.557,0,0,0-.7-13.208,1.508,1.508,0,0,1,1.068,0Z" transform="translate(9.677 2.905)" fill="#606060"/>
          <path id="Trazado_719653" data-name="Trazado 719653" d="M72.744,23.579a33.026,33.026,0,0,0-5.292.029c-.277.024-.281.462,0,.438a32.894,32.894,0,0,1,5.292-.029c.281.02.28-.417,0-.438" transform="translate(8.906 3.111)" fill="#606060"/>
          <path id="Trazado_719654" data-name="Trazado 719654" d="M72.546,25.164l-4.341-.058a.219.219,0,0,0,0,.437l4.341.059a.219.219,0,0,0,0-.438" transform="translate(9.006 3.325)" fill="#606060"/>
          <path id="Trazado_719655" data-name="Trazado 719655" d="M72.724,26.8a10.216,10.216,0,0,0-3.471-.149.227.227,0,0,0-.219.22.22.22,0,0,0,.219.219,9.847,9.847,0,0,1,3.354.134c.275.059.392-.362.117-.422" transform="translate(9.144 3.518)"/>
          <path id="Trazado_719656" data-name="Trazado 719656" d="M73.053,29.921c-1.313-.033-2.624-.145-3.935-.215-.271-.015-.544-.031-.815-.037a.219.219,0,0,0,0,.437c1.313.034,2.625.146,3.935.216.272.015.544.029.815.036a.219.219,0,0,0,0-.437" transform="translate(9.019 3.93)" fill="#606060"/>
          <path id="Trazado_719657" data-name="Trazado 719657" d="M64.1,24.086a26.852,26.852,0,0,1-.164,5.327c-.016.118.112.217.219.219a.225.225,0,0,0,.22-.219,26.851,26.851,0,0,0,.163-5.327c-.019-.28-.456-.282-.437,0" transform="translate(8.468 3.162)" fill="#606060"/>
          <path id="Trazado_719658" data-name="Trazado 719658" d="M56.177,25.52q-.1,3.046-.08,6.095a.219.219,0,0,0,.437,0q-.022-3.049.08-6.095c.01-.282-.428-.281-.437,0" transform="translate(7.429 3.352)" fill="#606060"/>
          <path id="Trazado_719659" data-name="Trazado 719659" d="M55.2,26.641a31.7,31.7,0,0,0-.279,4.039.219.219,0,0,0,.437,0,31.7,31.7,0,0,1,.279-4.039c.016-.118-.111-.217-.219-.219a.224.224,0,0,0-.219.219" transform="translate(7.275 3.5)" fill="#606060"/>
          <path id="Trazado_719660" data-name="Trazado 719660" d="M36.852,18.364c1.5.194,2.158,2.31,1.313,3.569a3.83,3.83,0,0,1-4.08,1.258,11.22,11.22,0,0,1-3.934-2.216c.873,1.419-.262,3.419-1.849,3.926a6.011,6.011,0,0,1-4.759-.937,2.539,2.539,0,0,1-3.956,2.947,1.394,1.394,0,0,1-.411,1.669,3.777,3.777,0,0,1-2.786-1.007,4.359,4.359,0,0,1-3.821-7.446c-1.093-.46-1.357-1.87-1.392-3.055a7.188,7.188,0,0,1,1.087-4.67c1-1.289,3.139-1.789,4.267-.61A5.374,5.374,0,0,1,25.1,7.911a4.8,4.8,0,0,1,5.662-.481,4.8,4.8,0,0,1,1.924,5.347,3.705,3.705,0,0,1,3.874,3.086,2.129,2.129,0,0,1,2.008,3.029Z" transform="translate(1.479 0.891)"/>
          <path id="Trazado_719661" data-name="Trazado 719661" d="M45.578,64.6a222.274,222.274,0,0,0,2.3-22.407c.079-2.259.14-4.68,1.465-6.51,1.618-2.233,4.618-2.907,7.362-3.178s5.671-.352,7.952-1.9c1.342-.913,2.434-2.318,4.081-2.546a1.249,1.249,0,0,1,.779.122c.922.508.473,1.767-.089,2.559A18.887,18.887,0,0,1,65.1,35.03a.007.007,0,0,0,0,.012,40.775,40.775,0,0,1,6.917.276c-.769,1.443-2.574,1.912-4.178,2.234l-8.8,1.778a5.47,5.47,0,0,0-2.912,1.219,5.179,5.179,0,0,0-1.044,3.735c.02,9.325,3.023,18.622,1.679,27.849a.949.949,0,0,1-.2.539.929.929,0,0,1-.856.131c-3.452-.672-6.228-3.147-8.82-5.525-.763-.7-1.588-1.79-1.015-2.654Z" transform="translate(6.037 3.714)" fill="#f6a472"/>
          <path id="Trazado_719662" data-name="Trazado 719662" d="M50.736,60.822c2.588,3.021,7.18,6.879,11.158,6.9a18.691,18.691,0,0,1-.55,8.524,9.186,9.186,0,0,1-2.589,4.4,4.624,4.624,0,0,1-4.815.894,66.071,66.071,0,0,0,4.9,13.707c-3.926,1.388-7.356,3.933-11.258,5.392a22.27,22.27,0,0,1-17.606-.967,2.231,2.231,0,0,1-.852-.629,2.509,2.509,0,0,1-.307-1.434,21.586,21.586,0,0,0-2.564-9.692c-3.036-5.637-8.4-9.622-12.218-14.764a39.831,39.831,0,0,1-4.217-7.3A28.675,28.675,0,0,1,6.979,55.34,15,15,0,0,1,10.108,45.1,14.2,14.2,0,0,1,22.19,40.466a21.065,21.065,0,0,1,11.976,5.609c1.546,1.392,2.929,2.952,4.358,4.464,4.109,4.345,12.212,10.283,12.212,10.283" transform="translate(0.922 5.352)" fill="#12263f"/>
          <path id="Trazado_719663" data-name="Trazado 719663" d="M16.85,28.99a12.3,12.3,0,0,0-3.367-1.9c-.264-.1-.378.324-.117.421A11.688,11.688,0,0,1,16.541,29.3c.217.173.53-.134.309-.309" transform="translate(1.751 3.585)" fill="#5b2d1b"/>
          <path id="Trazado_719664" data-name="Trazado 719664" d="M14.87,28.008l-.581,2a.219.219,0,0,0,.422.117l.581-2a.219.219,0,0,0-.422-.117" transform="translate(1.891 3.689)" fill="#5b2d1b"/>
          <path id="Trazado_719665" data-name="Trazado 719665" d="M26.664,37.84l-6.834-2.309,6.557,4.463Z" transform="translate(2.626 4.706)" fill="#e19160"/>
          <path id="Trazado_719666" data-name="Trazado 719666" d="M36.078,34.163a1.5,1.5,0,0,1-1.6.458,4.481,4.481,0,0,1-1.812-1.206c-.206-.19-.516.119-.309.31a4.6,4.6,0,0,0,2.152,1.35,1.909,1.909,0,0,0,1.948-.691c.161-.231-.219-.451-.378-.221" transform="translate(4.277 4.418)" fill="#5b2d1b"/>
          <path id="Trazado_719667" data-name="Trazado 719667" d="M30.026,28.44c.108.854.679,1.484,1.276,1.409s.994-.829.887-1.682-.679-1.485-1.276-1.409-.994.828-.887,1.682" transform="translate(3.975 3.543)"/>
          <path id="Trazado_719668" data-name="Trazado 719668" d="M32.888,24.311a.907.907,0,0,1-.795.668,1.582,1.582,0,0,1-.667-.043,4.939,4.939,0,0,0-3.214.584,2.132,2.132,0,0,1,.932-2.358,4.286,4.286,0,0,1,2.622-.568l.383.173a1.31,1.31,0,0,1,.739,1.544" transform="translate(3.724 2.991)"/>
          <path id="Trazado_719669" data-name="Trazado 719669" d="M63.86,33.823q-2.929,1.053-5.9,1.981c-.267.084-.153.506.117.421q2.971-.926,5.9-1.98c.263-.1.149-.518-.117-.422" transform="translate(7.657 4.478)" fill="#5b2d1b"/>
          <path id="Trazado_719670" data-name="Trazado 719670" d="M54.074,39.278l-2.34-1.242c-.248-.131-.47.246-.221.378l2.34,1.242c.248.131.47-.246.221-.378" transform="translate(6.809 5.034)" fill="#5b2d1b"/>
          <path id="Trazado_719671" data-name="Trazado 719671" d="M38,15.8a7.348,7.348,0,0,0,.481,6.609,2.45,2.45,0,0,0,1.327,1.19,1.21,1.21,0,0,0,.869-.061,1.347,1.347,0,0,0,.6-1.411c-.062-1.428-.564-2.973.149-4.212.8-1.386,2.833-1.617,4.252-.879a8.062,8.062,0,0,1,3.089,3.573,13.481,13.481,0,0,0,2.829,4.2.732.732,0,0,0,.5.18c.589-.026.67-.712.571-1.215a5.028,5.028,0,0,0-.841-1.934,4.251,4.251,0,0,0,1.692,2.153.46.46,0,0,0,.707-.4,7.158,7.158,0,0,0-1.3-3.978,7.236,7.236,0,0,0,1.121,2.446.761.761,0,0,0,1.37-.322,5.218,5.218,0,0,0-.394-2.719,11.946,11.946,0,0,0-2.464-3.419,5.546,5.546,0,0,0-2.961-1.972,4.059,4.059,0,0,1-1.2-.222,6.423,6.423,0,0,1-.59-.4,1.959,1.959,0,0,0-2.173.076c-.314.233-.573.573-.952.666a1.926,1.926,0,0,1-.816-.057,6.5,6.5,0,0,0-5.055,1.152Z" transform="translate(4.959 1.685)" fill="#f6a472"/>
          <path id="Trazado_719672" data-name="Trazado 719672" d="M47.5,17.213a7.32,7.32,0,0,1,1.832,2.677q.9,1.7,1.784,3.4c.13.25.508.029.378-.221q-.919-1.767-1.852-3.525a7.342,7.342,0,0,0-1.922-2.707c-.228-.165-.446.214-.221.378" transform="translate(6.278 2.224)" fill="#5b2d1b"/>
          <path id="Trazado_719673" data-name="Trazado 719673" d="M49.127,16.292l3.4,5.685a.219.219,0,0,0,.377-.221q-1.7-2.844-3.4-5.685a.219.219,0,0,0-.378.221" transform="translate(6.503 2.115)" fill="#5b2d1b"/>
          <path id="Trazado_719674" data-name="Trazado 719674" d="M50.77,15.563l-4.088,1.944c-.254.121-.032.5.221.378l4.088-1.944c.254-.121.033-.5-.221-.378" transform="translate(6.168 2.058)" fill="#5b2d1b"/>
          <path id="Trazado_719675" data-name="Trazado 719675" d="M72.459,26.734l-4.381.165c-.281.01-.282.447,0,.437q2.19-.083,4.381-.165c.281-.009.282-.446,0-.437" transform="translate(8.989 3.541)" fill="#606060"/>
          <path id="Trazado_719676" data-name="Trazado 719676" d="M72.676,28.213a11.16,11.16,0,0,0-3.712.026c-.277.049-.16.471.116.422a10.527,10.527,0,0,1,3.48-.026c.276.044.394-.378.117-.422" transform="translate(9.113 3.718)" fill="#606060"/>
          <path id="Trazado_719677" data-name="Trazado 719677" d="M73.073,31.781a15.576,15.576,0,0,0-4.9.316c-.274.062-.159.484.117.422a15.207,15.207,0,0,1,4.786-.3c.28.027.279-.411,0-.437" transform="translate(9.008 4.2)" fill="#606060"/>
          <path id="Trazado_719678" data-name="Trazado 719678" d="M71.556,33.11a4.174,4.174,0,0,0-2.1.171.225.225,0,0,0-.153.27.221.221,0,0,0,.27.153,3.723,3.723,0,0,1,1.866-.171.227.227,0,0,0,.27-.153.222.222,0,0,0-.153-.27" transform="translate(9.178 4.377)" fill="#606060"/>
          <path id="Trazado_719679" data-name="Trazado 719679" d="M62.292,25.077a38.63,38.63,0,0,0,.006,4.33c.016.28.454.281.438,0a38.9,38.9,0,0,1-.007-4.33c.015-.282-.421-.281-.437,0" transform="translate(8.243 3.293)" fill="#606060"/>
          <path id="Trazado_719680" data-name="Trazado 719680" d="M61.09,25.159a9.27,9.27,0,0,0,.042,3.733c.06.275.481.159.422-.116a8.718,8.718,0,0,1-.042-3.5c.052-.275-.369-.393-.422-.117" transform="translate(8.069 3.312)" fill="#606060"/>
          <path id="Trazado_719681" data-name="Trazado 719681" d="M59.668,25.609a9.884,9.884,0,0,1,.082,2.419.221.221,0,0,0,.219.219.223.223,0,0,0,.22-.219,10.331,10.331,0,0,0-.1-2.536.219.219,0,1,0-.421.117" transform="translate(7.902 3.355)" fill="#606060"/>
          <path id="Trazado_719682" data-name="Trazado 719682" d="M40.252,26.653q.024,3.192.324,6.373c.026.277.463.281.437,0q-.3-3.178-.324-6.373a.219.219,0,0,0-.437,0" transform="translate(5.331 3.502)"/>
          <path id="Trazado_719683" data-name="Trazado 719683" d="M46.611,25.144A2.467,2.467,0,0,0,47.4,26.8a3.382,3.382,0,0,0,.787.5,1.4,1.4,0,0,1,.7.572,2.938,2.938,0,0,1,.176,1.05c.032.4.062.8.094,1.2a3.721,3.721,0,0,1,.017,1.143,1.2,1.2,0,0,1-.581.672,2.2,2.2,0,0,0-.741.706,1.594,1.594,0,0,0-.169,1.076c.049.276.471.16.421-.117a1.119,1.119,0,0,1,.237-.9,4.158,4.158,0,0,1,.709-.552,1.4,1.4,0,0,0,.53-.707,2.923,2.923,0,0,0,.033-1.069c-.031-.39-.06-.778-.091-1.166a9.507,9.507,0,0,0-.109-1.105,1.438,1.438,0,0,0-.458-.837,4.111,4.111,0,0,0-.793-.463,2.031,2.031,0,0,1-1.115-1.657c-.018-.28-.456-.282-.437,0" transform="translate(6.174 3.302)"/>
          <path id="Trazado_719684" data-name="Trazado 719684" d="M46.978,19.89c.093.424.194.845.279,1.271a1.028,1.028,0,0,1,0,.567.379.379,0,0,1-.258.239c-.142.02-.243-.123-.308-.228a2.91,2.91,0,0,1-.242-.518,1.543,1.543,0,0,1-.118-1.146.413.413,0,0,1,.331-.256c.1,0,.238.066.248.174a.226.226,0,0,0,.22.22.221.221,0,0,0,.219-.22.694.694,0,0,0-1.029-.521,1.214,1.214,0,0,0-.429,1.416,4.246,4.246,0,0,0,.285.8,1.425,1.425,0,0,0,.427.59.739.739,0,0,0,1.105-.541,2.334,2.334,0,0,0-.084-.959q-.112-.5-.222-1.009c-.061-.275-.482-.159-.422.117" transform="translate(6.07 2.568)"/>
          <path id="Trazado_719685" data-name="Trazado 719685" d="M45.148,18.625a2.648,2.648,0,0,0,.484,3.867c.226.168.445-.212.221-.378a2.238,2.238,0,0,1-.4-3.18c.177-.216-.131-.528-.309-.309" transform="translate(5.897 2.457)"/>
          <path id="Trazado_719686" data-name="Trazado 719686" d="M4.977,17.369C3.41,16.33,1.244,17.414.525,18.991c-.951,2.084.256,4.488,1.754,5.962a8.352,8.352,0,0,0,1.38,1.1,3.986,3.986,0,0,0,1.434.661,1.035,1.035,0,0,0,1.072-.335c.289-.485-.181-.977-.53-1.271a3.752,3.752,0,0,0-2.873-.847A2.686,2.686,0,0,0,.4,26.089a3.349,3.349,0,0,0,.869,2.887A5.538,5.538,0,0,0,4.11,30.686a5.864,5.864,0,0,0,.843.139c.2.019.268-.245.155-.374-.845-.96-2.3-.249-3.153.318A1.908,1.908,0,0,0,.914,32.281a2.409,2.409,0,0,0,.739,1.594A5.994,5.994,0,0,0,3.28,35.043a13.4,13.4,0,0,0,2.029.877,13.13,13.13,0,0,0,2.155.529,7.144,7.144,0,0,0,2.081.119,1.3,1.3,0,0,0,1.2-1.173,1.312,1.312,0,0,0-.8-1.327c-.262-.1-.375.319-.116.421a.884.884,0,0,1,.48.906c-.045.5-.5.721-.96.758a7.723,7.723,0,0,1-1.8-.131A12.966,12.966,0,0,1,5.732,35.6a12.532,12.532,0,0,1-1.771-.7,8.12,8.12,0,0,1-1.538-.9,2.992,2.992,0,0,1-.984-1.24,1.157,1.157,0,0,1,.369-1.339,4.652,4.652,0,0,1,1.572-.879,1.274,1.274,0,0,1,1.418.225c.052-.125.1-.249.155-.374-1.811-.174-3.919-1.465-4.173-3.415a1.9,1.9,0,0,1,.239-1.247,2.172,2.172,0,0,1,1.08-.848,3.256,3.256,0,0,1,2.6.138,2.625,2.625,0,0,1,1.04.839c.236.376-.2.465-.482.443a3,3,0,0,1-1.224-.524,7.67,7.67,0,0,1-1.226-.92C1.416,23.577.241,21.591.754,19.639A2.968,2.968,0,0,1,4.264,17.5a2.017,2.017,0,0,1,.491.246c.236.155.455-.223.222-.378" transform="translate(0.025 2.246)"/>
          <path id="Trazado_719687" data-name="Trazado 719687" d="M34.519,19.342c.212-.168.435.19.476.344a4.966,4.966,0,0,1,.085,1.021c.037.693.052,1.392.129,2.083A3.13,3.13,0,0,0,36.944,25.6a1.719,1.719,0,0,0,1.476-.066,1.4,1.4,0,0,0,.66-1.14.99.99,0,0,0-.693-1.024,1.166,1.166,0,0,0-1.195.514,1.458,1.458,0,0,0-.067,1.626,3.686,3.686,0,0,0,1.407,1.268.219.219,0,0,0,.221-.378c-.686-.409-1.82-1.232-1.273-2.161.172-.292.549-.6.9-.4a.7.7,0,0,1,.176.915c-.416.909-1.621.523-2.161-.029-.777-.8-.772-2.071-.827-3.106-.019-.376-.04-.752-.059-1.128a4.158,4.158,0,0,0-.1-.948.778.778,0,0,0-1.2-.508c-.221.174.091.482.309.309" transform="translate(4.521 2.501)"/>
          <path id="Trazado_719688" data-name="Trazado 719688" d="M16.654,32.037c.288-.73,1.343-.767,2.049-.424a2.681,2.681,0,0,1,1.589,2.419,1.857,1.857,0,0,1-2.058,1.749,2.52,2.52,0,0,1,1.131,3.113,3.266,3.266,0,0,1-2.847,1.946A4.71,4.71,0,0,1,13.2,39.582a1.4,1.4,0,0,1-.92,1.36,3.2,3.2,0,0,1-1.737.092,6.333,6.333,0,0,1-4.753-3.141c-1.035-2.11-.344-4.62.361-6.862a11.146,11.146,0,0,0,6.32,2.278c1.593.059,3.468-.438,4.037-1.929Z" transform="translate(0.697 4.11)"/>
          <path id="Trazado_719689" data-name="Trazado 719689" d="M9.855,8.608a3.316,3.316,0,0,0-2.9-1.735A2,2,0,0,0,5.2,8.717a1.414,1.414,0,0,0,.557,1.271c.171.13.348-.085.322-.247A3.188,3.188,0,0,0,3.733,7.248,3,3,0,0,0,.555,8.523a3.023,3.023,0,0,0-.547,1.943c.023.28.46.282.438,0a2.758,2.758,0,0,1,1.49-2.6,2.551,2.551,0,0,1,2.882.462,2.638,2.638,0,0,1,.839,1.533l.32-.248c-.566-.431-.356-1.3.033-1.773a1.73,1.73,0,0,1,2.282-.191A3.586,3.586,0,0,1,9.476,8.829c.151.238.529.018.378-.221" transform="translate(0 0.909)"/>
          <path id="Trazado_719690" data-name="Trazado 719690" d="M21.318,19.308q.953,2.3,1.9,4.6c.106.257.53.145.422-.116q-.951-2.3-1.9-4.6c-.106-.256-.53-.144-.422.117" transform="translate(2.821 2.523)" fill="#f59f18"/>
          <path id="Trazado_719691" data-name="Trazado 719691" d="M20.321,20.3l1.953,4.83c.1.257.528.145.422-.117l-1.953-4.83c-.1-.257-.528-.145-.422.117" transform="translate(2.689 2.654)" fill="#f59f18"/>
          <path id="Trazado_719692" data-name="Trazado 719692" d="M53.151,80.14q-4.605-1.94-9.063-4.208t-8.729-4.839Q31.084,68.519,27,65.645a48.312,48.312,0,0,1-6.791-5.537,18.327,18.327,0,0,1-4.514-7q-.165-.506-.292-1.023c-.067-.274-.489-.157-.421.116a17.4,17.4,0,0,0,4.1,7.348,40.447,40.447,0,0,0,6.592,5.689q4.06,2.929,8.336,5.548,4.3,2.641,8.775,4.969t9.109,4.324q.569.245,1.14.486c.259.109.373-.315.117-.422" transform="translate(1.983 6.878)" fill="#b76f0f"/>
          <path id="Trazado_719693" data-name="Trazado 719693" d="M56.664,67.374A16.07,16.07,0,0,1,51.228,65.3a16.607,16.607,0,0,1-4.357-3.829A15.639,15.639,0,0,1,45.1,58.681c-.126-.251-.5-.031-.378.221A16.4,16.4,0,0,0,48.3,63.635a17.113,17.113,0,0,0,5.029,3.209,15.986,15.986,0,0,0,3.221.951c.275.05.394-.371.117-.422" transform="translate(5.92 7.758)" fill="#b76f0f"/>
          <path id="Trazado_719694" data-name="Trazado 719694" d="M44.791,58.336a26.732,26.732,0,0,0-.941,7.116.219.219,0,0,0,.437,0,26.235,26.235,0,0,1,.926-7,.219.219,0,0,0-.422-.117" transform="translate(5.808 7.706)" fill="#b76f0f"/>
          <path id="Trazado_719695" data-name="Trazado 719695" d="M44.525,57.835a19.319,19.319,0,0,0-1.891,5.4c-.052.275.37.393.422.117a18.935,18.935,0,0,1,1.847-5.3c.13-.249-.247-.47-.378-.221" transform="translate(5.646 7.646)" fill="#b76f0f"/>
          <path id="Trazado_719696" data-name="Trazado 719696" d="M53.091,86.9c-3.05,1.491-5.589,3.83-8.639,5.317a13.027,13.027,0,0,1-5.17,1.323,19.647,19.647,0,0,1-5.59-.664,56.274,56.274,0,0,1-6.178-2.045c-.265-.1-.377.323-.116.421,3.59,1.359,7.335,2.735,11.224,2.738a13.512,13.512,0,0,0,5.353-1.076,26.467,26.467,0,0,0,4.41-2.567,40.737,40.737,0,0,1,4.926-3.069c.251-.125.032-.5-.221-.378" transform="translate(3.609 11.506)" fill="#b76f0f"/>
          <path id="Trazado_719697" data-name="Trazado 719697" d="M45,199.645q-5.176.657-10.368,1.169t-10.4.875q-2.927.2-5.857.361c-.281.015-.282.453,0,.438q5.21-.282,10.409-.709t10.385-1q2.917-.323,5.828-.693c.275-.035.28-.473,0-.438" transform="translate(2.406 26.443)" fill="#fff"/>
          <path id="Trazado_719698" data-name="Trazado 719698" d="M17.923,197.482a7.157,7.157,0,0,1,4.713,2.805,6.977,6.977,0,0,1,.8,1.393c.112.258.489.035.378-.221a7.577,7.577,0,0,0-4.171-3.978,7.085,7.085,0,0,0-1.6-.421.228.228,0,0,0-.27.153.22.22,0,0,0,.153.27" transform="translate(2.353 26.1)" fill="#fff"/>
          <path id="Trazado_719699" data-name="Trazado 719699" d="M36.66,197.639a2.724,2.724,0,0,0-1.715,3.148.219.219,0,0,0,.422-.117,2.277,2.277,0,0,1,1.409-2.609c.264-.093.151-.515-.117-.422" transform="translate(4.619 26.176)" fill="#fff"/>
          <path id="Trazado_719700" data-name="Trazado 719700" d="M30.515,194.223a11.187,11.187,0,0,0-5.469,2.77c-.207.193.1.5.311.31a10.743,10.743,0,0,1,5.273-2.658c.276-.053.159-.476-.116-.422" transform="translate(3.308 25.724)" fill="#fff"/>
          <path id="Trazado_719701" data-name="Trazado 719701" d="M29.487,192.5a15.417,15.417,0,0,0-5.769,2.889c-.22.176.092.482.309.309A14.9,14.9,0,0,1,29.6,192.92a.219.219,0,0,0-.117-.422" transform="translate(3.132 25.496)" fill="#fff"/>
          <path id="Trazado_719702" data-name="Trazado 719702" d="M29.779,191.008a7.547,7.547,0,0,0-5.913,2.359c-.191.206.117.516.309.309a7.129,7.129,0,0,1,5.6-2.231c.281.018.28-.42,0-.437" transform="translate(3.153 25.297)" fill="#fff"/>
          <path id="Trazado_719703" data-name="Trazado 719703" d="M19.921,190.063a1.791,1.791,0,1,0,1.553-2,1.79,1.79,0,0,0-1.553,2" transform="translate(2.637 24.907)" fill="#fff"/>
          <path id="Trazado_719704" data-name="Trazado 719704" d="M32.747,182.342q-5.9-.435-11.775-1.084-1.658-.182-3.316-.383c-.279-.033-.275.4,0,.438q5.871.707,11.764,1.2,1.663.139,3.327.263c.281.02.28-.418,0-.438" transform="translate(2.311 23.957)" fill="#265263"/>
          <path id="Trazado_719705" data-name="Trazado 719705" d="M60.586,181.645a84.948,84.948,0,0,0-10.474-.92q-1.491-.037-2.984-.022a.219.219,0,0,0,0,.437,84.3,84.3,0,0,1,10.406.538q1.471.166,2.935.388c.276.041.394-.381.117-.422" transform="translate(6.214 23.934)" fill="#265263"/>
          <path id="Trazado_719706" data-name="Trazado 719706" d="M48.183,123.068,51.42,128.8c1.023,1.81,2.067,3.61,3.009,5.464a31.732,31.732,0,0,1,2.3,5.621,24.813,24.813,0,0,1,.871,6.38c.042,2.169-.085,4.337-.187,6.5q-.156,3.362-.328,6.722-.338,6.657-.73,13.31-.394,6.686-.844,13.369-.056.839-.113,1.679c-.019.281.419.28.437,0q.459-6.715.861-13.433.406-6.749.754-13.5.175-3.36.334-6.721c.105-2.2.238-4.4.259-6.608a29.285,29.285,0,0,0-.538-6.4,26.827,26.827,0,0,0-2-5.718c-.86-1.846-1.858-3.623-2.859-5.395l-3.265-5.774-.816-1.445a.219.219,0,0,0-.378.221" transform="translate(6.378 16.257)" fill="#265263"/>
          <path id="Trazado_719707" data-name="Trazado 719707" d="M46.3,94.607a7.572,7.572,0,0,1-1.375,2.634c-.6.8-1.266,1.566-1.939,2.31a44.214,44.214,0,0,1-4.421,4.257q-1.316,1.1-2.718,2.1c-.228.162-.009.541.221.377a42.979,42.979,0,0,0,9.048-8.577,8.341,8.341,0,0,0,1.606-2.983.219.219,0,0,0-.422-.117" transform="translate(4.736 12.51)" fill="#265263"/>
          <path id="Trazado_719708" data-name="Trazado 719708" d="M39.339,96.057a62.432,62.432,0,0,0-3.705,17.929c-.458,6.216-.334,12.454-.3,18.681a155.629,155.629,0,0,1-.819,19.1,161.689,161.689,0,0,1-3.673,19.594c-1.579,6.439-3.427,12.807-5.3,19.163q-.343,1.162-.689,2.325a.219.219,0,0,0,.422.117c1.882-6.355,3.762-12.713,5.4-19.135A176.171,176.171,0,0,0,34.6,154.5a138.568,138.568,0,0,0,1.178-19.085c0-6.268-.179-12.543.13-18.808a68.189,68.189,0,0,1,3.079-18.292q.36-1.079.77-2.137c.1-.264-.322-.377-.422-.117" transform="translate(3.29 12.703)" fill="#265263"/>
          <path id="Trazado_719709" data-name="Trazado 719709" d="M22.625,102.6a41.4,41.4,0,0,1,5.9.273l-.211-.277L26.5,111.669q-.455,2.283-.912,4.566a6.868,6.868,0,0,1-.58,1.908,3.593,3.593,0,0,1-1.1,1.229,9.709,9.709,0,0,1-3.542,1.319c-.274.062-.159.485.117.422a11.353,11.353,0,0,0,3.278-1.127,4.456,4.456,0,0,0,1.281-1.1,4.683,4.683,0,0,0,.8-1.764c.181-.724.307-1.464.453-2.2q.233-1.162.464-2.323.464-2.324.929-4.646.525-2.626,1.049-5.253a.222.222,0,0,0-.211-.276,41.229,41.229,0,0,0-5.9-.273.219.219,0,0,0,0,.437" transform="translate(2.677 13.529)" fill="#265263"/>
          <path id="Trazado_719710" data-name="Trazado 719710" d="M27.394,105.953a33.781,33.781,0,0,0-7.585-.49c-.281.014-.282.452,0,.438a33.2,33.2,0,0,1,7.469.474c.276.049.394-.373.117-.422" transform="translate(2.596 13.963)" fill="#265263"/>
          <path id="Trazado_719711" data-name="Trazado 719711" d="M24.972,150.732q3.526.676,7,1.611a.219.219,0,0,0,.116-.422q-3.467-.934-7-1.611c-.275-.052-.393.369-.117.422" transform="translate(3.287 19.908)" fill="#265263"/>
          <path id="Trazado_719712" data-name="Trazado 719712" d="M25.176,152.536a46.762,46.762,0,0,0,6.11,2.405c.27.085.385-.337.117-.422a45.922,45.922,0,0,1-6.005-2.361c-.253-.12-.476.257-.221.378" transform="translate(3.32 20.15)" fill="#265263"/>
          <path id="Trazado_719713" data-name="Trazado 719713" d="M52.408,145.388a61.509,61.509,0,0,1,8.235.179q1.177.105,2.351.257c.279.035.276-.4,0-.438a61.4,61.4,0,0,0-8.222-.5q-1.182.007-2.365.062c-.281.012-.282.45,0,.437" transform="translate(6.914 19.19)" fill="#265263"/>
          <path id="Trazado_719714" data-name="Trazado 719714" d="M53.864,146.741a42.1,42.1,0,0,1,8.572,1.594.219.219,0,0,0,.117-.421,42.6,42.6,0,0,0-8.688-1.611c-.281-.022-.28.416,0,.438" transform="translate(7.106 19.378)" fill="#265263"/>
          <path id="Trazado_719715" data-name="Trazado 719715" d="M33.65,82.487l.268,2.13a.226.226,0,0,0,.22.219.22.22,0,0,0,.219-.219q-.134-1.065-.27-2.13a.225.225,0,0,0-.219-.219.22.22,0,0,0-.219.219" transform="translate(4.457 10.896)" fill="#b76f0f"/>
          <path id="Trazado_719716" data-name="Trazado 719716" d="M30.727,82.6c.044.043.087.088.128.136.019.022.039.044.057.067l.017.022.016.022a2.345,2.345,0,0,1,.195.318c.014.026.026.053.039.079l.017.04c.015.034-.01-.025,0,.009.023.058.044.117.062.176s.033.113.045.17c.008.032.015.065.02.1l.007.043c0,.007.009.054,0,.018a.226.226,0,0,0,.219.219c.106,0,.236-.1.22-.219a2.562,2.562,0,0,0-.739-1.505.219.219,0,1,0-.309.309" transform="translate(4.062 10.891)" fill="#b76f0f"/>
          <path id="Trazado_719717" data-name="Trazado 719717" d="M26.223,75.681q.46.783.92,1.567a.219.219,0,0,0,.377-.221L26.6,75.461a.219.219,0,0,0-.378.221" transform="translate(3.469 9.981)" fill="#b76f0f"/>
          <path id="Trazado_719718" data-name="Trazado 719718" d="M29.17,85.5a4.4,4.4,0,0,1,.709,1.965.226.226,0,0,0,.22.219.22.22,0,0,0,.219-.219,4.865,4.865,0,0,0-.769-2.186.224.224,0,0,0-.3-.078.221.221,0,0,0-.078.3" transform="translate(3.859 11.281)" fill="#b76f0f"/>
          <path id="Trazado_719719" data-name="Trazado 719719" d="M25.193,58.871l2.4,1.862a.227.227,0,0,0,.31,0,.222.222,0,0,0,0-.31l-2.4-1.861a.225.225,0,0,0-.309,0,.219.219,0,0,0,0,.309" transform="translate(3.328 7.748)" fill="#b76f0f"/>
          <path id="Trazado_719720" data-name="Trazado 719720" d="M24.526,60.068l1.318.771a.223.223,0,0,0,.3-.078.225.225,0,0,0-.079-.3l-1.318-.771a.22.22,0,0,0-.3.079.223.223,0,0,0,.078.3" transform="translate(3.235 7.902)" fill="#b76f0f"/>
          <path id="Trazado_719721" data-name="Trazado 719721" d="M20.332,55.26l1.3.8a.219.219,0,1,0,.221-.378l-1.3-.8a.219.219,0,0,0-.221.378" transform="translate(2.679 7.265)" fill="#b76f0f"/>
        </g>
      </g>
    </g>
  </g>
</svg>
