<svg xmlns="http://www.w3.org/2000/svg" xmlns:xlink="http://www.w3.org/1999/xlink" width="11.157" height="14.84" viewBox="0 0 11.157 14.84">
  <defs>
    <clipPath id="clip-path">
      <rect id="Rectángulo_344336" data-name="Rectángulo 344336" width="11.157" height="14.84" fill="#005b8b"/>
    </clipPath>
  </defs>
  <g id="Grupo_896441" data-name="Grupo 896441" clip-path="url(#clip-path)">
    <path id="Trazado_694308" data-name="Trazado 694308" d="M6.525,103.059A1.915,1.915,0,0,0,8.461,103a1.9,1.9,0,0,0,2.695.978c-.027.338-.027.65-.079.953a4.567,4.567,0,0,1-3.7,3.823,4.217,4.217,0,0,1-.805.089c-.741.005-1.483.012-2.222-.024a4.375,4.375,0,0,1-2.807-1.23,4.374,4.374,0,0,1-1.366-2,5.3,5.3,0,0,1-.122-2.128A1.812,1.812,0,0,1,1.889,101.9c.844-.016,1.689-.012,2.533,0a1.157,1.157,0,0,1,1.125.891,1.134,1.134,0,0,1-.605,1.28,1.5,1.5,0,0,1-.595.13c-.5.018-1.005,0-1.508.008a.471.471,0,0,0-.448.714.422.422,0,0,0,.386.217c.644,0,1.291.025,1.931-.033A2,2,0,0,0,6.5,103.256c.005-.057.014-.113.025-.2" transform="translate(0 -94.01)" fill="#005b8b"/>
    <path id="Trazado_694309" data-name="Trazado 694309" d="M14.024,6.94H12.2V6.684q0-2.889,0-5.777A.89.89,0,0,1,13.1,0a.879.879,0,0,1,.933.855q.006,2.985,0,5.971c0,.032-.005.064-.01.115" transform="translate(-11.251 0)" fill="#005b8b"/>
    <path id="Trazado_694310" data-name="Trazado 694310" d="M86.034,61.853c0,.315,0,.631,0,.946a.884.884,0,0,1-.912.9.893.893,0,0,1-.929-.9q0-.946,0-1.892a.893.893,0,0,1,.925-.906.884.884,0,0,1,.915.893c0,.322,0,.644,0,.966" transform="translate(-77.679 -55.352)" fill="#005b8b"/>
    <path id="Trazado_694311" data-name="Trazado 694311" d="M122.037,73.847c0,.315,0,.631,0,.946a.92.92,0,0,1-1.841-.01q0-.937,0-1.873a.92.92,0,0,1,1.841-.01c0,.315,0,.631,0,.946" transform="translate(-110.896 -66.426)" fill="#005b8b"/>
    <path id="Trazado_694312" data-name="Trazado 694312" d="M50.037,49.615c0,.238,0,.476,0,.714a.92.92,0,0,1-1.841-.007q0-.7,0-1.409a.92.92,0,0,1,1.841-.012c0,.238,0,.476,0,.714" transform="translate(-44.467 -44.284)" fill="#005b8b"/>
  </g>
</svg>
