<svg id="hola" xmlns="http://www.w3.org/2000/svg" width="77.429" height="78.72" viewBox="0 0 77.429 78.72">
  <path id="Trazado_688455" data-name="Trazado 688455" d="M52.321,47.3a8.7,8.7,0,0,1-3.131-6.682v-1H33.7v1a8.7,8.7,0,0,1-3.13,6.682l5.711,5.715H46.609Z" transform="translate(6.301 8.928)" fill="#cf8c78"/>
  <path id="Trazado_688456" data-name="Trazado 688456" d="M52.547,46.98a8.684,8.684,0,0,1-3.109-6.255c-.169.1-.336.21-.516.307a14.8,14.8,0,0,1-12.6.867.6.6,0,0,0-.812.435L35.5,42.4a8.614,8.614,0,0,1-4.406,5.411l-1.29.685,3.7,5.168,3.4.565s2.587-.871,4.105-1.532h5.838Z" transform="translate(6.076 9.249)" fill="#f1b8a0"/>
  <path id="Trazado_688457" data-name="Trazado 688457" d="M62.715,10.574v3.039a128.235,128.235,0,0,1-.9,15.228H24.9A128.238,128.238,0,0,1,24,13.613v-1.17Z" transform="translate(4.391 0.491)" fill="#4c4c4c"/>
  <path id="Trazado_688458" data-name="Trazado 688458" d="M28.162,24a5.162,5.162,0,0,0,0,10.324h.475" transform="translate(4.1 4.391)" fill="#cf8c78"/>
  <path id="Trazado_688459" data-name="Trazado 688459" d="M51.107,24a5.162,5.162,0,1,1,0,10.324h-.475" transform="translate(12.127 4.391)" fill="#cf8c78"/>
  <path id="Trazado_688460" data-name="Trazado 688460" d="M56.165,15.294l.077.156a16.389,16.389,0,0,1,1.729,7.329V33.1a16,16,0,0,1-8.23,13.987,14.92,14.92,0,0,1-14.51.006A16,16,0,0,1,27,33.1V22.779a16.39,16.39,0,0,1,1.732-7.335l.283-.568" transform="translate(5.262 1.74)" fill="#cf8c78"/>
  <path id="Trazado_688461" data-name="Trazado 688461" d="M37.231,47.081a14.927,14.927,0,0,0,5.965,1.8,14.927,14.927,0,0,0,5.965-1.8,16,16,0,0,0,8.231-13.988V22.769a16.39,16.39,0,0,0-1.732-7.335l-.074-.15L31,14.91l-.265.53A16.389,16.389,0,0,0,29,22.769V33.093A16,16,0,0,0,37.23,47.08Z" transform="translate(5.843 1.75)" fill="#f1b8a0"/>
  <path id="Trazado_688462" data-name="Trazado 688462" d="M40.743,39.743A7.751,7.751,0,0,1,33,32h2.581A5.162,5.162,0,0,0,45.9,32h2.581a7.751,7.751,0,0,1-7.743,7.743Z" transform="translate(7.005 6.715)" fill="#cf8c78"/>
  <path id="Trazado_688463" data-name="Trazado 688463" d="M75.072,68.229V58.571a10.956,10.956,0,0,0-7.807-10.489L57.005,45l-.6.6a15.578,15.578,0,0,1-22.029,0l-.6-.6L17,48.871v14.2l9.033,1.29v3.871Z" transform="translate(2.357 10.491)" fill="#0059bd"/>
  <path id="Trazado_688464" data-name="Trazado 688464" d="M64.626,48.078,54.366,45l-.6.6a15.577,15.577,0,0,1-22.03,0l-.6-.6-5.054,1.161A30.548,30.548,0,0,0,54,64.357H72.433V58.571a10.956,10.956,0,0,0-7.806-10.493Z" transform="translate(4.996 10.491)" fill="#006bda"/>
  <path id="Trazado_688465" data-name="Trazado 688465" d="M53,59h2.581v5.162H53Z" transform="translate(12.815 14.558)" fill="#004c9c"/>
  <path id="Trazado_688466" data-name="Trazado 688466" d="M12.324,5.871h-1.29V2L2,8.452,11.033,14.9V11.033h.508A8.7,8.7,0,0,1,18.776,14.9l3.872-3.871A12.9,12.9,0,0,0,12.324,5.871Z" transform="translate(-2 -2)" fill="#a7d309"/>
  <path id="Trazado_688467" data-name="Trazado 688467" d="M12.324,5.871h-1.29V2L2,8.452H13.005a9.326,9.326,0,0,1,7.872,4.35l1.771-1.769A12.9,12.9,0,0,0,12.324,5.871Z" transform="translate(-2 -2)" fill="#8cbe00"/>
  <path id="Trazado_688468" data-name="Trazado 688468" d="M37.227,15l-8.211-.129-.284.569A16.389,16.389,0,0,0,27,22.78V31.92c.333-.541.645-1.1.936-1.678l.19-.379,8.5-13.355A4.265,4.265,0,0,0,37.227,15Z" transform="translate(5.262 1.739)" fill="#a0695f"/>
  <path id="Trazado_688469" data-name="Trazado 688469" d="M26.338,5.255a6.625,6.625,0,0,0,.07,11.544A36.228,36.228,0,0,0,44,21.357h3.878a20.335,20.335,0,0,0,9.093-2.147A13.244,13.244,0,0,0,64.3,7.365V4.581L62.6,6.274a3.03,3.03,0,0,1-2.143.888A11.068,11.068,0,0,1,55.5,5.99,37.819,37.819,0,0,0,38.593,2,24.7,24.7,0,0,0,26.337,5.255Z" transform="translate(4.1 -2)" fill="#212121"/>
  <path id="Trazado_688470" data-name="Trazado 688470" d="M59.878,7.162A11.068,11.068,0,0,1,54.921,5.99,37.819,37.819,0,0,0,38.012,2,24.7,24.7,0,0,0,25.84,5.211a6.609,6.609,0,0,0,2.568,9.006A36.228,36.228,0,0,0,46,18.776h3.878a20.335,20.335,0,0,0,9.093-2.147,13.114,13.114,0,0,0,2.051-1.3,13.429,13.429,0,0,0,.8-1.147,13.243,13.243,0,0,0,1.887-6.814V4.581L62.021,6.274a3.03,3.03,0,0,1-2.144.888Z" transform="translate(4.681 -2)" fill="#383838"/>
  <path id="Trazado_688471" data-name="Trazado 688471" d="M43.3,16.421a3.028,3.028,0,0,1-.49,1.665L34.262,31.519l-.219.439a19.68,19.68,0,0,1-11.4,9.885L14.9,59.91h6.452v12.9L11.266,71.473A10.7,10.7,0,0,1,2.916,56.542l9.408-21.151V34.371a17.389,17.389,0,0,1,7.741-14.465l4.958-6.931a5.01,5.01,0,0,1,4.078-2.1h2.323l.219-.374a4.57,4.57,0,0,1,3.91-2.207h1.9A3.148,3.148,0,0,1,40,7a2.011,2.011,0,0,1,2,2,1.956,1.956,0,0,1-.31,1.071l-1.587,2.542,1.794,1.2A3.119,3.119,0,0,1,43.3,16.421Z" transform="translate(-2 -0.548)" fill="#cf8c78"/>
  <path id="Trazado_688472" data-name="Trazado 688472" d="M42.605,14.485a3.069,3.069,0,0,0-.7-.668l-1.794-1.2L41.7,10.074A1.956,1.956,0,0,0,42.005,9a2.011,2.011,0,0,0-2-2A3.147,3.147,0,0,0,37.45,8.29h-1.9a4.569,4.569,0,0,0-3.91,2.206l-.22.375H29.1a5.01,5.01,0,0,0-4.078,2.1L20.067,19.9a17.391,17.391,0,0,0-7.743,14.466v1.019L2.916,56.542a10.7,10.7,0,0,0,8.349,14.931l10.092,1.342V59.91H12.324l7.743-18.067a19.68,19.68,0,0,0,11.4-9.885Z" transform="translate(-2 -0.548)" fill="#f1b8a0"/>
  <g id="Grupo_168055" data-name="Grupo 168055" transform="translate(16.993 7.743)">
    <path id="Trazado_688473" data-name="Trazado 688473" d="M17.315,28.037,15.168,26.6a12.518,12.518,0,0,1,7.187-5.152l.666,2.493a9.937,9.937,0,0,0-5.705,4.091Z" transform="translate(-15.168 -4.092)" fill="#cf8c78"/>
    <path id="Trazado_688474" data-name="Trazado 688474" d="M23.646,16.07l3.239-5.407L25.778,10h-1.5l-2.842,4.744Z" transform="translate(-13.348 -7.419)" fill="#cf8c78"/>
    <path id="Trazado_688475" data-name="Trazado 688475" d="M27.152,18.111l2.189,1.368,4.533-7.258-1.065-.712-1.1-.689Z" transform="translate(-11.687 -7.181)" fill="#cf8c78"/>
    <path id="Trazado_688476" data-name="Trazado 688476" d="M26.382,18.951l5.549-9.986a1.959,1.959,0,0,1,.129-.191L31.028,8H29.512l-5.386,9.7Z" transform="translate(-12.566 -8)" fill="#cf8c78"/>
    <path id="Trazado_688477" data-name="Trazado 688477" d="M22.871,30.194H20.29V24.476a1.852,1.852,0,0,0-.192-.816A10.444,10.444,0,0,1,19,19.014a3.012,3.012,0,0,1,5.42-1.807l1.032,1.372a13,13,0,0,1,2.581,7.743H25.452a10.4,10.4,0,0,0-2.065-6.194l-1.032-1.374a.448.448,0,0,0-.774.258,7.851,7.851,0,0,0,.826,3.5,4.448,4.448,0,0,1,.465,1.967Z" transform="translate(-14.055 -5.675)" fill="#cf8c78"/>
  </g>
</svg>
