<svg xmlns="http://www.w3.org/2000/svg" xmlns:xlink="http://www.w3.org/1999/xlink" width="202.773" height="184.651" viewBox="0 0 202.773 184.651">
  <defs>
    <clipPath id="clip-path">
      <path id="Trazado_715417" data-name="Trazado 715417" d="M139.431,165.738c4.512-5.523,8.478-11.936,14.341-16.352,5.84-4.4,13.942-6.353,20.216-10.242a85.794,85.794,0,0,0,13.551-10.126,37.729,37.729,0,0,1-8.224,8.994c-4.272,3.355-9.541,5.438-14.351,7.881a43.264,43.264,0,0,0-12.443,8.968c-6.928,7.468-13.1,15.675-22.126,20.766a54.462,54.462,0,0,1-5.869,2.859,50.7,50.7,0,0,0,14.9-12.749m48.951-95.3c-7.341-6.406-16.522-10.056-24.552-15.451-6.462-4.343-11.279-14.251-14.433-20.8-4.259-8.85-10.622-18.968-18.915-25.053a42.636,42.636,0,0,0-10.557-5.574c2.269.5,4.535,1.006,6.759,1.688a29.217,29.217,0,0,1,10.845,6.49,61.18,61.18,0,0,1,12.919,16.939c2.922,5.612,4.752,11.787,8.344,17.043,3.261,4.772,7.9,8.352,12.724,11.419,10.5,6.674,22.445,11.911,27.177,24.376,1.878,4.945,1.907,10.55,1.473,15.846-.158-10.089-3.825-19.973-11.785-26.919M98.242,0C76.1.017,52.226,9.558,41.731,24.676c-5.638,8.118-6.2,13.983-5.526,23.293.985,13.588-3.478,21.17-13.349,30.406C14.934,85.789,7.36,94.217,3.6,103.944q.334-1.245.752-2.472C6.7,94.6,11.148,88.511,15.888,83.1c4.286-4.9,9.462-9.027,13.151-14.431C36.86,57.2,31.6,43.254,35.394,30.731,39.5,17.2,54.185,11.174,66.1,6.373c.359-.144-.261-.332-.435-.276C53.681,9.927,40.25,16.184,34.643,28.212,32.061,33.747,32,40.1,31.917,46.078c-.115,8.041-.454,15.348-4.974,22.306-3.834,5.9-9.77,10.411-14.341,15.737A54.382,54.382,0,0,0,1.609,102.962c-3.224,10.262-1.507,23.4,4.286,33a95.744,95.744,0,0,0,7.759,14.025c16.439,24.956,50.062,33.477,78.229,34.578,8.97.35,16.817-.291,23.853-2.41a28.986,28.986,0,0,0,5.582-1.348c2.96-1.072,5.961-2.393,8.811-3.709,9.88-4.562,16.817-13.184,24.156-20.886,8.046-8.442,19.5-10.893,28.513-17.885a36.444,36.444,0,0,0,9.889-12.171A27.968,27.968,0,0,0,195.6,117.9q.842-1.736,1.537-3.545c5.778-8.757,6.888-21.369,4.353-31.155-3.281-12.669-15.422-19.047-25.8-25.177-5.689-3.36-11.058-7.2-15.019-12.564-3.925-5.319-6.131-11.844-9.216-17.652a63.666,63.666,0,0,0-12.873-16.377c-5.431-5-11.9-7-19.019-8.293-.6-.108-1.194-.212-1.79-.315a57.181,57.181,0,0,0-7.225-1.774A69.861,69.861,0,0,0,98.343,0Z" transform="translate(0 -0.004)" fill="#4db1f0"/>
    </clipPath>
    <filter id="Rectángulo_33844" x="155.604" y="104.768" width="40.469" height="27.557" filterUnits="userSpaceOnUse">
      <feOffset dy="3" input="SourceAlpha"/>
      <feGaussianBlur stdDeviation="3" result="blur"/>
      <feFlood flood-opacity="0.161"/>
      <feComposite operator="in" in2="blur"/>
      <feComposite in="SourceGraphic"/>
    </filter>
    <filter id="Trazado_113690" x="163.765" y="111.237" width="37.857" height="28.152" filterUnits="userSpaceOnUse">
      <feOffset dy="3" input="SourceAlpha"/>
      <feGaussianBlur stdDeviation="3" result="blur-2"/>
      <feFlood flood-opacity="0.161"/>
      <feComposite operator="in" in2="blur-2"/>
      <feComposite in="SourceGraphic"/>
    </filter>
    <filter id="Rectángulo_33844-2" x="7.696" y="8.894" width="40.469" height="27.557" filterUnits="userSpaceOnUse">
      <feOffset dy="3" input="SourceAlpha"/>
      <feGaussianBlur stdDeviation="3" result="blur-3"/>
      <feFlood flood-opacity="0.161"/>
      <feComposite operator="in" in2="blur-3"/>
      <feComposite in="SourceGraphic"/>
    </filter>
    <filter id="Trazado_113690-2" x="15.857" y="15.363" width="37.857" height="28.152" filterUnits="userSpaceOnUse">
      <feOffset dy="3" input="SourceAlpha"/>
      <feGaussianBlur stdDeviation="3" result="blur-4"/>
      <feFlood flood-opacity="0.161"/>
      <feComposite operator="in" in2="blur-4"/>
      <feComposite in="SourceGraphic"/>
    </filter>
    <filter id="Trazado_113638" x="62.438" y="8.251" width="60.085" height="60.085" filterUnits="userSpaceOnUse">
      <feOffset dy="3" input="SourceAlpha"/>
      <feGaussianBlur stdDeviation="3" result="blur-5"/>
      <feFlood flood-opacity="0.161"/>
      <feComposite operator="in" in2="blur-5"/>
      <feComposite in="SourceGraphic"/>
    </filter>
  </defs>
  <g id="Grupo_1010440" data-name="Grupo 1010440" transform="translate(8764.26 7426.023)">
    <g id="Grupo_1006820" data-name="Grupo 1006820" transform="translate(-9761.033 -10604.535)">
      <g id="Grupo_1006262" data-name="Grupo 1006262" transform="translate(996.774 3178.512)">
        <g id="Grupo_1006260" data-name="Grupo 1006260" transform="translate(0 0)" clip-path="url(#clip-path)">
          <rect id="Rectángulo_346887" data-name="Rectángulo 346887" width="205.641" height="184.911" transform="translate(-1.615 0)" fill="#4db1f0"/>
        </g>
      </g>
      <g id="Grupo_1006266" data-name="Grupo 1006266" transform="translate(1161.377 3286.168)">
        <g id="Grupo_1006264" data-name="Grupo 1006264" transform="translate(0 3.111)">
          <g transform="matrix(1, 0, 0, 1, -164.6, -110.77)" filter="url(#Rectángulo_33844)">
            <rect id="Rectángulo_33844-3" data-name="Rectángulo 33844" width="22.469" height="9.557" rx="3" transform="translate(164.6 110.77)" fill="#f9e8dc"/>
          </g>
          <g transform="matrix(1, 0, 0, 1, -164.6, -110.77)" filter="url(#Trazado_113690)">
            <path id="Trazado_113690-3" data-name="Trazado 113690" d="M2.542,10.152H17.315a2.542,2.542,0,0,0,2.542-2.542V2.542A2.542,2.542,0,0,0,17.315,0H2.542A2.542,2.542,0,0,0,0,2.542V7.609a2.542,2.542,0,0,0,2.542,2.542" transform="translate(172.76 117.24)" fill="#4db1f0"/>
          </g>
          <path id="Trazado_113691" data-name="Trazado 113691" d="M2.47,1.235A1.235,1.235,0,1,0,1.235,2.47,1.235,1.235,0,0,0,2.47,1.235" transform="translate(11.735 10.311)" fill="#fff"/>
          <path id="Trazado_113692" data-name="Trazado 113692" d="M2.47,1.235A1.235,1.235,0,1,0,1.235,2.47,1.235,1.235,0,0,0,2.47,1.235" transform="translate(16.855 10.311)" fill="#fff"/>
          <path id="Trazado_113693" data-name="Trazado 113693" d="M2.47,1.235A1.235,1.235,0,1,0,1.235,2.47,1.235,1.235,0,0,0,2.47,1.235" transform="translate(21.974 10.311)" fill="#fff"/>
        </g>
        <g id="Grupo_1006265" data-name="Grupo 1006265" transform="translate(17.53 0)">
          <path id="Trazado_113641" data-name="Trazado 113641" d="M1519.9,262.293a.651.651,0,1,1-.652-.651.652.652,0,0,1,.652.651" transform="translate(-1518.599 -261.642)" fill="#0098e8"/>
          <path id="Trazado_113642" data-name="Trazado 113642" d="M1571.577,262.293a.651.651,0,1,1-.651-.651.651.651,0,0,1,.651.651" transform="translate(-1567.408 -261.642)" fill="#0098e8"/>
          <path id="Trazado_113643" data-name="Trazado 113643" d="M1623.252,262.293a.652.652,0,1,1-.651-.651.651.651,0,0,1,.651.651" transform="translate(-1616.216 -261.642)" fill="#0098e8"/>
          <path id="Trazado_113644" data-name="Trazado 113644" d="M1674.927,262.293a.652.652,0,1,1-.651-.651.651.651,0,0,1,.651.651" transform="translate(-1665.024 -261.642)" fill="#0098e8"/>
          <path id="Trazado_113646" data-name="Trazado 113646" d="M1519.9,311.619a.651.651,0,1,1-.652-.651.652.652,0,0,1,.652.651" transform="translate(-1518.599 -308.232)" fill="#0098e8"/>
          <path id="Trazado_113647" data-name="Trazado 113647" d="M1571.577,311.619a.651.651,0,1,1-.651-.651.651.651,0,0,1,.651.651" transform="translate(-1567.408 -308.232)" fill="#0098e8"/>
          <path id="Trazado_113648" data-name="Trazado 113648" d="M1623.252,311.619a.652.652,0,1,1-.651-.651.651.651,0,0,1,.651.651" transform="translate(-1616.216 -308.232)" fill="#0098e8"/>
          <path id="Trazado_113649" data-name="Trazado 113649" d="M1674.927,311.619a.652.652,0,1,1-.651-.651.651.651,0,0,1,.651.651" transform="translate(-1665.024 -308.232)" fill="#0098e8"/>
          <path id="Trazado_113651" data-name="Trazado 113651" d="M1519.9,360.945a.651.651,0,1,1-.652-.651.652.652,0,0,1,.652.651" transform="translate(-1518.599 -354.822)" fill="#0098e8"/>
          <path id="Trazado_113652" data-name="Trazado 113652" d="M1571.577,360.945a.651.651,0,1,1-.651-.651.651.651,0,0,1,.651.651" transform="translate(-1567.408 -354.822)" fill="#0098e8"/>
          <path id="Trazado_113653" data-name="Trazado 113653" d="M1623.252,360.945a.652.652,0,1,1-.651-.651.651.651,0,0,1,.651.651" transform="translate(-1616.216 -354.822)" fill="#0098e8"/>
          <path id="Trazado_113654" data-name="Trazado 113654" d="M1674.927,360.945a.652.652,0,1,1-.651-.651.651.651,0,0,1,.651.651" transform="translate(-1665.024 -354.822)" fill="#0098e8"/>
          <path id="Trazado_113656" data-name="Trazado 113656" d="M1519.9,410.272a.651.651,0,1,1-.652-.652.652.652,0,0,1,.652.652" transform="translate(-1518.599 -401.412)" fill="#0098e8"/>
          <path id="Trazado_113657" data-name="Trazado 113657" d="M1571.577,410.272a.651.651,0,1,1-.651-.652.651.651,0,0,1,.651.652" transform="translate(-1567.408 -401.412)" fill="#0098e8"/>
          <path id="Trazado_113658" data-name="Trazado 113658" d="M1623.252,410.272a.652.652,0,1,1-.651-.652.651.651,0,0,1,.651.652" transform="translate(-1616.216 -401.412)" fill="#0098e8"/>
          <path id="Trazado_113659" data-name="Trazado 113659" d="M1674.927,410.272a.652.652,0,1,1-.651-.652.651.651,0,0,1,.651.652" transform="translate(-1665.024 -401.412)" fill="#0098e8"/>
          <path id="Trazado_113661" data-name="Trazado 113661" d="M1519.9,459.6a.651.651,0,1,1-.652-.651.652.652,0,0,1,.652.651" transform="translate(-1518.599 -448.002)" fill="#0098e8"/>
          <path id="Trazado_113662" data-name="Trazado 113662" d="M1571.577,459.6a.651.651,0,1,1-.651-.651.651.651,0,0,1,.651.651" transform="translate(-1567.408 -448.002)" fill="#0098e8"/>
          <path id="Trazado_113663" data-name="Trazado 113663" d="M1623.252,459.6a.652.652,0,1,1-.651-.651.651.651,0,0,1,.651.651" transform="translate(-1616.216 -448.002)" fill="#0098e8"/>
          <path id="Trazado_113664" data-name="Trazado 113664" d="M1674.927,459.6a.652.652,0,1,1-.651-.651.651.651,0,0,1,.651.651" transform="translate(-1665.024 -448.002)" fill="#0098e8"/>
        </g>
      </g>
      <g id="Grupo_1006268" data-name="Grupo 1006268" transform="translate(1013.469 3190.294)">
        <g id="Grupo_1006264-2" data-name="Grupo 1006264" transform="translate(0 3.111)">
          <g transform="matrix(1, 0, 0, 1, -16.7, -14.89)" filter="url(#Rectángulo_33844-2)">
            <rect id="Rectángulo_33844-4" data-name="Rectángulo 33844" width="22.469" height="9.557" rx="3" transform="translate(16.7 14.89)" fill="#f9e8dc"/>
          </g>
          <g transform="matrix(1, 0, 0, 1, -16.7, -14.89)" filter="url(#Trazado_113690-2)">
            <path id="Trazado_113690-4" data-name="Trazado 113690" d="M2.542,10.152H17.315a2.542,2.542,0,0,0,2.542-2.542V2.542A2.542,2.542,0,0,0,17.315,0H2.542A2.542,2.542,0,0,0,0,2.542V7.609a2.542,2.542,0,0,0,2.542,2.542" transform="translate(24.86 21.36)" fill="#4db1f0"/>
          </g>
          <path id="Trazado_113691-2" data-name="Trazado 113691" d="M2.47,1.235A1.235,1.235,0,1,0,1.235,2.47,1.235,1.235,0,0,0,2.47,1.235" transform="translate(11.735 10.311)" fill="#fff"/>
          <path id="Trazado_113692-2" data-name="Trazado 113692" d="M2.47,1.235A1.235,1.235,0,1,0,1.235,2.47,1.235,1.235,0,0,0,2.47,1.235" transform="translate(16.855 10.311)" fill="#fff"/>
          <path id="Trazado_113693-2" data-name="Trazado 113693" d="M2.47,1.235A1.235,1.235,0,1,0,1.235,2.47,1.235,1.235,0,0,0,2.47,1.235" transform="translate(21.974 10.311)" fill="#fff"/>
        </g>
        <g id="Grupo_1006265-2" data-name="Grupo 1006265" transform="translate(17.53)">
          <path id="Trazado_113641-2" data-name="Trazado 113641" d="M1519.9,262.293a.651.651,0,1,1-.652-.651.652.652,0,0,1,.652.651" transform="translate(-1518.599 -261.642)" fill="#0098e8"/>
          <path id="Trazado_113642-2" data-name="Trazado 113642" d="M1571.577,262.293a.651.651,0,1,1-.651-.651.651.651,0,0,1,.651.651" transform="translate(-1567.408 -261.642)" fill="#0098e8"/>
          <path id="Trazado_113643-2" data-name="Trazado 113643" d="M1623.252,262.293a.652.652,0,1,1-.651-.651.651.651,0,0,1,.651.651" transform="translate(-1616.216 -261.642)" fill="#0098e8"/>
          <path id="Trazado_113644-2" data-name="Trazado 113644" d="M1674.927,262.293a.652.652,0,1,1-.651-.651.651.651,0,0,1,.651.651" transform="translate(-1665.024 -261.642)" fill="#0098e8"/>
          <path id="Trazado_113646-2" data-name="Trazado 113646" d="M1519.9,311.619a.651.651,0,1,1-.652-.651.652.652,0,0,1,.652.651" transform="translate(-1518.599 -308.232)" fill="#0098e8"/>
          <path id="Trazado_113647-2" data-name="Trazado 113647" d="M1571.577,311.619a.651.651,0,1,1-.651-.651.651.651,0,0,1,.651.651" transform="translate(-1567.408 -308.232)" fill="#0098e8"/>
          <path id="Trazado_113648-2" data-name="Trazado 113648" d="M1623.252,311.619a.652.652,0,1,1-.651-.651.651.651,0,0,1,.651.651" transform="translate(-1616.216 -308.232)" fill="#0098e8"/>
          <path id="Trazado_113649-2" data-name="Trazado 113649" d="M1674.927,311.619a.652.652,0,1,1-.651-.651.651.651,0,0,1,.651.651" transform="translate(-1665.024 -308.232)" fill="#0098e8"/>
          <path id="Trazado_113651-2" data-name="Trazado 113651" d="M1519.9,360.945a.651.651,0,1,1-.652-.651.652.652,0,0,1,.652.651" transform="translate(-1518.599 -354.822)" fill="#0098e8"/>
          <path id="Trazado_113652-2" data-name="Trazado 113652" d="M1571.577,360.945a.651.651,0,1,1-.651-.651.651.651,0,0,1,.651.651" transform="translate(-1567.408 -354.822)" fill="#0098e8"/>
          <path id="Trazado_113653-2" data-name="Trazado 113653" d="M1623.252,360.945a.652.652,0,1,1-.651-.651.651.651,0,0,1,.651.651" transform="translate(-1616.216 -354.822)" fill="#0098e8"/>
          <path id="Trazado_113654-2" data-name="Trazado 113654" d="M1674.927,360.945a.652.652,0,1,1-.651-.651.651.651,0,0,1,.651.651" transform="translate(-1665.024 -354.822)" fill="#0098e8"/>
          <path id="Trazado_113656-2" data-name="Trazado 113656" d="M1519.9,410.272a.651.651,0,1,1-.652-.652.652.652,0,0,1,.652.652" transform="translate(-1518.599 -401.412)" fill="#0098e8"/>
          <path id="Trazado_113657-2" data-name="Trazado 113657" d="M1571.577,410.272a.651.651,0,1,1-.651-.652.651.651,0,0,1,.651.652" transform="translate(-1567.408 -401.412)" fill="#0098e8"/>
          <path id="Trazado_113658-2" data-name="Trazado 113658" d="M1623.252,410.272a.652.652,0,1,1-.651-.652.651.651,0,0,1,.651.652" transform="translate(-1616.216 -401.412)" fill="#0098e8"/>
          <path id="Trazado_113659-2" data-name="Trazado 113659" d="M1674.927,410.272a.652.652,0,1,1-.651-.652.651.651,0,0,1,.651.652" transform="translate(-1665.024 -401.412)" fill="#0098e8"/>
          <path id="Trazado_113661-2" data-name="Trazado 113661" d="M1519.9,459.6a.651.651,0,1,1-.652-.651.652.652,0,0,1,.652.651" transform="translate(-1518.599 -448.002)" fill="#0098e8"/>
          <path id="Trazado_113662-2" data-name="Trazado 113662" d="M1571.577,459.6a.651.651,0,1,1-.651-.651.651.651,0,0,1,.651.651" transform="translate(-1567.408 -448.002)" fill="#0098e8"/>
          <path id="Trazado_113663-2" data-name="Trazado 113663" d="M1623.252,459.6a.652.652,0,1,1-.651-.651.651.651,0,0,1,.651.651" transform="translate(-1616.216 -448.002)" fill="#0098e8"/>
          <path id="Trazado_113664-2" data-name="Trazado 113664" d="M1674.927,459.6a.652.652,0,1,1-.651-.651.651.651,0,0,1,.651.651" transform="translate(-1665.024 -448.002)" fill="#0098e8"/>
        </g>
      </g>
      <g id="Grupo_1006267" data-name="Grupo 1006267" transform="translate(1068.211 3192.763)">
        <g id="Grupo_1003557" data-name="Grupo 1003557" transform="translate(0 0)">
          <path id="Trazado_113637" data-name="Trazado 113637" d="M1040.61,464.667a26.186,26.186,0,1,0-26.186,26.186,26.186,26.186,0,0,0,26.186-26.186" transform="translate(-986.705 -438.48)" fill="#0098e8"/>
          <g transform="matrix(1, 0, 0, 1, -71.44, -14.25)" filter="url(#Trazado_113638)">
            <path id="Trazado_113638-2" data-name="Trazado 113638" d="M1105.412,534.612a21.043,21.043,0,1,0-21.043,21.043,21.043,21.043,0,0,0,21.043-21.043" transform="translate(-991.89 -499.32)" fill="#fff" opacity="0.5"/>
          </g>
        </g>
      </g>
    </g>
    <g id="_6736957" data-name="6736957" transform="translate(-8760.509 -7418.609)">
      <g id="Background_Complete" data-name="Background Complete" transform="translate(67.711 -0.003)">
        <g id="Grupo_1006745" data-name="Grupo 1006745" transform="translate(0 137.198)">
          <g id="Grupo_1006743" data-name="Grupo 1006743" transform="translate(0 19.762)">
            <path id="Trazado_717267" data-name="Trazado 717267" d="M177.84,411.48v15.458h47.539V411.48Z" transform="translate(-175.845 -407.161)" fill="#f5f5f5"/>
            <path id="Trazado_717268" data-name="Trazado 717268" d="M172.75,400.46v4.319h51.2V400.46h-51.2Z" transform="translate(-172.75 -400.46)" fill="#e0e0e0"/>
            <path id="Trazado_717269" data-name="Trazado 717269" d="M236.516,420.238h23.936V404.779h1.662V400.46H235.52v3.919Z" transform="translate(-210.918 -400.46)" fill="#e0e0e0"/>
            <rect id="Rectángulo_347113" data-name="Rectángulo 347113" width="9.642" height="2.328" transform="translate(8.646 6.816)" fill="#e0e0e0"/>
            <rect id="Rectángulo_347114" data-name="Rectángulo 347114" width="12.378" height="4.915" transform="translate(7.404 12.048)" fill="#fff"/>
          </g>
          <g id="Grupo_1006744" data-name="Grupo 1006744" transform="translate(3.771)">
            <path id="Trazado_717270" data-name="Trazado 717270" d="M186.88,361.07v15.458h47.539V361.07Z" transform="translate(-185.112 -356.747)" fill="#f5f5f5"/>
            <path id="Trazado_717271" data-name="Trazado 717271" d="M182.37,350.04v4.323h51.2V350.04h-51.2Z" transform="translate(-182.37 -350.04)" fill="#ebebeb"/>
            <path id="Trazado_717272" data-name="Trazado 717272" d="M245.556,369.821h24.163V354.363h1.435V350.04H244.56v3.923Z" transform="translate(-220.185 -350.04)" fill="#ebebeb"/>
            <rect id="Rectángulo_347115" data-name="Rectángulo 347115" width="9.642" height="2.328" transform="translate(8.415 6.816)" fill="#e0e0e0"/>
            <rect id="Rectángulo_347116" data-name="Rectángulo 347116" width="12.378" height="4.915" transform="translate(7.177 12.052)" fill="#fff"/>
          </g>
        </g>
        <g id="Grupo_1006749" data-name="Grupo 1006749" transform="translate(42.085 0)">
          <rect id="Rectángulo_347117" data-name="Rectángulo 347117" width="57.832" height="83.822" transform="translate(2.91 0.001)" fill="#e0e0e0"/>
          <rect id="Rectángulo_347118" data-name="Rectángulo 347118" width="57.832" height="83.822" transform="translate(0.014 0.001)" fill="#f5f5f5"/>
          <g id="Grupo_1006746" data-name="Grupo 1006746" transform="translate(7.041 8.922)">
            <rect id="Rectángulo_347119" data-name="Rectángulo 347119" width="43.459" height="65.667" transform="translate(0.157 0.161)" fill="#fff"/>
            <path id="Trazado_717273" data-name="Trazado 717273" d="M341.706,88.583s0-.11-.008-.321,0-.525-.008-.933c0-.827-.012-2.034-.016-3.6-.008-3.147-.024-7.733-.039-13.526-.016-11.578-.043-27.977-.071-47.284l.145.145-43.455.012h0l.157-.157c-.012,24.771-.023,47.61-.031,65.667l-.125-.125,31.634.067c3.774.016,6.726.024,8.74.031,1,.008,1.768.012,2.293.016s.792.012.792.012-.255.008-.768.012-1.282.008-2.269.016c-2.007.008-4.946.02-8.713.031l-31.712.067h-.125v-.125c-.008-18.053-.02-40.9-.031-65.667V22.76h.161l43.455.012h.145v.145c-.027,19.346-.055,35.777-.071,47.378-.016,5.781-.031,10.355-.039,13.495-.008,1.556-.012,2.755-.016,3.575,0,.4-.008.7-.008.913s-.008.306-.008.306Z" transform="translate(-298.09 -22.76)" fill="#e0e0e0"/>
          </g>
          <path id="Trazado_717274" data-name="Trazado 717274" d="M415.9,0a9.919,9.919,0,0,1-1.031,1.5c-.67.9-1.627,2.12-2.712,3.441s-2.1,2.493-2.857,3.324a9.724,9.724,0,0,1-1.274,1.3,11.166,11.166,0,0,1,1.105-1.442c.776-.941,1.728-2.1,2.783-3.379S413.922,2.3,414.7,1.358A10.8,10.8,0,0,1,415.906,0Z" transform="translate(-357.896 0.003)" fill="#e0e0e0"/>
          <g id="Grupo_1006747" data-name="Grupo 1006747" transform="translate(50.878 74.533)">
            <path id="Trazado_717275" data-name="Trazado 717275" d="M409.94,190.16a53.876,53.876,0,0,0,7.58,9.481" transform="translate(-409.937 -190.159)" fill="#fff"/>
            <path id="Trazado_717276" data-name="Trazado 717276" d="M417.516,199.64a8.781,8.781,0,0,1-1.321-1.2,42.178,42.178,0,0,1-2.861-3.226,41.427,41.427,0,0,1-2.516-3.5,8.715,8.715,0,0,1-.882-1.552A12.061,12.061,0,0,1,411,191.59c.639.894,1.532,2.12,2.579,3.426s2.042,2.45,2.775,3.269a11.794,11.794,0,0,1,1.16,1.356Z" transform="translate(-409.933 -190.158)" fill="#e0e0e0"/>
          </g>
          <g id="Grupo_1006748" data-name="Grupo 1006748" transform="translate(0 74.407)">
            <path id="Trazado_717277" data-name="Trazado 717277" d="M280.14,199.2q3.786-4.674,7.576-9.344" transform="translate(-280.134 -189.851)" fill="#fff"/>
            <path id="Trazado_717278" data-name="Trazado 717278" d="M287.7,189.842a57.255,57.255,0,0,1-3.665,4.77,56.474,56.474,0,0,1-3.912,4.574,57.651,57.651,0,0,1,3.665-4.774,58.806,58.806,0,0,1,3.908-4.574Z" transform="translate(-280.125 -189.837)" fill="#e0e0e0"/>
          </g>
          <path id="Trazado_717279" data-name="Trazado 717279" d="M280.156,0a52.6,52.6,0,0,1,3.676,4.394,51.848,51.848,0,0,1,3.43,4.59,52.612,52.612,0,0,1-3.676-4.394A51.214,51.214,0,0,1,280.156,0Z" transform="translate(-280.143 0.003)" fill="#e0e0e0"/>
          <rect id="Rectángulo_347120" data-name="Rectángulo 347120" width="14.553" height="41.319" transform="translate(22.566 22.413)" fill="#e0e0e0"/>
        </g>
      </g>
      <g id="Desk" transform="translate(4.185 176.77)">
        <path id="Trazado_717280" data-name="Trazado 717280" d="M182.609,451.112c0,.055-38.493.1-85.966.1s-85.973-.047-85.973-.1,38.485-.1,85.973-.1S182.609,451.057,182.609,451.112Z" transform="translate(-10.67 -451.01)" fill="#263238"/>
      </g>
      <g id="Book" transform="translate(9.706 2.352)">
        <g id="Grupo_1006760" data-name="Grupo 1006760">
          <path id="Trazado_717281" data-name="Trazado 717281" d="M25.764,252.982s6.671,5.613,7.764,5.526a11.18,11.18,0,0,1,2.25.1l-7.169-6.62-2.849.992Z" transform="translate(-25.367 -155.577)" fill="#112e4c"/>
          <path id="Trazado_717282" data-name="Trazado 717282" d="M112.612,119.983l-67.858-2.947a1.586,1.586,0,0,1-1.505-1.638c1.144-37.38,3-81.736,4.072-94.847a1.583,1.583,0,0,1,1.638-1.462l67.9,2.947a1.584,1.584,0,0,1,1.5,1.662l-4.115,94.757a1.585,1.585,0,0,1-1.642,1.525Z" transform="translate(-36.001 -13.96)" fill="#112e4c"/>
          <path id="Trazado_717283" data-name="Trazado 717283" d="M104.542,111.949,36.762,109.5l-5.342-4.088L34.638,8.33l70.205,4.79,3.469,3.888Z" transform="translate(-28.809 -7.419)" fill="#fff"/>
          <path id="Trazado_717284" data-name="Trazado 717284" d="M208.19,117.829l-6.31-5.644L207.352,18l4.609,4.888Z" transform="translate(-132.458 -13.299)" fill="#e0e0e0"/>
          <g id="Grupo_1006759" data-name="Grupo 1006759">
            <path id="Trazado_717285" data-name="Trazado 717285" d="M95.062,106.937l-68.779-2.987a1.594,1.594,0,0,1-1.525-1.638c1.141-37.38,2.994-81.736,4.072-94.847a1.59,1.59,0,0,1,1.658-1.458L99.319,9a1.6,1.6,0,0,1,1.525,1.662l-4.115,94.757a1.6,1.6,0,0,1-1.662,1.525Z" transform="translate(-24.758 -6.006)" fill="#005b8b"/>
            <path id="Trazado_717286" data-name="Trazado 717286" d="M39.816,105.844c-.055,0,.843-21.73,2.007-48.519S43.975,8.806,44.034,8.81s-.843,21.726-2.007,48.527-2.152,48.515-2.211,48.511Z" transform="translate(-33.913 -7.711)" fill="#263238"/>
            <g id="Grupo_1006750" data-name="Grupo 1006750" transform="translate(10.548 5.054)" opacity="0.3">
              <path id="Trazado_717287" data-name="Trazado 717287" d="M107.056,109.463,51.67,107.057,55.5,18.9l55.386,2.407-3.829,88.157Zm-53.752-3.9,52.25,2.269L109.247,22.8,57,20.534Z" transform="translate(-51.67 -18.9)"/>
            </g>
            <g id="Grupo_1006751" data-name="Grupo 1006751" transform="translate(32.038 86.184)" opacity="0.3">
              <rect id="Rectángulo_347121" data-name="Rectángulo 347121" width="11.574" height="3.245" transform="translate(0.141 0) rotate(2.49)"/>
            </g>
            <g id="Grupo_1006752" data-name="Grupo 1006752" transform="translate(39.769 11.215)" opacity="0.3">
              <rect id="Rectángulo_347122" data-name="Rectángulo 347122" width="5.393" height="3.245" transform="translate(0.141 0) rotate(2.49)"/>
            </g>
            <g id="Grupo_1006753" data-name="Grupo 1006753" transform="translate(20.427 25.151)" opacity="0.3">
              <rect id="Rectángulo_347123" data-name="Rectángulo 347123" width="40.645" height="14.49" transform="translate(0.63 0) rotate(2.49)"/>
            </g>
            <g id="Grupo_1006754" data-name="Grupo 1006754" transform="translate(24.574 43.786)" opacity="0.3">
              <rect id="Rectángulo_347124" data-name="Rectángulo 347124" width="29.933" height="6.103" transform="translate(0.265 0) rotate(2.49)"/>
            </g>
            <g id="Grupo_1006755" data-name="Grupo 1006755" transform="translate(3.081 13.608)" opacity="0.3">
              <rect id="Rectángulo_347125" data-name="Rectángulo 347125" width="4.162" height="2.622" transform="translate(0.114 0) rotate(2.49)"/>
            </g>
            <g id="Grupo_1006756" data-name="Grupo 1006756" transform="translate(2.906 17.653)" opacity="0.3">
              <rect id="Rectángulo_347126" data-name="Rectángulo 347126" width="4.162" height="2.622" transform="translate(0.114 0) rotate(2.49)"/>
            </g>
            <g id="Grupo_1006757" data-name="Grupo 1006757" transform="translate(0.167 87.694)" opacity="0.3">
              <rect id="Rectángulo_347127" data-name="Rectángulo 347127" width="3.853" height="2.622" transform="translate(0.114 0) rotate(2.49)"/>
            </g>
            <g id="Grupo_1006758" data-name="Grupo 1006758" transform="translate(0.626 27.509)" opacity="0.3">
              <rect id="Rectángulo_347128" data-name="Rectángulo 347128" width="4.162" height="45.097" transform="translate(1.959 0) rotate(2.49)"/>
            </g>
          </g>
          <path id="Trazado_717288" data-name="Trazado 717288" d="M110.919,26.28s0,.145-.008.423-.024.7-.043,1.239c-.043,1.094-.106,2.7-.188,4.766-.172,4.143-.419,10.128-.729,17.524-.635,14.8-1.513,35.236-2.481,57.808-.2,4.637-.4,9.179-.588,13.534v.1l-.106,0c-19.378-.854-36.431-1.607-48.648-2.148l-14.369-.655c-1.681-.082-2.983-.141-3.869-.184-.439-.024-.772-.039-1-.051s-.341-.024-.341-.024.114,0,.341,0l1,.035c.886.035,2.187.086,3.869.149,3.375.141,8.266.341,14.373.6l48.652,2.077-.106.1c.188-4.351.384-8.9.588-13.534.992-22.572,1.889-43.008,2.54-57.808.333-7.4.608-13.381.792-17.52.1-2.066.172-3.669.227-4.762.027-.541.051-.956.063-1.239s.027-.423.027-.423Z" transform="translate(-33.144 -18.334)" fill="#263238"/>
        </g>
      </g>
      <g id="Glasses" transform="translate(0.004 36.57)">
        <g id="Grupo_1006765" data-name="Grupo 1006765">
          <g id="Grupo_1006762" data-name="Grupo 1006762" transform="translate(0 15.102)">
            <path id="Trazado_717289" data-name="Trazado 717289" d="M8.5,149.508c.212.165,34.6-12.119,34.6-12.119l-1.058-3.159L8.276,143.257,6.43,146.137Z" transform="translate(-3.911 -133.293)" fill="#263238"/>
            <path id="Trazado_717290" data-name="Trazado 717290" d="M26.229,165.347c-.3.1-1.4.078-1.168-1.329s10.849-18.386,12.052-19.962a16.119,16.119,0,0,1,5.182-4.39c2.434-1.364,9.787-4.366,9.787-4.366l1.011,3.022s-7.282,2.046-10.606,4.249-4.237,3.916-7.133,9.023-4.531,11.2-5.985,12.7a3.384,3.384,0,0,1-3.143,1.05Z" transform="translate(-15.221 -133.944)" fill="#263238"/>
            <path id="Trazado_717291" data-name="Trazado 717291" d="M36.7,132.31a71.491,71.491,0,0,0-11.864.345c-4.7.623-13.263,3.288-21.051,8.156l-3.461,2.3a.655.655,0,0,0-.29.772L1.582,148.5a.662.662,0,0,0,.5.435,3.5,3.5,0,0,1,2.348,1.83c1.046,1.877,5.021,8.352,8.615,9.516s10.528-.6,13.659-1.642,9.771-3.684,11.355-7.7S39.8,142,39.8,139.495s.537-3.524,2.4-4.147l-1.172-3.508A28.51,28.51,0,0,1,36.7,132.31Zm.521,6.185c1.364,6.2.619,9.536-.341,11.578-1.242,2.63-3.014,4.825-10.383,7.263-7.612,2.52-12.182,1.881-13.9,1.023s-4.833-5.632-6.557-10.03.043-5.989,2.218-7.737c1.572-1.266,5.566-2.877,7.2-3.512.447-.172.905-.314,1.36-.466a62.082,62.082,0,0,1,8.642-2.281c2.109-.3,10.391-2.042,11.758,4.159Z" transform="translate(-0.004 -131.84)" fill="#263238"/>
            <path id="Trazado_717292" data-name="Trazado 717292" d="M45.4,141.595s-.027-.078-.071-.227a4.872,4.872,0,0,0-.219-.662,5.106,5.106,0,0,0-1.544-2.148,7.314,7.314,0,0,0-3.919-1.435,21,21,0,0,0-5.6.329,48.935,48.935,0,0,0-6.636,1.6c-1.18.349-2.383.749-3.614,1.18q-1.834.694-3.723,1.556c-.627.29-1.254.592-1.877.925a11.013,11.013,0,0,0-1.791,1.144,12.915,12.915,0,0,0-1.6,1.47,4.375,4.375,0,0,0-1.039,1.9,5.268,5.268,0,0,0-.024,2.215,11.059,11.059,0,0,0,.666,2.187,35.941,35.941,0,0,0,2.05,4.237,27.615,27.615,0,0,0,2.618,3.908,7,7,0,0,0,1.65,1.548,6.74,6.74,0,0,0,2.136.643,17.746,17.746,0,0,0,4.394.051,30.2,30.2,0,0,0,4.166-.733c1.34-.325,2.63-.713,3.865-1.141a35.118,35.118,0,0,0,3.535-1.4,17.893,17.893,0,0,0,3.069-1.756,9.186,9.186,0,0,0,2.262-2.32,11.637,11.637,0,0,0,1.305-2.653A12.3,12.3,0,0,0,46,149.43a20.259,20.259,0,0,0-.039-4.241c-.122-1.16-.282-2.058-.392-2.661-.055-.3-.1-.525-.129-.686s-.039-.235-.039-.235.024.078.059.231.086.388.149.686c.122.6.294,1.5.431,2.661a19.938,19.938,0,0,1,.074,4.264,12.127,12.127,0,0,1-.537,2.614,9.816,9.816,0,0,1-.553,1.352,10.678,10.678,0,0,1-.756,1.34,9.326,9.326,0,0,1-2.285,2.367,17.562,17.562,0,0,1-3.089,1.783,36.731,36.731,0,0,1-3.547,1.411c-1.239.431-2.532.827-3.88,1.156a30.334,30.334,0,0,1-4.19.745,17.978,17.978,0,0,1-4.445-.051,7,7,0,0,1-2.2-.662,7.19,7.19,0,0,1-1.709-1.6,27.568,27.568,0,0,1-2.638-3.935,35.736,35.736,0,0,1-2.062-4.26,11.174,11.174,0,0,1-.678-2.23,5.484,5.484,0,0,1,.027-2.3,4.472,4.472,0,0,1,.419-1.066,5.712,5.712,0,0,1,.666-.917,13.231,13.231,0,0,1,1.63-1.489,11.254,11.254,0,0,1,1.823-1.16c.627-.333,1.258-.639,1.889-.929q1.893-.858,3.735-1.552c1.242-.431,2.45-.831,3.633-1.176a48.274,48.274,0,0,1,6.659-1.576,21.122,21.122,0,0,1,5.636-.3,7.368,7.368,0,0,1,3.959,1.485,5.077,5.077,0,0,1,1.533,2.195,4.8,4.8,0,0,1,.2.674c.035.153.051.235.051.235Z" transform="translate(-8.17 -134.94)" fill="#fff"/>
            <g id="Grupo_1006761" data-name="Grupo 1006761" transform="translate(6.41 3.695)" opacity="0.3">
              <path id="Trazado_717293" data-name="Trazado 717293" d="M25.2,143.424c-.466.18-8.784,3.41-8.838,6.612s3.014,9.242,4.754,11.292,6.945,2.113,9.536,1.548,3.676-21.6,3.676-21.6-2.834-.267-9.128,2.152Z" transform="translate(-16.358 -141.268)" fill="#fff"/>
            </g>
            <path id="Trazado_717294" data-name="Trazado 717294" d="M65.456,138.6s-.208.118-.6.3c-.419.192-.976.443-1.646.749a54.988,54.988,0,0,0-5.3,2.693,17.017,17.017,0,0,0-2.63,1.924,13.754,13.754,0,0,0-1.779,1.975c-.447.615-.788,1.129-1.023,1.485a3.971,3.971,0,0,1-.38.545,3.918,3.918,0,0,1,.314-.588c.216-.368.537-.9.972-1.529a13.323,13.323,0,0,1,1.768-2.03,16.453,16.453,0,0,1,2.653-1.96,44.837,44.837,0,0,1,5.35-2.65c.7-.306,1.278-.529,1.674-.69A4.013,4.013,0,0,1,65.456,138.6Z" transform="translate(-31.68 -135.949)" fill="#455a64"/>
            <path id="Trazado_717295" data-name="Trazado 717295" d="M79.254,143.11a8.937,8.937,0,0,1-1.192.564c-.745.329-1.768.788-2.893,1.313s-2.132,1.019-2.861,1.376a9.832,9.832,0,0,1-1.2.553,7.846,7.846,0,0,1,1.133-.678c.713-.392,1.717-.905,2.842-1.431s2.164-.964,2.924-1.258a7.421,7.421,0,0,1,1.246-.431Z" transform="translate(-43.24 -138.693)" fill="#455a64"/>
          </g>
          <g id="Grupo_1006764" data-name="Grupo 1006764" transform="translate(39.867)">
            <path id="Trazado_717296" data-name="Trazado 717296" d="M145.059,101.993c-.071.259-34.93,11.135-34.93,11.135l-1.058-3.159,32.4-13.1,3.21,1.192.38,3.935Z" transform="translate(-106.189 -95.474)" fill="#263238"/>
            <path id="Trazado_717297" data-name="Trazado 717297" d="M151.014,133.648c.3-.1,1.164-.78.133-1.764s-19.727-8.16-21.635-8.693a16.129,16.129,0,0,0-6.781-.388c-2.763.376-10.441,2.4-10.441,2.4l1.011,3.022s7.047-2.748,11.029-2.987,5.738.58,11.127,2.916,10.359,6.22,12.417,6.545a3.39,3.39,0,0,0,3.143-1.05Z" transform="translate(-108.147 -111.13)" fill="#263238"/>
            <path id="Trazado_717298" data-name="Trazado 717298" d="M101.724,108.8l1.172,3.508c1.858-.623,2.9-.133,4.409,1.87s4.6,5.844,8.278,8.1,10.571.365,13.7-.682,9.732-3.81,11.9-6.906,1.45-10.653,1.156-12.785a3.508,3.508,0,0,1,.772-2.877.662.662,0,0,0,.137-.647l-1.544-4.621a.655.655,0,0,0-.7-.443l-4.147.247c-9.148.8-17.591,3.821-21.722,6.15a71.537,71.537,0,0,0-9.685,6.859,28.67,28.67,0,0,1-3.735,2.226Zm13.93-7.365a62.132,62.132,0,0,1,8.278-3.379c.455-.153.905-.314,1.368-.447,1.689-.478,5.848-1.591,7.866-1.529,2.787.086,5.158.3,6.424,4.848s1.654,10.234.8,11.954-4.123,4.978-11.719,7.545c-7.353,2.485-10.089,1.8-12.664.443-2-1.05-4.6-3.265-7.239-9.042S113.792,102.465,115.654,101.434Z" transform="translate(-101.72 -93.309)" fill="#263238"/>
            <path id="Trazado_717299" data-name="Trazado 717299" d="M125.639,105.612s-.067.043-.2.122-.349.192-.611.341c-.537.3-1.333.741-2.3,1.4a12.506,12.506,0,0,0-3.1,2.873,6.43,6.43,0,0,0-.651,1.1,5.1,5.1,0,0,0-.419,1.286,5.159,5.159,0,0,0,.31,2.889,29.816,29.816,0,0,0,1.454,2.928,23.389,23.389,0,0,0,1.944,2.959,13.781,13.781,0,0,0,2.677,2.661,10.744,10.744,0,0,0,1.693,1.011,9.736,9.736,0,0,0,1.9.709,10.98,10.98,0,0,0,4.182.157,27.532,27.532,0,0,0,4.3-.964,38.148,38.148,0,0,0,8.54-3.59,21.989,21.989,0,0,0,1.964-1.317,13.66,13.66,0,0,0,1.748-1.536,6.089,6.089,0,0,0,1.3-1.85,7.481,7.481,0,0,0,.345-2.207,27.686,27.686,0,0,0-.235-4.4,36.548,36.548,0,0,0-.764-4.162,10.421,10.421,0,0,0-1.489-3.688,4.329,4.329,0,0,0-1.391-1.266,5.269,5.269,0,0,0-1.744-.568,12.523,12.523,0,0,0-3.524-.043c-1.125.149-2.2.38-3.214.615s-1.979.49-2.885.741c-.9.278-1.74.549-2.524.823-1.568.545-2.9,1.062-3.986,1.5s-1.913.807-2.469,1.07l-.627.31c-.141.071-.216.1-.216.1s.067-.043.2-.121.345-.188.619-.325c.553-.274,1.376-.655,2.458-1.109s2.41-.976,3.978-1.536c.784-.278,1.63-.557,2.528-.839.905-.259,1.87-.513,2.889-.756s2.093-.474,3.226-.631a12.552,12.552,0,0,1,3.571.031,5.424,5.424,0,0,1,1.8.58,4.505,4.505,0,0,1,1.454,1.309,10.743,10.743,0,0,1,1.529,3.751,37.853,37.853,0,0,1,.772,4.186,27.545,27.545,0,0,1,.243,4.433,7.741,7.741,0,0,1-.353,2.273,6.288,6.288,0,0,1-1.34,1.917,14.625,14.625,0,0,1-1.772,1.56,23.047,23.047,0,0,1-1.983,1.333,38.551,38.551,0,0,1-8.591,3.606,27.754,27.754,0,0,1-4.335.964,11.126,11.126,0,0,1-4.253-.169,9.734,9.734,0,0,1-1.928-.729,10.987,10.987,0,0,1-1.721-1.031,13.684,13.684,0,0,1-2.7-2.7,23.537,23.537,0,0,1-1.948-2.987,29.3,29.3,0,0,1-1.45-2.955,5.27,5.27,0,0,1-.3-2.963,5.328,5.328,0,0,1,.435-1.313,6.486,6.486,0,0,1,.666-1.113,10.2,10.2,0,0,1,1.587-1.693,15.931,15.931,0,0,1,1.556-1.176,25.728,25.728,0,0,1,2.324-1.368c.27-.141.474-.247.623-.321s.216-.106.216-.106Z" transform="translate(-111.705 -97.487)" fill="#fff"/>
            <path id="Trazado_717300" data-name="Trazado 717300" d="M120.57,124.226s.223-.082.635-.2,1.007-.278,1.752-.455a45.308,45.308,0,0,1,5.871-1.1,16.343,16.343,0,0,1,3.3-.031,13.311,13.311,0,0,1,2.634.557c.729.243,1.3.47,1.7.635a3.922,3.922,0,0,1,.6.282,4.52,4.52,0,0,1-.631-.208c-.4-.145-.984-.349-1.709-.572a13.752,13.752,0,0,0-2.61-.51,16.91,16.91,0,0,0-3.257.047A54.775,54.775,0,0,0,123,123.713c-.717.161-1.313.294-1.764.392a4.557,4.557,0,0,1-.655.122Z" transform="translate(-113.182 -110.982)" fill="#455a64"/>
            <path id="Trazado_717301" data-name="Trazado 717301" d="M118.714,131.246a7.628,7.628,0,0,1,1.254-.4c.784-.219,1.877-.494,3.092-.753s2.324-.447,3.132-.564a7.536,7.536,0,0,1,1.313-.137,10.07,10.07,0,0,1-1.29.282c-.8.153-1.9.364-3.116.623s-2.309.51-3.1.694a9.371,9.371,0,0,1-1.29.267Z" transform="translate(-112.051 -115.242)" fill="#455a64"/>
            <g id="Grupo_1006763" data-name="Grupo 1006763" transform="translate(7.416 6.557)" opacity="0.3">
              <path id="Trazado_717302" data-name="Trazado 717302" d="M129.271,111.588c-1.65.482-6.4,2.881-7.839,5.17-.807,1.29-1.215,3.484-.145,4.95s3.5,5.64,6.6,7.616a10.5,10.5,0,0,0,8.6,1.066c1.634-.662-1.333-20.42-2.583-20.35a23.214,23.214,0,0,0-4.625,1.552Z" transform="translate(-120.641 -110.039)" fill="#fff"/>
            </g>
          </g>
        </g>
      </g>
      <g id="Plant" transform="translate(20.478 112.432)">
        <g id="Grupo_1006773" data-name="Grupo 1006773">
          <path id="Trazado_717303" data-name="Trazado 717303" d="M72.115,352.793a2.873,2.873,0,0,1,.2,1.258,4.131,4.131,0,0,1,.572-1.423c.1-.161.267-.337.451-.29s.247.282.255.474a3.069,3.069,0,0,1-.349,1.533,3.4,3.4,0,0,1,1.3-1,.315.315,0,0,1,.282-.023c.1.059.1.2.082.314a2.617,2.617,0,0,1-1.591,2.022l-.274.039a2.445,2.445,0,0,1-1.752-2.806c.043-.227.172-.49.4-.494C71.9,352.393,72.04,352.6,72.115,352.793Z" transform="translate(-63.798 -326.669)" fill="#005b8b"/>
          <g id="Grupo_1006772" data-name="Grupo 1006772" transform="translate(0.051)">
            <g id="Grupo_1006767" data-name="Grupo 1006767" transform="translate(4.021 28.424)">
              <path id="Trazado_717304" data-name="Trazado 717304" d="M74.986,369.363a7.924,7.924,0,0,0-2.606-1.05,10.733,10.733,0,0,0,.074-5.762,5.484,5.484,0,0,0-.972-2.073,2.838,2.838,0,0,0-1.96-1.093,2.758,2.758,0,0,0-2.175,1.007l-.96,2.226a8.268,8.268,0,0,0-.114.976,11.785,11.785,0,0,0,1.4,6.224,6.524,6.524,0,0,0-1.76,5.221H77.342a6.316,6.316,0,0,0-2.352-5.675Z" transform="translate(-64.592 -359.38)" fill="#455a64"/>
              <path id="Trazado_717305" data-name="Trazado 717305" d="M69.19,384.433a.806.806,0,0,1,.086-.125,2.935,2.935,0,0,1,.282-.329,5.257,5.257,0,0,1,1.266-.968,6.054,6.054,0,0,1,2.254-.721A5.458,5.458,0,0,1,78.2,384.5a6,6,0,0,1,1.023,2.132,5.17,5.17,0,0,1,.165,1.587,3.646,3.646,0,0,1-.043.431.479.479,0,0,1-.031.149,6.933,6.933,0,0,0-.208-2.132,6,6,0,0,0-1.035-2.066,5.382,5.382,0,0,0-4.978-2.144,5.923,5.923,0,0,0-2.211.67,6.853,6.853,0,0,0-1.693,1.313Z" transform="translate(-66.618 -373.286)" fill="#263238"/>
              <path id="Trazado_717306" data-name="Trazado 717306" d="M66.716,365.195a2.739,2.739,0,0,1-.02-.756,6.494,6.494,0,0,1,.31-1.807,3.731,3.731,0,0,1,.976-1.556,1.569,1.569,0,0,1,.643-.408c.016.027-.239.165-.56.494a4.04,4.04,0,0,0-.9,1.525,8.228,8.228,0,0,0-.349,1.76A3.86,3.86,0,0,1,66.716,365.195Z" transform="translate(-65.097 -360.162)" fill="#263238"/>
              <path id="Trazado_717307" data-name="Trazado 717307" d="M83.608,392.292a10.023,10.023,0,0,1,1.066-1.09,11.311,11.311,0,0,1,1.1-1.054,5.1,5.1,0,0,1-.98,1.18,5.219,5.219,0,0,1-1.188.968Z" transform="translate(-75.384 -378.087)" fill="#263238"/>
              <path id="Trazado_717308" data-name="Trazado 717308" d="M80.349,390.466a3.808,3.808,0,0,1,.184-1.133,3.857,3.857,0,0,1,.353-1.094,3.808,3.808,0,0,1-.184,1.133A3.857,3.857,0,0,1,80.349,390.466Z" transform="translate(-73.396 -376.928)" fill="#263238"/>
              <path id="Trazado_717309" data-name="Trazado 717309" d="M71.7,390.688a2.946,2.946,0,0,1,.651,1.035,2.992,2.992,0,0,1,.349,1.168,7.709,7.709,0,0,1-.506-1.1A7.988,7.988,0,0,1,71.7,390.688Z" transform="translate(-68.145 -378.416)" fill="#263238"/>
              <path id="Trazado_717310" data-name="Trazado 717310" d="M81.065,373.615a11.239,11.239,0,0,1,1.685-2.226,5.706,5.706,0,0,1-.772,1.164,6,6,0,0,1-.909,1.062Z" transform="translate(-73.837 -366.681)" fill="#263238"/>
              <path id="Trazado_717311" data-name="Trazado 717311" d="M79.006,363.672a8.288,8.288,0,0,1,.874-1.431,7.971,7.971,0,0,1,1.019-1.333,8.293,8.293,0,0,1-.874,1.431A7.976,7.976,0,0,1,79.006,363.672Z" transform="translate(-72.585 -360.309)" fill="#263238"/>
              <path id="Trazado_717312" data-name="Trazado 717312" d="M75.672,370.35a4.4,4.4,0,0,1,.165,1.211,4.161,4.161,0,0,1-.012,1.223,8.642,8.642,0,0,1-.149-2.434Z" transform="translate(-70.537 -366.05)" fill="#263238"/>
              <path id="Trazado_717313" data-name="Trazado 717313" d="M62.629,374.494a7.337,7.337,0,0,1,1.623.827,7.507,7.507,0,0,1,1.478,1.062,13.412,13.412,0,0,1-1.568-.913A13.848,13.848,0,0,1,62.629,374.494Z" transform="translate(-62.629 -368.568)" fill="#263238"/>
              <g id="Grupo_1006766" data-name="Grupo 1006766" transform="translate(3.14 8.534)" opacity="0.3">
                <path id="Trazado_717314" data-name="Trazado 717314" d="M71.616,381.618a4.017,4.017,0,0,1,1.854-.459,2.331,2.331,0,0,1,1.862.525v.023a6.918,6.918,0,0,0-4.692,1.466,1.864,1.864,0,0,1,.98-1.556Z" transform="translate(-70.64 -381.153)"/>
              </g>
            </g>
            <path id="Trazado_717315" data-name="Trazado 717315" d="M86.431,321.8a2.283,2.283,0,0,1,1-.039,3.322,3.322,0,0,1-1.058-.58c-.118-.094-.239-.239-.184-.38s.243-.165.4-.153a2.441,2.441,0,0,1,1.164.415,2.676,2.676,0,0,1-.662-1.109.248.248,0,0,1,.008-.223c.055-.071.165-.059.251-.035a2.069,2.069,0,0,1,1.431,1.435v.22a1.9,1.9,0,0,1-.956,1.011,1.951,1.951,0,0,1-1.4.094c-.172-.055-.368-.18-.349-.361C86.094,321.93,86.274,321.84,86.431,321.8Z" transform="translate(-72.865 -306.812)" fill="#005b8b"/>
            <path id="Trazado_717316" data-name="Trazado 717316" d="M144.545,287.239a2.284,2.284,0,0,1-.047,1,3.268,3.268,0,0,1,.666-1.007c.106-.11.259-.216.4-.153s.145.259.122.408a2.4,2.4,0,0,1-.513,1.125,2.684,2.684,0,0,1,1.16-.568.238.238,0,0,1,.219.027c.067.063.047.169.016.255a2.058,2.058,0,0,1-1.552,1.305l-.216-.012a1.925,1.925,0,0,1-.905-2.442c.071-.169.212-.353.388-.317.161.031.235.216.263.376Z" transform="translate(-107.934 -286.859)" fill="#005b8b"/>
            <path id="Trazado_717317" data-name="Trazado 717317" d="M95.117,320.057c.169.008.329.027.49.043.3-3.265-.694-6.577.306-9.7l-.133.169a7.4,7.4,0,0,1-3.582-.321,4.479,4.479,0,0,1-2.591-2.4,3.235,3.235,0,0,1,.553-3.39,3.813,3.813,0,0,1,4.539-.306,10.707,10.707,0,0,1,3.226,3.4,6,6,0,0,1,1.56-.9,18.185,18.185,0,0,1-3.594-7.063c-.545-2.865.525-6.259,3.187-7.459a5.924,5.924,0,0,1,6.7,1.8c.125.149.231.31.341.466l-.055-.153a4.135,4.135,0,0,1,2.156-2.269,3.5,3.5,0,0,1,3.092.149,3.053,3.053,0,0,1,1.521,2.653,3.4,3.4,0,0,1-1.968,2.826,5.341,5.341,0,0,1-3.39.314,10.3,10.3,0,0,1-.016,3.045,17.587,17.587,0,0,1-2.579,6.373,5.629,5.629,0,0,1,.929.768c2.054,2.148,2.183,5.6,1.109,8.372s-3.99,4.813-6.009,6.992h0a13.21,13.21,0,0,1,1.552,4.872,4.439,4.439,0,0,1,3.912-2.512,2.187,2.187,0,0,1,2.144,1.239,2.259,2.259,0,0,1-.69,2.113,5.611,5.611,0,0,1-5.174,1.517l-.024-.541a23.572,23.572,0,0,1-.09,3.723H89.5s-3.484-14.161,5.621-13.824Z" transform="translate(-74.551 -289.798)" fill="#455a64"/>
            <g id="Grupo_1006768" data-name="Grupo 1006768" transform="translate(0 44.083)">
              <rect id="Rectángulo_347129" data-name="Rectángulo 347129" width="30.85" height="5.468" transform="translate(30.85 5.468) rotate(180)" fill="#005b8b"/>
              <path id="Trazado_717318" data-name="Trazado 717318" d="M84.495,410.51,80.74,426.85H62.358L58.25,410.51Z" transform="translate(-55.945 -406.128)" fill="#004468"/>
              <path id="Trazado_717319" data-name="Trazado 717319" d="M52.42,413.13c0,.059,6.957.11,15.541.11s15.541-.047,15.541-.11-6.957-.11-15.541-.11S52.42,413.067,52.42,413.13Z" transform="translate(-52.4 -407.654)" fill="#005b8b"/>
            </g>
            <path id="Trazado_717320" data-name="Trazado 717320" d="M98.67,364.5s.059-.039.176-.1a3.793,3.793,0,0,1,.541-.231,5.226,5.226,0,0,1,2.148-.247,6.564,6.564,0,0,1,3.022,1.058,8.125,8.125,0,0,1,2.595,2.936,11.929,11.929,0,0,1,1.242,3.727,19.743,19.743,0,0,1,.208,3.2c0,.913-.035,1.65-.051,2.156-.012.239-.02.435-.023.584a1.207,1.207,0,0,1-.02.2.757.757,0,0,1-.016-.2c0-.153,0-.349-.008-.588v-2.156a21.178,21.178,0,0,0-.243-3.175A12.013,12.013,0,0,0,107,367.992a8.053,8.053,0,0,0-2.532-2.885,6.547,6.547,0,0,0-2.944-1.07,5.5,5.5,0,0,0-2.117.188c-.482.149-.733.29-.741.27Z" transform="translate(-80.523 -333.704)" fill="#263238"/>
            <path id="Trazado_717321" data-name="Trazado 717321" d="M105.648,336.456a1.15,1.15,0,0,1-.02-.153c0-.1-.023-.251-.02-.447a7.5,7.5,0,0,1,.192-1.63,7.646,7.646,0,0,1,.905-2.265,6.277,6.277,0,0,1,.874-1.156,5.154,5.154,0,0,1,2.673-1.529,5.927,5.927,0,0,1,1.446-.106,7.12,7.12,0,0,1,2.375.564,8.1,8.1,0,0,1,1.442.788,3.78,3.78,0,0,1,.357.267c.078.063.121.1.118.106a5.633,5.633,0,0,1-.513-.314,9.12,9.12,0,0,0-1.454-.729,7.239,7.239,0,0,0-2.336-.517,5.97,5.97,0,0,0-1.4.114,5.058,5.058,0,0,0-2.587,1.482,6.343,6.343,0,0,0-.862,1.121,7.828,7.828,0,0,0-.925,2.211,8.238,8.238,0,0,0-.243,1.607c-.02.384-.012.6-.027.6Z" transform="translate(-84.742 -312.583)" fill="#263238"/>
            <path id="Trazado_717322" data-name="Trazado 717322" d="M132.9,302.388a6.079,6.079,0,0,1-.11-1.047c-.024-.321-.059-.706-.129-1.125a5.619,5.619,0,0,0-.368-1.325,13.652,13.652,0,0,0-1.191-2.218c-.357-.541-.627-.835-.608-.854s.086.059.216.188a6.267,6.267,0,0,1,.494.6,11.085,11.085,0,0,1,1.25,2.222,5.214,5.214,0,0,1,.368,1.364,10.317,10.317,0,0,1,.094,1.144,6.318,6.318,0,0,1-.012,1.054Z" transform="translate(-99.87 -292.307)" fill="#263238"/>
            <path id="Trazado_717323" data-name="Trazado 717323" d="M132.327,387.366a3.584,3.584,0,0,1,.89.658,3.664,3.664,0,0,1,.776.788,7.107,7.107,0,0,1-1.666-1.446Z" transform="translate(-100.987 -347.971)" fill="#263238"/>
            <path id="Trazado_717324" data-name="Trazado 717324" d="M135.13,384.214a7.267,7.267,0,0,1,2.226-.219,7.267,7.267,0,0,1-2.226.219Z" transform="translate(-102.692 -345.905)" fill="#263238"/>
            <path id="Trazado_717325" data-name="Trazado 717325" d="M133.006,377.032a6.6,6.6,0,0,1,.619-.858,6.845,6.845,0,0,1,.623-.854,2.275,2.275,0,0,1-.482.956A2.312,2.312,0,0,1,133.006,377.032Z" transform="translate(-101.399 -340.647)" fill="#263238"/>
            <path id="Trazado_717326" data-name="Trazado 717326" d="M128.373,377.43a4.752,4.752,0,0,1-.2,1.262,4.638,4.638,0,0,1-.372,1.223,4.752,4.752,0,0,1,.2-1.262A4.637,4.637,0,0,1,128.373,377.43Z" transform="translate(-98.228 -341.931)" fill="#263238"/>
            <path id="Trazado_717327" data-name="Trazado 717327" d="M126.785,387.226c-.031-.035.172-.274.459-.529s.545-.439.576-.4-.172.274-.459.529S126.816,387.261,126.785,387.226Z" transform="translate(-97.616 -347.318)" fill="#263238"/>
            <path id="Trazado_717328" data-name="Trazado 717328" d="M115.225,384.482a2.433,2.433,0,0,1,.56-.709c.345-.357.651-.623.686-.588a2.43,2.43,0,0,1-.56.709C115.566,384.251,115.26,384.518,115.225,384.482Z" transform="translate(-90.587 -345.428)" fill="#263238"/>
            <path id="Trazado_717329" data-name="Trazado 717329" d="M112.712,373.325a2.678,2.678,0,0,1,.419-.851,2.6,2.6,0,0,1,.564-.756,2.677,2.677,0,0,1-.419.85A2.6,2.6,0,0,1,112.712,373.325Z" transform="translate(-89.058 -338.457)" fill="#263238"/>
            <path id="Trazado_717330" data-name="Trazado 717330" d="M105.239,367.13a3.5,3.5,0,0,1,.1,1.086,3.565,3.565,0,0,1-.071,1.09,3.5,3.5,0,0,1-.1-1.086A3.564,3.564,0,0,1,105.239,367.13Z" transform="translate(-84.473 -335.668)" fill="#263238"/>
            <path id="Trazado_717331" data-name="Trazado 717331" d="M89.895,370.068a8.05,8.05,0,0,1,.862,1.007,7.767,7.767,0,0,1,.823,1.035,5.964,5.964,0,0,1-1.685-2.042Z" transform="translate(-75.185 -337.454)" fill="#263238"/>
            <path id="Trazado_717332" data-name="Trazado 717332" d="M87.92,385.224a6.872,6.872,0,0,1,2.124.412,6.872,6.872,0,0,1-2.124-.412Z" transform="translate(-73.986 -346.66)" fill="#263238"/>
            <path id="Trazado_717333" data-name="Trazado 717333" d="M103.938,387.078a4.749,4.749,0,0,1,1.129-2.23,8.716,8.716,0,0,1-.56,1.117,8.213,8.213,0,0,1-.572,1.113Z" transform="translate(-83.722 -346.441)" fill="#263238"/>
            <path id="Trazado_717334" data-name="Trazado 717334" d="M98.432,380.53a2.361,2.361,0,0,1-.106-.878,2.308,2.308,0,0,1,.067-.882,2.361,2.361,0,0,1,.106.878A2.308,2.308,0,0,1,98.432,380.53Z" transform="translate(-80.312 -342.746)" fill="#263238"/>
            <path id="Trazado_717335" data-name="Trazado 717335" d="M115.837,393.512a1.974,1.974,0,0,1,.368-.921,1.946,1.946,0,0,1,.655-.745,5.245,5.245,0,0,1-.506.835A5.487,5.487,0,0,1,115.837,393.512Z" transform="translate(-90.956 -350.696)" fill="#263238"/>
            <path id="Trazado_717336" data-name="Trazado 717336" d="M96.334,394.413a5.443,5.443,0,0,1-.776-1.764,5.441,5.441,0,0,1,.776,1.764Z" transform="translate(-78.626 -351.184)" fill="#263238"/>
            <path id="Trazado_717337" data-name="Trazado 717337" d="M126,363.223a4.137,4.137,0,0,1,1.2-.047,4.347,4.347,0,0,1,1.192.125,4.138,4.138,0,0,1-1.2.047,4.275,4.275,0,0,1-1.188-.125Z" transform="translate(-97.141 -333.258)" fill="#263238"/>
            <path id="Trazado_717338" data-name="Trazado 717338" d="M132.638,349.319a12.562,12.562,0,0,1,2.395-1.693,6.319,6.319,0,0,1-1.148.921,6.174,6.174,0,0,1-1.246.776Z" transform="translate(-101.177 -323.806)" fill="#263238"/>
            <path id="Trazado_717339" data-name="Trazado 717339" d="M131.949,335.434a7.229,7.229,0,0,1,.937-.619,7.13,7.13,0,0,1,.933-.619,3.7,3.7,0,0,1-1.87,1.239Z" transform="translate(-100.758 -315.64)" fill="#263238"/>
            <path id="Trazado_717340" data-name="Trazado 717340" d="M124.494,327.947a11.541,11.541,0,0,1,.67-2.748,5.873,5.873,0,0,1-.251,1.4A6.01,6.01,0,0,1,124.494,327.947Z" transform="translate(-96.218 -310.172)" fill="#263238"/>
            <path id="Trazado_717341" data-name="Trazado 717341" d="M112.08,328.528a3.045,3.045,0,0,1,.568.839,2.988,2.988,0,0,1,.415.925,3.046,3.046,0,0,1-.568-.839A2.987,2.987,0,0,1,112.08,328.528Z" transform="translate(-88.673 -312.196)" fill="#263238"/>
            <path id="Trazado_717342" data-name="Trazado 717342" d="M101.372,353.134c.031-.039.588.388,1.317.835s1.356.76,1.337.8a6.453,6.453,0,0,1-2.657-1.642Z" transform="translate(-82.163 -327.155)" fill="#263238"/>
            <path id="Trazado_717343" data-name="Trazado 717343" d="M118.738,356.988a3.2,3.2,0,0,1,.835-.615,3.135,3.135,0,0,1,.929-.47,3.2,3.2,0,0,1-.835.615A3.138,3.138,0,0,1,118.738,356.988Z" transform="translate(-92.725 -328.838)" fill="#263238"/>
            <path id="Trazado_717344" data-name="Trazado 717344" d="M121.647,343.358c-.035-.039.4-.47.815-1.1s.635-1.2.682-1.188a2.9,2.9,0,0,1-.537,1.282,2.832,2.832,0,0,1-.96,1Z" transform="translate(-94.493 -319.822)" fill="#263238"/>
            <path id="Trazado_717345" data-name="Trazado 717345" d="M115.874,340.8a3.711,3.711,0,0,1-.035-1.117,3.65,3.65,0,0,1,.137-1.109,3.71,3.71,0,0,1,.035,1.117A3.652,3.652,0,0,1,115.874,340.8Z" transform="translate(-90.954 -318.302)" fill="#263238"/>
            <path id="Trazado_717346" data-name="Trazado 717346" d="M112.347,352.347a3.956,3.956,0,0,1-.219-1.129,3.843,3.843,0,0,1-.047-1.148,3.955,3.955,0,0,1,.219,1.129A3.844,3.844,0,0,1,112.347,352.347Z" transform="translate(-88.662 -325.295)" fill="#263238"/>
            <path id="Trazado_717347" data-name="Trazado 717347" d="M103.978,320.83a10.307,10.307,0,0,1,.365,1.278,9.562,9.562,0,0,1,.364,1.278,5.153,5.153,0,0,1-.725-2.552Z" transform="translate(-83.742 -307.515)" fill="#263238"/>
            <path id="Trazado_717348" data-name="Trazado 717348" d="M97.8,339a140.03,140.03,0,0,1,2-1.458,3.171,3.171,0,0,1-.9.862,3.1,3.1,0,0,1-1.1.592Z" transform="translate(-79.993 -317.678)" fill="#263238"/>
            <path id="Trazado_717349" data-name="Trazado 717349" d="M89.37,334.252a7.683,7.683,0,0,1,1.215-.247,7.937,7.937,0,0,1,1.219-.219,4.951,4.951,0,0,1-2.434.466Z" transform="translate(-74.868 -315.387)" fill="#263238"/>
            <path id="Trazado_717350" data-name="Trazado 717350" d="M97.567,327.981a1.8,1.8,0,0,1,.694.341c.357.227.627.447.6.486a1.805,1.805,0,0,1-.694-.341C97.81,328.239,97.54,328.02,97.567,327.981Z" transform="translate(-79.851 -311.859)" fill="#263238"/>
            <path id="Trazado_717351" data-name="Trazado 717351" d="M93.48,320.415a3.168,3.168,0,0,1,1.333,1.529,5.281,5.281,0,0,1-.67-.76,5.71,5.71,0,0,1-.658-.768Z" transform="translate(-77.367 -307.261)" fill="#263238"/>
            <path id="Trazado_717352" data-name="Trazado 717352" d="M87.9,327.617a6.391,6.391,0,0,1,1.125.278,6.1,6.1,0,0,1,1.113.321,4.474,4.474,0,0,1-2.234-.6Z" transform="translate(-73.974 -311.637)" fill="#263238"/>
            <path id="Trazado_717353" data-name="Trazado 717353" d="M126.526,313.274a16.41,16.41,0,0,1,.984-1.5,16.146,16.146,0,0,1,1-1.493,10.016,10.016,0,0,1-1.987,2.994Z" transform="translate(-97.46 -301.099)" fill="#263238"/>
            <path id="Trazado_717354" data-name="Trazado 717354" d="M124.018,305.113a9.645,9.645,0,0,1,.337-2.563,9.645,9.645,0,0,1-.337,2.563Z" transform="translate(-95.923 -296.4)" fill="#263238"/>
            <path id="Trazado_717355" data-name="Trazado 717355" d="M115.452,310.46c.051-.008.192.659.525,1.419s.717,1.325.674,1.356a3.559,3.559,0,0,1-.835-1.286,3.494,3.494,0,0,1-.365-1.485Z" transform="translate(-90.72 -301.209)" fill="#263238"/>
            <path id="Trazado_717356" data-name="Trazado 717356" d="M105.377,312.594c.039-.031.533.549,1.211,1.184s1.286,1.1,1.258,1.137a5.034,5.034,0,0,1-1.376-1.011,4.965,4.965,0,0,1-1.094-1.313Z" transform="translate(-84.6 -302.505)" fill="#263238"/>
            <path id="Trazado_717357" data-name="Trazado 717357" d="M109.267,294.29c.051-.008.2.721.474,1.6s.553,1.564.506,1.583a7.346,7.346,0,0,1-.984-3.179Z" transform="translate(-86.957 -291.377)" fill="#263238"/>
            <path id="Trazado_717358" data-name="Trazado 717358" d="M120.841,288.26a9.613,9.613,0,0,1,.157,2.567,9.611,9.611,0,0,1-.157-2.567Z" transform="translate(-93.981 -287.711)" fill="#263238"/>
            <path id="Trazado_717359" data-name="Trazado 717359" d="M144.88,303.727a5.175,5.175,0,0,1,.98.07,4.765,4.765,0,0,1,.976.09,2,2,0,0,1-.992.082A2.019,2.019,0,0,1,144.88,303.727Z" transform="translate(-108.621 -297.106)" fill="#263238"/>
            <path id="Trazado_717360" data-name="Trazado 717360" d="M144.169,295.413a14.208,14.208,0,0,1,2.771-1.47,14.216,14.216,0,0,1-2.771,1.47Z" transform="translate(-108.188 -291.164)" fill="#263238"/>
            <path id="Trazado_717361" data-name="Trazado 717361" d="M137.675,294.253a8.755,8.755,0,0,1,.741-2.363,8.755,8.755,0,0,1-.741,2.363Z" transform="translate(-104.234 -289.918)" fill="#263238"/>
            <g id="Grupo_1006769" data-name="Grupo 1006769" transform="translate(20.985 29.914)" opacity="0.3">
              <path id="Trazado_717362" data-name="Trazado 717362" d="M111.248,366.951a4.06,4.06,0,0,0-1.736-3.19,3.869,3.869,0,0,0-3.6-.239,5.582,5.582,0,0,1,3.163,1.09,8.853,8.853,0,0,1,2.179,2.34" transform="translate(-105.91 -363.181)"/>
            </g>
            <g id="Grupo_1006770" data-name="Grupo 1006770" transform="translate(24.92 15.806)" opacity="0.3">
              <path id="Trazado_717363" data-name="Trazado 717363" d="M121.375,329.155a3.52,3.52,0,0,0-2.481-1.932,3.349,3.349,0,0,0-2.944,1.054,4.848,4.848,0,0,1,2.889-.227,7.651,7.651,0,0,1,2.54,1.105" transform="translate(-115.95 -327.185)"/>
            </g>
            <g id="Grupo_1006771" data-name="Grupo 1006771" transform="translate(31.458 4.531)" opacity="0.3">
              <path id="Trazado_717364" data-name="Trazado 717364" d="M134.178,302.2a2.784,2.784,0,0,0,.169-2.4,2.354,2.354,0,0,0-1.717-1.38,7.266,7.266,0,0,1,1.525,3.829" transform="translate(-132.63 -298.42)"/>
            </g>
            <path id="Trazado_717365" data-name="Trazado 717365" d="M90.7,367.34a4.517,4.517,0,0,0-.353.38,6.758,6.758,0,0,0-.788,1.156,12.658,12.658,0,0,0-1.133,4.464,20.2,20.2,0,0,0,.231,4.633c.09.588.18,1.062.243,1.391a2.826,2.826,0,0,1,.078.513,2.871,2.871,0,0,1-.153-.5c-.082-.325-.192-.8-.3-1.384a18.464,18.464,0,0,1-.286-4.668,11.842,11.842,0,0,1,1.2-4.515,5.919,5.919,0,0,1,.851-1.141,1.365,1.365,0,0,1,.408-.329Z" transform="translate(-74.153 -335.796)" fill="#263238"/>
          </g>
          <path id="Trazado_717366" data-name="Trazado 717366" d="M83.141,399.19a.431.431,0,0,1-.094.008c-.071,0-.161,0-.274.008-.255,0-.608.008-1.058.016-.933.008-2.258.016-3.892.027-3.3.008-7.831.016-12.84.024-4.939-.008-9.415-.02-12.687-.024l.063-.063c-.008,1.681-.012,3.045-.016,4.006,0,.463-.012.827-.012,1.09,0,.118,0,.208-.008.282a.283.283,0,0,1-.008.1.264.264,0,0,1-.008-.1c0-.075,0-.169-.008-.282,0-.263-.012-.627-.02-1.09-.008-.96-.024-2.324-.039-4.006v-.063H52.3c3.273-.008,7.749-.016,12.687-.023,5.009.012,9.544.02,12.84.023,1.634.012,2.959.02,3.892.027.451.008.8.012,1.058.016.114,0,.2.008.274.008a.431.431,0,0,1,.094.008Z" transform="translate(-52.24 -355.107)" fill="#263238"/>
        </g>
      </g>
      <g id="Character" transform="translate(65 24.865)">
        <g id="Grupo_1006792" data-name="Grupo 1006792">
          <g id="Grupo_1006774" data-name="Grupo 1006774" transform="translate(33.824 67.225)">
            <path id="Trazado_717367" data-name="Trazado 717367" d="M252.13,427.173h56.66l-5.276-15.533-43.42,2.254Z" transform="translate(-252.13 -342.391)" fill="#263238"/>
            <path id="Trazado_717368" data-name="Trazado 717368" d="M275.909,306.78l33.112-1.235,11.758-65.839-10.626-4.574s-4.409,2.473-12.578,2.512c-8.015.039-7.874-2.685-7.874-2.685l-7.028,7.568s-8.65,24.61-8.784,25.108S275.909,306.78,275.909,306.78Z" transform="translate(-265.358 -234.96)" fill="#fff"/>
          </g>
          <path id="Trazado_717369" data-name="Trazado 717369" d="M350.4,232.333s16.309,3.371,16.45,6.091-6.977,19.558-7.114,20-6.408,24.5-6.408,24.5l9.4,32.355H333.41s2.089-30.517,4.456-44.623,2.916-18.829,3.818-24.4c.361-2.238,2.187-9.916,3.32-14.6a10.405,10.405,0,0,0,.172-4.037l1.391.529,3.833,4.2Z" transform="translate(-267.729 -163.265)" fill="#455a64"/>
          <path id="Trazado_717370" data-name="Trazado 717370" d="M240.358,343.78c-.157.235-3.136,11.049-3.625,14.181-.415,2.657-1.078,6.973,1.744,10.971s5.73,3.528,8.544,2.508,5.871-6.894,6.42-10.265S250.8,342.98,250.8,342.98l-10.441.8Z" transform="translate(-208.714 -233.417)" fill="#455a64"/>
          <path id="Trazado_717371" data-name="Trazado 717371" d="M272.545,229.594l-3.633,5.123s-12.1,1.56-14.886,3.6-8.415,38.666-8.415,38.666l11.261,6.267-8.7,33.229h10.908s2.7-14,2.454-24.066a105.881,105.881,0,0,1,4.7-32.79c3.2-9.65,6.275-26.378,6.275-26.378l.035-3.653Z" transform="translate(-214.342 -164.469)" fill="#455a64"/>
          <g id="Grupo_1006775" data-name="Grupo 1006775" transform="translate(71.65 128.929)" opacity="0.3">
            <path id="Trazado_717372" data-name="Trazado 717372" d="M368.143,403.235l-19.5-10.845a17.121,17.121,0,0,0,7.294,11.2,16.889,16.889,0,0,0,13.111,2.069q-.453-1.211-.9-2.422Z" transform="translate(-348.64 -392.39)"/>
          </g>
          <path id="Trazado_717373" data-name="Trazado 717373" d="M243.454,367.367c.008.035-.462.106-1.156.408a5.834,5.834,0,0,0-3.48,4.405c-.129.741-.09,1.215-.129,1.219a1.019,1.019,0,0,1-.051-.329,4.836,4.836,0,0,1,.035-.909,5.6,5.6,0,0,1,3.571-4.519,4.366,4.366,0,0,1,.878-.243.977.977,0,0,1,.333-.027Z" transform="translate(-210.097 -248.244)" fill="#263238"/>
          <path id="Trazado_717374" data-name="Trazado 717374" d="M246.783,377.016s3.1-.984,4.21-2.238a9.276,9.276,0,0,0,2.058-4.362c.141-1.866.839-11.664.839-11.664l-8.156-.541-5.013,9.618a7.981,7.981,0,0,0,1.423,7.286A4.993,4.993,0,0,0,246.783,377.016Z" transform="translate(-211.165 -242.677)" fill="#ffbf9d"/>
          <path id="Trazado_717375" data-name="Trazado 717375" d="M275.277,380.672c-.031-.008.051-.435.114-1.129a12.806,12.806,0,0,0-.039-2.716,13.02,13.02,0,0,0-.623-2.642c-.231-.658-.415-1.05-.384-1.066.012-.008.071.086.165.259a6.989,6.989,0,0,1,.353.756,10.7,10.7,0,0,1,.694,2.669,10.41,10.41,0,0,1-.02,2.755,7.531,7.531,0,0,1-.157.819c-.051.192-.082.294-.1.29Z" transform="translate(-231.812 -251.743)" fill="#263238"/>
          <path id="Trazado_717376" data-name="Trazado 717376" d="M266.326,392.87s.012.169,0,.47a4.5,4.5,0,0,1-.047.549c-.031.212-.051.459-.114.721a10.7,10.7,0,0,1-.533,1.823,12.546,12.546,0,0,1-1.066,2.07,12.255,12.255,0,0,1-1.47,1.8,10.792,10.792,0,0,1-1.458,1.215c-.216.161-.431.278-.615.392a4.135,4.135,0,0,1-.482.263,2.057,2.057,0,0,1-.431.188c-.02-.035.584-.325,1.442-.956a11.882,11.882,0,0,0,1.411-1.231,13.123,13.123,0,0,0,1.435-1.783,12.635,12.635,0,0,0,1.062-2.026,11.866,11.866,0,0,0,.564-1.783c.239-1.043.263-1.709.3-1.7Z" transform="translate(-223.158 -263.752)" fill="#263238"/>
          <g id="Grupo_1006784" data-name="Grupo 1006784" transform="translate(0 65.777)">
            <g id="Grupo_1006776" data-name="Grupo 1006776" transform="translate(2.597)">
              <path id="Trazado_717377" data-name="Trazado 717377" d="M176,231.5a5.281,5.281,0,0,0-3.43,2.015L190.8,259.381l22.76-2.606-.368-23.274s-1.544-2.242-3.041-1.991c-.6.1-19.852,3.108-21.557,7.819,0,0,.2-2.407-1.4-3.61S176,231.5,176,231.5Z" transform="translate(-172.527 -231.402)" fill="#fff"/>
              <path id="Trazado_717378" data-name="Trazado 717378" d="M175.933,231.365s.09.024.267.074.439.137.78.239c.686.216,1.7.541,3,.976s2.9.988,4.735,1.709c.459.184.929.38,1.411.6a3.837,3.837,0,0,1,2.469,4.229l-.133-.027a4.857,4.857,0,0,1,1.881-2.054,16.6,16.6,0,0,1,2.646-1.4,46.278,46.278,0,0,1,6.185-2.1c2.211-.608,4.55-1.144,7-1.631,1.223-.243,2.473-.474,3.751-.682a1.922,1.922,0,0,1,1.007.067,3.408,3.408,0,0,1,.882.49,6.982,6.982,0,0,1,1.391,1.45l.016.024v.031c.1,6,.2,12.542.314,19.335.02,1.325.043,2.638.063,3.939v.094l-.09.012c-8.125.929-15.819,1.807-22.76,2.6l-.055.008-.031-.043c-8.411-11.978-14.98-21.338-18.182-25.9l-.016-.02.016-.02a4.507,4.507,0,0,1,1.305-1.215,5.908,5.908,0,0,1,1.152-.557,4.958,4.958,0,0,1,.745-.2,1.045,1.045,0,0,1,.255-.024,2.517,2.517,0,0,0-.255.043,4.771,4.771,0,0,0-.733.219,6.1,6.1,0,0,0-1.137.568,4.411,4.411,0,0,0-1.278,1.207v-.039c3.218,4.547,9.822,13.883,18.276,25.829l-.086-.039c6.941-.8,14.635-1.681,22.76-2.618l-.09.1c-.02-1.3-.043-2.614-.063-3.939-.106-6.792-.208-13.334-.3-19.335l.016.055a6.745,6.745,0,0,0-1.344-1.407,3.254,3.254,0,0,0-.827-.462,1.72,1.72,0,0,0-.913-.059c-1.274.208-2.524.435-3.747.674-2.446.482-4.786,1.015-6.992,1.615a46.362,46.362,0,0,0-6.165,2.073,16.646,16.646,0,0,0-2.626,1.384,4.716,4.716,0,0,0-1.834,1.979l-.149.361.016-.392a3.718,3.718,0,0,0-2.383-4.115c-.478-.223-.945-.419-1.4-.608-1.826-.729-3.422-1.286-4.719-1.736l-2.987-1.011-.772-.259c-.172-.059-.263-.094-.263-.094Z" transform="translate(-172.46 -231.266)" fill="#263238"/>
            </g>
            <g id="Grupo_1006777" data-name="Grupo 1006777" transform="translate(0 1.37)">
              <path id="Trazado_717379" data-name="Trazado 717379" d="M183.223,265.108,166.15,236.1a.745.745,0,0,1,.082-.87h0a.744.744,0,0,1,.839-.2l13.456,5.366a1.785,1.785,0,0,1,.67.466h0a1.806,1.806,0,0,1,.419,1.6l-.2.9,4.711,1.2.1-.263a3.468,3.468,0,0,1,2.175-2.046l21.683-6.906a2,2,0,0,1,2.383.988l15.368,29.682-.5,1.4-24.473,5.8h-4.3l-15.341-8.105Z" transform="translate(-165.963 -234.89)" fill="#ffa031"/>
              <path id="Trazado_717380" data-name="Trazado 717380" d="M183.094,264.98s.094.043.267.133l.78.4c.69.361,1.7.89,3.018,1.576,2.63,1.384,6.467,3.4,11.3,5.938l-.027-.008c1.348,0,2.791,0,4.3-.008h-.016c6.792-1.615,15.117-3.594,24.469-5.82l-.067.059c.153-.431.325-.917.5-1.4v.075c-2.493-4.821-5.158-9.967-7.949-15.349q-2.093-4.039-4.268-8.243l-2.195-4.237-.553-1.07-.278-.537a3.54,3.54,0,0,0-.294-.509,1.905,1.905,0,0,0-2.058-.682c-4.358,1.388-8.638,2.748-12.8,4.076l-6.161,1.96c-1.007.325-2.026.631-3,.964a3.431,3.431,0,0,0-1.975,2.16l-.027.082-.09-.024q-2.4-.611-4.711-1.2l-.09-.023.02-.09.161-.717a2.119,2.119,0,0,0,.074-.694,1.7,1.7,0,0,0-.623-1.184,1.951,1.951,0,0,0-.6-.325l-.666-.267c-.443-.176-.882-.353-1.321-.525q-2.622-1.046-5.135-2.05t-4.9-1.956c-.4-.161-.792-.317-1.188-.474a.677.677,0,0,0-.949.329.657.657,0,0,0,.016.537l.306.529c.208.353.415.706.619,1.054,3.277,5.585,6.161,10.5,8.552,14.577s4.276,7.306,5.57,9.52l1.478,2.54q.247.429.376.659l.125.227s-.047-.071-.137-.216-.219-.365-.388-.647c-.341-.576-.847-1.419-1.5-2.516-1.309-2.211-3.214-5.428-5.617-9.493s-5.3-8.983-8.6-14.569c-.208-.349-.412-.7-.623-1.054-.106-.18-.208-.349-.314-.541a.832.832,0,0,1-.02-.67.822.822,0,0,1,.49-.466.879.879,0,0,1,.67.047q.588.235,1.188.47c1.591.635,3.23,1.286,4.9,1.952s3.39,1.348,5.138,2.046c.439.172.878.349,1.321.525l.666.263a2.172,2.172,0,0,1,.655.353,1.9,1.9,0,0,1,.69,1.313,2.256,2.256,0,0,1-.078.749l-.157.717-.071-.114q2.316.588,4.711,1.2l-.114.059a3.642,3.642,0,0,1,2.085-2.273c1-.345,2-.643,3.01-.972q3.034-.964,6.158-1.964c4.166-1.329,8.446-2.689,12.8-4.08a2.109,2.109,0,0,1,2.277.753,3.267,3.267,0,0,1,.31.537l.278.537.553,1.07q1.105,2.134,2.191,4.237,2.175,4.2,4.268,8.247c2.787,5.385,5.448,10.532,7.941,15.356l.02.035-.012.039c-.176.486-.349.972-.5,1.4l-.016.047-.047.012c-9.356,2.207-17.685,4.174-24.477,5.777h-.016c-1.509,0-2.955,0-4.3-.008h-.016l-.012-.008c-4.829-2.567-8.662-4.6-11.288-6-1.305-.7-2.312-1.235-3-1.6-.337-.18-.592-.321-.768-.415s-.255-.145-.255-.145Z" transform="translate(-165.834 -234.762)" fill="#263238"/>
            </g>
            <g id="Grupo_1006778" data-name="Grupo 1006778" transform="translate(2.648 5.442)" opacity="0.3">
              <path id="Trazado_717381" data-name="Trazado 717381" d="M199.223,275.949,188.037,270.6,172.59,245.15l13.644,5.291-.286.729-11.492-4.456L188.585,270l10.978,5.248Z" transform="translate(-172.59 -245.15)"/>
            </g>
            <g id="Grupo_1006779" data-name="Grupo 1006779" transform="translate(24.244 5.748)" opacity="0.3">
              <path id="Trazado_717382" data-name="Trazado 717382" d="M241.765,278.007,227.69,252.6l20.742-6.675,13.514,26.17-20.185,5.907Zm-12.926-24.947,13.307,24.018,18.668-5.464L248.04,246.878l-19.2,6.177Z" transform="translate(-227.69 -245.93)"/>
            </g>
            <path id="Trazado_717383" data-name="Trazado 717383" d="M233.021,287.876c-.051.027-3.578-6.287-7.886-14.1s-7.757-14.177-7.706-14.2,3.578,6.287,7.886,14.1,7.757,14.173,7.706,14.2Z" transform="translate(-197.206 -248.476)" fill="#263238"/>
            <path id="Trazado_717384" data-name="Trazado 717384" d="M205.26,256.35s.067.094.18.286c.122.208.282.49.486.847.419.737,1.011,1.807,1.74,3.132,1.454,2.653,3.43,6.338,5.589,10.418s4.112,7.757,5.538,10.445c.7,1.321,1.278,2.4,1.681,3.163.188.361.341.651.451.862a1.817,1.817,0,0,1,.145.31,2.273,2.273,0,0,1-.18-.286c-.122-.208-.282-.49-.486-.847-.419-.737-1.011-1.807-1.74-3.132-1.454-2.653-3.43-6.338-5.589-10.418s-4.111-7.757-5.534-10.441c-.7-1.321-1.278-2.4-1.681-3.163-.188-.361-.341-.651-.451-.862a1.821,1.821,0,0,1-.145-.31Z" transform="translate(-189.807 -246.518)" fill="#263238"/>
            <path id="Trazado_717385" data-name="Trazado 717385" d="M211.983,253.974a3.558,3.558,0,0,1,.172-1.176,3.414,3.414,0,0,1,.372-1.129,3.558,3.558,0,0,1-.173,1.176A3.413,3.413,0,0,1,211.983,253.974Z" transform="translate(-193.884 -243.672)" fill="#263238"/>
            <g id="Grupo_1006780" data-name="Grupo 1006780" transform="translate(20.697 18.141)" opacity="0.3">
              <path id="Trazado_717386" data-name="Trazado 717386" d="M218.64,277.55l8.313,15.4,2.893.419-8.266-15.286Z" transform="translate(-218.64 -277.55)"/>
            </g>
            <g id="Grupo_1006781" data-name="Grupo 1006781" transform="translate(17.742 14.033)" opacity="0.3">
              <path id="Trazado_717387" data-name="Trazado 717387" d="M211.1,267.07l4.605.921,1.011,1.674L212,268.736l-.823-1.419" transform="translate(-211.1 -267.07)"/>
            </g>
            <g id="Grupo_1006782" data-name="Grupo 1006782" transform="translate(33.357 10.302)" opacity="0.3">
              <path id="Trazado_717388" data-name="Trazado 717388" d="M251.751,261.254l-.811-1.877,5.154-1.827.9,1.85Z" transform="translate(-250.94 -257.55)"/>
            </g>
            <g id="Grupo_1006783" data-name="Grupo 1006783" transform="translate(30.966 12.763)" opacity="0.3">
              <path id="Trazado_717389" data-name="Trazado 717389" d="M247.7,274.6l-2.857-5.393,14.6-5.378,2.571,5.378Z" transform="translate(-244.84 -263.83)"/>
            </g>
          </g>
          <g id="Grupo_1006789" data-name="Grupo 1006789" transform="translate(43.411)">
            <g id="Grupo_1006786" data-name="Grupo 1006786" transform="translate(2.097)">
              <path id="Trazado_717390" data-name="Trazado 717390" d="M346.219,66.44a5.073,5.073,0,0,1,4.308-1.309,2.879,2.879,0,0,0,1.858.031,4.1,4.1,0,0,0,.933-.976,2.566,2.566,0,0,1,3.688.078,3.092,3.092,0,0,0,.69.753c1.2.7,2.657-1.529,3.841-.819a2.889,2.889,0,0,0-1.415,1.007,1.316,1.316,0,0,0,.07,1.623c1.094,1.062,3.085-1.1,4.319-.2.666.482.705,1.658,1.493,1.889a2.669,2.669,0,0,0,.949-.024,2.108,2.108,0,0,1,2.152,1.921c.047.913-.462,2,.188,2.638a1.983,1.983,0,0,0,1.611.31,5.457,5.457,0,0,1-.713,2.375,3.3,3.3,0,0,1,.89,4.5,7.027,7.027,0,0,1,1.811,2.042,2.461,2.461,0,0,1-.106,2.595,2.173,2.173,0,0,0-.372.5,1.276,1.276,0,0,0-.035.666,11.142,11.142,0,0,1,.4,2.567c-.067.866-.756,1.787-1.619,1.67-.2-.027-.419-.106-.6,0a.574.574,0,0,0-.227.384,5.852,5.852,0,0,0,.035,1.866A2.486,2.486,0,0,1,370,94.312a1.066,1.066,0,0,1-1.615.118c.2.976.4,1.956.6,2.932.118.58.2,1.282-.235,1.681-.576.525-1.544.043-1.924-.635s-.455-1.5-.858-2.164a4.666,4.666,0,0,1-.486-.815c-.082-.235-.1-.517-.286-.686-.372-.341-1,.172-.968.678a2.655,2.655,0,0,0,.706,1.313,1.287,1.287,0,0,1,.251,1.4c-.133.2-.365.329-.494.537-.447.717.6,1.482.682,2.32a2.041,2.041,0,0,1-.874,1.572c-.564.51-1.627.894-1.932.2a7.291,7.291,0,0,1-.129-.776,1.889,1.889,0,0,0-.564-.721,3.937,3.937,0,0,1-1.074-2c.6.823,1.227,1.9.725,2.787a4.142,4.142,0,0,1-.886.909c-.608.572-1.007,1.34-1.607,1.921a1.949,1.949,0,0,1-2.265.51,1.878,1.878,0,0,1-3.234,1.713,1.627,1.627,0,0,0-.49-.478,1.328,1.328,0,0,0-.733-.016,4.071,4.071,0,0,1-3.853-1.768c.255-.074.506-.153.76-.227a9.475,9.475,0,0,1-4.147-1.442,3.25,3.25,0,0,1-1.188-3.9c.3-.564.858-1.133.647-1.736a1.6,1.6,0,0,0-1.007-.8l-5.134-2.093a4.89,4.89,0,0,1-2.234-1.435,1.688,1.688,0,0,1,.247-2.375,4.79,4.79,0,0,0-1.717-2.046c-.843-.564-1.842-.847-2.712-1.372a2.745,2.745,0,0,1-1.525-2.442c.114-1.007,1.544-1.721,2.207-.952-.067-1.529-2.771-1.756-2.932-3.277-.129-1.239,1.474-1.8,2.328-2.7-.145-.435-.568-.729-.725-1.16-.329-.9.631-1.74,1.517-2.113s1.964-.737,2.218-1.662c.263-.949-.51-2.069.043-2.885a1.084,1.084,0,0,1,1.442-.286c.784-1.721,4.021-.239,5.064-1.819a.685.685,0,0,0,.133-.419.712.712,0,0,0-.153-.353,7.714,7.714,0,0,0-1.4-1.184,1.488,1.488,0,0,1-.6-1.611c.247-.56,1.333-.49,1.289.122a1.349,1.349,0,0,1,2.038.619,1.459,1.459,0,0,1,1.834-.078,4.249,4.249,0,0,1,1.231,1.552" transform="translate(-310.987 -63.443)" fill="#263238"/>
              <path id="Trazado_717391" data-name="Trazado 717391" d="M375.129,109.483a11.066,11.066,0,0,0-4.3-6.24,6.582,6.582,0,0,0-2.838-1.505,2.77,2.77,0,0,0-2.857,1.074l.1,1.807c-.3,2.861,1.854,5.327,2.842,8.027.431,1.176.768,2.583,1.9,3.108a2.711,2.711,0,0,0,1.924.031c2.458-.784,3.708-3.767,3.226-6.3Z" transform="translate(-332.524 -86.697)" fill="#455a64"/>
              <path id="Trazado_717392" data-name="Trazado 717392" d="M324.474,118.8a5.77,5.77,0,0,0-.439-7.384c1.066-1.313.709-3.359-.349-4.684a11.288,11.288,0,0,0-4.17-2.814,7.763,7.763,0,0,0-8.991-5.762c-1.979-2.975-6.252-3.48-9.693-2.516a9.168,9.168,0,0,1-2.552.529,14.971,14.971,0,0,1-1.9-.282c-3.484-.506-6.969,1.917-8.364,5.146a6.422,6.422,0,0,1-.756,1.5,8.815,8.815,0,0,1-1.736,1.36,5.563,5.563,0,0,0-2.175,4.1c-.07,1.352.345,2.795-.235,4.021a19.892,19.892,0,0,0-1.043,1.744c-.662,1.854,1.38,3.778.976,5.707-.082.392-.263.76-.376,1.144a3.447,3.447,0,0,0,.184,2.407,4.9,4.9,0,0,1,.741,1.736,5.533,5.533,0,0,1-.3,1.407c-.247,1.152,2.195,5.624,3.187,6.259l29.776.568a5.565,5.565,0,0,0,4.355-4.746,2.04,2.04,0,0,1,.29-1.094,2.4,2.4,0,0,1,.819-.521c1.928-1.011,2.187-3.641,2.007-5.809a2.62,2.62,0,0,1,.027-.909,3.3,3.3,0,0,1,.713-1.109Z" transform="translate(-281.94 -82.751)" fill="#263238"/>
              <g id="Grupo_1006785" data-name="Grupo 1006785" transform="translate(2.623 20.02)">
                <path id="Trazado_717393" data-name="Trazado 717393" d="M320.053,130.508a15.951,15.951,0,0,0-8.313-13.989,19.778,19.778,0,0,0-7.592-1.917,12.045,12.045,0,0,0-7.039,1.4c-1.646.368-7.717,5.816-8.09,11.79-.415,6.636-.659,14.753.129,19.707,1.587,9.955,9.219,11.218,9.219,11.218,0-.016-.345,7.89-.345,7.89l5.554,10.3L317.9,162.326l2.152-31.814Z" transform="translate(-288.631 -114.521)" fill="#ffbf9d"/>
                <path id="Trazado_717394" data-name="Trazado 717394" d="M320.973,191.838a2.094,2.094,0,0,0-.655-1.333,2.15,2.15,0,0,0-2.591-.29,2.875,2.875,0,0,0-1.235,2.634h0a2.609,2.609,0,0,0,1.807,1.184,3.5,3.5,0,0,0,.349.031,2.353,2.353,0,0,0,1.611-.537,2.089,2.089,0,0,0,.709-1.685Z" transform="translate(-305.566 -160.361)" fill="#ff9a6c"/>
                <path id="Trazado_717395" data-name="Trazado 717395" d="M295.3,169.3a1.28,1.28,0,0,0,1.231,1.29,1.222,1.222,0,0,0,1.317-1.152,1.28,1.28,0,0,0-1.231-1.289A1.22,1.22,0,0,0,295.3,169.3Z" transform="translate(-292.685 -147.127)" fill="#263238"/>
                <path id="Trazado_717396" data-name="Trazado 717396" d="M295.318,156.044c.157.169,1.125-.549,2.5-.549,1.372-.016,2.383.69,2.532.521.074-.074-.09-.376-.529-.694a3.512,3.512,0,0,0-2.026-.623,3.38,3.38,0,0,0-1.991.643C295.381,155.668,295.24,155.97,295.318,156.044Z" transform="translate(-292.685 -138.952)" fill="#263238"/>
                <path id="Trazado_717397" data-name="Trazado 717397" d="M310.456,168.044a9.1,9.1,0,0,0-2.23-.4c-.349-.035-.682-.106-.741-.345a1.765,1.765,0,0,1,.235-1.039q.494-1.276,1.035-2.673a46.349,46.349,0,0,0,2.328-6.988,46.208,46.208,0,0,0-2.885,6.785c-.345.937-.678,1.834-.992,2.689a2.018,2.018,0,0,0-.18,1.376.887.887,0,0,0,.576.513,2.54,2.54,0,0,0,.6.082,8.837,8.837,0,0,0,2.262,0Z" transform="translate(-299.776 -140.106)" fill="#263238"/>
                <path id="Trazado_717398" data-name="Trazado 717398" d="M313.243,221.753a25.338,25.338,0,0,0,13.33-3.563s-3.52,7.153-13.483,6.228Z" transform="translate(-303.503 -177.557)" fill="#ff9a6c"/>
                <path id="Trazado_717399" data-name="Trazado 717399" d="M319.413,188.214c-.223-.012-.227,1.478-1.5,2.536s-2.865.9-2.873,1.105c-.02.094.353.29,1.027.306a3.688,3.688,0,0,0,2.4-.839,3.235,3.235,0,0,0,1.164-2.128c.055-.623-.11-.992-.212-.984Z" transform="translate(-304.688 -159.328)" fill="#263238"/>
                <path id="Trazado_717400" data-name="Trazado 717400" d="M296.717,143.146c.231.337,1.282.11,2.512.212,1.231.063,2.25.423,2.516.122.121-.149-.016-.474-.439-.811a3.906,3.906,0,0,0-4.053-.267c-.463.278-.639.584-.537.749Z" transform="translate(-293.531 -131.204)" fill="#263238"/>
                <path id="Trazado_717401" data-name="Trazado 717401" d="M329.032,170.719a1.276,1.276,0,0,1-1.278,1.242,1.224,1.224,0,0,1-1.274-1.2,1.276,1.276,0,0,1,1.278-1.242A1.222,1.222,0,0,1,329.032,170.719Z" transform="translate(-311.645 -147.963)" fill="#263238"/>
                <path id="Trazado_717402" data-name="Trazado 717402" d="M335.5,157.25c-.165.161-1.105-.592-2.477-.639-1.372-.067-2.407.6-2.548.427-.071-.078.1-.372.553-.674a3.5,3.5,0,0,1,2.046-.549,3.355,3.355,0,0,1,1.964.713c.412.341.541.647.463.717Z" transform="translate(-314.066 -139.628)" fill="#263238"/>
                <path id="Trazado_717403" data-name="Trazado 717403" d="M336.2,145.364c-.282.3-1.329-.063-2.6-.122-1.27-.1-2.359.122-2.595-.212-.1-.161.078-.47.561-.745a4.164,4.164,0,0,1,4.19.27c.439.337.576.662.451.811Z" transform="translate(-314.381 -132.351)" fill="#263238"/>
                <path id="Trazado_717404" data-name="Trazado 717404" d="M364.61,175.189c0-.741.858-2.489,1.591-2.606,1.956-.306,5.479-.149,5.515,4.813.047,6.789-6.777,5.436-6.788,5.24-.012-.153-.318-4.892-.314-7.451Z" transform="translate(-334.83 -149.768)" fill="#ffbf9d"/>
                <path id="Trazado_717405" data-name="Trazado 717405" d="M370.14,183.691c.031-.024.118.082.317.172a1.185,1.185,0,0,0,.886.012,2.934,2.934,0,0,0,1.337-2.634,3.943,3.943,0,0,0-.341-1.689,1.369,1.369,0,0,0-.9-.9.6.6,0,0,0-.694.329c-.09.192-.047.325-.082.337-.02.016-.145-.114-.094-.392a.761.761,0,0,1,.263-.427.879.879,0,0,1,.651-.176,1.653,1.653,0,0,1,1.242,1.043,3.993,3.993,0,0,1,.423,1.889,3.071,3.071,0,0,1-1.7,2.944,1.252,1.252,0,0,1-1.082-.172c-.212-.165-.247-.317-.223-.329Z" transform="translate(-338.189 -153.311)" fill="#ff9a6c"/>
              </g>
              <path id="Trazado_717406" data-name="Trazado 717406" d="M285.67,122.846a3.954,3.954,0,0,0,2.164-3.637c.909.27,1.834-.9,2.363-1.685s1.18-1.184,1.141-2.132a1.1,1.1,0,0,1,.067-.553,1.144,1.144,0,0,1,.741-.431,4.543,4.543,0,0,0,2.994-3.159,9.614,9.614,0,0,0,4.652.768,3.68,3.68,0,0,0,6.224-.27,3.287,3.287,0,0,0,2.207,1.627,9.8,9.8,0,0,0,2.814.153,3.893,3.893,0,0,0,2.563,4.409c.243.074.521.149.631.376a.99.99,0,0,1-.106.756,3.06,3.06,0,0,0,2.054,3.9,2.285,2.285,0,0,0,.2,3.578c.247.149.568.329.529.615a.664.664,0,0,1-.149.29,4.412,4.412,0,0,0-1.07,2.242,1.638,1.638,0,0,0,1.344,1.815,2.16,2.16,0,0,0-.862,1.485c-.012.592.588,1.191,1.137.98a38.247,38.247,0,0,0,3.763-.956c1.921-2.606-.494-5.487-.682-8.721a21.035,21.035,0,0,0-2.932-9.172,15.443,15.443,0,0,0-2.41-3.273,20.407,20.407,0,0,0-3.731-2.748,18.854,18.854,0,0,0-5.444-2.6c-3.665-.866-7.47.466-10.884,2.042a15.915,15.915,0,0,0-3.688,2.175,14.472,14.472,0,0,0-3.108,4.057,17.975,17.975,0,0,0-2.458,6.949" transform="translate(-284.208 -89.462)" fill="#263238"/>
              <path id="Trazado_717407" data-name="Trazado 717407" d="M282.268,113.614a2.509,2.509,0,0,1,.368-.729c.145-.227.349-.49.541-.823a3.15,3.15,0,0,0,.38-1.266,9.754,9.754,0,0,0-.027-1.678,7.487,7.487,0,0,1,.055-2.015,5.712,5.712,0,0,1,.894-2.136,5.645,5.645,0,0,1,.835-.96,8.1,8.1,0,0,1,1.074-.8,4.138,4.138,0,0,0,1.031-.89,5.51,5.51,0,0,0,.647-1.278,9.11,9.11,0,0,1,4.288-4.641,8.248,8.248,0,0,1,1.634-.611,7.3,7.3,0,0,1,1.783-.2,8.956,8.956,0,0,1,.913.074c.3.047.6.114.9.165a4.356,4.356,0,0,0,1.815,0c.608-.118,1.2-.337,1.83-.494A11.625,11.625,0,0,1,303.155,95a12.048,12.048,0,0,1,1.991-.016,10.287,10.287,0,0,1,1.991.368,6.693,6.693,0,0,1,3.414,2.262c.082.114.169.223.251.333l-.11-.043a7.88,7.88,0,0,1,9.113,5.844l-.055-.067a21.473,21.473,0,0,1,2.379,1.262,7.249,7.249,0,0,1,1.94,1.74,4.659,4.659,0,0,1,.878,2.344,3.2,3.2,0,0,1-.651,2.293v-.114a5.646,5.646,0,0,1,1.552,3.488,5.619,5.619,0,0,1-1.164,4.041c-.165.2-.333.4-.47.6a1.464,1.464,0,0,0-.243.666,3.865,3.865,0,0,0,.02.706,11.024,11.024,0,0,1-.078,2.575,5.4,5.4,0,0,1-.67,1.96,3.331,3.331,0,0,1-1.058,1.1c-.349.231-.662.321-.835.447a1.389,1.389,0,0,0-.247.2.786.786,0,0,1,.231-.227c.172-.133.482-.235.819-.466a3.35,3.35,0,0,0,1.023-1.094,5.339,5.339,0,0,0,.639-1.936,11.108,11.108,0,0,0,.055-2.552,4.021,4.021,0,0,1-.024-.725,1.558,1.558,0,0,1,.259-.721,7.173,7.173,0,0,1,.474-.619,5.426,5.426,0,0,0,.435-.655,5.616,5.616,0,0,0,.678-3.288,5.476,5.476,0,0,0-1.521-3.382l-.055-.055.047-.059a3.032,3.032,0,0,0,.607-2.171,4.511,4.511,0,0,0-.851-2.25,6.95,6.95,0,0,0-1.893-1.689,20.989,20.989,0,0,0-2.36-1.242l-.043-.02-.012-.047a7.688,7.688,0,0,0-8.874-5.683l-.067.016-.043-.059c-.078-.106-.161-.216-.243-.321a6.517,6.517,0,0,0-3.312-2.191,10.4,10.4,0,0,0-1.948-.364,12.062,12.062,0,0,0-1.956.012,11.653,11.653,0,0,0-1.893.329c-.615.153-1.219.368-1.842.494a4.84,4.84,0,0,1-.949.1,4.971,4.971,0,0,1-.937-.106c-.306-.055-.6-.121-.9-.169a8.509,8.509,0,0,0-.89-.074,7.123,7.123,0,0,0-1.736.188,7.879,7.879,0,0,0-1.6.592,8.943,8.943,0,0,0-4.217,4.539,5.5,5.5,0,0,1-.67,1.309,4.312,4.312,0,0,1-1.074.917,8.162,8.162,0,0,0-1.062.78,5.41,5.41,0,0,0-.823.933,5.525,5.525,0,0,0-.89,2.085,7.464,7.464,0,0,0-.07,1.987,9.807,9.807,0,0,1,.008,1.693,3.247,3.247,0,0,1-.408,1.29c-.2.337-.412.6-.557.819a4.51,4.51,0,0,0-.314.517,1.721,1.721,0,0,1-.09.188Z" transform="translate(-282.134 -82.604)" fill="#455a64"/>
              <path id="Trazado_717408" data-name="Trazado 717408" d="M330.854,97.547s-.18-.1-.509-.267a4.537,4.537,0,0,0-1.478-.435,4.26,4.26,0,0,0-2.23.321A4.429,4.429,0,0,0,324.6,99a3.8,3.8,0,0,0-.341.768.841.841,0,0,0,.047.713l.165.231-.274-.078a2.79,2.79,0,0,0-2.1.247,2.686,2.686,0,0,0-1.152,1.254,2.982,2.982,0,0,0-.266,1.117c-.012.27.012.419,0,.423s-.016-.035-.031-.106a2.12,2.12,0,0,1-.035-.317,2.831,2.831,0,0,1,1.407-2.52,2.945,2.945,0,0,1,2.238-.286l-.11.153a1.04,1.04,0,0,1-.082-.886,3.958,3.958,0,0,1,.357-.815,4.543,4.543,0,0,1,2.136-1.9,4.306,4.306,0,0,1,2.324-.29,4.2,4.2,0,0,1,1.5.51,3.231,3.231,0,0,1,.361.235c.078.059.118.094.114.1Z" transform="translate(-305.452 -83.638)" fill="#455a64"/>
              <path id="Trazado_717409" data-name="Trazado 717409" d="M360.729,118.861a1.605,1.605,0,0,1-.239.243,4.527,4.527,0,0,1-.768.533,3.239,3.239,0,0,1-1.356.4,2.434,2.434,0,0,1-1.685-.513l.149-.024c-.067.09-.133.184-.2.278s-.153.176-.231.267a4.1,4.1,0,0,1-1.7,1.05,4.229,4.229,0,0,1-1.619.2,3.687,3.687,0,0,1-1.07-.247,1.46,1.46,0,0,1-.353-.188,5.879,5.879,0,0,0,1.431.29,4.269,4.269,0,0,0,1.548-.235,4.02,4.02,0,0,0,1.611-1.015c.074-.086.153-.165.22-.251s.129-.176.188-.263l.067-.094.082.071a2.3,2.3,0,0,0,1.544.49,3.2,3.2,0,0,0,1.3-.345c.694-.349,1.046-.682,1.07-.655Z" transform="translate(-324.333 -97.137)" fill="#455a64"/>
              <path id="Trazado_717410" data-name="Trazado 717410" d="M367.636,133.983a.751.751,0,0,1-.016.125,1.153,1.153,0,0,1-.153.329,1.82,1.82,0,0,1-1.094.725,3.441,3.441,0,0,1-1.94-.216c-.345-.125-.706-.251-1.07-.423a1.854,1.854,0,0,1-.937-.858c-.016-.039-.027-.074-.043-.11l.161.051a7.744,7.744,0,0,1-2.015,1.2,3.483,3.483,0,0,1-1.9.192,2.533,2.533,0,0,1-1.172-.537,1.776,1.776,0,0,1-.247-.251c-.047-.063-.071-.1-.067-.1s.122.118.361.294a2.622,2.622,0,0,0,1.148.459,3.424,3.424,0,0,0,1.815-.227,7.915,7.915,0,0,0,1.956-1.192l.11-.086.051.133c.012.027.023.059.035.09a1.708,1.708,0,0,0,.839.76c.345.169.705.3,1.043.427a3.384,3.384,0,0,0,1.842.251,1.779,1.779,0,0,0,1.062-.631,3.633,3.633,0,0,0,.235-.408Z" transform="translate(-327.665 -105.956)" fill="#455a64"/>
              <path id="Trazado_717411" data-name="Trazado 717411" d="M390.63,73.124a1.714,1.714,0,0,0-.321.055,1.542,1.542,0,0,0-.757.486,2.1,2.1,0,0,0-.513,1.3,6.146,6.146,0,0,0,.251,1.85l.027.11H389.2a3.84,3.84,0,0,0-2.348.709,3,3,0,0,0-1.29,2.375,2.793,2.793,0,0,0,.984,2.265l.227.18h-.29a3.5,3.5,0,0,0-2.575,1.125,3.325,3.325,0,0,0-.87,2.081,3.7,3.7,0,0,0,.223,1.5c.129.333.235.5.22.51a.506.506,0,0,1-.086-.118,2.449,2.449,0,0,1-.2-.368,3.505,3.505,0,0,1-.286-1.533,3.439,3.439,0,0,1,.87-2.191,3.658,3.658,0,0,1,2.7-1.211l-.063.176A2.966,2.966,0,0,1,385.362,80a3.073,3.073,0,0,1,.4-1.462,3.4,3.4,0,0,1,.976-1.066,4.019,4.019,0,0,1,2.469-.725l-.086.106a6.182,6.182,0,0,1-.223-1.9,2.195,2.195,0,0,1,.58-1.352,1.52,1.52,0,0,1,.819-.47,1.061,1.061,0,0,1,.251-.02.178.178,0,0,1,.086.012Z" transform="translate(-343.338 -69.319)" fill="#455a64"/>
              <path id="Trazado_717412" data-name="Trazado 717412" d="M405.283,108.478a.819.819,0,0,1-.11.067c-.078.035-.188.1-.341.157a4.65,4.65,0,0,1-1.368.306,5.422,5.422,0,0,1-2.132-.259,5.139,5.139,0,0,1-2.285-1.5l.153-.012a4.321,4.321,0,0,1-3.061,2.089,3.277,3.277,0,0,1-3.379-1.8l.176-.008a2.729,2.729,0,0,1-.819,1.152,3.606,3.606,0,0,1-1.113.627,4.945,4.945,0,0,1-2.066.212,9.316,9.316,0,0,1-1.333-.219,2.407,2.407,0,0,1-.466-.129,3.054,3.054,0,0,1,.478.067,12.241,12.241,0,0,0,1.329.165,5.041,5.041,0,0,0,2.007-.247,2.931,2.931,0,0,0,1.807-1.693l.082-.227.094.219a3.1,3.1,0,0,0,3.179,1.678,4.159,4.159,0,0,0,2.92-1.983l.067-.114.086.1a5.056,5.056,0,0,0,2.191,1.474,5.344,5.344,0,0,0,2.073.294,6.216,6.216,0,0,0,1.827-.412Z" transform="translate(-345.907 -89.94)" fill="#455a64"/>
              <path id="Trazado_717413" data-name="Trazado 717413" d="M399.391,126.65a.277.277,0,0,1-.078.121.689.689,0,0,1-.384.172,3.166,3.166,0,0,1-1.5-.251,3.708,3.708,0,0,1-1.725-1.446,3.767,3.767,0,0,1-.494-2.7v-.02l.149.114a4.412,4.412,0,0,1-2.72.368,4.9,4.9,0,0,1-2.062-.894,5.484,5.484,0,0,1-1.086-1.054,1.88,1.88,0,0,1-.3-.463,8.183,8.183,0,0,0,1.47,1.4,4.946,4.946,0,0,0,2.007.827,4.278,4.278,0,0,0,2.6-.368l.18-.09-.035.2v.02a3.564,3.564,0,0,0,2.069,3.974,3.222,3.222,0,0,0,1.435.306.705.705,0,0,0,.474-.216Z" transform="translate(-347.152 -98.196)" fill="#455a64"/>
              <path id="Trazado_717414" data-name="Trazado 717414" d="M364.03,73.71a5.785,5.785,0,0,0-.31,2.085,4.746,4.746,0,0,0,.655,2.16,4.685,4.685,0,0,0,2.062,1.811,4.6,4.6,0,0,0,1.552.4l.125.012-.039.118a5.957,5.957,0,0,0-.251,2.191,6.1,6.1,0,0,0,.384,1.725,4.26,4.26,0,0,0,.278.608.527.527,0,0,0,.357.278.349.349,0,0,0,.274-.082c.047-.047.059-.086.067-.086a.161.161,0,0,1-.039.11.363.363,0,0,1-.306.129.589.589,0,0,1-.439-.29,3.892,3.892,0,0,1-.314-.615,5.868,5.868,0,0,1-.435-1.756,5.933,5.933,0,0,1,.235-2.265l.086.129a4.691,4.691,0,0,1-4.4-4.57,4.548,4.548,0,0,1,.22-1.564,3.442,3.442,0,0,1,.161-.4C364,73.749,364.022,73.706,364.03,73.71Z" transform="translate(-331.577 -69.686)" fill="#455a64"/>
            </g>
            <path id="Trazado_717415" data-name="Trazado 717415" d="M315.789,164.755v-1.082l-10.876-3.5h0c-3.872-1.658-9.407-.7-12.652,1.305l-2.818.074.027-.039c-3.222-2.544-8.662-3.061-12.879-1.219l.1.451h0c.008.031.027.1.047.192l.094.4c.568,2.5,1.239,5.146,1.909,5.856.451.478,1.975.741,3.206.874.47.051.9.086,1.211.106.376.023,3.676.231,4.245-.274.615-.549,1.662-4.586,1.968-5.813l2.893-.063c.341.968.933,5.311,2.32,6.185,1.446.909,7.47.611,8.16-.408a46.222,46.222,0,0,0,2.567-6.326l.059-.118,10.418,3.394Zm-28.71,2.732c-.615.486-7.2.145-7.976-.682-.658-.7-1.47-4.26-1.776-5.6,0-.02-.008-.035-.012-.055,3.763-1.431,8.662-.976,11.468,1.18-.545,2.12-1.352,4.841-1.7,5.158Zm15.255,0c-.431.635-6.052,1.152-7.486.251-.992-.623-1.521-3.653-1.968-5.4,3.171-1.9,8.588-2.7,12.033-.988A37.262,37.262,0,0,1,302.333,167.487Z" transform="translate(-276.59 -121.666)" fill="#263238"/>
            <g id="Grupo_1006787" data-name="Grupo 1006787" transform="translate(16.865 39.26)" opacity="0.3">
              <path id="Trazado_717416" data-name="Trazado 717416" d="M319.62,165.389s.592,4.253,1.815,4.449,2.681-6.228,2.681-6.228S320.4,164.347,319.62,165.389Z" transform="translate(-319.62 -163.61)" fill="#fff"/>
            </g>
            <g id="Grupo_1006788" data-name="Grupo 1006788" transform="translate(1.207 38.946)" opacity="0.3">
              <path id="Trazado_717417" data-name="Trazado 717417" d="M279.67,163.538s.592,4.825,1.815,5.025,3.68-5.687,3.68-5.687-4.719-.38-5.5.666Z" transform="translate(-279.67 -162.808)" fill="#fff"/>
            </g>
          </g>
          <g id="Grupo_1006790" data-name="Grupo 1006790" transform="translate(46.812 74.546)">
            <path id="Trazado_717418" data-name="Trazado 717418" d="M357.419,297.438c-1.293-1.36-5.409-4.786-6.624-5.268s-5,8.4-5.24,10.735,1.074,5.381,2.712,7.427c2.34,2.916,7.992,6.495,10.128,7.49,2.16,1.007,8.227,4.48,11.919-3.355s3.214-7.772,4.249-11c1.607-5,2.936-14.863,3.739-20.863a97.9,97.9,0,0,0,.67-16.536c-.259-4.856-1.623-9.226-4.884-12.233-2.744-2.528-11.9,19.625-11.9,19.821s-4.217,23.736-4.217,23.736" transform="translate(-321.908 -253.637)" fill="#455a64"/>
            <path id="Trazado_717419" data-name="Trazado 717419" d="M290.5,289.1s-.878-1.505,2.3-1.975a12.89,12.89,0,0,1,6.177.365,27.212,27.212,0,0,1,5.017,4.794,77.369,77.369,0,0,1,2.309,7.9l1.96,2.775-4.605,8.262a14.3,14.3,0,0,0-1.376-1.387c-.69-.576-2.763-1.27-3.183-3.006a20.818,20.818,0,0,0-1.689-4.045s-7.729-1.677-8.419-2.022-.635-1.387-.635-1.387a20.1,20.1,0,0,1-2.407-.419,1.249,1.249,0,0,1,.235-2.3c1.642-.753,7.094-1.148,7.835-1.148s4.288.462,4.288.462-4.656-1.054-6.083-1.168-4.652-.043-5.17-.165a1.231,1.231,0,0,1,.137-2.218,14.256,14.256,0,0,1,4.339-.9,57.5,57.5,0,0,1,7.02.686l-1.787-1.987a31.291,31.291,0,0,0-4.4-.482,3.28,3.28,0,0,1-1.862-.627Z" transform="translate(-285.268 -273.883)" fill="#ffbf9d"/>
            <path id="Trazado_717420" data-name="Trazado 717420" d="M326.77,329.427l12.954,19.39s5.472-6.7,5.887-11.574l.239-2.395L331.356,320.73l-4.586,8.7Z" transform="translate(-310.503 -294.433)" fill="#ffbf9d"/>
            <path id="Trazado_717421" data-name="Trazado 717421" d="M302.4,317.868c0,.031-.541-.055-1.407-.157s-2.066-.208-3.394-.231-2.532.051-3.4.125-1.4.145-1.411.114a1.31,1.31,0,0,1,.368-.094c.239-.051.592-.106,1.023-.161a24.348,24.348,0,0,1,3.418-.188,24.042,24.042,0,0,1,3.41.29c.431.071.78.137,1.019.192a1.354,1.354,0,0,1,.368.106Z" transform="translate(-289.842 -292.331)" fill="#ff9a6c"/>
            <path id="Trazado_717422" data-name="Trazado 717422" d="M377.582,351.3s-.176-.1-.478-.31c-.329-.235-.749-.541-1.254-.9-1.054-.768-2.5-1.842-4.1-3.042a13.57,13.57,0,0,0-2.336-1.509,6.49,6.49,0,0,0-1.137-.4,5.323,5.323,0,0,0-1.035-.172,2.375,2.375,0,0,0-1.446.337c-.3.192-.435.349-.451.337s.024-.043.09-.118a1.617,1.617,0,0,1,.317-.282,2.394,2.394,0,0,1,1.5-.415,5.453,5.453,0,0,1,1.07.153,6.3,6.3,0,0,1,1.176.4,13.075,13.075,0,0,1,2.383,1.517c1.591,1.2,3.026,2.289,4.061,3.089.49.384.9.706,1.215.956a2.889,2.889,0,0,1,.431.372Z" transform="translate(-333.962 -309.079)" fill="#263238"/>
            <path id="Trazado_717423" data-name="Trazado 717423" d="M395.56,353.691c-.027.027-.482-.5-1.325-1.227a14.962,14.962,0,0,0-1.556-1.176,16.722,16.722,0,0,0-2.089-1.156,16.555,16.555,0,0,0-2.246-.815,15.368,15.368,0,0,0-1.909-.4c-1.1-.157-1.8-.153-1.8-.192a2.068,2.068,0,0,1,.486-.027c.157,0,.349,0,.572.012s.478.02.757.063a13.776,13.776,0,0,1,1.94.361,15.587,15.587,0,0,1,2.281.811,15.838,15.838,0,0,1,2.109,1.184,13.866,13.866,0,0,1,1.548,1.227c.212.184.384.372.541.529a4.742,4.742,0,0,1,.384.423,2.111,2.111,0,0,1,.3.384Z" transform="translate(-345.692 -311.438)" fill="#263238"/>
            <path id="Trazado_717424" data-name="Trazado 717424" d="M396.47,254.473s-.153.176-.451.463c-.153.141-.333.317-.533.537s-.443.451-.678.737-.51.588-.772.937-.537.725-.819,1.125a21.592,21.592,0,0,0-1.56,2.775,21.971,21.971,0,0,0-1.105,2.987c-.121.474-.251.921-.329,1.352-.1.423-.161.827-.216,1.191s-.09.7-.121.992-.051.545-.063.753a3.731,3.731,0,0,1-.063.643,3.813,3.813,0,0,1-.02-.647c0-.208,0-.462.027-.76s.035-.635.094-1,.1-.776.192-1.207c.071-.435.2-.89.314-1.368a20.362,20.362,0,0,1,1.1-3.022,20.956,20.956,0,0,1,1.591-2.795c.29-.4.557-.788.839-1.125s.545-.651.8-.929.494-.513.705-.721a7.333,7.333,0,0,1,.56-.513,3.916,3.916,0,0,1,.506-.4Z" transform="translate(-348.793 -254.143)" fill="#263238"/>
          </g>
          <path id="Trazado_717425" data-name="Trazado 717425" d="M357.419,297.438c-1.293-1.36-5.409-4.786-6.624-5.268s-5,8.4-5.24,10.735,1.074,5.381,2.712,7.427c2.34,2.916,7.992,6.495,10.128,7.49,2.16,1.007,8.227,4.48,11.919-3.355s3.214-7.772,4.249-11c1.607-5,2.936-14.863,3.739-20.863a97.9,97.9,0,0,0,.67-16.536c-.259-4.856-1.623-9.226-4.884-12.233-2.744-2.528-11.9,19.625-11.9,19.821s-4.217,23.736-4.217,23.736" transform="translate(-275.096 -179.091)" fill="#455a64"/>
          <path id="Trazado_717426" data-name="Trazado 717426" d="M290.5,289.1s-.878-1.505,2.3-1.975a12.89,12.89,0,0,1,6.177.365,27.212,27.212,0,0,1,5.017,4.794,77.369,77.369,0,0,1,2.309,7.9l1.96,2.775-4.605,8.262a14.3,14.3,0,0,0-1.376-1.387c-.69-.576-2.763-1.27-3.183-3.006a20.818,20.818,0,0,0-1.689-4.045s-7.729-1.677-8.419-2.022-.635-1.387-.635-1.387a20.1,20.1,0,0,1-2.407-.419,1.249,1.249,0,0,1,.235-2.3c1.642-.753,7.094-1.148,7.835-1.148s4.288.462,4.288.462-4.656-1.054-6.083-1.168-4.652-.043-5.17-.165a1.231,1.231,0,0,1,.137-2.218,14.256,14.256,0,0,1,4.339-.9,57.5,57.5,0,0,1,7.02.686l-1.787-1.987a31.291,31.291,0,0,0-4.4-.482,3.28,3.28,0,0,1-1.862-.627Z" transform="translate(-238.456 -199.337)" fill="#ffbf9d"/>
          <path id="Trazado_717427" data-name="Trazado 717427" d="M326.77,329.427l12.954,19.39s5.472-6.7,5.887-11.574l.239-2.395L331.356,320.73l-4.586,8.7Z" transform="translate(-263.692 -219.887)" fill="#ffbf9d"/>
          <path id="Trazado_717428" data-name="Trazado 717428" d="M302.4,317.868c0,.031-.541-.055-1.407-.157s-2.066-.208-3.394-.231-2.532.051-3.4.125-1.4.145-1.411.114a1.31,1.31,0,0,1,.368-.094c.239-.051.592-.106,1.023-.161a24.348,24.348,0,0,1,3.418-.188,24.042,24.042,0,0,1,3.41.29c.431.071.78.137,1.019.192a1.354,1.354,0,0,1,.368.106Z" transform="translate(-243.03 -217.786)" fill="#ff9a6c"/>
          <path id="Trazado_717429" data-name="Trazado 717429" d="M377.582,351.3s-.176-.1-.478-.31c-.329-.235-.749-.541-1.254-.9-1.054-.768-2.5-1.842-4.1-3.042a13.57,13.57,0,0,0-2.336-1.509,6.49,6.49,0,0,0-1.137-.4,5.323,5.323,0,0,0-1.035-.172,2.375,2.375,0,0,0-1.446.337c-.3.192-.435.349-.451.337s.024-.043.09-.118a1.617,1.617,0,0,1,.317-.282,2.394,2.394,0,0,1,1.5-.415,5.453,5.453,0,0,1,1.07.153,6.3,6.3,0,0,1,1.176.4,13.075,13.075,0,0,1,2.383,1.517c1.591,1.2,3.026,2.289,4.061,3.089.49.384.9.706,1.215.956a2.889,2.889,0,0,1,.431.372Z" transform="translate(-287.15 -234.533)" fill="#263238"/>
          <path id="Trazado_717430" data-name="Trazado 717430" d="M384.231,304.7s0,.11-.02.318c-.024.223-.059.525-.1.9-.1.8-.235,1.928-.4,3.312-.361,2.81-.854,6.663-1.4,10.916-.114.854-.223,1.7-.329,2.5l-.1-.114a19.375,19.375,0,0,1,9.015,2.073,10.289,10.289,0,0,1,2.238,1.6,5.765,5.765,0,0,1,.513.537,1.261,1.261,0,0,1,.165.2c-.016.016-.247-.251-.725-.682a10.947,10.947,0,0,0-2.254-1.536,19.643,19.643,0,0,0-8.952-1.987h-.114l.016-.114c.106-.8.216-1.642.325-2.5.568-4.249,1.082-8.1,1.458-10.908.2-1.38.353-2.5.466-3.3.059-.376.1-.674.137-.9a1.759,1.759,0,0,1,.063-.31Z" transform="translate(-297.135 -210.14)" fill="#263238"/>
          <path id="Trazado_717431" data-name="Trazado 717431" d="M396.47,254.473s-.153.176-.451.463c-.153.141-.333.317-.533.537s-.443.451-.678.737-.51.588-.772.937-.537.725-.819,1.125a21.592,21.592,0,0,0-1.56,2.775,21.971,21.971,0,0,0-1.105,2.987c-.121.474-.251.921-.329,1.352-.1.423-.161.827-.216,1.191s-.09.7-.121.992-.051.545-.063.753a3.731,3.731,0,0,1-.063.643,3.813,3.813,0,0,1-.02-.647c0-.208,0-.462.027-.76s.035-.635.094-1,.1-.776.192-1.207c.071-.435.2-.89.314-1.368a20.362,20.362,0,0,1,1.1-3.022,20.956,20.956,0,0,1,1.591-2.795c.29-.4.557-.788.839-1.125s.545-.651.8-.929.494-.513.705-.721a7.333,7.333,0,0,1,.56-.513,3.916,3.916,0,0,1,.506-.4Z" transform="translate(-301.981 -179.597)" fill="#263238"/>
          <g id="Grupo_1006791" data-name="Grupo 1006791" transform="translate(23.639 92.945)">
            <path id="Trazado_717432" data-name="Trazado 717432" d="M228.9,312.123s-3.32-8.207-2.673-10.963a.752.752,0,0,1,.737-.58h0a.753.753,0,0,1,.67.408l4.323,8.317a3.981,3.981,0,0,1,1.815-2.054,40.942,40.942,0,0,1,4.017-1.262l3.9.486a.821.821,0,0,1,.494,1.38,3.534,3.534,0,0,1-2.348.952c-2.826.235-3.563.886-3.563.886l-1.411,2.43s2.979-2.038,3.916-2.117c.733-.063,4.79-.145,6.546-.18a1.531,1.531,0,0,1,1.493,1.023c.184.557.055,1.2-1.2,1.509,0,0,1.376.713-.494,1.646a25.93,25.93,0,0,1-3.527,1.411l-2.665,1.8-4.464,3.136-5.248-3.606s-1.866-1.983-.705-3.637a4.306,4.306,0,0,0,.392-.984Z" transform="translate(-226.147 -300.58)" fill="#ffbf9d"/>
            <path id="Trazado_717433" data-name="Trazado 717433" d="M253.279,336.738s2.5,2.132,3.045,3.465,1.023,2.685.161,5.9-8.043,0-8.043,0c-.2-1.313-1.807-2.9-3.6-4.519l6.71-4.962Z" transform="translate(-237.513 -322.494)" fill="#ffbf9d"/>
            <path id="Trazado_717434" data-name="Trazado 717434" d="M238.346,319.847a3.873,3.873,0,0,1-.408.655c-.263.4-.608.952-.984,1.572a16.486,16.486,0,0,1-1.438,2.207,3.244,3.244,0,0,1,.333-.7c.227-.419.549-.992.929-1.615a9.127,9.127,0,0,1,1.564-2.12Z" transform="translate(-231.842 -312.294)" fill="#ff9a6c"/>
            <path id="Trazado_717435" data-name="Trazado 717435" d="M261.5,330.4a3.221,3.221,0,0,1-.4.063c-.259.027-.631.055-1.09.09-.921.07-2.2.141-3.6.223a5.067,5.067,0,0,0-3.124,1.505,10.737,10.737,0,0,1-1.16.941,1.794,1.794,0,0,1,.27-.3c.184-.18.451-.443.8-.753a10.165,10.165,0,0,1,1.286-1.007,3.371,3.371,0,0,1,.886-.423,5.244,5.244,0,0,1,1.031-.169c1.411-.086,2.681-.133,3.606-.165.462-.016.835-.023,1.094-.023a1.5,1.5,0,0,1,.4.02Z" transform="translate(-241.945 -318.7)" fill="#ff9a6c"/>
            <path id="Trazado_717436" data-name="Trazado 717436" d="M247.32,330.06c.035.047-.2.278-.431.6s-.388.611-.443.592.02-.365.278-.709S247.289,330.017,247.32,330.06Z" transform="translate(-238.48 -318.501)" fill="#ff9a6c"/>
            <path id="Trazado_717437" data-name="Trazado 717437" d="M266.546,335.268a2.537,2.537,0,0,1-.674.329c-.431.172-1.035.38-1.693.619-1.325.462-2.352.952-2.379.9a8.846,8.846,0,0,1,2.309-1.094c.666-.239,1.274-.423,1.713-.56a3,3,0,0,1,.725-.192Z" transform="translate(-247.825 -321.671)" fill="#ff9a6c"/>
          </g>
        </g>
      </g>
    </g>
  </g>
</svg>
