<svg xmlns="http://www.w3.org/2000/svg" xmlns:xlink="http://www.w3.org/1999/xlink" width="77" height="77" viewBox="0 0 77 77">
  <defs>
    <filter id="Elipse_7690" x="0" y="0" width="77" height="77" filterUnits="userSpaceOnUse">
      <feOffset dy="3" input="SourceAlpha"/>
      <feGaussianBlur stdDeviation="3" result="blur"/>
      <feFlood flood-opacity="0.161"/>
      <feComposite operator="in" in2="blur"/>
      <feComposite in="SourceGraphic"/>
    </filter>
  </defs>
  <g id="Grupo_1010466" data-name="Grupo 1010466" transform="translate(6331.5 8755)">
    <g transform="matrix(1, 0, 0, 1, -6331.5, -8755)" filter="url(#Elipse_7690)">
      <circle id="Elipse_7690-2" data-name="Elipse 7690" cx="29.5" cy="29.5" r="29.5" transform="translate(9 6)" fill="#f5b3bf"/>
    </g>
    <path id="lenguaje-de-senas_3_" data-name="lenguaje-de-senas(3)" d="M78.1,15.294V7.03A5.171,5.171,0,0,0,70.02,2.754a5.173,5.173,0,0,0-9.745,2.42V6.3a5.169,5.169,0,0,0-7.409,3.777,5.17,5.17,0,0,0-7.552,4.593V30.934a14.259,14.259,0,0,0,5.99,11.571v6.425H79.593V42.505a14.257,14.257,0,0,0,5.99-11.571v-7ZM72.929,4.723A2.309,2.309,0,0,1,75.236,7.03v8.8a2.307,2.307,0,0,1-4.613,0V7.03a2.309,2.309,0,0,1,2.307-2.307Zm-9.787.451a2.307,2.307,0,0,1,4.613,0V15.828a2.307,2.307,0,0,1-4.613,0Zm-7.48,5.758a2.307,2.307,0,0,1,4.613,0v9.794a2.307,2.307,0,0,1-4.613,0Zm-7.48,3.74a2.307,2.307,0,1,1,4.613,0v6.053a2.307,2.307,0,0,1-4.613,0ZM82.717,30.934a11.414,11.414,0,0,1-5.99,10.009v5.121H54.172V40.943a11.413,11.413,0,0,1-5.99-10.009v-5.58a5.16,5.16,0,0,0,6.047-1.06,5.161,5.161,0,0,0,7.48,0,5.158,5.158,0,0,0,3.741,1.6h5.019l.671,1.686A15.044,15.044,0,0,0,66.2,33.24a18.587,18.587,0,0,0-2.187,8.5h2.867a15.9,15.9,0,0,1,1.855-7.16A11.847,11.847,0,0,1,74.749,28.9l-2.337-5.867H65.449a2.309,2.309,0,0,1-2.307-2.307v-.268a5.16,5.16,0,0,0,6.047-1.06,5.165,5.165,0,0,0,8.054-.717L82.717,25Z" transform="translate(-6358.814 -8738.931)" fill="#12263f"/>
  </g>
</svg>
