<svg xmlns="http://www.w3.org/2000/svg" xmlns:xlink="http://www.w3.org/1999/xlink" width="77" height="77" viewBox="0 0 77 77">
  <defs>
    <filter id="Elipse_7693" x="0" y="0" width="77" height="77" filterUnits="userSpaceOnUse">
      <feOffset dy="3" input="SourceAlpha"/>
      <feGaussianBlur stdDeviation="3" result="blur"/>
      <feFlood flood-opacity="0.161"/>
      <feComposite operator="in" in2="blur"/>
      <feComposite in="SourceGraphic"/>
    </filter>
  </defs>
  <g id="Grupo_1010468" data-name="Grupo 1010468" transform="translate(5586.5 6874.571)">
    <g transform="matrix(1, 0, 0, 1, -5586.5, -6874.57)" filter="url(#Elipse_7693)">
      <circle id="Elipse_7693-2" data-name="Elipse 7693" cx="29.5" cy="29.5" r="29.5" transform="translate(9 6)" fill="#f5b3bf"/>
    </g>
    <g id="tres-dedos" transform="translate(-5632.706 -6858.916)">
      <path id="Trazado_656698" data-name="Trazado 656698" d="M98.385,8.611a4.335,4.335,0,0,0-1.451.249V7.16a4.354,4.354,0,0,0-5.983-4.038,4.354,4.354,0,0,0-8.53,1.232V14.762a4.355,4.355,0,0,0-5.805,4.105v7.6l-1.34-1.608a5.356,5.356,0,0,0-8.575.458l-.494.741c1.607,3.074,3.782,5.981,4.948,10.558a11.124,11.124,0,0,0,2.868,5.066,8.807,8.807,0,0,1,2.594,6.21v1.451H96.934V47.893a8.807,8.807,0,0,1,2.594-6.21,11.058,11.058,0,0,0,3.211-7.819v-20.9a4.359,4.359,0,0,0-4.354-4.354Zm1.451,25.253a8.173,8.173,0,0,1-2.373,5.779,11.747,11.747,0,0,0-3.341,6.8h-14.7a11.746,11.746,0,0,0-3.341-6.8,8.217,8.217,0,0,1-2.12-3.742,37.53,37.53,0,0,0-4.281-9.577,2.457,2.457,0,0,1,3.36.4l3.132,3.759h3.341V18.867a1.451,1.451,0,1,1,2.9,0v5.805h2.9V4.354a1.451,1.451,0,1,1,2.9,0V24.672h2.9V7.16a1.451,1.451,0,1,1,2.9,0V24.672h2.9V12.965a1.451,1.451,0,0,1,2.9,0v20.9Z" fill="#12263f"/>
    </g>
  </g>
</svg>
