<svg xmlns="http://www.w3.org/2000/svg" xmlns:xlink="http://www.w3.org/1999/xlink" width="104.364" height="104.364" viewBox="0 0 104.364 104.364">
  <defs>
    <clipPath id="clip-path">
      <rect id="Rect치ngulo_33846" data-name="Rect치ngulo 33846" width="104.364" height="104.364" fill="none"/>
    </clipPath>
    <clipPath id="clip-path-2">
      <rect id="Rect치ngulo_34576" data-name="Rect치ngulo 34576" width="60.895" height="78.941" fill="none"/>
    </clipPath>
  </defs>
  <g id="Grupo_80330" data-name="Grupo 80330" transform="translate(0 0)">
    <g id="Grupo_80329" data-name="Grupo 80329" transform="translate(0 0)" clip-path="url(#clip-path)">
      <path id="Trazado_113694" data-name="Trazado 113694" d="M104.364,52.182A52.182,52.182,0,1,1,52.182,0a52.182,52.182,0,0,1,52.182,52.182" transform="translate(0)" fill="#4db1f0"/>
      <g id="Grupo_82196" data-name="Grupo 82196" transform="translate(21.736 9.361)">
        <g id="Grupo_82195" data-name="Grupo 82195" clip-path="url(#clip-path-2)">
          <path id="Trazado_114067" data-name="Trazado 114067" d="M34.377,76.724A4.617,4.617,0,0,1,31.7,72.852a4.014,4.014,0,0,1,1.914-3.579,14.129,14.129,0,0,1,4.149-1.14,12.067,12.067,0,0,1-2.774-.914,5.214,5.214,0,0,1-3.023-4.37,4.524,4.524,0,0,1,2.158-4.034,17.009,17.009,0,0,1,5.018-1.346,15.55,15.55,0,0,1-3.936-1.183,5.583,5.583,0,0,1-3.238-4.679,4.84,4.84,0,0,1,2.308-4.315,17.268,17.268,0,0,1,5-1.366,11.281,11.281,0,0,1-2.678-.946,5.568,5.568,0,0,1-3.021-4.628A4.951,4.951,0,0,1,35.75,36c.027-.018.059-.036.089-.054a11.009,11.009,0,0,1-5.106-5.8c-1.169-3.507-.376-6.633.464-9.944.74-2.915,1.5-5.928.874-9.334C30.973,4.943,28.988,2.059,26,2.059a5.958,5.958,0,0,0-1.525.215c-1.654.441-1.914,3.239-2.273,7.112-.4,4.322-.95,10.243-3.962,15.693a46.942,46.942,0,0,1-7.037,9.782A32.542,32.542,0,0,0,4.991,44C.807,52.9-.018,69.1,9.437,75.138,15.107,78.76,23.627,79.3,28.2,79.3a50.712,50.712,0,0,0,11.637-1.248,18.831,18.831,0,0,1-5.461-1.33m-7.189-26.9c-2.523,3.049-2.809,7.344-2.743,11.532a26.59,26.59,0,0,0,1.475,9.61.425.425,0,0,1-.786.321,27.3,27.3,0,0,1-1.538-9.918c-.068-4.35.24-8.826,2.938-12.086a.425.425,0,1,1,.654.541m2.3-7.263A37.227,37.227,0,0,1,9.322,56.948a.434.434,0,0,1-.116.016.425.425,0,0,1-.115-.834,36.361,36.361,0,0,0,19.7-14.056.425.425,0,0,1,.7.484" transform="translate(-1.179 -1.209)" fill="#ffdcad"/>
          <path id="Trazado_114068" data-name="Trazado 114068" d="M92.949,164.03a64.935,64.935,0,0,1-9.086-.661c-3.08.378-5.578.912-6.317,1.376a3.175,3.175,0,0,0-1.517,2.828,3.792,3.792,0,0,0,2.222,3.153c1.79.943,7.312,1.711,12.309,1.711,2.827,0,4.941-.267,5.654-.715a7.4,7.4,0,0,0,2.724-5.059,3.178,3.178,0,0,0-.68-2.657,1.817,1.817,0,0,0-.429-.288,31.725,31.725,0,0,1-4.878.313Z" transform="translate(-44.658 -95.962)" fill="#ffdcad"/>
          <path id="Trazado_114069" data-name="Trazado 114069" d="M100.7,137.542a29.1,29.1,0,0,1-6.055.5h0a70.958,70.958,0,0,1-8.762-.569c-3.623.434-6.582,1.061-7.448,1.6a3.683,3.683,0,0,0-1.76,3.282,4.388,4.388,0,0,0,2.57,3.652c2.3,1.211,9.1,1.96,14.084,1.96,3.288,0,5.653-.3,6.488-.825,1.524-.957,2.9-3.513,3.138-5.82a3.686,3.686,0,0,0-.8-3.085,3.56,3.56,0,0,0-1.461-.7" transform="translate(-45.036 -80.75)" fill="#ffdcad"/>
          <path id="Trazado_114070" data-name="Trazado 114070" d="M101.92,109.007c-1.451.841-4.988.972-7.011.972a60.894,60.894,0,0,1-9.346-.744c-3.416.458-6.127,1.065-6.975,1.6a4,4,0,0,0-1.911,3.564,4.758,4.758,0,0,0,2.785,3.96c2.479,1.306,9.811,2.115,15.183,2.115,3.546,0,6.1-.326,7-.894,1.648-1.035,3.139-3.8,3.394-6.293a4,4,0,0,0-.866-3.348,4.857,4.857,0,0,0-2.258-.929" transform="translate(-45.038 -64.03)" fill="#ffdcad"/>
          <path id="Trazado_114071" data-name="Trazado 114071" d="M59.728,45.293a4.739,4.739,0,0,0-2-.982,11,11,0,0,0,2.851-6.3,4.953,4.953,0,0,0-1.035-4.076C58.483,32.851,55.7,32.3,51.274,32.3c-5.579,0-12.65.945-15.633,2-2.733-1.526-4.55-3.435-5.281-5.628-1.09-3.271-.326-6.28.482-9.466.762-3,1.55-6.108.886-9.7C30.543,3.112,28.284,0,24.823,0A6.794,6.794,0,0,0,23.08.245c-2.226.593-2.509,3.639-2.9,7.854-.416,4.485-.933,10.066-3.859,15.36A45.654,45.654,0,0,1,9.4,33.086a33.658,33.658,0,0,0-6.352,9.348C-1.271,51.6-2.059,68.346,7.8,74.645c5.852,3.739,14.554,4.3,19.221,4.3h0a46.071,46.071,0,0,0,13.8-1.858c1.718.156,3.484.24,5.075.24h0c2.171,0,4.992-.146,6.1-.845a8.205,8.205,0,0,0,3.117-5.691,3.993,3.993,0,0,0-.862-3.273,3.887,3.887,0,0,0,.969-.4c1.75-1.1,3.268-3.872,3.532-6.453a4.434,4.434,0,0,0-1.052-3.784,3.067,3.067,0,0,0-.8-.528c.05-.027.1-.052.149-.081,1.876-1.178,3.5-4.155,3.789-6.926a4.745,4.745,0,0,0-1.123-4.048m.278,3.962c-.255,2.494-1.746,5.257-3.394,6.293-.9.568-3.458.894-7,.894-5.372,0-12.7-.809-15.183-2.115a4.758,4.758,0,0,1-2.785-3.96A4,4,0,0,1,33.55,46.8c.848-.532,3.559-1.139,6.975-1.6a60.946,60.946,0,0,0,9.346.743c2.023,0,5.56-.131,7.011-.972a4.861,4.861,0,0,1,2.258.929,4,4,0,0,1,.866,3.349M57.918,60.574c-.236,2.307-1.615,4.863-3.138,5.82-.836.525-3.2.825-6.488.825-4.984,0-11.786-.749-14.084-1.96a4.388,4.388,0,0,1-2.57-3.652,3.683,3.683,0,0,1,1.76-3.282c.865-.543,3.825-1.17,7.447-1.6a70.958,70.958,0,0,0,8.762.569h0a29.1,29.1,0,0,0,6.055-.5,3.56,3.56,0,0,1,1.461.7,3.686,3.686,0,0,1,.8,3.085M53.6,68.044a3.178,3.178,0,0,1,.68,2.657,7.4,7.4,0,0,1-2.724,5.059c-.713.447-2.826.715-5.653.715-5,0-10.519-.767-12.309-1.711a3.79,3.79,0,0,1-2.222-3.153,3.173,3.173,0,0,1,1.517-2.828c.739-.464,3.237-1,6.317-1.376a64.941,64.941,0,0,0,9.086.661h0a31.722,31.722,0,0,0,4.878-.313,1.828,1.828,0,0,1,.43.288M8.258,73.929C-1.2,67.889-.372,51.686,3.812,42.8a32.55,32.55,0,0,1,6.215-9.142,46.943,46.943,0,0,0,7.037-9.782c3.012-5.45,3.561-11.37,3.962-15.693.359-3.873.618-6.671,2.273-7.112A5.961,5.961,0,0,1,24.823.85c2.986,0,4.971,2.884,6.069,8.815.63,3.406-.135,6.419-.874,9.333-.84,3.311-1.634,6.437-.465,9.944a11.014,11.014,0,0,0,5.106,5.8c-.029.018-.062.036-.089.054a4.953,4.953,0,0,0-2.171,4.35,5.568,5.568,0,0,0,3.021,4.628,11.278,11.278,0,0,0,2.679.946,17.272,17.272,0,0,0-5,1.366A4.841,4.841,0,0,0,30.79,50.4a5.583,5.583,0,0,0,3.239,4.679,15.54,15.54,0,0,0,3.936,1.183,17.013,17.013,0,0,0-5.018,1.345,4.525,4.525,0,0,0-2.158,4.034,5.214,5.214,0,0,0,3.023,4.37,12.067,12.067,0,0,0,2.774.914,14.126,14.126,0,0,0-4.149,1.14,4.013,4.013,0,0,0-1.914,3.579A4.617,4.617,0,0,0,33.2,75.515a18.831,18.831,0,0,0,5.461,1.33,50.733,50.733,0,0,1-11.637,1.248c-4.574,0-13.094-.541-18.764-4.164m50.676-39.4a4.22,4.22,0,0,1,.8,3.4c-.256,2.485-1.657,5.238-3.188,6.268-.843.567-3.338.906-6.673.906-4.976,0-11.756-.791-14.034-2.069a4.737,4.737,0,0,1-2.588-3.921,4.107,4.107,0,0,1,1.8-3.611c1.54-1.035,9.489-2.349,16.229-2.349,4.072,0,6.792.49,7.661,1.38" transform="translate(0 -0.001)" fill="#d79054"/>
          <path id="Trazado_114072" data-name="Trazado 114072" d="M82.374,82.692a4.106,4.106,0,0,0-1.8,3.611,4.735,4.735,0,0,0,2.588,3.921c2.277,1.278,9.057,2.069,14.034,2.069,3.335,0,5.829-.339,6.673-.906,1.531-1.03,2.932-3.783,3.188-6.268a4.219,4.219,0,0,0-.8-3.4c-.869-.89-3.589-1.38-7.661-1.38-6.74,0-14.689,1.313-16.229,2.349" transform="translate(-47.33 -47.193)" fill="#ffdcad"/>
          <path id="Trazado_114073" data-name="Trazado 114073" d="M38.435,98.781a36.363,36.363,0,0,1-19.7,14.056.425.425,0,0,0,.115.834.431.431,0,0,0,.116-.016,37.227,37.227,0,0,0,20.167-14.39.425.425,0,0,0-.7-.484" transform="translate(-10.824 -57.916)" fill="#d79054"/>
          <path id="Trazado_114074" data-name="Trazado 114074" d="M57.254,116.284c-2.7,3.261-3.007,7.736-2.939,12.087a27.317,27.317,0,0,0,1.538,9.917.424.424,0,0,0,.393.264.419.419,0,0,0,.16-.031.424.424,0,0,0,.233-.554,26.6,26.6,0,0,1-1.475-9.61c-.066-4.188.221-8.483,2.743-11.531a.425.425,0,1,0-.654-.542" transform="translate(-31.9 -68.214)" fill="#d79054"/>
          <path id="Trazado_114075" data-name="Trazado 114075" d="M106.483,92.526a18.115,18.115,0,0,1-4.834,1.587c-4.331.76-8.765-.078-13.082-.914a13.826,13.826,0,0,1-5.251-1.777,5.481,5.481,0,0,1-2.068-2.616,4.188,4.188,0,0,0-.67,2.467,4.737,4.737,0,0,0,2.588,3.921c2.277,1.278,9.057,2.069,14.033,2.069,3.335,0,5.83-.339,6.673-.906a8.1,8.1,0,0,0,2.61-3.831" transform="translate(-47.33 -52.164)" fill="#fcca92"/>
          <path id="Trazado_114076" data-name="Trazado 114076" d="M96.51,123.211a65.244,65.244,0,0,1-11.183-.92,17.592,17.592,0,0,1-5.412-1.376,6.681,6.681,0,0,1-2.959-2.769,3.969,3.969,0,0,0-.279,1.619,4.756,4.756,0,0,0,2.785,3.959c2.479,1.306,9.811,2.115,15.183,2.115,3.547,0,6.1-.326,7-.894a7.412,7.412,0,0,0,2.444-3.041,25.6,25.6,0,0,1-7.584,1.306" transform="translate(-45.038 -69.399)" fill="#fcca92"/>
          <path id="Trazado_114077" data-name="Trazado 114077" d="M80.862,148.872a7.367,7.367,0,0,1-4.055-2.25,3.647,3.647,0,0,0-.133,1.11,4.387,4.387,0,0,0,2.57,3.651c2.3,1.211,9.1,1.96,14.084,1.96,3.288,0,5.653-.3,6.488-.825a7.474,7.474,0,0,0,2.59-3.583,44.247,44.247,0,0,1-21.544-.063" transform="translate(-45.037 -86.125)" fill="#fcca92"/>
          <path id="Trazado_114078" data-name="Trazado 114078" d="M98.107,174.34a26.833,26.833,0,0,1-5.991.63,67.47,67.47,0,0,1-11.359-1.31c-1.662-.288-3.552-.766-4.664-1.9a3.168,3.168,0,0,0-.064.742,3.792,3.792,0,0,0,2.222,3.153c1.79.943,7.312,1.711,12.309,1.711,2.827,0,4.941-.267,5.653-.715a5.829,5.829,0,0,0,1.893-2.309" transform="translate(-44.658 -100.89)" fill="#fcca92"/>
          <path id="Trazado_114079" data-name="Trazado 114079" d="M8.209,44c-.254.541-.5,1.109-.724,1.7a55.38,55.38,0,0,1,6.5-7.063c1.234-1.1,2.54-2.113,3.763-3.222A33.281,33.281,0,0,0,28.47,13.34c.246-3.525-.073-7.1.566-10.576a5.762,5.762,0,0,1,.178-.7,5.967,5.967,0,0,0-1.519.215c-1.654.441-1.914,3.239-2.273,7.112-.4,4.322-.95,10.243-3.962,15.693a46.942,46.942,0,0,1-7.037,9.782A32.551,32.551,0,0,0,8.209,44" transform="translate(-4.397 -1.21)" fill="#fcca92"/>
          <path id="Trazado_114080" data-name="Trazado 114080" d="M9.44,114.83c5.67,3.623,14.19,4.164,18.764,4.164a50.735,50.735,0,0,0,11.637-1.248,18.832,18.832,0,0,1-5.461-1.33,4.617,4.617,0,0,1-2.675-3.872,4.013,4.013,0,0,1,1.914-3.579,14.122,14.122,0,0,1,4.149-1.14,12.067,12.067,0,0,1-2.774-.914,5.214,5.214,0,0,1-3.023-4.37,4.525,4.525,0,0,1,2.158-4.034,17.029,17.029,0,0,1,5.018-1.345A15.54,15.54,0,0,1,35.21,95.98,5.583,5.583,0,0,1,31.972,91.3a4.84,4.84,0,0,1,2.308-4.315,17.268,17.268,0,0,1,5-1.366,11.28,11.28,0,0,1-2.678-.946,5.568,5.568,0,0,1-3.021-4.628A4.951,4.951,0,0,1,35.753,75.7c.027-.018.06-.036.089-.054a11.011,11.011,0,0,1-5.106-5.8c-.024-.071-.042-.141-.064-.211-.973,1.657-1.093,3.877-1.523,5.835-1.093,4.978-4.7,9.009-8.514,12.389a36.778,36.778,0,0,1-9.685,6.515,19.557,19.557,0,0,1-8.889,1.663c-.393,7.4,1.515,15.049,7.378,18.795M27.191,89.513c-2.523,3.049-2.809,7.344-2.743,11.532a26.59,26.59,0,0,0,1.475,9.61.425.425,0,0,1-.786.321,27.3,27.3,0,0,1-1.538-9.918c-.068-4.35.24-8.826,2.938-12.086a.425.425,0,1,1,.654.541m-18.1,6.31a36.363,36.363,0,0,0,19.7-14.056.425.425,0,0,1,.7.484A37.226,37.226,0,0,1,9.325,96.641a.433.433,0,0,1-.116.016.425.425,0,0,1-.115-.833" transform="translate(-1.182 -40.902)" fill="#fcca92"/>
          <path id="Trazado_114081" data-name="Trazado 114081" d="M31.779,126.825a1.22,1.22,0,0,1,1.22.068,1.25,1.25,0,0,1,.319.634c.662,2.532-.118,5.187-.274,7.8a16.3,16.3,0,0,0,.6,5.442,7.685,7.685,0,0,1,.494,2.536,3.891,3.891,0,0,1-3.557,3.334,6.7,6.7,0,0,1-4.846-1.78,10.863,10.863,0,0,1-3.442-10.692,4.45,4.45,0,0,1,.522-1.326c.858-1.346,2.621-1.708,4.007-2.5,1.767-1.009,3.042-2.824,4.956-3.517" transform="translate(-12.919 -74.421)" fill="#ffdcad"/>
          <path id="Trazado_114082" data-name="Trazado 114082" d="M65.236,7.961a2.324,2.324,0,0,0-1.309-.66.28.28,0,0,0-.241.419c.256.344.56.626.845.945a2.984,2.984,0,0,0,1,.917c.212.089.38-.127.4-.307a1.7,1.7,0,0,0-.694-1.313" transform="translate(-37.385 -4.287)" fill="#fff9df"/>
          <path id="Trazado_114083" data-name="Trazado 114083" d="M69.916,19.952a14.827,14.827,0,0,0-.486-3.884.253.253,0,0,0-.5.066c-.085,1.27.015,2.546,0,3.817a8.975,8.975,0,0,0,.092,3.346.269.269,0,0,0,.485.064,6.246,6.246,0,0,0,.406-3.41" transform="translate(-40.421 -9.333)" fill="#fff9df"/>
          <path id="Trazado_114084" data-name="Trazado 114084" d="M109.687,83.123c-1.042-.427-8.458-.788-8.268.959a.3.3,0,0,0,.293.293l.08.007a.239.239,0,0,0,.23-.3c.149.4,3.5-.25,4.035-.276a19.3,19.3,0,0,0,3.63-.182c.274-.065.217-.41,0-.5" transform="translate(-59.571 -48.619)" fill="#fff9df"/>
          <path id="Trazado_114085" data-name="Trazado 114085" d="M127.5,83.729a2.346,2.346,0,0,0-2.283.024.288.288,0,0,0,0,.492,2.345,2.345,0,0,0,2.283.023.317.317,0,0,0,0-.538" transform="translate(-73.472 -49.014)" fill="#fff9df"/>
          <path id="Trazado_114086" data-name="Trazado 114086" d="M98.174,113.832a5.313,5.313,0,0,0-4.7.33.2.2,0,0,0,.1.371c.75.007,1.5-.18,2.245-.245a12.933,12.933,0,0,0,2.324-.19.147.147,0,0,0,.035-.267" transform="translate(-54.848 -66.626)" fill="#fff9df"/>
          <path id="Trazado_114087" data-name="Trazado 114087" d="M98.748,141.446c-1.752-1-4.86.124-6.6.739-.478.169-.286.915.212.768a19.581,19.581,0,0,1,3.5-.708,7.945,7.945,0,0,0,2.885-.421.221.221,0,0,0,0-.378" transform="translate(-53.966 -82.85)" fill="#fff9df"/>
          <path id="Trazado_114088" data-name="Trazado 114088" d="M112.995,142.488a1.462,1.462,0,0,0-.693-.168c-.321,0-.639.041-.958.07a.259.259,0,0,0,0,.517c.279.025.559.059.838.068a1.593,1.593,0,0,0,.448-.007,2.766,2.766,0,0,0,.365-.159.187.187,0,0,0,0-.321" transform="translate(-65.256 -83.598)" fill="#fff9df"/>
          <path id="Trazado_114089" data-name="Trazado 114089" d="M98.03,165.562c-1.222-.613-3.093-.082-4.309.344a.292.292,0,0,0,.155.563,15.207,15.207,0,0,1,2.25-.319,7.625,7.625,0,0,0,1.843-.128.254.254,0,0,0,.06-.461" transform="translate(-54.931 -97.087)" fill="#fff9df"/>
          <path id="Trazado_114090" data-name="Trazado 114090" d="M109.836,167.46a2.368,2.368,0,0,0-1.186-.274c-.252-.026-.311.407-.06.443a2.381,2.381,0,0,0,1.246.014c.082-.035.055-.142,0-.184" transform="translate(-63.691 -98.204)" fill="#fff9df"/>
          <path id="Trazado_114091" data-name="Trazado 114091" d="M39.018,105.478a14.616,14.616,0,0,0-2.459,2.543c-.973,1.029-2.039,1.955-3.031,2.962a.14.14,0,0,0,.169.219,16.151,16.151,0,0,0,3.169-2.327,8.294,8.294,0,0,0,2.532-3.1.261.261,0,0,0-.38-.292" transform="translate(-19.67 -61.936)" fill="#fcca92"/>
          <path id="Trazado_114092" data-name="Trazado 114092" d="M51.234,96.26c-.024-.206-.21-.427-.445-.339a1.722,1.722,0,0,0-.83.71,3.443,3.443,0,0,0-.549,1.183c-.05.354.306.79.682.525a3.123,3.123,0,0,0,.755-.885,1.959,1.959,0,0,0,.386-1.194" transform="translate(-29.021 -56.332)" fill="#fcca92"/>
          <path id="Trazado_114093" data-name="Trazado 114093" d="M29.452,161.247c-.729-.958-1.581-1.813-2.262-2.806a21.376,21.376,0,0,1-1.577-3.278.354.354,0,0,0-.655.177,8.153,8.153,0,0,0,4.176,6.224c.184.082.476-.11.318-.318" transform="translate(-14.66 -91.042)" fill="#fcca92"/>
          <path id="Trazado_114094" data-name="Trazado 114094" d="M40.354,172.092a6.065,6.065,0,0,0-1.228-.4,3.823,3.823,0,0,0-1.28-.007.254.254,0,0,0-.06.461,4.147,4.147,0,0,0,1.133.3,5.051,5.051,0,0,0,1.4-.073.14.14,0,0,0,.037-.274" transform="translate(-22.123 -100.814)" fill="#fcca92"/>
        </g>
      </g>
    </g>
  </g>
</svg>
