<svg xmlns="http://www.w3.org/2000/svg" xmlns:xlink="http://www.w3.org/1999/xlink" width="135.636" height="135.636" viewBox="0 0 135.636 135.636">
  <defs>
    <clipPath id="clip-path">
      <rect id="Rect치ngulo_33848" data-name="Rect치ngulo 33848" width="135.636" height="135.636" fill="none"/>
    </clipPath>
    <clipPath id="clip-path-2">
      <rect id="Rect치ngulo_34577" data-name="Rect치ngulo 34577" width="62.507" height="98.908" fill="none"/>
    </clipPath>
  </defs>
  <g id="Grupo_930024" data-name="Grupo 930024" transform="translate(0)">
    <g id="Grupo_80333" data-name="Grupo 80333" transform="translate(0)" clip-path="url(#clip-path)">
      <path id="Trazado_113701" data-name="Trazado 113701" d="M135.636,67.818A67.818,67.818,0,1,1,67.818,0a67.818,67.818,0,0,1,67.818,67.818" fill="#4db1f0"/>
      <g id="Grupo_82197" data-name="Grupo 82197" transform="translate(33.685 18.364)">
        <g id="Grupo_82197-2" data-name="Grupo 82197" clip-path="url(#clip-path-2)">
          <path id="Trazado_114095" data-name="Trazado 114095" d="M95.4,24.793c3.144,4.012,5.961,13.7,7.251,18.787a11.718,11.718,0,0,1,.974,1.815c.175-5.042.161-13.72-1.429-17.787C99.877,21.689,84.1,3.636,81.28,2.36a3.339,3.339,0,0,0-1.392-.3,3.981,3.981,0,0,0-3.183,1.7,3.663,3.663,0,0,0-.45,3.425,33.583,33.583,0,0,0,3.014,5.231c6.794,4.367,13.964,9.617,16.129,12.379" transform="translate(-42.225 -1.144)" fill="#ffdcad"/>
          <path id="Trazado_114096" data-name="Trazado 114096" d="M60.821,26.131C58.558,20.346,42.794,1.906,39.433.381A4.261,4.261,0,0,0,37.664,0a4.908,4.908,0,0,0-3.931,2.085,4.558,4.558,0,0,0-.565,4.26,23.177,23.177,0,0,0,2.046,3.764c-5.207-3.257-9.892-5.795-11.5-6.012a4.924,4.924,0,0,0-4.933,2.745A4.855,4.855,0,0,0,19.208,12c1.177,1.6,4.872,4.635,8.783,7.845,3.75,3.077,7.608,6.244,9.1,8.049-4.439-1.9-9.2-3.507-12.633-3.507a6.4,6.4,0,0,0-3.11.664C16.18,27.924.925,41.7.509,45.033a7.932,7.932,0,0,0,1.977,5.821A4.606,4.606,0,0,0,5.852,52.6h0a3.44,3.44,0,0,0,.639-.06c1.326-.248,3.706-2.132,6.72-4.518,4.295-3.4,9.667-7.677,12.588-7.339,1.51.174,3.11,1.588,4.5,3.981,2.494,4.277,3.556,10.357,2.321,13.277-1.986,4.7-4.4,7.823-9.748,7.823a17.473,17.473,0,0,1-3.164-.317c-6.669-1.241-8.181-5.251-9.284-8.18-.232-.616-.451-1.2-.7-1.686C8.873,53.857,6.168,52.4,3.828,52.4A3.044,3.044,0,0,0,.516,54.713,35.018,35.018,0,0,0,2.287,73.062,25.761,25.761,0,0,0,18.912,88.7a20.694,20.694,0,0,1,8.71,5.619c1.953,1.872,3.8,3.64,6.685,4.306a12.734,12.734,0,0,0,2.832.287c5.49,0,13.846-2.587,20.137-8.368,5.307-4.877,4.778-11.787,4.267-18.47a52.515,52.515,0,0,1-.231-7.5c.161-2.3.392-4.41.615-6.446.486-4.435.885-8.095.265-11.279.251-4.057.623-15.619-1.369-20.711M37.138,97.993a11.8,11.8,0,0,1-2.627-.263c-2.641-.609-4.316-2.216-6.257-4.075a21.468,21.468,0,0,0-9.072-5.833A24.864,24.864,0,0,1,3.14,72.731,34.545,34.545,0,0,1,1.41,54.912a2.188,2.188,0,0,1,2.417-1.6c2,0,4.376,1.249,5.088,2.673.224.447.434,1.007.658,1.6,1.114,2.955,2.8,7.422,9.974,8.757a18.347,18.347,0,0,0,3.332.332c6.192,0,8.749-4.029,10.591-8.382,1.518-3.588-.05-10.109-2.373-14.094-1.544-2.648-3.387-4.22-5.19-4.428-3.25-.383-8.589,3.832-13.261,7.53-2.683,2.123-5.218,4.13-6.321,4.336a2.577,2.577,0,0,1-.471.044h0a3.717,3.717,0,0,1-2.68-1.435,7.069,7.069,0,0,1-1.754-5.1c.357-2.857,14.926-16.266,20.38-19.3a5.53,5.53,0,0,1,2.666-.549c7.732,0,22.627,8.518,24.3,9.49l1.094.633c5.44,3.144,9.37,5.416,10.956,9.821,1.23,3.417.777,7.547.2,12.776-.225,2.045-.456,4.161-.618,6.483a53.242,53.242,0,0,0,.231,7.636c.495,6.465,1.007,13.149-3.973,17.726-6.077,5.584-14.377,8.127-19.518,8.127M38.36,28.086c-1.01-1.746-5.274-5.245-9.788-8.95-3.7-3.033-7.517-6.169-8.626-7.68a3.907,3.907,0,0,1-.35-4.2A4,4,0,0,1,23.59,5c3.241.437,24.718,13.92,28.863,19.209,2.666,3.4,5.144,11.238,6.565,16.463-2.109-2.228-5.078-3.951-8.7-6.046L49.223,34c-.88-.511-5.376-3.084-10.61-5.439-.085-.169-.17-.33-.253-.474M34.481,2.613a3.982,3.982,0,0,1,3.183-1.7,3.344,3.344,0,0,1,1.392.3c2.816,1.277,18.6,19.33,20.913,25.249,1.591,4.067,1.6,12.745,1.43,17.787a11.7,11.7,0,0,0-.974-1.815c-1.29-5.088-4.107-14.776-7.251-18.788-2.165-2.762-9.335-8.012-16.129-12.379A33.6,33.6,0,0,1,34.03,6.039a3.664,3.664,0,0,1,.45-3.426" transform="translate(0)" fill="#d79054"/>
          <path id="Trazado_114097" data-name="Trazado 114097" d="M73.137,40.214l1.092.632c3.625,2.095,6.593,3.818,8.7,6.046-1.42-5.225-3.9-13.062-6.565-16.463C72.222,25.139,50.745,11.656,47.5,11.219A4,4,0,0,0,43.51,13.47a3.907,3.907,0,0,0,.35,4.2c1.109,1.51,4.93,4.646,8.626,7.68,4.515,3.7,8.779,7.2,9.788,8.95.084.144.168.3.254.474,5.234,2.355,9.729,4.928,10.609,5.439" transform="translate(-23.915 -6.215)" fill="#ffdcad"/>
          <path id="Trazado_114098" data-name="Trazado 114098" d="M61.782,103.75a53.245,53.245,0,0,1-.232-7.636c.162-2.322.394-4.437.618-6.483.573-5.229,1.027-9.359-.2-12.776-1.586-4.406-5.517-6.677-10.956-9.821L49.915,66.4c-1.673-.971-16.568-9.49-24.3-9.49a5.53,5.53,0,0,0-2.666.549C17.5,60.49,2.926,73.9,2.569,76.757a7.069,7.069,0,0,0,1.755,5.1A3.719,3.719,0,0,0,7,83.294H7a2.584,2.584,0,0,0,.471-.044c1.1-.207,3.638-2.213,6.321-4.336,4.672-3.7,10.011-7.913,13.261-7.53,1.8.208,3.647,1.781,5.19,4.428,2.323,3.985,3.891,10.507,2.373,14.094-1.841,4.353-4.4,8.382-10.591,8.382a18.347,18.347,0,0,1-3.332-.332c-7.177-1.335-8.86-5.8-9.974-8.757-.224-.593-.434-1.153-.658-1.6-.712-1.424-3.09-2.673-5.088-2.673a2.188,2.188,0,0,0-2.417,1.6,34.549,34.549,0,0,0,1.729,17.819,24.866,24.866,0,0,0,16.043,15.091,21.471,21.471,0,0,1,9.072,5.833c1.94,1.859,3.615,3.465,6.257,4.075a11.8,11.8,0,0,0,2.627.263c5.141,0,13.441-2.543,19.518-8.127,4.981-4.577,4.468-11.261,3.974-17.726" transform="translate(-1.153 -31.61)" fill="#ffdcad"/>
          <path id="Trazado_114099" data-name="Trazado 114099" d="M68.74,34.936c-1.416-.958-2.9-1.809-4.364-2.7A98.99,98.99,0,0,1,46.444,18.288a9.581,9.581,0,0,1-2.038-2.549,4.214,4.214,0,0,1-.375-1.207,4.318,4.318,0,0,0-.521.8,3.907,3.907,0,0,0,.35,4.2c1.109,1.51,4.93,4.646,8.626,7.679,4.515,3.7,8.779,7.2,9.789,8.95.084.144.168.305.253.474,5.233,2.356,9.729,4.928,10.609,5.439l1.092.633c1.656.957,3.167,1.836,4.529,2.721A34.635,34.635,0,0,0,68.74,34.936" transform="translate(-23.915 -8.071)" fill="#fcca92"/>
          <path id="Trazado_114100" data-name="Trazado 114100" d="M103.622,45.9c.02-.569.037-1.185.05-1.834q-.573-2.193-1.166-4.381l-1.2-4.468a35.847,35.847,0,0,0-1.417-4.476c-2.662-6.4-8.686-10.634-13.3-15.809A84.132,84.132,0,0,1,78.836,4.126a6.8,6.8,0,0,1-.614-1.151A4.079,4.079,0,0,0,76.7,4.266a3.664,3.664,0,0,0-.45,3.426,33.615,33.615,0,0,0,3.014,5.231C86.062,17.29,93.232,22.539,95.4,25.3c3.144,4.011,5.96,13.7,7.251,18.787a11.7,11.7,0,0,1,.974,1.815" transform="translate(-42.224 -1.652)" fill="#fcca92"/>
          <path id="Trazado_114101" data-name="Trazado 114101" d="M41.058,94.421a19.821,19.821,0,0,0-.879-4.776,21.078,21.078,0,0,0-1.881-3.7c-1.256-2.108-2.6-4.29-4.693-5.574-2.792-1.713-6.443-1.468-9.453-.176s-5.52,3.5-7.974,5.668L9.454,91.811a16.386,16.386,0,0,1-2.832,2.117c.076.1.147.2.227.288a3.719,3.719,0,0,0,2.68,1.436h0A2.547,2.547,0,0,0,10,95.607c1.1-.207,3.638-2.213,6.321-4.336,4.672-3.7,10.011-7.913,13.261-7.53,1.8.208,3.647,1.781,5.19,4.428,2.323,3.985,3.891,10.507,2.374,14.094-1.842,4.353-4.4,8.382-10.591,8.382a18.2,18.2,0,0,1-3.169-.3,13.126,13.126,0,0,0,4.7,1.157c3.215.261,6.664-.228,9.164-2.266a11.435,11.435,0,0,0,3.735-6.86,28.964,28.964,0,0,0,.068-7.949" transform="translate(-3.678 -43.966)" fill="#fcca92"/>
          <path id="Trazado_114102" data-name="Trazado 114102" d="M38.291,165.018c4.833,0,12.459-2.25,18.4-7.159a35.794,35.794,0,0,1-7.753,1.458,29.327,29.327,0,0,1-18.81-4.871,23.4,23.4,0,0,0-4.662-2.968c-2.027-.792-4.278-.728-6.405-1.187-4.694-1.012-8.535-4.561-10.944-8.715s-3.574-8.9-4.578-13.593c-.517-2.419-.975-5.039-.059-7.308a1.822,1.822,0,0,0-.921,1.263,34.545,34.545,0,0,0,1.729,17.819,24.864,24.864,0,0,0,16.043,15.091,21.468,21.468,0,0,1,9.072,5.833c1.941,1.859,3.616,3.465,6.257,4.075a11.8,11.8,0,0,0,2.627.263" transform="translate(-1.153 -67.026)" fill="#fcca92"/>
          <path id="Trazado_114103" data-name="Trazado 114103" d="M25.54,73.638c-1.325.442-2.377,1.769-3.3,2.767a18.117,18.117,0,0,0-2.865,3.716.215.215,0,0,0,.337.26c1.191-.965,2.2-2.141,3.289-3.215.952-.939,2.3-1.873,2.871-3.1.1-.214-.065-.519-.331-.43" transform="translate(-10.745 -40.892)" fill="#fff9df"/>
          <path id="Trazado_114104" data-name="Trazado 114104" d="M37.74,67.686a1.507,1.507,0,0,0-.922.578,4.1,4.1,0,0,0-.717.914.3.3,0,0,0,.4.4,4.135,4.135,0,0,0,.927-.7,1.491,1.491,0,0,0,.589-.91.278.278,0,0,0-.279-.279" transform="translate(-20.03 -37.595)" fill="#fff9df"/>
          <path id="Trazado_114105" data-name="Trazado 114105" d="M78.266,28.548c-.874-1.2-2.373-1.882-3.62-2.65-1.6-.982-3.272-1.793-4.944-2.629a.086.086,0,0,0-.087.148c1.4.9,2.757,1.857,4.125,2.8,1.323.909,2.7,2.239,4.251,2.689.191.056.4-.179.274-.357" transform="translate(-38.644 -12.918)" fill="#fff9df"/>
          <path id="Trazado_114106" data-name="Trazado 114106" d="M94.212,38.5a2.476,2.476,0,0,0-.67-.84,3.715,3.715,0,0,0-1.1-.593c-.265-.084-.557.253-.38.493A2.993,2.993,0,0,0,93.986,38.8a.2.2,0,0,0,.226-.294" transform="translate(-51.104 -20.582)" fill="#fff9df"/>
          <path id="Trazado_114107" data-name="Trazado 114107" d="M99.455,17.148a11.871,11.871,0,0,0-3.349-4.086c-.145-.112-.336.1-.245.245a23.246,23.246,0,0,0,3.313,4.058.18.18,0,0,0,.281-.217" transform="translate(-53.231 -7.238)" fill="#fff9df"/>
          <path id="Trazado_114108" data-name="Trazado 114108" d="M19.92,133.44c-.487-1.038-1.2-1.957-1.743-2.968a10.609,10.609,0,0,0-1.467-2.7c-.062-.06-.2-.044-.215.057a5.208,5.208,0,0,0,.776,2.727,9.482,9.482,0,0,0,2.177,3.245.3.3,0,0,0,.472-.364" transform="translate(-9.151 -70.95)" fill="#fff9df"/>
          <path id="Trazado_114109" data-name="Trazado 114109" d="M28.57,145.276A8.038,8.038,0,0,0,27,144.1c-.419-.324-.979.188-.6.6a2.666,2.666,0,0,0,1.967,1.071.289.289,0,0,0,.2-.488" transform="translate(-14.593 -79.978)" fill="#fff9df"/>
          <path id="Trazado_114110" data-name="Trazado 114110" d="M118.238,88.07a8.1,8.1,0,0,0-2.529-1.614,22.8,22.8,0,0,0-3.126-1.36c-.132-.042-.25.146-.139.239a20.037,20.037,0,0,0,2.453,1.683,9.41,9.41,0,0,0,3.084,1.5.267.267,0,0,0,.257-.442" transform="translate(-62.43 -47.261)" fill="#fff9df"/>
          <path id="Trazado_114111" data-name="Trazado 114111" d="M129.689,96.485c-.1-.4-.393-.548-.714-.772-.357-.249-.741-.455-1.1-.709-.193-.137-.481.14-.333.333.444.578,1.147,1.606,1.978,1.438a.238.238,0,0,0,.165-.29" transform="translate(-70.82 -52.748)" fill="#fff9df"/>
          <path id="Trazado_114112" data-name="Trazado 114112" d="M79.1,135.388c-1.355,1.163-2,3.113-2.877,4.641-1.214,2.118-3.017,4.014-5.6,4.13-.146.007-.193.241-.036.267a5.754,5.754,0,0,0,5.069-1.858,13.574,13.574,0,0,0,2.109-3.012,11.511,11.511,0,0,0,1.847-3.868.31.31,0,0,0-.514-.3" transform="translate(-39.153 -75.151)" fill="#fcca92"/>
          <path id="Trazado_114113" data-name="Trazado 114113" d="M94.221,130.8a.315.315,0,0,0-.629,0,14.455,14.455,0,0,1-.26,2.725A11.412,11.412,0,0,0,92.9,135.7c0,.223.316.4.476.2,1.037-1.292.966-3.53.843-5.093" transform="translate(-51.601 -72.483)" fill="#fcca92"/>
          <path id="Trazado_114114" data-name="Trazado 114114" d="M111.447,199.439c-2.455.462-5.475,2.146-7.958,1.2-.232-.088-.344.255-.16.379,2.336,1.58,6.26.487,8.333-1.074a.28.28,0,0,0-.215-.509" transform="translate(-57.341 -110.77)" fill="#fcca92"/>
          <path id="Trazado_114115" data-name="Trazado 114115" d="M122.166,194.756c-.426-.173-.828.088-1.215.26a9.169,9.169,0,0,0-1.3.767.322.322,0,0,0,.325.555c.416-.18.842-.333,1.257-.512.4-.17.89-.282,1.085-.7a.256.256,0,0,0-.149-.368" transform="translate(-66.369 -108.141)" fill="#fcca92"/>
          <path id="Trazado_114116" data-name="Trazado 114116" d="M109.287,62.241a7.343,7.343,0,0,0-2.109-1.872,27.771,27.771,0,0,0-3.053-2.158.172.172,0,0,0-.208.269,25.048,25.048,0,0,0,2.458,2.314,8.339,8.339,0,0,0,2.548,1.918.324.324,0,0,0,.363-.473" transform="translate(-57.694 -32.319)" fill="#fcca92"/>
          <path id="Trazado_114117" data-name="Trazado 114117" d="M113.563,61.539a4.915,4.915,0,0,1-1.033-1.024c-.148-.22-.5-.02-.358.209a2.467,2.467,0,0,0,1.231,1.09.165.165,0,0,0,.16-.275" transform="translate(-62.285 -33.559)" fill="#fcca92"/>
          <path id="Trazado_114118" data-name="Trazado 114118" d="M126.408,53.748a1.439,1.439,0,0,0-.213-.6,7.824,7.824,0,0,0-.548-.6,3.862,3.862,0,0,0-1.276-.8c-.267-.105-.438.324-.193.457a3.04,3.04,0,0,1,.96.855c.148.188.283.383.418.581a1.622,1.622,0,0,0,.505.373.238.238,0,0,0,.347-.266" transform="translate(-68.906 -28.733)" fill="#fcca92"/>
        </g>
      </g>
    </g>
  </g>
</svg>
