<svg xmlns="http://www.w3.org/2000/svg" xmlns:xlink="http://www.w3.org/1999/xlink" width="104.364" height="104.364" viewBox="0 0 104.364 104.364">
  <defs>
    <clipPath id="clip-path">
      <rect id="Rect치ngulo_33849" data-name="Rect치ngulo 33849" width="104.364" height="104.364" fill="none"/>
    </clipPath>
    <clipPath id="clip-path-2">
      <rect id="Rect치ngulo_34578" data-name="Rect치ngulo 34578" width="47.834" height="77.849" fill="none"/>
    </clipPath>
  </defs>
  <g id="Grupo_930025" data-name="Grupo 930025" transform="translate(0 0)">
    <g id="Grupo_80335" data-name="Grupo 80335" transform="translate(0 0)" clip-path="url(#clip-path)">
      <path id="Trazado_113704" data-name="Trazado 113704" d="M104.364,52.182A52.182,52.182,0,1,1,52.182,0a52.182,52.182,0,0,1,52.182,52.182" transform="translate(0)" fill="#4db1f0"/>
      <g id="Grupo_82199" data-name="Grupo 82199" transform="translate(28.265 14.975)">
        <g id="Grupo_82198" data-name="Grupo 82198" clip-path="url(#clip-path-2)">
          <path id="Trazado_114119" data-name="Trazado 114119" d="M55.855,5.48C54.012,8.754,49.8,29.668,48.337,37.7c.1.711.187,1.305.25,1.756,3.63-.581,7.193-.958,9.157-.64-.459-5.216-.34-10.92,1.142-12.41a3.433,3.433,0,0,1,2.109-.91c1.262-7.21,2.3-14.765,1.736-17.688-.58-3.02-1.921-4.822-3.586-4.822-1.183,0-2.412.931-3.289,2.491" transform="translate(-30.304 -1.874)" fill="#ffdcad"/>
          <path id="Trazado_114120" data-name="Trazado 114120" d="M46.751,109.117a4.127,4.127,0,0,1-3.627,2.331h0a3.689,3.689,0,0,1-3.1-1.675,12.384,12.384,0,0,1-1.043-3.69,10.455,10.455,0,0,1-.821,2.486,4.66,4.66,0,0,1-4.094,2.634,4.159,4.159,0,0,1-3.5-1.889,2.951,2.951,0,0,1-.2-.389,9.605,9.605,0,0,1-3.262,2.955,25.449,25.449,0,0,1-10.955,2.739.384.384,0,0,1,0-.768,25.146,25.146,0,0,0,10.585-2.645c3.12-1.716,4.719-5.191,4.461-7.559a2.9,2.9,0,0,0-2.1-2.669c-3.85-1.129-19.393,2.5-20.826,2.836-3.233,3.252-6.531,7.855-6.179,11.115.952,8.81,10.145,23.69,15.369,24.877a27.808,27.808,0,0,0,5.611.446c7.6,0,17.36-1.5,20.484-4.274,3.55-3.156,3.652-3.764,4.14-6.685.1-.617.22-1.316.389-2.16.677-3.387.065-13.644-.576-20.331a9.511,9.511,0,0,1-.752,2.316M20.617,131.765a.384.384,0,0,1-.345.215.379.379,0,0,1-.168-.039.384.384,0,0,1-.176-.514A16.139,16.139,0,0,0,19.64,116.9a.384.384,0,0,1,.676-.364,16.918,16.918,0,0,1,.3,15.226m20.09-17.1a23.74,23.74,0,0,1-8.56,2.6q-.545.036-1.087.036a33.74,33.74,0,0,1-7.972-1.285.384.384,0,1,1,.183-.747,29.174,29.174,0,0,0,8.824,1.229,23.019,23.019,0,0,0,8.278-2.523.384.384,0,0,1,.335.692" transform="translate(-1.292 -63.17)" fill="#ffdcad"/>
          <path id="Trazado_114121" data-name="Trazado 114121" d="M25.013,39c-.709-4.987-4.108-28.637-5.4-32.959-.7-2.345-2.4-3.983-4.136-3.983-1.474,0-2.641,1.181-3.2,3.24-1.34,4.913,1.874,32.079,2.325,35.814,1.392-.327,5.871-1.352,10.419-2.112" transform="translate(-7.489 -1.291)" fill="#ffdcad"/>
          <path id="Trazado_114122" data-name="Trazado 114122" d="M.031,51.841c1,9.239,10.4,24.279,15.962,25.544a28.167,28.167,0,0,0,5.781.464c7.74,0,17.729-1.566,20.994-4.468,3.752-3.336,3.887-4.14,4.388-7.132.1-.611.218-1.3.384-2.136.722-3.609-.01-16.96-.832-23.459.537-4.309.554-9.653-.4-11.12a7.535,7.535,0,0,0-5.753-2.756,3.375,3.375,0,0,0-2.356.785,3.375,3.375,0,0,0-.363-.851c-1.078-1.652-3.949-3.051-6.348-3.116,1.258-7.22,2.278-14.776,1.7-17.8C32.524,2.382,30.9.347,28.84.347c-1.486,0-2.929,1.051-3.959,2.882-1.875,3.333-5.452,21.305-7.166,30.4-1.234-8.518-3.755-25.415-4.86-29.1C12.042,1.821,10.085,0,7.984,0,6.137,0,4.7,1.387,4.04,3.806,2.612,9.043,6.027,37.334,6.373,40.157,4.6,41.954-.44,47.481.031,51.841M4.781,4.008C5.342,1.949,6.51.768,7.984.768c1.732,0,3.433,1.638,4.136,3.983,1.3,4.322,4.7,27.972,5.4,32.959C12.977,38.47,8.5,39.5,7.106,39.822c-.451-3.736-3.665-30.9-2.325-35.814m27.645,1.93c.562,2.924-.474,10.479-1.736,17.688a3.434,3.434,0,0,0-2.109.91c-1.482,1.489-1.6,7.194-1.142,12.41-1.963-.317-5.527.059-9.157.64-.064-.451-.148-1.045-.25-1.756,1.462-8.036,5.675-28.95,7.518-32.224.877-1.559,2.107-2.491,3.29-2.491,1.665,0,3.005,1.8,3.586,4.822m8.125,21.608a6.9,6.9,0,0,1,5.109,2.407c1.207,1.85.585,12.949-.876,15.627a3.383,3.383,0,0,1-2.952,1.931h0a2.924,2.924,0,0,1-2.459-1.327A17.488,17.488,0,0,1,38.1,40.7a44.713,44.713,0,0,0,.317-12.173,1.61,1.61,0,0,1,.255-.368,2.664,2.664,0,0,1,1.877-.617m6.235,36.416c-.169.845-.286,1.543-.389,2.16-.489,2.921-.591,3.529-4.14,6.685-3.124,2.776-12.885,4.274-20.484,4.274a27.811,27.811,0,0,1-5.611-.446C10.939,75.448,1.747,60.569.794,51.758.442,48.5,3.741,43.9,6.973,40.643,8.407,40.3,23.949,36.679,27.8,37.808a2.9,2.9,0,0,1,2.1,2.669c.258,2.368-1.34,5.843-4.461,7.559a25.147,25.147,0,0,1-10.585,2.645.384.384,0,1,0,0,.768,25.451,25.451,0,0,0,10.955-2.739,9.605,9.605,0,0,0,3.262-2.955,2.951,2.951,0,0,0,.2.389,4.158,4.158,0,0,0,3.5,1.889A4.66,4.66,0,0,0,36.865,45.4a10.455,10.455,0,0,0,.821-2.486,12.4,12.4,0,0,0,1.043,3.69,3.69,3.69,0,0,0,3.1,1.675h0a4.128,4.128,0,0,0,3.627-2.331,9.529,9.529,0,0,0,.752-2.316c.641,6.687,1.253,16.944.576,20.331m-10.6-18.931a3.915,3.915,0,0,1-3.42,2.234,3.392,3.392,0,0,1-2.854-1.541,3.66,3.66,0,0,1-.339-.782,7.945,7.945,0,0,0,1.085-4.548,3.638,3.638,0,0,0-2.415-3.237c-.483-5.08-.466-10.729.878-12.08a3.094,3.094,0,0,1,2.183-.72c2.169,0,4.916,1.3,5.88,2.773,1.428,2.19.728,14.737-1,17.9" transform="translate(0)" fill="#d79054"/>
          <path id="Trazado_114123" data-name="Trazado 114123" d="M102.131,86.993a17.48,17.48,0,0,0,1.271,5.48,2.924,2.924,0,0,0,2.459,1.327h0a3.382,3.382,0,0,0,2.953-1.931c1.461-2.677,2.083-13.776.876-15.626a6.9,6.9,0,0,0-5.109-2.407,2.664,2.664,0,0,0-1.877.617,1.607,1.607,0,0,0-.256.368,44.726,44.726,0,0,1-.317,12.173" transform="translate(-64.029 -46.29)" fill="#ffdcad"/>
          <path id="Trazado_114124" data-name="Trazado 114124" d="M78.294,65.288a3.1,3.1,0,0,0-2.183.72c-1.344,1.351-1.361,7-.878,12.08a3.638,3.638,0,0,1,2.415,3.237,7.948,7.948,0,0,1-1.085,4.548,3.644,3.644,0,0,0,.339.782A3.392,3.392,0,0,0,79.756,88.2a3.915,3.915,0,0,0,3.42-2.234c1.727-3.165,2.426-15.712,1-17.9-.964-1.477-3.711-2.773-5.88-2.773" transform="translate(-46.985 -40.931)" fill="#ffdcad"/>
          <path id="Trazado_114125" data-name="Trazado 114125" d="M49.258,142.561a.383.383,0,0,0-.156.52A16.139,16.139,0,0,1,49.39,157.6a.384.384,0,0,0,.176.514.379.379,0,0,0,.169.039.384.384,0,0,0,.345-.215,16.917,16.917,0,0,0-.3-15.226.383.383,0,0,0-.52-.156" transform="translate(-30.755 -89.347)" fill="#d79054"/>
          <path id="Trazado_114126" data-name="Trazado 114126" d="M75.218,136.105a23.021,23.021,0,0,1-8.278,2.523,29.178,29.178,0,0,1-8.825-1.229.384.384,0,0,0-.183.746,33.721,33.721,0,0,0,7.972,1.286q.542,0,1.087-.036a23.743,23.743,0,0,0,8.56-2.6.384.384,0,0,0-.335-.692" transform="translate(-36.137 -85.305)" fill="#d79054"/>
          <path id="Trazado_114127" data-name="Trazado 114127" d="M19.449,40.127c-.342-.791-.724-1.571-1.054-2.363a34.385,34.385,0,0,1-1.934-7.653q-1.2-7.27-1.762-14.624a52.617,52.617,0,0,1,.28-13.3c-1.24.236-2.212,1.369-2.709,3.192-1.34,4.913,1.874,32.079,2.325,35.815.8-.187,2.6-.6,4.854-1.066" transform="translate(-7.489 -1.371)" fill="#fcca92"/>
          <path id="Trazado_114128" data-name="Trazado 114128" d="M59.973,3.151a2.26,2.26,0,0,0-.829-.162c-1.183,0-2.413.931-3.29,2.491C54.011,8.754,49.8,29.668,48.336,37.7c.1.711.187,1.305.25,1.756,2.145-.343,4.263-.614,6.045-.713.155-2.63-.156-5.339-.239-7.99A71.07,71.07,0,0,1,55.859,15.7c.8-4.355,1.812-8.784,4.114-12.552" transform="translate(-30.303 -1.874)" fill="#fcca92"/>
          <path id="Trazado_114129" data-name="Trazado 114129" d="M78.6,83.592a17.927,17.927,0,0,1-.9-5.67,55.828,55.828,0,0,1,.338-8.191,10.842,10.842,0,0,1,.87-3.564,5.243,5.243,0,0,1,.472-.78,6.58,6.58,0,0,0-1.085-.1,3.1,3.1,0,0,0-2.183.72c-1.344,1.351-1.361,7-.878,12.081a3.638,3.638,0,0,1,2.415,3.236,7.95,7.95,0,0,1-1.085,4.548,3.652,3.652,0,0,0,.339.782,3.393,3.393,0,0,0,2.854,1.54,3.522,3.522,0,0,0,1.944-.584,7.928,7.928,0,0,1-3.1-4.02" transform="translate(-46.985 -40.931)" fill="#fcca92"/>
          <path id="Trazado_114130" data-name="Trazado 114130" d="M106.613,92.946c-1.79-1.553-1.985-4.213-2.05-6.581l-.182-6.706c-.054-2,.01-4.264,1.3-5.709a5.837,5.837,0,0,0-1.1-.113,2.664,2.664,0,0,0-1.877.616,1.61,1.61,0,0,0-.256.369,44.709,44.709,0,0,1-.317,12.172,17.5,17.5,0,0,0,1.271,5.48A2.924,2.924,0,0,0,105.86,93.8h0a3.012,3.012,0,0,0,1.413-.357,7.122,7.122,0,0,1-.661-.5" transform="translate(-64.029 -46.29)" fill="#fcca92"/>
          <path id="Trazado_114131" data-name="Trazado 114131" d="M61.813,111.3a4.127,4.127,0,0,1-3.627,2.331h0a3.689,3.689,0,0,1-3.1-1.675,12.384,12.384,0,0,1-1.043-3.69,10.455,10.455,0,0,1-.821,2.486,4.66,4.66,0,0,1-4.094,2.634,4.159,4.159,0,0,1-3.5-1.889,2.951,2.951,0,0,1-.2-.389,9.605,9.605,0,0,1-3.262,2.955A25.449,25.449,0,0,1,31.208,116.8a.384.384,0,0,1,0-.768,25.146,25.146,0,0,0,10.585-2.645c3.12-1.716,4.719-5.191,4.461-7.559a3.454,3.454,0,0,0-.554-1.589c-.306,3.1-2.844,5.771-5.755,7.052-3.2,1.409-6.8,1.525-10.287,1.771-1.541.108-3.52.679-3.571,2.222-.032.971.78,1.73,1.475,2.41a18.294,18.294,0,0,1,5.031,16.51c-.178.853-.372,1.874.25,2.485.955.939,2.509-.159,3.276-1.256a22.616,22.616,0,0,0,3.534-8.043c.309-1.4.561-2.956,1.675-3.853,1.339-1.077,3.269-.709,4.986-.686,2.249.031,4.448-.628,6.689-.816s4.734.21,6.21,1.907a6.86,6.86,0,0,1,1.451,3.923,17.026,17.026,0,0,1-3.35,11.025c-.062.088-.129.172-.192.26a7.49,7.49,0,0,0,1.487-.992c3.55-3.156,3.652-3.764,4.14-6.685.1-.617.22-1.316.389-2.16.677-3.387.065-13.644-.576-20.331a9.511,9.511,0,0,1-.752,2.316M35.68,133.946a.384.384,0,0,1-.345.215.379.379,0,0,1-.168-.039.384.384,0,0,1-.176-.514,16.139,16.139,0,0,0-.288-14.524.384.384,0,0,1,.676-.364,16.918,16.918,0,0,1,.3,15.226m20.09-17.1a23.74,23.74,0,0,1-8.56,2.6q-.545.036-1.087.036a33.741,33.741,0,0,1-7.972-1.285.384.384,0,0,1,.183-.747,29.174,29.174,0,0,0,8.824,1.229,23.019,23.019,0,0,0,8.278-2.523.384.384,0,0,1,.335.692" transform="translate(-16.354 -65.351)" fill="#fcca92"/>
          <path id="Trazado_114132" data-name="Trazado 114132" d="M25.713,8.779a3,3,0,0,0-1.731-1.844.109.109,0,0,0-.105.181c1.465,1.409,1.346,3.709,2.718,5.118a.182.182,0,0,0,.307-.127,8.755,8.755,0,0,0-1.189-3.327" transform="translate(-14.95 -4.345)" fill="#fff9df"/>
          <path id="Trazado_114133" data-name="Trazado 114133" d="M31.691,23.8a.21.21,0,0,0-.405.112,3.654,3.654,0,0,0,.565,1.748.193.193,0,0,0,.321-.085,3.636,3.636,0,0,0-.481-1.775" transform="translate(-19.611 -14.827)" fill="#fff9df"/>
          <path id="Trazado_114134" data-name="Trazado 114134" d="M82.31,9.66a.284.284,0,0,0-.471.274c.178.618.414,1.212.554,1.841a5.2,5.2,0,0,0,.356,1.688.236.236,0,0,0,.367.047c.8-1.031,0-3.032-.807-3.851" transform="translate(-51.301 -6.006)" fill="#fff9df"/>
          <path id="Trazado_114135" data-name="Trazado 114135" d="M94.947,71.968l-.274-.322c-.191-.224-.362-.5-.67-.558a.226.226,0,0,0-.281.214,1.137,1.137,0,0,0,.333.714l.249.342a.542.542,0,0,0,.413.26.262.262,0,0,0,.326-.248.48.48,0,0,0-.1-.4" transform="translate(-58.757 -44.564)" fill="#fff9df"/>
          <path id="Trazado_114136" data-name="Trazado 114136" d="M96.439,77.718c-.072-.135-.253-.035-.23.1a18.711,18.711,0,0,1,.333,2.559c.026.886-.226,1.758-.167,2.635a.242.242,0,0,0,.447.121c.836-1.508.392-3.958-.383-5.412" transform="translate(-60.315 -48.684)" fill="#fff9df"/>
          <path id="Trazado_114137" data-name="Trazado 114137" d="M118.028,81.192c-.078-.093-.211.025-.16.123a7.385,7.385,0,0,1,.719,2.515,10.429,10.429,0,0,0,.162,2.209c.041.126.233.213.331.087,1.146-1.47-.045-3.725-1.052-4.935" transform="translate(-73.888 -50.881)" fill="#fff9df"/>
          <path id="Trazado_114138" data-name="Trazado 114138" d="M43.071,103.948c-1.251-.46-2.715-.043-4.01.154a19.972,19.972,0,0,0-5.049,1.348c-.346.152-.083.629.24.57,1.48-.268,2.929-.683,4.411-.953,1.441-.263,3.138-.11,4.454-.778a.188.188,0,0,0-.044-.34" transform="translate(-21.22 -65.038)" fill="#fff9df"/>
          <path id="Trazado_114139" data-name="Trazado 114139" d="M63.114,103.059a3.216,3.216,0,0,0-2.277.049c-.309.1-.377.637,0,.694a3.249,3.249,0,0,0,2.332-.319.271.271,0,0,0-.054-.424" transform="translate(-37.979 -64.49)" fill="#fff9df"/>
          <path id="Trazado_114140" data-name="Trazado 114140" d="M20.425,172.522a20.8,20.8,0,0,0-2.579-3.638c-.98-1.367-1.774-2.848-2.63-4.292-.082-.138-.316-.047-.263.111a23.319,23.319,0,0,0,2.213,4.579,9.878,9.878,0,0,0,2.939,3.561c.221.133.406-.12.32-.32" transform="translate(-9.37 -103.146)" fill="#fff9df"/>
          <path id="Trazado_114141" data-name="Trazado 114141" d="M32.862,189.621c-.359-.377-.7-.776-1.031-1.179-.2-.25-.582.069-.434.334a9.238,9.238,0,0,0,.847,1.26c.318.4.62.828,1.152.893.156.019.236-.155.215-.281-.077-.445-.452-.714-.749-1.027" transform="translate(-19.663 -118.084)" fill="#fff9df"/>
          <path id="Trazado_114142" data-name="Trazado 114142" d="M30.679,151.184c-.432-2.306-2.111-4.242-3.741-5.871-.251-.251-.6.117-.382.382,1.448,1.79,2.423,3.873,3.872,5.635.1.127.276-.013.251-.146" transform="translate(-16.607 -91.049)" fill="#fcca92"/>
          <path id="Trazado_114143" data-name="Trazado 114143" d="M37.847,164.533a6.081,6.081,0,0,0-.489-1.552.387.387,0,0,0-.716.194,5.492,5.492,0,0,0,.213,1.434,1.666,1.666,0,0,0,.631,1.162.207.207,0,0,0,.279-.073,1.5,1.5,0,0,0,.082-1.165" transform="translate(-22.971 -102.059)" fill="#fcca92"/>
        </g>
      </g>
    </g>
  </g>
</svg>
