<svg xmlns="http://www.w3.org/2000/svg" xmlns:xlink="http://www.w3.org/1999/xlink" width="136.041" height="136.04" viewBox="0 0 136.041 136.04">
  <defs>
    <clipPath id="clip-path">
      <rect id="Rect치ngulo_33847" data-name="Rect치ngulo 33847" width="136.041" height="136.04" fill="none"/>
    </clipPath>
    <clipPath id="clip-path-2">
      <rect id="Rect치ngulo_34575" data-name="Rect치ngulo 34575" width="81.855" height="93.885" fill="none"/>
    </clipPath>
  </defs>
  <g id="Grupo_930026" data-name="Grupo 930026" transform="translate(0 0)">
    <g id="Grupo_80331" data-name="Grupo 80331" transform="translate(0 0)" clip-path="url(#clip-path)">
      <path id="Trazado_113698" data-name="Trazado 113698" d="M136.041,68.02A68.02,68.02,0,1,1,68.02,0a68.02,68.02,0,0,1,68.02,68.02" fill="#4db1f0"/>
      <g id="Grupo_82194" data-name="Grupo 82194" transform="translate(18.791 21.078)">
        <g id="Grupo_82194-2" data-name="Grupo 82194" clip-path="url(#clip-path-2)">
          <path id="Trazado_114040" data-name="Trazado 114040" d="M78.49,7.641c-1.622,0-3.188,1.446-4.3,3.967-2.162,4.913-4.619,15.705-5.964,22.075,1.151,5.282.006,17.757-1.881,21.058a5.968,5.968,0,0,1-5.218,3.2,5.409,5.409,0,0,1-4.481-2.308,18.237,18.237,0,0,1-1.633-5.651,16.476,16.476,0,0,1-1.395,4.481A6.392,6.392,0,0,1,48.033,57.9h0a5.789,5.789,0,0,1-4.8-2.471c-1.669-2.431-3.492-15.254-2.736-23-.927-3.5-1.676-7.553-2.412-11.536-.816-4.412-1.659-8.975-2.711-12.551-1.362-4.632-3.858-6.283-5.739-6.283a3.678,3.678,0,0,0-2.671,1.2,7.9,7.9,0,0,0-1.788,5.814c.085,2.557.68,7.945,1.368,14.182,2.7,24.446,3.521,36.187.9,36.791-3.071.71-8.031-2.576-14.745-9.769A7.319,7.319,0,0,0,7.4,48.2c-2.258,0-4.149.849-4.933,2.215-.66,1.149-.5,2.629.462,4.279l.582,1C17.242,79.369,28.235,92.024,36.182,93.309a63.332,63.332,0,0,0,10.086.8c15.316,0,32.14-5.783,32.888-18.479.6-10.139,1.6-33.116,2.27-48.322.311-7.084.556-12.68.649-14.451a5.633,5.633,0,0,0-1.356-4.185A3.1,3.1,0,0,0,78.49,7.641M43.534,83.9a.458.458,0,0,1-.452.39.515.515,0,0,1-.069,0,.459.459,0,0,1-.385-.521,19.282,19.282,0,0,0-8.021-18.418.458.458,0,1,1,.518-.756A20.215,20.215,0,0,1,43.534,83.9M66.909,61.726a60.009,60.009,0,0,1-13.484,2.96q-1.165.085-2.3.085a23.831,23.831,0,0,1-11.277-2.588.458.458,0,0,1,.433-.808,24.018,24.018,0,0,0,13.075,2.4,59.2,59.2,0,0,0,13.276-2.921.458.458,0,0,1,.275.874" transform="translate(-1.146 -1.143)" fill="#ffdcad"/>
          <path id="Trazado_114041" data-name="Trazado 114041" d="M77.343,5.583c-1.176,0-3.407.586-5.136,4.515C70.15,14.775,67.889,24.39,66.5,30.862c-.032-.056-.063-.118-.1-.167-1.424-2.075-5.264-3.829-8.386-3.829a4.9,4.9,0,0,0-3.459,1.143,3.286,3.286,0,0,0-.64.941,2.83,2.83,0,0,0-.147-.254c-1.529-2.226-5.651-4.108-9-4.108a5.242,5.242,0,0,0-3.7,1.221,6.148,6.148,0,0,0-1.359,3.1c-.683-2.933-1.278-6.152-1.864-9.326-.819-4.435-1.668-9.021-2.732-12.643C33.832,2.595,31.358,0,28.492,0a4.634,4.634,0,0,0-3.329,1.48,8.786,8.786,0,0,0-2.045,6.481c.087,2.592.683,8,1.373,14.252.852,7.718,1.817,16.466,2.257,23.562.7,11.341-.416,12.183-.647,12.235a2.977,2.977,0,0,1-.671.073c-1.944,0-5.812-1.661-13.2-9.574a8.132,8.132,0,0,0-5.98-2.365c-2.585,0-4.78,1.025-5.727,2.675-.581,1.011-.971,2.733.466,5.2l.58,1C6.743,63.931,22.485,91.064,34.889,93.07a64.245,64.245,0,0,0,10.233.814c15.731,0,33.02-6.053,33.8-19.342.6-10.146,1.6-33.128,2.271-48.334.31-7.082.555-12.676.648-14.443A6.546,6.546,0,0,0,80.237,6.9a4,4,0,0,0-2.894-1.319m3.586,6.134c-.094,1.771-.339,7.367-.649,14.451-.667,15.205-1.675,38.182-2.271,48.322-.746,12.7-17.572,18.479-32.887,18.479a63.342,63.342,0,0,1-10.086-.8C27.089,90.881,16.1,78.227,2.363,54.555l-.581-1c-.963-1.65-1.123-3.13-.463-4.279.785-1.366,2.675-2.215,4.933-2.215a7.316,7.316,0,0,1,5.31,2.074c6.714,7.193,11.675,10.479,14.745,9.769,2.617-.6,1.793-12.345-.9-36.791-.688-6.238-1.283-11.625-1.368-14.182a7.9,7.9,0,0,1,1.787-5.814,3.679,3.679,0,0,1,2.671-1.2c1.881,0,4.376,1.651,5.739,6.283,1.052,3.577,1.9,8.139,2.71,12.551.736,3.983,1.485,8.032,2.412,11.536-.756,7.747,1.068,20.57,2.736,23a5.791,5.791,0,0,0,4.8,2.471h0a6.393,6.393,0,0,0,5.589-3.432,16.481,16.481,0,0,0,1.395-4.481A18.252,18.252,0,0,0,55.5,54.5,5.411,5.411,0,0,0,59.983,56.8h0A5.967,5.967,0,0,0,65.2,53.6c1.887-3.3,3.032-15.776,1.881-21.058,1.345-6.37,3.8-17.163,5.965-22.075,1.109-2.522,2.676-3.967,4.3-3.967a3.1,3.1,0,0,1,2.229,1.034,5.637,5.637,0,0,1,1.357,4.185M44.766,25.5c3.037,0,6.891,1.733,8.246,3.709,1.989,2.9,1.055,19.48-1.332,23.657a5.5,5.5,0,0,1-4.793,2.971,4.874,4.874,0,0,1-4.041-2.072c-1.888-2.752-4.478-24.111-1.147-27.3a4.366,4.366,0,0,1,3.067-.967m13.249,2.278c2.81,0,6.376,1.6,7.63,3.43,1.843,2.686.975,18.059-1.239,21.933a5.075,5.075,0,0,1-4.423,2.742,4.494,4.494,0,0,1-3.725-1.91c-.644-.939-1.376-4.215-1.891-8.125.757-5.518.911-12.321.011-15.673a3.632,3.632,0,0,1,.811-1.509,4.027,4.027,0,0,1,2.826-.888" transform="translate(0 0)" fill="#d79054"/>
          <path id="Trazado_114042" data-name="Trazado 114042" d="M122.166,80.5c.515,3.91,1.247,7.186,1.891,8.125a4.494,4.494,0,0,0,3.726,1.91,5.074,5.074,0,0,0,4.423-2.742c2.214-3.873,3.082-19.246,1.239-21.933-1.254-1.827-4.82-3.43-7.631-3.43a4.024,4.024,0,0,0-2.825.889,3.624,3.624,0,0,0-.811,1.509c.9,3.351.745,10.155-.011,15.672" transform="translate(-67.799 -34.647)" fill="#ffdcad"/>
          <path id="Trazado_114043" data-name="Trazado 114043" d="M92.844,85.576a4.874,4.874,0,0,0,4.041,2.072h0a5.5,5.5,0,0,0,4.793-2.971C104.066,80.5,105,63.919,103.011,61.02c-1.356-1.975-5.209-3.709-8.246-3.709a4.366,4.366,0,0,0-3.068.967c-3.331,3.186-.741,24.546,1.147,27.3" transform="translate(-49.999 -31.806)" fill="#ffdcad"/>
          <path id="Trazado_114044" data-name="Trazado 114044" d="M75.459,142.463a.458.458,0,1,0-.518.756,19.282,19.282,0,0,1,8.021,18.418.458.458,0,0,0,.385.521.5.5,0,0,0,.069,0,.458.458,0,0,0,.452-.39,20.215,20.215,0,0,0-8.409-19.31" transform="translate(-41.48 -79.02)" fill="#d79054"/>
          <path id="Trazado_114045" data-name="Trazado 114045" d="M113.455,134.145a59.2,59.2,0,0,1-13.275,2.921,24.019,24.019,0,0,1-13.075-2.4.458.458,0,0,0-.433.808,23.832,23.832,0,0,0,11.277,2.588q1.132,0,2.3-.085a60.009,60.009,0,0,0,13.484-2.96.458.458,0,1,0-.275-.874" transform="translate(-47.967 -74.435)" fill="#d79054"/>
          <path id="Trazado_114046" data-name="Trazado 114046" d="M94.764,57.311a4.367,4.367,0,0,0-3.068.967c-3.331,3.187-.742,24.547,1.147,27.3a4.873,4.873,0,0,0,4.041,2.072h0a5.138,5.138,0,0,0,1.7-.3c-.068-.069-.137-.138-.2-.207-3.561-3.75-4.419-9.3-4.46-14.468A62.585,62.585,0,0,1,95.7,57.367a8.95,8.95,0,0,0-.939-.056" transform="translate(-49.998 -31.806)" fill="#fcca92"/>
          <path id="Trazado_114047" data-name="Trazado 114047" d="M127.734,62.648a9.355,9.355,0,0,0-1.921-.219,4.025,4.025,0,0,0-2.825.888,3.629,3.629,0,0,0-.811,1.509c.9,3.351.745,10.155-.011,15.672.515,3.91,1.247,7.187,1.891,8.125a4.493,4.493,0,0,0,3.725,1.91,4.74,4.74,0,0,0,2.5-.71c-.894-1.694-2.125-3.318-2.88-5.079A20.371,20.371,0,0,1,126.24,80.4a40.677,40.677,0,0,1-.907-9.568,17.081,17.081,0,0,1,2.4-8.186" transform="translate(-67.799 -34.647)" fill="#fcca92"/>
          <path id="Trazado_114048" data-name="Trazado 114048" d="M49.582,148.588c-.956-.753-2.064-1.305-2.976-2.113a3.713,3.713,0,0,1-1.44-3.189,10.256,10.256,0,0,1,1.067-2.387c1.007-2.288.115-4.91-.6-7.305s-1.161-5.27.479-7.156c1.836-2.112,5.128-1.77,7.913-1.5a24.437,24.437,0,0,0,11.65-1.245,6.894,6.894,0,0,0,3.007-2.086,3.244,3.244,0,0,0,.381-3.475,8.19,8.19,0,0,0-1.568-1.607,7.4,7.4,0,0,1-1.855-3,5.786,5.786,0,0,1-4.508,2.176,5.409,5.409,0,0,1-4.481-2.308,18.237,18.237,0,0,1-1.633-5.651,16.481,16.481,0,0,1-1.395,4.481,6.392,6.392,0,0,1-5.588,3.432h0a5.789,5.789,0,0,1-4.8-2.471,13.851,13.851,0,0,1-1.374-4.129c-.5,2.432-.878,4.939-2.2,7.029s-3.614,4.264-2.643,6.528c-1.253.387-2.313-1.429-3.609-1.226-1.319.206-1.4,2.122-.856,3.342.832,1.87,2.261,3.409,3.263,5.194s1.535,4.085.474,5.836c-1.251,2.066-4.123,2.447-6.5,2.019-7.23-1.3-12.42-7.631-16.137-13.969a89.88,89.88,0,0,1-7.933-17.68,4.76,4.76,0,0,0-3.262,2.046c-.66,1.149-.5,2.629.462,4.279l.582,1c13.733,23.672,24.726,36.326,32.673,37.611a63.333,63.333,0,0,0,10.086.8,61.221,61.221,0,0,0,6.266-.325,34.311,34.311,0,0,0-2.952-2.954m-9.918-29.27a.458.458,0,0,1,.62-.187,24.014,24.014,0,0,0,13.075,2.4,59.175,59.175,0,0,0,13.276-2.921.458.458,0,0,1,.275.874,60.009,60.009,0,0,1-13.484,2.96q-1.165.085-2.3.085a23.831,23.831,0,0,1-11.277-2.588.459.459,0,0,1-.187-.62m3.87,22.334a.457.457,0,0,1-.452.39.509.509,0,0,1-.069,0,.459.459,0,0,1-.385-.521A19.281,19.281,0,0,0,34.607,123.1a.458.458,0,1,1,.518-.756,20.215,20.215,0,0,1,8.409,19.31" transform="translate(-1.146 -58.899)" fill="#fcca92"/>
          <path id="Trazado_114049" data-name="Trazado 114049" d="M144.479,14.633a2.653,2.653,0,0,0-.375-.03c-1.622,0-3.188,1.446-4.3,3.967-2.162,4.913-4.62,15.705-5.965,22.075,1.151,5.282.006,17.757-1.881,21.058a5.967,5.967,0,0,1-5.218,3.2,5.409,5.409,0,0,1-4.481-2.308,18.237,18.237,0,0,1-1.633-5.651q-.159.794-.336,1.5a16.718,16.718,0,0,0,1.864,5.182,19.474,19.474,0,0,0,4.873,5.281q.2.157.4.311c1.64-.432,3.251-.918,4.818-1.41a.458.458,0,0,1,.275.874c-1.341.422-2.717.834-4.115,1.218a6.609,6.609,0,0,0,1.989.88,3.571,3.571,0,0,0,3.555-.972,5.418,5.418,0,0,0,.862-3.331l.282-7.919a37.475,37.475,0,0,1,.394-4.93c.628-3.7,2.349-7.119,3.332-10.741,1.261-4.645,1.283-9.52,1.673-14.317s1.219-9.728,3.852-13.758c.04-.062.085-.124.132-.185" transform="translate(-66.76 -8.104)" fill="#fcca92"/>
          <path id="Trazado_114050" data-name="Trazado 114050" d="M56.269,60.066c-.09.021-.186.026-.279.041.088,0,.175-.01.262-.022,1.8-.241,2.869-2.118,3.475-3.832,2.868-8.113,1.717-17.025.531-25.547q-1.047-7.523-2.094-15.046c-.626-4.5-1.206-9.283.008-13.566a3.724,3.724,0,0,0-2.387,1.186A7.9,7.9,0,0,0,54,9.092c.085,2.558.68,7.945,1.368,14.182,2.7,24.446,3.521,36.187.9,36.791" transform="translate(-29.963 -1.162)" fill="#fcca92"/>
          <path id="Trazado_114051" data-name="Trazado 114051" d="M18.7,111.212a5.594,5.594,0,0,0-3.711-1.368.3.3,0,0,0-.078.576,8.785,8.785,0,0,1,3.52,1.728c.739.612,1.359,1.678,2.337,1.883a.189.189,0,0,0,.229-.229c-.15-1.085-1.471-1.985-2.3-2.59" transform="translate(-8.156 -60.952)" fill="#fff9df"/>
          <path id="Trazado_114052" data-name="Trazado 114052" d="M32.075,122.773a1.878,1.878,0,0,0-.783-.835,8,8,0,0,1-.952-.817.323.323,0,0,0-.506.39,5.275,5.275,0,0,0,.831,1.053,1.488,1.488,0,0,0,1.148.552c.16-.02.329-.16.262-.344" transform="translate(-16.53 -67.168)" fill="#fff9df"/>
          <path id="Trazado_114053" data-name="Trazado 114053" d="M66.664,5.9c-.168-.115-.305.124-.2.259a24.834,24.834,0,0,1,2.22,3.089c.644,1.143.852,2.437,1.452,3.573a.274.274,0,0,0,.506-.137c.114-2.432-2.057-5.471-3.979-6.783" transform="translate(-36.866 -3.257)" fill="#fff9df"/>
          <path id="Trazado_114054" data-name="Trazado 114054" d="M116.61,81.081a.216.216,0,0,0-.4.108c.361,3.52-.874,6.833-.68,10.319.025.441.7.579.8.109.718-3.354,1.736-7.252.279-10.535" transform="translate(-64.105 -44.94)" fill="#fff9df"/>
          <path id="Trazado_114055" data-name="Trazado 114055" d="M113.484,107.689a5.229,5.229,0,0,0-.817,3.451c.035.2.3.187.393.051a8.243,8.243,0,0,0,1.144-3.2.4.4,0,0,0-.72-.3" transform="translate(-62.498 -59.657)" fill="#fff9df"/>
          <path id="Trazado_114056" data-name="Trazado 114056" d="M143.824,90.179a.236.236,0,0,0-.456.125c.639,2.871.158,5.431-.13,8.295-.012.131.181.172.241.065,1.419-2.569,1.113-5.765.344-8.485" transform="translate(-79.494 -49.954)" fill="#fff9df"/>
          <path id="Trazado_114057" data-name="Trazado 114057" d="M177.977,30.751c.018-1.973-.014-3.944-.046-5.917a.129.129,0,0,0-.258,0c-.189,1.971-.372,3.942-.517,5.917-.124,1.687-.467,3.484.022,5.123a.2.2,0,0,0,.372,0c.617-1.6.41-3.426.426-5.123" transform="translate(-98.189 -13.714)" fill="#fff9df"/>
          <path id="Trazado_114058" data-name="Trazado 114058" d="M176.879,53.83c.006-.348-.5-.333-.53,0a5.556,5.556,0,0,0,.293,3.129c.078.157.275.059.293-.079a28.085,28.085,0,0,0-.057-3.05" transform="translate(-97.823 -29.733)" fill="#fff9df"/>
          <path id="Trazado_114059" data-name="Trazado 114059" d="M166.889,156.948a22.865,22.865,0,0,1-1.386,5.365c-.561,1.559-1.583,3.075-1.728,4.743a.31.31,0,0,0,.526.218c1.171-1.216,1.68-3.111,2.234-4.676a18.863,18.863,0,0,0,1-5.65c.015-.423-.6-.4-.644,0" transform="translate(-90.89 -86.931)" fill="#fff9df"/>
          <path id="Trazado_114060" data-name="Trazado 114060" d="M158.053,184.15a8.652,8.652,0,0,0-1.367,1.388,4.055,4.055,0,0,0-1.015,1.664c-.033.227.142.494.4.4a3.863,3.863,0,0,0,1.439-1.239,8.82,8.82,0,0,0,1.2-1.706.424.424,0,0,0-.663-.512" transform="translate(-86.392 -102.14)" fill="#fff9df"/>
          <path id="Trazado_114061" data-name="Trazado 114061" d="M154.068,133.841a.209.209,0,0,0-.354-.147c-2.112,2.094-1.917,6.088-4.936,7.465-.1.044-.028.2.072.17a5.672,5.672,0,0,0,3.112-2.712c.894-1.316,2.2-3.11,2.106-4.776" transform="translate(-82.542 -74.163)" fill="#fcca92"/>
          <path id="Trazado_114062" data-name="Trazado 114062" d="M162.912,131.894c-.1-.328-.66-.28-.619.084a9.75,9.75,0,0,1,.061,1.3c-.009.465-.2.894-.018,1.34.042.1.174.2.284.116.759-.576.529-2.042.292-2.839" transform="translate(-90.049 -73.076)" fill="#fcca92"/>
          <path id="Trazado_114063" data-name="Trazado 114063" d="M165.32,76.624a21.47,21.47,0,0,0-.751,4.055c-.006.136.209.205.267.073a21.5,21.5,0,0,0,1.106-3.956c.091-.4-.526-.576-.621-.171" transform="translate(-91.332 -42.396)" fill="#fcca92"/>
          <path id="Trazado_114064" data-name="Trazado 114064" d="M58.239,168c-1.163-.366-2.458-.153-3.663-.4a8.576,8.576,0,0,1-3.989-2.069.122.122,0,0,0-.172.172c1.571,1.894,5.4,4.477,7.88,2.73a.239.239,0,0,0-.057-.432" transform="translate(-27.962 -91.845)" fill="#fcca92"/>
          <path id="Trazado_114065" data-name="Trazado 114065" d="M67.909,167.72a27.34,27.34,0,0,1-3.074.071.259.259,0,0,0-.182.44,2.717,2.717,0,0,0,3.485.039.324.324,0,0,0-.228-.55" transform="translate(-35.838 -93.081)" fill="#fcca92"/>
          <path id="Trazado_114066" data-name="Trazado 114066" d="M120.514,201.637a5.819,5.819,0,0,0-1.749-.264,11.4,11.4,0,0,0-2.01.079c-.121.02-.126.193-.032.249a4.222,4.222,0,0,0,1.759.551,9.7,9.7,0,0,0,1.137.052,2.714,2.714,0,0,0,.935-.366c.137-.061.086-.265-.039-.3" transform="translate(-64.743 -111.753)" fill="#fcca92"/>
        </g>
      </g>
    </g>
  </g>
</svg>
