<svg xmlns="http://www.w3.org/2000/svg" xmlns:xlink="http://www.w3.org/1999/xlink" width="1320" height="507" viewBox="0 0 1320 507">
  <defs>
    <clipPath id="clip-path">
      <rect id="Rectángulo_44551" data-name="Rectángulo 44551" width="1320" height="507" rx="20" transform="translate(144.333 70)" fill="#fceae8"/>
    </clipPath>
    <clipPath id="clip-path-2">
      <rect id="Rectángulo_44538" data-name="Rectángulo 44538" width="1369.035" height="599.53" fill="#ffa031"/>
    </clipPath>
    <clipPath id="clip-path-3">
      <path id="Trazado_598942" data-name="Trazado 598942" d="M240.01,0c-11.9.139-20.836,6.164-25.372,17.038-4.363,10.239-4.663,24.841,0,42.907,16.415,62.323,80.688,119.982,119.231,199.781,38.393,79.788,39.894,90.766,39.894,90.766l-3.451,27.4s-49.983-21.078-102.828-79.638c-52.846-58.71-151.3-131.721-176.29-151.9s-61.422-34.168-85.052,0c-8.438,12.2-7.538,26.792-1.2,42.306,11.428,27.854,40.794,58.71,66.536,84.613C111.671,313.31,201.7,396.711,225.188,415.388c23.629,18.8,76.463,61.572,87.9,89.426,8.588,20.767,23.641,52.534,26.053,105.068a379.063,379.063,0,0,1-2.863,61.884c-11.59,91.527-99.515,59.76-49.833,139.859,49.833,79.926,159.287,160.626,237.1,185.918,67.748,67.748,142.734,237.863,142.734,237.863s62.022,6.164,140.159-26.492c53.884-22.44,115.618-63.535,169.8-138.059a536.091,536.091,0,0,0,40.356-64.735C909.86,928.295,815.47,792.8,815.47,792.8c42.607-99.365,49.071-222.649,51.934-299.735-13.69-47.57-63.535-91.827-46.82-210.459,18.215-130.071-12.04-123.295-62.923-84.913-1.362,1.062-2.713,2.112-3.913,3.163C705.116,241.36,676.673,337.4,707.678,440.83c0,0-1.362,12.94-9.639,16.1-107.342-2.863-180.954-96.5-222.66-162.888C433.535,227.8,356.46,89.6,299.7,32.991,277.2,10.412,256.552.2,240.876,0Z" transform="translate(0)" fill="none"/>
    </clipPath>
    <linearGradient id="linear-gradient" x1="0.168" y1="0.939" x2="0.176" y2="0.939" gradientUnits="objectBoundingBox">
      <stop offset="0" stop-color="#f8c5a1"/>
      <stop offset="0.699" stop-color="#f9bb9a"/>
      <stop offset="1" stop-color="#fab597"/>
    </linearGradient>
    <clipPath id="clip-path-4">
      <path id="Trazado_598943" data-name="Trazado 598943" d="M125.86,39.32c-1.362,1.062-2.713,2.112-3.913,3.163,40.494-13.09,55.247-4.063,55.247,32.518,0,43.207-43.207,79.188-27.392,103.729,15.953,24.541,52.372,118.631,48.02,206.1-4.225,87.464-2.863,116.83-26.354,178.691-23.629,62.023-30.705,108.7-111.544,161.988,136.985-14.9,186.518,31.167,223.4,68.21,26.053,26.042,49.382,85.652,61.122,118.77A536.09,536.09,0,0,0,384.8,847.748C278.059,769.923,183.669,634.426,183.669,634.426c42.607-99.365,49.071-222.648,51.934-299.735-13.69-47.57-63.535-91.827-46.82-210.459,11.4-81.4,3.821-109.212-15.93-109.212-11.8,0-27.958,9.939-46.993,24.3" transform="translate(-59.924 -15.021)" fill="none"/>
    </clipPath>
    <linearGradient id="linear-gradient-2" x1="-2.129" y1="1.184" x2="-2.094" y2="1.184" gradientUnits="objectBoundingBox">
      <stop offset="0" stop-color="#f7b08a"/>
      <stop offset="0.394" stop-color="#f0a582"/>
      <stop offset="1" stop-color="#e38c72"/>
    </linearGradient>
    <clipPath id="clip-path-5">
      <path id="Trazado_598944" data-name="Trazado 598944" d="M119.448,144.48c-4.525,3.763-14.614,6.626-28.154,8.727a379.059,379.059,0,0,1-2.863,61.884C76.841,306.618-11.085,274.851,38.6,354.95c49.833,79.926,159.287,160.626,237.1,185.917,67.748,67.748,142.734,237.863,142.734,237.863s62.022,6.164,140.16-26.492c-83.1-9.489-137.147-40.656-170.426-104.791C347.071,568.26,357.9,491.785,357.9,491.785s-80.988,11.139-172.216-32.818-93.64-124.645-93.64-124.645,47.87-13.7,56.459-42.456c8.727-28.9,19.878-24.541,35.369-33.568,15.514-9.038,31.779-37.193,27.4-54.808-4.513-17.454-50.133-43.946-50.133-43.946l2.563-43.969-9.038,14.464s-3.752-32.229,10.089-86.725c-14.752,51.8-21.378,81-45.308,101.166" transform="translate(-23.508 -43.314)" fill="none"/>
    </clipPath>
    <linearGradient id="linear-gradient-3" x1="-0.416" y1="0.992" x2="-0.395" y2="0.992" xlink:href="#linear-gradient-2"/>
    <clipPath id="clip-path-6">
      <path id="Trazado_598945" data-name="Trazado 598945" d="M29.809,88.372c-4.975,7.976-18.377,29.216-11.9,47.27,2.713,7.826,10.539,23.341,23.641,39.305,11.59,14.141,27.242,28.443,47.12,37.781a112.814,112.814,0,0,0,32.668,9.327c60.21-8.277,95.891-44.257,95.891-100.4C167.994,127.516,66.99,54.5,66.99,54.5,45.3,61.43,34.911,80.546,29.809,88.372" transform="translate(-16.175 -54.504)" fill="none"/>
    </clipPath>
    <linearGradient id="linear-gradient-4" x1="-0.669" y1="2.511" x2="-0.621" y2="2.511" xlink:href="#linear-gradient"/>
    <clipPath id="clip-path-7">
      <path id="Trazado_598946" data-name="Trazado 598946" d="M43.966,0c-11.9.139-20.836,6.164-25.372,17.038C64.363,2.286,107.57,34.353,107.57,74.7c0,45.769,20.166,49.983,38.393,61.572s54.346,42.306,54.346,68.2c0,26.042,23.029.45,37.932,60.072s18.215,34.619,46.07,74.074c27.843,39.282,44.707,91.677,89.877,107.48,45.169,15.953,86.414,33.718,102.828,31.767C493.269,475.9,502,456.933,502,456.933c-107.342-2.863-180.954-96.5-222.66-162.888C237.491,227.8,160.416,89.6,103.657,32.991,81.159,10.412,60.508.2,44.832,0Z" transform="translate(-18.594)" fill="none"/>
    </clipPath>
    <linearGradient id="linear-gradient-5" x1="-0.444" y1="2.576" x2="-0.42" y2="2.576" xlink:href="#linear-gradient-2"/>
    <clipPath id="clip-path-8">
      <path id="Trazado_598947" data-name="Trazado 598947" d="M6.142,31.594C-2.3,43.8-1.4,58.386,4.941,73.9,7.792,39.72,27.208,33.106,50.4,33.106c26.792,0,70.161,30.255,81.138,60.51,11.151,30.267,25.442,50.445,59.16,59.021,33.58,8.727,70.611,41.395,73.474,64.435s67.748,40.794,81.138,73.012c13.563,32.218,25-26.954,25-26.954s-49.983-21.078-102.828-79.638c-52.846-58.71-151.3-131.721-176.29-151.9C77.156,20.27,59.53,10.885,42.572,10.885c-13.24,0-26.065,5.726-36.431,20.709" transform="translate(0 -10.885)" fill="none"/>
    </clipPath>
    <linearGradient id="linear-gradient-6" x1="0.006" y1="3.564" x2="0.037" y2="3.564" xlink:href="#linear-gradient-2"/>
    <clipPath id="clip-path-9">
      <path id="Trazado_598948" data-name="Trazado 598948" d="M29.809,88.372c-4.975,7.976-18.377,29.216-11.9,47.27,2.713,7.826,10.539,23.341,23.641,39.305C43.8,120.89,62.765,100.574,88.368,109.3c29.343,10.077,64.273,20.028,64.273,42.456,0,17.9-32.056,45.158-63.973,60.972a112.814,112.814,0,0,0,32.668,9.327c60.21-8.277,95.891-44.257,95.891-100.4C167.994,127.516,66.99,54.5,66.99,54.5,45.3,61.43,34.911,80.546,29.809,88.372" transform="translate(-16.175 -54.504)" fill="none"/>
    </clipPath>
    <linearGradient id="linear-gradient-7" x1="-0.884" y1="3.621" x2="-0.828" y2="3.621" xlink:href="#linear-gradient-2"/>
    <clipPath id="clip-path-10">
      <path id="Trazado_598949" data-name="Trazado 598949" d="M51.616,59.7S24.523,89.971,20.31,105.473c-2.262,7.826-1.812,21.979.9,35.981,2.551,14,7.526,27.554,14.6,34.63,10.839,10.828,57.509,42.745,97.253,60.372,11.89,5.264,23.179,9.177,32.818,10.978a102.411,102.411,0,0,0,66.986-11.439c12.952-7.215,22.29-16.7,25.892-26.792,3.913-10.689,6.326-23.491,2.263-35.08-5.114-14.452-20.616-26.792-56.609-30.117,0-25.58-47.27-39.582-47.27-39.582s7.976-35.681-32.056-60.522c-41.094,0-73.474,15.8-73.474,15.8" transform="translate(-18.86 -43.901)" fill="none"/>
    </clipPath>
    <linearGradient id="linear-gradient-8" x1="-0.602" y1="2.45" x2="-0.565" y2="2.45" xlink:href="#linear-gradient"/>
    <clipPath id="clip-path-11">
      <path id="Trazado_598950" data-name="Trazado 598950" d="M51.616,59.7S24.523,89.971,20.31,105.473c-2.262,7.826-1.812,21.979.9,35.981C46.49,81.983,63.956,82.444,88.347,84.7c26.5,2.413,35.38,8.588,43.819,37.943,8.277,29.355,60.072,19.416,60.072,51.483,0,25.892-30.267,49.833-59.171,62.334,11.89,5.264,23.179,9.177,32.818,10.978a102.411,102.411,0,0,0,66.986-11.439c12.952-7.215,22.29-16.7,25.892-26.792,3.913-10.689,6.326-23.491,2.263-35.08-5.114-14.452-20.616-26.792-56.609-30.117,0-25.58-47.27-39.582-47.27-39.582s7.976-35.681-32.056-60.522c-41.094,0-73.474,15.8-73.474,15.8" transform="translate(-18.86 -43.901)" fill="none"/>
    </clipPath>
    <linearGradient id="linear-gradient-9" x1="-0.878" y1="3.507" x2="-0.831" y2="3.507" xlink:href="#linear-gradient-2"/>
    <clipPath id="clip-path-12">
      <path id="Trazado_598951" data-name="Trazado 598951" d="M51.414,66.471s4.5,27.4-14.014,50.583c12.952-7.215,22.29-16.7,25.892-26.792,3.913-10.689,6.326-23.491,2.262-35.08A33.235,33.235,0,0,1,51.414,66.471" transform="translate(-37.4 -55.182)" fill="none"/>
    </clipPath>
    <linearGradient id="linear-gradient-10" x1="-6.473" y1="15.843" x2="-6.293" y2="15.843" xlink:href="#linear-gradient-2"/>
    <clipPath id="clip-path-13">
      <path id="Trazado_598952" data-name="Trazado 598952" d="M122.717,343.954a224.641,224.641,0,0,1-8.646-240.714,57.04,57.04,0,0,0-39.64,38.312,224.829,224.829,0,0,1,8.831-95.972,227.369,227.369,0,0,0,39.455,298.373" transform="translate(-44.585 -45.581)" fill="none"/>
    </clipPath>
    <linearGradient id="linear-gradient-11" x1="-2.662" y1="2.28" x2="-2.595" y2="2.28" xlink:href="#linear-gradient-2"/>
    <clipPath id="clip-path-14">
      <rect id="Rectángulo_44550" data-name="Rectángulo 44550" width="1016.59" height="1235.868" fill="none"/>
    </clipPath>
    <clipPath id="clip-path-15">
      <rect id="Rectángulo_33768" data-name="Rectángulo 33768" width="550" height="431" transform="translate(-10438 -12832)" fill="none" stroke="#707070" stroke-width="1"/>
    </clipPath>
    <clipPath id="clip-path-16">
      <rect id="Rectángulo_33845" data-name="Rectángulo 33845" width="550" height="377.205" transform="translate(0 0)" fill="none"/>
    </clipPath>
    <clipPath id="clip-path-17">
      <rect id="Rectángulo_33841" data-name="Rectángulo 33841" width="474.637" height="388.239" fill="none"/>
    </clipPath>
  </defs>
  <g id="Grupo_990714" data-name="Grupo 990714" transform="translate(-144.333 -70)">
    <g id="Grupo_990713" data-name="Grupo 990713">
      <g id="Grupo_895846" data-name="Grupo 895846">
        <rect id="Rectángulo_44537" data-name="Rectángulo 44537" width="1320" height="507" rx="20" transform="translate(144.333 70)" fill="#fceae8"/>
        <path id="Trazado_598924" data-name="Trazado 598924" d="M20,0H1300a20,20,0,0,1,20,20V487a20,20,0,0,1-20,20H20A20,20,0,0,1,0,487V20A20,20,0,0,1,20,0Z" transform="translate(144.333 70)" fill="#fceae8"/>
        <g id="Enmascarar_grupo_54" data-name="Enmascarar grupo 54" clip-path="url(#clip-path)">
          <g id="Grupo_156607" data-name="Grupo 156607" transform="translate(130.266 27.66)">
            <g id="Grupo_156606" data-name="Grupo 156606" clip-path="url(#clip-path-2)">
              <path id="Trazado_598925" data-name="Trazado 598925" d="M240.761,109.982a2.6,2.6,0,1,1-2.6,2.6,2.6,2.6,0,0,1,2.6-2.6m-18.483,2.6a2.6,2.6,0,1,0,2.6-2.6,2.6,2.6,0,0,0-2.6,2.6m-15.874,0a2.6,2.6,0,1,0,2.6-2.6,2.6,2.6,0,0,0-2.6,2.6M5.2,96.871a2.585,2.585,0,0,0-.864-1.923c-.385,1.47-.761,2.944-1.1,4.434A2.6,2.6,0,0,0,5.2,96.871m185.324,15.71a2.6,2.6,0,1,0,2.6-2.6,2.6,2.6,0,0,0-2.6,2.6M2.6,115.177a2.6,2.6,0,1,0-1.359-4.806c-.186,1.338-.356,2.678-.5,4.028a2.587,2.587,0,0,0,1.859.778m76.787-2.6a2.6,2.6,0,1,0,2.6-2.6,2.6,2.6,0,0,0-2.6,2.6m47.632,0a2.6,2.6,0,1,0,2.6-2.6,2.6,2.6,0,0,0-2.6,2.6m-15.88,0a2.6,2.6,0,1,0,2.6-2.6,2.6,2.6,0,0,0-2.6,2.6m-15.875,0a2.6,2.6,0,1,0,2.6-2.6,2.6,2.6,0,0,0-2.6,2.6m47.635,0a2.6,2.6,0,1,0,2.6-2.6,2.593,2.593,0,0,0-2.6,2.6m79.379-15.71a2.6,2.6,0,1,0,2.6-2.6,2.607,2.607,0,0,0-2.6,2.6m-63.505,15.71a2.6,2.6,0,1,0,2.6-2.6,2.6,2.6,0,0,0-2.6,2.6m15.877,0a2.6,2.6,0,1,0,2.605-2.6,2.595,2.595,0,0,0-2.605,2.6m15.877-15.71a2.6,2.6,0,1,0,2.6-2.6,2.6,2.6,0,0,0-2.6,2.6m-47.627,0a2.6,2.6,0,1,0,2.6-2.6,2.6,2.6,0,0,0-2.6,2.6m15.874,0a2.6,2.6,0,1,0,2.6-2.6,2.6,2.6,0,0,0-2.6,2.6m-127.017,0a2.6,2.6,0,1,0,2.6-2.6,2.6,2.6,0,0,0-2.6,2.6m174.649,0a2.6,2.6,0,1,0,2.6-2.6,2.6,2.6,0,0,0-2.6,2.6m31.753,0a2.6,2.6,0,1,0,2.6-2.6,2.608,2.608,0,0,0-2.6,2.6m-63.508,0a2.6,2.6,0,1,0,2.605-2.6,2.6,2.6,0,0,0-2.605,2.6m-111.143,0a2.6,2.6,0,1,0,2.6-2.6,2.607,2.607,0,0,0-2.6,2.6m-15.872,0a2.6,2.6,0,1,0,2.6-2.6,2.6,2.6,0,0,0-2.6,2.6m31.753,0a2.6,2.6,0,1,0,2.6-2.6,2.6,2.6,0,0,0-2.6,2.6m47.632,0a2.6,2.6,0,1,0,2.6-2.6,2.6,2.6,0,0,0-2.6,2.6m-31.755,0a2.6,2.6,0,1,0,2.6-2.6,2.6,2.6,0,0,0-2.6,2.6m15.875,0a2.6,2.6,0,1,0,2.6-2.6,2.606,2.606,0,0,0-2.6,2.6m-95.262,0a2.6,2.6,0,1,0,2.6-2.6,2.6,2.6,0,0,0-2.6,2.6m47.629,15.71a2.6,2.6,0,1,0,2.6-2.6,2.6,2.6,0,0,0-2.6,2.6M47.633,128.293a2.6,2.6,0,1,0,2.6-2.6,2.6,2.6,0,0,0-2.6,2.6m-31.756,0a2.6,2.6,0,1,0,2.6-2.6,2.6,2.6,0,0,0-2.6,2.6m47.629,0a2.6,2.6,0,1,0,2.6-2.6,2.6,2.6,0,0,0-2.6,2.6M2.6,146.607a2.6,2.6,0,1,0,0-5.2,2.574,2.574,0,0,0-1.859.784c.144,1.353.313,2.687.5,4.025a2.6,2.6,0,0,0,1.359.394m76.787-18.314a2.6,2.6,0,1,0,2.6-2.6,2.6,2.6,0,0,0-2.6,2.6M174.649,144a2.6,2.6,0,1,0,2.605-2.6,2.6,2.6,0,0,0-2.605,2.6m-79.385-15.71a2.6,2.6,0,1,0,2.6-2.6,2.6,2.6,0,0,0-2.6,2.6M158.772,144a2.6,2.6,0,1,0,2.6-2.6,2.6,2.6,0,0,0-2.6,2.6m63.505,0a2.6,2.6,0,1,0,2.6-2.6,2.607,2.607,0,0,0-2.6,2.6m-31.752,0a2.6,2.6,0,1,0,2.6-2.6,2.6,2.6,0,0,0-2.6,2.6m47.632,0a2.6,2.6,0,1,0,2.6-2.6,2.608,2.608,0,0,0-2.6,2.6M206.4,144a2.6,2.6,0,1,0,2.6-2.6,2.6,2.6,0,0,0-2.6,2.6M31.755,128.293a2.6,2.6,0,1,0,2.6-2.6,2.6,2.6,0,0,0-2.6,2.6M0,128.293a2.6,2.6,0,1,0,2.6-2.6,2.6,2.6,0,0,0-2.6,2.6m15.877-15.712a2.6,2.6,0,1,0,2.6-2.6,2.6,2.6,0,0,0-2.6,2.6m222.28,15.712a2.6,2.6,0,1,0,2.6-2.6,2.6,2.6,0,0,0-2.6,2.6m-15.88,0a2.6,2.6,0,1,0,2.6-2.6,2.6,2.6,0,0,0-2.6,2.6M31.755,112.581a2.6,2.6,0,1,0,2.6-2.6,2.594,2.594,0,0,0-2.6,2.6m15.878,0a2.6,2.6,0,1,0,2.6-2.6,2.6,2.6,0,0,0-2.6,2.6M142.9,128.293a2.6,2.6,0,1,0,2.6-2.6,2.6,2.6,0,0,0-2.6,2.6m15.874,0a2.6,2.6,0,1,0,2.6-2.6,2.6,2.6,0,0,0-2.6,2.6m-47.633,0a2.6,2.6,0,1,0,2.6-2.6,2.6,2.6,0,0,0-2.6,2.6m95.265,0a2.6,2.6,0,1,0,2.6-2.6,2.6,2.6,0,0,0-2.6,2.6m-79.385,0a2.6,2.6,0,1,0,2.6-2.6,2.6,2.6,0,0,0-2.6,2.6m63.507,0a2.6,2.6,0,1,0,2.6-2.6,2.6,2.6,0,0,0-2.6,2.6m-15.877,0a2.6,2.6,0,1,0,2.605-2.6,2.6,2.6,0,0,0-2.605,2.6M79.387,18.314a2.6,2.6,0,1,0,2.6-2.6,2.594,2.594,0,0,0-2.6,2.6M206.4,65.446a2.6,2.6,0,1,0,2.6-2.6,2.592,2.592,0,0,0-2.6,2.6M127.018,34.027a2.6,2.6,0,1,0,2.6-2.6,2.6,2.6,0,0,0-2.6,2.6m-31.755,0a2.6,2.6,0,1,0,2.6-2.6,2.6,2.6,0,0,0-2.6,2.6m15.875,0a2.6,2.6,0,1,0,2.6-2.6,2.6,2.6,0,0,0-2.6,2.6m47.633,0a2.6,2.6,0,1,0,2.6-2.6,2.6,2.6,0,0,0-2.6,2.6m31.753,0a2.6,2.6,0,1,0,2.6-2.6,2.6,2.6,0,0,0-2.6,2.6m21.077,0a2.6,2.6,0,1,0-2.6,2.6,2.6,2.6,0,0,0,2.6-2.6M161.371,5.207a2.6,2.6,0,0,0,2.508-1.95c-1.664-.451-3.333-.881-5.029-1.27a2.749,2.749,0,0,0-.079.618,2.6,2.6,0,0,0,2.6,2.6m79.39,183.326a2.6,2.6,0,1,0,0,5.2,2.4,2.4,0,0,0,.839-.154c.583-.984,1.155-1.979,1.7-2.985a2.6,2.6,0,0,0-2.536-2.063M79.387,34.027a2.6,2.6,0,1,0,2.6-2.6,2.6,2.6,0,0,0-2.6,2.6m95.262,0a2.6,2.6,0,1,0,2.605-2.6,2.6,2.6,0,0,0-2.605,2.6m-127.015,0a2.6,2.6,0,1,0,2.6-2.6,2.6,2.6,0,0,0-2.6,2.6m15.872,0a2.6,2.6,0,1,0,2.6-2.6,2.607,2.607,0,0,0-2.6,2.6m79.393,0a2.6,2.6,0,1,0,2.6-2.6,2.6,2.6,0,0,0-2.6,2.6m47.627-15.713a2.6,2.6,0,1,0,2.6-2.6,2.595,2.595,0,0,0-2.6,2.6M111.139,2.605A2.6,2.6,0,1,0,113.739,0a2.6,2.6,0,0,0-2.6,2.605m63.51,15.709a2.6,2.6,0,1,0,2.605-2.6,2.594,2.594,0,0,0-2.605,2.6m-111.143,0a2.6,2.6,0,1,0,2.6-2.6,2.6,2.6,0,0,0-2.6,2.6M127.018,2.605A2.6,2.6,0,1,0,129.618,0a2.6,2.6,0,0,0-2.6,2.605m15.88,0A2.6,2.6,0,1,0,145.494,0a2.6,2.6,0,0,0-2.6,2.605m-45.037,2.6a2.6,2.6,0,0,0,2.6-2.6,2.143,2.143,0,0,0-.085-.618c-1.691.389-3.356.819-5.017,1.27a2.592,2.592,0,0,0,2.5,1.95m13.278,13.106a2.6,2.6,0,1,0,2.6-2.6,2.6,2.6,0,0,0-2.6,2.6m-15.875,0a2.6,2.6,0,1,0,2.6-2.6,2.6,2.6,0,0,0-2.6,2.6M142.9,144a2.6,2.6,0,1,0,2.6-2.6,2.6,2.6,0,0,0-2.6,2.6m0-125.689a2.6,2.6,0,1,0,2.6-2.6,2.592,2.592,0,0,0-2.6,2.6m15.874,0a2.6,2.6,0,1,0,2.6-2.6,2.594,2.594,0,0,0-2.6,2.6m-31.753,0a2.6,2.6,0,1,0,2.6-2.6,2.594,2.594,0,0,0-2.6,2.6m111.139,62.85a2.6,2.6,0,1,0,2.6-2.6,2.6,2.6,0,0,0-2.6,2.6m-79.385,0a2.6,2.6,0,1,0,2.6-2.6,2.6,2.6,0,0,0-2.6,2.6m-15.874,0a2.6,2.6,0,1,0,2.6-2.6,2.6,2.6,0,0,0-2.6,2.6m31.75,0a2.6,2.6,0,1,0,2.605-2.6,2.6,2.6,0,0,0-2.605,2.6m15.877,0a2.6,2.6,0,1,0,2.6-2.6,2.6,2.6,0,0,0-2.6,2.6m15.878,0a2.6,2.6,0,1,0,2.6-2.6,2.6,2.6,0,0,0-2.6,2.6m-79.385,0a2.6,2.6,0,1,0,2.6-2.6,2.6,2.6,0,0,0-2.6,2.6m-95.263,0a2.6,2.6,0,1,0,2.6-2.6,2.6,2.6,0,0,0-2.6,2.6m15.878,0a2.6,2.6,0,1,0,2.6-2.6,2.6,2.6,0,0,0-2.6,2.6m15.872,0a2.6,2.6,0,1,0,2.6-2.6,2.6,2.6,0,0,0-2.6,2.6m-47.629,0a2.6,2.6,0,1,0,2.6-2.6,2.6,2.6,0,0,0-2.6,2.6m95.262,0a2.6,2.6,0,1,0,2.6-2.6,2.6,2.6,0,0,0-2.6,2.6m-31.752,0a2.6,2.6,0,1,0,2.6-2.6,2.6,2.6,0,0,0-2.6,2.6m15.877,0a2.6,2.6,0,1,0,2.6-2.6,2.6,2.6,0,0,0-2.6,2.6M222.277,65.446a2.6,2.6,0,1,0,2.6-2.6,2.595,2.595,0,0,0-2.6,2.6m-63.505,0a2.6,2.6,0,1,0,2.6-2.6,2.591,2.591,0,0,0-2.6,2.6m-15.874,0a2.6,2.6,0,1,0,2.6-2.6,2.589,2.589,0,0,0-2.6,2.6m79.379,15.718a2.6,2.6,0,1,0,2.6-2.6,2.6,2.6,0,0,0-2.6,2.6M111.139,65.446a2.6,2.6,0,1,0,2.6-2.6,2.594,2.594,0,0,0-2.6,2.6m79.387,0a2.6,2.6,0,1,0,2.6-2.6,2.592,2.592,0,0,0-2.6,2.6m-15.877,0a2.6,2.6,0,1,0,2.605-2.6,2.591,2.591,0,0,0-2.605,2.6m-47.63,0a2.6,2.6,0,1,0,2.6-2.6,2.591,2.591,0,0,0-2.6,2.6m-79.385,0a2.6,2.6,0,1,0,2.6-2.6,2.592,2.592,0,0,0-2.6,2.6m-15.878,0a2.6,2.6,0,1,0,2.6-2.6,2.59,2.59,0,0,0-2.6,2.6m47.632,0a2.6,2.6,0,1,0,2.6-2.6,2.591,2.591,0,0,0-2.6,2.6m-15.881,0a2.6,2.6,0,1,0,2.6-2.6,2.6,2.6,0,0,0-2.6,2.6m31.758,0a2.6,2.6,0,1,0,2.6-2.6,2.593,2.593,0,0,0-2.6,2.6m52.83,172.826a2.6,2.6,0,1,0-2.6,2.6,2.6,2.6,0,0,0,2.6-2.6M68.71,49.737a2.6,2.6,0,1,0-2.6,2.6,2.6,2.6,0,0,0,2.6-2.6m187.925,60.245a2.6,2.6,0,1,0,1.856,4.417c-.142-1.356-.312-2.69-.5-4.028a2.591,2.591,0,0,0-1.358-.389M84.587,49.737a2.6,2.6,0,1,0-2.6,2.6,2.6,2.6,0,0,0,2.6-2.6m15.874,0a2.6,2.6,0,1,0-2.6,2.6,2.6,2.6,0,0,0,2.6-2.6m137.7,15.709a2.6,2.6,0,0,0,5.139.539c-.542-1-1.114-2-1.7-2.985a2.551,2.551,0,0,0-.839-.153,2.6,2.6,0,0,0-2.6,2.6m15.877,31.425a2.6,2.6,0,0,0,1.957,2.511c-.335-1.49-.708-2.964-1.1-4.434a2.582,2.582,0,0,0-.861,1.923M52.833,49.737a2.6,2.6,0,1,0-2.6,2.6,2.6,2.6,0,0,0,2.6-2.6m127.015,0a2.6,2.6,0,1,0-2.595,2.6,2.6,2.6,0,0,0,2.595-2.6m15.877,0a2.6,2.6,0,1,0-2.6,2.6,2.6,2.6,0,0,0,2.6-2.6m15.877,0a2.6,2.6,0,1,0-2.6,2.6,2.6,2.6,0,0,0,2.6-2.6m-47.629,0a2.6,2.6,0,1,0-2.6,2.6,2.6,2.6,0,0,0,2.6-2.6m-31.753,0a2.6,2.6,0,1,0-2.6,2.6,2.6,2.6,0,0,0,2.6-2.6m15.874,0a2.6,2.6,0,1,0-2.6,2.6,2.6,2.6,0,0,0,2.6-2.6m-31.753,0a2.6,2.6,0,1,0-2.6,2.6,2.6,2.6,0,0,0,2.6-2.6m-5.2,157.116a2.6,2.6,0,1,0,2.6-2.605,2.6,2.6,0,0,0-2.6,2.605m15.88,0a2.6,2.6,0,1,0,2.6-2.605,2.6,2.6,0,0,0-2.6,2.605m-31.755,0a2.6,2.6,0,1,0,2.6-2.605,2.6,2.6,0,0,0-2.6,2.605m63.508,0a2.6,2.6,0,1,0,2.6-2.605,2.6,2.6,0,0,0-2.6,2.605m-79.385,0a2.6,2.6,0,1,0,2.6-2.605,2.6,2.6,0,0,0-2.6,2.605m63.511,0a2.6,2.6,0,1,0,2.6-2.605,2.6,2.6,0,0,0-2.6,2.605m113.736-81.161a2.6,2.6,0,1,0,2.6,2.6,2.6,2.6,0,0,0-2.6-2.6M63.505,206.853a2.6,2.6,0,1,0,2.6-2.605,2.606,2.606,0,0,0-2.6,2.605m190.528-47.138a2.578,2.578,0,0,0,.861,1.921c.387-1.467.761-2.944,1.1-4.428a2.586,2.586,0,0,0-1.957,2.507m2.6-18.311a2.6,2.6,0,1,0,1.358,4.809c.186-1.338.356-2.672.5-4.025a2.58,2.58,0,0,0-1.856-.784m-29.159,65.449a2.6,2.6,0,1,0-2.6,2.6,2.6,2.6,0,0,0,2.6-2.6m-195.721,0a2.6,2.6,0,1,0,2.6-2.605,2.6,2.6,0,0,0-2.6,2.605m15.878,0a2.6,2.6,0,1,0,2.6-2.605,2.6,2.6,0,0,0-2.6,2.605m148.092,31.419a2.6,2.6,0,1,0-2.6,2.6,2.6,2.6,0,0,0,2.6-2.6M100.46,222.563a2.6,2.6,0,1,0-2.6,2.6,2.6,2.6,0,0,0,2.6-2.6m15.88,0a2.6,2.6,0,1,0-2.6,2.6,2.608,2.608,0,0,0,2.6-2.6m31.753,0a2.6,2.6,0,1,0-2.6,2.6,2.606,2.606,0,0,0,2.6-2.6m-15.874,0a2.6,2.6,0,1,0-2.6,2.6,2.607,2.607,0,0,0,2.6-2.6m-63.51,0a2.6,2.6,0,1,0-2.6,2.6,2.607,2.607,0,0,0,2.6-2.6m105.939-15.71a2.6,2.6,0,1,0,2.605-2.605,2.6,2.6,0,0,0-2.605,2.605m-90.062,15.71a2.6,2.6,0,1,0-2.6,2.6,2.6,2.6,0,0,0,2.6-2.6m-36.953,0a2.6,2.6,0,1,0,2.6-2.608,2.6,2.6,0,0,0-2.6,2.608m163.969,0a2.6,2.6,0,1,0-2.6,2.6,2.6,2.6,0,0,0,2.6-2.6M100.46,253.985a2.592,2.592,0,0,0-5.1-.662c1.661.453,3.333.889,5.017,1.279a2.158,2.158,0,0,0,.085-.618M127.018,144a2.6,2.6,0,1,0,2.6-2.6,2.6,2.6,0,0,0-2.6,2.6m52.83,78.56a2.6,2.6,0,1,0-2.595,2.6,2.606,2.606,0,0,0,2.595-2.6m-15.875,0a2.6,2.6,0,1,0-2.6,2.6,2.608,2.608,0,0,0,2.6-2.6m-2.6,28.82a2.6,2.6,0,0,0-2.6,2.6,2.772,2.772,0,0,0,.079.618c1.7-.391,3.365-.827,5.029-1.279a2.6,2.6,0,0,0-2.508-1.941m-34.353,2.6a2.6,2.6,0,1,0,2.6-2.6,2.6,2.6,0,0,0-2.6,2.6M227.476,49.737a2.6,2.6,0,1,0-2.6,2.6,2.594,2.594,0,0,0,2.6-2.6M111.139,253.985a2.6,2.6,0,1,0,2.6-2.6,2.6,2.6,0,0,0-2.6,2.6m36.955,0a2.6,2.6,0,1,0-2.6,2.6,2.6,2.6,0,0,0,2.6-2.6m31.755-15.713a2.6,2.6,0,1,0-2.595,2.6,2.6,2.6,0,0,0,2.595-2.6M18.474,68.042A2.6,2.6,0,1,0,17.628,63q-.863,1.485-1.692,2.985a2.6,2.6,0,0,0,2.539,2.057m13.281-18.3a2.6,2.6,0,1,0,2.6-2.6,2.6,2.6,0,0,0-2.6,2.6M132.22,238.272a2.6,2.6,0,1,0-2.6,2.6,2.6,2.6,0,0,0,2.6-2.6m-47.633,0a2.6,2.6,0,1,0-2.6,2.6,2.6,2.6,0,0,0,2.6-2.6m31.753,0a2.6,2.6,0,1,0-2.6,2.6,2.6,2.6,0,0,0,2.6-2.6m47.633,0a2.6,2.6,0,1,0-2.6,2.6,2.6,2.6,0,0,0,2.6-2.6m-63.513,0a2.6,2.6,0,1,0-2.6,2.6,2.6,2.6,0,0,0,2.6-2.6m-31.75,0a2.6,2.6,0,1,0-2.6,2.6,2.6,2.6,0,0,0,2.6-2.6m127.015-15.709a2.6,2.6,0,1,0-2.6,2.6,2.607,2.607,0,0,0,2.6-2.6M79.387,159.715a2.6,2.6,0,1,0,2.6-2.6,2.6,2.6,0,0,0-2.6,2.6m15.877,0a2.6,2.6,0,1,0,2.6-2.6,2.6,2.6,0,0,0-2.6,2.6m-31.758,0a2.6,2.6,0,1,0,2.6-2.6,2.6,2.6,0,0,0-2.6,2.6m63.513,0a2.6,2.6,0,1,0,2.6-2.6,2.6,2.6,0,0,0-2.6,2.6m15.88,0a2.6,2.6,0,1,0,2.6-2.6,2.595,2.595,0,0,0-2.6,2.6m-95.265,0a2.6,2.6,0,1,0,2.6-2.6,2.6,2.6,0,0,0-2.6,2.6m63.505,0a2.6,2.6,0,1,0,2.6-2.6,2.6,2.6,0,0,0-2.6,2.6m111.139,15.71a2.6,2.6,0,1,0,2.6-2.6,2.6,2.6,0,0,0-2.6,2.6M31.755,159.715a2.6,2.6,0,1,0,2.6-2.6,2.6,2.6,0,0,0-2.6,2.6M206.4,175.425a2.6,2.6,0,1,0,2.6-2.6,2.6,2.6,0,0,0-2.6,2.6m31.753,0a2.6,2.6,0,1,0,2.6-2.6,2.6,2.6,0,0,0-2.6,2.6m-222.28-15.71a2.6,2.6,0,1,0,2.6-2.6,2.6,2.6,0,0,0-2.6,2.6m-10.675,0a2.584,2.584,0,0,0-1.962-2.507c.336,1.484.713,2.961,1.1,4.428a2.581,2.581,0,0,0,.864-1.921M31.755,144a2.6,2.6,0,1,0,2.6-2.6,2.6,2.6,0,0,0-2.6,2.6m47.632,0a2.6,2.6,0,1,0,2.6-2.6,2.6,2.6,0,0,0-2.6,2.6m111.139,31.422a2.6,2.6,0,1,0,2.6-2.6,2.6,2.6,0,0,0-2.6,2.6M47.633,144a2.6,2.6,0,1,0,2.6-2.6,2.6,2.6,0,0,0-2.6,2.6m111.139,15.712a2.6,2.6,0,1,0,2.6-2.6,2.6,2.6,0,0,0-2.6,2.6M95.263,144a2.6,2.6,0,1,0,2.6-2.6,2.605,2.605,0,0,0-2.6,2.6m15.875,0a2.6,2.6,0,1,0,2.6-2.6,2.606,2.606,0,0,0-2.6,2.6m-47.633,0a2.6,2.6,0,1,0,2.6-2.6,2.607,2.607,0,0,0-2.6,2.6m127.02,15.712a2.6,2.6,0,1,0,2.6-2.6,2.6,2.6,0,0,0-2.6,2.6m15.878,0a2.6,2.6,0,1,0,2.6-2.6,2.6,2.6,0,0,0-2.6,2.6m-31.755,0a2.6,2.6,0,1,0,2.605-2.6,2.6,2.6,0,0,0-2.605,2.6M15.877,144a2.6,2.6,0,1,0,2.6-2.6,2.605,2.605,0,0,0-2.6,2.6m222.28,15.712a2.6,2.6,0,1,0,2.6-2.6,2.6,2.6,0,0,0-2.6,2.6m-15.88,0a2.6,2.6,0,1,0,2.6-2.6,2.6,2.6,0,0,0-2.6,2.6M206.4,191.137a2.6,2.6,0,1,0,2.6-2.6,2.6,2.6,0,0,0-2.6,2.6m-63.505,0a2.6,2.6,0,1,0,2.6-2.6,2.594,2.594,0,0,0-2.6,2.6m-15.88,0a2.6,2.6,0,1,0,2.6-2.6,2.6,2.6,0,0,0-2.6,2.6m31.753,0a2.6,2.6,0,1,0,2.6-2.6,2.6,2.6,0,0,0-2.6,2.6m-47.633,0a2.6,2.6,0,1,0,2.6-2.6,2.6,2.6,0,0,0-2.6,2.6m63.51,0a2.6,2.6,0,1,0,2.605-2.6,2.6,2.6,0,0,0-2.605,2.6m15.877,0a2.6,2.6,0,1,0,2.6-2.6,2.6,2.6,0,0,0-2.6,2.6m-158.77,0a2.6,2.6,0,1,0,2.6-2.6,2.6,2.6,0,0,0-2.6,2.6m15.878,0a2.6,2.6,0,1,0,2.6-2.6,2.6,2.6,0,0,0-2.6,2.6m47.63,0a2.6,2.6,0,1,0,2.6-2.6,2.6,2.6,0,0,0-2.6,2.6m95.262,15.716a2.6,2.6,0,1,0,2.6-2.605,2.6,2.6,0,0,0-2.6,2.605m31.752-15.716a2.6,2.6,0,1,0,2.6-2.6,2.6,2.6,0,0,0-2.6,2.6m-142.891,0a2.6,2.6,0,1,0,2.6-2.6,2.6,2.6,0,0,0-2.6,2.6m-15.881,0a2.6,2.6,0,1,0,2.6-2.6,2.6,2.6,0,0,0-2.6,2.6m-31.75-15.712a2.6,2.6,0,1,0,2.6-2.6,2.594,2.594,0,0,0-2.6,2.6m95.263,0a2.6,2.6,0,1,0,2.6-2.6,2.6,2.6,0,0,0-2.6,2.6m-15.88,0a2.6,2.6,0,1,0,2.6-2.6,2.6,2.6,0,0,0-2.6,2.6m-15.875,0a2.6,2.6,0,1,0,2.6-2.6,2.6,2.6,0,0,0-2.6,2.6m63.508,0a2.6,2.6,0,1,0,2.6-2.6,2.6,2.6,0,0,0-2.6,2.6m-15.874,0a2.6,2.6,0,1,0,2.6-2.6,2.593,2.593,0,0,0-2.6,2.6m-63.511,0a2.6,2.6,0,1,0,2.6-2.6,2.6,2.6,0,0,0-2.6,2.6M206.4,206.853a2.6,2.6,0,1,0,2.6-2.605,2.6,2.6,0,0,0-2.6,2.605M21.078,191.137a2.6,2.6,0,0,0-5.142-.54q.827,1.51,1.692,2.985a2.46,2.46,0,0,0,.846.154,2.6,2.6,0,0,0,2.6-2.6m-5.2-15.712a2.6,2.6,0,1,0,2.6-2.6,2.6,2.6,0,0,0-2.6,2.6m158.772,0a2.6,2.6,0,1,0,2.605-2.6,2.6,2.6,0,0,0-2.605,2.6m-127.015,0a2.6,2.6,0,1,0,2.6-2.6,2.6,2.6,0,0,0-2.6,2.6m15.872,0a2.6,2.6,0,1,0,2.6-2.6,2.6,2.6,0,0,0-2.6,2.6" transform="translate(-103 -58)" fill="#ffa031"/>
              <path id="Trazado_598926" data-name="Trazado 598926" d="M973.883,336.528a2.6,2.6,0,1,1-2.6,2.6,2.6,2.6,0,0,1,2.6-2.6m-18.482,2.6a2.6,2.6,0,1,0,2.6-2.6,2.6,2.6,0,0,0-2.6,2.6m-15.874,0a2.6,2.6,0,1,0,2.6-2.6,2.595,2.595,0,0,0-2.6,2.6m-201.2-15.71a2.584,2.584,0,0,0-.864-1.921c-.385,1.47-.761,2.943-1.1,4.434a2.6,2.6,0,0,0,1.96-2.513m185.324,15.71a2.6,2.6,0,1,0,2.6-2.6,2.6,2.6,0,0,0-2.6,2.6m-187.926,2.6a2.6,2.6,0,1,0-1.361-4.806c-.185,1.338-.354,2.679-.5,4.028a2.583,2.583,0,0,0,1.859.778m76.786-2.6a2.6,2.6,0,1,0,2.6-2.6,2.6,2.6,0,0,0-2.6,2.6m47.633,0a2.6,2.6,0,1,0,2.6-2.6,2.6,2.6,0,0,0-2.6,2.6m-15.88,0a2.6,2.6,0,1,0,2.6-2.6,2.6,2.6,0,0,0-2.6,2.6m-15.875,0a2.6,2.6,0,1,0,2.6-2.6,2.6,2.6,0,0,0-2.6,2.6m47.635,0a2.6,2.6,0,1,0,2.6-2.6,2.593,2.593,0,0,0-2.6,2.6m79.381-15.71a2.6,2.6,0,1,0,2.6-2.6,2.606,2.606,0,0,0-2.6,2.6M891.9,339.127a2.6,2.6,0,1,0,2.6-2.6,2.594,2.594,0,0,0-2.6,2.6m15.875,0a2.6,2.6,0,1,0,2.605-2.6,2.595,2.595,0,0,0-2.605,2.6m15.877-15.71a2.6,2.6,0,1,0,2.6-2.6,2.6,2.6,0,0,0-2.6,2.6m-47.627,0a2.6,2.6,0,1,0,2.6-2.6,2.6,2.6,0,0,0-2.6,2.6m15.875,0a2.6,2.6,0,1,0,2.6-2.6,2.6,2.6,0,0,0-2.6,2.6m-127.018,0a2.6,2.6,0,1,0,2.6-2.6,2.6,2.6,0,0,0-2.6,2.6m174.65,0a2.6,2.6,0,1,0,2.6-2.6,2.6,2.6,0,0,0-2.6,2.6m31.752,0a2.6,2.6,0,1,0,2.6-2.6,2.608,2.608,0,0,0-2.6,2.6m-63.508,0a2.6,2.6,0,1,0,2.605-2.6,2.6,2.6,0,0,0-2.605,2.6m-111.143,0a2.6,2.6,0,1,0,2.6-2.6,2.607,2.607,0,0,0-2.6,2.6m-15.871,0a2.6,2.6,0,1,0,2.6-2.6,2.6,2.6,0,0,0-2.6,2.6m31.75,0a2.6,2.6,0,1,0,2.6-2.6,2.6,2.6,0,0,0-2.6,2.6m47.633,0a2.6,2.6,0,1,0,2.6-2.6,2.6,2.6,0,0,0-2.6,2.6m-31.755,0a2.6,2.6,0,1,0,2.6-2.6,2.6,2.6,0,0,0-2.6,2.6m15.875,0a2.6,2.6,0,1,0,2.6-2.6,2.606,2.606,0,0,0-2.6,2.6m-95.262,0a2.6,2.6,0,1,0,2.6-2.6,2.6,2.6,0,0,0-2.6,2.6m47.629,15.71a2.6,2.6,0,1,0,2.6-2.6,2.6,2.6,0,0,0-2.6,2.6M780.757,354.84a2.6,2.6,0,1,0,2.6-2.6,2.6,2.6,0,0,0-2.6,2.6m-31.758,0a2.6,2.6,0,1,0,2.6-2.6,2.6,2.6,0,0,0-2.6,2.6m47.629,0a2.6,2.6,0,1,0,2.6-2.6,2.6,2.6,0,0,0-2.6,2.6m-60.906,18.314a2.6,2.6,0,1,0,0-5.2,2.577,2.577,0,0,0-1.859.786c.144,1.352.313,2.686.5,4.024a2.618,2.618,0,0,0,1.361.4m76.786-18.314a2.6,2.6,0,1,0,2.6-2.6,2.6,2.6,0,0,0-2.6,2.6m95.263,15.709a2.6,2.6,0,1,0,2.605-2.6,2.6,2.6,0,0,0-2.605,2.6M828.385,354.84a2.6,2.6,0,1,0,2.6-2.6,2.6,2.6,0,0,0-2.6,2.6m63.51,15.709a2.6,2.6,0,1,0,2.6-2.6,2.6,2.6,0,0,0-2.6,2.6m63.505,0a2.6,2.6,0,1,0,2.6-2.6,2.607,2.607,0,0,0-2.6,2.6m-31.753,0a2.6,2.6,0,1,0,2.6-2.6,2.607,2.607,0,0,0-2.6,2.6m47.632,0a2.6,2.6,0,1,0,2.6-2.6,2.61,2.61,0,0,0-2.6,2.6m-31.752,0a2.6,2.6,0,1,0,2.6-2.6,2.6,2.6,0,0,0-2.6,2.6M764.877,354.84a2.6,2.6,0,1,0,2.6-2.6,2.6,2.6,0,0,0-2.6,2.6m-31.755,0a2.6,2.6,0,1,0,2.6-2.6,2.6,2.6,0,0,0-2.6,2.6M749,339.127a2.6,2.6,0,1,0,2.6-2.6,2.6,2.6,0,0,0-2.6,2.6m222.28,15.713a2.6,2.6,0,1,0,2.6-2.6,2.6,2.6,0,0,0-2.6,2.6m-15.878,0a2.6,2.6,0,1,0,2.6-2.6,2.6,2.6,0,0,0-2.6,2.6M764.877,339.127a2.6,2.6,0,1,0,2.6-2.6,2.594,2.594,0,0,0-2.6,2.6m15.88,0a2.6,2.6,0,1,0,2.6-2.6,2.594,2.594,0,0,0-2.6,2.6M876.02,354.84a2.6,2.6,0,1,0,2.6-2.6,2.6,2.6,0,0,0-2.6,2.6m15.875,0a2.6,2.6,0,1,0,2.6-2.6,2.6,2.6,0,0,0-2.6,2.6m-47.635,0a2.6,2.6,0,1,0,2.6-2.6,2.6,2.6,0,0,0-2.6,2.6m95.266,0a2.6,2.6,0,1,0,2.6-2.6,2.6,2.6,0,0,0-2.6,2.6m-79.387,0a2.6,2.6,0,1,0,2.6-2.6,2.6,2.6,0,0,0-2.6,2.6m63.507,0a2.6,2.6,0,1,0,2.6-2.6,2.6,2.6,0,0,0-2.6,2.6m-15.877,0a2.6,2.6,0,1,0,2.605-2.6,2.6,2.6,0,0,0-2.605,2.6M812.507,244.861a2.6,2.6,0,1,0,2.6-2.6,2.6,2.6,0,0,0-2.6,2.6m127.02,47.132a2.6,2.6,0,1,0,2.6-2.6,2.59,2.59,0,0,0-2.6,2.6M860.14,260.574a2.6,2.6,0,1,0,2.6-2.605,2.6,2.6,0,0,0-2.6,2.605m-31.755,0a2.6,2.6,0,1,0,2.6-2.605,2.605,2.605,0,0,0-2.6,2.605m15.875,0a2.6,2.6,0,1,0,2.6-2.605,2.606,2.606,0,0,0-2.6,2.605m47.635,0a2.6,2.6,0,1,0,2.6-2.605,2.6,2.6,0,0,0-2.6,2.605m31.752,0a2.6,2.6,0,1,0,2.6-2.605,2.605,2.605,0,0,0-2.6,2.605m21.077,0a2.6,2.6,0,1,0-2.6,2.6,2.6,2.6,0,0,0,2.6-2.6m-50.231-28.82A2.6,2.6,0,0,0,897,229.8c-1.664-.451-3.333-.881-5.029-1.27a2.65,2.65,0,0,0-.077.618,2.6,2.6,0,0,0,2.6,2.6m79.39,183.324a2.6,2.6,0,1,0,0,5.2,2.419,2.419,0,0,0,.84-.156c.581-.982,1.154-1.977,1.7-2.985a2.6,2.6,0,0,0-2.536-2.063m-161.376-154.5a2.6,2.6,0,1,0,2.6-2.605,2.6,2.6,0,0,0-2.6,2.605m95.263,0a2.6,2.6,0,1,0,2.605-2.605,2.6,2.6,0,0,0-2.605,2.605m-127.014,0a2.6,2.6,0,1,0,2.6-2.605,2.6,2.6,0,0,0-2.6,2.605m15.871,0a2.6,2.6,0,1,0,2.6-2.605,2.607,2.607,0,0,0-2.6,2.605m79.393,0a2.6,2.6,0,1,0,2.6-2.605,2.6,2.6,0,0,0-2.6,2.605m47.627-15.713a2.6,2.6,0,1,0,2.6-2.6,2.6,2.6,0,0,0-2.6,2.6m-79.387-15.709a2.6,2.6,0,1,0,2.6-2.605,2.6,2.6,0,0,0-2.6,2.605m63.51,15.709a2.6,2.6,0,1,0,2.605-2.6,2.595,2.595,0,0,0-2.605,2.6m-111.143,0a2.6,2.6,0,1,0,2.6-2.6,2.6,2.6,0,0,0-2.6,2.6m63.513-15.709a2.6,2.6,0,1,0,2.6-2.605,2.6,2.6,0,0,0-2.6,2.605m15.88,0a2.6,2.6,0,1,0,2.6-2.605,2.6,2.6,0,0,0-2.6,2.605m-45.037,2.6a2.6,2.6,0,0,0,2.6-2.6,2.186,2.186,0,0,0-.083-.618c-1.692.389-3.356.819-5.018,1.27a2.593,2.593,0,0,0,2.5,1.95m13.278,13.106a2.6,2.6,0,1,0,2.6-2.6,2.6,2.6,0,0,0-2.6,2.6m-15.875,0a2.6,2.6,0,1,0,2.6-2.6,2.6,2.6,0,0,0-2.6,2.6M876.02,370.549a2.6,2.6,0,1,0,2.6-2.6,2.6,2.6,0,0,0-2.6,2.6m0-125.688a2.6,2.6,0,1,0,2.6-2.6,2.593,2.593,0,0,0-2.6,2.6m15.875,0a2.6,2.6,0,1,0,2.6-2.6,2.594,2.594,0,0,0-2.6,2.6m-31.755,0a2.6,2.6,0,1,0,2.6-2.6,2.6,2.6,0,0,0-2.6,2.6m111.139,62.85a2.6,2.6,0,1,0,2.6-2.6,2.6,2.6,0,0,0-2.6,2.6m-79.384,0a2.6,2.6,0,1,0,2.6-2.6,2.6,2.6,0,0,0-2.6,2.6m-15.875,0a2.6,2.6,0,1,0,2.6-2.6,2.6,2.6,0,0,0-2.6,2.6m31.75,0a2.6,2.6,0,1,0,2.605-2.6,2.6,2.6,0,0,0-2.605,2.6m15.877,0a2.6,2.6,0,1,0,2.6-2.6,2.6,2.6,0,0,0-2.6,2.6m15.88,0a2.6,2.6,0,1,0,2.6-2.6,2.6,2.6,0,0,0-2.6,2.6m-79.387,0a2.6,2.6,0,1,0,2.6-2.6,2.6,2.6,0,0,0-2.6,2.6m-95.263,0a2.6,2.6,0,1,0,2.6-2.6,2.6,2.6,0,0,0-2.6,2.6m15.88,0a2.6,2.6,0,1,0,2.6-2.6,2.6,2.6,0,0,0-2.6,2.6m15.871,0a2.6,2.6,0,1,0,2.6-2.6,2.6,2.6,0,0,0-2.6,2.6m-47.629,0a2.6,2.6,0,1,0,2.6-2.6,2.6,2.6,0,0,0-2.6,2.6m95.262,0a2.6,2.6,0,1,0,2.6-2.6,2.6,2.6,0,0,0-2.6,2.6m-31.753,0a2.6,2.6,0,1,0,2.6-2.6,2.6,2.6,0,0,0-2.6,2.6m15.878,0a2.6,2.6,0,1,0,2.6-2.6,2.6,2.6,0,0,0-2.6,2.6M955.4,291.993a2.6,2.6,0,1,0,2.6-2.6,2.592,2.592,0,0,0-2.6,2.6m-63.505,0a2.6,2.6,0,1,0,2.6-2.6,2.589,2.589,0,0,0-2.6,2.6m-15.875,0a2.6,2.6,0,1,0,2.6-2.6,2.588,2.588,0,0,0-2.6,2.6M955.4,307.711a2.6,2.6,0,1,0,2.6-2.6,2.6,2.6,0,0,0-2.6,2.6m-111.14-15.718a2.6,2.6,0,1,0,2.6-2.6,2.593,2.593,0,0,0-2.6,2.6m79.387,0a2.6,2.6,0,1,0,2.6-2.6,2.592,2.592,0,0,0-2.6,2.6m-15.877,0a2.6,2.6,0,1,0,2.605-2.6,2.589,2.589,0,0,0-2.605,2.6m-47.63,0a2.6,2.6,0,1,0,2.6-2.6,2.591,2.591,0,0,0-2.6,2.6m-79.384,0a2.6,2.6,0,1,0,2.6-2.6,2.589,2.589,0,0,0-2.6,2.6m-15.88,0a2.6,2.6,0,1,0,2.6-2.6,2.588,2.588,0,0,0-2.6,2.6m47.63,0a2.6,2.6,0,1,0,2.6-2.6,2.591,2.591,0,0,0-2.6,2.6m-15.88,0a2.6,2.6,0,1,0,2.6-2.6,2.594,2.594,0,0,0-2.6,2.6m31.758,0a2.6,2.6,0,1,0,2.6-2.6,2.592,2.592,0,0,0-2.6,2.6m52.83,172.826a2.6,2.6,0,1,0-2.6,2.6,2.6,2.6,0,0,0,2.6-2.6M801.832,276.284a2.6,2.6,0,1,0-2.6,2.6,2.6,2.6,0,0,0,2.6-2.6m187.923,60.243a2.6,2.6,0,1,0,1.859,4.417c-.144-1.355-.312-2.69-.5-4.028a2.6,2.6,0,0,0-1.361-.389M817.709,276.284a2.6,2.6,0,1,0-2.6,2.6,2.6,2.6,0,0,0,2.6-2.6m15.874,0a2.6,2.6,0,1,0-2.6,2.6,2.595,2.595,0,0,0,2.6-2.6m137.7,15.709a2.6,2.6,0,0,0,5.139.537c-.542-1-1.114-2-1.7-2.985a2.574,2.574,0,0,0-3.444,2.448m15.877,31.423a2.605,2.605,0,0,0,1.957,2.513c-.335-1.491-.707-2.964-1.094-4.434a2.577,2.577,0,0,0-.863,1.921m-201.2-47.132a2.6,2.6,0,1,0-2.6,2.6,2.6,2.6,0,0,0,2.6-2.6m127.017,0a2.6,2.6,0,1,0-2.6,2.6,2.6,2.6,0,0,0,2.6-2.6m15.877,0a2.6,2.6,0,1,0-2.6,2.6,2.6,2.6,0,0,0,2.6-2.6m15.875,0a2.6,2.6,0,1,0-2.6,2.6,2.6,2.6,0,0,0,2.6-2.6m-47.63,0a2.6,2.6,0,1,0-2.6,2.6,2.6,2.6,0,0,0,2.6-2.6m-31.75,0a2.6,2.6,0,1,0-2.6,2.6,2.6,2.6,0,0,0,2.6-2.6m15.872,0a2.6,2.6,0,1,0-2.6,2.6,2.6,2.6,0,0,0,2.6-2.6m-31.753,0a2.6,2.6,0,1,0-2.6,2.6,2.6,2.6,0,0,0,2.6-2.6m-5.2,157.116a2.6,2.6,0,1,0,2.6-2.605,2.6,2.6,0,0,0-2.6,2.605m15.88,0a2.6,2.6,0,1,0,2.6-2.605,2.6,2.6,0,0,0-2.6,2.605m-31.755,0a2.6,2.6,0,1,0,2.6-2.605,2.6,2.6,0,0,0-2.6,2.605m63.51,0a2.6,2.6,0,1,0,2.6-2.605,2.6,2.6,0,0,0-2.6,2.605m-79.388,0a2.6,2.6,0,1,0,2.6-2.605,2.6,2.6,0,0,0-2.6,2.605m63.513,0a2.6,2.6,0,1,0,2.6-2.605,2.6,2.6,0,0,0-2.6,2.605m113.735-81.162a2.6,2.6,0,1,0,2.6,2.6,2.6,2.6,0,0,0-2.6-2.6M796.627,433.4a2.6,2.6,0,1,0,2.6-2.605,2.6,2.6,0,0,0-2.6,2.605m190.528-47.138a2.575,2.575,0,0,0,.863,1.921c.388-1.467.76-2.946,1.094-4.429a2.588,2.588,0,0,0-1.957,2.508m2.6-18.312a2.6,2.6,0,1,0,1.361,4.809c.186-1.338.354-2.672.5-4.024a2.588,2.588,0,0,0-1.859-.786M960.6,433.4A2.6,2.6,0,1,0,958,436a2.6,2.6,0,0,0,2.595-2.6m-195.719,0a2.6,2.6,0,1,0,2.6-2.605,2.6,2.6,0,0,0-2.6,2.605m15.88,0a2.6,2.6,0,1,0,2.6-2.605,2.6,2.6,0,0,0-2.6,2.605m148.092,31.419a2.6,2.6,0,1,0-2.6,2.6,2.6,2.6,0,0,0,2.6-2.6m-95.266-15.71a2.6,2.6,0,1,0-2.6,2.6,2.6,2.6,0,0,0,2.6-2.6m15.88,0a2.6,2.6,0,1,0-2.6,2.6,2.607,2.607,0,0,0,2.6-2.6m31.753,0a2.6,2.6,0,1,0-2.6,2.6,2.605,2.605,0,0,0,2.6-2.6m-15.872,0a2.6,2.6,0,1,0-2.6,2.6,2.608,2.608,0,0,0,2.6-2.6m-63.512,0a2.6,2.6,0,1,0-2.6,2.6,2.607,2.607,0,0,0,2.6-2.6M907.77,433.4a2.6,2.6,0,1,0,2.605-2.605,2.6,2.6,0,0,0-2.605,2.605m-90.062,15.709a2.6,2.6,0,1,0-2.6,2.6,2.606,2.606,0,0,0,2.6-2.6m-36.952,0a2.6,2.6,0,1,0,2.6-2.608,2.6,2.6,0,0,0-2.6,2.608m163.967,0a2.6,2.6,0,1,0-2.6,2.6,2.6,2.6,0,0,0,2.6-2.6M833.582,480.532a2.593,2.593,0,0,0-5.1-.663c1.662.454,3.333.89,5.018,1.279a2.2,2.2,0,0,0,.083-.616M860.14,370.549a2.6,2.6,0,1,0,2.6-2.6,2.606,2.606,0,0,0-2.6,2.6m52.832,78.56a2.6,2.6,0,1,0-2.6,2.6,2.607,2.607,0,0,0,2.6-2.6m-15.878,0a2.6,2.6,0,1,0-2.6,2.6,2.606,2.606,0,0,0,2.6-2.6m-2.6,28.821a2.594,2.594,0,0,0-2.6,2.6,2.668,2.668,0,0,0,.077.616c1.7-.389,3.365-.825,5.029-1.279a2.6,2.6,0,0,0-2.508-1.939m-34.353,2.6a2.6,2.6,0,1,0,2.6-2.6,2.6,2.6,0,0,0-2.6,2.6M960.6,276.284a2.6,2.6,0,1,0-2.595,2.6,2.593,2.593,0,0,0,2.595-2.6M844.261,480.532a2.6,2.6,0,1,0,2.6-2.6,2.6,2.6,0,0,0-2.6,2.6m36.955,0a2.6,2.6,0,1,0-2.6,2.6,2.6,2.6,0,0,0,2.6-2.6m31.757-15.713a2.6,2.6,0,1,0-2.6,2.6,2.6,2.6,0,0,0,2.6-2.6M751.6,294.588a2.6,2.6,0,1,0,0-5.194,2.668,2.668,0,0,0-.848.151q-.863,1.485-1.691,2.985a2.594,2.594,0,0,0,2.539,2.057m13.281-18.3a2.6,2.6,0,1,0,2.6-2.6,2.6,2.6,0,0,0-2.6,2.6M865.343,464.819a2.6,2.6,0,1,0-2.6,2.6,2.6,2.6,0,0,0,2.6-2.6m-47.635,0a2.6,2.6,0,1,0-2.6,2.6,2.6,2.6,0,0,0,2.6-2.6m31.753,0a2.6,2.6,0,1,0-2.6,2.6,2.6,2.6,0,0,0,2.6-2.6m47.632,0a2.6,2.6,0,1,0-2.6,2.6,2.6,2.6,0,0,0,2.6-2.6m-63.512,0a2.6,2.6,0,1,0-2.6,2.6,2.6,2.6,0,0,0,2.6-2.6m-31.75,0a2.6,2.6,0,1,0-2.6,2.6,2.6,2.6,0,0,0,2.6-2.6m127.017-15.71a2.6,2.6,0,1,0-2.6,2.6,2.607,2.607,0,0,0,2.6-2.6M812.507,386.262a2.6,2.6,0,1,0,2.6-2.605,2.6,2.6,0,0,0-2.6,2.605m15.878,0a2.6,2.6,0,1,0,2.6-2.605,2.6,2.6,0,0,0-2.6,2.605m-31.758,0a2.6,2.6,0,1,0,2.6-2.605,2.6,2.6,0,0,0-2.6,2.605m63.513,0a2.6,2.6,0,1,0,2.6-2.605,2.6,2.6,0,0,0-2.6,2.605m15.88,0a2.6,2.6,0,1,0,2.6-2.605,2.6,2.6,0,0,0-2.6,2.605m-95.263,0a2.6,2.6,0,1,0,2.6-2.605,2.6,2.6,0,0,0-2.6,2.605m63.5,0a2.6,2.6,0,1,0,2.6-2.605,2.6,2.6,0,0,0-2.6,2.605m111.14,15.71a2.6,2.6,0,1,0,2.6-2.6,2.6,2.6,0,0,0-2.6,2.6m-190.524-15.71a2.6,2.6,0,1,0,2.6-2.605,2.6,2.6,0,0,0-2.6,2.605m174.65,15.71a2.6,2.6,0,1,0,2.6-2.6,2.6,2.6,0,0,0-2.6,2.6m31.752,0a2.6,2.6,0,1,0,2.6-2.6,2.6,2.6,0,0,0-2.6,2.6M749,386.262a2.6,2.6,0,1,0,2.6-2.605,2.6,2.6,0,0,0-2.6,2.605m-10.675,0a2.583,2.583,0,0,0-1.96-2.508c.335,1.483.711,2.962,1.1,4.429a2.581,2.581,0,0,0,.864-1.921m26.554-15.713a2.6,2.6,0,1,0,2.6-2.6,2.6,2.6,0,0,0-2.6,2.6m47.63,0a2.6,2.6,0,1,0,2.6-2.6,2.606,2.606,0,0,0-2.6,2.6m111.14,31.423a2.6,2.6,0,1,0,2.6-2.6,2.6,2.6,0,0,0-2.6,2.6M780.757,370.549a2.6,2.6,0,1,0,2.6-2.6,2.6,2.6,0,0,0-2.6,2.6M891.9,386.262a2.6,2.6,0,1,0,2.6-2.605,2.6,2.6,0,0,0-2.6,2.605m-63.51-15.713a2.6,2.6,0,1,0,2.6-2.6,2.607,2.607,0,0,0-2.6,2.6m15.875,0a2.6,2.6,0,1,0,2.6-2.6,2.608,2.608,0,0,0-2.6,2.6m-47.633,0a2.6,2.6,0,1,0,2.6-2.6,2.609,2.609,0,0,0-2.6,2.6m127.02,15.713a2.6,2.6,0,1,0,2.6-2.605,2.6,2.6,0,0,0-2.6,2.605m15.88,0a2.6,2.6,0,1,0,2.6-2.605,2.6,2.6,0,0,0-2.6,2.605m-31.757,0a2.6,2.6,0,1,0,2.605-2.605,2.6,2.6,0,0,0-2.605,2.605M749,370.549a2.6,2.6,0,1,0,2.6-2.6,2.607,2.607,0,0,0-2.6,2.6m222.28,15.713a2.6,2.6,0,1,0,2.6-2.605,2.6,2.6,0,0,0-2.6,2.605m-15.878,0a2.6,2.6,0,1,0,2.6-2.605,2.6,2.6,0,0,0-2.6,2.605m-15.874,31.422a2.6,2.6,0,1,0,2.6-2.605,2.6,2.6,0,0,0-2.6,2.605m-63.507,0a2.6,2.6,0,1,0,2.6-2.605,2.6,2.6,0,0,0-2.6,2.605m-15.88,0a2.6,2.6,0,1,0,2.6-2.605,2.6,2.6,0,0,0-2.6,2.605m31.755,0a2.6,2.6,0,1,0,2.6-2.605,2.6,2.6,0,0,0-2.6,2.605m-47.635,0a2.6,2.6,0,1,0,2.6-2.605,2.6,2.6,0,0,0-2.6,2.605m63.51,0a2.6,2.6,0,1,0,2.605-2.605,2.6,2.6,0,0,0-2.605,2.605m15.877,0a2.6,2.6,0,1,0,2.6-2.605,2.6,2.6,0,0,0-2.6,2.605m-158.77,0a2.6,2.6,0,1,0,2.6-2.605,2.6,2.6,0,0,0-2.6,2.605m15.88,0a2.6,2.6,0,1,0,2.6-2.605,2.6,2.6,0,0,0-2.6,2.605m47.629,0a2.6,2.6,0,1,0,2.6-2.605,2.6,2.6,0,0,0-2.6,2.605M923.647,433.4a2.6,2.6,0,1,0,2.6-2.605,2.6,2.6,0,0,0-2.6,2.605M955.4,417.684a2.6,2.6,0,1,0,2.6-2.605,2.6,2.6,0,0,0-2.6,2.605m-142.894,0a2.6,2.6,0,1,0,2.6-2.605,2.6,2.6,0,0,0-2.6,2.605m-15.88,0a2.6,2.6,0,1,0,2.6-2.605,2.6,2.6,0,0,0-2.6,2.605m-31.75-15.712a2.6,2.6,0,1,0,2.6-2.6,2.594,2.594,0,0,0-2.6,2.6m95.263,0a2.6,2.6,0,1,0,2.6-2.6,2.6,2.6,0,0,0-2.6,2.6m-15.88,0a2.6,2.6,0,1,0,2.6-2.6,2.6,2.6,0,0,0-2.6,2.6m-15.875,0a2.6,2.6,0,1,0,2.6-2.6,2.6,2.6,0,0,0-2.6,2.6m63.51,0a2.6,2.6,0,1,0,2.6-2.6,2.594,2.594,0,0,0-2.6,2.6m-15.875,0a2.6,2.6,0,1,0,2.6-2.6,2.593,2.593,0,0,0-2.6,2.6m-63.513,0a2.6,2.6,0,1,0,2.6-2.6,2.6,2.6,0,0,0-2.6,2.6M939.527,433.4a2.6,2.6,0,1,0,2.6-2.605,2.6,2.6,0,0,0-2.6,2.605M754.2,417.684a2.6,2.6,0,0,0-5.142-.542q.827,1.512,1.691,2.985a2.477,2.477,0,0,0,.848.156,2.6,2.6,0,0,0,2.6-2.6M749,401.972a2.6,2.6,0,1,0,2.6-2.6,2.6,2.6,0,0,0-2.6,2.6m158.772,0a2.6,2.6,0,1,0,2.605-2.6,2.595,2.595,0,0,0-2.605,2.6m-127.014,0a2.6,2.6,0,1,0,2.6-2.6,2.594,2.594,0,0,0-2.6,2.6m15.871,0a2.6,2.6,0,1,0,2.6-2.6,2.6,2.6,0,0,0-2.6,2.6" transform="translate(379.678 119.4)" fill="#ffa031"/>
              <path id="Trazado_598927" data-name="Trazado 598927" d="M522.025,98.195c-4.2,0-6.256-3.218-8.062-6.052-1.644-2.577-3.062-4.8-5.778-4.8s-4.133,2.224-5.774,4.8c-1.81,2.834-3.862,6.052-8.066,6.052s-6.25-3.218-8.061-6.052c-1.641-2.577-3.061-4.8-5.774-4.8s-4.136,2.224-5.778,4.8c-1.811,2.834-3.857,6.052-8.062,6.052s-6.255-3.218-8.064-6.052c-1.642-2.577-3.058-4.8-5.775-4.8a1.357,1.357,0,0,1,0-2.714c4.2,0,6.258,3.218,8.064,6.054,1.642,2.578,3.061,4.8,5.775,4.8s4.134-2.222,5.777-4.8c1.807-2.835,3.859-6.054,8.064-6.054s6.253,3.218,8.059,6.054c1.643,2.578,3.062,4.8,5.775,4.8s4.134-2.222,5.777-4.8c1.808-2.835,3.86-6.054,8.063-6.054s6.254,3.218,8.064,6.054c1.641,2.578,3.059,4.8,5.777,4.8a1.356,1.356,0,0,1,0,2.713m-27,21.252a1.355,1.355,0,0,0-1.356-1.356c-2.714,0-4.131-2.224-5.775-4.8-1.808-2.838-3.859-6.055-8.062-6.055s-6.254,3.217-8.062,6.055c-1.641,2.575-3.059,4.8-5.775,4.8s-4.133-2.224-5.775-4.8c-1.811-2.838-3.86-6.055-8.064-6.055a1.357,1.357,0,0,0,0,2.714c2.717,0,4.134,2.224,5.777,4.8,1.807,2.835,3.857,6.052,8.063,6.052s6.255-3.217,8.063-6.052c1.641-2.576,3.059-4.8,5.775-4.8s4.133,2.224,5.777,4.8c1.809,2.835,3.859,6.052,8.061,6.052a1.355,1.355,0,0,0,1.356-1.356" transform="translate(200.18 163.32)" fill="#0098e8"/>
              <path id="Trazado_598928" data-name="Trazado 598928" d="M148.774,338.509c-4.205,0-6.257-3.217-8.064-6.051-1.644-2.578-3.061-4.8-5.777-4.8s-4.134,2.224-5.775,4.8c-1.811,2.834-3.86,6.051-8.066,6.051s-6.25-3.217-8.059-6.051c-1.642-2.578-3.062-4.8-5.775-4.8s-4.134,2.224-5.778,4.8c-1.809,2.834-3.857,6.051-8.063,6.051s-6.254-3.217-8.062-6.051c-1.642-2.578-3.058-4.8-5.775-4.8a1.356,1.356,0,0,1,0-2.713c4.2,0,6.257,3.217,8.064,6.054,1.641,2.577,3.059,4.8,5.774,4.8s4.136-2.222,5.777-4.8c1.809-2.837,3.859-6.054,8.064-6.054s6.255,3.217,8.061,6.054c1.642,2.577,3.061,4.8,5.774,4.8s4.136-2.222,5.778-4.8c1.807-2.837,3.86-6.054,8.063-6.054S141.187,328.161,143,331c1.641,2.577,3.059,4.8,5.777,4.8a1.356,1.356,0,0,1,0,2.713m-27,21.252a1.356,1.356,0,0,0-1.356-1.355c-2.716,0-4.133-2.225-5.775-4.8-1.809-2.837-3.859-6.055-8.064-6.055s-6.254,3.218-8.061,6.055c-1.642,2.575-3.061,4.8-5.777,4.8s-4.131-2.225-5.775-4.8c-1.807-2.837-3.86-6.055-8.064-6.055a1.358,1.358,0,0,0,0,2.716c2.717,0,4.136,2.222,5.777,4.8,1.809,2.834,3.859,6.051,8.063,6.051S99,357.9,100.8,355.067c1.641-2.578,3.059-4.8,5.774-4.8s4.134,2.222,5.778,4.8c1.809,2.834,3.859,6.051,8.061,6.051a1.356,1.356,0,0,0,1.356-1.356" transform="translate(39.843 166.956)" fill="#ffa031"/>
              <path id="Trazado_598929" data-name="Trazado 598929" d="M812.2,201.256c-4.205,0-6.258-3.218-8.064-6.052-1.644-2.576-3.062-4.8-5.778-4.8s-4.133,2.224-5.774,4.8c-1.81,2.834-3.862,6.052-8.065,6.052s-6.25-3.218-8.061-6.052c-1.641-2.576-3.061-4.8-5.773-4.8s-4.136,2.224-5.778,4.8c-1.811,2.834-3.857,6.052-8.062,6.052s-6.255-3.218-8.064-6.052c-1.642-2.576-3.058-4.8-5.775-4.8a1.357,1.357,0,0,1,0-2.714c4.2,0,6.258,3.218,8.064,6.054,1.643,2.577,3.061,4.8,5.775,4.8s4.134-2.224,5.777-4.8c1.808-2.835,3.859-6.054,8.064-6.054s6.253,3.218,8.059,6.054c1.643,2.577,3.063,4.8,5.775,4.8s4.134-2.224,5.777-4.8c1.807-2.835,3.86-6.054,8.063-6.054s6.253,3.218,8.065,6.054c1.641,2.577,3.058,4.8,5.777,4.8a1.356,1.356,0,0,1,0,2.713m-27,21.252a1.355,1.355,0,0,0-1.355-1.356c-2.716,0-4.133-2.224-5.777-4.8-1.807-2.837-3.859-6.054-8.062-6.054s-6.253,3.217-8.062,6.054c-1.641,2.576-3.059,4.8-5.775,4.8s-4.133-2.224-5.775-4.8c-1.809-2.837-3.86-6.054-8.064-6.054a1.357,1.357,0,0,0,0,2.714c2.717,0,4.134,2.224,5.777,4.8,1.808,2.835,3.857,6.052,8.063,6.052s6.255-3.217,8.063-6.052c1.641-2.576,3.059-4.8,5.775-4.8s4.133,2.224,5.776,4.8c1.811,2.835,3.859,6.052,8.063,6.052a1.355,1.355,0,0,0,1.355-1.356" transform="translate(380.709 96.435)" fill="#ffa031"/>
              <path id="Trazado_598930" data-name="Trazado 598930" d="M747.806,155.378a3.738,3.738,0,1,0-3.737-3.741,3.736,3.736,0,0,0,3.737,3.741m-14.717,0a3.738,3.738,0,1,0-3.738-3.741,3.738,3.738,0,0,0,3.738,3.741m14.717-15.769a3.738,3.738,0,1,0-3.737-3.739,3.735,3.735,0,0,0,3.737,3.739m-14.717,0a3.738,3.738,0,1,0-3.738-3.739,3.737,3.737,0,0,0,3.738,3.739m14.717-15.768a3.738,3.738,0,1,0-3.737-3.739,3.735,3.735,0,0,0,3.737,3.739m-14.717,0a3.738,3.738,0,1,0-3.738-3.739,3.737,3.737,0,0,0,3.738,3.739m14.717-15.768a3.738,3.738,0,1,0-3.737-3.741,3.736,3.736,0,0,0,3.737,3.741m-14.717,0a3.738,3.738,0,1,0-3.738-3.741,3.738,3.738,0,0,0,3.738,3.741" transform="translate(374.741 51.687)" fill="#ffa031"/>
              <path id="Trazado_598931" data-name="Trazado 598931" d="M138.145,280.706a3.738,3.738,0,1,0-3.738-3.741,3.737,3.737,0,0,0,3.738,3.741m-14.717,0a3.738,3.738,0,1,0-3.738-3.741,3.737,3.737,0,0,0,3.738,3.741m14.717-15.768a3.738,3.738,0,1,0-3.738-3.741,3.737,3.737,0,0,0,3.738,3.741m-14.717,0a3.738,3.738,0,1,0-3.738-3.741,3.737,3.737,0,0,0,3.738,3.741m14.717-15.768a3.738,3.738,0,1,0-3.738-3.741,3.737,3.737,0,0,0,3.738,3.741m-14.717,0a3.738,3.738,0,1,0-3.738-3.741,3.737,3.737,0,0,0,3.738,3.741M138.145,233.4a3.738,3.738,0,1,0-3.738-3.741,3.736,3.736,0,0,0,3.738,3.741m-14.717,0a3.738,3.738,0,1,0-3.738-3.741,3.736,3.736,0,0,0,3.738,3.741" transform="translate(301.879 -166.784)" fill="#ffa031"/>
              <path id="Trazado_598932" data-name="Trazado 598932" d="M713,351.75a8.99,8.99,0,1,1-8.992-8.99A8.992,8.992,0,0,1,713,351.75" transform="translate(357.102 176.11)" fill="#0098e8"/>
              <path id="Trazado_598933" data-name="Trazado 598933" d="M256.2,93.739a8.99,8.99,0,1,1-8.99-8.99,8.99,8.99,0,0,1,8.99,8.99" transform="translate(383.398 29.173)" fill="#0098e8"/>
              <path id="Trazado_598934" data-name="Trazado 598934" d="M693.549,243.457a5.245,5.245,0,1,1-5.245-5.244,5.247,5.247,0,0,1,5.245,5.244" transform="translate(350.956 122.394)" fill="#ffa031"/>
              <path id="Trazado_598935" data-name="Trazado 598935" d="M593.167,81.086a5.245,5.245,0,1,1-5.245-5.244,5.245,5.245,0,0,1,5.245,5.244" transform="translate(309.379 13.968)" fill="#ffa031"/>
              <path id="Trazado_598936" data-name="Trazado 598936" d="M457.561,351.633a5.245,5.245,0,1,1-5.245-5.242,5.246,5.246,0,0,1,5.245,5.242" transform="translate(229.706 177.976)" fill="#ffa031"/>
              <path id="Trazado_598937" data-name="Trazado 598937" d="M80.112,257.106a5.245,5.245,0,1,1-5.244-5.244,5.246,5.246,0,0,1,5.244,5.244" transform="translate(-31.006 113.99)" fill="#ffa031"/>
              <path id="Trazado_598938" data-name="Trazado 598938" d="M659.166,108.061a8.522,8.522,0,1,1,8.523-8.521,8.532,8.532,0,0,1-8.523,8.521m0-11.861a3.339,3.339,0,1,0,3.339,3.339,3.344,3.344,0,0,0-3.339-3.339" transform="translate(334.3 46.765)" fill="#ffa031"/>
              <path id="Trazado_598939" data-name="Trazado 598939" d="M826.586,184.227a8.522,8.522,0,1,1,8.521-8.521,8.532,8.532,0,0,1-8.521,8.521m0-11.861a3.339,3.339,0,1,0,3.338,3.339,3.343,3.343,0,0,0-3.338-3.339" transform="translate(459.321 51.811)" fill="#ffa031"/>
              <path id="Trazado_598940" data-name="Trazado 598940" d="M206.966,199.044a8.522,8.522,0,1,1,8.521-8.521,8.531,8.531,0,0,1-8.521,8.521m0-11.861a3.339,3.339,0,1,0,3.339,3.339,3.344,3.344,0,0,0-3.339-3.339" transform="translate(942.481 -103.991)" fill="#ffa031"/>
              <path id="Trazado_598941" data-name="Trazado 598941" d="M193.769,352.135a8.522,8.522,0,1,1,8.521-8.521,8.531,8.531,0,0,1-8.521,8.521m0-11.861a3.339,3.339,0,1,0,3.336,3.339,3.344,3.344,0,0,0-3.336-3.339" transform="translate(258.515 119.103)" fill="#0098e8"/>
            </g>
          </g>
          <g id="Grupo_156632" data-name="Grupo 156632" transform="translate(-50.644 -40.934)" opacity="0.07">
            <g id="Grupo_156609" data-name="Grupo 156609" transform="translate(0)">
              <g id="Grupo_156608" data-name="Grupo 156608" clip-path="url(#clip-path-3)">
                <rect id="Rectángulo_44539" data-name="Rectángulo 44539" width="1528.682" height="1403.158" transform="matrix(0.367, -0.93, 0.93, 0.367, -425.811, 1074.668)" fill="url(#linear-gradient)"/>
              </g>
            </g>
            <g id="Grupo_156611" data-name="Grupo 156611" transform="translate(691.725 173.393)">
              <g id="Grupo_156610" data-name="Grupo 156610" clip-path="url(#clip-path-4)">
                <rect id="Rectángulo_44540" data-name="Rectángulo 44540" width="324.877" height="897.462" transform="translate(0 0)" fill="url(#linear-gradient-2)"/>
              </g>
            </g>
            <g id="Grupo_156613" data-name="Grupo 156613" transform="translate(271.359 499.989)">
              <g id="Grupo_156612" data-name="Grupo 156612" clip-path="url(#clip-path-5)">
                <rect id="Rectángulo_44541" data-name="Rectángulo 44541" width="569.677" height="741.581" transform="translate(-34.593 0)" fill="url(#linear-gradient-3)"/>
              </g>
            </g>
            <g id="Grupo_156615" data-name="Grupo 156615" transform="translate(186.713 629.16)">
              <g id="Grupo_156614" data-name="Grupo 156614" clip-path="url(#clip-path-6)">
                <rect id="Rectángulo_44542" data-name="Rectángulo 44542" width="243.743" height="259.959" transform="translate(-73.457 131.701) rotate(-62.447)" fill="url(#linear-gradient-4)"/>
              </g>
            </g>
            <g id="Grupo_156617" data-name="Grupo 156617" transform="translate(214.638)">
              <g id="Grupo_156616" data-name="Grupo 156616" clip-path="url(#clip-path-7)">
                <rect id="Rectángulo_44543" data-name="Rectángulo 44543" width="483.402" height="479.812" transform="translate(0)" fill="url(#linear-gradient-5)"/>
              </g>
            </g>
            <g id="Grupo_156619" data-name="Grupo 156619" transform="translate(0 125.65)">
              <g id="Grupo_156618" data-name="Grupo 156618" clip-path="url(#clip-path-8)">
                <rect id="Rectángulo_44544" data-name="Rectángulo 44544" width="372.608" height="311.417" transform="translate(-2.297 0)" fill="url(#linear-gradient-6)"/>
              </g>
            </g>
            <g id="Grupo_156621" data-name="Grupo 156621" transform="translate(186.713 629.16)">
              <g id="Grupo_156620" data-name="Grupo 156620" clip-path="url(#clip-path-9)">
                <rect id="Rectángulo_44545" data-name="Rectángulo 44545" width="205.795" height="167.552" transform="translate(-4.743 0)" fill="url(#linear-gradient-7)"/>
              </g>
            </g>
            <g id="Grupo_156623" data-name="Grupo 156623" transform="translate(217.713 506.765)">
              <g id="Grupo_156622" data-name="Grupo 156622" clip-path="url(#clip-path-10)">
                <rect id="Rectángulo_44546" data-name="Rectángulo 44546" width="308.863" height="320.398" transform="translate(-95.734 146.337) rotate(-57.031)" fill="url(#linear-gradient-8)"/>
              </g>
            </g>
            <g id="Grupo_156625" data-name="Grupo 156625" transform="translate(217.713 506.765)">
              <g id="Grupo_156624" data-name="Grupo 156624" clip-path="url(#clip-path-11)">
                <rect id="Rectángulo_44547" data-name="Rectángulo 44547" width="247.04" height="207.908" transform="translate(-0.813 0)" fill="url(#linear-gradient-9)"/>
              </g>
            </g>
            <g id="Grupo_156627" data-name="Grupo 156627" transform="translate(431.723 636.986)">
              <g id="Grupo_156626" data-name="Grupo 156626" clip-path="url(#clip-path-12)">
                <rect id="Rectángulo_44548" data-name="Rectángulo 44548" width="64.227" height="37.012" transform="matrix(0.079, -0.997, 0.997, 0.079, -4.88, 61.485)" fill="url(#linear-gradient-10)"/>
              </g>
            </g>
            <g id="Grupo_156629" data-name="Grupo 156629" transform="translate(514.667 526.158)">
              <g id="Grupo_156628" data-name="Grupo 156628" clip-path="url(#clip-path-13)">
                <rect id="Rectángulo_44549" data-name="Rectángulo 44549" width="171.122" height="314.376" transform="matrix(0.972, -0.237, 0.237, 0.972, -93.923, 16.721)" fill="url(#linear-gradient-11)"/>
              </g>
            </g>
            <g id="Grupo_156631" data-name="Grupo 156631" transform="translate(0.001)">
              <g id="Grupo_156630" data-name="Grupo 156630" clip-path="url(#clip-path-14)">
                <path id="Trazado_598953" data-name="Trazado 598953" d="M61.26,47.479c3.036-2.424,6.314-4.467,9.535-6.707,3.44-1.778,6.857-3.659,10.4-5.3a91.845,91.845,0,0,1,22.5-6.811,75.953,75.953,0,0,1,23.652-.231c7.78,1.3,15.607,3.636,21.84,8.473a91.162,91.162,0,0,0-22.313-2.7,141.447,141.447,0,0,0-21.979,1.882c-7.319,1-14.452,3.036-21.748,4.814Z" transform="translate(645.887 291.064)" fill="#e08172"/>
                <path id="Trazado_598954" data-name="Trazado 598954" d="M33.623,63.562c13.817-4.675,27.312-8.4,39.94-14.094a120.322,120.322,0,0,0,18.262-9.535,64.382,64.382,0,0,0,15.664-13.852c-1.72,7.261-6.672,13.379-12.109,18.412a66.185,66.185,0,0,1-18.8,11.878,91.866,91.866,0,0,1-21.147,6.176L44.555,63.759c-3.671-.069-7.284.1-10.932-.2" transform="translate(354.5 274.982)" fill="#e08172"/>
                <path id="Trazado_598955" data-name="Trazado 598955" d="M29.627,55.755c10.4-5.864,20.351-10.874,29.632-17.05A123.587,123.587,0,0,0,84.885,16.842c-1.1,5.968-4.363,11.278-8.08,16.022A58.543,58.543,0,0,1,63.391,44.985a66.143,66.143,0,0,1-16.23,7.688,61.3,61.3,0,0,1-17.534,3.082" transform="translate(312.368 177.571)" fill="#e08172"/>
                <path id="Trazado_598956" data-name="Trazado 598956" d="M24.8,39.449c6.037-8.219,14.129-14.221,22.59-19.22C56,15.45,65.132,11.491,75.244,10.14c-7.63,6.707-15.814,11.717-24.114,16.611-4.236,2.3-8.369,4.721-12.79,6.753A128.843,128.843,0,0,1,24.8,39.449" transform="translate(261.465 106.91)" fill="#e08172"/>
                <path id="Trazado_598957" data-name="Trazado 598957" d="M9.94,73.059c6.072-3.451,12.086-6.291,17.534-10.043A114.712,114.712,0,0,0,42.908,51.092C52.581,42.422,60.535,32.068,67.6,20.213c-.577,6.984-3.163,13.656-6.522,19.832a62.429,62.429,0,0,1-13.1,16.611c-10.5,9.523-24.183,15.653-38.035,16.4" transform="translate(104.801 213.113)" fill="#e08172"/>
                <path id="Trazado_598958" data-name="Trazado 598958" d="M19.6,90.54c4.271-5.206,8.761-9.766,12.732-14.822,4.006-4.975,7.965-9.916,11.578-15.133,7.515-10.262,14.037-21.067,20.847-32.506a63.1,63.1,0,0,1-5,19.358,82.989,82.989,0,0,1-9.731,17.534C42.2,75.811,31.843,85.161,19.6,90.54" transform="translate(206.608 296.047)" fill="#e08172"/>
                <path id="Trazado_598959" data-name="Trazado 598959" d="M29.627,87.779c1.616-4.975,3.752-9.419,5.622-13.991L41.09,60.376C45.13,51.51,48.9,42.668,53.649,33.491a48.173,48.173,0,0,1-1,15.353,69.4,69.4,0,0,1-4.687,14.591c-4.248,9.258-10.1,17.985-18.331,24.345" transform="translate(312.368 353.108)" fill="#e08172"/>
                <path id="Trazado_598960" data-name="Trazado 598960" d="M20.894,103.781c-.947-11.659,2.817-23.606,9.373-33.418A57.075,57.075,0,0,1,42.146,57.319a45.01,45.01,0,0,1,15.26-8.554C49.51,57.3,42.457,65.457,36.512,74.553A142.107,142.107,0,0,0,28.166,88.52c-2.69,4.825-4.64,9.985-7.272,15.26" transform="translate(218.769 514.147)" fill="#e08172"/>
                <path id="Trazado_598961" data-name="Trazado 598961" d="M33.592,108.862c3.221-4.548,6.684-8.45,9.685-12.709,3.036-4.2,5.945-8.392,8.611-12.732a218.914,218.914,0,0,0,14.522-27.7c.808,5.541-.058,11.1-1.478,16.449a55.085,55.085,0,0,1-6.661,15.226c-5.956,9.362-14.429,17.327-24.68,21.471" transform="translate(354.173 587.434)" fill="#e08172"/>
                <path id="Trazado_598962" data-name="Trazado 598962" d="M26.672,115.9c3.89-4.306,7.7-8.127,11.07-12.374,3.278-4.306,6.672-8.415,9.65-12.917,6.222-8.819,11.774-18.054,18.192-27.566a55.729,55.729,0,0,1-3.971,16.68,72.608,72.608,0,0,1-8.057,15.191c-6.614,9.315-15.745,17.65-26.885,20.986" transform="translate(281.213 664.675)" fill="#e08172"/>
                <path id="Trazado_598963" data-name="Trazado 598963" d="M17.775,115.582c-.739-11.185,2.62-22.059,7.041-31.975,4.733-9.823,10.608-19.174,18.908-26.642C40.423,67.573,36,77.131,31.639,86.758c-4.548,9.581-8.865,18.92-13.864,28.824" transform="translate(186.334 600.603)" fill="#e08172"/>
                <path id="Trazado_598964" data-name="Trazado 598964" d="M46.422,126.125l20.79-10.62c6.753-3.705,13.61-7.122,20.27-10.943C101,97.244,114.2,89.463,128.218,82.168A113.567,113.567,0,0,1,110.88,98.225a153.144,153.144,0,0,1-19.774,12.929c-13.829,7.48-28.893,13.333-44.684,14.972" transform="translate(489.444 866.328)" fill="#e08172"/>
                <path id="Trazado_598965" data-name="Trazado 598965" d="M186.568,69.587c-5.3,12.074-14,22.521-23.5,31.664a194.758,194.758,0,0,1-31.444,24.079A241.952,241.952,0,0,1,59,155.354c23.618-11.37,46.8-22.717,68.637-36.408,21.736-13.7,42.93-28.616,58.929-49.359" transform="translate(622.08 733.681)" fill="#e08172"/>
              </g>
            </g>
          </g>
        </g>
      </g>
    </g>
    <g id="Grupo_895848" data-name="Grupo 895848" transform="translate(864.333 139.238)">
      <g id="Grupo_80327" data-name="Grupo 80327" transform="translate(0 0.002)" clip-path="url(#clip-path-16)">
        <path id="Trazado_113636" data-name="Trazado 113636" d="M330.368,314.2A165.184,165.184,0,1,1,165.184,149.018,165.184,165.184,0,0,1,330.368,314.2" transform="translate(0 -102.181)" fill="#ec9ca9"/>
        <path id="Trazado_113637" data-name="Trazado 113637" d="M1227.625,558.174A119.694,119.694,0,1,1,1107.932,438.48a119.694,119.694,0,0,1,119.694,119.694" transform="translate(-677.626 -300.662)" fill="#ffa031"/>
        <path id="Trazado_113638" data-name="Trazado 113638" d="M1255.512,609.662a96.092,96.092,0,1,1-96.093-96.093,96.093,96.093,0,0,1,96.093,96.093" transform="translate(-729.113 -352.15)" fill="#fff"/>
        <path id="Trazado_113639" data-name="Trazado 113639" d="M668.082,691.872a58.408,58.408,0,1,1-58.408-58.408,58.408,58.408,0,0,1,58.408,58.408" transform="translate(-377.997 -434.361)" fill="#fff"/>
        <path id="Trazado_113640" data-name="Trazado 113640" d="M1474.307,265.333a3.691,3.691,0,1,1-3.691-3.691,3.691,3.691,0,0,1,3.691,3.691" transform="translate(-1005.856 -179.406)" fill="#f9e8dc"/>
        <path id="Trazado_113641" data-name="Trazado 113641" d="M1525.982,265.333a3.691,3.691,0,1,1-3.691-3.691,3.691,3.691,0,0,1,3.691,3.691" transform="translate(-1041.289 -179.406)" fill="#f9e8dc"/>
        <path id="Trazado_113642" data-name="Trazado 113642" d="M1577.657,265.333a3.691,3.691,0,1,1-3.691-3.691,3.691,3.691,0,0,1,3.691,3.691" transform="translate(-1076.722 -179.406)" fill="#f9e8dc"/>
        <path id="Trazado_113643" data-name="Trazado 113643" d="M1629.332,265.333a3.691,3.691,0,1,1-3.691-3.691,3.691,3.691,0,0,1,3.691,3.691" transform="translate(-1112.155 -179.406)" fill="#f9e8dc"/>
        <path id="Trazado_113644" data-name="Trazado 113644" d="M1681.007,265.333a3.691,3.691,0,1,1-3.691-3.691,3.691,3.691,0,0,1,3.691,3.691" transform="translate(-1147.588 -179.406)" fill="#f9e8dc"/>
        <path id="Trazado_113645" data-name="Trazado 113645" d="M1474.307,314.659a3.691,3.691,0,1,1-3.691-3.691,3.691,3.691,0,0,1,3.691,3.691" transform="translate(-1005.856 -213.228)" fill="#f9e8dc"/>
        <path id="Trazado_113646" data-name="Trazado 113646" d="M1525.982,314.659a3.691,3.691,0,1,1-3.691-3.691,3.691,3.691,0,0,1,3.691,3.691" transform="translate(-1041.289 -213.228)" fill="#f9e8dc"/>
        <path id="Trazado_113647" data-name="Trazado 113647" d="M1577.657,314.659a3.691,3.691,0,1,1-3.691-3.691,3.691,3.691,0,0,1,3.691,3.691" transform="translate(-1076.722 -213.228)" fill="#f9e8dc"/>
        <path id="Trazado_113648" data-name="Trazado 113648" d="M1629.332,314.659a3.691,3.691,0,1,1-3.691-3.691,3.691,3.691,0,0,1,3.691,3.691" transform="translate(-1112.155 -213.228)" fill="#f9e8dc"/>
        <path id="Trazado_113649" data-name="Trazado 113649" d="M1681.007,314.659a3.691,3.691,0,1,1-3.691-3.691,3.691,3.691,0,0,1,3.691,3.691" transform="translate(-1147.588 -213.228)" fill="#f9e8dc"/>
        <path id="Trazado_113650" data-name="Trazado 113650" d="M1474.307,363.985a3.691,3.691,0,1,1-3.691-3.691,3.691,3.691,0,0,1,3.691,3.691" transform="translate(-1005.856 -247.051)" fill="#f9e8dc"/>
        <path id="Trazado_113651" data-name="Trazado 113651" d="M1525.982,363.985a3.691,3.691,0,1,1-3.691-3.691,3.691,3.691,0,0,1,3.691,3.691" transform="translate(-1041.289 -247.051)" fill="#f9e8dc"/>
        <path id="Trazado_113652" data-name="Trazado 113652" d="M1577.657,363.985a3.691,3.691,0,1,1-3.691-3.691,3.691,3.691,0,0,1,3.691,3.691" transform="translate(-1076.722 -247.051)" fill="#f9e8dc"/>
        <path id="Trazado_113653" data-name="Trazado 113653" d="M1629.332,363.985a3.691,3.691,0,1,1-3.691-3.691,3.691,3.691,0,0,1,3.691,3.691" transform="translate(-1112.155 -247.051)" fill="#f9e8dc"/>
        <path id="Trazado_113654" data-name="Trazado 113654" d="M1681.007,363.985a3.691,3.691,0,1,1-3.691-3.691,3.691,3.691,0,0,1,3.691,3.691" transform="translate(-1147.588 -247.051)" fill="#f9e8dc"/>
        <path id="Trazado_113655" data-name="Trazado 113655" d="M1474.307,413.312a3.691,3.691,0,1,1-3.691-3.691,3.691,3.691,0,0,1,3.691,3.691" transform="translate(-1005.856 -280.874)" fill="#f9e8dc"/>
        <path id="Trazado_113656" data-name="Trazado 113656" d="M1525.982,413.312a3.691,3.691,0,1,1-3.691-3.691,3.691,3.691,0,0,1,3.691,3.691" transform="translate(-1041.289 -280.874)" fill="#f9e8dc"/>
        <path id="Trazado_113657" data-name="Trazado 113657" d="M1577.657,413.312a3.691,3.691,0,1,1-3.691-3.691,3.691,3.691,0,0,1,3.691,3.691" transform="translate(-1076.722 -280.874)" fill="#f9e8dc"/>
        <path id="Trazado_113658" data-name="Trazado 113658" d="M1629.332,413.312a3.691,3.691,0,1,1-3.691-3.691,3.691,3.691,0,0,1,3.691,3.691" transform="translate(-1112.155 -280.874)" fill="#f9e8dc"/>
        <path id="Trazado_113659" data-name="Trazado 113659" d="M1681.007,413.312a3.691,3.691,0,1,1-3.691-3.691,3.691,3.691,0,0,1,3.691,3.691" transform="translate(-1147.588 -280.874)" fill="#f9e8dc"/>
        <path id="Trazado_113660" data-name="Trazado 113660" d="M1474.307,462.638a3.691,3.691,0,1,1-3.691-3.691,3.691,3.691,0,0,1,3.691,3.691" transform="translate(-1005.856 -314.696)" fill="#f9e8dc"/>
        <path id="Trazado_113661" data-name="Trazado 113661" d="M1525.982,462.638a3.691,3.691,0,1,1-3.691-3.691,3.691,3.691,0,0,1,3.691,3.691" transform="translate(-1041.289 -314.696)" fill="#f9e8dc"/>
        <path id="Trazado_113662" data-name="Trazado 113662" d="M1577.657,462.638a3.691,3.691,0,1,1-3.691-3.691,3.691,3.691,0,0,1,3.691,3.691" transform="translate(-1076.722 -314.696)" fill="#f9e8dc"/>
        <path id="Trazado_113663" data-name="Trazado 113663" d="M1629.332,462.638a3.691,3.691,0,1,1-3.691-3.691,3.691,3.691,0,0,1,3.691,3.691" transform="translate(-1112.155 -314.696)" fill="#f9e8dc"/>
        <path id="Trazado_113664" data-name="Trazado 113664" d="M1681.007,462.638a3.691,3.691,0,1,1-3.691-3.691,3.691,3.691,0,0,1,3.691,3.691" transform="translate(-1147.588 -314.696)" fill="#f9e8dc"/>
        <path id="Trazado_113665" data-name="Trazado 113665" d="M130.859,381.819a3.691,3.691,0,1,1-3.691-3.691,3.691,3.691,0,0,1,3.691,3.691" transform="translate(-84.666 -259.279)" fill="#fff"/>
        <path id="Trazado_113666" data-name="Trazado 113666" d="M182.534,381.819a3.691,3.691,0,1,1-3.691-3.691,3.691,3.691,0,0,1,3.691,3.691" transform="translate(-120.099 -259.279)" fill="#fff"/>
        <path id="Trazado_113667" data-name="Trazado 113667" d="M234.209,381.819a3.691,3.691,0,1,1-3.691-3.691,3.691,3.691,0,0,1,3.691,3.691" transform="translate(-155.532 -259.279)" fill="#fff"/>
        <path id="Trazado_113668" data-name="Trazado 113668" d="M285.884,381.819a3.692,3.692,0,1,1-3.692-3.691,3.692,3.692,0,0,1,3.692,3.691" transform="translate(-190.966 -259.279)" fill="#fff"/>
        <path id="Trazado_113669" data-name="Trazado 113669" d="M337.559,381.819a3.691,3.691,0,1,1-3.691-3.691,3.691,3.691,0,0,1,3.691,3.691" transform="translate(-226.399 -259.279)" fill="#fff"/>
        <path id="Trazado_113670" data-name="Trazado 113670" d="M130.859,431.145a3.691,3.691,0,1,1-3.691-3.691,3.691,3.691,0,0,1,3.691,3.691" transform="translate(-84.666 -293.102)" fill="#fff"/>
        <path id="Trazado_113671" data-name="Trazado 113671" d="M182.534,431.145a3.691,3.691,0,1,1-3.691-3.691,3.691,3.691,0,0,1,3.691,3.691" transform="translate(-120.099 -293.102)" fill="#fff"/>
        <path id="Trazado_113672" data-name="Trazado 113672" d="M234.209,431.145a3.691,3.691,0,1,1-3.691-3.691,3.691,3.691,0,0,1,3.691,3.691" transform="translate(-155.532 -293.102)" fill="#fff"/>
        <path id="Trazado_113673" data-name="Trazado 113673" d="M285.884,431.145a3.692,3.692,0,1,1-3.692-3.691,3.692,3.692,0,0,1,3.692,3.691" transform="translate(-190.966 -293.102)" fill="#fff"/>
        <path id="Trazado_113674" data-name="Trazado 113674" d="M337.559,431.145a3.691,3.691,0,1,1-3.691-3.691,3.691,3.691,0,0,1,3.691,3.691" transform="translate(-226.399 -293.102)" fill="#fff"/>
        <path id="Trazado_113675" data-name="Trazado 113675" d="M130.859,480.472a3.691,3.691,0,1,1-3.691-3.691,3.691,3.691,0,0,1,3.691,3.691" transform="translate(-84.666 -326.925)" fill="#fff"/>
        <path id="Trazado_113676" data-name="Trazado 113676" d="M182.534,480.472a3.691,3.691,0,1,1-3.691-3.691,3.691,3.691,0,0,1,3.691,3.691" transform="translate(-120.099 -326.925)" fill="#fff"/>
        <path id="Trazado_113677" data-name="Trazado 113677" d="M234.209,480.472a3.691,3.691,0,1,1-3.691-3.691,3.691,3.691,0,0,1,3.691,3.691" transform="translate(-155.532 -326.925)" fill="#fff"/>
        <path id="Trazado_113678" data-name="Trazado 113678" d="M285.884,480.472a3.692,3.692,0,1,1-3.692-3.691,3.692,3.692,0,0,1,3.692,3.691" transform="translate(-190.966 -326.925)" fill="#fff"/>
        <path id="Trazado_113679" data-name="Trazado 113679" d="M337.559,480.472a3.691,3.691,0,1,1-3.691-3.691,3.691,3.691,0,0,1,3.691,3.691" transform="translate(-226.399 -326.925)" fill="#fff"/>
        <path id="Trazado_113680" data-name="Trazado 113680" d="M130.859,529.8a3.691,3.691,0,1,1-3.691-3.691,3.691,3.691,0,0,1,3.691,3.691" transform="translate(-84.666 -360.747)" fill="#fff"/>
        <path id="Trazado_113681" data-name="Trazado 113681" d="M182.534,529.8a3.691,3.691,0,1,1-3.691-3.691,3.691,3.691,0,0,1,3.691,3.691" transform="translate(-120.099 -360.747)" fill="#fff"/>
        <path id="Trazado_113682" data-name="Trazado 113682" d="M234.209,529.8a3.691,3.691,0,1,1-3.691-3.691,3.691,3.691,0,0,1,3.691,3.691" transform="translate(-155.532 -360.747)" fill="#fff"/>
        <path id="Trazado_113683" data-name="Trazado 113683" d="M285.884,529.8a3.692,3.692,0,1,1-3.692-3.691,3.691,3.691,0,0,1,3.692,3.691" transform="translate(-190.966 -360.747)" fill="#fff"/>
        <path id="Trazado_113684" data-name="Trazado 113684" d="M337.559,529.8a3.691,3.691,0,1,1-3.691-3.691,3.691,3.691,0,0,1,3.691,3.691" transform="translate(-226.399 -360.747)" fill="#fff"/>
        <path id="Trazado_113685" data-name="Trazado 113685" d="M130.859,579.124a3.691,3.691,0,1,1-3.691-3.691,3.691,3.691,0,0,1,3.691,3.691" transform="translate(-84.666 -394.57)" fill="#fff"/>
        <path id="Trazado_113686" data-name="Trazado 113686" d="M182.534,579.124a3.691,3.691,0,1,1-3.691-3.691,3.691,3.691,0,0,1,3.691,3.691" transform="translate(-120.099 -394.57)" fill="#fff"/>
        <path id="Trazado_113687" data-name="Trazado 113687" d="M234.209,579.124a3.691,3.691,0,1,1-3.691-3.691,3.691,3.691,0,0,1,3.691,3.691" transform="translate(-155.532 -394.57)" fill="#fff"/>
        <path id="Trazado_113688" data-name="Trazado 113688" d="M285.884,579.124a3.692,3.692,0,1,1-3.692-3.691,3.691,3.691,0,0,1,3.692,3.691" transform="translate(-190.966 -394.57)" fill="#fff"/>
        <path id="Trazado_113689" data-name="Trazado 113689" d="M337.559,579.124a3.691,3.691,0,1,1-3.691-3.691,3.691,3.691,0,0,1,3.691,3.691" transform="translate(-226.399 -394.57)" fill="#fff"/>
        <rect id="Rectángulo_33843" data-name="Rectángulo 33843" width="64.846" height="15.169" transform="translate(271.952 60.679)" fill="#f9e8dc"/>
        <rect id="Rectángulo_33844" data-name="Rectángulo 33844" width="65.517" height="27.866" transform="translate(30.427 20.601)" fill="#f9e8dc"/>
        <path id="Trazado_113690" data-name="Trazado 113690" d="M179.927,0H223a7.413,7.413,0,0,1,7.413,7.413V22.191A7.413,7.413,0,0,1,223,29.6H179.927a7.413,7.413,0,0,1-7.413-7.413V7.415A7.413,7.413,0,0,1,179.927,0" transform="translate(-118.291 -0.002)" fill="#eb9ba8"/>
        <path id="Trazado_113691" data-name="Trazado 113691" d="M212.874,39.236a3.6,3.6,0,1,1-3.6-3.6,3.6,3.6,0,0,1,3.6,3.6" transform="translate(-141.028 -24.435)" fill="#fff"/>
        <path id="Trazado_113692" data-name="Trazado 113692" d="M260.366,39.236a3.6,3.6,0,1,1-3.6-3.6,3.6,3.6,0,0,1,3.6,3.6" transform="translate(-173.593 -24.435)" fill="#fff"/>
        <path id="Trazado_113693" data-name="Trazado 113693" d="M307.858,39.236a3.6,3.6,0,1,1-3.6-3.6,3.6,3.6,0,0,1,3.6,3.6" transform="translate(-206.158 -24.435)" fill="#fff"/>
      </g>
    </g>
    <g id="Grupo_895849" data-name="Grupo 895849" transform="translate(922.015 172.004)" opacity="0.251">
      <g id="Grupo_80323" data-name="Grupo 80323" transform="translate(0 -0.004)" clip-path="url(#clip-path-17)">
        <path id="Trazado_113615" data-name="Trazado 113615" d="M303.287,382.131c-4.483-.34-9.057-.535-13.743-.5-24.788.184-49.033,6.854-73.974,6.6-52.846-.546-107.234-6.023-152.907-39.869C-38.524,273.37-5.355,112.74,78.527,46.795,123.1,11.754,178.616,1.04,231.807.049c68.472-1.276,156.3,20.382,205.356,78.023,34.18,40.161,42.678,133.728,34.688,186.745-6.36,42.2-30.229,82-60.382,105.163-37.6,28.889-69.487,15.088-108.182,12.151" transform="translate(0 0.004)" fill="#f1c6bd"/>
      </g>
    </g>
    <g id="Grupo_156633" data-name="Grupo 156633" transform="translate(11218.248 12523.086)">
      <path id="Trazado_99257" data-name="Trazado 99257" d="M416.049,103.656a.918.918,0,1,1-.918-.877A.9.9,0,0,1,416.049,103.656Z" transform="translate(-11447.97 -12119.038)" fill="#0098e8"/>
      <path id="Trazado_99258" data-name="Trazado 99258" d="M424.495,103.656a.918.918,0,1,1-.917-.877A.9.9,0,0,1,424.495,103.656Z" transform="translate(-11448.161 -12119.038)" fill="#0098e8"/>
      <path id="Trazado_99259" data-name="Trazado 99259" d="M432.941,103.656a.918.918,0,1,1-.917-.877A.9.9,0,0,1,432.941,103.656Z" transform="translate(-11448.352 -12119.038)" fill="#0098e8"/>
      <path id="Trazado_99260" data-name="Trazado 99260" d="M441.388,103.656a.918.918,0,1,1-.918-.877A.9.9,0,0,1,441.388,103.656Z" transform="translate(-11448.543 -12119.038)" fill="#0098e8"/>
      <path id="Trazado_99261" data-name="Trazado 99261" d="M449.834,103.656a.918.918,0,1,1-.917-.877A.9.9,0,0,1,449.834,103.656Z" transform="translate(-11448.733 -12119.038)" fill="#0098e8"/>
      <ellipse id="Elipse_3975" data-name="Elipse 3975" cx="0.917" cy="0.877" rx="0.917" ry="0.877" transform="translate(-11033.756 -12009.241)" fill="#0098e8"/>
      <path id="Trazado_99268" data-name="Trazado 99268" d="M424.495,111.164a.918.918,0,1,1-.917-.877A.9.9,0,0,1,424.495,111.164Z" transform="translate(-11448.161 -12119.528)" fill="#0098e8"/>
      <ellipse id="Elipse_3976" data-name="Elipse 3976" cx="0.917" cy="0.877" rx="0.917" ry="0.877" transform="translate(-11017.245 -12009.241)" fill="#0098e8"/>
      <path id="Trazado_99269" data-name="Trazado 99269" d="M441.388,111.164a.918.918,0,1,1-.918-.877A.9.9,0,0,1,441.388,111.164Z" transform="translate(-11448.543 -12119.528)" fill="#0098e8"/>
      <path id="Trazado_99270" data-name="Trazado 99270" d="M449.834,111.164a.918.918,0,1,1-.917-.877A.9.9,0,0,1,449.834,111.164Z" transform="translate(-11448.733 -12119.528)" fill="#0098e8"/>
      <path id="Trazado_99274" data-name="Trazado 99274" d="M416.049,118.672a.918.918,0,1,1-.918-.878A.9.9,0,0,1,416.049,118.672Z" transform="translate(-11447.97 -12120.019)" fill="#0098e8"/>
      <path id="Trazado_99275" data-name="Trazado 99275" d="M424.495,118.672a.918.918,0,1,1-.917-.878A.9.9,0,0,1,424.495,118.672Z" transform="translate(-11448.161 -12120.019)" fill="#0098e8"/>
      <path id="Trazado_99276" data-name="Trazado 99276" d="M432.941,118.672a.918.918,0,1,1-.917-.878A.9.9,0,0,1,432.941,118.672Z" transform="translate(-11448.352 -12120.019)" fill="#0098e8"/>
      <path id="Trazado_99277" data-name="Trazado 99277" d="M441.388,118.672a.918.918,0,1,1-.918-.878A.9.9,0,0,1,441.388,118.672Z" transform="translate(-11448.543 -12120.019)" fill="#0098e8"/>
      <path id="Trazado_99278" data-name="Trazado 99278" d="M449.834,118.672a.918.918,0,1,1-.917-.878A.9.9,0,0,1,449.834,118.672Z" transform="translate(-11448.733 -12120.019)" fill="#0098e8"/>
      <ellipse id="Elipse_3980" data-name="Elipse 3980" cx="0.917" cy="0.877" rx="0.917" ry="0.877" transform="translate(-11033.756 -11995.206)" fill="#0098e8"/>
      <path id="Trazado_99285" data-name="Trazado 99285" d="M424.495,126.18a.918.918,0,1,1-.917-.878A.9.9,0,0,1,424.495,126.18Z" transform="translate(-11448.161 -12120.509)" fill="#0098e8"/>
      <ellipse id="Elipse_3981" data-name="Elipse 3981" cx="0.917" cy="0.877" rx="0.917" ry="0.877" transform="translate(-11017.245 -11995.206)" fill="#0098e8"/>
      <path id="Trazado_99286" data-name="Trazado 99286" d="M441.388,126.18a.918.918,0,1,1-.918-.878A.9.9,0,0,1,441.388,126.18Z" transform="translate(-11448.543 -12120.509)" fill="#0098e8"/>
      <path id="Trazado_99287" data-name="Trazado 99287" d="M449.834,126.18a.918.918,0,1,1-.917-.878A.9.9,0,0,1,449.834,126.18Z" transform="translate(-11448.733 -12120.509)" fill="#0098e8"/>
      <ellipse id="Elipse_3985" data-name="Elipse 3985" cx="0.917" cy="0.877" rx="0.917" ry="0.877" transform="translate(-11033.756 -11988.189)" fill="#0098e8"/>
      <path id="Trazado_99291" data-name="Trazado 99291" d="M424.495,133.688a.918.918,0,1,1-.917-.878A.9.9,0,0,1,424.495,133.688Z" transform="translate(-11448.161 -12120.999)" fill="#0098e8"/>
      <ellipse id="Elipse_3986" data-name="Elipse 3986" cx="0.917" cy="0.877" rx="0.917" ry="0.877" transform="translate(-11017.245 -11988.189)" fill="#0098e8"/>
      <path id="Trazado_99292" data-name="Trazado 99292" d="M441.388,133.688a.918.918,0,1,1-.918-.878A.9.9,0,0,1,441.388,133.688Z" transform="translate(-11448.543 -12120.999)" fill="#0098e8"/>
      <path id="Trazado_99293" data-name="Trazado 99293" d="M449.834,133.688a.918.918,0,1,1-.917-.878A.9.9,0,0,1,449.834,133.688Z" transform="translate(-11448.733 -12120.999)" fill="#0098e8"/>
    </g>
  </g>
</svg>
