<svg xmlns="http://www.w3.org/2000/svg" xmlns:xlink="http://www.w3.org/1999/xlink" width="113" height="113" viewBox="0 0 113 113">
  <defs>
    <clipPath id="clip-path">
      <circle id="Elipse_7831" data-name="Elipse 7831" cx="49.5" cy="49.5" r="49.5" transform="translate(216.999 5402.827)" fill="#0098e8" opacity="0.23"/>
    </clipPath>
    <clipPath id="clip-path-2">
      <rect id="Rectángulo_348310" data-name="Rectángulo 348310" width="126.864" height="262.202" fill="none"/>
    </clipPath>
    <clipPath id="clip-path-4">
      <path id="Trazado_722835" data-name="Trazado 722835" d="M71.894,18.642l-.372.07a4.379,4.379,0,0,0-3.259,2.431l-2.95,6.526a4.4,4.4,0,0,0,.4,4.175l.2.321a6.094,6.094,0,0,0,5.936,2.708,4.407,4.407,0,0,0,3.437-2.461L78.418,25.5a4.38,4.38,0,0,0-.341-4.073,6.108,6.108,0,0,0-5.158-2.88,5.563,5.563,0,0,0-1.025.1" transform="translate(-64.959 -18.547)" fill="none"/>
    </clipPath>
    <clipPath id="clip-path-6">
      <rect id="Rectángulo_348308" data-name="Rectángulo 348308" width="5.022" height="5.856" fill="none"/>
    </clipPath>
  </defs>
  <g id="Grupo_1010473" data-name="Grupo 1010473" transform="translate(-210 -5395.827)">
    <circle id="Elipse_7830" data-name="Elipse 7830" cx="56.5" cy="56.5" r="56.5" transform="translate(210 5395.827)" fill="#0098e8"/>
    <g id="Enmascarar_grupo_1007916" data-name="Enmascarar grupo 1007916" clip-path="url(#clip-path)">
      <g id="Grupo_1010472" data-name="Grupo 1010472" transform="translate(177.004 5410.425)">
        <g id="Grupo_1010471" data-name="Grupo 1010471" clip-path="url(#clip-path-2)">
          <g id="Grupo_1010463" data-name="Grupo 1010463">
            <g id="Grupo_1010462" data-name="Grupo 1010462" clip-path="url(#clip-path-2)">
              <path id="Trazado_722816" data-name="Trazado 722816" d="M68.606,147.147A81.668,81.668,0,0,1,72.683,159q.5-.233,1.007-.467-2.284-8.379-4.569-16.76Z" transform="translate(45.922 94.898)" fill="#724107"/>
              <path id="Trazado_722817" data-name="Trazado 722817" d="M71.211,140.435a3.96,3.96,0,0,0-2.262,2.708c-1.247,3.711-.346,7.746-.1,11.654s-.529,8.417-3.856,10.48c-.729.452-1.678.978-1.6,1.831.1,1.028,1.526,1.214,2.542,1.032,3.208-.573,6.674-2.324,7.384-5.5a13.913,13.913,0,0,0-.282-4.866,18.927,18.927,0,0,1,.047-5.552c.341-2.133,1.072-4.225,1.032-6.385S73,141.31,70.93,140.677Z" transform="translate(42.429 94.001)" fill="#724107"/>
              <path id="Trazado_722818" data-name="Trazado 722818" d="M72.635,132.9a53.862,53.862,0,0,1,3.017,6.616c1.761,5.127.743,10.731-.027,16.1s-1.189,11.191,1.553,15.867c1.287,2.194,3.267,4.158,3.482,6.692.16,1.893-.718,3.7-1.082,5.567-.825,4.218.987,8.756-.447,12.809-.962,2.716-3.96,3.23-6.784,3.806a.843.843,0,0,1-.591-.032c-.329-.19-.277-.673-.194-1.045a18.734,18.734,0,0,0,.182-8.777c-2.37-12.871-6.709-25.292-9.7-38.031-1.107-4.7-2.028-9.449-2.95-14.193Q55.9,121.9,52.721,105.517a21.215,21.215,0,0,1-.573-6.826,21.225,21.225,0,0,1,1.9-5.682,1.2,1.2,0,0,1,.606-.731c.4-.134.8.179,1.105.472,6.826,6.557,11.529-8.355,14.532.623,0,0,1.962,38.764,2.347,39.53" transform="translate(34.838 60.515)" fill="#fbc9a4"/>
              <path id="Trazado_722819" data-name="Trazado 722819" d="M63.68,152.757c.282-.5,1.179-.359,1.743-.442,2.431-.364,5.11-.154,7.028,1.384l-.756,1.776a7.666,7.666,0,0,0-7.711-.92q-.128-.886-.255-1.776Z" transform="translate(42.625 101.849)" fill="#efa02a"/>
              <path id="Trazado_722820" data-name="Trazado 722820" d="M68.309,140.291a10.055,10.055,0,0,0,1.224,9.939.355.355,0,0,0,.212.16.439.439,0,0,0,.317-.1c.748-.538.5-1.512.144-2.214-.92-1.813-2.043-3.861-1.025-5.819a2.5,2.5,0,0,0,.317-.721c.11-.716-.417-1.07-1.144-1.346Z" transform="translate(45.202 93.835)" fill="#efa02a"/>
              <path id="Trazado_722821" data-name="Trazado 722821" d="M91.593,6.56c3.01,2.007,1.456,3.831,2.229,5.861.619,1.628,2.113,2.744,2.758,4.362,1.017,2.551-.344,5.407-1.689,7.783s-2.766,5.168-1.861,7.768c.913,2.623,3.953,4.1,4.409,6.849.636,3.855-4.16,6.582-4.35,10.49-.1,1.953,1.371,5.357,6.065,4.456.419-.082-4.668,4.641-7.482,5.713a8.705,8.705,0,0,1-8.5-1.417c-1.578-1.29-2.694-3.092-4.055-4.632s-3.155-2.895-5.148-2.82c-2.078.078-3.828,1.691-5.046,3.472s-2.105,3.818-3.516,5.432a9.835,9.835,0,0,1-4.282,2.868,5,5,0,0,1-3.731-.017c-1.516-.733-2.327-2.446-3.225-3.928a10.681,10.681,0,0,0-5.5-4.9c-1.8-.579-3.728-.4-5.592-.644s-3.871-1.11-4.607-2.936c-.556-1.379-.252-2.95-.182-4.445s-.255-3.247-1.517-3.935c-1.194-.653-2.638-.045-3.978-.149a4.2,4.2,0,0,1-3.641-4.008c1.078,2.087,4.155,2.135,5.866.593s2.31-4.055,2.491-6.424.043-4.8.686-7.073a12.749,12.749,0,0,1,5-6.751,24.492,24.492,0,0,1,7.6-3.374,12.684,12.684,0,0,0,4.681-1.958c2.33-1.878,3-5.284,4.92-7.627a12.846,12.846,0,0,1,3.98-3.042C67.848.259,72.073-.892,75.589.885,77,1.6,78.243,2.764,79.781,3.1a14.948,14.948,0,0,0,2.971.1c6.574.1,8.841,3.364,8.841,3.364" transform="translate(19.514 0)" fill="#efa02a"/>
              <path id="Trazado_722822" data-name="Trazado 722822" d="M65.273,176.422a16.6,16.6,0,0,0-5.963-.15,2.337,2.337,0,0,0-1.12.489,10.458,10.458,0,0,1-6.756,2.963c-.79.027-1.492.038-2,.02.531,1.983-1.626,3.791-3.673,3.94s-4.013-.729-6.03-1.113c3.743-12.727,7.514-26.15,4.514-39.073-.549-2.364-1.32-4.679-1.731-7.071a42.777,42.777,0,0,1-.4-8.218c.3-13.368,1.961-26.907,7.167-39.223.883-2.09,2.549-4.537,4.935-3.6a3.692,3.692,0,0,1,1.252.855c4.218,4.235,6.637,9.923,8.081,15.7,1.865,7.464,2.237,15.208,2.6,22.892q.323,6.806.644,13.614c.262,5.514.523,11.029.564,16.55a208.44,208.44,0,0,1-.962,21.68,1.239,1.239,0,0,1-.337.891c-.257.2-.758.042-.708-.282Z" transform="translate(26.593 57.015)" fill="#b03537"/>
              <path id="Trazado_722823" data-name="Trazado 722823" d="M65.267,27.93a2.462,2.462,0,0,1,2.693.848A7.234,7.234,0,0,1,69.2,31.509q1.44,4.92,2.883,9.843c2.073,7.073,4.152,14.181,5.127,21.488a13.835,13.835,0,0,1,.018,4.834,5.357,5.357,0,0,1-2.769,3.781c-2.09.957-4.594-.038-6.34-1.531-3.875-3.309-5.3-8.591-6.517-13.537Q60.3,51.132,59,45.874a10.245,10.245,0,0,1-.427-2.9,10.146,10.146,0,0,1,.838-3.142q2.221-5.759,4.537-11.482Z" transform="translate(39.203 18.601)" fill="#e2af8d"/>
              <path id="Trazado_722824" data-name="Trazado 722824" d="M43.721,146.043a81.854,81.854,0,0,1,.127,12.537l1.1-.125q.476-8.674.952-17.346Z" transform="translate(29.265 94.451)" fill="#724107"/>
              <path id="Trazado_722825" data-name="Trazado 722825" d="M51.014,139.572a3.954,3.954,0,0,0-3,1.856c-2.355,3.127-2.774,7.24-3.778,11.024s-3.158,7.821-6.966,8.727c-.835.2-1.9.4-2.092,1.235-.229,1.007,1.065,1.631,2.088,1.781,3.224.469,7.065-.1,8.741-2.895a13.89,13.89,0,0,0,1.269-4.706,19,19,0,0,1,1.8-5.253c1-1.916,2.35-3.671,2.995-5.733s.366-4.644-1.4-5.9Z" transform="translate(23.529 93.423)" fill="#724107"/>
              <path id="Trazado_722826" data-name="Trazado 722826" d="M0,144.082l.972-2.332s6.878-4.032,18.022,1.017S31.91,154.648,31.91,154.648l-.973,2.332A32.686,32.686,0,0,1,0,144.087Z" transform="translate(0 93.861)" fill="#7d8bcc"/>
              <path id="Trazado_722827" data-name="Trazado 722827" d="M2.452,143.336a58.534,58.534,0,0,0,7.959,5.869,25.261,25.261,0,0,0,9.131,3.384,18.07,18.07,0,0,0,5.579-.038.49.49,0,0,0,.341-.6.5.5,0,0,0-.6-.339,18.6,18.6,0,0,1-9.252-1.012,32.487,32.487,0,0,1-8.29-4.614c-1.439-1.057-2.82-2.189-4.183-3.34a.5.5,0,0,0-.688,0,.49.49,0,0,0,0,.688" transform="translate(1.547 95.391)" fill="#212f56"/>
              <path id="Trazado_722828" data-name="Trazado 722828" d="M82.575,22.515l3.666,2.147-4.5,2.185s-1.07,4.594-1.477,5.05a8.321,8.321,0,0,1-1.552,1.758,5.177,5.177,0,0,1-3.04.524c-2.242-.127-3.92-1.729-6.016-2.532,0,0-1.671,6.7-1.469,6.833A25.945,25.945,0,0,0,75.369,41.8a1.265,1.265,0,0,1,.858.5,1.214,1.214,0,0,1-.01.883c-2.3,8.375-8.192,16.2-16.5,18.723a10.138,10.138,0,0,1-5.866.28,9.474,9.474,0,0,1-3.481-2.115C47.327,57.326,38.185,66,37.152,62.041s-.165-19.9-.417-23.987c1.806-.5,19.264-2.911,20.411-3.694,1.376-.942,4.469-9.242,6.051-12.373-.776.541-4.173-.07-3.514-3.824a4.127,4.127,0,0,1,2.078-2.941c1.1-.564,3.571-.085,4.17,1,.24.466,3.861-9.5,4.669-9.51,2.456-.032,13.128,2.494,15.51,4.016Z" transform="translate(24.519 4.49)" fill="#fbc9a4"/>
              <path id="Trazado_722829" data-name="Trazado 722829" d="M55.118,20.138c-.244,1.147.255,2.746,1.424,2.671a3.9,3.9,0,0,1,.724-4.07,15.346,15.346,0,0,0,1.908-1.826,7.071,7.071,0,0,0,.621-3.339c.1-1.142.583-2.451,1.693-2.734a2.944,2.944,0,0,1,1.14,0c1.381.205,2.9.614,4.088-.115a5.222,5.222,0,0,1,.993-.616c1.249-.417,2.22,1.137,3.446,1.614,1.471.574,3.382-.434,4.607.563.479-1.33-.491-2.8-1.714-3.506a22.454,22.454,0,0,0-4-1.362c-1.858-.643-3.494-1.8-5.314-2.546s-4.03-1.01-5.657.09c-1.656,1.122-2.2,3.269-3.319,4.928-.748,1.115-1.766,2.02-2.576,3.09a4.825,4.825,0,0,0-1.155,3.731c1.108-.548,1.666-.327,2.644.426a7.005,7.005,0,0,1,.451,3" transform="translate(34.78 2.827)" fill="#efa02a"/>
              <path id="Trazado_722830" data-name="Trazado 722830" d="M57.818,132.824a53.794,53.794,0,0,1,.775,7.23c.053,5.42-2.683,10.417-5.107,15.265s-4.657,10.245-3.532,15.547c.528,2.487,1.788,4.976,1.192,7.449-.446,1.846-1.85,3.287-2.783,4.941-2.113,3.744-1.828,8.621-4.467,12.013-1.771,2.274-4.778,1.816-7.639,1.471a.837.837,0,0,1-.551-.215c-.252-.285-.05-.726.145-1.053a18.723,18.723,0,0,0,2.943-8.272c1.813-12.961,1.616-26.115,2.794-39.15.436-4.813,1.057-9.607,1.679-14.4l4.3-33.1a21.284,21.284,0,0,1,1.609-6.659A21.219,21.219,0,0,1,52.768,89.1a1.193,1.193,0,0,1,.806-.5c.421,0,.7.422.9.8,4.407,8.377,13.575-4.289,13.592,5.177,0,0-10.372,37.4-10.248,38.252" transform="translate(23.821 59.304)" fill="#fbc9a4"/>
              <path id="Trazado_722831" data-name="Trazado 722831" d="M91.818,217.12c-2.162-22.076-3.861-85.312-3.035-90.325.78-4.739,7.11-34.18-3.379-46.567-2.653-3.133-5.17-6.369-7.637-9.651S73.325,63.311,73.8,59.233c.442-3.771,2.926-7.549,1.568-11.1a17.594,17.594,0,0,1-1.057-2.521,6.828,6.828,0,0,1,.406-3.32l3.571-12.078c-1.284-.449-3.264-.461-4.547-.91a23.107,23.107,0,0,1-4.3,10.539c-2.367,3.294-5.414,6.492-9.4,7.247-4.359.825-8.869-1.614-11.5-5.183S44.349,24.65,44.349,24.65c-1.736-.077-3.187.427-4.923.351a76.464,76.464,0,0,1-1,19.857c-.474,2.855-1.254,5.769-.641,8.6a18.664,18.664,0,0,0,2.127,4.9,56.977,56.977,0,0,1,4.387,9.46c3.6,10.894,1.154,22.713-.1,34.118a160.7,160.7,0,0,0-.2,33.172c-1.058,15.411-1.215,24.436-2.24,40.5.554-3.654,2.716-5.98,4.28-9.328,2.33-4.991,9.106-22.525,9.106-22.525,2.379-.139,5.894,28.846,6.938,40.272q.884,9.64,1.765,19.278c.654,7.17,1.31,14.348,1.464,21.546l10.557.6a2.879,2.879,0,0,0,2.491-.656c.935-1.169-.194-3.377,1.067-4.183.663-.426,1.524-.1,2.269.157a10.978,10.978,0,0,0,8.609-.679,2.935,2.935,0,0,0,1.406-1.29,3.367,3.367,0,0,0,.12-1.673" transform="translate(25.138 16.494)" fill="#d83a42"/>
              <path id="Trazado_722832" data-name="Trazado 722832" d="M70.975,34.822a6.045,6.045,0,0,1-5.023-2.733l-.2-.321a4.352,4.352,0,0,1-.4-4.1L68.3,21.143a4.281,4.281,0,0,1,3.2-2.384l.372-.07a5.5,5.5,0,0,1,1.012-.093,6.017,6.017,0,0,1,5.085,2.835,4.284,4.284,0,0,1,.339,4l-3.127,6.911a4.344,4.344,0,0,1-3.375,2.414A5.515,5.515,0,0,1,70.975,34.822Z" transform="translate(43.515 12.447)" fill="#fff"/>
              <path id="Trazado_722833" data-name="Trazado 722833" d="M72.919,18.709a5.933,5.933,0,0,1,5.02,2.8,4.2,4.2,0,0,1,.331,3.923l-3.125,6.911a4.272,4.272,0,0,1-3.315,2.367,5.58,5.58,0,0,1-.821.062,5.963,5.963,0,0,1-4.955-2.7l-.2-.321a4.262,4.262,0,0,1-.392-4.021l2.951-6.527a4.2,4.2,0,0,1,3.138-2.335l.372-.072a5.479,5.479,0,0,1,1-.092m0-.162a5.6,5.6,0,0,0-1.027.1l-.372.07a4.375,4.375,0,0,0-3.255,2.429l-2.953,6.527a4.405,4.405,0,0,0,.4,4.175l.2.321a6.116,6.116,0,0,0,5.092,2.771,5.743,5.743,0,0,0,.846-.063,4.41,4.41,0,0,0,3.437-2.461L78.418,25.5a4.38,4.38,0,0,0-.341-4.073,6.111,6.111,0,0,0-5.158-2.88" transform="translate(43.48 12.415)"/>
              <path id="Trazado_722834" data-name="Trazado 722834" d="M68.265,21.142l-2.951,6.526a4.4,4.4,0,0,0,.4,4.177l.2.319a6.088,6.088,0,0,0,5.936,2.708,4.4,4.4,0,0,0,3.437-2.461L78.418,25.5a4.38,4.38,0,0,0-.341-4.073,6.076,6.076,0,0,0-6.183-2.783l-.372.07a4.371,4.371,0,0,0-3.257,2.429" transform="translate(43.48 12.415)" fill="#7d8bcc"/>
            </g>
          </g>
          <g id="Grupo_1010465" data-name="Grupo 1010465" transform="translate(108.439 30.962)">
            <g id="Grupo_1010464" data-name="Grupo 1010464" clip-path="url(#clip-path-4)">
              <rect id="Rectángulo_348293" data-name="Rectángulo 348293" width="0.98" height="4.365" transform="matrix(0.412, -0.911, 0.911, 0.412, 0.976, 2.124)"/>
              <rect id="Rectángulo_348294" data-name="Rectángulo 348294" width="0.979" height="4.366" transform="translate(0.269 3.687) rotate(-65.66)"/>
              <rect id="Rectángulo_348295" data-name="Rectángulo 348295" width="0.98" height="4.365" transform="matrix(0.412, -0.911, 0.911, 0.412, -0.437, 5.249)"/>
              <rect id="Rectángulo_348296" data-name="Rectángulo 348296" width="0.979" height="4.365" transform="matrix(0.412, -0.911, 0.911, 0.412, -1.144, 6.812)"/>
              <rect id="Rectángulo_348297" data-name="Rectángulo 348297" width="0.98" height="4.365" transform="translate(-1.851 8.374) rotate(-65.651)"/>
              <rect id="Rectángulo_348298" data-name="Rectángulo 348298" width="0.979" height="5.879" transform="translate(6.82 4.768) rotate(-65.654)"/>
              <rect id="Rectángulo_348299" data-name="Rectángulo 348299" width="0.98" height="5.879" transform="matrix(0.412, -0.911, 0.911, 0.412, 6.113, 6.332)"/>
              <rect id="Rectángulo_348300" data-name="Rectángulo 348300" width="0.979" height="5.879" transform="translate(5.407 7.893) rotate(-65.654)"/>
              <rect id="Rectángulo_348301" data-name="Rectángulo 348301" width="0.98" height="5.879" transform="matrix(0.412, -0.911, 0.911, 0.412, 4.7, 9.457)"/>
              <rect id="Rectángulo_348302" data-name="Rectángulo 348302" width="0.979" height="5.879" transform="translate(3.994 11.018) rotate(-65.654)"/>
              <rect id="Rectángulo_348303" data-name="Rectángulo 348303" width="0.979" height="5.879" transform="translate(12.664 7.411) rotate(-65.654)"/>
              <rect id="Rectángulo_348304" data-name="Rectángulo 348304" width="0.979" height="5.879" transform="translate(11.958 8.974) rotate(-65.654)"/>
              <rect id="Rectángulo_348305" data-name="Rectángulo 348305" width="0.979" height="5.879" transform="translate(11.251 10.536) rotate(-65.654)"/>
              <rect id="Rectángulo_348306" data-name="Rectángulo 348306" width="0.98" height="5.879" transform="matrix(0.412, -0.911, 0.911, 0.412, 10.544, 12.1)"/>
              <rect id="Rectángulo_348307" data-name="Rectángulo 348307" width="0.98" height="5.879" transform="matrix(0.412, -0.911, 0.911, 0.412, 9.837, 13.663)"/>
            </g>
          </g>
          <g id="Grupo_1010470" data-name="Grupo 1010470">
            <g id="Grupo_1010469" data-name="Grupo 1010469" clip-path="url(#clip-path-2)">
              <path id="Trazado_722836" data-name="Trazado 722836" d="M63.507,102.648a8.046,8.046,0,0,0-3.012-5.06,23.113,23.113,0,0,0-6.641-3.314,5.562,5.562,0,0,1-1.709-.881,5.477,5.477,0,0,1-.967-1.209c-4.871-7.467-7.7-16.1-10.645-24.516a35.544,35.544,0,0,1,4.135-15.977c-.043-.017,1.113-17.622,1.113-17.622l.305-8.891c-.78.145-2.391-.007-3.045.441a12.478,12.478,0,0,0-3.018,3.262c-7.008,9.978-10.23,22.1-12.388,34.1a15.693,15.693,0,0,0-.26,6.108,6.717,6.717,0,0,0,.3.983c-.538,1.05,12.342,20.1,13.4,21.515,2.237,2.988,5.245,5.427,6.928,8.759,1.749,3.462,2.038,7.814,4.9,10.433a3.06,3.06,0,0,0,2.678.957c.958-.245,1-1.077.269-1.746a2.093,2.093,0,0,0,1.921.494,1.933,1.933,0,0,0,.963-2.275,1.177,1.177,0,1,0,1.489-1.659c.447.1.836.376,1.275.512.538.169,1.274.042,1.317-.658a1.011,1.011,0,0,0-.29-.76c-.9-.933-2-1.673-2.816-2.686a4.515,4.515,0,0,1-.91-1.84.538.538,0,0,1,.9-.5q1.372,1.307,2.793,2.562a.617.617,0,0,0,1.02-.533" transform="translate(18.184 16.853)" fill="#fbc9a4"/>
              <path id="Trazado_722837" data-name="Trazado 722837" d="M64.383,68a6.511,6.511,0,0,0,.851,3.591,14.93,14.93,0,0,0,3.033,3.733c1.294,1.15,3.037,2.11,4.7,1.618,1.883-.558,2.769-2.678,3.292-4.572q.573-2.071.967-4.185a10.585,10.585,0,0,0,.24-2.6,11.307,11.307,0,0,0-.554-2.542c-1.371-4.529-2.948-9.006-3.935-13.635a15.679,15.679,0,0,1-.419-3.135,18.167,18.167,0,0,1,.289-2.911l.906-5.884a11.455,11.455,0,0,0,.194-3.053c-.12-1.027-.514-2-.723-3.01-.529-2.556.14-5.24-.351-7.8-.12-.624-.573-1.4-1.212-1.1a.829.829,0,0,0-.432.519,33.994,33.994,0,0,0-1.387,8.794l-.461-3.9a.979.979,0,0,0-.6-.806c-.422-.165-.721.105-.947.382a4.494,4.494,0,0,0-.96,3.436c.22-.551-.536-1.088-1.1-.893a1.934,1.934,0,0,0-1.042,1.359,6.859,6.859,0,0,0-.244,2.92A.975.975,0,0,0,63.03,34.1a2.381,2.381,0,0,0-.708,1.507c-.676,3.945,1.048,7.851,1.788,11.786.988,5.248.5,16.426.274,20.6" transform="translate(41.612 15.018)" fill="#fbc9a4"/>
              <path id="Trazado_722838" data-name="Trazado 722838" d="M9.6,142.3a2.441,2.441,0,0,0,2.97,1.4c.3-.1.169-.569-.129-.467a1.954,1.954,0,0,1-2.372-1.058.25.25,0,0,0-.3-.17.245.245,0,0,0-.17.3" transform="translate(6.42 95.043)" fill="#212f56"/>
              <path id="Trazado_722839" data-name="Trazado 722839" d="M36.784,149.715c.424-.382,1.232.032,1.793.13,2.422.421,4.9,1.467,6.233,3.532q-.641.721-1.28,1.446a7.66,7.66,0,0,0-7.025-3.305q.158-.884.317-1.768Z" transform="translate(24.435 100.106)" fill="#efa02a"/>
              <path id="Trazado_722840" data-name="Trazado 722840" d="M45.645,139.4a10.058,10.058,0,0,0-1.975,9.819.354.354,0,0,0,.15.217.432.432,0,0,0,.332,0c.88-.274.952-1.277.836-2.055-.3-2.012-.721-4.307.865-5.844a2.515,2.515,0,0,0,.528-.584c.331-.646-.058-1.149-.661-1.638Z" transform="translate(28.875 93.255)" fill="#efa02a"/>
              <path id="Trazado_722841" data-name="Trazado 722841" d="M52.089,13.161A3,3,0,0,1,53.2,15.575a.243.243,0,0,0,.486,0,3.465,3.465,0,0,0-1.255-2.758.251.251,0,0,0-.344,0,.246.246,0,0,0,0,.344" transform="translate(34.819 8.534)" fill="#724107"/>
              <path id="Trazado_722842" data-name="Trazado 722842" d="M52.114,13.965c.077-.008.107-.01.139-.012.052,0,.105,0,.157,0l.09.005c.1.017.159.027.214.04s.109.032.162.05c.028.01.057.02.085.032a1.983,1.983,0,0,1,.334.2.241.241,0,0,0,.332-.087.249.249,0,0,0-.087-.332,2.092,2.092,0,0,0-1.554-.364.245.245,0,0,0-.17.3.25.25,0,0,0,.3.17" transform="translate(34.677 9.017)" fill="#724107"/>
              <path id="Trazado_722843" data-name="Trazado 722843" d="M54.057,15.392a2.426,2.426,0,0,1,2.085,1.085,4.3,4.3,0,0,1,.836,2.2,4.18,4.18,0,0,1-1.863,3.948,4,4,0,0,1-6.248-3.564,3.943,3.943,0,0,1,3.09-3.447c.305-.06.177-.528-.13-.467a4.33,4.33,0,0,0-1.649,7.759,4.5,4.5,0,0,0,4.728.394,4.626,4.626,0,0,0,2.579-4.2,4.872,4.872,0,0,0-.85-2.773,2.96,2.96,0,0,0-2.577-1.427c-.309.03-.312.516,0,.486" transform="translate(32.379 9.971)" fill="#d83a42"/>
              <g id="Grupo_1010468" data-name="Grupo 1010468" transform="translate(89.153 32.971)" opacity="0.58">
                <g id="Grupo_1010467" data-name="Grupo 1010467">
                  <g id="Grupo_1010466" data-name="Grupo 1010466" clip-path="url(#clip-path-6)">
                    <path id="Trazado_722844" data-name="Trazado 722844" d="M58.427,22.916c-.482-.16-5.021-3.165-5.021-3.165l4.38,5.856Z" transform="translate(-53.406 -19.751)" fill="#724107"/>
                  </g>
                </g>
              </g>
              <path id="Trazado_722845" data-name="Trazado 722845" d="M65.418,25.813a14.287,14.287,0,0,0-.489,6.147.247.247,0,0,0,.3.17.25.25,0,0,0,.17-.3,13.7,13.7,0,0,1,.489-5.888c.092-.3-.377-.427-.469-.129" transform="translate(43.37 17.164)" fill="#724107"/>
              <path id="Trazado_722846" data-name="Trazado 722846" d="M64.148,27.241c-1.194,1.554-.788,3.691-.382,5.449.07.305.539.175.467-.129-.377-1.641-.78-3.624.334-5.075a.244.244,0,0,0-.087-.332.248.248,0,0,0-.332.087" transform="translate(42.408 18.153)" fill="#724107"/>
              <path id="Trazado_722847" data-name="Trazado 722847" d="M63.226,33.669a24.99,24.99,0,0,1,6.32-4.92c.274-.15.028-.569-.245-.419a25.385,25.385,0,0,0-6.419,4.995c-.212.229.13.574.344.344" transform="translate(42.046 18.942)" fill="#724107"/>
              <path id="Trazado_722848" data-name="Trazado 722848" d="M61.17,19.5a3,3,0,0,1,.634-.624.646.646,0,0,1,.3-.142c.344-.045.556.357.661.686a.581.581,0,0,1,1.088-.115,1.1,1.1,0,0,1-.142.952,2.014,2.014,0,0,1-.813.938,1.306,1.306,0,0,1-1.479-.284,1.6,1.6,0,0,1-.357-1.5Z" transform="translate(40.834 12.534)" fill="#d83a42"/>
              <path id="Trazado_722849" data-name="Trazado 722849" d="M60.759,19.1a3.032,3.032,0,0,0,1.574,1.107,4.29,4.29,0,0,0,1.945.239.252.252,0,0,0,.244-.244.245.245,0,0,0-.244-.242,3.929,3.929,0,0,1-1.729-.192,2.565,2.565,0,0,1-1.371-.913c-.17-.26-.593-.017-.419.245" transform="translate(40.642 12.547)" fill="#724107"/>
              <path id="Trazado_722850" data-name="Trazado 722850" d="M63.26,16.2c-.267.723-.913,1.149-1.442.953a1.253,1.253,0,0,1-.476-1.663c.267-.721.913-1.149,1.442-.953A1.254,1.254,0,0,1,63.26,16.2" transform="translate(40.983 9.696)"/>
              <path id="Trazado_722851" data-name="Trazado 722851" d="M65.611,12.726a5.846,5.846,0,0,1-.316,1.138c-.1.247-.249.521-.511.564a.881.881,0,0,1-.467-.105A6.749,6.749,0,0,0,60.237,14c.609-1.118,2.015-1.477,3.267-1.711a2.663,2.663,0,0,1,2.148.215Z" transform="translate(40.32 8.144)" fill="#c17b1f"/>
              <path id="Trazado_722852" data-name="Trazado 722852" d="M66.662,10.693A4.36,4.36,0,0,0,68.7,7.625a.251.251,0,0,0-.17-.3.244.244,0,0,0-.3.17,3.9,3.9,0,0,1-1.81,2.778.243.243,0,0,0,.245.419" transform="translate(44.379 4.899)" fill="#c17b1f"/>
              <path id="Trazado_722853" data-name="Trazado 722853" d="M74.107,9.387c-1.82.419-3.519-.83-4.951-1.775-1.356-.9-3.138-1.81-4.806-1.319a3.152,3.152,0,0,0-1.082.578c-.334.267-.623.586-.95.861a3.328,3.328,0,0,1-2.449.578,5.705,5.705,0,0,0-2.467.235,4.165,4.165,0,0,0-1.766,1.382,3.9,3.9,0,0,0-.793,2.35c.008.908.487,1.988-.047,2.821-.169.264.252.507.421.245a3.516,3.516,0,0,0,.162-2.459,3.557,3.557,0,0,1,.354-2.207,3.748,3.748,0,0,1,1.5-1.519,4.325,4.325,0,0,1,2.362-.377,4.664,4.664,0,0,0,2.554-.339c.723-.4,1.184-1.147,1.926-1.522,1.544-.78,3.427.189,4.726,1.037,1.6,1.045,3.412,2.364,5.437,1.9.305-.07.177-.539-.129-.469" transform="translate(36.652 4.121)" fill="#c17b1f"/>
              <path id="Trazado_722854" data-name="Trazado 722854" d="M75.854,5.172A12.211,12.211,0,0,0,65.143,6.257,6.59,6.59,0,0,0,63.21,8.07c-.539.8-.743,1.768-1.259,2.581a6.262,6.262,0,0,1-3.611,2.274,17.266,17.266,0,0,0-4.3,1.658A7.2,7.2,0,0,0,51.1,18.526a11.972,11.972,0,0,0-.319,2.8,4,4,0,0,1-.975,2.467c-1.242,1.429-3.085,2.022-4.758,2.778a6.792,6.792,0,0,0-3.86,3.466,3.2,3.2,0,0,0-.018,2.257A2.958,2.958,0,0,0,42.6,33.949a2.267,2.267,0,0,0,1.02.222.243.243,0,0,0,0-.486c-1.477.028-2.384-1.681-2.112-2.995.357-1.721,1.936-2.818,3.422-3.527,1.651-.788,3.452-1.329,4.816-2.6a4.729,4.729,0,0,0,1.332-2.04,18.319,18.319,0,0,0,.282-2.916,6.718,6.718,0,0,1,2.314-4.15,11.078,11.078,0,0,1,4.1-1.845,9.638,9.638,0,0,0,3.85-1.821,5.464,5.464,0,0,0,1.3-2.027,8.939,8.939,0,0,1,.6-1.28,5.009,5.009,0,0,1,.828-1A10.059,10.059,0,0,1,69.1,5.164a11.83,11.83,0,0,1,5.342.075,11.576,11.576,0,0,1,1.285.4c.292.11.419-.361.129-.469" transform="translate(27.427 2.952)" fill="#c17b1f"/>
              <path id="Trazado_722855" data-name="Trazado 722855" d="M65.167,4.541A5.489,5.489,0,0,1,62.833,8a11.717,11.717,0,0,1-4.521,1.78c-3.1.653-6.644.932-8.951,3.38A7.066,7.066,0,0,0,47.657,17a31.5,31.5,0,0,1-.676,4.167,4.812,4.812,0,0,1-.933,1.775,5.193,5.193,0,0,1-1.858,1.285c-.716.319-1.471.544-2.205.813a14.371,14.371,0,0,0-2.172.987A8.8,8.8,0,0,0,36.4,29.249a6.2,6.2,0,0,0-.7,4.454,4.948,4.948,0,0,0,.4,1.053c.14.279.559.033.419-.245a5.267,5.267,0,0,1,.025-4.445,7.8,7.8,0,0,1,3.128-3.392,13,13,0,0,1,2.147-1.055c.721-.28,1.466-.5,2.185-.79a6.866,6.866,0,0,0,1.967-1.122,4.65,4.65,0,0,0,1.209-1.659c1.125-2.562.4-5.7,2.117-8.041A7.627,7.627,0,0,1,52.8,11.552a30.226,30.226,0,0,1,5.011-1.174,14.145,14.145,0,0,0,4.713-1.591,6.736,6.736,0,0,0,2.825-3.112,4.776,4.776,0,0,0,.284-1.007c.052-.305-.417-.437-.469-.129" transform="translate(23.79 2.921)" fill="#c17b1f"/>
              <path id="Trazado_722856" data-name="Trazado 722856" d="M45.465,11.673a2.145,2.145,0,0,1-1.1,2.554,9.407,9.407,0,0,1-3.441.848,6.577,6.577,0,0,0-2.951,1.15,6.664,6.664,0,0,0-1.916,2.2,6.214,6.214,0,0,0-.758,3.193c.013.311.5.312.487,0a5.993,5.993,0,0,1,2.574-5.078,5.429,5.429,0,0,1,1.3-.674,9.352,9.352,0,0,1,1.84-.391,7.3,7.3,0,0,0,3.355-.995,2.56,2.56,0,0,0,1.028-3.057c-.127-.285-.546-.038-.419.245" transform="translate(23.622 7.564)" fill="#c17b1f"/>
              <path id="Trazado_722857" data-name="Trazado 722857" d="M38.278,13.24c.17-.636.945-.845,1.522-.9a3.829,3.829,0,0,0,2.212-.6c.242-.2-.1-.541-.344-.344-.623.516-1.542.369-2.287.514a1.875,1.875,0,0,0-1.573,1.2.243.243,0,0,0,.469.129" transform="translate(25.301 7.589)" fill="#c17b1f"/>
              <path id="Trazado_722858" data-name="Trazado 722858" d="M51.06,5.036a7,7,0,0,1,9.11-2.913c.28.134.528-.284.245-.421a7.649,7.649,0,0,0-4.552-.626,7.506,7.506,0,0,0-5.222,3.714.243.243,0,0,0,.419.245" transform="translate(33.875 0.648)" fill="#c17b1f"/>
              <path id="Trazado_722859" data-name="Trazado 722859" d="M55.727,3.481a2.878,2.878,0,0,1,2.953-.134c.275.152.521-.269.245-.419a3.368,3.368,0,0,0-3.444.134c-.259.172-.017.593.245.419" transform="translate(37.063 1.686)" fill="#c17b1f"/>
              <path id="Trazado_722860" data-name="Trazado 722860" d="M62.834,3.485a3.213,3.213,0,0,1,2.749.721,3.246,3.246,0,0,1,1.063,2.577c-.017.312.469.311.486,0a3.7,3.7,0,0,0-1.254-2.963,3.741,3.741,0,0,0-3.173-.8c-.307.063-.177.533.129.469" transform="translate(41.855 1.967)" fill="#c17b1f"/>
              <path id="Trazado_722861" data-name="Trazado 722861" d="M63.551,5.116c.032.008.063.018.1.028.1.053.17.075.225.11l.083.055a1.713,1.713,0,0,1,.179.167l.06.07a1.518,1.518,0,0,1,.13.215,1.235,1.235,0,0,1,.057.142,1.3,1.3,0,0,1,.045.194.245.245,0,0,0,.3.17.251.251,0,0,0,.17-.3,1.69,1.69,0,0,0-1.215-1.322.243.243,0,1,0-.129.469" transform="translate(42.42 3.106)" fill="#c17b1f"/>
              <path id="Trazado_722862" data-name="Trazado 722862" d="M67.921,10.016a4.663,4.663,0,0,1,1.664,3.945,9.039,9.039,0,0,1-1.611,4.551,10.533,10.533,0,0,1-1.7,1.965c-.232.21.112.553.344.344a11.027,11.027,0,0,0,2.818-4.058,7.021,7.021,0,0,0,.28-5.071A4.69,4.69,0,0,0,68.167,9.6c-.25-.189-.492.234-.245.419" transform="translate(44.311 6.392)" fill="#c17b1f"/>
              <path id="Trazado_722863" data-name="Trazado 722863" d="M66.8,11.474a5.647,5.647,0,0,1-.351,3.429c-.125.284.294.531.419.245a6.2,6.2,0,0,0,.4-3.8c-.065-.305-.534-.177-.469.129" transform="translate(44.463 7.477)" fill="#c17b1f"/>
              <path id="Trazado_722864" data-name="Trazado 722864" d="M64.483,20.156a5.808,5.808,0,0,0,.082,6.689c.185.247.608.005.419-.245a5.342,5.342,0,0,1-.082-6.2c.182-.255-.239-.5-.419-.245" transform="translate(42.48 13.42)" fill="#c17b1f"/>
              <path id="Trazado_722865" data-name="Trazado 722865" d="M61.5,23.761a2.652,2.652,0,0,0,1.391,3.25.252.252,0,0,0,.334-.087.248.248,0,0,0-.088-.334,2.174,2.174,0,0,1-1.167-2.7.243.243,0,0,0-.469-.129" transform="translate(41.069 15.785)" fill="#c17b1f"/>
              <path id="Trazado_722866" data-name="Trazado 722866" d="M59.111,24.528a1.629,1.629,0,0,0,.566,1.052,1.646,1.646,0,0,0,1.123.407.25.25,0,0,0,.244-.244A.247.247,0,0,0,60.8,25.5c-.04,0-.082,0-.122,0a1.072,1.072,0,0,1-.491-.152c-.035-.02-.07-.042-.1-.065a1.555,1.555,0,0,1-.237-.219,1.447,1.447,0,0,1-.115-.165c-.02-.035-.038-.072-.057-.109a1.528,1.528,0,0,1-.06-.179c-.035-.21-.119-.334-.26-.329-.119.007-.26.109-.244.244" transform="translate(39.565 16.255)" fill="#c17b1f"/>
              <path id="Trazado_722867" data-name="Trazado 722867" d="M65.718.556A12.9,12.9,0,0,0,60.826,1a10.378,10.378,0,0,0-3.472,1.95c-2,1.651-3.514,3.789-5.357,5.6a12.762,12.762,0,0,1-3.058,2.305A38.952,38.952,0,0,1,44.3,12.542a18.749,18.749,0,0,0-7.687,4.794,10.577,10.577,0,0,0-2.851,7.971,8.6,8.6,0,0,0,.182,1.072c.072.3.541.175.469-.129a9.639,9.639,0,0,1,2.065-8,16.953,16.953,0,0,1,7.287-4.986c1.5-.586,3.068-.972,4.552-1.591A11.925,11.925,0,0,0,51.66,9.53c1.9-1.688,3.379-3.773,5.22-5.514a11.685,11.685,0,0,1,3.008-2.137A10.56,10.56,0,0,1,64.516.986c.4,0,.8.023,1.2.055.312.025.31-.461,0-.486" transform="translate(22.566 0.334)" fill="#efa02a"/>
              <path id="Trazado_722868" data-name="Trazado 722868" d="M67.321,6.616a17.622,17.622,0,0,0,2.694,3.354,8.289,8.289,0,0,1,1.214,1.754A7.239,7.239,0,0,1,71.87,13.8a10.729,10.729,0,0,1-.314,4.38c-.2.755-.5,1.467-.74,2.209a2.551,2.551,0,0,0,.087,2.043A3.608,3.608,0,0,0,74.3,23.915c.31-.02.314-.506,0-.486a3.213,3.213,0,0,1-2.925-1.162,2.254,2.254,0,0,1,0-2c.25-.7.512-1.394.694-2.12a11.332,11.332,0,0,0,.3-4.282,7.707,7.707,0,0,0-1.656-3.816A23.29,23.29,0,0,1,67.74,6.37c-.142-.279-.561-.033-.419.245" transform="translate(45.042 4.182)" fill="#efa02a"/>
              <path id="Trazado_722869" data-name="Trazado 722869" d="M49.87,23.568a1.09,1.09,0,1,1-1.093-1.087,1.089,1.089,0,0,1,1.093,1.087" transform="translate(31.922 15.048)" fill="#fff"/>
              <path id="Trazado_722870" data-name="Trazado 722870" d="M50.427,24.822a1.09,1.09,0,1,1-1.093-1.087,1.089,1.089,0,0,1,1.093,1.087" transform="translate(32.294 15.887)" fill="#fff"/>
              <path id="Trazado_722871" data-name="Trazado 722871" d="M51.536,25.924a1.09,1.09,0,1,1-1.093-1.087,1.089,1.089,0,0,1,1.093,1.087" transform="translate(33.037 16.625)" fill="#fff"/>
              <path id="Trazado_722872" data-name="Trazado 722872" d="M53.044,26.321a1.09,1.09,0,1,1-1.093-1.087,1.089,1.089,0,0,1,1.093,1.087" transform="translate(34.046 16.891)" fill="#fff"/>
              <path id="Trazado_722873" data-name="Trazado 722873" d="M54.553,26.718a1.09,1.09,0,1,1-1.093-1.087,1.089,1.089,0,0,1,1.093,1.087" transform="translate(35.056 17.156)" fill="#fff"/>
              <path id="Trazado_722874" data-name="Trazado 722874" d="M55.959,26.311a1.09,1.09,0,1,1-1.093-1.087,1.089,1.089,0,0,1,1.093,1.087" transform="translate(35.997 16.884)" fill="#fff"/>
              <path id="Trazado_722875" data-name="Trazado 722875" d="M57.465,25.9a1.09,1.09,0,1,1-1.093-1.087A1.089,1.089,0,0,1,57.465,25.9" transform="translate(37.005 16.611)" fill="#fff"/>
              <path id="Trazado_722876" data-name="Trazado 722876" d="M48.073,23.227c.656,1.666,1.394,3.462,2.895,4.547a5.63,5.63,0,0,0,2.848.943,16.452,16.452,0,0,0,3.367-.075,18.758,18.758,0,0,0,3.778-.841c.3-.1.169-.568-.13-.467a18.1,18.1,0,0,1-6.447.935,5.9,5.9,0,0,1-2.876-.718,5.361,5.361,0,0,1-1.709-1.79A16.152,16.152,0,0,1,48.542,23.1c-.114-.289-.584-.164-.469.129" transform="translate(32.166 15.352)" fill="#fff"/>
              <path id="Trazado_722877" data-name="Trazado 722877" d="M45.619,72.725a6.291,6.291,0,0,0,2.815,2.743c.28.135.528-.284.245-.421a5.849,5.849,0,0,1-2.641-2.567c-.144-.277-.563-.032-.419.245" transform="translate(30.515 48.433)" fill="#724107"/>
              <path id="Trazado_722878" data-name="Trazado 722878" d="M44.752,74.056A4.913,4.913,0,0,0,47.084,76.6a.248.248,0,0,0,.332-.087.244.244,0,0,0-.087-.332,4.416,4.416,0,0,1-2.108-2.249.251.251,0,0,0-.3-.17.245.245,0,0,0-.17.3" transform="translate(29.947 49.364)" fill="#724107"/>
              <path id="Trazado_722879" data-name="Trazado 722879" d="M43.546,75.2a6.026,6.026,0,0,0,2.047,2.369.243.243,0,1,0,.245-.419,5.56,5.56,0,0,1-1.873-2.2.243.243,0,0,0-.332-.087.249.249,0,0,0-.087.332" transform="translate(29.128 50.089)" fill="#724107"/>
              <path id="Trazado_722880" data-name="Trazado 722880" d="M43.355,77.805a17.323,17.323,0,0,0,4.961-5.384.243.243,0,0,0-.419-.244,16.781,16.781,0,0,1-4.788,5.208c-.254.179-.012.6.245.419" transform="translate(28.784 48.234)" fill="#724107"/>
              <path id="Trazado_722881" data-name="Trazado 722881" d="M30.975,50.075a12.576,12.576,0,0,1,6.846,1.27c.279.14.524-.279.245-.421a13.044,13.044,0,0,0-7.091-1.335c-.309.03-.312.516,0,.486" transform="translate(20.578 33.154)" fill="#724107"/>
              <path id="Trazado_722882" data-name="Trazado 722882" d="M41.791,48.357a5.95,5.95,0,0,0,4.442,0c.711-.225,1.4-.506,2.1-.761q1.074-.393,2.175-.709a25.021,25.021,0,0,1,8.924-1,18.042,18.042,0,0,1,4.895,1.093.491.491,0,0,0,.6-.341.5.5,0,0,0-.339-.6,20.357,20.357,0,0,0-8.893-1.11,28.075,28.075,0,0,0-4.5.763A43.668,43.668,0,0,0,46.9,47.1c-1.424.526-3.152,1.127-4.619.419a.5.5,0,0,0-.664.175.49.49,0,0,0,.174.664" transform="translate(27.814 30.016)" fill="#b03537"/>
              <path id="Trazado_722883" data-name="Trazado 722883" d="M48.162,47.675a3.964,3.964,0,0,1,3.12.322.5.5,0,0,0,.664-.175.491.491,0,0,0-.174-.664,4.966,4.966,0,0,0-3.87-.419.486.486,0,1,0,.259.937" transform="translate(31.826 31.14)" fill="#b03537"/>
              <path id="Trazado_722884" data-name="Trazado 722884" d="M44.965,38.412a1.3,1.3,0,0,1,1.19.179c.464.254.876.588,1.315.88A13.54,13.54,0,0,0,50.3,40.9a14.042,14.042,0,0,0,6.132.8,13.417,13.417,0,0,0,3.439-.768.5.5,0,0,0,.339-.6.489.489,0,0,0-.6-.339,13.066,13.066,0,0,1-11.729-1.419c-.992-.674-2.152-1.653-3.407-1.007a.491.491,0,0,0-.174.666.5.5,0,0,0,.664.174" transform="translate(29.61 25.008)" fill="#b03537"/>
              <path id="Trazado_722885" data-name="Trazado 722885" d="M66.4,62.739a17.384,17.384,0,0,1,2.6,7.691,17.783,17.783,0,0,1,.048,2.367.486.486,0,1,0,.972,0,18.455,18.455,0,0,0-1.639-8.434,17.909,17.909,0,0,0-1.139-2.115c-.332-.528-1.174-.04-.84.491" transform="translate(44.392 41.514)" fill="#b03537"/>
              <path id="Trazado_722886" data-name="Trazado 722886" d="M66.11,68.267l0,1.713a.487.487,0,0,0,.973,0c0-.571,0-1.142-.007-1.713a.486.486,0,0,0-.972,0" transform="translate(44.251 45.369)" fill="#b03537"/>
              <path id="Trazado_722887" data-name="Trazado 722887" d="M60,121.8q1,6.415,1.835,12.852.839,6.463,1.516,12.944.381,3.631.708,7.265a.5.5,0,0,0,.486.486.488.488,0,0,0,.486-.486q-.588-6.51-1.339-13-.754-6.518-1.671-13.016-.516-3.653-1.083-7.3a.49.49,0,0,0-.6-.339.5.5,0,0,0-.339.6" transform="translate(40.155 81.121)" fill="#b03537"/>
              <path id="Trazado_722888" data-name="Trazado 722888" d="M63.4,130.882q.431,6.278.86,12.557.12,1.773.242,3.542a.5.5,0,0,0,.486.486.49.49,0,0,0,.486-.486q-.428-6.278-.86-12.557-.12-1.77-.242-3.542a.5.5,0,0,0-.486-.486.49.49,0,0,0-.486.486" transform="translate(42.439 87.281)" fill="#b03537"/>
              <path id="Trazado_722889" data-name="Trazado 722889" d="M65.317,127.795a41.926,41.926,0,0,0,.4,8.347.49.49,0,0,0,.6.341.5.5,0,0,0,.341-.6,40.6,40.6,0,0,1-.362-8.09.486.486,0,0,0-.972,0" transform="translate(43.681 85.215)" fill="#b03537"/>
              <path id="Trazado_722890" data-name="Trazado 722890" d="M58.337,98.471q.471,6.275.943,12.55.133,1.77.267,3.541a.5.5,0,0,0,.486.486.489.489,0,0,0,.486-.486q-.471-6.275-.943-12.55-.133-1.77-.267-3.541a.5.5,0,0,0-.486-.486.489.489,0,0,0-.486.486" transform="translate(39.048 65.587)" fill="#b03537"/>
              <path id="Trazado_722891" data-name="Trazado 722891" d="M61.55,99.763a23.966,23.966,0,0,0-.387,8.838.489.489,0,0,0,.6.339.5.5,0,0,0,.341-.6,22.62,22.62,0,0,1,.386-8.32.486.486,0,1,0-.937-.259" transform="translate(40.779 66.539)" fill="#b03537"/>
              <path id="Trazado_722892" data-name="Trazado 722892" d="M45.022,83.116q.736,5.864,1.474,11.731.21,1.663.417,3.324a.5.5,0,0,0,.487.486.489.489,0,0,0,.486-.486q-.739-5.864-1.476-11.731-.208-1.663-.417-3.324a.5.5,0,0,0-.486-.486.488.488,0,0,0-.486.486" transform="translate(30.134 55.309)" fill="#b03537"/>
              <path id="Trazado_722893" data-name="Trazado 722893" d="M47.492,86.187l.01,3.083a.486.486,0,1,0,.972,0l-.01-3.083a.486.486,0,1,0-.972,0" transform="translate(31.789 57.364)" fill="#b03537"/>
              <path id="Trazado_722894" data-name="Trazado 722894" d="M50.582,76.935q.994,7.592,2.407,15.121.4,2.121.833,4.235a.487.487,0,0,0,.938-.259Q53.236,88.6,52.13,81.08q-.3-2.071-.576-4.145a.5.5,0,0,0-.486-.486c-.235,0-.521.224-.486.486" transform="translate(33.855 51.172)" fill="#b03537"/>
              <path id="Trazado_722895" data-name="Trazado 722895" d="M53.017,81.99q.526,2.567,1.05,5.135a.487.487,0,0,0,.938-.259q-.526-2.567-1.052-5.135a.489.489,0,0,0-.6-.339.5.5,0,0,0-.339.6" transform="translate(35.479 54.47)" fill="#b03537"/>
            </g>
          </g>
        </g>
      </g>
    </g>
  </g>
</svg>
