<svg xmlns="http://www.w3.org/2000/svg" xmlns:xlink="http://www.w3.org/1999/xlink" width="113" height="113" viewBox="0 0 113 113">
  <defs>
    <clipPath id="clip-path">
      <circle id="Elipse_7763" data-name="Elipse 7763" cx="49.5" cy="49.5" r="49.5" transform="translate(216.999 5529.626)" fill="#0098e8" opacity="0.23"/>
    </clipPath>
    <clipPath id="clip-path-2">
      <rect id="Rect치ngulo_347303" data-name="Rect치ngulo 347303" width="122.366" height="304.254" fill="none"/>
    </clipPath>
    <clipPath id="clip-path-4">
      <path id="Trazado_719567" data-name="Trazado 719567" d="M76.271,120.485c4.487.173,8.852,1.425,13.166,2.667l.844-.186c.731,5.393,6.636,12.448,9.15,17.275a68.2,68.2,0,0,1,6.285,17.668c1.483,7.178,1.8,14.553,3.141,21.758,1.609,8.626,4.672,25.967,7.72,34.194a88.478,88.478,0,0,0,6.053,13.857,2.538,2.538,0,0,1,.5,1.594,2.46,2.46,0,0,1-.9,1.313c-4.228,3.92-8.907,8.049-14.651,8.557-5.27.466-10.343-2.247-15.632-2.355-5.9-.12-11.324,2.975-16.992,4.625a35.491,35.491,0,0,1-13.983,1.175c-11.737-1.364-22.238-8.5-34-9.683-6.436-.646-13.779.257-18.542-4.118,4.01-5.7,8.012-14.989,9.871-21.7,11.131-40.2,28.82-82.75,33.636-83.657,1.208-.227,3.221-1.292,4.449-1.265a58.6,58.6,0,0,0,9.7-.866,62.939,62.939,0,0,1,9.032-.873c.382,0,.764.006,1.146.022" transform="translate(-8.437 -120.463)" fill="none"/>
    </clipPath>
    <clipPath id="clip-path-6">
      <rect id="Rect치ngulo_347301" data-name="Rect치ngulo 347301" width="8.962" height="2.42" fill="none"/>
    </clipPath>
  </defs>
  <g id="Grupo_1010474" data-name="Grupo 1010474" transform="translate(-226 -5523.627)">
    <circle id="Elipse_5328" data-name="Elipse 5328" cx="56.5" cy="56.5" r="56.5" transform="translate(226 5523.627)" fill="#0098e8"/>
    <g id="Enmascarar_grupo_1000205" data-name="Enmascarar grupo 1000205" transform="translate(16 -0.2)" clip-path="url(#clip-path)">
      <g id="Grupo_1007385" data-name="Grupo 1007385" transform="translate(196.317 5533.627)">
        <g id="Grupo_1007384" data-name="Grupo 1007384" clip-path="url(#clip-path-2)">
          <g id="Grupo_1007376" data-name="Grupo 1007376">
            <g id="Grupo_1007375" data-name="Grupo 1007375" clip-path="url(#clip-path-2)">
              <path id="Trazado_719548" data-name="Trazado 719548" d="M46.431,229.24c-.7-3.97-5.713,16.074-4.928,53.333A14.349,14.349,0,0,1,40,288.986c-.629,1.314-1.535,2.489-2.082,3.838a4.308,4.308,0,0,0,.209,4.169c1.6,2.092,4.834,1.125,7.465,1.151,4.565.045,8.976,3.729,13.3,2.255-.47-3.1-3.622-5.041-4.921-7.89-1.051-2.3-.795-4.969-.473-7.482.848-6.609,10.561-66.875,12.018-73.377Z" transform="translate(22.861 -19.687)" fill="#cb7748"/>
              <path id="Trazado_719549" data-name="Trazado 719549" d="M44.336,301.032c-1.06,3.716-2.975,4.775-6.783,5.429-3.049.523-8.24-1.092-11.214-1.945-.5,1.414.573,6.77.573,6.77s7.5,1.727,8.38,1.411c.97-.347,2.859-2.924,3.252-2.45,2.735,3.3,7.2,4.55,11.435,5.186a62.012,62.012,0,0,0,14.1.492,1.259,1.259,0,0,0,1.068-.742c.267-.631-.185-1.078-.6-1.437a28.366,28.366,0,0,0-8.687-4.754A29.3,29.3,0,0,1,44.336,301.032Z" transform="translate(33.369 -28.001)" fill="#f59f18"/>
              <path id="Trazado_719550" data-name="Trazado 719550" d="M113.245,220.018c-2.194,10.391-23.934,63.236-29.7,88.481a22.122,22.122,0,0,1-9.878-1.58,2.263,2.263,0,0,1-1.353-1.06,2.322,2.322,0,0,1,.012-1.363C75.21,291.1,86.5,231.026,99.5,213.084Z" transform="translate(-56.375 -19.82)" fill="#cb7748"/>
              <path id="Trazado_719551" data-name="Trazado 719551" d="M118.039,313.405a19.389,19.389,0,0,0-12.874-3.414q-.824,3.464-1.651,6.927a18.709,18.709,0,0,0-.756,5.932c.277,3.137,2.114,5.924,4.2,8.283a5.419,5.419,0,0,0,2.5,1.848,4.88,4.88,0,0,0,3.905-1.1c1.662-1.174,3.925-5.776,3.828-7.808-.363-7.6.841-10.664.841-10.664" transform="translate(-88.839 -28.827)" fill="#f59f18"/>
              <path id="Trazado_719552" data-name="Trazado 719552" d="M49.648,315.4a78.867,78.867,0,0,1-15.285-1.815q-2.109-.463-4.189-1.042a.287.287,0,0,1,.152-.552,78.025,78.025,0,0,0,15.011,2.631q2.152.162,4.312.2a.287.287,0,0,1,0,.573" transform="translate(45.258 -29.02)" fill="#ae660a"/>
              <path id="Trazado_719553" data-name="Trazado 719553" d="M66.867,312.518l-7.11-1.186c-.363-.061-.21-.613.152-.552l7.11,1.186c.363.061.209.612-.152.552" transform="translate(1.129 -28.907)" fill="#ae660a"/>
              <path id="Trazado_719554" data-name="Trazado 719554" d="M117,326.343c-.932,1.906-2.018,3.962-4.15,4.709a3.583,3.583,0,0,1-2.9-.174,6.923,6.923,0,0,1-2.13-2.117q-1.3-1.75-2.589-3.505c-.219-.3.278-.582.5-.288l2.13,2.884a10.5,10.5,0,0,0,1.925,2.238c1.656,1.262,3.739.366,4.953-1.058a13.886,13.886,0,0,0,1.77-2.978c.161-.331.656-.041.494.289" transform="translate(-90.057 -30.216)" fill="#ae660a"/>
              <path id="Trazado_719555" data-name="Trazado 719555" d="M57.488,293.126a3.5,3.5,0,0,1-.071,4.7c-.258.264-.663-.141-.405-.4a2.917,2.917,0,0,0,.071-3.891c-.249-.272.156-.678.405-.405" transform="translate(12.373 -27.257)" fill="#89563d"/>
              <path id="Trazado_719556" data-name="Trazado 719556" d="M113.432,299.695a2.543,2.543,0,0,0-1.5,2.06.294.294,0,0,1-.287.287.288.288,0,0,1-.286-.287,3.1,3.1,0,0,1,1.784-2.554.3.3,0,0,1,.392.1.288.288,0,0,1-.1.392" transform="translate(-92.206 -27.828)" fill="#89563d"/>
              <path id="Trazado_719557" data-name="Trazado 719557" d="M90.282,122.966c.73,5.394,6.636,12.448,9.15,17.276a68.181,68.181,0,0,1,6.284,17.667c1.482,7.179,1.8,14.553,3.141,21.758,1.61,8.626,4.672,25.967,7.72,34.2a88.467,88.467,0,0,0,6.053,13.856,2.536,2.536,0,0,1,.5,1.6,2.467,2.467,0,0,1-.9,1.312c-4.228,3.921-8.907,8.049-14.651,8.557-5.269.467-10.342-2.247-15.631-2.355-5.9-.12-11.325,2.975-16.992,4.626a35.522,35.522,0,0,1-13.982,1.175c-11.738-1.365-22.239-8.5-34-9.683-6.436-.646-13.779.256-18.543-4.119,4.011-5.7,8.013-14.988,9.872-21.7,11.13-40.2,28.819-82.75,33.636-83.657,1.207-.227,3.221-1.292,4.45-1.264,6.658.146,13.223-1.978,19.877-1.719,4.486.174,8.852,1.425,13.167,2.667Z" transform="translate(-8.437 -11.205)" fill="#c23f37"/>
            </g>
          </g>
          <g id="Grupo_1007378" data-name="Grupo 1007378" transform="translate(0.001 109.258)">
            <g id="Grupo_1007377" data-name="Grupo 1007377" clip-path="url(#clip-path-4)">
              <path id="Trazado_719558" data-name="Trazado 719558" d="M10.993,163.251c0,6.458,7.386,11.693,16.5,11.693s16.5-5.235,16.5-11.693-7.386-11.693-16.5-11.693-16.5,5.235-16.5,11.693" transform="translate(68.408 -123.355)" fill="#dd6562"/>
              <path id="Trazado_719559" data-name="Trazado 719559" d="M53.966,147.461c0,6.458,7.386,11.693,16.5,11.693s16.5-5.235,16.5-11.693-7.386-11.693-16.5-11.693-16.5,5.235-16.5,11.693" transform="translate(-13.541 -121.887)" fill="#dd6562"/>
              <path id="Trazado_719560" data-name="Trazado 719560" d="M54.766,191.234c0,6.458,7.386,11.693,16.5,11.693s16.5-5.235,16.5-11.693-7.386-11.693-16.5-11.693-16.5,5.235-16.5,11.693" transform="translate(-15.066 -125.958)" fill="#dd6562"/>
              <path id="Trazado_719561" data-name="Trazado 719561" d="M84.946,218.417c0,6.458,7.386,11.693,16.5,11.693s16.5-5.235,16.5-11.693-7.386-11.693-16.5-11.693-16.5,5.235-16.5,11.693" transform="translate(-72.619 -128.487)" fill="#dd6562"/>
              <path id="Trazado_719562" data-name="Trazado 719562" d="M29.382,231.808c0,6.458,7.386,11.693,16.5,11.693s16.5-5.235,16.5-11.693-7.385-11.693-16.5-11.693-16.5,5.235-16.5,11.693" transform="translate(33.341 -129.732)" fill="#dd6562"/>
              <path id="Trazado_719563" data-name="Trazado 719563" d="M0,201.227c0,6.458,7.386,11.693,16.5,11.693s16.5-5.235,16.5-11.693-7.386-11.693-16.5-11.693S0,194.769,0,201.227" transform="translate(89.371 -126.888)" fill="#dd6562"/>
              <path id="Trazado_719564" data-name="Trazado 719564" d="M97.339,167.449c0,6.458,7.386,11.693,16.5,11.693s16.5-5.235,16.5-11.693-7.386-11.693-16.5-11.693-16.5,5.235-16.5,11.693" transform="translate(-96.252 -123.746)" fill="#dd6562"/>
              <path id="Trazado_719565" data-name="Trazado 719565" d="M32.38,117.48c0,6.458,7.386,11.693,16.5,11.693s16.5-5.235,16.5-11.693-7.386-11.693-16.5-11.693-16.5,5.235-16.5,11.693" transform="translate(27.623 -119.098)" fill="#dd6562"/>
              <path id="Trazado_719566" data-name="Trazado 719566" d="M55.965,258.391c0,6.458,7.386,11.693,16.5,11.693s16.5-5.235,16.5-11.693S81.573,246.7,72.462,246.7s-16.5,5.235-16.5,11.693" transform="translate(-17.353 -132.205)" fill="#dd6562"/>
            </g>
          </g>
          <g id="Grupo_1007383" data-name="Grupo 1007383">
            <g id="Grupo_1007382" data-name="Grupo 1007382" clip-path="url(#clip-path-2)">
              <path id="Trazado_719568" data-name="Trazado 719568" d="M72.547,34.893a2.369,2.369,0,0,0,2.7,2.85,2.55,2.55,0,0,0,1.427-3.777c-.272.012.02.426.293.424a2.93,2.93,0,0,0,2.8-3.034A3.617,3.617,0,0,0,82.9,28.9a3.54,3.54,0,0,0-1.205-3.761,4.944,4.944,0,0,0,1.233-4.663,3.775,3.775,0,0,0-3.853-2.665,7.725,7.725,0,0,0,.425-4.124,4.411,4.411,0,0,0-1.227-2.533,2.479,2.479,0,0,0-2.674-.517,5.687,5.687,0,0,0-.785-5.957,3.974,3.974,0,0,0-2.208-1.4,2.494,2.494,0,0,0-2.414.795,9.676,9.676,0,0,0-1.706-2.9,3.372,3.372,0,0,0-3.07-1.1A2.018,2.018,0,0,0,63.9,2.619a3.78,3.78,0,0,0-2.681.263,1.679,1.679,0,0,0-.634,2.327,1.018,1.018,0,0,0-1.3.551C58.154,3.544,56.55,1.077,54.039.9a2.294,2.294,0,0,0-1.82.573,1.256,1.256,0,0,0-.044,1.745,3.783,3.783,0,0,0-5.672-.6l.639.528a2.362,2.362,0,0,0-2.875.547,2.273,2.273,0,0,0,.084,2.881,3.171,3.171,0,0,0-2.018,4.646,2.122,2.122,0,0,0-2.248-.749,4.255,4.255,0,0,0-2.072,1.369,2.382,2.382,0,0,0-.781,1.655c.038.624.725,1.214,1.3.944a2.539,2.539,0,0,0-2.842.42,2.444,2.444,0,0,0-.467,2.793A3.075,3.075,0,0,0,32.072,19.8a3.014,3.014,0,0,0,1.6,3.426,3.425,3.425,0,0,0,.553,5.453,3.823,3.823,0,0,0,1.827,5.336,2.351,2.351,0,0,0,2.539,2.6,1.94,1.94,0,0,0,2.837,1.331,4.44,4.44,0,0,0,3.768,1.2,4.387,4.387,0,0,0,3.176-2.325c-.384.271.005.856.4,1.107A8.446,8.446,0,0,0,56.5,38.5a2.284,2.284,0,0,1,.955-.28,2.2,2.2,0,0,1,1.114.51c1.661,1.136,4.109,1.715,5.59.36.668-.611,1.091-1.573,1.971-1.81a6.756,6.756,0,0,1,1.23-.073,2.545,2.545,0,0,0,2.279-2.334.975.975,0,0,0,1.7.367Z" transform="translate(10.263 0)"/>
              <path id="Trazado_719569" data-name="Trazado 719569" d="M61.11,63.654A29.094,29.094,0,0,1,82.538,73.711a17.1,17.1,0,0,0,2.38,2.592A10.435,10.435,0,0,0,91,78.2a5,5,0,0,1,1.823.27A3.874,3.874,0,0,1,94.417,80.1c4.308,6.877,3.6,11.814,3.515,19.79-.1,9.594-9.77,11.08-11.979,11.089-2.681.011-8.9-7.6-10.494-8.953-1.357,4.564-4.432,16.337-5.214,17.016-.706.611-9.322,4.4-15.633,3.6a208.467,208.467,0,0,1-23.748-4.4c-.535-.15-.817-4.214-1.374-4.186a9.086,9.086,0,0,0-2,.537c-2.638.758-3.419.687-5.582-.922-3.233-2.4-3.257-3.72-4.851-7.29C12.487,96.148,13.8,88.775,15.273,83.806c1.777-6,3-8.487,6.84-12.214,2.725-2.649,6.419-4.2,10.071-5.552,8.122-2.995,17.359-5.25,25.419-2.112Z" transform="translate(11.738 -5.806)" fill="#f59f18"/>
              <path id="Trazado_719570" data-name="Trazado 719570" d="M50.043,21.429l24.117.16c-.614,4.35-.115,14.741-.729,19.091-.4,2.805-.9,5.827-2.919,7.811-1.724,1.691-6.713,1.482-6.713,1.482l.43,10.043A2.054,2.054,0,0,1,65.4,63.031C62.634,67.677,56.423,78.1,54.813,80.623c-2.869-5.421-9.079-18.6-9.093-19.735s2.524-2.1,2.524-2.1l.149-17.436s-1.937.7-2.769.131A4.7,4.7,0,0,1,44,38.993c-.564-1.711-.673-3.742.422-5.171s3.69-1.643,4.552-.062q.51-5.9,1.021-11.791Z" transform="translate(8.679 -1.993)" fill="#cb7748"/>
              <path id="Trazado_719571" data-name="Trazado 719571" d="M86.877,86.134c.447-3.875,1.477-6.082,1.924-9.957.119-1.029.072-4.747-.687-5.362-2.733-2.213-6.166-7.523-5.066-10.863a4.265,4.265,0,0,0,.369-1.709,2.031,2.031,0,0,1,1.947-2.689c-1.338-2.283-4.129-6.743-4.467-9.229a.915.915,0,0,1,.068-.5c.295-.64,1.136-.483,1.543-.053a48.362,48.362,0,0,1,7.182,10.09.476.476,0,0,0,.905-.206c.005-2.948-.4-7.81-.219-10.115.032-.413.082-.865.528-1.071a.946.946,0,0,1,.869.062,2.324,2.324,0,0,1,.92,1.531,32.129,32.129,0,0,1,.784,10.32c1.792-1.006,1.987,1.57,3.969,2.888a4.638,4.638,0,0,1,2.113,3.572,31.85,31.85,0,0,1-.422,5.429,89.023,89.023,0,0,0-.15,13.807l.212,5.187-2.837.421a15.178,15.178,0,0,1-7.741-.871Z" transform="translate(-50.575 -4.129)" fill="#cb7748"/>
              <path id="Trazado_719572" data-name="Trazado 719572" d="M90.317,69.569c-1.728-1.675-1.638-4.235-1.165-6.41l.479.278a2.7,2.7,0,0,1-2.445,1.131,1.631,1.631,0,0,1-1.095-1.86,4.992,4.992,0,0,1,.618-1.827,19.475,19.475,0,0,1,1.147-1.941,7.825,7.825,0,0,1,1.332-1.654c.279-.238.687.166.405.405a6.175,6.175,0,0,0-1,1.182c-.38.54-.731,1.1-1.056,1.676a9.558,9.558,0,0,0-.707,1.438,1.848,1.848,0,0,0,.084,1.789,1.048,1.048,0,0,0,1.17.16,3.586,3.586,0,0,0,1.14-.9.289.289,0,0,1,.479.278c-.429,1.971-.555,4.327,1.018,5.852.265.258-.141.662-.405.405" transform="translate(-46.517 -5.322)" fill="#571f1f"/>
              <path id="Trazado_719573" data-name="Trazado 719573" d="M93.485,56.658a4.311,4.311,0,0,1,3.682,2.993A9.63,9.63,0,0,1,97.7,62.49c.024.4.113.93-.278,1.185a.919.919,0,0,1-1.06-.2,10.886,10.886,0,0,1-1.155-1.253L93.936,60.8a.287.287,0,0,1,.405-.4c1.268,1.221,2.67,2.663,2.809,4.516a1.965,1.965,0,0,1-.21,1.2.923.923,0,0,1-1.17.3A8.223,8.223,0,0,1,93.451,65,8.8,8.8,0,0,1,91.5,62.648.286.286,0,0,1,92,62.359a8.343,8.343,0,0,0,3.345,3.232c.239.125.8.5,1.054.29s.2-.688.18-.967a4.364,4.364,0,0,0-.836-2.1,13.358,13.358,0,0,0-1.8-2.01l.405-.4,1.845,2.06c.219.243.474.645.812.735.16.043.154-.084.153-.214,0-.206-.017-.412-.032-.617a6.237,6.237,0,0,0-1.584-4.213,3.142,3.142,0,0,0-2.051-.919c-.367-.012-.369-.585,0-.573" transform="translate(-58.318 -5.27)" fill="#571f1f"/>
              <path id="Trazado_719574" data-name="Trazado 719574" d="M88.773,67.669A6.251,6.251,0,0,1,92.034,72.2a.3.3,0,0,1-.2.352.288.288,0,0,1-.352-.2,5.717,5.717,0,0,0-3-4.185c-.327-.17-.038-.664.289-.494" transform="translate(-49.796 -6.291)" fill="#571f1f"/>
              <path id="Trazado_719575" data-name="Trazado 719575" d="M17.3,77.68q-1.438-7.128-2.877-14.255a1.048,1.048,0,0,1,0-.6,1.069,1.069,0,0,1,.439-.438,32.938,32.938,0,0,0,3.419-2.626,5.634,5.634,0,0,0,1.927-2.6,2.183,2.183,0,0,0-1.244-2.682,1.786,1.786,0,0,0,.314-3.036,45.565,45.565,0,0,0,9.067-6.7c.58-.553,1.1-1.63.371-2a.906.906,0,0,0-.778,0,41.678,41.678,0,0,0-7.833,4.581,3.716,3.716,0,0,1-2.325,1.027,1.375,1.375,0,0,1-1.1-.6,1.509,1.509,0,0,1,.149-1.6,61.051,61.051,0,0,0,2.95-6.876c.024-.068.048-.139.071-.21a.932.932,0,0,0-1.626-.852c-2.063,2.662-2.824,6.365-4.97,9.059a37.955,37.955,0,0,1-4.49,4.143A8.807,8.807,0,0,0,5.6,56.5a13,13,0,0,0,.1,2.93c.524,5.505-.375,11.035-1.272,16.493l4.724,2.15a7.905,7.905,0,0,0,5.5.389Z" transform="translate(89.272 -3.519)" fill="#cb7748"/>
              <path id="Trazado_719576" data-name="Trazado 719576" d="M22.279,60.227a4.57,4.57,0,0,0-3.064.287,4.034,4.034,0,0,1-2.525.4,1.238,1.238,0,0,1-.809-.81,1.642,1.642,0,0,1,.218-1.251,5.628,5.628,0,0,1,2.132-1.928,7.343,7.343,0,0,1,3.057-.931c.37-.029.361.534,0,.572l-3.072.324a3.067,3.067,0,0,1-2.084-.24,1.339,1.339,0,0,1-.15-1.978,4.476,4.476,0,0,1,2.3-1.162,9.845,9.845,0,0,1,3.167-.333c.366.021.369.594,0,.572a9.3,9.3,0,0,0-2.425.171,7.009,7.009,0,0,0-2.177.763,1.3,1.3,0,0,0-.647.786.654.654,0,0,0,.289.733,2.993,2.993,0,0,0,1.819.106l2.978-.314v.572a6.57,6.57,0,0,0-4.432,2.2,1.475,1.475,0,0,0-.441,1.12.714.714,0,0,0,.674.534,5.675,5.675,0,0,0,2.3-.568,4.651,4.651,0,0,1,3.041-.177c.343.126.195.679-.152.552" transform="translate(85.573 -4.945)" fill="#571f1f"/>
              <path id="Trazado_719577" data-name="Trazado 719577" d="M69.3,35.4c-.059.194-.113.169,0,0,1.292-1.919,3.021-3.381,3.232-5.685a16.082,16.082,0,0,0-.125-4.822c-.814-3.821-3.965-6.878-7.62-8.261A20.376,20.376,0,0,0,53.24,16.2a18.108,18.108,0,0,0-4.411,1.5A14.823,14.823,0,0,0,42.5,24.381a20.155,20.155,0,0,0-2.02,8.661c1.813-1.813,3.628-.32,4.169.181a13.7,13.7,0,0,1,4.979-9.052,15.118,15.118,0,0,1,9.7-2.723,11.78,11.78,0,0,1,4.383,1.042,10,10,0,0,1,5.047,5.837c1.02,2.615.677,4.266.544,7.07" transform="translate(13.003 -1.449)" fill="#f59f18"/>
              <path id="Trazado_719578" data-name="Trazado 719578" d="M21.32,54.875a5.57,5.57,0,0,1,2.906-1.687,3.565,3.565,0,0,1,3.181.545c.272.25-.134.655-.4.405a3.09,3.09,0,0,0-2.773-.363,5.023,5.023,0,0,0-2.5,1.5c-.249.273-.653-.132-.405-.405" transform="translate(75.602 -4.935)" fill="#571f1f"/>
              <path id="Trazado_719579" data-name="Trazado 719579" d="M25.375,57.36l-1.265.391-.632.2a2.8,2.8,0,0,0-.539.177c-.172.094-.067.278-.02.427.062.2.12.4.171.6a7.94,7.94,0,0,1,.215,1.212,4.119,4.119,0,0,1-1.487,3.806c-.3.216-.585-.279-.289-.494,1.281-.932,1.387-2.693,1.071-4.111-.088-.392-.252-.774-.318-1.169a.709.709,0,0,1,.428-.793,8.974,8.974,0,0,1,1.158-.373l1.355-.418c.353-.109.5.443.152.551" transform="translate(77.377 -5.283)" fill="#571f1f"/>
              <path id="Trazado_719580" data-name="Trazado 719580" d="M26.485,66.584a10.093,10.093,0,0,1-4.713.61c-.362-.04-.366-.613,0-.572a9.711,9.711,0,0,0,4.56-.59c.345-.132.493.421.152.552" transform="translate(76.188 -6.14)" fill="#571f1f"/>
              <path id="Trazado_719581" data-name="Trazado 719581" d="M89.242,75.841a37.367,37.367,0,0,1-3.981-.083c-.366-.027-.368-.6,0-.573a37.133,37.133,0,0,0,3.981.083c.368-.012.368.561,0,.573" transform="translate(-44.234 -6.993)" fill="#571f1f"/>
              <path id="Trazado_719582" data-name="Trazado 719582" d="M74.685,39.6a16.831,16.831,0,0,0-2.47-2.53.288.288,0,0,1,0-.405.292.292,0,0,1,.4,0,16.923,16.923,0,0,1,2.471,2.53.3.3,0,0,1,0,.405.289.289,0,0,1-.405,0" transform="translate(-18.227 -3.402)" fill="#571f1f"/>
              <path id="Trazado_719583" data-name="Trazado 719583" d="M74.044,38.459A2.284,2.284,0,0,0,73.881,40a.286.286,0,1,1-.552.151,2.879,2.879,0,0,1,.221-1.983.288.288,0,0,1,.392-.1.294.294,0,0,1,.1.392" transform="translate(-18.145 -3.537)" fill="#571f1f"/>
              <g id="Grupo_1007381" data-name="Grupo 1007381" transform="translate(63.54 47.817)" opacity="0.43">
                <g id="Grupo_1007380" data-name="Grupo 1007380">
                  <g id="Grupo_1007379" data-name="Grupo 1007379" clip-path="url(#clip-path-6)">
                    <path id="Trazado_719584" data-name="Trazado 719584" d="M63.915,52.883l-8.937-.161,8.962,2.42Z" transform="translate(-54.978 -52.721)" fill="#571f1f"/>
                  </g>
                </g>
              </g>
              <path id="Trazado_719585" data-name="Trazado 719585" d="M53.384,34.136a6.066,6.066,0,0,0,1.984,3.715,7.9,7.9,0,0,0,.835.617.6.6,0,0,1,.245.861A3.653,3.653,0,0,1,54.8,40.815c-.342.136-.491-.417-.152-.552a2.286,2.286,0,0,0,.831-.631c.12-.133.232-.274.342-.416a1.32,1.32,0,0,1,.131-.176c.025-.065.038-.068.039-.008a.291.291,0,0,0-.077-.068c-.248-.189-.517-.343-.759-.541a6.208,6.208,0,0,1-.728-.7,6.7,6.7,0,0,1-1.616-3.582c-.046-.365.527-.361.573,0" transform="translate(17.923 -3.15)" fill="#571f1f"/>
              <path id="Trazado_719586" data-name="Trazado 719586" d="M57.963,43.275A3.106,3.106,0,0,1,54.362,42c-.195-.315.3-.6.494-.289a2.531,2.531,0,0,0,2.954,1.01.289.289,0,0,1,.353.2.292.292,0,0,1-.2.352" transform="translate(14.927 -3.867)" fill="#571f1f"/>
              <path id="Trazado_719587" data-name="Trazado 719587" d="M63.038,36.536c0,.776.431,1.406.962,1.406s.961-.629.961-1.406-.431-1.407-.961-1.407-.962.63-.962,1.407" transform="translate(0.23 -3.268)"/>
              <path id="Trazado_719588" data-name="Trazado 719588" d="M49.569,36.439c0,.776.431,1.407.962,1.407s.961-.63.961-1.407-.431-1.406-.961-1.406-.962.629-.962,1.406" transform="translate(25.915 -3.259)"/>
              <path id="Trazado_719589" data-name="Trazado 719589" d="M66.146,29.867a1.008,1.008,0,0,1,.249,1.665l-.011.01a3.1,3.1,0,0,1-1.419.566,19.1,19.1,0,0,1-3.137.37.567.567,0,0,1-.444-.114.464.464,0,0,1-.077-.4c.139-.767.963-1.175,1.686-1.465l2.019-.811a1.018,1.018,0,0,1,.813.024Z" transform="translate(0.041 -2.755)"/>
              <path id="Trazado_719590" data-name="Trazado 719590" d="M47.889,29.267a1.008,1.008,0,0,0-.249,1.665l.012.01a3.1,3.1,0,0,0,1.419.566,19.1,19.1,0,0,0,3.137.37.567.567,0,0,0,.444-.114.464.464,0,0,0,.076-.4c-.139-.767-.962-1.175-1.685-1.465l-2.019-.811a1.018,1.018,0,0,0-.813.024Z" transform="translate(26.722 -2.699)"/>
              <path id="Trazado_719591" data-name="Trazado 719591" d="M86.339,10.441a2.238,2.238,0,0,0-2.091-1.914,3.132,3.132,0,0,0-2.794,1.647A4.859,4.859,0,0,0,81,13.62a2.6,2.6,0,0,0,1.832,2.14.885.885,0,0,0,1.086-.635,1.406,1.406,0,0,0-.245-1.163c-.675-.879-2.13-.812-3.1-.65-1.967.327-4.068,1.545-4.433,3.663a4.807,4.807,0,0,0,1.155,3.762,9.9,9.9,0,0,0,3.292,2.429c.329.165.04.659-.289.5a10.264,10.264,0,0,1-3.433-2.55,5.507,5.507,0,0,1-1.333-3.869c.221-2.567,2.655-4.154,5.021-4.5,1.18-.174,2.748-.176,3.56.863a1.7,1.7,0,0,1-.6,2.688c-1.3.38-2.426-.794-2.866-1.884a5.434,5.434,0,0,1,.015-3.887,3.92,3.92,0,0,1,2.93-2.525A2.911,2.911,0,0,1,86.684,9.57a2.577,2.577,0,0,1,.228.872c.031.367-.542.366-.573,0" transform="translate(-33.036 -0.74)"/>
              <path id="Trazado_719592" data-name="Trazado 719592" d="M31.016,8.028a5.95,5.95,0,0,1,4.081-.2,5.09,5.09,0,0,1,2.816,2.277,4.38,4.38,0,0,1,.419,3.468A4.028,4.028,0,0,1,36,16.188a1.45,1.45,0,0,1-1.729-.4,1.051,1.051,0,0,1,.353-1.488,2.273,2.273,0,0,1,1.975,0,6.072,6.072,0,0,1,1.546.8,6.391,6.391,0,0,1,2.638,6.242A5.155,5.155,0,0,1,38.9,24.524a4.286,4.286,0,0,1-3.535.76,3.747,3.747,0,0,1-.871-.336c-.326-.172-.036-.668.289-.494a3.513,3.513,0,0,0,3.05.041,4.168,4.168,0,0,0,2.118-2.307,5.592,5.592,0,0,0-1.136-5.719,5.722,5.722,0,0,0-2.463-1.643c-.482-.157-1.233-.369-1.6.125a.429.429,0,0,0,.009.542.775.775,0,0,0,.723.24,3.144,3.144,0,0,0,2.189-2.015,3.76,3.76,0,0,0-.067-2.948,4.483,4.483,0,0,0-2.475-2.32,5.433,5.433,0,0,0-3.966.131c-.34.141-.489-.414-.152-.552" transform="translate(53.526 -0.703)"/>
              <path id="Trazado_719593" data-name="Trazado 719593" d="M74.218,64.711c1.81,1.967,3.294,4.575,3.028,7.337a6.534,6.534,0,0,1-1.28,3.363,5.23,5.23,0,0,1-1.285,1.2A7.559,7.559,0,0,1,73,77.369c-1.111.385-2.377.729-2.991,1.83a4.9,4.9,0,0,0-.093,3.395,12.276,12.276,0,0,1,.492,3.734,4.53,4.53,0,0,1-1.691,3.078,4.349,4.349,0,0,1-3.442.9,4.569,4.569,0,0,1-3.016-1.926c-.288-.425-.574-1.009-1.059-1.241-.6-.289-1.128.447-1.511.8a6.324,6.324,0,0,1-3.5,1.924,4.038,4.038,0,0,1-3.241-1.282A5.209,5.209,0,0,1,51.5,85.118a8.579,8.579,0,0,1,1.061-4.236c.329-.639.737-1.333.241-2a5.254,5.254,0,0,0-.726-.723c-.247-.224-.5-.445-.746-.667-1.913-1.7-3.9-3.567-4.26-6.234a7.5,7.5,0,0,1,2.108-6.216,6.632,6.632,0,0,1,1.324-1.016.287.287,0,0,1,.289.5,6.74,6.74,0,0,0-3.2,5.36,6.226,6.226,0,0,0,.619,3.187,10.972,10.972,0,0,0,2.408,3.009c.477.449.971.881,1.461,1.316a5.581,5.581,0,0,1,1.353,1.418,2.087,2.087,0,0,1-.166,1.946,13.465,13.465,0,0,0-.858,1.975,6.018,6.018,0,0,0,.015,4.054,4.182,4.182,0,0,0,2.4,2.349,3.771,3.771,0,0,0,3.464-.765,16.11,16.11,0,0,0,1.5-1.316,1.471,1.471,0,0,1,1.592-.463,2.8,2.8,0,0,1,1.124,1.119A4.855,4.855,0,0,0,63.629,89a3.851,3.851,0,0,0,5.885-1.5,5.513,5.513,0,0,0,.127-3.476,14.437,14.437,0,0,1-.544-3.544A3.375,3.375,0,0,1,70.708,77.7c1.012-.623,2.22-.8,3.27-1.341a4.941,4.941,0,0,0,2.245-2.517,7.591,7.591,0,0,0-1.165-7.171,13.492,13.492,0,0,0-1.244-1.552c-.249-.271.155-.678.405-.406" transform="translate(2.45 -5.952)" fill="#ae660a"/>
              <path id="Trazado_719594" data-name="Trazado 719594" d="M64.423,123.468q.205-6.364.028-12.732t-.744-12.711q-.317-3.57-.757-7.128c-.044-.365.529-.362.573,0q.78,6.319,1.176,12.678t.407,12.726q.005,3.585-.111,7.168c-.013.367-.585.369-.573,0" transform="translate(0.166 -8.43)" fill="#ae660a"/>
              <path id="Trazado_719595" data-name="Trazado 719595" d="M95.577,91.193c.042,1.111.894,1.977,1.532,2.812a4.5,4.5,0,0,1,1.113,3.147,2.4,2.4,0,0,1-1.757,2.155,1.9,1.9,0,0,1-2.269-.972,12.732,12.732,0,0,1-.5-1.39c-.135-.376-.318-.743-.739-.834l.323-.132c-.668.882-.516,2.111-1.157,3.012a2,2,0,0,1-2.406.634,2.048,2.048,0,0,1-1.036-.865,3.143,3.143,0,0,1-.2-1.743,1.788,1.788,0,0,0-.1-.815c-.1-.213-.287-.474-.543-.49s-.463.255-.6.449-.285.424-.426.638c-.52.785-1.292,1.786-2.375,1.4a1.8,1.8,0,0,1-1.057-1.165,3.21,3.21,0,0,1,.135-1.953c.063-.191.374-1.15-.128-.91a8.284,8.284,0,0,0-1.533,1.241c-.85.7-2.212,1.3-3.167.424a1.949,1.949,0,0,1-.537-1.68,3.236,3.236,0,0,1,.956-1.766A9.871,9.871,0,0,1,82.8,90.025c.346-.129.5.424.152.552a9.505,9.505,0,0,0-3.162,1.941,3.345,3.345,0,0,0-1.019,1.447A1.489,1.489,0,0,0,79,95.333a1.335,1.335,0,0,0,1.478.249,4.308,4.308,0,0,0,1.447-1c.215-.195.431-.387.661-.565a2.19,2.19,0,0,1,.784-.456.718.718,0,0,1,.864.732,5.451,5.451,0,0,1-.327,1.519,1.722,1.722,0,0,0,.37,1.62c.827.8,1.637-.317,2.058-.954a3.9,3.9,0,0,1,.926-1.166,1.029,1.029,0,0,1,1.355.21A2.071,2.071,0,0,1,89.05,97.1a2.19,2.19,0,0,0,.222,1.511,1.555,1.555,0,0,0,2.26.207,3.292,3.292,0,0,0,.622-1.527,4.192,4.192,0,0,1,.635-1.6.3.3,0,0,1,.324-.132c1.682.366.884,3.3,2.8,3.257a1.814,1.814,0,0,0,1.74-1.662,4.139,4.139,0,0,0-1.122-2.971A5.38,5.38,0,0,1,95,91.193c-.014-.369.56-.368.573,0" transform="translate(-46.736 -8.372)" fill="#ae660a"/>
              <path id="Trazado_719596" data-name="Trazado 719596" d="M31.361,81.651q1.258,1,2.517,1.994a3.172,3.172,0,0,1,1.451,2.09,1.552,1.552,0,0,1-1.418,1.68,3.5,3.5,0,0,1-2.415-.62,6.9,6.9,0,0,1-1.015-.822,7.482,7.482,0,0,0-.886-.892c-.1-.065-.3-.208-.394-.07s.059.431.123.568a6.8,6.8,0,0,1,.514,1.391,2.494,2.494,0,0,1-.6,2.431,1.609,1.609,0,0,1-2.065.22,3.418,3.418,0,0,1-1.053-2.16c-.14-.646-.424-1.706-1.22-1.8l.287-.287c-.033,1.207-.109,2.674-1.158,3.472a1.832,1.832,0,0,1-2.783-.376,2.6,2.6,0,0,1-.06-1.75c.074-.322.169-.638.248-.959a1.573,1.573,0,0,0,.069-.951c-.2-.441-.87-.293-1.157-.046a5.641,5.641,0,0,0-.977,1.569c-.581.991-1.648,1.927-2.864,1.438a1.471,1.471,0,0,1-.962-1.11,2.917,2.917,0,0,1,.711-1.879,8.649,8.649,0,0,1,1.337-1.555c.141-.13.658-.432.431-.648a.78.78,0,0,0-.783-.078c-1.127.382-1.517,2.005-2.869,1.934a1.266,1.266,0,0,1-1.165-.738c-.233-.634.294-1.163.724-1.547a12.45,12.45,0,0,1,3.479-2.2c.325-.138.656-.261.99-.371.351-.115.5.437.152.552a12,12,0,0,0-3.489,1.826c-.251.19-.493.391-.729.6-.219.2-.541.437-.6.746-.086.443.5.6.836.557.537-.068.929-.609,1.263-.983a2.8,2.8,0,0,1,1.388-.965,1.175,1.175,0,0,1,1.408.56c.225.617-.5,1.023-.865,1.385a7.968,7.968,0,0,0-1.208,1.524c-.27.442-.685,1.073-.282,1.555a1.243,1.243,0,0,0,1.224.364A2.357,2.357,0,0,0,18.776,86.2c.557-.876.915-2.228,2.177-2.243a1.109,1.109,0,0,1,1.112.725,3.385,3.385,0,0,1-.226,1.782,2.369,2.369,0,0,0-.035,1.831,1.134,1.134,0,0,0,1.371.362c1.341-.443,1.4-2.113,1.437-3.286,0-.141.129-.306.287-.287a1.882,1.882,0,0,1,1.464,1.244c.284.648.34,1.357.589,2.016.227.6.741,1.2,1.45.929a1.741,1.741,0,0,0,.912-2.022,5.521,5.521,0,0,0-.464-1.343,1.353,1.353,0,0,1-.174-1.122.711.711,0,0,1,.9-.353,2.223,2.223,0,0,1,.878.692,5.858,5.858,0,0,0,1.985,1.533c.62.258,1.741.432,2.179-.245a1.216,1.216,0,0,0-.013-1.171,3.5,3.5,0,0,0-.98-1.068c-.883-.715-1.78-1.412-2.672-2.118-.288-.229.12-.632.405-.405" transform="translate(75.107 -7.4)" fill="#ae660a"/>
              <path id="Trazado_719597" data-name="Trazado 719597" d="M37.4,82.278a60.344,60.344,0,0,0,1.918,9.285,23.416,23.416,0,0,1,.713,8.516,11.654,11.654,0,0,1-1.469,4.359.287.287,0,0,1-.494-.289,13.317,13.317,0,0,0,1.468-7.934,58.838,58.838,0,0,0-1.829-8.757,32.744,32.744,0,0,1-.88-5.179c-.027-.367.546-.366.573,0" transform="translate(48.78 -7.628)" fill="#ae660a"/>
              <path id="Trazado_719598" data-name="Trazado 719598" d="M39.282,85.5l-.9,1.681a.289.289,0,0,1-.392.1.292.292,0,0,1-.1-.392l.9-1.681a.289.289,0,0,1,.392-.1.293.293,0,0,1,.1.392" transform="translate(48.717 -7.913)" fill="#ae660a"/>
              <path id="Trazado_719599" data-name="Trazado 719599" d="M33.889,88.025A80.183,80.183,0,0,0,34,101.694q.181,1.921.454,3.833a.3.3,0,0,1-.2.352.288.288,0,0,1-.353-.2,80.583,80.583,0,0,1-.793-13.724q.056-1.967.208-3.931c.029-.366.6-.368.573,0" transform="translate(57.909 -8.162)" fill="#ae660a"/>
              <path id="Trazado_719600" data-name="Trazado 719600" d="M35.381,103.741a3.79,3.79,0,0,0-.867,2.013.294.294,0,0,1-.286.287.288.288,0,0,1-.287-.287,4.453,4.453,0,0,1,1.034-2.418.287.287,0,1,1,.405.405" transform="translate(56.119 -9.604)" fill="#ae660a"/>
              <path id="Trazado_719601" data-name="Trazado 719601" d="M89.15,100.678a23.655,23.655,0,0,1-4.732,14.045,23,23,0,0,1-2.815,3.116c-.271.249-.677-.154-.4-.4a23.14,23.14,0,0,0,6.991-12.649,22.289,22.289,0,0,0,.387-4.108.287.287,0,0,1,.573,0" transform="translate(-40.348 -9.339)" fill="#ae660a"/>
              <path id="Trazado_719602" data-name="Trazado 719602" d="M101.987,97.526a23.845,23.845,0,0,0-3.148,6.045c-.121.346-.674.2-.552-.152a24.321,24.321,0,0,1,3.206-6.182c.213-.3.71-.011.494.289" transform="translate(-68.803 -9.033)" fill="#ae660a"/>
              <path id="Trazado_719603" data-name="Trazado 719603" d="M102.2,101.124l-1.278.77a.286.286,0,0,1-.289-.494l1.278-.77a.286.286,0,1,1,.289.494" transform="translate(-71.119 -9.357)" fill="#ae660a"/>
              <path id="Trazado_719604" data-name="Trazado 719604" d="M68.21,100.89a1.147,1.147,0,0,1-1.4,1.462,1.187,1.187,0,0,1-.752-1.006.974.974,0,0,1,.585-.941,1.071,1.071,0,0,1,1.222.186.286.286,0,1,1-.4.4l-.038-.038c-.006-.005-.052-.039-.012-.012s-.008,0-.014-.008l-.044-.026-.031-.015c-.054-.029.063.02,0,0a.965.965,0,0,0-.1-.027c-.007,0-.065-.012-.014,0s-.006,0-.015,0c-.03,0-.059,0-.089,0l-.053,0c-.061,0,.053-.014.014,0s-.07.014-.1.024l-.043.014-.016.006c-.029.011-.023.008.019-.009-.009.015-.065.032-.08.04a.47.47,0,0,1-.073.049c.022,0,.046-.039,0,0a.483.483,0,0,0-.038.036c-.013.012-.024.025-.035.038-.034.037.014-.012.013-.016a.52.52,0,0,1-.051.083c-.024.04.01.019,0-.012a.246.246,0,0,1-.019.053c0,.014-.007.026-.01.04s-.005.026-.008.04q.008-.065,0-.016c0,.034,0,.066,0,.1,0,.015.018.059,0,.021s0,.011.005.021c.007.034.019.064.028.1.02.065-.029-.054,0,.006l.027.054c.019.033.043.062.061.094s-.045-.05,0,0c.014.015.027.031.042.045s.05.061.075.069c-.05-.016-.025-.017,0,0s.04.026.061.038.029.016.044.024.039.037,0,0a.285.285,0,0,0,.1.031c.01,0,.05.017.059.012l-.036,0,.031,0h.051c.008,0,.092-.006.043,0s.015,0,.02-.005a.529.529,0,0,0,.057-.015l.037-.013c.063-.02-.054.03,0,0,.029-.016.058-.031.085-.048a.231.231,0,0,0,.048-.034l-.026.021.03-.026c.029-.026.055-.056.083-.085.046-.049-.034.052,0,0,.011-.016.023-.033.034-.05a1.164,1.164,0,0,0,.057-.1c.032-.061-.018.059,0-.005.006-.019.014-.038.019-.057s.038-.105.027-.116l0,.037c0-.013,0-.026,0-.039s0-.04,0-.06,0-.039,0-.059c0-.057.016.061,0-.012a.971.971,0,0,0-.035-.124.288.288,0,0,1,.2-.353.3.3,0,0,1,.352.2" transform="translate(-5.815 -9.329)" fill="#ae660a"/>
              <path id="Trazado_719605" data-name="Trazado 719605" d="M67.81,112.682a1.147,1.147,0,0,1-1.4,1.462,1.187,1.187,0,0,1-.752-1.006.974.974,0,0,1,.585-.941,1.071,1.071,0,0,1,1.222.186.286.286,0,1,1-.4.4l-.038-.038c-.006-.005-.052-.039-.012-.012s-.007,0-.014-.008l-.044-.026-.031-.015c-.054-.029.063.019,0,0a.972.972,0,0,0-.1-.027c-.007,0-.065-.012-.014,0s-.006,0-.015,0c-.03,0-.059,0-.089,0l-.053,0c-.061,0,.053-.014.014,0s-.07.014-.1.024a.384.384,0,0,0-.043.014l-.016.005.019-.008c-.009.015-.065.032-.08.04a.471.471,0,0,1-.073.049c.022,0,.046-.039,0,0a.483.483,0,0,0-.038.036c-.013.012-.024.025-.035.038-.034.037.014-.012.013-.016a.521.521,0,0,1-.051.083c-.024.04.01.018,0-.013a.252.252,0,0,1-.019.054c0,.014-.007.026-.01.04s-.005.026-.008.04q.008-.065,0-.016c0,.034,0,.066,0,.1,0,.015.018.059,0,.021s0,.011.005.021c.007.034.019.064.028.1.02.065-.029-.054,0,.006l.027.054c.019.033.043.062.061.094s-.045-.05,0,0c.014.015.027.031.042.045s.05.061.074.069c-.049-.016-.024-.017,0,0l.06.038.044.024c.024.013.04.037,0,0a.285.285,0,0,0,.1.031c.01,0,.05.017.059.012l-.036,0,.031,0h.051c.008,0,.092-.006.043,0s.015,0,.02-.005a.527.527,0,0,0,.057-.015l.037-.013c.063-.02-.054.03,0,0,.029-.016.058-.031.085-.048a.231.231,0,0,0,.048-.034l-.026.021.03-.026c.029-.026.055-.056.083-.085.046-.049-.034.052,0,0,.011-.016.023-.033.034-.05a1.065,1.065,0,0,0,.057-.105c.032-.06-.019.06,0,0,.006-.019.014-.038.019-.057s.038-.105.027-.116c0,.013,0,.025,0,.037,0-.013,0-.026,0-.039s0-.04,0-.06,0-.039,0-.059c0-.057.016.061,0-.012a.972.972,0,0,0-.035-.124.288.288,0,0,1,.2-.353.294.294,0,0,1,.353.2" transform="translate(-5.052 -10.426)" fill="#ae660a"/>
              <path id="Trazado_719606" data-name="Trazado 719606" d="M69.431,108.08a95.636,95.636,0,0,0-14.388-.823q-2.043.038-4.084.163c-.368.023-.366-.551,0-.572a95.541,95.541,0,0,1,14.41.2q2.035.182,4.062.453a.3.3,0,0,1,.287.287c0,.139-.133.307-.287.287" transform="translate(6.679 -9.922)" fill="#ae660a"/>
              <path id="Trazado_719607" data-name="Trazado 719607" d="M66.034,111.454a48.264,48.264,0,0,0-10.475-1.781q-1.51-.086-3.023-.078a.287.287,0,0,1,0-.573,48.94,48.94,0,0,1,10.673,1.129q1.5.328,2.977.751a.287.287,0,0,1-.152.552" transform="translate(8.579 -10.141)" fill="#ae660a"/>
              <path id="Trazado_719608" data-name="Trazado 719608" d="M44.708,123.776c-.64,1.238-2.189,3.671-1.813,3.807,6.949,2.519,15.266,3.638,22.641,4.125,7.063.468,14.817.739,20.446-3.551l-1.529-3.4-.637.147c-9.866,2.276-20,3.176-29.863.871Z" transform="translate(-2.469 -11.513)" fill="#6b1212"/>
              <path id="Trazado_719609" data-name="Trazado 719609" d="M87.292,127.668,84.3,149.124q-1.5,10.729-2.991,21.457l-1.685,12.089c-.05.364-.6.21-.551-.152l2.99-21.456,2.99-21.456,1.685-12.089c.051-.364.6-.209.552.152" transform="translate(-36.645 -11.842)" fill="#6b1212"/>
              <path id="Trazado_719610" data-name="Trazado 719610" d="M91,130.4q-1.984,8.68-3.729,17.411t-3.246,17.508q-.842,4.922-1.607,9.856c-.057.364-.609.21-.552-.152q1.366-8.8,2.973-17.556T88.3,140q1.037-4.885,2.15-9.753c.083-.359.635-.207.552.152" transform="translate(-42.888 -12.096)" fill="#6b1212"/>
              <path id="Trazado_719611" data-name="Trazado 719611" d="M43.169,130.6q1.277,5.056,2.554,10.112,1.283,5.08,2.566,10.162,1.279,5.056,2.555,10.111T53.4,171.092l2.568,10.162q.158.629.317,1.258a.287.287,0,0,1-.552.151q-1.279-5.056-2.554-10.111-1.283-5.081-2.567-10.162-1.279-5.056-2.554-10.112T45.5,142.167q-1.283-5.081-2.567-10.162-.158-.63-.317-1.258a.287.287,0,0,1,.552-.152" transform="translate(27.43 -12.129)" fill="#6b1212"/>
              <path id="Trazado_719612" data-name="Trazado 719612" d="M53.162,131.806q1.5,9.132,2.862,18.286,1.35,9.1,2.555,18.217.679,5.129,1.311,10.263c.045.365-.528.362-.573,0q-1.126-9.146-2.4-18.275-1.264-9.072-2.673-18.122-.795-5.111-1.636-10.215c-.059-.361.492-.516.552-.152" transform="translate(14.761 -12.241)" fill="#6b1212"/>
              <path id="Trazado_719613" data-name="Trazado 719613" d="M117.1,240.728A32.542,32.542,0,0,1,97.974,246c-3.632-.156-7.1-1.152-10.654-1.788a21.08,21.08,0,0,0-5.7-.349,22.407,22.407,0,0,0-5.028,1.171c-3.232,1.092-6.339,2.6-9.7,3.293a20.747,20.747,0,0,1-9.549-.4c-6.613-1.755-12.356-5.685-18.643-8.252a50.994,50.994,0,0,0-21.624-3.71q-1.356.064-2.707.2c-.366.036-.365-.537,0-.573A51.538,51.538,0,0,1,35.87,238c6.522,2.194,12.288,6.067,18.73,8.438a23.709,23.709,0,0,0,9.668,1.664c3.4-.219,6.571-1.533,9.718-2.736,3.184-1.218,6.431-2.28,9.884-2.14,3.734.151,7.311,1.36,10.989,1.9a31.88,31.88,0,0,0,19.8-3.6q1.1-.605,2.15-1.3c.309-.2.6.293.289.494" transform="translate(-7.649 -21.89)" fill="#6b1212"/>
              <path id="Trazado_719614" data-name="Trazado 719614" d="M106.575,196.271a83.031,83.031,0,0,0-3.523,17.236q-.234,2.453-.322,4.916c-.013.367-.586.369-.572,0a83.749,83.749,0,0,1,2.49-17.478q.615-2.434,1.375-4.826c.112-.35.664-.2.552.152" transform="translate(-76.879 -18.224)" fill="#6b1212"/>
              <path id="Trazado_719615" data-name="Trazado 719615" d="M110.921,207.29q-.946,5.477-2.316,10.87a.287.287,0,0,1-.552-.152q1.37-5.387,2.316-10.87c.063-.363.615-.209.552.152" transform="translate(-86.553 -19.248)" fill="#6b1212"/>
              <path id="Trazado_719616" data-name="Trazado 719616" d="M95.708,133.086a98.96,98.96,0,0,1-8.21,7.46q-1.223.992-2.477,1.945c-.293.223-.579-.274-.288-.494a98.355,98.355,0,0,0,8.348-7.125q1.128-1.078,2.222-2.19c.259-.263.664.142.405.405" transform="translate(-50.167 -12.334)" fill="#6b1212"/>
              <path id="Trazado_719617" data-name="Trazado 719617" d="M35.751,134.151a34.042,34.042,0,0,0,10.175,5.074q1.555.471,3.15.791c.361.073.209.626-.152.552a34.515,34.515,0,0,1-10.75-4.134q-1.4-.829-2.712-1.789c-.295-.215-.009-.712.289-.494" transform="translate(41.033 -12.473)" fill="#6b1212"/>
              <path id="Trazado_719618" data-name="Trazado 719618" d="M54.865,64.748a.634.634,0,1,0,.635-.635.635.635,0,0,0-.635.635" transform="translate(16.47 -5.964)" fill="#fff"/>
              <path id="Trazado_719619" data-name="Trazado 719619" d="M56.564,65.848a.634.634,0,1,0,.635-.635.635.635,0,0,0-.635.635" transform="translate(13.23 -6.066)" fill="#fff"/>
              <path id="Trazado_719620" data-name="Trazado 719620" d="M58.563,66.447a.634.634,0,1,0,.635-.635.635.635,0,0,0-.635.635" transform="translate(9.418 -6.122)" fill="#fff"/>
              <path id="Trazado_719621" data-name="Trazado 719621" d="M60.562,66.847a.634.634,0,1,0,.635-.634.635.635,0,0,0-.635.634" transform="translate(5.606 -6.159)" fill="#fff"/>
              <path id="Trazado_719622" data-name="Trazado 719622" d="M62.561,67.147a.634.634,0,1,0,.634-.635.635.635,0,0,0-.634.635" transform="translate(1.794 -6.187)" fill="#fff"/>
              <path id="Trazado_719623" data-name="Trazado 719623" d="M64.559,66.747a.634.634,0,1,0,.635-.635.635.635,0,0,0-.635.635" transform="translate(-2.016 -6.15)" fill="#fff"/>
              <path id="Trazado_719624" data-name="Trazado 719624" d="M66.558,66.347a.634.634,0,1,0,.635-.635.635.635,0,0,0-.635.635" transform="translate(-5.828 -6.112)" fill="#fff"/>
              <path id="Trazado_719625" data-name="Trazado 719625" d="M68.557,65.448a.634.634,0,1,0,.635-.635.635.635,0,0,0-.635.635" transform="translate(-9.64 -6.029)" fill="#fff"/>
              <path id="Trazado_719626" data-name="Trazado 719626" d="M69.956,64.448a.634.634,0,1,0,.635-.633.635.635,0,0,0-.635.633" transform="translate(-12.308 -5.936)" fill="#fff"/>
              <path id="Trazado_719627" data-name="Trazado 719627" d="M71.355,63.649a.634.634,0,1,0,.635-.634.635.635,0,0,0-.635.634" transform="translate(-14.976 -5.861)" fill="#fff"/>
              <path id="Trazado_719628" data-name="Trazado 719628" d="M57.024,22.863c-2.547-2.24-6.111-2.474-9.342-2.306-.368.02-.367-.553,0-.572,3.4-.178,7.078.125,9.747,2.472.277.244-.13.648-.405.405" transform="translate(21.847 -1.855)" fill="#ae660a"/>
              <path id="Trazado_719629" data-name="Trazado 719629" d="M57.8,19.554a18.866,18.866,0,0,0-6.362-.424c-.366.037-.364-.535,0-.573A19.348,19.348,0,0,1,57.954,19c.358.086.206.639-.152.552" transform="translate(17.801 -1.717)" fill="#ae660a"/>
              <path id="Trazado_719630" data-name="Trazado 719630" d="M72.008,24.382a10.83,10.83,0,0,0-3.976,6.5c-.069.362-.62.209-.552-.152A11.3,11.3,0,0,1,71.6,23.976c.288-.223.7.179.4.405" transform="translate(-10.939 -2.224)" fill="#ae660a"/>
              <path id="Trazado_719631" data-name="Trazado 719631" d="M73.242,24.054A11.487,11.487,0,0,0,70.1,28.9c-.116.348-.669.2-.552-.152a12.09,12.09,0,0,1,3.291-5.095c.272-.249.678.156.405.405" transform="translate(-14.027 -2.193)" fill="#ae660a"/>
            </g>
          </g>
        </g>
      </g>
    </g>
  </g>
</svg>
