<svg xmlns="http://www.w3.org/2000/svg" xmlns:xlink="http://www.w3.org/1999/xlink" width="230" height="409" viewBox="0 0 230 409">
  <defs>
    <clipPath id="clip-path">
      <rect id="Rectángulo_348291" data-name="Rectángulo 348291" width="230" height="409" transform="translate(1157 5360)" fill="#fff" stroke="#707070" stroke-width="1" opacity="0.84"/>
    </clipPath>
    <clipPath id="clip-path-2">
      <path id="Trazado_722733" data-name="Trazado 722733" d="M634.226,304.59c15.426,5.884,31.286,12.023,43.386,23.382,8.135,7.623,14.172,17.268,19.7,27.04,14.735,26.144,26.554,56.587,19.851,85.954-2.277,10.028-8.442,20.849-18.5,21.872-8.621.87-16.193-6.088-20.491-13.712-4.3-7.649-6.575-16.4-11.512-23.637q-6.447,23.33-12.893,46.635c-.614,2.174-1.253,4.451-2.814,6.088-2.021,2.123-5.116,2.712-8.007,3.07-33.845,4.2-55.819-.307-86.876-14.633,1.407-21.412-1.714-58.224-2.328-79.661-6.933,8.186-21.821,25.428-27.807,34.331-12.023-3.658-25.275-11.768-36.121-18.189,14.351-27.193,37.81-45.28,53.926-70.785,2.891-4.554,5.781-9.235,9.8-12.791,8.058-7.137,19.365-8.9,30.033-9.414s17.933-1.2,27.884-5.168l22.717-.384Z" transform="translate(-489.818 -304.59)" fill="none"/>
    </clipPath>
  </defs>
  <g id="Enmascarar_grupo_1007915" data-name="Enmascarar grupo 1007915" transform="translate(-1157 -5360)" clip-path="url(#clip-path)">
    <g id="Grupo_1010461" data-name="Grupo 1010461" transform="translate(1156.733 5360)">
      <path id="Trazado_722723" data-name="Trazado 722723" d="M549.165,281.73c1.049,2.072.384,4.656-.87,6.626-1.253,1.944-3.044,3.5-4.477,5.321-1.458,1.816-2.584,4.093-2.226,6.4.537,3.4,4.2,5.7,4.554,9.133a5.23,5.23,0,0,1-4.016,5.5c2.584.716,5.423-1.126,6.4-3.684a8.873,8.873,0,0,0-1.2-7.8c-.921-1.407-2.2-2.788-2.149-4.5.026-1.637,1.279-2.942,2.353-4.144a15.21,15.21,0,0,0,3.5-6.012,7.668,7.668,0,0,0-1.151-6.7l-.716-.128Z" transform="translate(-453.335 -239.235)" fill="#c23f37"/>
      <path id="Trazado_722724" data-name="Trazado 722724" d="M634.226,304.59c15.426,5.884,31.286,12.023,43.386,23.382,8.135,7.623,14.172,17.268,19.7,27.04,14.735,26.144,26.554,56.587,19.851,85.954-2.277,10.028-8.442,20.849-18.5,21.872-8.621.87-16.193-6.088-20.491-13.712-4.3-7.649-6.575-16.4-11.512-23.637q-6.447,23.33-12.893,46.635c-.614,2.174-1.253,4.451-2.814,6.088-2.021,2.123-5.116,2.712-8.007,3.07-33.845,4.2-55.819-.307-86.876-14.633,1.407-21.412-1.714-58.224-2.328-79.661-6.933,8.186-21.821,25.428-27.807,34.331-12.023-3.658-25.275-11.768-36.121-18.189,12.663-28.933,37.81-45.28,53.926-70.785,2.891-4.554,5.781-9.235,9.8-12.791,8.058-7.137,19.365-8.9,30.033-9.414s17.933-1.2,27.884-5.168l22.717-.384Z" transform="translate(-488.819 -203.615)" fill="#8e571f"/>
      <g id="Grupo_1010460" data-name="Grupo 1010460" transform="translate(0.999 100.975)" clip-path="url(#clip-path-2)">
        <path id="Trazado_722725" data-name="Trazado 722725" d="M511.748,341.389a38.751,38.751,0,0,1-14.658-8.877,16.258,16.258,0,0,1,12,1.688,34.615,34.615,0,0,1-4.528-4.554,13.652,13.652,0,0,1,10.028,4.554c-4.886-5.935-9.823-12.688-9.363-20.337a51.7,51.7,0,0,1,13.1,20.747c-2.123-7.675-4.272-15.477-3.965-23.433a95.589,95.589,0,0,1,6.907,22.665c-.051-9.03-.051-18.317,3.223-26.733.23,6.421.46,12.816.691,19.237a54.063,54.063,0,0,1,7.956-15.579c.819,0,1.049,1.151.946,1.97-.742,6.6-5.347,11.972-8.314,17.907a2.663,2.663,0,0,0-.333,1.791,33.342,33.342,0,0,1,14.223-12.382,34.929,34.929,0,0,1-10.923,14.4,56.519,56.519,0,0,1,18.368-6.088c-1.458,3.837-4.937,6.575-8.7,8.058s-7.854,1.893-11.87,2.277a29.216,29.216,0,0,1,14.965,5.909c.409,1.714-2.2,2.3-3.888,1.867a32.353,32.353,0,0,1-11.512-5.5c4.144,6.856,12.944,11.051,14.044,19.033a45.981,45.981,0,0,1-14.5-16.116c1.663,7.086,3.351,14.351,2.584,21.617a92.3,92.3,0,0,1-6.319-18.675,19.878,19.878,0,0,1-3.147,14.2c-.461.665-1.074,1.381-1.867,1.381-1.433,0-1.867-1.97-1.74-3.4a32.515,32.515,0,0,1,3.53-12.254,20.8,20.8,0,0,1-12.791,10.1c2.507-4.3,5.04-8.621,7.547-12.919a16.509,16.509,0,0,1-13.3,2.174,10.5,10.5,0,0,1,11.64-4.656Z" transform="translate(-336.437 -300.663)" fill="#a8774c"/>
        <path id="Trazado_722726" data-name="Trazado 722726" d="M536.568,353.85a38.751,38.751,0,0,1-14.658-8.877,16.258,16.258,0,0,1,12,1.688,34.608,34.608,0,0,1-4.528-4.553,13.651,13.651,0,0,1,10.028,4.553c-4.886-5.935-9.823-12.688-9.363-20.337a51.7,51.7,0,0,1,13.1,20.747c-2.123-7.675-4.272-15.477-3.965-23.433a95.591,95.591,0,0,1,6.907,22.665c-.051-9.03-.051-18.317,3.223-26.733.23,6.421.461,12.816.691,19.237a54.068,54.068,0,0,1,7.956-15.579c.819,0,1.049,1.151.947,1.97-.742,6.6-5.347,11.972-8.314,17.907a2.664,2.664,0,0,0-.332,1.791,33.343,33.343,0,0,1,14.223-12.382,34.93,34.93,0,0,1-10.923,14.4,56.519,56.519,0,0,1,18.368-6.089c-1.458,3.837-4.937,6.575-8.7,8.058s-7.854,1.893-11.87,2.277a29.215,29.215,0,0,1,14.965,5.909c.409,1.714-2.2,2.3-3.888,1.867a32.353,32.353,0,0,1-11.512-5.5c4.144,6.856,12.944,11.051,14.044,19.033a45.982,45.982,0,0,1-14.5-16.116c1.663,7.086,3.351,14.351,2.584,21.617a92.292,92.292,0,0,1-6.319-18.675,19.878,19.878,0,0,1-3.146,14.2c-.461.665-1.074,1.381-1.867,1.381-1.432,0-1.867-1.97-1.739-3.4a32.516,32.516,0,0,1,3.53-12.254,20.8,20.8,0,0,1-12.791,10.1c2.532-4.3,5.039-8.621,7.547-12.919a16.509,16.509,0,0,1-13.3,2.174,10.5,10.5,0,0,1,11.64-4.656Z" transform="translate(-424.751 -281.249)" fill="#a8774c"/>
        <path id="Trazado_722727" data-name="Trazado 722727" d="M544.348,326.579A38.752,38.752,0,0,1,529.69,317.7a16.258,16.258,0,0,1,12,1.688,34.619,34.619,0,0,1-4.528-4.554,13.651,13.651,0,0,1,10.028,4.554c-4.886-5.935-9.823-12.688-9.363-20.337a51.7,51.7,0,0,1,13.1,20.747c-2.123-7.674-4.272-15.477-3.965-23.433a95.589,95.589,0,0,1,6.907,22.665c-.051-9.03-.051-18.316,3.223-26.733.23,6.421.46,12.816.691,19.237a54.063,54.063,0,0,1,7.956-15.579c.819,0,1.049,1.151.946,1.97-.742,6.6-5.347,11.972-8.314,17.907a2.664,2.664,0,0,0-.333,1.791,33.173,33.173,0,0,1,14.223-12.382,34.928,34.928,0,0,1-10.923,14.4,56.519,56.519,0,0,1,18.368-6.088c-1.458,3.837-4.937,6.575-8.7,8.058s-7.854,1.893-11.87,2.277A29.216,29.216,0,0,1,574.1,329.8c.409,1.714-2.2,2.3-3.888,1.867a32.354,32.354,0,0,1-11.512-5.5c4.144,6.856,12.944,11.051,14.044,19.033a45.98,45.98,0,0,1-14.5-16.116c1.663,7.086,3.351,14.351,2.584,21.617a92.3,92.3,0,0,1-6.319-18.675,19.878,19.878,0,0,1-3.146,14.2c-.46.665-1.074,1.381-1.867,1.381-1.433,0-1.867-1.97-1.74-3.4a32.52,32.52,0,0,1,3.53-12.254,20.8,20.8,0,0,1-12.791,10.1c2.507-4.3,5.04-8.621,7.547-12.919a16.525,16.525,0,0,1-13.3,2.174,10.5,10.5,0,0,1,11.64-4.656Z" transform="translate(-452.433 -323.74)" fill="#a8774c"/>
        <path id="Trazado_722728" data-name="Trazado 722728" d="M561.058,340.21a38.75,38.75,0,0,1-14.658-8.877,16.258,16.258,0,0,1,12,1.688,34.623,34.623,0,0,1-4.528-4.554,13.651,13.651,0,0,1,10.028,4.554c-4.886-5.935-9.823-12.689-9.363-20.337a51.7,51.7,0,0,1,13.1,20.747c-2.123-7.674-4.272-15.477-3.965-23.433a95.6,95.6,0,0,1,6.907,22.665c-.051-9.03-.051-18.316,3.223-26.733.23,6.421.46,12.816.691,19.237a54.067,54.067,0,0,1,7.956-15.579c.819,0,1.049,1.151.947,1.97-.742,6.6-5.347,11.972-8.314,17.907a2.664,2.664,0,0,0-.333,1.791,33.344,33.344,0,0,1,14.223-12.382,34.928,34.928,0,0,1-10.923,14.4,56.519,56.519,0,0,1,18.368-6.088c-1.458,3.837-4.937,6.574-8.7,8.058s-7.854,1.893-11.87,2.277a29.216,29.216,0,0,1,14.965,5.909c.409,1.714-2.2,2.3-3.889,1.868a32.355,32.355,0,0,1-11.512-5.5c4.144,6.856,12.944,11.051,14.044,19.033a45.981,45.981,0,0,1-14.5-16.116c1.663,7.086,3.351,14.351,2.584,21.617a92.3,92.3,0,0,1-6.319-18.675,19.877,19.877,0,0,1-3.147,14.2c-.46.665-1.074,1.381-1.867,1.381-1.433,0-1.867-1.97-1.74-3.4a32.522,32.522,0,0,1,3.53-12.254,20.8,20.8,0,0,1-12.791,10.1c2.507-4.3,5.039-8.621,7.547-12.919a16.508,16.508,0,0,1-13.3,2.174,10.5,10.5,0,0,1,11.64-4.656Z" transform="translate(-511.89 -302.502)" fill="#a8774c"/>
        <path id="Trazado_722729" data-name="Trazado 722729" d="M566.858,368.33a38.751,38.751,0,0,1-14.658-8.877,16.258,16.258,0,0,1,12,1.688,34.616,34.616,0,0,1-4.528-4.553,13.652,13.652,0,0,1,10.028,4.553c-4.886-5.935-9.823-12.688-9.363-20.337a51.7,51.7,0,0,1,13.1,20.747c-2.123-7.675-4.272-15.477-3.965-23.433a95.594,95.594,0,0,1,6.907,22.665c-.051-9.03-.051-18.317,3.223-26.733.23,6.421.46,12.816.691,19.237a54.065,54.065,0,0,1,7.956-15.579c.819,0,1.049,1.151.947,1.97-.742,6.6-5.347,11.972-8.314,17.907a2.664,2.664,0,0,0-.333,1.791,33.175,33.175,0,0,1,14.223-12.382,34.929,34.929,0,0,1-10.923,14.4,56.52,56.52,0,0,1,18.368-6.089c-1.458,3.837-4.937,6.575-8.7,8.058s-7.854,1.893-11.87,2.277a29.215,29.215,0,0,1,14.965,5.909c.409,1.714-2.2,2.3-3.888,1.867a32.352,32.352,0,0,1-11.512-5.5c4.144,6.856,12.944,11.051,14.044,19.033a45.981,45.981,0,0,1-14.5-16.116c1.663,7.086,3.351,14.351,2.584,21.617a92.3,92.3,0,0,1-6.319-18.675,19.878,19.878,0,0,1-3.146,14.2c-.461.665-1.074,1.381-1.867,1.381-1.433,0-1.867-1.97-1.74-3.4a32.52,32.52,0,0,1,3.53-12.254A20.8,20.8,0,0,1,561,383.807c2.507-4.3,5.04-8.621,7.547-12.919a16.525,16.525,0,0,1-13.3,2.174,10.5,10.5,0,0,1,11.64-4.656Z" transform="translate(-532.528 -258.686)" fill="#a8774c"/>
        <path id="Trazado_722730" data-name="Trazado 722730" d="M544.848,386.01a38.753,38.753,0,0,1-14.658-8.877,16.258,16.258,0,0,1,12,1.688,34.612,34.612,0,0,1-4.528-4.554,13.651,13.651,0,0,1,10.028,4.554c-4.886-5.935-9.823-12.688-9.363-20.337a51.7,51.7,0,0,1,13.1,20.747c-2.123-7.674-4.272-15.477-3.965-23.433a95.589,95.589,0,0,1,6.907,22.665c-.051-9.03-.051-18.316,3.223-26.733.23,6.421.461,12.816.691,19.237a54.07,54.07,0,0,1,7.956-15.579c.819,0,1.049,1.151.947,1.97-.742,6.6-5.347,11.972-8.314,17.907a2.663,2.663,0,0,0-.333,1.791,33.173,33.173,0,0,1,14.223-12.382,34.93,34.93,0,0,1-10.923,14.4,56.518,56.518,0,0,1,18.368-6.088c-1.458,3.837-4.937,6.574-8.7,8.058s-7.854,1.893-11.87,2.277a29.216,29.216,0,0,1,14.965,5.909c.409,1.714-2.2,2.3-3.888,1.867a32.354,32.354,0,0,1-11.512-5.5c4.144,6.856,12.944,11.051,14.044,19.033a45.982,45.982,0,0,1-14.5-16.116c1.663,7.086,3.351,14.351,2.584,21.617A92.287,92.287,0,0,1,555,391.458a19.878,19.878,0,0,1-3.147,14.2c-.461.665-1.074,1.381-1.867,1.381-1.432,0-1.867-1.97-1.739-3.4a32.516,32.516,0,0,1,3.53-12.254,20.8,20.8,0,0,1-12.791,10.1c2.533-4.3,5.04-8.621,7.547-12.919a16.525,16.525,0,0,1-13.3,2.174,10.5,10.5,0,0,1,11.64-4.656Z" transform="translate(-454.212 -231.138)" fill="#a8774c"/>
        <path id="Trazado_722731" data-name="Trazado 722731" d="M519.208,380.79a38.752,38.752,0,0,1-14.658-8.877,16.258,16.258,0,0,1,12,1.688,34.622,34.622,0,0,1-4.528-4.554,13.651,13.651,0,0,1,10.028,4.554c-4.886-5.935-9.823-12.688-9.363-20.337a51.7,51.7,0,0,1,13.1,20.747c-2.123-7.674-4.272-15.477-3.965-23.433a95.589,95.589,0,0,1,6.907,22.665c-.051-9.03-.051-18.316,3.223-26.733.23,6.421.461,12.816.691,19.237a54.642,54.642,0,0,1,7.93-15.579c.819,0,1.049,1.151.947,1.97-.742,6.6-5.347,11.972-8.314,17.907a2.664,2.664,0,0,0-.333,1.791,33.174,33.174,0,0,1,14.223-12.382,34.927,34.927,0,0,1-10.923,14.4,56.518,56.518,0,0,1,18.368-6.088c-1.458,3.837-4.937,6.574-8.7,8.058s-7.854,1.893-11.87,2.277a29.215,29.215,0,0,1,14.965,5.909c.409,1.714-2.2,2.3-3.888,1.867a32.354,32.354,0,0,1-11.512-5.5c4.144,6.856,12.944,11.051,14.044,19.033a45.982,45.982,0,0,1-14.5-16.116c1.663,7.086,3.351,14.351,2.584,21.617a92.288,92.288,0,0,1-6.319-18.675,19.878,19.878,0,0,1-3.147,14.2c-.46.665-1.074,1.381-1.867,1.381-1.433,0-1.867-1.97-1.74-3.4a32.518,32.518,0,0,1,3.53-12.254,20.8,20.8,0,0,1-12.791,10.1c2.507-4.3,5.039-8.621,7.547-12.919a16.508,16.508,0,0,1-13.3,2.174,10.5,10.5,0,0,1,11.64-4.656Z" transform="translate(-362.955 -239.272)" fill="#a8774c"/>
        <path id="Trazado_722732" data-name="Trazado 722732" d="M496.028,373.55a38.752,38.752,0,0,1-14.658-8.877,16.258,16.258,0,0,1,12,1.688,34.614,34.614,0,0,1-4.528-4.553,13.652,13.652,0,0,1,10.028,4.553c-4.886-5.935-9.823-12.688-9.363-20.337a51.7,51.7,0,0,1,13.1,20.747c-2.123-7.675-4.272-15.477-3.965-23.433A95.583,95.583,0,0,1,505.545,366c-.051-9.03-.051-18.317,3.223-26.733.23,6.421.46,12.816.691,19.237a54.061,54.061,0,0,1,7.956-15.579c.819,0,1.049,1.151.946,1.97-.742,6.6-5.347,11.972-8.314,17.907a2.664,2.664,0,0,0-.333,1.791,33.174,33.174,0,0,1,14.223-12.382,34.93,34.93,0,0,1-10.923,14.4,56.519,56.519,0,0,1,18.368-6.088c-1.458,3.837-4.937,6.574-8.7,8.058s-7.854,1.893-11.87,2.277a29.216,29.216,0,0,1,14.965,5.909c.409,1.714-2.2,2.3-3.888,1.867a32.353,32.353,0,0,1-11.512-5.5c4.144,6.856,12.944,11.051,14.044,19.033a45.983,45.983,0,0,1-14.5-16.116c1.663,7.086,3.351,14.351,2.584,21.617A92.3,92.3,0,0,1,506.184,379a19.878,19.878,0,0,1-3.147,14.2c-.461.665-1.074,1.381-1.867,1.381-1.433,0-1.867-1.97-1.74-3.4a32.516,32.516,0,0,1,3.53-12.254,20.8,20.8,0,0,1-12.791,10.1c2.507-4.3,5.04-8.621,7.547-12.919a16.509,16.509,0,0,1-13.3,2.174,10.5,10.5,0,0,1,11.64-4.656Z" transform="translate(-280.503 -250.553)" fill="#a8774c"/>
      </g>
      <path id="Trazado_722734" data-name="Trazado 722734" d="M558.282,283.676c3.351,4.349,3.53,11,2.584,16.807-.767,4.681-2.251,9.465-5.372,12.433-2.021,1.919-4.5,2.891-6.779,4.349-2.251,1.458-4.451,3.658-4.912,6.677s1.688,6.6,4.2,5.96a9.057,9.057,0,0,1-12.637-.435c-3.1-3.172-4.272-8.161-6.523-12.2-3.377-6.012-9.388-9.8-15.451-9.7l44.922-23.919Z" transform="translate(-391.386 -236.243)" fill="#c23f37"/>
      <path id="Trazado_722735" data-name="Trazado 722735" d="M520.482,273.55c-2.047,14.1-5.014,34.868-5.4,49.117-.1,3.633-.1,7.444,1.561,10.693,3.249,6.344,11.333,7.93,18.316,8.775,0,9.184.793,11.665.793,20.849a9.107,9.107,0,0,0,.87,4.758c1.049,1.765,3.1,2.558,5.04,3.147,9.414,2.737,15.042,3.147,24.226-.333a5.315,5.315,0,0,0,2.456-1.509,5.856,5.856,0,0,0,.87-3.377c.819-15.2.844-23.689,1.663-38.884a10.783,10.783,0,0,0,13.2-2.354,11.286,11.286,0,0,0,.332-13.635,10.788,10.788,0,0,0-13.072-3.019c-.588-10.207-2.2-23.177-2.788-33.384-15.247.64-48.042-.793-48.042-.793Z" transform="translate(-420.815 -251.981)" fill="#f6a472"/>
      <path id="Trazado_722736" data-name="Trazado 722736" d="M517.089,425.779c-1.151-16.679,1.33-33.563-1.663-49.987-.665-3.709-1.458-7.521-3.607-10.591a64.34,64.34,0,0,0-4.912-5.321,44.189,44.189,0,0,1-6.063-9.8c-3.914-7.726-7.93-16.014-6.728-24.712a1.948,1.948,0,0,1,1.3-1.663c.793-.256,1.33.281,1.765.793,1.944,2.379,2.891,5.423,4.528,8.033,1.842,2.891,5.219,5.4,8.519,3.786A5.549,5.549,0,0,0,513,330.027c-1.1-4.656-6.216-6.37-10.361-5.3-1.2.307-2.379.819-3.632.512a2.2,2.2,0,0,1-1.356-1.023,1.967,1.967,0,0,1,.384-2.2c4.835-6.6,15.937-6.881,21.079-.512-.384-8.775-.767-17.523-1.126-26.3-.077-1.867-.128-3.888,1.228-5.347a2.523,2.523,0,0,1,2.661-.767c1.2.384,1.509,1.535,1.765,2.584,1.407,5.73,2.84,11.461,4.247,17.191.818-3.2,1.612-6.37,2.43-9.568.409-1.586.844-3.249,2.3-4.17a2.311,2.311,0,0,1,2.328-.154c1.2.64,1.253,2.046,1.253,3.274a269.944,269.944,0,0,1-2,30.826l13.277-14.121a1.577,1.577,0,0,1,1.535-.46c1.2.358.921,2.021.435,3.1a82.393,82.393,0,0,1-11.844,18.854c-1.433,1.688-2.967,3.428-3.479,5.6-.409,1.74-1.356,13.916-1.535,16.449-.307,3.991,12.023,48.17,17.6,62.675a32.069,32.069,0,0,1-26.682,6.037l-6.4-1.407Z" transform="translate(-330.368 -227.952)" fill="#f6a472"/>
      <path id="Trazado_722737" data-name="Trazado 722737" d="M585.893,323.145c1.177.435,2.43-.563,3.121-1.612,2.763-4.144,2.021-9.747.384-14.479-1.612-4.733-4.016-9.312-4.3-14.326-.179-3.326.537-6.958-1.279-9.721a12.151,12.151,0,0,0-4.451-3.556q-8.941-4.988-17.881-10a31.407,31.407,0,0,0-6.523-3.019,23.131,23.131,0,0,0-8.7-.537c-4.4.409-8.851,1.484-12.433,4.119-3.121,2.3-5.347,5.679-8.468,7.982-1.893,1.407-4.068,2.379-5.935,3.837a15.4,15.4,0,0,0-5.833,12.535c.2,5.935,3.812,11.512,3.223,17.4l8.6-14.428a13.9,13.9,0,0,1,3.249-4.144c2.789-2.1,6.6-1.663,10.079-1.765,3.454-.077,7.572-1.356,8.468-4.758,1.049,5.833,9.644,6.344,12.816,11.333,1.816,2.865,1.407,6.549,1.816,9.951.614,5.219,3.914,10.591,9,11.563,2.3.435,4.758-.026,7.112-.2a8.72,8.72,0,0,1,7.9,3.812h0Z" transform="translate(-421.402 -264.175)" fill="#c23f37"/>
      <path id="Trazado_722738" data-name="Trazado 722738" d="M510.582,297.33c5.193,2.558,4.221,10.642,10,10.9,3.121.128,6.063-1.56,8.442-3.633a25.282,25.282,0,0,0,8.672-21.233c-.844-7.93-6.344-15.323-13.84-17.677a8.526,8.526,0,0,0-7.828.87,18.612,18.612,0,0,0-8.979,15.835l3.5,14.94Z" transform="translate(-351.643 -265.119)" fill="#c23f37"/>
      <path id="Trazado_722739" data-name="Trazado 722739" d="M566.086,296.951c-2.43,3.377-5.7,6.882-9.823,6.754-3.633-.128-6.5-3.07-8.826-5.935a36.38,36.38,0,0,1-5.756-8.954,15.8,15.8,0,0,1-.9-10.489c1.458-4.86,5.781-8.288,10.335-10.386A17.721,17.721,0,0,1,559,266.023a12.07,12.07,0,0,1,9.491,5.219,12.676,12.676,0,0,1,1.586,10.872l-3.965,14.837Z" transform="translate(-469.412 -263.717)" fill="#c23f37"/>
      <path id="Trazado_722740" data-name="Trazado 722740" d="M524.428,273.99c-1.228,2.456-2.789,5.884-1.1,8.493,1.3,2.021,4.042,2.533,6.063,3.53a7.349,7.349,0,0,1,2.763,2.226,8.712,8.712,0,0,1,1.33,4.119,19.163,19.163,0,0,0,.767,4.323,9.511,9.511,0,0,0,2.354,3.556c2.635,2.584,6.344,3.581,9.926,3.786.819.051.844,1.33,0,1.3a17.341,17.341,0,0,1-9.644-3.147,12.285,12.285,0,0,1-3.044-3.351,11.269,11.269,0,0,1-1.433-4.426,18.113,18.113,0,0,0-.818-4.528,5.243,5.243,0,0,0-2.686-2.661c-2.251-1.177-4.963-1.688-6.523-3.837-2.226-3.044-.537-7.061.947-10.028.358-.742,1.484-.1,1.126.64h0Z" transform="translate(-397.44 -252.805)" fill="#c23f37"/>
      <path id="Trazado_722741" data-name="Trazado 722741" d="M516.241,281.138c3.53,6.958,2.251,15.042-.128,22.128-.742,2.174-1.56,4.323-2.4,6.447-.307.767-1.56.435-1.253-.333,2.686-6.907,5.577-14.275,4.451-21.847a19.064,19.064,0,0,0-1.791-5.756c-.384-.742.742-1.407,1.126-.639h0Z" transform="translate(-345.943 -240.689)" fill="#c23f37"/>
      <path id="Trazado_722742" data-name="Trazado 722742" d="M555.8,279.237a6.125,6.125,0,0,0,.281-3.581,6.683,6.683,0,0,0-2.021-3.249c-1.663-1.612-3.991-3.5-6.472-3.044a5.492,5.492,0,0,0-3.914,4.247,8.4,8.4,0,0,0,1.509,6.523,14.319,14.319,0,0,0,2.354,2.763c.844.793,1.867,1.688,3.121,1.586,1.356-.1,1.688-1.3,1.816-2.456a4.379,4.379,0,0,0-.588-3.351,3.845,3.845,0,0,0-5.193-.563,6.287,6.287,0,0,0-2.1,6.191,10.363,10.363,0,0,0,4.323,6.779,4.2,4.2,0,0,0,3.351.537,3.077,3.077,0,0,0,2.226-2.1.649.649,0,0,1,1.253.333c-.665,2.481-3.581,3.684-5.935,2.993-2.814-.793-4.733-3.5-5.807-6.063-1.126-2.737-1.2-6.012.665-8.442a5.341,5.341,0,0,1,6.728-1.714,4.385,4.385,0,0,1,2.277,2.763,6.438,6.438,0,0,1,.128,2.328,7.353,7.353,0,0,1-.461,2.251,3.091,3.091,0,0,1-3.377,1.74,6.787,6.787,0,0,1-3.684-2.3,12.7,12.7,0,0,1-3.991-7.674,7.648,7.648,0,0,1,2.993-6.779c2.481-1.791,5.551-.87,7.8.819a14.006,14.006,0,0,1,3.377,3.351,6.977,6.977,0,0,1,1.126,4.2,8.238,8.238,0,0,1-.46,2.2c-.307.767-1.535.435-1.254-.333h0Z" transform="translate(-461.508 -260.661)" fill="#84211f"/>
      <path id="Trazado_722743" data-name="Trazado 722743" d="M509.742,278.971c.128-3.4,1.126-6.958,3.658-9.363a8.364,8.364,0,0,1,8.774-2.021c2.865,1.151,4.912,3.812,6.165,6.549a17.372,17.372,0,0,1,1.535,9.568c-.435,2.993-2.174,6.677-5.346,7.547-3.223.87-6.83-1.919-7.444-5.065a4.806,4.806,0,0,1,1.177-4.221,3.762,3.762,0,0,1,4.2-.819c2.814,1.151,4.426,4.3,4.809,7.188a9.444,9.444,0,0,1-2.328,7.8,8.287,8.287,0,0,1-8.314,1.944,7.824,7.824,0,0,1-2.021-1c-.691-.46-.026-1.586.665-1.126a6.963,6.963,0,0,0,7.24.384,7.172,7.172,0,0,0,3.5-5.756,9.183,9.183,0,0,0-2.123-6.83c-.844-.946-2.1-1.867-3.428-1.612a2.95,2.95,0,0,0-2.2,2.661c-.307,2.763,2.737,5.653,5.474,5.27,2.763-.384,4.3-3.684,4.758-6.088a15.482,15.482,0,0,0-.844-8.135,12.744,12.744,0,0,0-4.63-6.37,6.854,6.854,0,0,0-8.212.588c-2.635,2.149-3.658,5.628-3.761,8.9-.026.819-1.33.844-1.3,0h0Z" transform="translate(-350.726 -262.084)" fill="#84211f"/>
      <path id="Trazado_722744" data-name="Trazado 722744" d="M535.2,267.483a25.7,25.7,0,0,0-4.937,15.6.653.653,0,0,1-1.3,0,26.864,26.864,0,0,1,5.116-16.27c.486-.665,1.612,0,1.126.665h0Z" transform="translate(-405.167 -262.9)" fill="#84211f"/>
      <path id="Trazado_722745" data-name="Trazado 722745" d="M517.818,272.557a14.4,14.4,0,0,1,15.349,11.333,15.5,15.5,0,0,1,.23,5.321,14.893,14.893,0,0,1-.614,2.609,6.7,6.7,0,0,0-.563,2.891,5.069,5.069,0,0,0,2.763,3.556,17.38,17.38,0,0,0,5.423,1.56,11.277,11.277,0,0,1,5.628,2.43,5.411,5.411,0,0,1,1.842,5.065c-.179.819-1.433.46-1.254-.333a4.239,4.239,0,0,0-1.816-4.067,11.114,11.114,0,0,0-5.014-1.893c-3.172-.614-6.958-1.407-8.416-4.681-.768-1.714-.281-3.326.256-5.04a13.683,13.683,0,0,0-3.53-13.968,13.287,13.287,0,0,0-10.258-3.5c-.819.077-.819-1.228,0-1.3h0Z" transform="translate(-387.837 -253.623)" fill="#84211f"/>
      <path id="Trazado_722746" data-name="Trazado 722746" d="M520.306,271.656c2.66,2.1,5.4,4.3,7.086,7.291a11.822,11.822,0,0,1,1.509,4.733,13.839,13.839,0,0,1-.716,4.784c-.486,1.663-1.1,3.556-.333,5.219.333.742-.767,1.407-1.126.665-1.433-3.121.614-6.114.87-9.209.307-3.377-1.535-6.447-3.812-8.775a43.508,43.508,0,0,0-4.375-3.761c-.665-.512.256-1.433.921-.921h0Z" transform="translate(-373.774 -255.126)" fill="#84211f"/>
      <path id="Trazado_722747" data-name="Trazado 722747" d="M522.286,276.181a7.878,7.878,0,0,1,.512,2.865.65.65,0,0,1-.64.64.633.633,0,0,1-.64-.64,6.251,6.251,0,0,0-.026-.691V278.2a1.736,1.736,0,0,0-.051-.384,8.266,8.266,0,0,0-.358-1.3.642.642,0,0,1,.46-.793.662.662,0,0,1,.793.46h0Z" transform="translate(-372.428 -248.626)" fill="#84211f"/>
      <path id="Trazado_722748" data-name="Trazado 722748" d="M553.741,272.832c-3.223.639-5.091,3.837-7.777,5.449a16.632,16.632,0,0,1-5.193,1.637,7.07,7.07,0,0,0-4.451,2.686,18.1,18.1,0,0,0-2.3,5.3c-.256.793-1.484.46-1.253-.333,1.074-3.454,2.456-7.112,6.14-8.442,1.867-.691,3.965-.716,5.756-1.586a17.681,17.681,0,0,0,3.94-3.1,10.373,10.373,0,0,1,4.784-2.865c.819-.154,1.151,1.074.333,1.253h0Z" transform="translate(-433.711 -255.074)" fill="#84211f"/>
      <path id="Trazado_722749" data-name="Trazado 722749" d="M544.318,271c-3.428,1.253-8.058,3.2-8.161,7.521a.653.653,0,0,1-1.3,0,7.722,7.722,0,0,1,2.865-5.577,20.333,20.333,0,0,1,6.242-3.2c.793-.281,1.126.972.332,1.253h0Z" transform="translate(-429.686 -257.974)" fill="#84211f"/>
      <path id="Trazado_722750" data-name="Trazado 722750" d="M544.1,273.957a2.242,2.242,0,0,0-.537.307,1.95,1.95,0,0,0-.281.2c-.1.077.1-.1-.051.026-.051.026-.077.077-.128.1-.153.128-.307.281-.46.435-.077.077-.153.179-.23.256a1.091,1.091,0,0,1-.128.179,6.14,6.14,0,0,0-.333.537,1.371,1.371,0,0,0-.128.281l-.051.1c.026-.051-.026.077-.026.1a4.651,4.651,0,0,0-.2.639c0,.1-.051.2-.051.307a.567.567,0,0,1-.026.23.65.65,0,0,1-.639.64.618.618,0,0,1-.64-.64,5.9,5.9,0,0,1,3.275-4.809.654.654,0,1,1,.665,1.126h0Z" transform="translate(-443 -253.181)" fill="#84211f"/>
      <path id="Trazado_722751" data-name="Trazado 722751" d="M515.967,277.108c.2,2.046.384,4.093.588,6.14.179,1.842.307,3.709,1.535,5.193,1.049,1.253,2.4,2.174,3.351,3.53a8.256,8.256,0,0,1,1.484,4.426,8.672,8.672,0,0,1-1.253,5.04c-.435.716-1.56.051-1.126-.64a7.444,7.444,0,0,0-.486-8.468c-1-1.2-2.3-2.123-3.249-3.4a9.225,9.225,0,0,1-1.484-4.912c-.23-2.3-.435-4.579-.64-6.882-.077-.819,1.2-.819,1.3,0h0Z" transform="translate(-356.285 -247.353)" fill="#84211f"/>
      <path id="Trazado_722752" data-name="Trazado 722752" d="M530.109,269.627s-.128-.051-.179-.077c-.077-.026-.179-.051-.256-.077-.1,0-.2-.051-.281-.051h-.742a1.5,1.5,0,0,0-.486.051,3.392,3.392,0,0,0-1.842,1.023.651.651,0,0,1-.921-.921,4.825,4.825,0,0,1,5.4-1.049.679.679,0,0,1,.23.9.661.661,0,0,1-.9.23h0Z" transform="translate(-391.405 -260.439)" fill="#84211f"/>
      <path id="Trazado_722753" data-name="Trazado 722753" d="M523.719,289.894a30.337,30.337,0,0,0-4.912,7.009c-.384.742-1.484.077-1.126-.665a30.8,30.8,0,0,1,5.116-7.265c.563-.614,1.484.307.921.921h0Z" transform="translate(-364.728 -228.264)" fill="#7f4924"/>
      <path id="Trazado_722754" data-name="Trazado 722754" d="M520.262,292.494c-.768-.23-1.509-.435-2.277-.665a.662.662,0,0,1-.46-.793.65.65,0,0,1,.793-.46c.767.23,1.509.435,2.277.665a.662.662,0,0,1,.461.793.65.65,0,0,1-.793.46Z" transform="translate(-361.629 -225.491)" fill="#7f4924"/>
      <path id="Trazado_722755" data-name="Trazado 722755" d="M525.59,300.35l24.61,1.433-24.354,5.833Z" transform="translate(-411.444 -210.222)" fill="#7f4924" opacity="0.58"/>
      <path id="Trazado_722756" data-name="Trazado 722756" d="M543.965,285.735a11.9,11.9,0,0,1-10.872,8.544c.179-.333.384-.64.563-.972a53.053,53.053,0,0,0,2.763,4.656c.46.691-.665,1.33-1.126.64a53.07,53.07,0,0,1-2.763-4.656.655.655,0,0,1,.563-.972,10.588,10.588,0,0,0,9.644-7.6c.23-.793,1.484-.46,1.253.333h0Z" transform="translate(-422.81 -234.26)" fill="#7f4924"/>
      <path id="Trazado_722757" data-name="Trazado 722757" d="M540.734,291.1a5.876,5.876,0,0,1-8.289,2.891.654.654,0,0,1,.665-1.126,4.587,4.587,0,0,0,6.4-2.123.662.662,0,0,1,.793-.46.65.65,0,0,1,.461.793h0Z" transform="translate(-418.785 -225.943)" fill="#7f4924"/>
      <path id="Trazado_722758" data-name="Trazado 722758" d="M535.494,290.559c-.716-1.714-2.3-3.428-4.272-3.581a3.508,3.508,0,0,0-3.76,2.763.668.668,0,0,1-.64.64c-.333,0-.691-.307-.64-.64a4.751,4.751,0,0,1,4.937-4.067c2.635.1,4.682,2.226,5.654,4.528a.648.648,0,1,1-1.253.333h0Z" transform="translate(-399.552 -233.098)"/>
      <path id="Trazado_722759" data-name="Trazado 722759" d="M545.834,290.309c-.716-1.714-2.3-3.428-4.272-3.581a3.508,3.508,0,0,0-3.76,2.763.667.667,0,0,1-.64.64c-.333,0-.691-.307-.639-.64a4.75,4.75,0,0,1,4.937-4.068c2.66.1,4.681,2.226,5.654,4.528a.648.648,0,0,1-1.254.333h0Z" transform="translate(-436.344 -233.488)"/>
      <path id="Trazado_722760" data-name="Trazado 722760" d="M527.143,285.78c1.74.46,2.481,2.737,1.919,4.477a8.344,8.344,0,0,1-3.53,3.991,17.923,17.923,0,0,0-4.221,3.351,7.071,7.071,0,0,0-1.254,6.037,6.944,6.944,0,0,0,4.016,4.63c-1.714-.767-2.251-3.147-1.56-4.912a8.758,8.758,0,0,1,3.888-3.991,24.255,24.255,0,0,0,4.707-3.121,8.913,8.913,0,0,0,1.1-10.923l-5.04.46Z" transform="translate(-380.125 -233.641)" fill="#c23f37"/>
      <path id="Trazado_722761" data-name="Trazado 722761" d="M547.4,281.871c.077,1.867-.23,4.272-2,4.707a5.792,5.792,0,0,1-2.456-.281c-2.046-.358-4.093.435-6.012,1.2a14.2,14.2,0,0,1,4.426-4.63,7.128,7.128,0,0,1,6.165-.742l-.1-.281Z" transform="translate(-437.81 -239.248)" fill="#84211f"/>
      <path id="Trazado_722762" data-name="Trazado 722762" d="M526.168,282.041c-.077,1.867.23,4.272,2,4.707a5.79,5.79,0,0,0,2.456-.281c2.047-.358,4.093.435,6.012,1.2a14.2,14.2,0,0,0-4.426-4.63,7.128,7.128,0,0,0-6.165-.742l.1-.281Z" transform="translate(-399.026 -238.983)" fill="#84211f"/>
      <path id="Trazado_722763" data-name="Trazado 722763" d="M564.483,316.766a86.566,86.566,0,0,0-10.412,21.156,89.766,89.766,0,0,0-4.477,23.228,86.833,86.833,0,0,0,.281,13.4c.077.819-1.2.819-1.3,0a89.805,89.805,0,0,1,.946-24,91.4,91.4,0,0,1,7.188-22.768,87.552,87.552,0,0,1,6.626-11.691c.461-.691,1.586-.051,1.126.64h0Z" transform="translate(-483.568 -186.142)" fill="#5e340e"/>
      <path id="Trazado_722764" data-name="Trazado 722764" d="M557.511,312.918a18.042,18.042,0,0,1-6.7,4.835,20.071,20.071,0,0,1-8.851,1.381,56.547,56.547,0,0,1-9.44-1.458c-1.535-.333-3.1-.665-4.63-1.1a8.806,8.806,0,0,1-3.633-1.791A11.218,11.218,0,0,1,522,312.023c-.537-.921-.972-2.2-.281-3.172.486-.665,1.612-.026,1.125.64-.486.691.128,1.637.486,2.226a11.074,11.074,0,0,0,1.816,2.123,8.276,8.276,0,0,0,3.4,1.56c1.356.358,2.712.665,4.093.947,5.526,1.2,11.512,2.4,17.012.409a16.882,16.882,0,0,0,6.933-4.835c.537-.64,1.458.281.921.921h0Z" transform="translate(-408.114 -197.413)" fill="#5e340e"/>
      <path id="Trazado_722765" data-name="Trazado 722765" d="M521.642,310.617c.87,1.1,1.74,2.2,2.609,3.274a.651.651,0,0,1-.921.921l-2.609-3.3a.651.651,0,0,1,.921-.921h0Z" transform="translate(-372.756 -194.549)" fill="#5e340e"/>
      <path id="Trazado_722766" data-name="Trazado 722766" d="M523.039,311.624l2.532,3.991a.654.654,0,0,1-1.126.665l-2.532-3.991a.654.654,0,1,1,1.126-.665Z" transform="translate(-377.274 -193.151)" fill="#5e340e"/>
      <path id="Trazado_722767" data-name="Trazado 722767" d="M524.776,312.421c.588,1.2,1.151,2.379,1.739,3.581a.654.654,0,1,1-1.126.665c-.588-1.2-1.151-2.379-1.739-3.581a.654.654,0,0,1,1.126-.665Z" transform="translate(-382.669 -191.901)" fill="#5e340e"/>
      <path id="Trazado_722768" data-name="Trazado 722768" d="M526.514,312.831c.537,1.433,1.1,2.865,1.637,4.272a.642.642,0,0,1-.46.793.662.662,0,0,1-.793-.46c-.537-1.433-1.1-2.865-1.637-4.272a.641.641,0,0,1,.46-.793.662.662,0,0,1,.793.46Z" transform="translate(-388.5 -191.519)" fill="#5e340e"/>
      <path id="Trazado_722769" data-name="Trazado 722769" d="M528.892,312.951l.409,2.635a.643.643,0,0,1-.077.486.767.767,0,0,1-.384.307.65.65,0,0,1-.793-.46l-.409-2.635a.643.643,0,0,1,.077-.486.767.767,0,0,1,.384-.307.65.65,0,0,1,.793.46Z" transform="translate(-395.764 -191.332)" fill="#5e340e"/>
      <path id="Trazado_722770" data-name="Trazado 722770" d="M531.2,312.73V315.7a.65.65,0,0,1-.64.64.633.633,0,0,1-.639-.64V312.73a.65.65,0,0,1,.639-.639.633.633,0,0,1,.64.639Z" transform="translate(-403.52 -191.93)" fill="#5e340e"/>
      <path id="Trazado_722771" data-name="Trazado 722771" d="M533.9,312.518c-.2,1.2-.435,2.43-.64,3.633a.65.65,0,0,1-.793.46.685.685,0,0,1-.461-.793c.2-1.2.435-2.43.64-3.633a.65.65,0,0,1,.793-.46.685.685,0,0,1,.461.793Z" transform="translate(-411.541 -192.536)" fill="#5e340e"/>
      <path id="Trazado_722772" data-name="Trazado 722772" d="M536.28,312.162a2.744,2.744,0,0,0-.281.281c-.051.051-.077.1-.128.153a3.39,3.39,0,0,0-.435.767c-.051.128-.077.179-.1.256a2.126,2.126,0,0,0-.1.384.476.476,0,0,1-.051.179,1.833,1.833,0,0,0-.051.486.64.64,0,0,1-1.279,0,4.983,4.983,0,0,1,1.509-3.428.651.651,0,0,1,.921.921h0Z" transform="translate(-418.834 -193.536)" fill="#5e340e"/>
      <path id="Trazado_722773" data-name="Trazado 722773" d="M539.3,310.732a10.837,10.837,0,0,1-3.479,2.2.642.642,0,0,1-.793-.46.65.65,0,0,1,.461-.793c.077-.026.128-.051.2-.077h0a4.681,4.681,0,0,0,.512-.256,4.922,4.922,0,0,0,.793-.46c.128-.077.256-.154.358-.23.077-.051.128-.1.2-.153a8.227,8.227,0,0,0,.819-.691.651.651,0,0,1,.921.921h0Z" transform="translate(-424.82 -195.764)" fill="#5e340e"/>
      <path id="Trazado_722774" data-name="Trazado 722774" d="M597.242,358.7A24.278,24.278,0,0,0,588.8,344.22a21.5,21.5,0,0,0-15.272-4.835,20.294,20.294,0,0,0-9.03,3.044c-.716.435-1.356-.665-.64-1.126a21.7,21.7,0,0,1,17.268-2.507,24.167,24.167,0,0,1,13.609,10.1,25.677,25.677,0,0,1,3.76,9.44c.153.819-1.1,1.151-1.254.333h0Z" transform="translate(-556.848 -151.535)" fill="#5e340e"/>
      <path id="Trazado_722775" data-name="Trazado 722775" d="M526.841,343.675A44.734,44.734,0,0,1,501,350.1a44.128,44.128,0,0,1-7.521-1.126c-.819-.2-.46-1.433.333-1.253a43.436,43.436,0,0,0,25.684-1.842,40.622,40.622,0,0,0,6.677-3.326c.716-.435,1.356.691.639,1.126h0Z" transform="translate(-305.047 -144.62)" fill="#5e340e"/>
      <path id="Trazado_722776" data-name="Trazado 722776" d="M507.538,343.03a234.777,234.777,0,0,0,1.049,31.159c.307,2.967.665,5.935,1.075,8.877a.648.648,0,0,1-1.254.333,235.752,235.752,0,0,1-2.3-31.465c0-2.968.026-5.935.128-8.9.026-.819,1.33-.844,1.3,0Z" transform="translate(-321.073 -144.691)" fill="#5e340e"/>
      <path id="Trazado_722777" data-name="Trazado 722777" d="M510.347,353.513c-.742,2.1-1.458,4.2-2.2,6.293a.648.648,0,0,1-1.254-.333c.742-2.1,1.458-4.2,2.2-6.293a.672.672,0,0,1,.793-.46.65.65,0,0,1,.46.793Z" transform="translate(-323.728 -128.646)" fill="#5e340e"/>
      <path id="Trazado_722778" data-name="Trazado 722778" d="M492.13,341.068c.819,3.556,2.712,6.7,3.965,10.079a50.135,50.135,0,0,1,2.43,10.77c.281,2.1.46,4.221.665,6.344.077.819-1.228.819-1.3,0a99.047,99.047,0,0,0-1.432-10.975,41.772,41.772,0,0,0-1.407-5.244c-.588-1.688-1.356-3.326-2.1-4.963a32.1,32.1,0,0,1-2.072-5.679.649.649,0,0,1,1.253-.333Z" transform="translate(-271.59 -147.513)" fill="#5e340e"/>
      <path id="Trazado_722779" data-name="Trazado 722779" d="M508.985,398.365A203.91,203.91,0,0,0,512,368.587c.358-10.028.154-20.082-.256-30.11-.23-5.628-.512-11.256-.793-16.884-.051-.819,1.254-.819,1.3,0,.512,10.079,1.023,20.133,1.177,30.212a289.02,289.02,0,0,1-.947,30.135c-.512,5.6-1.253,11.2-2.251,16.756-.154.819-1.407.46-1.254-.333h0Z" transform="translate(-332.215 -178.077)" fill="#5e340e"/>
      <path id="Trazado_722780" data-name="Trazado 722780" d="M511.5,322.989c-.665,1.407-1.356,2.839-2.021,4.247a.654.654,0,0,1-1.126-.665c.665-1.407,1.356-2.84,2.021-4.247a.654.654,0,1,1,1.126.665Z" transform="translate(-328.51 -176.479)" fill="#5e340e"/>
      <path id="Trazado_722781" data-name="Trazado 722781" d="M550.842,316.479c.256,2.2.512,4.4.767,6.575.051.358-.332.64-.639.64a.65.65,0,0,1-.64-.64c-.256-2.2-.512-4.4-.767-6.575-.051-.358.333-.64.639-.64a.65.65,0,0,1,.64.64Z" transform="translate(-474.173 -186.086)" fill="#5e340e"/>
      <path id="Trazado_722782" data-name="Trazado 722782" d="M579.041,365.092q-10.591-5.372-21.361-10.309-10.744-4.912-21.719-9.389c-4.119-1.688-8.263-3.3-12.433-4.886-.767-.281-.435-1.535.333-1.253q11.128,4.221,22.051,8.9t21.693,9.849c4.042,1.944,8.084,3.94,12.074,5.96.742.384.077,1.484-.64,1.126Z" transform="translate(-434.861 -149.665)" fill="#5e340e"/>
      <path id="Trazado_722783" data-name="Trazado 722783" d="M569.829,363.753q-16.769-8.327-34.024-15.554c-3.274-1.356-6.549-2.712-9.849-4.016-.767-.307-.435-1.56.333-1.253q17.536,6.945,34.586,15.042c3.2,1.509,6.4,3.07,9.568,4.656.742.358.1,1.484-.64,1.126h0Z" transform="translate(-431.841 -143.951)" fill="#5e340e"/>
      <path id="Trazado_722784" data-name="Trazado 722784" d="M527.267,370.16a12.332,12.332,0,0,0-2.021,5.193.65.65,0,0,1-.793.46.685.685,0,0,1-.46-.793,12.981,12.981,0,0,1,2.149-5.5.686.686,0,0,1,.9-.23.661.661,0,0,1,.23.9h0Z" transform="translate(-384.495 -102.93)" fill="#5e340e"/>
      <path id="Trazado_722785" data-name="Trazado 722785" d="M527.309,370.418c-.2,1.2-.435,2.43-.639,3.633a.65.65,0,0,1-.793.46.685.685,0,0,1-.461-.793c.2-1.2.435-2.43.64-3.633a.65.65,0,0,1,.793-.46.685.685,0,0,1,.46.793Z" transform="translate(-388.093 -102.318)" fill="#5e340e"/>
      <path id="Trazado_722786" data-name="Trazado 722786" d="M545.117,367.94a2.3,2.3,0,0,0-.2.716c0,.051-.077.256,0,.077v.716a.506.506,0,0,0,.026.23.6.6,0,0,0,.051.2,1.667,1.667,0,0,0,.1.333c0,.026.077.23.026.077a.541.541,0,0,0,.077.179.654.654,0,0,1-1.126.665,4.3,4.3,0,0,1-.179-3.5.74.74,0,0,1,.307-.384.644.644,0,0,1,.486-.077.662.662,0,0,1,.461.793h0Z" transform="translate(-452.588 -106.133)" fill="#5e340e"/>
      <path id="Trazado_722787" data-name="Trazado 722787" d="M546.539,367.8c.051.665.077,1.3.128,1.97a.64.64,0,1,1-1.279,0c-.051-.665-.077-1.3-.128-1.97a.64.64,0,0,1,1.279,0Z" transform="translate(-458.23 -106.122)" fill="#5e340e"/>
      <path id="Trazado_722788" data-name="Trazado 722788" d="M536.226,370.2a4.528,4.528,0,0,0-.358.588v.051c0,.051-.026.077-.051.128-.026.1-.077.23-.1.333s-.051.23-.077.333h0v.179a6.22,6.22,0,0,0,.026.691.736.736,0,0,1-.179.46.681.681,0,0,1-.921,0,.735.735,0,0,1-.179-.46,4.364,4.364,0,0,1,.742-2.967.766.766,0,0,1,.384-.307.644.644,0,0,1,.486.077.661.661,0,0,1,.23.9Z" transform="translate(-419.982 -102.923)" fill="#5e340e"/>
      <path id="Trazado_722789" data-name="Trazado 722789" d="M537.538,370.443l-.1.1a1.716,1.716,0,0,0-.179.281c-.051.077-.1.179-.153.256a1.247,1.247,0,0,1-.077.179c-.026.1-.051.2-.077.281a.324.324,0,0,1-.026.153c0,.026-.026.2,0,.077s0,.051,0,.077v.486a.64.64,0,1,1-1.279,0,3.8,3.8,0,0,1,1.023-2.84.651.651,0,0,1,.921.921h0Z" transform="translate(-424.722 -102.778)" fill="#5e340e"/>
      <path id="Trazado_722790" data-name="Trazado 722790" d="M520.937,371.21c-.435.563-.87,1.1-1.3,1.637a.617.617,0,0,1-.461.179.735.735,0,0,1-.46-.179.617.617,0,0,1-.179-.46v-.179a1.486,1.486,0,0,1,.179-.281c.435-.537.87-1.1,1.3-1.637a.616.616,0,0,1,.46-.179.735.735,0,0,1,.461.179.616.616,0,0,1,.179.46v.179a1.488,1.488,0,0,1-.179.281Z" transform="translate(-364.3 -101.524)" fill="#5e340e"/>
      <path id="Trazado_722791" data-name="Trazado 722791" d="M506.516,306.79c-.051.9,1.023,1.509,1.688,1.944a15.172,15.172,0,0,0,2.481,1.279c1.688.742,3.479,1.3,5.168,2.021a15.361,15.361,0,0,1,7.8,6.907,14.758,14.758,0,0,1,1.688,5.679c.077.819-1.2.819-1.3,0a13.715,13.715,0,0,0-4.733-9.03c-2.84-2.43-6.626-3.172-9.926-4.733a14.576,14.576,0,0,1-2.712-1.612,3.01,3.01,0,0,1-1.458-2.456c.051-.819,1.33-.844,1.3,0h0Z" transform="translate(-334.453 -201.159)" fill="#7f4924"/>
      <path id="Trazado_722792" data-name="Trazado 722792" d="M513.813,305.5c-1.842,2.226-4.5,3.453-6.907,4.937a13.148,13.148,0,0,0-3.147,2.558,8.875,8.875,0,0,0-1.765,4.4,38.238,38.238,0,0,1-.946,5.935c-.256.793-1.509.46-1.254-.333,1.074-3.326.384-7.163,2.481-10.156,1.663-2.43,4.4-3.709,6.856-5.193a13.954,13.954,0,0,0,3.76-3.044c.537-.639,1.433.281.921.921h0Z" transform="translate(-309.134 -203.934)" fill="#7f4924"/>
      <path id="Trazado_722793" data-name="Trazado 722793" d="M509.325,292.411c-4.016,6.319-4.937,14.1-6.268,21.31-.409,2.3-.844,4.63-1.279,6.933-.153.819-1.407.46-1.253-.333l2.226-12.2a64.741,64.741,0,0,1,2.712-10.8,29.356,29.356,0,0,1,2.712-5.551c.435-.691,1.56-.051,1.126.64h0Z" transform="translate(-306.487 -224.052)" fill="#7f4924"/>
      <path id="Trazado_722794" data-name="Trazado 722794" d="M518.153,306.612a171.037,171.037,0,0,0-17.651-2.046c-.819-.051-.844-1.356,0-1.3a177.224,177.224,0,0,1,18.01,2.1c.819.128.46,1.381-.333,1.253h0Z" transform="translate(-314.446 -205.689)" fill="#7f4924"/>
      <path id="Trazado_722795" data-name="Trazado 722795" d="M524.823,286.042a65.561,65.561,0,0,0-5.909-18.009c.333.051.665.077,1.023.128a6.233,6.233,0,0,0-1.535,5.167,12.914,12.914,0,0,0,2.533,5.782c1.3,1.893,2.763,3.658,4.016,5.6a53.924,53.924,0,0,1,3.377,6.063,54.876,54.876,0,0,1,2.584,6.523,19.267,19.267,0,0,1,1.253,7.086,3.66,3.66,0,0,1-.946,2.686,1.8,1.8,0,0,1-2.533-.435c-1.484-1.663-2.072-3.94-2.558-6.063a73.126,73.126,0,0,1-1.74-17.165c.435.051.844.1,1.279.179a70.053,70.053,0,0,1-9.951,20.184c-.486.665-1.612.026-1.126-.639a68.658,68.658,0,0,0,9.823-19.877.654.654,0,0,1,1.279.179,72.531,72.531,0,0,0,1.253,14.684,22.986,22.986,0,0,0,1.816,6.37c.23.435,1.2,2.277,1.791,1.433a5.269,5.269,0,0,0,.333-3.019,25.533,25.533,0,0,0-1.688-6.7,51.666,51.666,0,0,0-6.088-11.921c-1.228-1.791-2.609-3.428-3.786-5.244a12.8,12.8,0,0,1-2.251-6.14,7.339,7.339,0,0,1,1.944-5.628.655.655,0,0,1,1.023.128,66.291,66.291,0,0,1,6.037,18.342c.154.819-1.1,1.151-1.253.333h0Z" transform="translate(-364.988 -262.068)" fill="#6da8c6"/>
      <path id="Trazado_722796" data-name="Trazado 722796" d="M528.083,275.645a30.6,30.6,0,0,1-9.9,3.863c-.819.153-1.151-1.074-.333-1.253a30.087,30.087,0,0,0,9.593-3.735c.716-.435,1.356.691.64,1.126h0Z" transform="translate(-368.631 -250.623)" fill="#6da8c6"/>
      <path id="Trazado_722797" data-name="Trazado 722797" d="M549.439,285.746c1.816-2.891,3.812-5.7,5.347-8.749a14.646,14.646,0,0,0,1.56-4.451,9.032,9.032,0,0,0,.051-2.2c-.026-.281-.256-1.765-.588-1.714-.179.026-.435.64-.512.767-.154.256-.307.537-.461.793-.332.588-.614,1.177-.9,1.791a31.017,31.017,0,0,0-1.356,3.633c-.793,2.533-1.356,5.116-1.893,7.7-1.049,4.988-2.021,10.156-4.579,14.658a21.978,21.978,0,0,1-2.174,3.121,4.839,4.839,0,0,1-3.07,1.97c-1.433.128-2.2-1.1-2.226-2.4a8.584,8.584,0,0,1,1.254-4.374,36.789,36.789,0,0,1,6.4-8.186,26.274,26.274,0,0,1,3.914-3.428c.435-.307.767-.128,1.253.026s.947.307,1.433.486c.946.307,1.893.64,2.865.947.793.256.461,1.509-.333,1.253-1.637-.537-3.275-1.1-4.912-1.637.2-.051.409-.1.639-.153a42.734,42.734,0,0,0-6.319,6.037,41.135,41.135,0,0,0-2.712,3.581,13.236,13.236,0,0,0-1.944,3.837c-.23.844-.614,3.172.947,2.686a5.555,5.555,0,0,0,2.507-2.226,23.8,23.8,0,0,0,3.274-6.293c1.663-4.656,2.354-9.593,3.5-14.4a42.294,42.294,0,0,1,2.277-7.009,22.911,22.911,0,0,1,1.637-3.147c.307-.486.614-1.049,1.2-1.228a1.464,1.464,0,0,1,1.56.64c.87,1.177.844,3.121.665,4.5a14.706,14.706,0,0,1-1.484,4.6,43.279,43.279,0,0,1-2.532,4.374c-1.023,1.637-2.047,3.249-3.07,4.886-.435.691-1.56.051-1.126-.665h0Z" transform="translate(-452.484 -261.593)" fill="#6da8c6"/>
      <path id="Trazado_722798" data-name="Trazado 722798" d="M541.065,274.615l3.837,6.293c.435.716-.691,1.356-1.126.665l-3.837-6.293c-.435-.716.691-1.356,1.126-.64h0Z" transform="translate(-442.703 -250.769)" fill="#6da8c6"/>
      <path id="Trazado_722799" data-name="Trazado 722799" d="M539.022,291.449h-.333a.615.615,0,0,1-.256-.051.536.536,0,0,1-.333-.332.42.42,0,0,1-.051-.256v-.179a.611.611,0,0,1,.153-.281c.051-.026.077-.077.128-.1a.709.709,0,0,1,.333-.077H539a.614.614,0,0,1,.256.051.536.536,0,0,1,.333.332.421.421,0,0,1,.051.256v.179a1.49,1.49,0,0,1-.179.281c-.051.026-.077.077-.128.1a.709.709,0,0,1-.332.077h0Z" transform="translate(-432.755 -226.084)" fill="#c23f37"/>
      <path id="Trazado_722800" data-name="Trazado 722800" d="M541.752,289.72a3.814,3.814,0,0,1-.333.333.558.558,0,0,1-.2.128.421.421,0,0,1-.256.051.461.461,0,0,1-.256-.051.56.56,0,0,1-.2-.128c-.026-.051-.077-.077-.1-.128a.708.708,0,0,1-.077-.333v-.179a1.489,1.489,0,0,1,.179-.281,4.074,4.074,0,0,1,.333-.333.556.556,0,0,1,.2-.128.42.42,0,0,1,.256-.051.461.461,0,0,1,.256.051.559.559,0,0,1,.2.128c.026.051.077.077.1.128a.707.707,0,0,1,.077.333v.179a.611.611,0,0,1-.154.281h0Z" transform="translate(-440.858 -228.499)" fill="#c23f37"/>
      <path id="Trazado_722801" data-name="Trazado 722801" d="M526.705,290.43h.2a.614.614,0,0,1,.256.051.537.537,0,0,1,.333.332.421.421,0,0,1,.051.256v.179a1.484,1.484,0,0,1-.179.281c-.051.026-.077.077-.128.1a.709.709,0,0,1-.333.077h-.2a.616.616,0,0,1-.256-.051.536.536,0,0,1-.332-.333.42.42,0,0,1-.051-.256v-.179a.61.61,0,0,1,.154-.281c.051-.026.077-.077.128-.1a.708.708,0,0,1,.333-.077h.2a.614.614,0,0,1,.256.051.537.537,0,0,1,.333.332.42.42,0,0,1,.051.256v.179a1.486,1.486,0,0,1-.179.281c-.051.026-.077.077-.128.1a.709.709,0,0,1-.333.077h-.2a.615.615,0,0,1-.256-.051.537.537,0,0,1-.333-.333.42.42,0,0,1-.051-.256v-.179a.611.611,0,0,1,.154-.281c.051-.026.077-.077.128-.1a.709.709,0,0,1,.333-.077h0Z" transform="translate(-389.945 -225.679)" fill="#c23f37"/>
      <path id="Trazado_722802" data-name="Trazado 722802" d="M529.55,290.242v-.333a.614.614,0,0,1,.051-.256.536.536,0,0,1,.333-.332.42.42,0,0,1,.256-.051h.179a.486.486,0,0,1,.281.179c.026.051.077.077.1.128a.707.707,0,0,1,.077.333v.333a.614.614,0,0,1-.051.256.536.536,0,0,1-.333.332.421.421,0,0,1-.256.051h-.179a1.492,1.492,0,0,1-.281-.179c-.026-.051-.077-.077-.1-.128a.707.707,0,0,1-.077-.333Z" transform="translate(-402.204 -227.486)" fill="#c23f37"/>
      <path id="Trazado_722803" data-name="Trazado 722803" d="M529.549,292.6v.333a.613.613,0,0,1-.051.256.536.536,0,0,1-.333.333.421.421,0,0,1-.256.051h-.179a.608.608,0,0,1-.281-.153c-.026-.051-.077-.077-.1-.128a.707.707,0,0,1-.077-.333v-.333a.615.615,0,0,1,.051-.256.537.537,0,0,1,.333-.332.421.421,0,0,1,.256-.051h.179a1.487,1.487,0,0,1,.281.179c.026.051.077.077.1.128a.708.708,0,0,1,.077.333h0Z" transform="translate(-397.649 -223.248)" fill="#c23f37"/>
      <path id="Trazado_722804" data-name="Trazado 722804" d="M587.811,514.114a10.4,10.4,0,0,1-10.309-10c-1.2-25.223-2.1-56.049-2.021-61.933-.793,12.765-1.458,39.575-2.072,61.729a10.412,10.412,0,0,1-10.335,10.207H519.866a10.392,10.392,0,0,1-10.31-10.13c-.281-7.93-.563-17.6-.819-21.668a198.72,198.72,0,0,1,14.94-90.073l9.747-24.3c22.972,1.535,38.756,10.054,61.729,11.589,12.433.844,24.072,2.533,35.379-2.788.537,16.244,18.342,63.877,18.623,80.1.077,4.426-1.074,28.345-2.507,47.556a10.408,10.408,0,0,1-10.31,9.721Z" transform="translate(-466.144 -104.905)" fill="#6da8c6"/>
      <path id="Trazado_722805" data-name="Trazado 722805" d="M582.665,358.275c7.188,25.172,8.57,60.168,15.758,85.34,1.663,5.782,14.863-.256,18.828,4.2,2.507,2.814,13.712,14.684,14.786,16.7.767,1.458-3.172,3.044-4.6,2.226-4.477-2.533-13.865-7.24-18.009-10.309l-14.735,24.175C580.7,460.525,553.911,378.357,548.9,362.778c-1.893-5.884-4.63-11.819-.409-16.244a25.068,25.068,0,0,1,8.7-5.091c7.086-2.123,15.784-2.328,20.8,3.2l4.656,13.635Z" transform="translate(-546.262 -148.348)" fill="#f6a472"/>
      <path id="Trazado_722806" data-name="Trazado 722806" d="M572.22,386.305Q566,396.781,559.762,407.283c-1.2,2-2.379,4.016-3.582,6.012a.654.654,0,0,1-1.126-.665q6.216-10.476,12.458-20.977c1.2-2,2.379-4.016,3.556-6.012a.654.654,0,0,1,1.125.665h0Z" transform="translate(-508.674 -77.812)" fill="#1b4b5e"/>
      <path id="Trazado_722807" data-name="Trazado 722807" d="M511.769,381.051a136.13,136.13,0,0,0,18.214,21.77c1.919,1.842,3.888,3.658,5.909,5.4.64.537-.281,1.458-.921.921a137.245,137.245,0,0,1-19.6-20.824c-1.637-2.149-3.223-4.349-4.733-6.6-.461-.691.665-1.33,1.126-.665h0Z" transform="translate(-358.841 -84.913)" fill="#1b4b5e"/>
      <path id="Trazado_722808" data-name="Trazado 722808" d="M545.716,371.76c-.281,2.635-.563,5.27-.844,7.93a.65.65,0,0,1-.64.64c-.332,0-.691-.307-.639-.64l.844-7.93a.65.65,0,0,1,.64-.639c.333,0,.691.307.64.639Z" transform="translate(-453.008 -99.95)" fill="#1b4b5e"/>
      <path id="Trazado_722809" data-name="Trazado 722809" d="M546.551,370.868a31.138,31.138,0,0,1,.563,10.77c-.1.819-1.407.819-1.3,0A29.853,29.853,0,0,0,545.3,371.2a.649.649,0,0,1,1.253-.333h0Z" transform="translate(-458.959 -101.079)" fill="#1b4b5e"/>
      <path id="Trazado_722810" data-name="Trazado 722810" d="M524.674,374.846v7.9a.653.653,0,0,1-1.3,0v-7.9a.653.653,0,0,1,1.3,0Z" transform="translate(-380.24 -95.132)" fill="#1b4b5e"/>
      <path id="Trazado_722811" data-name="Trazado 722811" d="M526.365,374.5v10.565a.653.653,0,0,1-1.3,0V374.5a.653.653,0,0,1,1.3,0Z" transform="translate(-386.253 -95.677)" fill="#1b4b5e"/>
      <path id="Trazado_722812" data-name="Trazado 722812" d="M604.426,385.108a.253.253,0,0,1-.154-.051c-.1-.026.154,0-.026,0h-.691c-.077,0-.384.051-.154,0-.2.026-.435.077-.64.1-1.228.23-2.43.512-3.658.767a95.344,95.344,0,0,1-12.279,1.791,90.964,90.964,0,0,1-18.649-.614,114.248,114.248,0,0,1-11.665-2.226c-4.119-1.023-8.212-2-12.382-2.737-8.314-1.458-16.73-2.3-25.07-3.556-1.023-.153-2.047-.307-3.07-.486-.819-.128-.461-1.381.333-1.253,8.34,1.356,16.756,2.2,25.1,3.53,4.17.665,8.314,1.433,12.407,2.456,3.991,1,7.93,1.97,12,2.609a90.561,90.561,0,0,0,19.34,1.074,86.27,86.27,0,0,0,12.791-1.688c1.33-.281,2.635-.563,3.965-.819a8.765,8.765,0,0,1,2.43-.281,1.449,1.449,0,0,1,.46.077c.793.256.435,1.509-.333,1.254h0Z" transform="translate(-440.754 -91.043)" fill="#1b4b5e"/>
      <path id="Trazado_722813" data-name="Trazado 722813" d="M538.246,380.491a142.826,142.826,0,0,0-2.609,19.775c-.2,3.351-.281,6.7-.256,10.054,0,1.688.051,3.351.128,5.04.026.767.077,1.535.128,2.3a8.33,8.33,0,0,0,.307,2.1,2.814,2.814,0,0,0,1.637,1.56c.767.384,1.56.691,2.354,1.049,1.74.767,3.5,1.535,5.244,2.3-.333.179-.64.384-.972.563q.192-15.119,1.637-30.161c.281-2.814.588-5.654.921-8.468.1-.819,1.381-.819,1.3,0q-1.842,15-2.379,30.11c-.1,2.84-.179,5.679-.2,8.519a.659.659,0,0,1-.972.563c-1.612-.716-3.249-1.433-4.861-2.149l-2.3-1a5.833,5.833,0,0,1-1.816-1.126c-1.074-1.074-1.151-2.635-1.253-4.067-.1-1.688-.179-3.351-.2-5.04a140.019,140.019,0,0,1,1-20.721c.46-3.863,1.1-7.726,1.867-11.563.154-.819,1.407-.46,1.254.333h0Z" transform="translate(-430.904 -86.631)" fill="#1b4b5e"/>
      <path id="Trazado_722814" data-name="Trazado 722814" d="M570.485,405.8q-16.04-2.878-31.747-7.265c-2.942-.819-5.884-1.688-8.826-2.584-.793-.256-.46-1.484.333-1.253q15.579,4.758,31.542,8.109c2.993.614,6.012,1.2,9,1.74.819.153.46,1.381-.333,1.253h0Z" transform="translate(-442.397 -63.257)" fill="#1b4b5e"/>
      <ellipse id="Elipse_7829" data-name="Elipse 7829" cx="4.221" cy="4.298" rx="4.221" ry="4.298" transform="translate(109.337 279.151)" fill="#1b4b5e"/>
      <path id="Trazado_722815" data-name="Trazado 722815" d="M578.627,344.96A6.5,6.5,0,0,0,580.9,350.1a.651.651,0,0,1-.921.921,7.744,7.744,0,0,1-2.66-6.063c.026-.819,1.33-.844,1.3,0h0Z" transform="translate(-574.662 -141.684)" fill="#7f4924"/>
    </g>
  </g>
</svg>
