<svg xmlns="http://www.w3.org/2000/svg" xmlns:xlink="http://www.w3.org/1999/xlink" width="1329" height="550.373" viewBox="0 0 1329 550.373">
  <defs>
    <clipPath id="clip-path">
      <rect id="Rect치ngulo_345161" data-name="Rect치ngulo 345161" width="1329" height="550" transform="translate(136 5264.627)" fill="#636363" opacity="0.25"/>
    </clipPath>
    <linearGradient id="linear-gradient" x1="0.5" x2="0.5" y2="1" gradientUnits="objectBoundingBox">
      <stop offset="0" stop-color="#fff"/>
      <stop offset="1" stop-color="#fff" stop-opacity="0"/>
    </linearGradient>
    <linearGradient id="linear-gradient-2" y1="1" y2="0" xlink:href="#linear-gradient"/>
  </defs>
  <g id="Grupo_1010476" data-name="Grupo 1010476" transform="translate(-44 -5059.627)">
    <rect id="Rect치ngulo_344420" data-name="Rect치ngulo 344420" width="1328" height="550" transform="translate(44 5059.627)" fill="#ffdeb7" opacity="0.15"/>
    <g id="Enmascarar_grupo_1000210" data-name="Enmascarar grupo 1000210" transform="translate(-92 -205)" clip-path="url(#clip-path)">
      <g id="Grupo_990811" data-name="Grupo 990811" transform="translate(63.667 5413.627)" opacity="0.39">
        <g id="Grupo_990789" data-name="Grupo 990789" transform="translate(130.266 41.66)">
          <path id="Trazado_699610" data-name="Trazado 699610" d="M217.717,109.982a2.61,2.61,0,1,1-2.355,2.6,2.485,2.485,0,0,1,2.355-2.6M201,112.581a2.362,2.362,0,1,0,2.353-2.6,2.483,2.483,0,0,0-2.353,2.6m-14.354,0a2.362,2.362,0,1,0,2.35-2.6,2.481,2.481,0,0,0-2.35,2.6M4.7,96.871a2.71,2.71,0,0,0-.782-1.923c-.348,1.47-.689,2.944-.992,4.434A2.562,2.562,0,0,0,4.7,96.871m167.586,15.71a2.363,2.363,0,1,0,2.352-2.6,2.48,2.48,0,0,0-2.352,2.6M2.35,115.177a2.61,2.61,0,0,0,0-5.2,2.188,2.188,0,0,0-1.229.389C.953,111.709.8,113.049.669,114.4a2.235,2.235,0,0,0,1.681.778m69.438-2.6a2.363,2.363,0,1,0,2.35-2.6,2.48,2.48,0,0,0-2.35,2.6m43.073,0a2.364,2.364,0,1,0,2.35-2.6,2.48,2.48,0,0,0-2.35,2.6m-14.36,0a2.364,2.364,0,1,0,2.352-2.6,2.482,2.482,0,0,0-2.352,2.6m-14.356,0a2.362,2.362,0,1,0,2.349-2.6,2.482,2.482,0,0,0-2.349,2.6m43.075,0a2.361,2.361,0,1,0,2.348-2.6,2.478,2.478,0,0,0-2.348,2.6M201,96.871a2.363,2.363,0,1,0,2.353-2.6,2.492,2.492,0,0,0-2.353,2.6m-57.427,15.71a2.364,2.364,0,1,0,2.35-2.6,2.48,2.48,0,0,0-2.35,2.6m14.357,0a2.363,2.363,0,1,0,2.356-2.6,2.479,2.479,0,0,0-2.356,2.6m14.357-15.71a2.363,2.363,0,1,0,2.352-2.6,2.489,2.489,0,0,0-2.352,2.6m-43.069,0a2.362,2.362,0,1,0,2.348-2.6,2.486,2.486,0,0,0-2.348,2.6m14.354,0a2.364,2.364,0,1,0,2.35-2.6,2.489,2.489,0,0,0-2.35,2.6m-114.86,0a2.363,2.363,0,1,0,2.348-2.6,2.487,2.487,0,0,0-2.348,2.6m157.932,0a2.363,2.363,0,1,0,2.35-2.6,2.489,2.489,0,0,0-2.35,2.6m28.714,0a2.363,2.363,0,1,0,2.355-2.6,2.493,2.493,0,0,0-2.355,2.6m-57.43,0a2.363,2.363,0,1,0,2.356-2.6,2.487,2.487,0,0,0-2.356,2.6m-100.505,0a2.365,2.365,0,1,0,2.355-2.6,2.492,2.492,0,0,0-2.355,2.6m-14.353,0a2.363,2.363,0,1,0,2.35-2.6,2.489,2.489,0,0,0-2.35,2.6m28.714,0a2.363,2.363,0,1,0,2.35-2.6,2.489,2.489,0,0,0-2.35,2.6m43.073,0a2.364,2.364,0,1,0,2.35-2.6,2.489,2.489,0,0,0-2.35,2.6m-28.716,0a2.362,2.362,0,1,0,2.349-2.6,2.49,2.49,0,0,0-2.349,2.6m14.356,0a2.364,2.364,0,1,0,2.352-2.6,2.491,2.491,0,0,0-2.352,2.6m-86.144,0a2.49,2.49,0,0,0,2.349,2.6,2.616,2.616,0,0,0,0-5.206,2.489,2.489,0,0,0-2.349,2.6m43.07,15.71a2.365,2.365,0,1,0,2.355-2.6,2.483,2.483,0,0,0-2.355,2.6M43.074,128.293a2.363,2.363,0,1,0,2.35-2.6,2.485,2.485,0,0,0-2.35,2.6m-28.717,0a2.485,2.485,0,0,0,2.349,2.6,2.614,2.614,0,0,0,0-5.2,2.486,2.486,0,0,0-2.349,2.6m43.07,0a2.365,2.365,0,1,0,2.355-2.6,2.487,2.487,0,0,0-2.355,2.6M2.35,146.607a2.615,2.615,0,0,0,0-5.2,2.225,2.225,0,0,0-1.681.784c.13,1.353.283,2.687.452,4.025a2.192,2.192,0,0,0,1.229.394m69.438-18.314a2.363,2.363,0,1,0,2.35-2.6,2.484,2.484,0,0,0-2.35,2.6M157.932,144a2.363,2.363,0,1,0,2.356-2.6,2.488,2.488,0,0,0-2.356,2.6m-71.787-15.71a2.362,2.362,0,1,0,2.349-2.6,2.485,2.485,0,0,0-2.349,2.6M143.575,144a2.364,2.364,0,1,0,2.35-2.6,2.489,2.489,0,0,0-2.35,2.6M201,144a2.362,2.362,0,1,0,2.353-2.6A2.492,2.492,0,0,0,201,144m-28.713,0a2.363,2.363,0,1,0,2.352-2.6,2.489,2.489,0,0,0-2.352,2.6m43.073,0a2.363,2.363,0,1,0,2.355-2.6,2.493,2.493,0,0,0-2.355,2.6m-28.714,0a2.362,2.362,0,1,0,2.35-2.6,2.49,2.49,0,0,0-2.35,2.6M28.716,128.293a2.363,2.363,0,1,0,2.348-2.6,2.482,2.482,0,0,0-2.348,2.6M0,128.293a2.484,2.484,0,0,0,2.35,2.6,2.615,2.615,0,0,0,0-5.2,2.484,2.484,0,0,0-2.35,2.6m14.357-15.712a2.482,2.482,0,0,0,2.349,2.6,2.61,2.61,0,0,0,0-5.2,2.486,2.486,0,0,0-2.349,2.6m201.005,15.712a2.363,2.363,0,1,0,2.355-2.6,2.488,2.488,0,0,0-2.355,2.6m-14.36,0a2.362,2.362,0,1,0,2.353-2.6,2.487,2.487,0,0,0-2.353,2.6M28.716,112.581a2.363,2.363,0,1,0,2.348-2.6,2.479,2.479,0,0,0-2.348,2.6m14.358,0a2.363,2.363,0,1,0,2.35-2.6,2.481,2.481,0,0,0-2.35,2.6m86.147,15.712a2.361,2.361,0,1,0,2.348-2.6,2.482,2.482,0,0,0-2.348,2.6m14.354,0a2.364,2.364,0,1,0,2.35-2.6,2.484,2.484,0,0,0-2.35,2.6m-43.074,0a2.364,2.364,0,1,0,2.352-2.6,2.486,2.486,0,0,0-2.352,2.6m86.147,0a2.362,2.362,0,1,0,2.35-2.6,2.485,2.485,0,0,0-2.35,2.6m-71.787,0a2.364,2.364,0,1,0,2.35-2.6,2.484,2.484,0,0,0-2.35,2.6m57.428,0a2.363,2.363,0,1,0,2.352-2.6,2.484,2.484,0,0,0-2.352,2.6m-14.357,0a2.363,2.363,0,1,0,2.356-2.6,2.483,2.483,0,0,0-2.356,2.6M71.788,18.314a2.363,2.363,0,1,0,4.7,0,2.363,2.363,0,1,0-4.7,0m114.86,47.132a2.362,2.362,0,1,0,2.35-2.6,2.477,2.477,0,0,0-2.35,2.6M114.861,34.027a2.364,2.364,0,1,0,2.35-2.6,2.488,2.488,0,0,0-2.35,2.6m-28.716,0a2.362,2.362,0,1,0,2.349-2.6,2.49,2.49,0,0,0-2.349,2.6m14.356,0a2.364,2.364,0,1,0,2.352-2.6,2.49,2.49,0,0,0-2.352,2.6m43.074,0a2.364,2.364,0,1,0,2.35-2.6,2.488,2.488,0,0,0-2.35,2.6m28.714,0a2.363,2.363,0,1,0,2.352-2.6,2.488,2.488,0,0,0-2.352,2.6m19.059,0a2.363,2.363,0,1,0-2.35,2.6,2.485,2.485,0,0,0,2.35-2.6M145.926,5.207a2.411,2.411,0,0,0,2.268-1.95c-1.5-.451-3.014-.881-4.548-1.27a3.025,3.025,0,0,0-.071.618,2.488,2.488,0,0,0,2.35,2.6m71.791,183.326a2.614,2.614,0,0,0,0,5.2,1.991,1.991,0,0,0,.758-.154c.527-.984,1.044-1.979,1.535-2.985a2.422,2.422,0,0,0-2.293-2.063M71.788,34.027a2.363,2.363,0,1,0,2.35-2.6,2.488,2.488,0,0,0-2.35,2.6m86.144,0a2.363,2.363,0,1,0,2.356-2.6,2.487,2.487,0,0,0-2.356,2.6m-114.858,0a2.363,2.363,0,1,0,2.35-2.6,2.489,2.489,0,0,0-2.35,2.6m14.353,0a2.365,2.365,0,1,0,2.355-2.6,2.491,2.491,0,0,0-2.355,2.6m71.794,0a2.362,2.362,0,1,0,2.348-2.6,2.486,2.486,0,0,0-2.348,2.6m43.069-15.713a2.363,2.363,0,1,0,4.7,0,2.363,2.363,0,1,0-4.7,0M100.5,2.605a2.364,2.364,0,1,0,4.7,0,2.364,2.364,0,1,0-4.7,0m57.431,15.709a2.363,2.363,0,1,0,4.7,0,2.363,2.363,0,1,0-4.7,0m-100.505,0a2.365,2.365,0,1,0,4.706,0,2.365,2.365,0,1,0-4.706,0M114.861,2.605a2.364,2.364,0,1,0,4.7,0,2.364,2.364,0,1,0-4.7,0m14.36,0a2.361,2.361,0,1,0,4.7,0,2.362,2.362,0,1,0-4.7,0m-40.726,2.6a2.487,2.487,0,0,0,2.35-2.6,2.356,2.356,0,0,0-.077-.618c-1.529.389-3.035.819-4.537,1.27a2.4,2.4,0,0,0,2.263,1.95M100.5,18.314a2.363,2.363,0,1,0,4.7,0,2.364,2.364,0,1,0-4.7,0m-14.356,0a2.361,2.361,0,1,0,4.7,0,2.362,2.362,0,1,0-4.7,0M129.221,144a2.361,2.361,0,1,0,2.348-2.6,2.487,2.487,0,0,0-2.348,2.6m0-125.689a2.361,2.361,0,1,0,4.7,0,2.361,2.361,0,1,0-4.7,0m14.354,0a2.363,2.363,0,1,0,4.7,0,2.364,2.364,0,1,0-4.7,0m-28.714,0a2.363,2.363,0,1,0,4.7,0,2.364,2.364,0,1,0-4.7,0m100.5,62.85a2.363,2.363,0,1,0,2.355-2.6,2.487,2.487,0,0,0-2.355,2.6m-71.787,0a2.364,2.364,0,1,0,2.35-2.6,2.483,2.483,0,0,0-2.35,2.6m-14.354,0a2.361,2.361,0,1,0,2.348-2.6,2.481,2.481,0,0,0-2.348,2.6m28.711,0a2.363,2.363,0,1,0,2.356-2.6,2.482,2.482,0,0,0-2.356,2.6m14.357,0a2.363,2.363,0,1,0,2.352-2.6,2.483,2.483,0,0,0-2.352,2.6m14.358,0a2.362,2.362,0,1,0,2.35-2.6,2.484,2.484,0,0,0-2.35,2.6m-71.787,0a2.364,2.364,0,1,0,2.35-2.6,2.483,2.483,0,0,0-2.35,2.6m-86.145,0a2.363,2.363,0,1,0,2.348-2.6,2.482,2.482,0,0,0-2.348,2.6m14.358,0a2.363,2.363,0,1,0,2.35-2.6,2.484,2.484,0,0,0-2.35,2.6m14.353,0a2.365,2.365,0,1,0,2.355-2.6,2.486,2.486,0,0,0-2.355,2.6m-43.07,0a2.485,2.485,0,0,0,2.349,2.6,2.611,2.611,0,0,0,0-5.2,2.482,2.482,0,0,0-2.349,2.6m86.144,0a2.364,2.364,0,1,0,2.352-2.6,2.485,2.485,0,0,0-2.352,2.6m-28.713,0a2.363,2.363,0,1,0,2.35-2.6,2.483,2.483,0,0,0-2.35,2.6m14.357,0a2.362,2.362,0,1,0,2.349-2.6,2.485,2.485,0,0,0-2.349,2.6M201,65.446a2.362,2.362,0,1,0,2.353-2.6,2.479,2.479,0,0,0-2.353,2.6m-57.427,0a2.364,2.364,0,1,0,2.35-2.6,2.476,2.476,0,0,0-2.35,2.6m-14.354,0a2.361,2.361,0,1,0,2.348-2.6,2.474,2.474,0,0,0-2.348,2.6M201,81.164a2.362,2.362,0,1,0,2.353-2.6,2.486,2.486,0,0,0-2.353,2.6M100.5,65.446a2.364,2.364,0,1,0,2.352-2.6,2.478,2.478,0,0,0-2.352,2.6m71.788,0a2.363,2.363,0,1,0,2.352-2.6,2.476,2.476,0,0,0-2.352,2.6m-14.357,0a2.363,2.363,0,1,0,2.356-2.6,2.475,2.475,0,0,0-2.356,2.6m-43.071,0a2.364,2.364,0,1,0,2.35-2.6,2.476,2.476,0,0,0-2.35,2.6m-71.787,0a2.363,2.363,0,1,0,2.35-2.6,2.477,2.477,0,0,0-2.35,2.6m-14.358,0a2.363,2.363,0,1,0,2.348-2.6,2.475,2.475,0,0,0-2.348,2.6m43.073,0a2.363,2.363,0,1,0,2.35-2.6,2.476,2.476,0,0,0-2.35,2.6m-14.361,0a2.365,2.365,0,1,0,2.355-2.6,2.479,2.479,0,0,0-2.355,2.6m28.718,0a2.362,2.362,0,1,0,2.349-2.6,2.478,2.478,0,0,0-2.349,2.6m47.774,172.826a2.361,2.361,0,1,0-2.35,2.6,2.485,2.485,0,0,0,2.35-2.6M62.133,49.737a2.365,2.365,0,1,0-2.352,2.6,2.484,2.484,0,0,0,2.352-2.6m169.938,60.245a2.611,2.611,0,0,0,0,5.2,2.241,2.241,0,0,0,1.678-.778c-.129-1.356-.282-2.69-.45-4.028a2.18,2.18,0,0,0-1.228-.389M76.491,49.737a2.363,2.363,0,1,0-2.352,2.6,2.482,2.482,0,0,0,2.352-2.6m14.354,0a2.362,2.362,0,1,0-2.35,2.6,2.481,2.481,0,0,0,2.35-2.6M215.362,65.446a2.48,2.48,0,0,0,2.355,2.6,2.411,2.411,0,0,0,2.293-2.057c-.49-1-1.008-2-1.535-2.985a2.112,2.112,0,0,0-.758-.153,2.489,2.489,0,0,0-2.355,2.6m14.357,31.425a2.566,2.566,0,0,0,1.77,2.511c-.3-1.49-.641-2.964-.991-4.434a2.708,2.708,0,0,0-.779,1.923M47.776,49.737a2.363,2.363,0,1,0-2.352,2.6,2.484,2.484,0,0,0,2.352-2.6m114.858,0a2.363,2.363,0,1,0-2.346,2.6,2.483,2.483,0,0,0,2.346-2.6m14.357,0a2.363,2.363,0,1,0-2.35,2.6,2.484,2.484,0,0,0,2.35-2.6m14.357,0a2.362,2.362,0,1,0-2.35,2.6,2.482,2.482,0,0,0,2.35-2.6m-43.07,0a2.364,2.364,0,1,0-2.353,2.6,2.485,2.485,0,0,0,2.353-2.6m-28.714,0a2.364,2.364,0,1,0-2.353,2.6,2.484,2.484,0,0,0,2.353-2.6m14.354,0a2.361,2.361,0,1,0-2.35,2.6,2.483,2.483,0,0,0,2.35-2.6m-28.714,0a2.364,2.364,0,1,0-2.352,2.6,2.485,2.485,0,0,0,2.352-2.6m-4.7,157.116a2.364,2.364,0,1,0,2.352-2.605,2.49,2.49,0,0,0-2.352,2.605m14.36,0a2.364,2.364,0,1,0,2.35-2.605,2.488,2.488,0,0,0-2.35,2.605m-28.716,0a2.362,2.362,0,1,0,2.349-2.605,2.489,2.489,0,0,0-2.349,2.605m57.43,0a2.364,2.364,0,1,0,2.35-2.605,2.488,2.488,0,0,0-2.35,2.605m-71.787,0a2.363,2.363,0,1,0,2.35-2.605,2.488,2.488,0,0,0-2.35,2.605m57.433,0a2.362,2.362,0,1,0,2.348-2.605,2.485,2.485,0,0,0-2.348,2.605m102.85-81.161a2.615,2.615,0,1,0,2.352,2.6,2.484,2.484,0,0,0-2.352-2.6M57.427,206.853a2.365,2.365,0,1,0,2.355-2.605,2.491,2.491,0,0,0-2.355,2.605m172.292-47.138a2.7,2.7,0,0,0,.779,1.921c.35-1.467.689-2.944.991-4.428a2.55,2.55,0,0,0-1.77,2.507m2.352-18.311a2.615,2.615,0,0,0,0,5.2,2.184,2.184,0,0,0,1.228-.394c.168-1.338.322-2.672.45-4.025a2.231,2.231,0,0,0-1.678-.784M205.7,206.853a2.363,2.363,0,1,0-2.348,2.6,2.482,2.482,0,0,0,2.348-2.6m-176.988,0a2.363,2.363,0,1,0,2.348-2.605,2.486,2.486,0,0,0-2.348,2.605m14.358,0a2.363,2.363,0,1,0,2.35-2.605,2.488,2.488,0,0,0-2.35,2.605m133.918,31.419a2.363,2.363,0,1,0-2.35,2.6,2.486,2.486,0,0,0,2.35-2.6M90.845,222.563a2.362,2.362,0,1,0-2.35,2.6,2.489,2.489,0,0,0,2.35-2.6m14.36,0a2.363,2.363,0,1,0-2.352,2.6,2.493,2.493,0,0,0,2.352-2.6m28.714,0a2.361,2.361,0,1,0-2.35,2.6,2.491,2.491,0,0,0,2.35-2.6m-14.354,0a2.363,2.363,0,1,0-2.353,2.6,2.492,2.492,0,0,0,2.353-2.6m-57.431,0a2.365,2.365,0,1,0-2.352,2.6,2.492,2.492,0,0,0,2.352-2.6m95.8-15.71a2.364,2.364,0,1,0,2.356-2.605,2.486,2.486,0,0,0-2.356,2.605m-81.442,15.71a2.363,2.363,0,1,0-2.352,2.6,2.49,2.49,0,0,0,2.352-2.6m-33.416,0a2.364,2.364,0,1,0,2.35-2.608,2.486,2.486,0,0,0-2.35,2.608m148.275,0a2.362,2.362,0,1,0-2.35,2.6,2.49,2.49,0,0,0,2.35-2.6m-100.5,31.422a2.48,2.48,0,0,0-2.35-2.6,2.4,2.4,0,0,0-2.263,1.941c1.5.453,3.014.889,4.537,1.279a2.372,2.372,0,0,0,.077-.618M114.861,144a2.364,2.364,0,1,0,2.35-2.6,2.489,2.489,0,0,0-2.35,2.6m47.774,78.56a2.363,2.363,0,1,0-2.346,2.6,2.492,2.492,0,0,0,2.346-2.6m-14.356,0a2.363,2.363,0,1,0-2.353,2.6,2.493,2.493,0,0,0,2.353-2.6m-2.353,28.82a2.481,2.481,0,0,0-2.35,2.6,3.05,3.05,0,0,0,.071.618c1.533-.391,3.043-.827,4.548-1.279a2.409,2.409,0,0,0-2.268-1.941m-31.065,2.6a2.364,2.364,0,1,0,2.35-2.6,2.485,2.485,0,0,0-2.35,2.6M205.7,49.737a2.362,2.362,0,1,0-2.348,2.6,2.48,2.48,0,0,0,2.348-2.6M100.5,253.985a2.364,2.364,0,1,0,2.352-2.6,2.487,2.487,0,0,0-2.352,2.6m33.418,0a2.361,2.361,0,1,0-2.35,2.6,2.482,2.482,0,0,0,2.35-2.6m28.716-15.713a2.363,2.363,0,1,0-2.346,2.6,2.485,2.485,0,0,0,2.346-2.6M16.706,68.042a2.61,2.61,0,0,0,0-5.2,2.161,2.161,0,0,0-.765.153q-.78,1.485-1.53,2.985a2.417,2.417,0,0,0,2.3,2.057m12.009-18.3a2.363,2.363,0,1,0,2.348-2.6,2.483,2.483,0,0,0-2.348,2.6m90.849,188.535a2.364,2.364,0,1,0-2.353,2.6,2.486,2.486,0,0,0,2.353-2.6m-43.074,0a2.363,2.363,0,1,0-2.352,2.6,2.484,2.484,0,0,0,2.352-2.6m28.714,0a2.364,2.364,0,1,0-2.352,2.6,2.487,2.487,0,0,0,2.352-2.6m43.074,0a2.364,2.364,0,1,0-2.353,2.6,2.487,2.487,0,0,0,2.353-2.6m-57.434,0a2.362,2.362,0,1,0-2.35,2.6,2.483,2.483,0,0,0,2.35-2.6m-28.711,0a2.365,2.365,0,1,0-2.352,2.6,2.486,2.486,0,0,0,2.352-2.6m114.858-15.709a2.363,2.363,0,1,0-2.35,2.6,2.492,2.492,0,0,0,2.35-2.6m-105.2-62.848a2.363,2.363,0,1,0,2.35-2.6,2.483,2.483,0,0,0-2.35,2.6m14.357,0a2.362,2.362,0,1,0,2.349-2.6,2.484,2.484,0,0,0-2.349,2.6m-28.718,0a2.365,2.365,0,1,0,2.355-2.6,2.486,2.486,0,0,0-2.355,2.6m57.434,0a2.364,2.364,0,1,0,2.35-2.6,2.483,2.483,0,0,0-2.35,2.6m14.36,0a2.362,2.362,0,1,0,2.348-2.6,2.481,2.481,0,0,0-2.348,2.6m-86.147,0a2.363,2.363,0,1,0,2.35-2.6,2.484,2.484,0,0,0-2.35,2.6m57.427,0a2.364,2.364,0,1,0,2.352-2.6,2.485,2.485,0,0,0-2.352,2.6M201,175.425a2.362,2.362,0,1,0,2.353-2.6,2.484,2.484,0,0,0-2.353,2.6M28.716,159.715a2.363,2.363,0,1,0,2.348-2.6,2.482,2.482,0,0,0-2.348,2.6m157.932,15.71a2.362,2.362,0,1,0,2.35-2.6,2.482,2.482,0,0,0-2.35,2.6m28.714,0a2.363,2.363,0,1,0,2.355-2.6,2.485,2.485,0,0,0-2.355,2.6M14.357,159.715a2.484,2.484,0,0,0,2.349,2.6,2.616,2.616,0,0,0,0-5.206,2.489,2.489,0,0,0-2.349,2.6m-9.654,0a2.547,2.547,0,0,0-1.774-2.507c.3,1.484.645,2.961.992,4.428a2.707,2.707,0,0,0,.782-1.921M28.716,144a2.363,2.363,0,1,0,2.348-2.6,2.488,2.488,0,0,0-2.348,2.6m43.073,0a2.363,2.363,0,1,0,2.35-2.6,2.489,2.489,0,0,0-2.35,2.6m100.5,31.422a2.363,2.363,0,1,0,2.352-2.6,2.481,2.481,0,0,0-2.352,2.6M43.074,144a2.363,2.363,0,1,0,2.35-2.6,2.49,2.49,0,0,0-2.35,2.6m100.5,15.712a2.364,2.364,0,1,0,2.35-2.6,2.483,2.483,0,0,0-2.35,2.6M86.145,144a2.362,2.362,0,1,0,2.349-2.6,2.491,2.491,0,0,0-2.349,2.6m14.356,0a2.364,2.364,0,1,0,2.352-2.6A2.491,2.491,0,0,0,100.5,144m-43.074,0a2.365,2.365,0,1,0,2.355-2.6,2.492,2.492,0,0,0-2.355,2.6m114.862,15.712a2.363,2.363,0,1,0,2.352-2.6,2.483,2.483,0,0,0-2.352,2.6m14.358,0a2.363,2.363,0,1,0,2.35-2.6,2.484,2.484,0,0,0-2.35,2.6m-28.716,0a2.363,2.363,0,1,0,2.356-2.6,2.482,2.482,0,0,0-2.356,2.6M14.357,144a2.491,2.491,0,0,0,2.349,2.6,2.614,2.614,0,0,0,0-5.2,2.485,2.485,0,0,0-2.349,2.6m201.005,15.712a2.363,2.363,0,1,0,2.355-2.6,2.487,2.487,0,0,0-2.355,2.6m-14.36,0a2.363,2.363,0,1,0,2.353-2.6,2.486,2.486,0,0,0-2.353,2.6m-14.354,31.422a2.363,2.363,0,1,0,2.35-2.6,2.483,2.483,0,0,0-2.35,2.6m-57.427,0a2.362,2.362,0,1,0,2.348-2.6,2.48,2.48,0,0,0-2.348,2.6m-14.36,0a2.364,2.364,0,1,0,2.35-2.6,2.482,2.482,0,0,0-2.35,2.6m28.714,0a2.364,2.364,0,1,0,2.35-2.6,2.482,2.482,0,0,0-2.35,2.6m-43.074,0a2.364,2.364,0,1,0,2.352-2.6,2.484,2.484,0,0,0-2.352,2.6m57.431,0a2.363,2.363,0,1,0,2.356-2.6,2.481,2.481,0,0,0-2.356,2.6m14.357,0a2.363,2.363,0,1,0,2.352-2.6,2.482,2.482,0,0,0-2.352,2.6m-143.574,0a2.363,2.363,0,1,0,2.348-2.6,2.481,2.481,0,0,0-2.348,2.6m14.358,0a2.363,2.363,0,1,0,2.35-2.6,2.483,2.483,0,0,0-2.35,2.6m43.071,0a2.362,2.362,0,1,0,2.349-2.6,2.484,2.484,0,0,0-2.349,2.6m86.144,15.716a2.364,2.364,0,1,0,2.352-2.605,2.488,2.488,0,0,0-2.352,2.605M201,191.137a2.363,2.363,0,1,0,2.353-2.6,2.485,2.485,0,0,0-2.353,2.6m-129.214,0a2.363,2.363,0,1,0,2.35-2.6,2.482,2.482,0,0,0-2.35,2.6m-14.361,0a2.365,2.365,0,1,0,2.355-2.6,2.485,2.485,0,0,0-2.355,2.6M28.716,175.425a2.363,2.363,0,1,0,2.348-2.6,2.48,2.48,0,0,0-2.348,2.6m86.145,0a2.364,2.364,0,1,0,2.35-2.6,2.481,2.481,0,0,0-2.35,2.6m-14.36,0a2.364,2.364,0,1,0,2.352-2.6,2.483,2.483,0,0,0-2.352,2.6m-14.356,0a2.362,2.362,0,1,0,2.349-2.6,2.483,2.483,0,0,0-2.349,2.6m57.43,0a2.364,2.364,0,1,0,2.35-2.6,2.481,2.481,0,0,0-2.35,2.6m-14.354,0a2.361,2.361,0,1,0,2.348-2.6,2.479,2.479,0,0,0-2.348,2.6m-57.433,0a2.363,2.363,0,1,0,2.35-2.6,2.481,2.481,0,0,0-2.35,2.6m114.86,31.428a2.363,2.363,0,1,0,2.35-2.605,2.488,2.488,0,0,0-2.35,2.605M19.061,191.137a2.486,2.486,0,0,0-2.355-2.6,2.426,2.426,0,0,0-2.3,2.063q.747,1.51,1.53,2.985a2.036,2.036,0,0,0,.765.154,2.484,2.484,0,0,0,2.355-2.6m-4.7-15.712a2.483,2.483,0,0,0,2.349,2.6,2.612,2.612,0,0,0,0-5.2,2.485,2.485,0,0,0-2.349,2.6m143.575,0a2.363,2.363,0,1,0,2.356-2.6,2.48,2.48,0,0,0-2.356,2.6m-114.858,0a2.363,2.363,0,1,0,2.35-2.6,2.482,2.482,0,0,0-2.35,2.6m14.353,0a2.365,2.365,0,1,0,2.355-2.6,2.484,2.484,0,0,0-2.355,2.6" transform="translate(-192.933 -20.057)" fill="#ffa031"/>
          <path id="Trazado_699611" data-name="Trazado 699611" d="M950.839,336.528a2.61,2.61,0,1,1-2.354,2.6,2.485,2.485,0,0,1,2.354-2.6m-16.713,2.6a2.361,2.361,0,1,0,2.352-2.6,2.482,2.482,0,0,0-2.352,2.6m-14.354,0a2.362,2.362,0,1,0,2.349-2.6,2.48,2.48,0,0,0-2.349,2.6m-181.946-15.71a2.709,2.709,0,0,0-.782-1.921c-.348,1.47-.689,2.943-.991,4.434a2.564,2.564,0,0,0,1.773-2.513m167.586,15.71a2.364,2.364,0,1,0,2.353-2.6,2.481,2.481,0,0,0-2.353,2.6m-169.939,2.6a2.61,2.61,0,0,0,0-5.2,2.2,2.2,0,0,0-1.231.389c-.167,1.338-.32,2.679-.45,4.028a2.232,2.232,0,0,0,1.681.778m69.437-2.6a2.364,2.364,0,1,0,2.35-2.6,2.481,2.481,0,0,0-2.35,2.6m43.074,0a2.364,2.364,0,1,0,2.352-2.6,2.481,2.481,0,0,0-2.352,2.6m-14.36,0a2.364,2.364,0,1,0,2.353-2.6,2.482,2.482,0,0,0-2.353,2.6m-14.356,0a2.362,2.362,0,1,0,2.349-2.6,2.482,2.482,0,0,0-2.349,2.6m43.075,0a2.361,2.361,0,1,0,2.348-2.6,2.478,2.478,0,0,0-2.348,2.6m71.783-15.71a2.361,2.361,0,1,0,2.352-2.6,2.491,2.491,0,0,0-2.352,2.6M876.7,339.127a2.362,2.362,0,1,0,2.349-2.6,2.479,2.479,0,0,0-2.349,2.6m14.356,0a2.364,2.364,0,1,0,2.356-2.6,2.479,2.479,0,0,0-2.356,2.6m14.357-15.71a2.364,2.364,0,1,0,2.353-2.6,2.49,2.49,0,0,0-2.353,2.6m-43.069,0a2.361,2.361,0,1,0,2.348-2.6,2.486,2.486,0,0,0-2.348,2.6m14.356,0a2.363,2.363,0,1,0,2.349-2.6,2.487,2.487,0,0,0-2.349,2.6m-114.861,0a2.363,2.363,0,1,0,2.348-2.6,2.487,2.487,0,0,0-2.348,2.6m157.934,0a2.362,2.362,0,1,0,2.349-2.6,2.488,2.488,0,0,0-2.349,2.6m28.713,0a2.363,2.363,0,1,0,2.354-2.6,2.493,2.493,0,0,0-2.354,2.6m-57.43,0a2.364,2.364,0,1,0,2.356-2.6,2.487,2.487,0,0,0-2.356,2.6m-100.505,0a2.365,2.365,0,1,0,2.354-2.6,2.492,2.492,0,0,0-2.354,2.6m-14.352,0a2.363,2.363,0,1,0,2.349-2.6,2.487,2.487,0,0,0-2.349,2.6m28.711,0a2.364,2.364,0,1,0,2.35-2.6,2.489,2.489,0,0,0-2.35,2.6m43.074,0a2.365,2.365,0,1,0,2.352-2.6,2.49,2.49,0,0,0-2.352,2.6m-28.716,0a2.362,2.362,0,1,0,2.349-2.6,2.49,2.49,0,0,0-2.349,2.6m14.356,0a2.364,2.364,0,1,0,2.353-2.6,2.491,2.491,0,0,0-2.353,2.6m-86.144,0a2.364,2.364,0,1,0,2.349-2.6,2.49,2.49,0,0,0-2.349,2.6m43.07,15.71a2.365,2.365,0,1,0,2.354-2.6,2.483,2.483,0,0,0-2.354,2.6M776.2,354.84a2.363,2.363,0,1,0,2.349-2.6,2.483,2.483,0,0,0-2.349,2.6m-28.718,0a2.364,2.364,0,1,0,2.349-2.6,2.485,2.485,0,0,0-2.349,2.6m43.07,0a2.365,2.365,0,1,0,2.354-2.6,2.487,2.487,0,0,0-2.354,2.6m-55.077,18.314a2.615,2.615,0,0,0,0-5.2,2.229,2.229,0,0,0-1.681.786c.13,1.352.283,2.686.45,4.024a2.2,2.2,0,0,0,1.231.4m69.437-18.314a2.364,2.364,0,1,0,2.35-2.6,2.485,2.485,0,0,0-2.35,2.6m86.145,15.709a2.364,2.364,0,1,0,2.356-2.6,2.489,2.489,0,0,0-2.356,2.6M819.267,354.84a2.362,2.362,0,1,0,2.349-2.6,2.485,2.485,0,0,0-2.349,2.6M876.7,370.549a2.362,2.362,0,1,0,2.349-2.6,2.489,2.489,0,0,0-2.349,2.6m57.427,0a2.361,2.361,0,1,0,2.352-2.6,2.492,2.492,0,0,0-2.352,2.6m-28.714,0a2.364,2.364,0,1,0,2.353-2.6,2.492,2.492,0,0,0-2.353,2.6m43.073,0a2.363,2.363,0,1,0,2.354-2.6,2.495,2.495,0,0,0-2.354,2.6m-28.713,0a2.362,2.362,0,1,0,2.349-2.6,2.49,2.49,0,0,0-2.349,2.6M761.838,354.84a2.363,2.363,0,1,0,2.348-2.6,2.483,2.483,0,0,0-2.348,2.6m-28.716,0a2.364,2.364,0,1,0,2.35-2.6,2.484,2.484,0,0,0-2.35,2.6m14.357-15.713a2.364,2.364,0,1,0,2.349-2.6,2.482,2.482,0,0,0-2.349,2.6M948.484,354.84a2.363,2.363,0,1,0,2.354-2.6,2.488,2.488,0,0,0-2.354,2.6m-14.359,0a2.361,2.361,0,1,0,2.352-2.6,2.486,2.486,0,0,0-2.352,2.6M761.838,339.127a2.363,2.363,0,1,0,2.348-2.6,2.479,2.479,0,0,0-2.348,2.6m14.36,0a2.362,2.362,0,1,0,2.349-2.6,2.479,2.479,0,0,0-2.349,2.6m86.145,15.713a2.361,2.361,0,1,0,2.348-2.6,2.482,2.482,0,0,0-2.348,2.6m14.356,0a2.363,2.363,0,1,0,2.349-2.6,2.483,2.483,0,0,0-2.349,2.6m-43.076,0a2.364,2.364,0,1,0,2.353-2.6,2.486,2.486,0,0,0-2.353,2.6m86.148,0a2.362,2.362,0,1,0,2.349-2.6,2.484,2.484,0,0,0-2.349,2.6m-71.788,0a2.365,2.365,0,1,0,2.352-2.6,2.485,2.485,0,0,0-2.352,2.6m57.428,0a2.364,2.364,0,1,0,2.353-2.6,2.485,2.485,0,0,0-2.353,2.6m-14.357,0a2.364,2.364,0,1,0,2.356-2.6,2.483,2.483,0,0,0-2.356,2.6M804.909,244.861a2.364,2.364,0,1,0,2.35-2.6,2.481,2.481,0,0,0-2.35,2.6m114.862,47.132a2.362,2.362,0,1,0,2.349-2.6,2.475,2.475,0,0,0-2.349,2.6m-71.788-31.419a2.365,2.365,0,1,0,2.352-2.605,2.49,2.49,0,0,0-2.352,2.605m-28.716,0a2.362,2.362,0,1,0,2.349-2.605,2.491,2.491,0,0,0-2.349,2.605m14.356,0a2.364,2.364,0,1,0,2.353-2.605,2.491,2.491,0,0,0-2.353,2.605m43.076,0a2.363,2.363,0,1,0,2.349-2.605,2.488,2.488,0,0,0-2.349,2.605m28.713,0a2.364,2.364,0,1,0,2.353-2.605,2.49,2.49,0,0,0-2.353,2.605m19.059,0a2.362,2.362,0,1,0-2.35,2.6,2.486,2.486,0,0,0,2.35-2.6m-45.423-28.82a2.413,2.413,0,0,0,2.268-1.95c-1.5-.451-3.014-.881-4.547-1.27a2.914,2.914,0,0,0-.07.618,2.486,2.486,0,0,0,2.349,2.6m71.791,183.324a2.615,2.615,0,0,0,0,5.2,2,2,0,0,0,.76-.156c.526-.982,1.043-1.977,1.533-2.985a2.421,2.421,0,0,0-2.293-2.063m-145.93-154.5a2.364,2.364,0,1,0,2.35-2.605,2.49,2.49,0,0,0-2.35,2.605m86.145,0a2.364,2.364,0,1,0,2.356-2.605,2.488,2.488,0,0,0-2.356,2.605m-114.857,0a2.363,2.363,0,1,0,2.349-2.605,2.488,2.488,0,0,0-2.349,2.605m14.352,0a2.365,2.365,0,1,0,2.354-2.605,2.492,2.492,0,0,0-2.354,2.605m71.794,0a2.362,2.362,0,1,0,2.348-2.605,2.487,2.487,0,0,0-2.348,2.605m43.069-15.713a2.364,2.364,0,1,0,2.353-2.6,2.481,2.481,0,0,0-2.353,2.6m-71.788-15.709a2.364,2.364,0,1,0,2.353-2.605,2.49,2.49,0,0,0-2.353,2.605m57.431,15.709a2.364,2.364,0,1,0,2.356-2.6,2.479,2.479,0,0,0-2.356,2.6m-100.505,0a2.365,2.365,0,1,0,2.354-2.6,2.483,2.483,0,0,0-2.354,2.6m57.434-15.709a2.365,2.365,0,1,0,2.352-2.605,2.489,2.489,0,0,0-2.352,2.605m14.36,0a2.362,2.362,0,1,0,2.348-2.605,2.485,2.485,0,0,0-2.348,2.605m-40.726,2.6a2.486,2.486,0,0,0,2.35-2.6,2.4,2.4,0,0,0-.075-.618c-1.53.389-3.035.819-4.538,1.27a2.4,2.4,0,0,0,2.263,1.95m12.007,13.106a2.364,2.364,0,1,0,2.353-2.6,2.482,2.482,0,0,0-2.353,2.6m-14.356,0a2.362,2.362,0,1,0,2.349-2.6,2.482,2.482,0,0,0-2.349,2.6m43.075,125.688a2.361,2.361,0,1,0,2.348-2.6,2.488,2.488,0,0,0-2.348,2.6m0-125.688a2.361,2.361,0,1,0,2.348-2.6,2.478,2.478,0,0,0-2.348,2.6m14.356,0a2.363,2.363,0,1,0,2.349-2.6,2.479,2.479,0,0,0-2.349,2.6m-28.716,0a2.365,2.365,0,1,0,2.352-2.6,2.481,2.481,0,0,0-2.352,2.6m100.5,62.85a2.363,2.363,0,1,0,2.354-2.6,2.487,2.487,0,0,0-2.354,2.6m-71.786,0a2.362,2.362,0,1,0,2.349-2.6,2.482,2.482,0,0,0-2.349,2.6m-14.356,0a2.361,2.361,0,1,0,2.348-2.6,2.481,2.481,0,0,0-2.348,2.6m28.711,0a2.364,2.364,0,1,0,2.356-2.6,2.482,2.482,0,0,0-2.356,2.6m14.357,0a2.364,2.364,0,1,0,2.353-2.6,2.484,2.484,0,0,0-2.353,2.6m14.36,0a2.362,2.362,0,1,0,2.349-2.6,2.483,2.483,0,0,0-2.349,2.6m-71.788,0a2.364,2.364,0,1,0,2.352-2.6,2.484,2.484,0,0,0-2.352,2.6m-86.145,0a2.363,2.363,0,1,0,2.348-2.6,2.482,2.482,0,0,0-2.348,2.6m14.36,0a2.363,2.363,0,1,0,2.349-2.6,2.482,2.482,0,0,0-2.349,2.6m14.352,0a2.365,2.365,0,1,0,2.354-2.6,2.486,2.486,0,0,0-2.354,2.6m-43.07,0a2.364,2.364,0,1,0,2.349-2.6,2.485,2.485,0,0,0-2.349,2.6m86.144,0a2.364,2.364,0,1,0,2.353-2.6,2.485,2.485,0,0,0-2.353,2.6m-28.714,0a2.364,2.364,0,1,0,2.35-2.6,2.484,2.484,0,0,0-2.35,2.6m14.358,0a2.362,2.362,0,1,0,2.349-2.6,2.485,2.485,0,0,0-2.349,2.6m114.858-15.718a2.361,2.361,0,1,0,2.352-2.6,2.477,2.477,0,0,0-2.352,2.6m-57.427,0a2.362,2.362,0,1,0,2.349-2.6,2.474,2.474,0,0,0-2.349,2.6m-14.356,0a2.361,2.361,0,1,0,2.348-2.6,2.473,2.473,0,0,0-2.348,2.6m71.783,15.718a2.361,2.361,0,1,0,2.352-2.6,2.485,2.485,0,0,0-2.352,2.6m-100.5-15.718a2.364,2.364,0,1,0,2.353-2.6,2.477,2.477,0,0,0-2.353,2.6m71.788,0a2.364,2.364,0,1,0,2.353-2.6,2.476,2.476,0,0,0-2.353,2.6m-14.357,0a2.364,2.364,0,1,0,2.356-2.6,2.474,2.474,0,0,0-2.356,2.6m-43.071,0a2.364,2.364,0,1,0,2.352-2.6,2.476,2.476,0,0,0-2.352,2.6m-71.786,0a2.362,2.362,0,1,0,2.349-2.6,2.474,2.474,0,0,0-2.349,2.6m-14.36,0a2.363,2.363,0,1,0,2.348-2.6,2.474,2.474,0,0,0-2.348,2.6m43.071,0a2.364,2.364,0,1,0,2.35-2.6,2.476,2.476,0,0,0-2.35,2.6m-14.36,0a2.365,2.365,0,1,0,2.354-2.6,2.478,2.478,0,0,0-2.354,2.6m28.718,0a2.362,2.362,0,1,0,2.349-2.6,2.477,2.477,0,0,0-2.349,2.6m47.773,172.826a2.361,2.361,0,1,0-2.35,2.6,2.484,2.484,0,0,0,2.35-2.6M795.255,276.284a2.365,2.365,0,1,0-2.352,2.6,2.484,2.484,0,0,0,2.352-2.6m169.936,60.243a2.611,2.611,0,0,0,0,5.2,2.241,2.241,0,0,0,1.681-.778c-.13-1.355-.282-2.69-.451-4.028a2.185,2.185,0,0,0-1.231-.389M809.612,276.284a2.364,2.364,0,1,0-2.353,2.6,2.483,2.483,0,0,0,2.353-2.6m14.354,0a2.362,2.362,0,1,0-2.35,2.6,2.48,2.48,0,0,0,2.35-2.6m124.517,15.709a2.479,2.479,0,0,0,2.354,2.595,2.41,2.41,0,0,0,2.293-2.057c-.49-1-1.008-2-1.533-2.985a2.156,2.156,0,0,0-.76-.151,2.488,2.488,0,0,0-2.354,2.6m14.357,31.423a2.57,2.57,0,0,0,1.77,2.513c-.3-1.491-.639-2.964-.99-4.434a2.7,2.7,0,0,0-.78,1.921M780.9,276.284a2.362,2.362,0,1,0-2.352,2.6,2.484,2.484,0,0,0,2.352-2.6m114.86,0a2.364,2.364,0,1,0-2.348,2.6,2.484,2.484,0,0,0,2.348-2.6m14.357,0a2.364,2.364,0,1,0-2.35,2.6,2.485,2.485,0,0,0,2.35-2.6m14.356,0a2.362,2.362,0,1,0-2.35,2.6,2.481,2.481,0,0,0,2.35-2.6m-43.071,0a2.362,2.362,0,1,0-2.352,2.6,2.483,2.483,0,0,0,2.352-2.6m-28.711,0a2.364,2.364,0,1,0-2.353,2.6,2.485,2.485,0,0,0,2.353-2.6m14.353,0a2.361,2.361,0,1,0-2.35,2.6,2.483,2.483,0,0,0,2.35-2.6m-28.714,0a2.364,2.364,0,1,0-2.35,2.6,2.485,2.485,0,0,0,2.35-2.6m-4.7,157.116a2.364,2.364,0,1,0,2.353-2.605,2.488,2.488,0,0,0-2.353,2.605m14.36,0a2.365,2.365,0,1,0,2.352-2.605,2.487,2.487,0,0,0-2.352,2.605m-28.716,0a2.362,2.362,0,1,0,2.349-2.605,2.488,2.488,0,0,0-2.349,2.605m57.431,0a2.363,2.363,0,1,0,2.349-2.605A2.485,2.485,0,0,0,876.7,433.4m-71.79,0a2.364,2.364,0,1,0,2.35-2.605,2.487,2.487,0,0,0-2.35,2.605m57.434,0a2.362,2.362,0,1,0,2.348-2.605,2.484,2.484,0,0,0-2.348,2.605m102.849-81.162a2.615,2.615,0,1,0,2.353,2.6,2.486,2.486,0,0,0-2.353-2.6M790.549,433.4a2.365,2.365,0,1,0,2.354-2.605,2.489,2.489,0,0,0-2.354,2.605m172.292-47.138a2.7,2.7,0,0,0,.78,1.921c.35-1.467.687-2.946.99-4.429a2.552,2.552,0,0,0-1.77,2.508m2.35-18.312a2.616,2.616,0,0,0,0,5.2,2.191,2.191,0,0,0,1.231-.4c.168-1.338.32-2.672.451-4.024a2.238,2.238,0,0,0-1.681-.786M938.824,433.4a2.361,2.361,0,1,0-2.346,2.6,2.481,2.481,0,0,0,2.346-2.6m-176.986,0a2.363,2.363,0,1,0,2.348-2.605,2.485,2.485,0,0,0-2.348,2.605m14.36,0a2.363,2.363,0,1,0,2.349-2.605A2.485,2.485,0,0,0,776.2,433.4m133.918,31.419a2.363,2.363,0,1,0-2.35,2.6,2.486,2.486,0,0,0,2.35-2.6m-86.148-15.71a2.362,2.362,0,1,0-2.35,2.6,2.488,2.488,0,0,0,2.35-2.6m14.36,0a2.363,2.363,0,1,0-2.35,2.6,2.493,2.493,0,0,0,2.35-2.6m28.714,0a2.361,2.361,0,1,0-2.35,2.6,2.491,2.491,0,0,0,2.35-2.6m-14.353,0a2.364,2.364,0,1,0-2.353,2.6,2.493,2.493,0,0,0,2.353-2.6m-57.433,0a2.365,2.365,0,1,0-2.352,2.6,2.492,2.492,0,0,0,2.352-2.6m95.8-15.709a2.364,2.364,0,1,0,2.356-2.605,2.485,2.485,0,0,0-2.356,2.605m-81.442,15.709a2.363,2.363,0,1,0-2.353,2.6,2.492,2.492,0,0,0,2.353-2.6m-33.415,0a2.363,2.363,0,1,0,2.349-2.608,2.484,2.484,0,0,0-2.349,2.608m148.273,0a2.362,2.362,0,1,0-2.35,2.6,2.489,2.489,0,0,0,2.35-2.6m-100.5,31.423a2.479,2.479,0,0,0-2.35-2.6,2.4,2.4,0,0,0-2.263,1.939c1.5.454,3.014.89,4.538,1.279a2.415,2.415,0,0,0,.075-.616m24.016-109.984a2.364,2.364,0,1,0,2.352-2.6,2.491,2.491,0,0,0-2.352,2.6m47.775,78.56a2.363,2.363,0,1,0-2.348,2.6,2.493,2.493,0,0,0,2.348-2.6m-14.359,0a2.362,2.362,0,1,0-2.352,2.6,2.491,2.491,0,0,0,2.352-2.6m-2.352,28.821a2.48,2.48,0,0,0-2.349,2.6,2.933,2.933,0,0,0,.07.616c1.533-.389,3.043-.825,4.547-1.279a2.409,2.409,0,0,0-2.268-1.939m-31.065,2.6a2.365,2.365,0,1,0,2.352-2.6,2.486,2.486,0,0,0-2.352,2.6m90.841-204.248a2.361,2.361,0,1,0-2.346,2.6,2.479,2.479,0,0,0,2.346-2.6m-105.2,204.248a2.364,2.364,0,1,0,2.353-2.6,2.487,2.487,0,0,0-2.353,2.6m33.418,0a2.361,2.361,0,1,0-2.35,2.6,2.482,2.482,0,0,0,2.35-2.6m28.717-15.713a2.363,2.363,0,1,0-2.348,2.6,2.485,2.485,0,0,0,2.348-2.6M749.828,294.588a2.609,2.609,0,0,0,0-5.194,2.207,2.207,0,0,0-.767.151q-.78,1.485-1.529,2.985a2.416,2.416,0,0,0,2.3,2.057m12.009-18.3a2.363,2.363,0,1,0,2.348-2.6,2.482,2.482,0,0,0-2.348,2.6m90.85,188.535a2.364,2.364,0,1,0-2.353,2.6,2.486,2.486,0,0,0,2.353-2.6m-43.076,0a2.363,2.363,0,1,0-2.353,2.6,2.484,2.484,0,0,0,2.353-2.6m28.714,0a2.363,2.363,0,1,0-2.35,2.6,2.485,2.485,0,0,0,2.35-2.6m43.073,0a2.362,2.362,0,1,0-2.352,2.6,2.484,2.484,0,0,0,2.352-2.6m-57.433,0a2.362,2.362,0,1,0-2.35,2.6,2.481,2.481,0,0,0,2.35-2.6m-28.711,0a2.365,2.365,0,1,0-2.352,2.6,2.485,2.485,0,0,0,2.352-2.6m114.86-15.71a2.363,2.363,0,1,0-2.35,2.6,2.493,2.493,0,0,0,2.35-2.6M804.909,386.262a2.364,2.364,0,1,0,2.35-2.605,2.485,2.485,0,0,0-2.35,2.605m14.358,0a2.362,2.362,0,1,0,2.349-2.605,2.485,2.485,0,0,0-2.349,2.605m-28.718,0a2.365,2.365,0,1,0,2.354-2.605,2.487,2.487,0,0,0-2.354,2.605m57.434,0a2.365,2.365,0,1,0,2.352-2.605,2.485,2.485,0,0,0-2.352,2.605m14.36,0a2.362,2.362,0,1,0,2.348-2.605,2.482,2.482,0,0,0-2.348,2.605m-86.145,0a2.363,2.363,0,1,0,2.349-2.605,2.483,2.483,0,0,0-2.349,2.605m57.426,0a2.364,2.364,0,1,0,2.353-2.605,2.486,2.486,0,0,0-2.353,2.605m100.5,15.71a2.361,2.361,0,1,0,2.352-2.6,2.482,2.482,0,0,0-2.352,2.6m-172.288-15.71a2.363,2.363,0,1,0,2.348-2.605,2.483,2.483,0,0,0-2.348,2.605m157.934,15.71a2.362,2.362,0,1,0,2.349-2.6,2.48,2.48,0,0,0-2.349,2.6m28.713,0a2.363,2.363,0,1,0,2.354-2.6,2.485,2.485,0,0,0-2.354,2.6m-201.005-15.71a2.364,2.364,0,1,0,2.349-2.605,2.485,2.485,0,0,0-2.349,2.605m-9.653,0a2.546,2.546,0,0,0-1.773-2.508c.3,1.483.643,2.962.991,4.429a2.707,2.707,0,0,0,.782-1.921m24.012-15.713a2.363,2.363,0,1,0,2.348-2.6,2.489,2.489,0,0,0-2.348,2.6m43.071,0a2.364,2.364,0,1,0,2.35-2.6,2.491,2.491,0,0,0-2.35,2.6m100.5,31.423a2.364,2.364,0,1,0,2.353-2.6,2.482,2.482,0,0,0-2.353,2.6M776.2,370.549a2.362,2.362,0,1,0,2.349-2.6,2.489,2.489,0,0,0-2.349,2.6m100.5,15.713a2.363,2.363,0,1,0,2.349-2.605,2.483,2.483,0,0,0-2.349,2.605m-57.431-15.713a2.362,2.362,0,1,0,2.349-2.6,2.492,2.492,0,0,0-2.349,2.6m14.356,0a2.364,2.364,0,1,0,2.353-2.6,2.493,2.493,0,0,0-2.353,2.6m-43.074,0a2.365,2.365,0,1,0,2.354-2.6,2.494,2.494,0,0,0-2.354,2.6m114.862,15.713a2.364,2.364,0,1,0,2.353-2.605,2.485,2.485,0,0,0-2.353,2.605m14.36,0a2.362,2.362,0,1,0,2.349-2.605,2.484,2.484,0,0,0-2.349,2.605m-28.717,0a2.364,2.364,0,1,0,2.356-2.605,2.483,2.483,0,0,0-2.356,2.605M747.479,370.549a2.364,2.364,0,1,0,2.349-2.6,2.492,2.492,0,0,0-2.349,2.6m201.005,15.713a2.363,2.363,0,1,0,2.354-2.605,2.488,2.488,0,0,0-2.354,2.605m-14.359,0a2.362,2.362,0,1,0,2.352-2.605,2.486,2.486,0,0,0-2.352,2.605m-14.354,31.422a2.362,2.362,0,1,0,2.349-2.605,2.483,2.483,0,0,0-2.349,2.605m-57.429,0a2.362,2.362,0,1,0,2.348-2.605,2.481,2.481,0,0,0-2.348,2.605m-14.36,0a2.365,2.365,0,1,0,2.352-2.605,2.484,2.484,0,0,0-2.352,2.605m28.716,0a2.363,2.363,0,1,0,2.349-2.605,2.482,2.482,0,0,0-2.349,2.605m-43.076,0a2.364,2.364,0,1,0,2.353-2.605,2.485,2.485,0,0,0-2.353,2.605m57.431,0a2.364,2.364,0,1,0,2.356-2.605,2.482,2.482,0,0,0-2.356,2.605m14.357,0a2.364,2.364,0,1,0,2.353-2.605,2.484,2.484,0,0,0-2.353,2.605m-143.574,0a2.363,2.363,0,1,0,2.348-2.605,2.482,2.482,0,0,0-2.348,2.605m14.36,0a2.363,2.363,0,1,0,2.349-2.605,2.482,2.482,0,0,0-2.349,2.605m43.07,0a2.362,2.362,0,1,0,2.349-2.605,2.485,2.485,0,0,0-2.349,2.605M905.411,433.4a2.364,2.364,0,1,0,2.353-2.605,2.487,2.487,0,0,0-2.353,2.605m28.714-15.716a2.362,2.362,0,1,0,2.352-2.605,2.485,2.485,0,0,0-2.352,2.605m-129.217,0a2.364,2.364,0,1,0,2.35-2.605,2.484,2.484,0,0,0-2.35,2.605m-14.36,0a2.365,2.365,0,1,0,2.354-2.605,2.486,2.486,0,0,0-2.354,2.605m-28.712-15.712a2.363,2.363,0,1,0,2.348-2.6,2.479,2.479,0,0,0-2.348,2.6m86.145,0a2.364,2.364,0,1,0,2.352-2.6,2.482,2.482,0,0,0-2.352,2.6m-14.36,0a2.364,2.364,0,1,0,2.353-2.6,2.483,2.483,0,0,0-2.353,2.6m-14.356,0a2.362,2.362,0,1,0,2.349-2.6,2.482,2.482,0,0,0-2.349,2.6m57.431,0a2.362,2.362,0,1,0,2.349-2.6,2.479,2.479,0,0,0-2.349,2.6m-14.356,0a2.361,2.361,0,1,0,2.348-2.6,2.478,2.478,0,0,0-2.348,2.6m-57.434,0a2.364,2.364,0,1,0,2.35-2.6,2.481,2.481,0,0,0-2.35,2.6M919.771,433.4a2.362,2.362,0,1,0,2.349-2.605,2.486,2.486,0,0,0-2.349,2.605M752.183,417.684a2.488,2.488,0,0,0-2.355-2.605,2.425,2.425,0,0,0-2.3,2.063q.748,1.512,1.529,2.985a2.05,2.05,0,0,0,.767.156,2.486,2.486,0,0,0,2.355-2.6m-4.7-15.712a2.364,2.364,0,1,0,2.349-2.6,2.482,2.482,0,0,0-2.349,2.6m143.575,0a2.364,2.364,0,1,0,2.356-2.6,2.479,2.479,0,0,0-2.356,2.6m-114.857,0a2.362,2.362,0,1,0,2.349-2.6,2.479,2.479,0,0,0-2.349,2.6m14.352,0a2.365,2.365,0,1,0,2.354-2.6,2.484,2.484,0,0,0-2.354,2.6" transform="translate(273.168 29.4)" fill="#ffa031"/>
          <path id="Trazado_699627" data-name="Trazado 699627" d="M968.452,324.387a2.322,2.322,0,1,1-2.545,2.312,2.435,2.435,0,0,1,2.545-2.312M950.387,326.7a2.55,2.55,0,1,0,2.542-2.312,2.433,2.433,0,0,0-2.542,2.312m-15.516,0a2.551,2.551,0,1,0,2.539-2.312,2.431,2.431,0,0,0-2.539,2.312M738.206,312.723a2.215,2.215,0,0,0-.845-1.709c-.376,1.308-.744,2.618-1.071,3.944a2.366,2.366,0,0,0,1.916-2.235M919.35,326.7a2.554,2.554,0,1,0,2.544-2.312,2.433,2.433,0,0,0-2.544,2.312m-183.688,2.31a2.322,2.322,0,1,0,0-4.622,2.742,2.742,0,0,0-1.33.346c-.181,1.19-.346,2.384-.487,3.583a2.653,2.653,0,0,0,1.817.692m75.054-2.31a2.554,2.554,0,1,0,2.541-2.312,2.432,2.432,0,0,0-2.541,2.312m46.559,0a2.554,2.554,0,1,0,2.542-2.312,2.432,2.432,0,0,0-2.542,2.312m-15.522,0a2.553,2.553,0,1,0,2.544-2.312,2.434,2.434,0,0,0-2.544,2.312m-15.517,0a2.551,2.551,0,1,0,2.539-2.312,2.432,2.432,0,0,0-2.539,2.312m46.56,0a2.55,2.55,0,1,0,2.538-2.312A2.428,2.428,0,0,0,872.8,326.7m77.59-13.976a2.55,2.55,0,1,0,2.542-2.315,2.44,2.44,0,0,0-2.542,2.315M888.314,326.7a2.552,2.552,0,1,0,2.539-2.312,2.43,2.43,0,0,0-2.539,2.312m15.517,0a2.554,2.554,0,1,0,2.546-2.312,2.431,2.431,0,0,0-2.546,2.312m15.519-13.976a2.553,2.553,0,1,0,2.544-2.315,2.44,2.44,0,0,0-2.544,2.315m-46.553,0a2.55,2.55,0,1,0,2.538-2.315,2.435,2.435,0,0,0-2.538,2.315m15.517,0a2.552,2.552,0,1,0,2.539-2.315,2.437,2.437,0,0,0-2.539,2.315m-124.154,0a2.552,2.552,0,1,0,2.538-2.315,2.436,2.436,0,0,0-2.538,2.315m170.711,0a2.551,2.551,0,1,0,2.539-2.315,2.437,2.437,0,0,0-2.539,2.315m31.036,0a2.552,2.552,0,1,0,2.545-2.315,2.443,2.443,0,0,0-2.545,2.315m-62.076,0a2.553,2.553,0,1,0,2.546-2.315,2.438,2.438,0,0,0-2.546,2.315m-108.636,0a2.555,2.555,0,1,0,2.545-2.315,2.442,2.442,0,0,0-2.545,2.315m-15.513,0a2.552,2.552,0,1,0,2.539-2.315,2.437,2.437,0,0,0-2.539,2.315m31.034,0a2.553,2.553,0,1,0,2.541-2.315,2.439,2.439,0,0,0-2.541,2.315m46.559,0a2.554,2.554,0,1,0,2.542-2.315,2.439,2.439,0,0,0-2.542,2.315m-31.039,0a2.551,2.551,0,1,0,2.539-2.315,2.439,2.439,0,0,0-2.539,2.315m15.517,0a2.553,2.553,0,1,0,2.544-2.315,2.441,2.441,0,0,0-2.544,2.315m-93.113,0a2.553,2.553,0,1,0,2.539-2.315,2.439,2.439,0,0,0-2.539,2.315M795.2,326.7a2.555,2.555,0,1,0,2.545-2.312A2.435,2.435,0,0,0,795.2,326.7m-15.513,13.979a2.552,2.552,0,1,0,2.539-2.315,2.432,2.432,0,0,0-2.539,2.315m-31.042,0a2.553,2.553,0,1,0,2.539-2.315,2.435,2.435,0,0,0-2.539,2.315m46.555,0a2.555,2.555,0,1,0,2.545-2.315,2.438,2.438,0,0,0-2.545,2.315M735.662,356.97a2.325,2.325,0,1,0,0-4.63,2.646,2.646,0,0,0-1.817.7c.141,1.2.306,2.389.487,3.58a2.747,2.747,0,0,0,1.33.352m75.054-16.292a2.553,2.553,0,1,0,2.541-2.315,2.434,2.434,0,0,0-2.541,2.315m93.115,13.975a2.553,2.553,0,1,0,2.546-2.312,2.439,2.439,0,0,0-2.546,2.312m-77.595-13.975a2.551,2.551,0,1,0,2.539-2.315,2.435,2.435,0,0,0-2.539,2.315m62.078,13.975a2.552,2.552,0,1,0,2.539-2.312,2.438,2.438,0,0,0-2.539,2.312m62.073,0a2.55,2.55,0,1,0,2.542-2.312,2.442,2.442,0,0,0-2.542,2.312m-31.037,0a2.553,2.553,0,1,0,2.544-2.312,2.441,2.441,0,0,0-2.544,2.312m46.557,0a2.553,2.553,0,1,0,2.545-2.312,2.444,2.444,0,0,0-2.545,2.312m-31.036,0a2.551,2.551,0,1,0,2.539-2.312,2.439,2.439,0,0,0-2.539,2.312M764.161,340.678a2.552,2.552,0,1,0,2.538-2.315,2.432,2.432,0,0,0-2.538,2.315m-31.039,0a2.553,2.553,0,1,0,2.541-2.315,2.434,2.434,0,0,0-2.541,2.315M748.641,326.7a2.554,2.554,0,1,0,2.539-2.312,2.432,2.432,0,0,0-2.539,2.312m217.267,13.979a2.552,2.552,0,1,0,2.545-2.315,2.439,2.439,0,0,0-2.545,2.315m-15.52,0a2.55,2.55,0,1,0,2.542-2.315,2.436,2.436,0,0,0-2.542,2.315M764.161,326.7a2.553,2.553,0,1,0,2.538-2.312,2.429,2.429,0,0,0-2.538,2.312m15.522,0a2.552,2.552,0,1,0,2.539-2.312,2.43,2.43,0,0,0-2.539,2.312M872.8,340.678a2.55,2.55,0,1,0,2.538-2.315,2.431,2.431,0,0,0-2.538,2.315m15.517,0a2.552,2.552,0,1,0,2.539-2.315,2.432,2.432,0,0,0-2.539,2.315m-46.56,0a2.553,2.553,0,1,0,2.544-2.315,2.436,2.436,0,0,0-2.544,2.315m93.118,0a2.551,2.551,0,1,0,2.539-2.315,2.433,2.433,0,0,0-2.539,2.315m-77.6,0a2.554,2.554,0,1,0,2.542-2.315,2.435,2.435,0,0,0-2.542,2.315m62.075,0a2.553,2.553,0,1,0,2.544-2.315,2.435,2.435,0,0,0-2.544,2.315m-15.519,0a2.553,2.553,0,1,0,2.546-2.315,2.433,2.433,0,0,0-2.546,2.315m-93.115-97.839a2.553,2.553,0,1,0,2.541-2.315,2.432,2.432,0,0,0-2.541,2.315m124.155,41.929a2.551,2.551,0,1,0,2.539-2.312,2.426,2.426,0,0,0-2.539,2.312m-77.6-27.951a2.554,2.554,0,1,0,2.542-2.318,2.44,2.44,0,0,0-2.542,2.318m-31.039,0a2.55,2.55,0,1,0,2.539-2.318,2.44,2.44,0,0,0-2.539,2.318m15.517,0A2.553,2.553,0,1,0,844.3,254.5a2.441,2.441,0,0,0-2.544,2.318m46.56,0a2.551,2.551,0,1,0,2.539-2.318,2.437,2.437,0,0,0-2.539,2.318m31.036,0a2.553,2.553,0,1,0,2.544-2.318,2.44,2.44,0,0,0-2.544,2.318m20.6,0a2.551,2.551,0,1,0-2.541,2.316,2.435,2.435,0,0,0,2.541-2.316m-49.1-25.638a2.514,2.514,0,0,0,2.452-1.735c-1.626-.4-3.258-.784-4.915-1.13a2.154,2.154,0,0,0-.076.549,2.436,2.436,0,0,0,2.539,2.315m77.6,163.087a2.325,2.325,0,1,0,0,4.63,2.571,2.571,0,0,0,.821-.139c.568-.874,1.128-1.759,1.657-2.656a2.493,2.493,0,0,0-2.479-1.836M810.717,256.818a2.553,2.553,0,1,0,2.541-2.318,2.439,2.439,0,0,0-2.541,2.318m93.115,0a2.553,2.553,0,1,0,2.546-2.318,2.438,2.438,0,0,0-2.546,2.318m-124.149,0a2.551,2.551,0,1,0,2.539-2.318,2.437,2.437,0,0,0-2.539,2.318m15.513,0a2.555,2.555,0,1,0,2.545-2.318,2.442,2.442,0,0,0-2.545,2.318m77.6,0a2.55,2.55,0,1,0,2.538-2.318,2.435,2.435,0,0,0-2.538,2.318m46.553-13.979a2.553,2.553,0,1,0,2.544-2.315,2.433,2.433,0,0,0-2.544,2.315m-77.6-13.975a2.553,2.553,0,1,0,2.544-2.318,2.44,2.44,0,0,0-2.544,2.318m62.078,13.975a2.553,2.553,0,1,0,2.546-2.315,2.431,2.431,0,0,0-2.546,2.315m-108.636,0a2.555,2.555,0,1,0,2.545-2.315,2.435,2.435,0,0,0-2.545,2.315m62.08-13.975a2.554,2.554,0,1,0,2.542-2.318,2.438,2.438,0,0,0-2.542,2.318m15.522,0a2.55,2.55,0,1,0,2.538-2.318,2.434,2.434,0,0,0-2.538,2.318m-44.021,2.315a2.435,2.435,0,0,0,2.541-2.315,1.781,1.781,0,0,0-.081-.549c-1.654.346-3.28.729-4.905,1.13a2.5,2.5,0,0,0,2.446,1.735m12.978,11.66a2.553,2.553,0,1,0,2.544-2.315,2.434,2.434,0,0,0-2.544,2.315m-15.517,0a2.551,2.551,0,1,0,2.539-2.315,2.432,2.432,0,0,0-2.539,2.315M872.8,354.652a2.55,2.55,0,1,0,2.538-2.312,2.437,2.437,0,0,0-2.538,2.312m0-111.813a2.55,2.55,0,1,0,2.538-2.315,2.428,2.428,0,0,0-2.538,2.315m15.517,0a2.552,2.552,0,1,0,2.539-2.315,2.43,2.43,0,0,0-2.539,2.315m-31.039,0a2.554,2.554,0,1,0,2.542-2.315,2.432,2.432,0,0,0-2.542,2.315m108.632,55.912a2.552,2.552,0,1,0,2.545-2.314,2.439,2.439,0,0,0-2.545,2.314m-77.593,0a2.552,2.552,0,1,0,2.539-2.314,2.432,2.432,0,0,0-2.539,2.314m-15.517,0a2.55,2.55,0,1,0,2.538-2.314,2.431,2.431,0,0,0-2.538,2.314m31.034,0a2.553,2.553,0,1,0,2.546-2.314,2.433,2.433,0,0,0-2.546,2.314m15.519,0a2.553,2.553,0,1,0,2.544-2.314,2.435,2.435,0,0,0-2.544,2.314m15.522,0a2.551,2.551,0,1,0,2.539-2.314,2.433,2.433,0,0,0-2.539,2.314m-77.6,0a2.554,2.554,0,1,0,2.542-2.314,2.435,2.435,0,0,0-2.542,2.314m-93.115,0a2.552,2.552,0,1,0,2.538-2.314,2.432,2.432,0,0,0-2.538,2.314m15.522,0a2.552,2.552,0,1,0,2.539-2.314,2.432,2.432,0,0,0-2.539,2.314m15.513,0a2.555,2.555,0,1,0,2.545-2.314,2.438,2.438,0,0,0-2.545,2.314m-46.555,0a2.553,2.553,0,1,0,2.539-2.314,2.435,2.435,0,0,0-2.539,2.314m93.113,0a2.553,2.553,0,1,0,2.544-2.314,2.436,2.436,0,0,0-2.544,2.314m-31.037,0a2.553,2.553,0,1,0,2.541-2.314,2.435,2.435,0,0,0-2.541,2.314m15.52,0a2.551,2.551,0,1,0,2.539-2.314,2.435,2.435,0,0,0-2.539,2.314m124.151-13.983a2.55,2.55,0,1,0,2.542-2.312,2.429,2.429,0,0,0-2.542,2.312m-62.073,0a2.552,2.552,0,1,0,2.539-2.312,2.425,2.425,0,0,0-2.539,2.312m-15.517,0a2.55,2.55,0,1,0,2.538-2.312,2.424,2.424,0,0,0-2.538,2.312m77.59,13.983a2.55,2.55,0,1,0,2.542-2.314,2.436,2.436,0,0,0-2.542,2.314M841.754,284.768a2.553,2.553,0,1,0,2.544-2.312,2.429,2.429,0,0,0-2.544,2.312m77.6,0a2.553,2.553,0,1,0,2.544-2.312,2.428,2.428,0,0,0-2.544,2.312m-15.519,0a2.553,2.553,0,1,0,2.546-2.312,2.426,2.426,0,0,0-2.546,2.312m-46.556,0a2.554,2.554,0,1,0,2.542-2.312,2.428,2.428,0,0,0-2.542,2.312m-77.593,0a2.552,2.552,0,1,0,2.539-2.312,2.425,2.425,0,0,0-2.539,2.312m-15.522,0a2.553,2.553,0,1,0,2.538-2.312,2.425,2.425,0,0,0-2.538,2.312m46.556,0a2.553,2.553,0,1,0,2.541-2.312,2.427,2.427,0,0,0-2.541,2.312m-15.522,0a2.555,2.555,0,1,0,2.545-2.312,2.431,2.431,0,0,0-2.545,2.312m31.042,0a2.551,2.551,0,1,0,2.539-2.312,2.428,2.428,0,0,0-2.539,2.312m51.638,153.748a2.55,2.55,0,1,0-2.541,2.311,2.434,2.434,0,0,0,2.541-2.311M800.282,270.794a2.555,2.555,0,1,0-2.542,2.312,2.435,2.435,0,0,0,2.542-2.312m183.685,53.593a2.321,2.321,0,1,0,0,4.622,2.665,2.665,0,0,0,1.817-.692c-.141-1.205-.3-2.393-.487-3.583a2.725,2.725,0,0,0-1.33-.346M815.8,270.794a2.554,2.554,0,1,0-2.544,2.312,2.434,2.434,0,0,0,2.544-2.312m15.516,0a2.551,2.551,0,1,0-2.541,2.312,2.43,2.43,0,0,0,2.541-2.312m134.591,13.975a2.431,2.431,0,0,0,2.545,2.308,2.484,2.484,0,0,0,2.479-1.83c-.53-.89-1.089-1.775-1.657-2.656a2.77,2.77,0,0,0-.821-.135,2.439,2.439,0,0,0-2.545,2.312m15.519,27.955a2.37,2.37,0,0,0,1.913,2.235c-.327-1.326-.691-2.637-1.07-3.944a2.209,2.209,0,0,0-.843,1.709M784.764,270.794a2.552,2.552,0,1,0-2.542,2.312,2.435,2.435,0,0,0,2.542-2.312m124.152,0a2.554,2.554,0,1,0-2.538,2.312,2.434,2.434,0,0,0,2.538-2.312m15.519,0a2.554,2.554,0,1,0-2.541,2.312,2.435,2.435,0,0,0,2.541-2.312m15.517,0a2.551,2.551,0,1,0-2.541,2.312,2.431,2.431,0,0,0,2.541-2.312m-46.556,0a2.552,2.552,0,1,0-2.542,2.312,2.434,2.434,0,0,0,2.542-2.312m-31.034,0a2.554,2.554,0,1,0-2.544,2.312,2.436,2.436,0,0,0,2.544-2.312m15.514,0a2.55,2.55,0,1,0-2.541,2.312,2.433,2.433,0,0,0,2.541-2.312m-31.037,0a2.553,2.553,0,1,0-2.54,2.312,2.435,2.435,0,0,0,2.54-2.312m-5.084,139.772a2.553,2.553,0,1,0,2.544-2.318,2.439,2.439,0,0,0-2.544,2.318m15.522,0a2.554,2.554,0,1,0,2.542-2.318,2.437,2.437,0,0,0-2.542,2.318m-31.039,0a2.55,2.55,0,1,0,2.539-2.318,2.437,2.437,0,0,0-2.539,2.318m62.078,0a2.551,2.551,0,1,0,2.539-2.318,2.435,2.435,0,0,0-2.539,2.318m-77.6,0a2.553,2.553,0,1,0,2.541-2.318,2.437,2.437,0,0,0-2.541,2.318m62.08,0a2.55,2.55,0,1,0,2.538-2.318,2.433,2.433,0,0,0-2.538,2.318m111.17-72.2a2.325,2.325,0,1,0,2.544,2.315,2.435,2.435,0,0,0-2.544-2.315M795.2,410.566a2.555,2.555,0,1,0,2.545-2.318,2.44,2.44,0,0,0-2.545,2.318m186.231-41.935a2.207,2.207,0,0,0,.843,1.709c.379-1.3.743-2.621,1.07-3.94a2.356,2.356,0,0,0-1.913,2.231m2.541-16.291a2.325,2.325,0,1,0,0,4.63,2.73,2.73,0,0,0,1.33-.352c.182-1.19.346-2.377.487-3.58a2.657,2.657,0,0,0-1.817-.7m-28.5,58.226a2.55,2.55,0,1,0-2.536,2.314,2.43,2.43,0,0,0,2.536-2.314m-191.3,0a2.552,2.552,0,1,0,2.538-2.318,2.434,2.434,0,0,0-2.538,2.318m15.522,0a2.551,2.551,0,1,0,2.539-2.318,2.435,2.435,0,0,0-2.539,2.318m144.752,27.951a2.554,2.554,0,1,0-2.541,2.311,2.436,2.436,0,0,0,2.541-2.311M831.316,424.54a2.551,2.551,0,1,0-2.541,2.311,2.437,2.437,0,0,0,2.541-2.311m15.522,0a2.554,2.554,0,1,0-2.54,2.311,2.441,2.441,0,0,0,2.54-2.311m31.037,0a2.55,2.55,0,1,0-2.541,2.311,2.44,2.44,0,0,0,2.541-2.311m-15.514,0a2.555,2.555,0,1,0-2.544,2.311,2.442,2.442,0,0,0,2.544-2.311m-62.079,0a2.555,2.555,0,1,0-2.542,2.311,2.441,2.441,0,0,0,2.542-2.311m103.549-13.975a2.553,2.553,0,1,0,2.546-2.318,2.436,2.436,0,0,0-2.546,2.318M815.8,424.54a2.554,2.554,0,1,0-2.544,2.311,2.44,2.44,0,0,0,2.544-2.311m-36.118,0a2.551,2.551,0,1,0,2.539-2.32,2.434,2.434,0,0,0-2.539,2.32m160.269,0a2.551,2.551,0,1,0-2.541,2.311,2.438,2.438,0,0,0,2.541-2.311M831.316,452.495a2.429,2.429,0,0,0-2.541-2.315,2.5,2.5,0,0,0-2.446,1.725c1.625.4,3.258.792,4.905,1.138a1.79,1.79,0,0,0,.081-.548m25.959-97.843a2.554,2.554,0,1,0,2.542-2.312,2.441,2.441,0,0,0-2.542,2.312m51.64,69.888a2.554,2.554,0,1,0-2.538,2.311,2.441,2.441,0,0,0,2.538-2.311m-15.52,0a2.552,2.552,0,1,0-2.542,2.311,2.44,2.44,0,0,0,2.542-2.311m-2.542,25.64a2.43,2.43,0,0,0-2.539,2.315,2.168,2.168,0,0,0,.076.548c1.657-.346,3.289-.734,4.915-1.138a2.512,2.512,0,0,0-2.452-1.725m-33.578,2.315a2.554,2.554,0,1,0,2.542-2.315,2.437,2.437,0,0,0-2.542,2.315m98.19-181.7a2.55,2.55,0,1,0-2.536,2.312,2.428,2.428,0,0,0,2.536-2.312m-113.712,181.7a2.553,2.553,0,1,0,2.544-2.315,2.438,2.438,0,0,0-2.544,2.315m36.121,0a2.55,2.55,0,1,0-2.541,2.311,2.432,2.432,0,0,0,2.541-2.311m31.04-13.979a2.554,2.554,0,1,0-2.538,2.311,2.435,2.435,0,0,0,2.538-2.311M751.18,287.077a2.321,2.321,0,1,0,0-4.621,2.838,2.838,0,0,0-.829.135q-.843,1.321-1.653,2.656a2.491,2.491,0,0,0,2.481,1.83m12.981-16.283a2.553,2.553,0,1,0,2.538-2.312,2.431,2.431,0,0,0-2.538,2.312m98.2,167.722a2.555,2.555,0,1,0-2.544,2.311,2.436,2.436,0,0,0,2.544-2.311m-46.56,0a2.554,2.554,0,1,0-2.544,2.311,2.434,2.434,0,0,0,2.544-2.311m31.037,0a2.554,2.554,0,1,0-2.54,2.311,2.435,2.435,0,0,0,2.54-2.311m46.557,0a2.552,2.552,0,1,0-2.542,2.311,2.434,2.434,0,0,0,2.542-2.311m-62.079,0a2.551,2.551,0,1,0-2.541,2.311,2.431,2.431,0,0,0,2.541-2.311m-31.034,0a2.555,2.555,0,1,0-2.542,2.311,2.435,2.435,0,0,0,2.542-2.311M924.434,424.54a2.554,2.554,0,1,0-2.541,2.311,2.442,2.442,0,0,0,2.541-2.311M810.717,368.631a2.553,2.553,0,1,0,2.541-2.318,2.434,2.434,0,0,0-2.541,2.318m15.52,0a2.55,2.55,0,1,0,2.539-2.318,2.435,2.435,0,0,0-2.539,2.318m-31.042,0a2.555,2.555,0,1,0,2.545-2.318,2.438,2.438,0,0,0-2.545,2.318m62.08,0a2.554,2.554,0,1,0,2.542-2.318,2.435,2.435,0,0,0-2.542,2.318m15.522,0a2.55,2.55,0,1,0,2.538-2.318,2.431,2.431,0,0,0-2.538,2.318m-93.115,0a2.551,2.551,0,1,0,2.539-2.318,2.432,2.432,0,0,0-2.539,2.318m62.072,0a2.553,2.553,0,1,0,2.544-2.318,2.436,2.436,0,0,0-2.544,2.318m108.633,13.976a2.55,2.55,0,1,0,2.542-2.312,2.434,2.434,0,0,0-2.542,2.312M764.161,368.631a2.552,2.552,0,1,0,2.538-2.318,2.432,2.432,0,0,0-2.538,2.318m170.711,13.976a2.551,2.551,0,1,0,2.539-2.312,2.431,2.431,0,0,0-2.539,2.312m31.036,0a2.553,2.553,0,1,0,2.545-2.312,2.436,2.436,0,0,0-2.545,2.312M748.641,368.631a2.553,2.553,0,1,0,2.539-2.318,2.435,2.435,0,0,0-2.539,2.318m-10.434,0a2.351,2.351,0,0,0-1.916-2.231c.327,1.32.7,2.635,1.071,3.94a2.213,2.213,0,0,0,.845-1.709m25.955-13.979a2.553,2.553,0,1,0,2.538-2.312,2.438,2.438,0,0,0-2.538,2.312m46.556,0a2.553,2.553,0,1,0,2.541-2.312,2.44,2.44,0,0,0-2.541,2.312M919.35,382.607a2.553,2.553,0,1,0,2.544-2.312,2.433,2.433,0,0,0-2.544,2.312M779.682,354.652a2.552,2.552,0,1,0,2.539-2.312,2.438,2.438,0,0,0-2.539,2.312m108.632,13.979a2.551,2.551,0,1,0,2.539-2.318,2.432,2.432,0,0,0-2.539,2.318m-62.078-13.979a2.551,2.551,0,1,0,2.539-2.312,2.441,2.441,0,0,0-2.539,2.312m15.517,0a2.553,2.553,0,1,0,2.544-2.312,2.442,2.442,0,0,0-2.544,2.312m-46.559,0a2.555,2.555,0,1,0,2.545-2.312,2.443,2.443,0,0,0-2.545,2.312M919.35,368.631a2.553,2.553,0,1,0,2.544-2.318,2.435,2.435,0,0,0-2.544,2.318m15.522,0a2.55,2.55,0,1,0,2.539-2.318,2.433,2.433,0,0,0-2.539,2.318m-31.04,0a2.553,2.553,0,1,0,2.546-2.318,2.433,2.433,0,0,0-2.546,2.318M748.641,354.652a2.554,2.554,0,1,0,2.539-2.312,2.441,2.441,0,0,0-2.539,2.312m217.267,13.979a2.552,2.552,0,1,0,2.545-2.318,2.439,2.439,0,0,0-2.545,2.318m-15.52,0a2.55,2.55,0,1,0,2.542-2.318,2.436,2.436,0,0,0-2.542,2.318m-15.516,27.953a2.55,2.55,0,1,0,2.539-2.318,2.433,2.433,0,0,0-2.539,2.318m-62.075,0a2.55,2.55,0,1,0,2.538-2.318,2.43,2.43,0,0,0-2.538,2.318m-15.522,0a2.554,2.554,0,1,0,2.542-2.318,2.435,2.435,0,0,0-2.542,2.318m31.039,0a2.551,2.551,0,1,0,2.539-2.318,2.432,2.432,0,0,0-2.539,2.318m-46.56,0a2.553,2.553,0,1,0,2.544-2.318,2.436,2.436,0,0,0-2.544,2.318m62.078,0a2.553,2.553,0,1,0,2.546-2.318,2.433,2.433,0,0,0-2.546,2.318m15.519,0a2.553,2.553,0,1,0,2.544-2.318,2.435,2.435,0,0,0-2.544,2.318m-155.189,0a2.552,2.552,0,1,0,2.538-2.318,2.431,2.431,0,0,0-2.538,2.318m15.522,0a2.551,2.551,0,1,0,2.539-2.318,2.432,2.432,0,0,0-2.539,2.318m46.554,0a2.55,2.55,0,1,0,2.539-2.318,2.435,2.435,0,0,0-2.539,2.318m93.113,13.981a2.553,2.553,0,1,0,2.544-2.318,2.438,2.438,0,0,0-2.544,2.318m31.037-13.981a2.55,2.55,0,1,0,2.542-2.318,2.435,2.435,0,0,0-2.542,2.318m-139.671,0a2.553,2.553,0,1,0,2.541-2.318,2.434,2.434,0,0,0-2.541,2.318m-15.522,0a2.555,2.555,0,1,0,2.545-2.318,2.437,2.437,0,0,0-2.545,2.318m-31.034-13.977a2.553,2.553,0,1,0,2.538-2.312,2.429,2.429,0,0,0-2.538,2.312m93.115,0a2.554,2.554,0,1,0,2.542-2.312,2.433,2.433,0,0,0-2.542,2.312m-15.522,0a2.553,2.553,0,1,0,2.544-2.312,2.434,2.434,0,0,0-2.544,2.312m-15.517,0a2.551,2.551,0,1,0,2.539-2.312,2.433,2.433,0,0,0-2.539,2.312m62.078,0a2.552,2.552,0,1,0,2.539-2.312,2.43,2.43,0,0,0-2.539,2.312m-15.517,0a2.55,2.55,0,1,0,2.538-2.312,2.429,2.429,0,0,0-2.538,2.312m-62.08,0a2.553,2.553,0,1,0,2.541-2.312,2.432,2.432,0,0,0-2.541,2.312m124.155,27.959a2.55,2.55,0,1,0,2.539-2.318,2.436,2.436,0,0,0-2.539,2.318M753.725,396.584a2.438,2.438,0,0,0-2.545-2.318A2.5,2.5,0,0,0,748.7,396.1q.808,1.345,1.653,2.656a2.633,2.633,0,0,0,.829.139,2.437,2.437,0,0,0,2.545-2.312m-5.084-13.977a2.554,2.554,0,1,0,2.539-2.312,2.433,2.433,0,0,0-2.539,2.312m155.191,0a2.553,2.553,0,1,0,2.546-2.312,2.431,2.431,0,0,0-2.546,2.312m-124.149,0a2.552,2.552,0,1,0,2.539-2.312,2.43,2.43,0,0,0-2.539,2.312m15.513,0a2.555,2.555,0,1,0,2.545-2.312,2.435,2.435,0,0,0-2.545,2.312" transform="translate(423.36 -530.746)" fill="#ffa031"/>
          <path id="Trazado_699616" data-name="Trazado 699616" d="M136.378,280.706a3.757,3.757,0,1,0-3.38-3.741,3.572,3.572,0,0,0,3.38,3.741m-13.309,0a3.757,3.757,0,1,0-3.38-3.741,3.572,3.572,0,0,0,3.38,3.741m13.309-15.768A3.757,3.757,0,1,0,133,261.2a3.572,3.572,0,0,0,3.38,3.741m-13.309,0a3.757,3.757,0,1,0-3.38-3.741,3.572,3.572,0,0,0,3.38,3.741m13.309-15.768A3.757,3.757,0,1,0,133,245.43a3.572,3.572,0,0,0,3.38,3.741m-13.309,0a3.757,3.757,0,1,0-3.38-3.741,3.572,3.572,0,0,0,3.38,3.741M136.378,233.4a3.757,3.757,0,1,0-3.38-3.741,3.571,3.571,0,0,0,3.38,3.741m-13.309,0a3.757,3.757,0,1,0-3.38-3.741,3.571,3.571,0,0,0,3.38,3.741" transform="translate(564.529 -306.784)" fill="#ffa031"/>
          <path id="Trazado_699618" data-name="Trazado 699618" d="M254.481,93.739c0,4.965-3.64,8.99-8.13,8.99s-8.13-4.025-8.13-8.99,3.64-8.99,8.13-8.99,8.13,4.025,8.13,8.99" transform="translate(528.211 45.558)" fill="#0098e8"/>
          <path id="Trazado_699619" data-name="Trazado 699619" d="M692.545,243.457a4.767,4.767,0,1,1-4.743-5.244,5.014,5.014,0,0,1,4.743,5.244" transform="translate(251.987 122.394)" fill="#ffa031"/>
          <path id="Trazado_699620" data-name="Trazado 699620" d="M592.162,81.086a4.767,4.767,0,1,1-4.743-5.244,5.013,5.013,0,0,1,4.743,5.244" transform="translate(242.083 52.968)" fill="#ffa031"/>
          <path id="Trazado_699621" data-name="Trazado 699621" d="M456.557,351.633a4.766,4.766,0,1,1-4.743-5.242,5.014,5.014,0,0,1,4.743,5.242" transform="translate(454.271 -103.756)" fill="#cdeafa"/>
          <path id="Trazado_699622" data-name="Trazado 699622" d="M79.108,257.106a4.767,4.767,0,1,1-4.742-5.244,5.014,5.014,0,0,1,4.742,5.244" transform="translate(360.137 -15.825)" fill="#ffa031"/>
          <path id="Trazado_699624" data-name="Trazado 699624" d="M825.77,184.227c-4.249,0-7.707-3.822-7.707-8.521s3.458-8.523,7.707-8.523,7.706,3.824,7.706,8.523-3.458,8.521-7.706,8.521m0-11.861a3.357,3.357,0,1,0,3.018,3.339,3.2,3.2,0,0,0-3.018-3.339" transform="translate(337.058 51.811)" fill="#ffa031"/>
          <path id="Trazado_699625" data-name="Trazado 699625" d="M206.151,199.044c-4.249,0-7.706-3.822-7.706-8.521S201.9,182,206.151,182s7.706,3.824,7.706,8.523-3.456,8.521-7.706,8.521m0-11.861a3.356,3.356,0,1,0,3.02,3.339,3.2,3.2,0,0,0-3.02-3.339" transform="translate(833.278 -103.991)" fill="#ffa031"/>
        </g>
      </g>
    </g>
    <rect id="Rect치ngulo_345264" data-name="Rect치ngulo 345264" width="1329" height="70" transform="translate(44 5059.627)" fill="url(#linear-gradient)"/>
    <rect id="Rect치ngulo_345282" data-name="Rect치ngulo 345282" width="1329" height="66.286" transform="translate(44 5543.714)" fill="url(#linear-gradient-2)"/>
  </g>
</svg>
