<svg xmlns="http://www.w3.org/2000/svg" xmlns:xlink="http://www.w3.org/1999/xlink" width="1240" height="469" viewBox="0 0 1240 469">
  <defs>
    <clipPath id="clip-path">
      <rect id="Rectangle" width="1240" height="469" rx="20" transform="translate(0 0)" fill="#f6f6f6"/>
    </clipPath>
    <clipPath id="clip-path-2">
      <rect id="Rectángulo_343796" data-name="Rectángulo 343796" width="1241" height="469" rx="20" transform="translate(0 0)" fill="#fceae8"/>
    </clipPath>
    <clipPath id="clip-path-3">
      <path id="Trazado_690250" data-name="Trazado 690250" d="M225.648,0c-11.189.1-19.589,4.588-23.854,12.682-4.1,7.621-4.384,18.491,0,31.937,15.432,46.39,75.86,89.308,112.1,148.706,36.1,59.39,37.507,67.561,37.507,67.561l-3.245,20.4s-46.992-15.689-96.675-59.278c-49.683-43.7-142.245-98.046-165.741-113.065s-57.747-25.433-79.962,0c-7.933,9.082-7.087,19.943-1.129,31.491C15.389,161.165,43,184.132,67.2,203.413c37.789,29.8,122.428,91.877,144.513,105.779,22.215,14,71.888,45.831,82.643,66.564,8.074,15.457,22.226,39.1,24.494,78.207a224,224,0,0,1-2.691,46.063c-10.9,68.128-93.56,44.482-46.851,104.1C316.158,663.622,419.062,723.69,492.22,742.516c63.694,50.428,134.192,177.052,134.192,177.052s58.311,4.588,131.772-19.719A373.888,373.888,0,0,0,917.826,797.085,398.362,398.362,0,0,0,955.767,748.9c-100.354-57.929-189.1-158.785-189.1-158.785,40.057-73.962,46.134-165.727,48.826-223.106-12.871-35.409-59.733-68.351-44.018-156.654,17.125-96.817-11.319-91.774-59.158-63.2-1.281.79-2.55,1.572-3.679,2.354-45.722,30.15-72.463,101.638-43.313,178.624,0,0-1.281,9.632-9.062,11.986-100.918-2.131-170.125-71.831-209.336-121.245-39.341-49.311-111.8-152.177-165.166-194.314C260.615,7.75,241.2.146,226.462,0Z" transform="translate(0)" fill="none"/>
    </clipPath>
    <linearGradient id="linear-gradient" x1="0.168" y1="0.939" x2="0.176" y2="0.939" gradientUnits="objectBoundingBox">
      <stop offset="0" stop-color="#f8c5a1"/>
      <stop offset="0.699" stop-color="#f9bb9a"/>
      <stop offset="1" stop-color="#fab597"/>
    </linearGradient>
    <clipPath id="clip-path-4">
      <path id="Trazado_690251" data-name="Trazado 690251" d="M121.914,33.108c-1.281.79-2.55,1.572-3.679,2.354,38.071-9.744,51.94-3.024,51.94,24.2,0,32.161-40.621,58.943-25.753,77.21,15,18.267,49.238,88.3,45.147,153.406-3.972,65.1-2.691,86.962-24.777,133.008C142.577,469.456,135.925,504.2,59.924,543.865c128.788-11.093,175.356,23.2,210.03,50.772,24.494,19.384,46.427,63.755,57.464,88.406a398.362,398.362,0,0,0,37.941-48.185c-100.354-57.929-189.1-158.785-189.1-158.785C216.321,402.11,222.4,310.345,225.09,252.966c-12.871-35.409-59.733-68.351-44.018-156.654,10.722-60.592,3.592-81.291-14.977-81.291-11.091,0-26.285,7.4-44.181,18.087" transform="translate(-59.924 -15.021)" fill="none"/>
    </clipPath>
    <linearGradient id="linear-gradient-2" x1="-2.129" y1="1.184" x2="-2.094" y2="1.184" gradientUnits="objectBoundingBox">
      <stop offset="0" stop-color="#f7b08a"/>
      <stop offset="0.394" stop-color="#f0a582"/>
      <stop offset="1" stop-color="#e38c72"/>
    </linearGradient>
    <clipPath id="clip-path-5">
      <path id="Trazado_690252" data-name="Trazado 690252" d="M113.706,118.616c-4.254,2.8-13.739,4.932-26.47,6.5a224,224,0,0,1-2.691,46.063c-10.9,68.128-93.56,44.482-46.851,104.1C84.545,334.771,187.45,394.84,260.607,413.665,324.3,464.093,394.8,590.717,394.8,590.717S453.11,595.305,526.571,571c-78.128-7.063-128.94-30.262-160.228-78-38.635-58.943-28.456-115.866-28.456-115.866s-76.142,8.291-161.91-24.428-88.036-92.779-88.036-92.779,45.006-10.2,53.08-31.6c8.2-21.515,18.688-18.267,33.252-24.986,14.586-6.728,29.877-27.684,25.764-40.8-4.243-12.991-47.133-32.711-47.133-32.711L155.315,97.1l-8.5,10.766s-3.527-23.99,9.485-64.554c-13.87,38.553-20.1,60.292-42.6,75.3" transform="translate(-23.508 -43.314)" fill="none"/>
    </clipPath>
    <linearGradient id="linear-gradient-3" x1="-0.416" y1="0.992" x2="-0.395" y2="0.992" xlink:href="#linear-gradient-2"/>
    <clipPath id="clip-path-6">
      <path id="Trazado_690253" data-name="Trazado 690253" d="M28.993,79.714C24.316,85.651,11.716,101.461,17.8,114.9c2.55,5.826,9.908,17.374,22.226,29.257a128.374,128.374,0,0,0,44.3,28.122,128.052,128.052,0,0,0,30.713,6.943c56.607-6.161,90.152-32.943,90.152-74.735C158.909,108.85,63.949,54.5,63.949,54.5,43.557,59.659,33.79,73.888,28.993,79.714" transform="translate(-16.175 -54.504)" fill="none"/>
    </clipPath>
    <linearGradient id="linear-gradient-4" x1="-0.669" y1="2.511" x2="-0.621" y2="2.511" xlink:href="#linear-gradient"/>
    <clipPath id="clip-path-7">
      <path id="Trazado_690254" data-name="Trazado 690254" d="M42.448,0C31.259.1,22.859,4.588,18.594,12.682,61.625,1.7,102.246,25.571,102.246,55.6c0,34.068,18.959,37.2,36.1,45.831s51.094,31.491,51.094,50.763c0,19.384,21.651.335,35.662,44.714s17.125,25.768,43.313,55.136c26.176,29.239,42.032,68.24,84.5,80,42.466,11.875,81.242,25.1,96.675,23.646,15.281-1.461,23.485-15.578,23.485-15.578C372.15,337.984,302.943,268.284,263.732,218.87,224.392,169.559,151.929,66.693,98.567,24.557,77.415,7.75,58,.146,43.262,0Z" transform="translate(-18.594)" fill="none"/>
    </clipPath>
    <linearGradient id="linear-gradient-5" x1="-0.444" y1="2.576" x2="-0.42" y2="2.576" xlink:href="#linear-gradient-2"/>
    <clipPath id="clip-path-8">
      <path id="Trazado_690255" data-name="Trazado 690255" d="M5.774,26.3C-2.159,35.381-1.313,46.242,4.645,57.79,7.326,32.348,25.58,27.425,47.383,27.425c25.189,0,65.962,22.52,76.283,45.041,10.484,22.529,23.919,37.548,55.62,43.932,31.57,6.5,66.385,30.812,69.077,47.962s63.694,30.365,76.283,54.346c12.752,23.981,23.507-20.063,23.507-20.063s-46.992-15.689-96.675-59.278C201.794,95.665,109.232,41.319,85.736,26.3c-13.2-8.429-29.769-15.414-45.711-15.414-12.448,0-24.505,4.262-34.251,15.414" transform="translate(0 -10.885)" fill="none"/>
    </clipPath>
    <linearGradient id="linear-gradient-6" x1="0.006" y1="3.564" x2="0.037" y2="3.564" xlink:href="#linear-gradient-2"/>
    <clipPath id="clip-path-9">
      <path id="Trazado_690256" data-name="Trazado 690256" d="M28.993,79.714C24.316,85.651,11.716,101.461,17.8,114.9c2.55,5.826,9.908,17.374,22.226,29.257,2.116-40.238,19.947-55.36,44.018-48.864,27.587,7.5,60.427,14.908,60.427,31.6,0,13.327-30.138,33.613-60.145,45.384a128.052,128.052,0,0,0,30.713,6.943c56.607-6.161,90.152-32.943,90.152-74.735C158.909,108.85,63.949,54.5,63.949,54.5,43.557,59.659,33.79,73.888,28.993,79.714" transform="translate(-16.175 -54.504)" fill="none"/>
    </clipPath>
    <linearGradient id="linear-gradient-7" x1="-0.884" y1="3.621" x2="-0.828" y2="3.621" xlink:href="#linear-gradient-2"/>
    <clipPath id="clip-path-10">
      <path id="Trazado_690257" data-name="Trazado 690257" d="M49.656,55.664S24.185,78.193,20.223,89.732c-2.127,5.826-1.7,16.36.846,26.782,2.4,10.422,7.076,20.51,13.729,25.777,10.191,8.06,54.068,31.817,91.433,44.937,11.178,3.918,21.792,6.831,30.854,8.171,22.79,3.257,45.993-.894,62.978-8.515,12.177-5.37,20.956-12.433,24.342-19.943,3.679-7.956,5.947-17.485,2.127-26.112-4.808-10.757-19.383-19.943-53.221-22.417,0-19.04-44.441-29.463-44.441-29.463s7.5-26.559-30.138-45.049A212.11,212.11,0,0,0,49.656,55.664" transform="translate(-18.86 -43.901)" fill="none"/>
    </clipPath>
    <linearGradient id="linear-gradient-8" x1="-0.602" y1="2.45" x2="-0.565" y2="2.45" xlink:href="#linear-gradient"/>
    <clipPath id="clip-path-11">
      <path id="Trazado_690258" data-name="Trazado 690258" d="M49.656,55.664S24.185,78.193,20.223,89.732c-2.127,5.826-1.7,16.36.846,26.782C44.837,72.247,61.257,72.591,84.189,74.266c24.918,1.8,33.263,6.393,41.2,28.243,7.781,21.85,56.477,14.452,56.477,38.321,0,19.272-28.455,37.093-55.63,46.4,11.178,3.918,21.792,6.831,30.854,8.171,22.79,3.257,45.993-.894,62.978-8.515,12.177-5.37,20.956-12.433,24.342-19.943,3.679-7.956,5.947-17.485,2.127-26.112-4.808-10.757-19.383-19.943-53.221-22.417,0-19.04-44.441-29.463-44.441-29.463s7.5-26.559-30.138-45.049A212.11,212.11,0,0,0,49.656,55.664" transform="translate(-18.86 -43.901)" fill="none"/>
    </clipPath>
    <linearGradient id="linear-gradient-9" x1="-0.878" y1="3.507" x2="-0.831" y2="3.507" xlink:href="#linear-gradient-2"/>
    <clipPath id="clip-path-12">
      <path id="Trazado_690259" data-name="Trazado 690259" d="M50.575,63.585s4.233,20.4-13.175,37.651C49.577,95.866,58.356,88.8,61.742,81.294c3.679-7.956,5.947-17.485,2.127-26.112a31.775,31.775,0,0,1-13.294,8.4" transform="translate(-37.4 -55.182)" fill="none"/>
    </clipPath>
    <linearGradient id="linear-gradient-10" x1="-6.473" y1="15.843" x2="-6.293" y2="15.843" xlink:href="#linear-gradient-2"/>
    <clipPath id="clip-path-13">
      <path id="Trazado_690260" data-name="Trazado 690260" d="M118.042,267.673C71.7,214.247,68.532,144.426,109.913,88.5c-17.787,3.806-31.852,14.572-37.268,28.518a134.384,134.384,0,0,1,8.3-71.436C20.8,116.424,36.7,211.652,118.042,267.673" transform="translate(-44.585 -45.581)" fill="none"/>
    </clipPath>
    <linearGradient id="linear-gradient-11" x1="-2.662" y1="2.28" x2="-2.595" y2="2.28" xlink:href="#linear-gradient-2"/>
    <clipPath id="clip-path-14">
      <rect id="Rectángulo_343795" data-name="Rectángulo 343795" width="955.755" height="919.911" fill="none"/>
    </clipPath>
  </defs>
  <g id="Grupo_1003694" data-name="Grupo 1003694" transform="translate(-180 -4713)">
    <g id="Rectángulo_33759" data-name="Rectángulo 33759" transform="translate(180 4713)" fill="#ed9aa9" stroke="#707070" stroke-width="1" opacity="0.15">
      <rect width="1240" height="469" rx="15" stroke="none"/>
      <rect x="0.5" y="0.5" width="1239" height="468" rx="14.5" fill="none"/>
    </g>
    <g id="Enmascarar_grupo_62" data-name="Enmascarar grupo 62" transform="translate(180 4713)" clip-path="url(#clip-path)">
      <g id="Grupo_895081" data-name="Grupo 895081" transform="translate(-1 0)">
        <g id="Enmascarar_grupo_61" data-name="Enmascarar grupo 61" transform="translate(0 0)" clip-path="url(#clip-path-2)">
          <g id="Grupo_895080" data-name="Grupo 895080" transform="translate(-183.319 -82.892)" opacity="0.07">
            <g id="Grupo_895057" data-name="Grupo 895057" transform="translate(0)">
              <g id="Grupo_895056" data-name="Grupo 895056" clip-path="url(#clip-path-3)">
                <path id="Trazado_691847" data-name="Trazado 691847" d="M0,0,1178.105,102.107l93.723,1282.256L93.723,1282.256Z" transform="matrix(0.367, -0.93, 0.93, 0.367, -400.329, 799.924)" fill="url(#linear-gradient)"/>
              </g>
            </g>
            <g id="Grupo_895059" data-name="Grupo 895059" transform="translate(650.331 129.064)">
              <g id="Grupo_895058" data-name="Grupo 895058" clip-path="url(#clip-path-4)">
                <rect id="Rectángulo_343785" data-name="Rectángulo 343785" width="305.435" height="668.021" transform="translate(0 0)" fill="url(#linear-gradient-2)"/>
              </g>
            </g>
            <g id="Grupo_895061" data-name="Grupo 895061" transform="translate(255.121 372.164)">
              <g id="Grupo_895060" data-name="Grupo 895060" clip-path="url(#clip-path-5)">
                <rect id="Rectángulo_343786" data-name="Rectángulo 343786" width="535.586" height="551.991" transform="translate(-32.523 0)" fill="url(#linear-gradient-3)"/>
              </g>
            </g>
            <g id="Grupo_895063" data-name="Grupo 895063" transform="translate(175.54 468.312)">
              <g id="Grupo_895062" data-name="Grupo 895062" clip-path="url(#clip-path-6)">
                <path id="Trazado_691848" data-name="Trazado 691848" d="M0,0,191.641,19.574l20.876,233.511L20.876,233.511Z" transform="translate(-69.061 98.031) rotate(-62.447)" fill="url(#linear-gradient-4)"/>
              </g>
            </g>
            <g id="Grupo_895065" data-name="Grupo 895065" transform="translate(201.794)">
              <g id="Grupo_895064" data-name="Grupo 895064" clip-path="url(#clip-path-7)">
                <rect id="Rectángulo_343788" data-name="Rectángulo 343788" width="454.474" height="357.145" transform="translate(0)" fill="url(#linear-gradient-5)"/>
              </g>
            </g>
            <g id="Grupo_895067" data-name="Grupo 895067" transform="translate(0 93.527)">
              <g id="Grupo_895066" data-name="Grupo 895066" clip-path="url(#clip-path-8)">
                <rect id="Rectángulo_343789" data-name="Rectángulo 343789" width="350.311" height="231.802" transform="translate(-2.159 0)" fill="url(#linear-gradient-6)"/>
              </g>
            </g>
            <g id="Grupo_895069" data-name="Grupo 895069" transform="translate(175.54 468.312)">
              <g id="Grupo_895068" data-name="Grupo 895068" clip-path="url(#clip-path-9)">
                <rect id="Rectángulo_343790" data-name="Rectángulo 343790" width="193.48" height="124.716" transform="translate(-4.459 0)" fill="url(#linear-gradient-7)"/>
              </g>
            </g>
            <g id="Grupo_895071" data-name="Grupo 895071" transform="translate(204.685 377.208)">
              <g id="Grupo_895070" data-name="Grupo 895070" clip-path="url(#clip-path-10)">
                <path id="Trazado_691849" data-name="Trazado 691849" d="M0,0,247.811,27.612l28.644,282.645L28.644,282.645Z" transform="translate(-90.005 108.925) rotate(-57.031)" fill="url(#linear-gradient-8)"/>
              </g>
            </g>
            <g id="Grupo_895073" data-name="Grupo 895073" transform="translate(204.685 377.208)">
              <g id="Grupo_895072" data-name="Grupo 895072" clip-path="url(#clip-path-11)">
                <rect id="Rectángulo_343792" data-name="Rectángulo 343792" width="232.256" height="154.755" transform="translate(-0.764 0)" fill="url(#linear-gradient-9)"/>
              </g>
            </g>
            <g id="Grupo_895075" data-name="Grupo 895075" transform="translate(405.888 474.137)">
              <g id="Grupo_895074" data-name="Grupo 895074" clip-path="url(#clip-path-12)">
                <path id="Trazado_691850" data-name="Trazado 691850" d="M0,0,47.886.992l.572,34.751L.572,34.751Z" transform="matrix(0.079, -0.997, 0.997, 0.079, -4.588, 45.766)" fill="url(#linear-gradient-10)"/>
              </g>
            </g>
            <g id="Grupo_895077" data-name="Grupo 895077" transform="translate(483.868 391.643)">
              <g id="Grupo_895076" data-name="Grupo 895076" clip-path="url(#clip-path-13)">
                <path id="Trazado_691851" data-name="Trazado 691851" d="M0,0,159,7.707l14.159,237.454-159-7.707Z" transform="matrix(0.972, -0.237, 0.237, 0.972, -88.302, 12.446)" fill="url(#linear-gradient-11)"/>
              </g>
            </g>
            <g id="Grupo_895079" data-name="Grupo 895079" transform="translate(0.001)">
              <g id="Grupo_895078" data-name="Grupo 895078" clip-path="url(#clip-path-14)">
                <path id="Trazado_690261" data-name="Trazado 690261" d="M61.26,42.4c2.854-1.8,5.936-3.325,8.964-4.992,3.234-1.323,6.446-2.724,9.778-3.944a103.829,103.829,0,0,1,21.152-5.069,89.983,89.983,0,0,1,22.237-.172c7.315.971,14.673,2.707,20.533,6.307a107.235,107.235,0,0,0-20.978-2.011,167.188,167.188,0,0,0-20.663,1.4C95.4,34.666,88.7,36.178,81.837,37.5Z" transform="translate(603.57 209.594)" fill="#e08172"/>
                <path id="Trazado_690262" data-name="Trazado 690262" d="M33.623,53.98C46.614,50.5,59.3,47.725,71.173,43.489a126.026,126.026,0,0,0,17.169-7.1,58.431,58.431,0,0,0,14.727-10.311c-1.617,5.4-6.273,9.958-11.384,13.7a66.273,66.273,0,0,1-17.679,8.841,104.2,104.2,0,0,1-19.882,4.6l-10.223.9c-3.451-.052-6.848.077-10.277-.146" transform="translate(331.274 198.013)" fill="#e08172"/>
                <path id="Trazado_690263" data-name="Trazado 690263" d="M29.627,45.806c9.778-4.365,19.133-8.094,27.859-12.691A113.512,113.512,0,0,0,81.578,16.842c-1.031,4.442-4.1,8.395-7.6,11.926A52.738,52.738,0,0,1,61.371,37.79a70.531,70.531,0,0,1-15.259,5.722,71.443,71.443,0,0,1-16.485,2.294" transform="translate(291.903 127.869)" fill="#e08172"/>
                <path id="Trazado_690264" data-name="Trazado 690264" d="M24.8,31.956C30.475,25.838,38.083,21.37,46.038,17.65c8.1-3.557,16.68-6.5,26.187-7.51C65.051,15.132,57.357,18.861,49.554,22.5c-3.983,1.71-7.868,3.514-12.025,5.026-4.113,1.555-8.183,3.179-12.73,4.425" transform="translate(244.334 76.985)" fill="#e08172"/>
                <path id="Trazado_690265" data-name="Trazado 690265" d="M9.94,59.548c5.708-2.569,11.363-4.683,16.485-7.475A108.69,108.69,0,0,0,40.935,43.2,104.929,104.929,0,0,0,64.149,20.213c-.543,5.2-2.974,10.165-6.132,14.761A50.082,50.082,0,0,1,45.7,47.339,67.462,67.462,0,0,1,9.94,59.548" transform="translate(97.935 153.462)" fill="#e08172"/>
                <path id="Trazado_690266" data-name="Trazado 690266" d="M19.6,74.572c4.015-3.875,8.237-7.269,11.97-11.032,3.766-3.7,7.488-7.381,10.885-11.264a303.351,303.351,0,0,0,19.6-24.2c-.434,5.009-2.333,9.8-4.7,14.409A59.58,59.58,0,0,1,48.2,55.54,70.23,70.23,0,0,1,19.6,74.572" transform="translate(193.071 213.183)" fill="#e08172"/>
                <path id="Trazado_690267" data-name="Trazado 690267" d="M29.627,73.9c1.519-3.7,3.527-7.011,5.285-10.414L40.4,53.5c3.8-6.6,7.347-13.181,11.808-20.011a28.6,28.6,0,0,1-.944,11.428,44.415,44.415,0,0,1-4.406,10.861A50.384,50.384,0,0,1,29.627,73.9" transform="translate(291.903 254.272)" fill="#e08172"/>
                <path id="Trazado_690268" data-name="Trazado 690268" d="M20.885,89.716C20,81.037,23.534,72.144,29.7,64.841a48.117,48.117,0,0,1,11.167-9.709,46.338,46.338,0,0,1,14.347-6.367c-7.423,6.35-14.054,12.424-19.643,19.2a104.189,104.189,0,0,0-7.846,10.4c-2.529,3.592-4.363,7.432-6.837,11.359" transform="translate(204.436 370.236)" fill="#e08172"/>
                <path id="Trazado_690269" data-name="Trazado 690269" d="M33.592,95.275c3.028-3.385,6.284-6.29,9.105-9.46,2.854-3.128,5.589-6.247,8.1-9.477A154.706,154.706,0,0,0,64.446,55.716c.76,4.124-.054,8.266-1.389,12.244a37.289,37.289,0,0,1-6.262,11.333,49.2,49.2,0,0,1-23.2,15.982" transform="translate(330.968 423.009)" fill="#e08172"/>
                <path id="Trazado_690270" data-name="Trazado 690270" d="M26.672,102.386c3.657-3.2,7.239-6.049,10.408-9.211,3.082-3.2,6.273-6.264,9.073-9.615C52,77,57.222,70.122,63.256,63.042a34.528,34.528,0,0,1-3.733,12.416,51.481,51.481,0,0,1-7.575,11.307C45.729,93.7,37.145,99.9,26.672,102.386" transform="translate(262.788 478.63)" fill="#e08172"/>
                <path id="Trazado_690271" data-name="Trazado 690271" d="M17.769,100.6c-.695-8.326,2.464-16.42,6.62-23.8,4.45-7.312,9.974-14.272,17.777-19.831-3.1,7.9-7.26,15.011-11.363,22.177-4.276,7.132-8.335,14.083-13.034,21.455" transform="translate(174.126 432.492)" fill="#e08172"/>
                <path id="Trazado_690272" data-name="Trazado 690272" d="M46.422,114.887l19.546-7.9c6.349-2.758,12.8-5.3,19.057-8.145,12.708-5.448,25.124-11.239,38.3-16.669a101.519,101.519,0,0,1-16.3,11.952,152.185,152.185,0,0,1-18.59,9.623c-13,5.568-27.164,9.924-42.01,11.144" transform="translate(457.377 623.839)" fill="#e08172"/>
                <path id="Trazado_690273" data-name="Trazado 690273" d="M178.934,69.587c-4.981,8.988-13.164,16.764-22.1,23.569a185.016,185.016,0,0,1-29.562,17.923A263.612,263.612,0,0,1,59,133.427c22.2-8.463,44-16.909,64.529-27.1,20.435-10.2,40.361-21.3,55.4-36.74" transform="translate(581.323 528.321)" fill="#e08172"/>
              </g>
            </g>
          </g>
        </g>
      </g>
    </g>
  </g>
</svg>
