<svg xmlns="http://www.w3.org/2000/svg" xmlns:xlink="http://www.w3.org/1999/xlink" width="202.773" height="208.331" viewBox="0 0 202.773 208.331">
  <defs>
    <clipPath id="clip-path">
      <path id="Trazado_715417" data-name="Trazado 715417" d="M139.431,165.738c4.512-5.523,8.478-11.936,14.341-16.352,5.84-4.4,13.942-6.353,20.216-10.242a85.794,85.794,0,0,0,13.551-10.126,37.729,37.729,0,0,1-8.224,8.994c-4.272,3.355-9.541,5.438-14.351,7.881a43.264,43.264,0,0,0-12.443,8.968c-6.928,7.468-13.1,15.675-22.126,20.766a54.462,54.462,0,0,1-5.869,2.859,50.7,50.7,0,0,0,14.9-12.749m48.951-95.3c-7.341-6.406-16.522-10.056-24.552-15.451-6.462-4.343-11.279-14.251-14.433-20.8-4.259-8.85-10.622-18.968-18.915-25.053a42.636,42.636,0,0,0-10.557-5.574c2.269.5,4.535,1.006,6.759,1.688a29.217,29.217,0,0,1,10.845,6.49,61.18,61.18,0,0,1,12.919,16.939c2.922,5.612,4.752,11.787,8.344,17.043,3.261,4.772,7.9,8.352,12.724,11.419,10.5,6.674,22.445,11.911,27.177,24.376,1.878,4.945,1.907,10.55,1.473,15.846-.158-10.089-3.825-19.973-11.785-26.919M98.242,0C76.1.017,52.226,9.558,41.731,24.676c-5.638,8.118-6.2,13.983-5.526,23.293.985,13.588-3.478,21.17-13.349,30.406C14.934,85.789,7.36,94.217,3.6,103.944q.334-1.245.752-2.472C6.7,94.6,11.148,88.511,15.888,83.1c4.286-4.9,9.462-9.027,13.151-14.431C36.86,57.2,31.6,43.254,35.394,30.731,39.5,17.2,54.185,11.174,66.1,6.373c.359-.144-.261-.332-.435-.276C53.681,9.927,40.25,16.184,34.643,28.212,32.061,33.747,32,40.1,31.917,46.078c-.115,8.041-.454,15.348-4.974,22.306-3.834,5.9-9.77,10.411-14.341,15.737A54.382,54.382,0,0,0,1.609,102.962c-3.224,10.262-1.507,23.4,4.286,33a95.744,95.744,0,0,0,7.759,14.025c16.439,24.956,50.062,33.477,78.229,34.578,8.97.35,16.817-.291,23.853-2.41a28.986,28.986,0,0,0,5.582-1.348c2.96-1.072,5.961-2.393,8.811-3.709,9.88-4.562,16.817-13.184,24.156-20.886,8.046-8.442,19.5-10.893,28.513-17.885a36.444,36.444,0,0,0,9.889-12.171A27.968,27.968,0,0,0,195.6,117.9q.842-1.736,1.537-3.545c5.778-8.757,6.888-21.369,4.353-31.155-3.281-12.669-15.422-19.047-25.8-25.177-5.689-3.36-11.058-7.2-15.019-12.564-3.925-5.319-6.131-11.844-9.216-17.652a63.666,63.666,0,0,0-12.873-16.377c-5.431-5-11.9-7-19.019-8.293-.6-.108-1.194-.212-1.79-.315a57.181,57.181,0,0,0-7.225-1.774A69.861,69.861,0,0,0,98.343,0Z" transform="translate(0 -0.004)" fill="#4db1f0"/>
    </clipPath>
    <filter id="Rectángulo_33844" x="155.604" y="104.768" width="40.469" height="27.557" filterUnits="userSpaceOnUse">
      <feOffset dy="3" input="SourceAlpha"/>
      <feGaussianBlur stdDeviation="3" result="blur"/>
      <feFlood flood-opacity="0.161"/>
      <feComposite operator="in" in2="blur"/>
      <feComposite in="SourceGraphic"/>
    </filter>
    <filter id="Trazado_113690" x="163.765" y="111.237" width="37.857" height="28.152" filterUnits="userSpaceOnUse">
      <feOffset dy="3" input="SourceAlpha"/>
      <feGaussianBlur stdDeviation="3" result="blur-2"/>
      <feFlood flood-opacity="0.161"/>
      <feComposite operator="in" in2="blur-2"/>
      <feComposite in="SourceGraphic"/>
    </filter>
    <filter id="Rectángulo_33844-2" x="7.696" y="8.894" width="40.469" height="27.557" filterUnits="userSpaceOnUse">
      <feOffset dy="3" input="SourceAlpha"/>
      <feGaussianBlur stdDeviation="3" result="blur-3"/>
      <feFlood flood-opacity="0.161"/>
      <feComposite operator="in" in2="blur-3"/>
      <feComposite in="SourceGraphic"/>
    </filter>
    <filter id="Trazado_113690-2" x="15.857" y="16.197" width="37.857" height="26.485" filterUnits="userSpaceOnUse">
      <feOffset dy="3" input="SourceAlpha"/>
      <feGaussianBlur stdDeviation="3" result="blur-4"/>
      <feFlood flood-opacity="0.161"/>
      <feComposite operator="in" in2="blur-4"/>
      <feComposite in="SourceGraphic"/>
    </filter>
    <filter id="Trazado_113638" x="62.438" y="8.251" width="60.085" height="60.085" filterUnits="userSpaceOnUse">
      <feOffset dy="3" input="SourceAlpha"/>
      <feGaussianBlur stdDeviation="3" result="blur-5"/>
      <feFlood flood-opacity="0.161"/>
      <feComposite operator="in" in2="blur-5"/>
      <feComposite in="SourceGraphic"/>
    </filter>
  </defs>
  <g id="Grupo_1010443" data-name="Grupo 1010443" transform="translate(8764.26 6522.023)">
    <g id="Grupo_1008389" data-name="Grupo 1008389" transform="translate(-9761.033 -9700.535)">
      <g id="Grupo_1006262" data-name="Grupo 1006262" transform="translate(996.774 3178.512)">
        <g id="Grupo_1006260" data-name="Grupo 1006260" transform="translate(0 0)" clip-path="url(#clip-path)">
          <rect id="Rectángulo_346887" data-name="Rectángulo 346887" width="205.641" height="184.911" transform="translate(-1.615 0)" fill="#4db1f0"/>
        </g>
      </g>
      <g id="Grupo_1006266" data-name="Grupo 1006266" transform="translate(1161.377 3286.168)">
        <g id="Grupo_1006264" data-name="Grupo 1006264" transform="translate(0 3.111)">
          <g transform="matrix(1, 0, 0, 1, -164.6, -110.77)" filter="url(#Rectángulo_33844)">
            <rect id="Rectángulo_33844-3" data-name="Rectángulo 33844" width="22.469" height="9.557" rx="3" transform="translate(164.6 110.77)" fill="#f9e8dc"/>
          </g>
          <g transform="matrix(1, 0, 0, 1, -164.6, -110.77)" filter="url(#Trazado_113690)">
            <path id="Trazado_113690-3" data-name="Trazado 113690" d="M2.542,10.152H17.315a2.542,2.542,0,0,0,2.542-2.542V2.542A2.542,2.542,0,0,0,17.315,0H2.542A2.542,2.542,0,0,0,0,2.542V7.609a2.542,2.542,0,0,0,2.542,2.542" transform="translate(172.76 117.24)" fill="#4db1f0"/>
          </g>
          <path id="Trazado_113691" data-name="Trazado 113691" d="M2.47,1.235A1.235,1.235,0,1,0,1.235,2.47,1.235,1.235,0,0,0,2.47,1.235" transform="translate(11.735 10.311)" fill="#fff"/>
          <path id="Trazado_113692" data-name="Trazado 113692" d="M2.47,1.235A1.235,1.235,0,1,0,1.235,2.47,1.235,1.235,0,0,0,2.47,1.235" transform="translate(16.855 10.311)" fill="#fff"/>
          <path id="Trazado_113693" data-name="Trazado 113693" d="M2.47,1.235A1.235,1.235,0,1,0,1.235,2.47,1.235,1.235,0,0,0,2.47,1.235" transform="translate(21.974 10.311)" fill="#fff"/>
        </g>
        <g id="Grupo_1006265" data-name="Grupo 1006265" transform="translate(17.53 0)">
          <path id="Trazado_113641" data-name="Trazado 113641" d="M1519.9,262.293a.651.651,0,1,1-.652-.651.652.652,0,0,1,.652.651" transform="translate(-1518.599 -261.642)" fill="#0098e8"/>
          <path id="Trazado_113642" data-name="Trazado 113642" d="M1571.577,262.293a.651.651,0,1,1-.651-.651.651.651,0,0,1,.651.651" transform="translate(-1567.408 -261.642)" fill="#0098e8"/>
          <path id="Trazado_113643" data-name="Trazado 113643" d="M1623.252,262.293a.652.652,0,1,1-.651-.651.651.651,0,0,1,.651.651" transform="translate(-1616.216 -261.642)" fill="#0098e8"/>
          <path id="Trazado_113644" data-name="Trazado 113644" d="M1674.927,262.293a.652.652,0,1,1-.651-.651.651.651,0,0,1,.651.651" transform="translate(-1665.024 -261.642)" fill="#0098e8"/>
          <path id="Trazado_113646" data-name="Trazado 113646" d="M1519.9,311.619a.651.651,0,1,1-.652-.651.652.652,0,0,1,.652.651" transform="translate(-1518.599 -308.232)" fill="#0098e8"/>
          <path id="Trazado_113647" data-name="Trazado 113647" d="M1571.577,311.619a.651.651,0,1,1-.651-.651.651.651,0,0,1,.651.651" transform="translate(-1567.408 -308.232)" fill="#0098e8"/>
          <path id="Trazado_113648" data-name="Trazado 113648" d="M1623.252,311.619a.652.652,0,1,1-.651-.651.651.651,0,0,1,.651.651" transform="translate(-1616.216 -308.232)" fill="#0098e8"/>
          <path id="Trazado_113649" data-name="Trazado 113649" d="M1674.927,311.619a.652.652,0,1,1-.651-.651.651.651,0,0,1,.651.651" transform="translate(-1665.024 -308.232)" fill="#0098e8"/>
          <path id="Trazado_113651" data-name="Trazado 113651" d="M1519.9,360.945a.651.651,0,1,1-.652-.651.652.652,0,0,1,.652.651" transform="translate(-1518.599 -354.822)" fill="#0098e8"/>
          <path id="Trazado_113652" data-name="Trazado 113652" d="M1571.577,360.945a.651.651,0,1,1-.651-.651.651.651,0,0,1,.651.651" transform="translate(-1567.408 -354.822)" fill="#0098e8"/>
          <path id="Trazado_113653" data-name="Trazado 113653" d="M1623.252,360.945a.652.652,0,1,1-.651-.651.651.651,0,0,1,.651.651" transform="translate(-1616.216 -354.822)" fill="#0098e8"/>
          <path id="Trazado_113654" data-name="Trazado 113654" d="M1674.927,360.945a.652.652,0,1,1-.651-.651.651.651,0,0,1,.651.651" transform="translate(-1665.024 -354.822)" fill="#0098e8"/>
          <path id="Trazado_113656" data-name="Trazado 113656" d="M1519.9,410.272a.651.651,0,1,1-.652-.652.652.652,0,0,1,.652.652" transform="translate(-1518.599 -401.412)" fill="#0098e8"/>
          <path id="Trazado_113657" data-name="Trazado 113657" d="M1571.577,410.272a.651.651,0,1,1-.651-.652.651.651,0,0,1,.651.652" transform="translate(-1567.408 -401.412)" fill="#0098e8"/>
          <path id="Trazado_113658" data-name="Trazado 113658" d="M1623.252,410.272a.652.652,0,1,1-.651-.652.651.651,0,0,1,.651.652" transform="translate(-1616.216 -401.412)" fill="#0098e8"/>
          <path id="Trazado_113659" data-name="Trazado 113659" d="M1674.927,410.272a.652.652,0,1,1-.651-.652.651.651,0,0,1,.651.652" transform="translate(-1665.024 -401.412)" fill="#0098e8"/>
          <path id="Trazado_113661" data-name="Trazado 113661" d="M1519.9,459.6a.651.651,0,1,1-.652-.651.652.652,0,0,1,.652.651" transform="translate(-1518.599 -448.002)" fill="#0098e8"/>
          <path id="Trazado_113662" data-name="Trazado 113662" d="M1571.577,459.6a.651.651,0,1,1-.651-.651.651.651,0,0,1,.651.651" transform="translate(-1567.408 -448.002)" fill="#0098e8"/>
          <path id="Trazado_113663" data-name="Trazado 113663" d="M1623.252,459.6a.652.652,0,1,1-.651-.651.651.651,0,0,1,.651.651" transform="translate(-1616.216 -448.002)" fill="#0098e8"/>
          <path id="Trazado_113664" data-name="Trazado 113664" d="M1674.927,459.6a.652.652,0,1,1-.651-.651.651.651,0,0,1,.651.651" transform="translate(-1665.024 -448.002)" fill="#0098e8"/>
        </g>
      </g>
      <g id="Grupo_1006268" data-name="Grupo 1006268" transform="translate(1013.469 3190.294)">
        <g id="Grupo_1006264-2" data-name="Grupo 1006264" transform="translate(0 3.111)">
          <g transform="matrix(1, 0, 0, 1, -16.7, -14.89)" filter="url(#Rectángulo_33844-2)">
            <rect id="Rectángulo_33844-4" data-name="Rectángulo 33844" width="22.469" height="9.557" rx="3" transform="translate(16.7 14.89)" fill="#f9e8dc"/>
          </g>
          <g transform="matrix(1, 0, 0, 1, -16.7, -14.89)" filter="url(#Trazado_113690-2)">
            <path id="Trazado_113690-4" data-name="Trazado 113690" d="M2.542,8.485H17.315A2.362,2.362,0,0,0,19.857,6.36V2.125A2.362,2.362,0,0,0,17.315,0H2.542A2.362,2.362,0,0,0,0,2.125V6.36A2.362,2.362,0,0,0,2.542,8.485" transform="translate(24.86 22.2)" fill="#4db1f0"/>
          </g>
          <path id="Trazado_113691-2" data-name="Trazado 113691" d="M2.47,1.235A1.235,1.235,0,1,0,1.235,2.47,1.235,1.235,0,0,0,2.47,1.235" transform="translate(11.735 10.311)" fill="#fff"/>
          <path id="Trazado_113692-2" data-name="Trazado 113692" d="M2.47,1.235A1.235,1.235,0,1,0,1.235,2.47,1.235,1.235,0,0,0,2.47,1.235" transform="translate(16.855 10.311)" fill="#fff"/>
          <path id="Trazado_113693-2" data-name="Trazado 113693" d="M2.47,1.235A1.235,1.235,0,1,0,1.235,2.47,1.235,1.235,0,0,0,2.47,1.235" transform="translate(21.974 10.311)" fill="#fff"/>
        </g>
        <g id="Grupo_1006265-2" data-name="Grupo 1006265" transform="translate(17.53)">
          <path id="Trazado_113641-2" data-name="Trazado 113641" d="M1519.9,262.293a.651.651,0,1,1-.652-.651.652.652,0,0,1,.652.651" transform="translate(-1518.599 -261.642)" fill="#0098e8"/>
          <path id="Trazado_113642-2" data-name="Trazado 113642" d="M1571.577,262.293a.651.651,0,1,1-.651-.651.651.651,0,0,1,.651.651" transform="translate(-1567.408 -261.642)" fill="#0098e8"/>
          <path id="Trazado_113643-2" data-name="Trazado 113643" d="M1623.252,262.293a.652.652,0,1,1-.651-.651.651.651,0,0,1,.651.651" transform="translate(-1616.216 -261.642)" fill="#0098e8"/>
          <path id="Trazado_113644-2" data-name="Trazado 113644" d="M1674.927,262.293a.652.652,0,1,1-.651-.651.651.651,0,0,1,.651.651" transform="translate(-1665.024 -261.642)" fill="#0098e8"/>
          <path id="Trazado_113646-2" data-name="Trazado 113646" d="M1519.9,311.619a.651.651,0,1,1-.652-.651.652.652,0,0,1,.652.651" transform="translate(-1518.599 -308.232)" fill="#0098e8"/>
          <path id="Trazado_113647-2" data-name="Trazado 113647" d="M1571.577,311.619a.651.651,0,1,1-.651-.651.651.651,0,0,1,.651.651" transform="translate(-1567.408 -308.232)" fill="#0098e8"/>
          <path id="Trazado_113648-2" data-name="Trazado 113648" d="M1623.252,311.619a.652.652,0,1,1-.651-.651.651.651,0,0,1,.651.651" transform="translate(-1616.216 -308.232)" fill="#0098e8"/>
          <path id="Trazado_113649-2" data-name="Trazado 113649" d="M1674.927,311.619a.652.652,0,1,1-.651-.651.651.651,0,0,1,.651.651" transform="translate(-1665.024 -308.232)" fill="#0098e8"/>
          <path id="Trazado_113651-2" data-name="Trazado 113651" d="M1519.9,360.945a.651.651,0,1,1-.652-.651.652.652,0,0,1,.652.651" transform="translate(-1518.599 -354.822)" fill="#0098e8"/>
          <path id="Trazado_113652-2" data-name="Trazado 113652" d="M1571.577,360.945a.651.651,0,1,1-.651-.651.651.651,0,0,1,.651.651" transform="translate(-1567.408 -354.822)" fill="#0098e8"/>
          <path id="Trazado_113653-2" data-name="Trazado 113653" d="M1623.252,360.945a.652.652,0,1,1-.651-.651.651.651,0,0,1,.651.651" transform="translate(-1616.216 -354.822)" fill="#0098e8"/>
          <path id="Trazado_113654-2" data-name="Trazado 113654" d="M1674.927,360.945a.652.652,0,1,1-.651-.651.651.651,0,0,1,.651.651" transform="translate(-1665.024 -354.822)" fill="#0098e8"/>
          <path id="Trazado_113656-2" data-name="Trazado 113656" d="M1519.9,410.272a.651.651,0,1,1-.652-.652.652.652,0,0,1,.652.652" transform="translate(-1518.599 -401.412)" fill="#0098e8"/>
          <path id="Trazado_113657-2" data-name="Trazado 113657" d="M1571.577,410.272a.651.651,0,1,1-.651-.652.651.651,0,0,1,.651.652" transform="translate(-1567.408 -401.412)" fill="#0098e8"/>
          <path id="Trazado_113658-2" data-name="Trazado 113658" d="M1623.252,410.272a.652.652,0,1,1-.651-.652.651.651,0,0,1,.651.652" transform="translate(-1616.216 -401.412)" fill="#0098e8"/>
          <path id="Trazado_113659-2" data-name="Trazado 113659" d="M1674.927,410.272a.652.652,0,1,1-.651-.652.651.651,0,0,1,.651.652" transform="translate(-1665.024 -401.412)" fill="#0098e8"/>
          <path id="Trazado_113661-2" data-name="Trazado 113661" d="M1519.9,459.6a.651.651,0,1,1-.652-.651.652.652,0,0,1,.652.651" transform="translate(-1518.599 -448.002)" fill="#0098e8"/>
          <path id="Trazado_113662-2" data-name="Trazado 113662" d="M1571.577,459.6a.651.651,0,1,1-.651-.651.651.651,0,0,1,.651.651" transform="translate(-1567.408 -448.002)" fill="#0098e8"/>
          <path id="Trazado_113663-2" data-name="Trazado 113663" d="M1623.252,459.6a.652.652,0,1,1-.651-.651.651.651,0,0,1,.651.651" transform="translate(-1616.216 -448.002)" fill="#0098e8"/>
          <path id="Trazado_113664-2" data-name="Trazado 113664" d="M1674.927,459.6a.652.652,0,1,1-.651-.651.651.651,0,0,1,.651.651" transform="translate(-1665.024 -448.002)" fill="#0098e8"/>
        </g>
      </g>
      <g id="Grupo_1006267" data-name="Grupo 1006267" transform="translate(1068.211 3192.763)">
        <g id="Grupo_1003557" data-name="Grupo 1003557" transform="translate(0 0)">
          <path id="Trazado_113637" data-name="Trazado 113637" d="M1040.61,464.667a26.186,26.186,0,1,0-26.186,26.186,26.186,26.186,0,0,0,26.186-26.186" transform="translate(-986.705 -438.48)" fill="#0098e8"/>
          <g transform="matrix(1, 0, 0, 1, -71.44, -14.25)" filter="url(#Trazado_113638)">
            <path id="Trazado_113638-2" data-name="Trazado 113638" d="M1105.412,534.612a21.043,21.043,0,1,0-21.043,21.043,21.043,21.043,0,0,0,21.043-21.043" transform="translate(-991.89 -499.32)" fill="#fff" opacity="0.5"/>
          </g>
        </g>
      </g>
    </g>
    <g id="_5100167" data-name="5100167" transform="translate(-8749.589 -6492.612)">
      <g id="Background_Complete" data-name="Background Complete" transform="translate(0 11.411)">
        <g id="Grupo_1006939" data-name="Grupo 1006939" transform="translate(149.775 108.724)">
          <path id="Trazado_717754" data-name="Trazado 717754" d="M4.47,0h7.223a4.47,4.47,0,0,1,4.47,4.47v7.223a4.47,4.47,0,0,1-4.47,4.47H4.47A4.47,4.47,0,0,1,0,11.693V4.47A4.47,4.47,0,0,1,4.47,0Z" fill="#112e4c"/>
          <path id="Trazado_717583" data-name="Trazado 717583" d="M35.471,314.99l.3-.253-3.267-3.884a1.139,1.139,0,0,0-1.566-.277l-1.962,1.305-2.294-2.9a1.153,1.153,0,0,0-1.748-.067l-2.8,3.025.289.269,2.8-3.025a.74.74,0,0,1,.585-.241.759.759,0,0,1,.566.289l2.519,3.184,2.262-1.511a.751.751,0,0,1,1.036.19l3.278,3.9Z" transform="translate(-20.871 -302.141)" fill="#fff"/>
          <path id="Trazado_717584" data-name="Trazado 717584" d="M32.08,300.753a1.443,1.443,0,1,0,1.443-1.443A1.444,1.444,0,0,0,32.08,300.753Z" transform="translate(-23.996 -296.557)" fill="#fff"/>
        </g>
        <g id="Grupo_1006940" data-name="Grupo 1006940" transform="translate(0 40.178)">
          <path id="Trazado_717585" data-name="Trazado 717585" d="M330.508,141.074a5.933,5.933,0,0,0,.15-1.337,11.159,11.159,0,0,1,.178-1.606,15.382,15.382,0,0,1,.423-2.159,20.153,20.153,0,0,1,2.242-5.556,20.863,20.863,0,0,1,5.165-5.952,20.586,20.586,0,0,1,19.4-3.338,19.261,19.261,0,0,1,5.248,2.677,23.629,23.629,0,0,1,2.369,1.922,23.239,23.239,0,0,1,2.06,2.329,20.414,20.414,0,0,1,.589,24.207,18.717,18.717,0,0,1-4.22,4.465,19.274,19.274,0,0,1-5.113,2.93,20.74,20.74,0,0,1-24.994-8.084,20.194,20.194,0,0,1-2.507-5.442,15.426,15.426,0,0,1-.526-2.136,10.856,10.856,0,0,1-.257-1.6,5.951,5.951,0,0,0-.217-1.329,5.942,5.942,0,0,0-.016,1.349,9.265,9.265,0,0,0,.15,1.633,14.545,14.545,0,0,0,.431,2.2,19.8,19.8,0,0,0,2.4,5.663,21.343,21.343,0,0,0,14.625,9.883,21.527,21.527,0,0,0,11.3-1.151A20.3,20.3,0,0,0,364.8,157.6a23.938,23.938,0,0,0,2.4-2.136,24.427,24.427,0,0,0,2.064-2.551,21.464,21.464,0,0,0-.621-25.552,19.7,19.7,0,0,0-4.69-4.465,20.219,20.219,0,0,0-5.545-2.784,21.544,21.544,0,0,0-11.346-.6,21.336,21.336,0,0,0-14.126,10.583,19.9,19.9,0,0,0-2.12,5.774,14.519,14.519,0,0,0-.324,2.219,9.458,9.458,0,0,0-.071,1.637,5.661,5.661,0,0,0,.083,1.349Z" transform="translate(-330.413 -119.023)" fill="#ebebeb"/>
          <path id="Trazado_717586" data-name="Trazado 717586" d="M344.089,140.289c-.048.063.332.4,1.068.941.4.289.85.613,1.356.973.269.182.55.392.862.589.332.174.676.352,1.036.542a23.735,23.735,0,0,0,12.374,3.116l1.875-.083c.609-.095,1.206-.19,1.8-.281.293-.051.589-.087.874-.146l.838-.225c.554-.154,1.1-.285,1.617-.451a27.177,27.177,0,0,0,5.252-2.42c2.82-1.7,4.2-3.259,4.089-3.358-.115-.131-1.645,1.167-4.489,2.646a31.49,31.49,0,0,1-5.169,2.116c-.5.146-1.032.257-1.562.4l-.807.2c-.277.043-.554.083-.838.127-.565.083-1.135.166-1.716.253l-1.788.071a25.661,25.661,0,0,1-11.983-2.689l-1.048-.455c-.32-.166-.609-.344-.89-.5-.534-.293-1.008-.558-1.436-.791-.8-.423-1.266-.629-1.313-.562Z" transform="translate(-339.783 -131.388)" fill="#ebebeb"/>
          <path id="Trazado_717587" data-name="Trazado 717587" d="M375.528,196.812c.047-.063-.332-.4-1.068-.941-.4-.289-.85-.613-1.356-.973-.269-.182-.55-.392-.862-.589-.332-.174-.676-.352-1.036-.542a23.735,23.735,0,0,0-12.374-3.116l-1.875.083c-.609.095-1.206.19-1.8.281-.293.051-.585.087-.874.146l-.838.225c-.554.154-1.1.285-1.617.451a27.178,27.178,0,0,0-5.252,2.42c-2.82,1.7-4.2,3.259-4.089,3.358.115.131,1.645-1.167,4.489-2.646a31.844,31.844,0,0,1,5.169-2.116c.5-.146,1.032-.257,1.562-.392l.807-.2c.277-.044.554-.083.838-.127.566-.083,1.135-.166,1.716-.253l1.784-.071a25.66,25.66,0,0,1,11.983,2.689l1.048.455c.32.166.609.348.89.5.534.293,1.008.558,1.436.791.8.423,1.266.629,1.313.562Z" transform="translate(-337.542 -162.316)" fill="#ebebeb"/>
          <path id="Trazado_717588" data-name="Trazado 717588" d="M331.844,174.056c.008.32,9.436.348,21.059.067s21.039-.771,21.031-1.092-9.436-.348-21.063-.067-21.039.771-21.031,1.088Z" transform="translate(-331.737 -151.515)" fill="#ebebeb"/>
          <path id="Trazado_717589" data-name="Trazado 717589" d="M383.226,162.339c.32-.008.348-9.436.067-21.051s-.771-21.035-1.092-21.027-.348,9.432-.067,21.055.771,21.031,1.088,21.024Z" transform="translate(-361.103 -119.771)" fill="#ebebeb"/>
          <path id="Trazado_717590" data-name="Trazado 717590" d="M357.155,162.29c.079.123,2.4-1.451,5.074-5.011a28.239,28.239,0,0,0,3.761-6.83,25.392,25.392,0,0,0,1.629-9.432,24.17,24.17,0,0,0-2.124-9.337,29.2,29.2,0,0,0-4.113-6.62c-2.836-3.425-5.173-4.943-5.252-4.821-.115.131,2.005,1.855,4.607,5.327a31.464,31.464,0,0,1,3.777,6.541,24.234,24.234,0,0,1,1.946,8.934,25.569,25.569,0,0,1-1.475,9.045,30.217,30.217,0,0,1-3.429,6.723c-2.436,3.587-4.524,5.355-4.406,5.485Z" transform="translate(-335.032 -119.754)" fill="#ebebeb"/>
          <path id="Trazado_717591" data-name="Trazado 717591" d="M394.238,120.26c-.079-.123-2.4,1.451-5.074,5.011a28.239,28.239,0,0,0-3.761,6.83,25.4,25.4,0,0,0-1.629,9.432,24.17,24.17,0,0,0,2.124,9.337,29.2,29.2,0,0,0,4.113,6.62c2.836,3.425,5.173,4.943,5.252,4.821.115-.13-2.005-1.855-4.607-5.327a31.461,31.461,0,0,1-3.777-6.541,24.232,24.232,0,0,1-1.946-8.934,25.567,25.567,0,0,1,1.475-9.045,30.215,30.215,0,0,1,3.429-6.723c2.436-3.587,4.524-5.355,4.406-5.485Z" transform="translate(-373.606 -119.767)" fill="#ebebeb"/>
        </g>
        <g id="Grupo_1006941" data-name="Grupo 1006941" transform="translate(13.581)">
          <path id="Trazado_717592" data-name="Trazado 717592" d="M352.829,19.328h18.793a.947.947,0,0,0,.949-.949h0a.947.947,0,0,0-.949-.949H352.829a.947.947,0,0,0-.949.949h0A.947.947,0,0,0,352.829,19.328Z" transform="translate(-351.88 -17.43)" fill="#112e4c"/>
          <path id="Trazado_717593" data-name="Trazado 717593" d="M352.829,30.028h18.793a.947.947,0,0,0,.949-.949h0a.947.947,0,0,0-.949-.949H352.829a.947.947,0,0,0-.949.949h0A.947.947,0,0,0,352.829,30.028Z" transform="translate(-351.88 -23.898)" fill="#112e4c"/>
          <path id="Trazado_717594" data-name="Trazado 717594" d="M352.829,40.738h18.793a.947.947,0,0,0,.949-.949h0a.947.947,0,0,0-.949-.949H352.829a.947.947,0,0,0-.949.949h0A.947.947,0,0,0,352.829,40.738Z" transform="translate(-351.88 -30.373)" fill="#112e4c"/>
        </g>
        <g id="Grupo_1006942" data-name="Grupo 1006942" transform="translate(11.516 101.06)">
          <path id="Trazado_717595" data-name="Trazado 717595" d="M360.406,274.781h17.931a.908.908,0,0,0,.906-.906h0a.908.908,0,0,0-.906-.906H360.406a.908.908,0,0,0-.906.906h0A.905.905,0,0,0,360.406,274.781Z" transform="translate(-359.5 -272.97)" fill="#f5f5f5"/>
          <path id="Trazado_717596" data-name="Trazado 717596" d="M360.406,284.991h17.931a.908.908,0,0,0,.906-.906h0a.908.908,0,0,0-.906-.906H360.406a.908.908,0,0,0-.906.906h0A.905.905,0,0,0,360.406,284.991Z" transform="translate(-359.5 -279.142)" fill="#f5f5f5"/>
          <path id="Trazado_717597" data-name="Trazado 717597" d="M360.406,295.2h17.931a.908.908,0,0,0,.906-.906h0a.908.908,0,0,0-.906-.906H360.406a.908.908,0,0,0-.906.906h0A.905.905,0,0,0,360.406,295.2Z" transform="translate(-359.5 -285.314)" fill="#f5f5f5"/>
        </g>
        <path id="Trazado_717598" data-name="Trazado 717598" d="M10.561,30.824a5.9,5.9,0,1,1,10.99,2.982h0l-.016.024c-.225.38-.51.653-.795,1.056l-3.429,4.54a1.064,1.064,0,0,1-1.7,0l-3.369-4.465a13.191,13.191,0,0,1-.858-1.135l-.012-.016h0a5.881,5.881,0,0,1-.815-2.982Zm5.9,2.571a2.6,2.6,0,1,0-2.6-2.6A2.6,2.6,0,0,0,16.465,33.395Z" transform="translate(146.89 -21.958)" fill="#ebebeb"/>
        <g id="Grupo_1006952" data-name="Grupo 1006952" transform="translate(114.584 139.121)">
          <g id="Grupo_1006943" data-name="Grupo 1006943" transform="translate(0.26)">
            <path id="Trazado_717599" data-name="Trazado 717599" d="M79.87,369.737s4.516,3.441.19,7.989a.392.392,0,0,1-.285.123L40.3,377.619a6.884,6.884,0,0,1-.573-8.139Z" transform="translate(-38.619 -369.373)" fill="#005b8b"/>
            <path id="Trazado_717600" data-name="Trazado 717600" d="M66.32,379.089c0,.043,4.916.079,10.978.079s10.978-.036,10.978-.079-4.916-.079-10.978-.079S66.32,379.046,66.32,379.089Z" transform="translate(-55.917 -375.134)" fill="#e0e0e0"/>
            <path id="Trazado_717601" data-name="Trazado 717601" d="M80.21,382.7c0,.044,2.31.079,5.161.079s5.161-.036,5.161-.079-2.31-.079-5.161-.079S80.21,382.656,80.21,382.7Z" transform="translate(-63.665 -377.317)" fill="#e0e0e0"/>
            <path id="Trazado_717602" data-name="Trazado 717602" d="M132.44,377.325c.028-.008-.087-.455-.21-1.182a16.353,16.353,0,0,1,.051-5.754c.134-.728.257-1.175.233-1.179a1.284,1.284,0,0,0-.115.3,8.264,8.264,0,0,0-.225.854,13.95,13.95,0,0,0-.055,5.8c.075.364.15.66.21.858a1.051,1.051,0,0,0,.111.3Z" transform="translate(-126.07 -369.21)" fill="#e0e0e0"/>
            <path id="Trazado_717603" data-name="Trazado 717603" d="M140.56,369.35a2.416,2.416,0,0,0-.174.289,3.253,3.253,0,0,0-.174.352c-.063.142-.138.3-.2.482a8.388,8.388,0,0,0-.376,1.309,9.747,9.747,0,0,0-.17,1.661,9.487,9.487,0,0,0,.146,1.665,8.212,8.212,0,0,0,.356,1.317c.059.186.134.344.194.486a3.869,3.869,0,0,0,.17.356,1.542,1.542,0,0,0,.17.289c.028-.012-.194-.439-.427-1.167a9.6,9.6,0,0,1-.316-1.305,10.486,10.486,0,0,1-.131-1.637,10.306,10.306,0,0,1,.158-1.633,10.1,10.1,0,0,1,.336-1.3c.245-.724.475-1.147.447-1.163Z" transform="translate(-137.137 -369.295)" fill="#e0e0e0"/>
            <path id="Trazado_717604" data-name="Trazado 717604" d="M56.874,378.051a2.082,2.082,0,0,0,.182-.265,3.238,3.238,0,0,0,.186-.328,4.576,4.576,0,0,0,.21-.455,6.766,6.766,0,0,0,.384-1.246,7.972,7.972,0,0,0,.154-1.59,8.093,8.093,0,0,0-.194-1.586,6.783,6.783,0,0,0-.419-1.234,4.283,4.283,0,0,0-.221-.447,3.047,3.047,0,0,0-.194-.324,1.17,1.17,0,0,0-.19-.257c-.028.016.225.4.5,1.076a7.367,7.367,0,0,1,.38,1.222,8.182,8.182,0,0,1,.178,1.554,8.336,8.336,0,0,1-.138,1.558,7.865,7.865,0,0,1-.344,1.234c-.257.684-.5,1.072-.475,1.088Z" transform="translate(-21.853 -369.88)" fill="#e0e0e0"/>
            <path id="Trazado_717605" data-name="Trazado 717605" d="M45.482,378.91a3.141,3.141,0,0,0,.2-.3,3.329,3.329,0,0,0,.206-.372,5.26,5.26,0,0,0,.237-.51,8.359,8.359,0,0,0,.451-1.392,8.837,8.837,0,0,0,.079-3.567,7.864,7.864,0,0,0-.392-1.412c-.067-.2-.15-.368-.218-.518a3.071,3.071,0,0,0-.19-.38,1.679,1.679,0,0,0-.19-.308c-.028.016.225.463.49,1.246a9.351,9.351,0,0,1,.352,1.4,9.9,9.9,0,0,1,.127,1.76,10.187,10.187,0,0,1-.206,1.752,9.622,9.622,0,0,1-.411,1.384c-.3.767-.569,1.206-.542,1.222Z" transform="translate(-6.197 -369.778)" fill="#e0e0e0"/>
          </g>
          <g id="Grupo_1006945" data-name="Grupo 1006945" transform="translate(2.71 19.465)">
            <g id="Grupo_1006944" data-name="Grupo 1006944">
              <path id="Trazado_717606" data-name="Trazado 717606" d="M103.27,420.45V428h14.617V420.45Z" transform="translate(-102.59 -419.651)" fill="#112e4c"/>
              <path id="Trazado_717607" data-name="Trazado 717607" d="M68.747,423.077c0,.067,0,.134-.008.2a4.329,4.329,0,0,1-4.346,4.054H20.862v-.546H31.2a3.779,3.779,0,0,0,3.777-3.777h0a3.779,3.779,0,0,0-3.777-3.777H20.862v-.8l43.542.146a4.353,4.353,0,0,1,4.342,4.5Z" transform="translate(-20.862 -418.43)" fill="#112e4c"/>
              <path id="Trazado_717608" data-name="Trazado 717608" d="M106.29,430.129c0,.044,3.006.079,6.711.079s6.711-.036,6.711-.079-3.006-.079-6.711-.079S106.29,430.086,106.29,430.129Z" transform="translate(-105.61 -425.455)" fill="#112e4c"/>
              <path id="Trazado_717609" data-name="Trazado 717609" d="M107.58,434.439c0,.044,2.843.079,6.351.079s6.351-.036,6.351-.079-2.843-.079-6.351-.079S107.58,434.4,107.58,434.439Z" transform="translate(-106.69 -428.06)" fill="#112e4c"/>
              <path id="Trazado_717610" data-name="Trazado 717610" d="M111.35,438.369c0,.044,2.555.079,5.711.079s5.711-.036,5.711-.079-2.555-.079-5.711-.079S111.35,438.326,111.35,438.369Z" transform="translate(-110.67 -430.436)" fill="#112e4c"/>
              <path id="Trazado_717611" data-name="Trazado 717611" d="M106.99,426.269c0,.044,2.942.079,6.573.079s6.573-.036,6.573-.079-2.942-.079-6.573-.079S106.99,426.226,106.99,426.269Z" transform="translate(-106.31 -423.121)" fill="#112e4c"/>
              <path id="Trazado_717612" data-name="Trazado 717612" d="M110.1,422.4c0,.043,2.622.079,5.853.079s5.853-.036,5.853-.079-2.618-.079-5.853-.079S110.1,422.356,110.1,422.4Z" transform="translate(-109.21 -420.782)" fill="#112e4c"/>
            </g>
            <path id="Trazado_717613" data-name="Trazado 717613" d="M29.049,419.1a9.212,9.212,0,0,1,.925,1.1,5.595,5.595,0,0,1-.075,6.47,9.5,9.5,0,0,1-.949,1.076,1.561,1.561,0,0,0,.312-.233,5.011,5.011,0,0,0,.728-.779,5.509,5.509,0,0,0,.079-6.6,4.925,4.925,0,0,0-.708-.795,1.572,1.572,0,0,0-.308-.237Z" transform="translate(13.56 -418.834)" fill="#f5f5f5"/>
            <path id="Trazado_717614" data-name="Trazado 717614" d="M25.329,418.693a9.22,9.22,0,0,1,.925,1.1,5.595,5.595,0,0,1-.075,6.47,9.5,9.5,0,0,1-.949,1.076,1.56,1.56,0,0,0,.312-.233,5.011,5.011,0,0,0,.728-.779,5.509,5.509,0,0,0,.079-6.6,4.926,4.926,0,0,0-.708-.795,1.567,1.567,0,0,0-.308-.237Z" transform="translate(18.751 -418.586)" fill="#f5f5f5"/>
            <path id="Trazado_717615" data-name="Trazado 717615" d="M100.119,419.1a9.21,9.21,0,0,1,.925,1.1,5.595,5.595,0,0,1-.075,6.47,9.5,9.5,0,0,1-.949,1.076,1.561,1.561,0,0,0,.312-.233,5.011,5.011,0,0,0,.728-.779,5.509,5.509,0,0,0,.079-6.6,4.926,4.926,0,0,0-.708-.795,1.572,1.572,0,0,0-.308-.237Z" transform="translate(-85.617 -418.834)" fill="#f5f5f5"/>
            <path id="Trazado_717616" data-name="Trazado 717616" d="M96.389,418.693a9.219,9.219,0,0,1,.925,1.1,5.595,5.595,0,0,1-.075,6.47,9.5,9.5,0,0,1-.949,1.076,1.56,1.56,0,0,0,.312-.233,5.01,5.01,0,0,0,.728-.779,5.509,5.509,0,0,0,.079-6.6,4.926,4.926,0,0,0-.708-.795,1.567,1.567,0,0,0-.308-.237Z" transform="translate(-80.412 -418.586)" fill="#f5f5f5"/>
            <path id="Trazado_717617" data-name="Trazado 717617" d="M40.969,426.133c.012-1.024.028-2.049.04-3.073a2.129,2.129,0,0,1,.107-.791.735.735,0,0,1,.581-.49,1.17,1.17,0,0,1,1.254.593,2.917,2.917,0,0,1,.3,1.507,21.656,21.656,0,0,1-.119,2.428,2.817,2.817,0,0,1-.285,1.111,1.036,1.036,0,0,1-.937.562,1.055,1.055,0,0,1-.823-.712,3.106,3.106,0,0,1-.127-1.131Z" transform="translate(-3.311 -420.427)" fill="#f5f5f5"/>
            <path id="Trazado_717618" data-name="Trazado 717618" d="M53.94,430.509c0,.044,3.148.079,7.028.079S68,430.553,68,430.509s-3.148-.079-7.028-.079S53.94,430.466,53.94,430.509Z" transform="translate(-33.189 -425.684)" fill="#f5f5f5"/>
          </g>
          <g id="Grupo_1006950" data-name="Grupo 1006950" transform="translate(0 11.983)">
            <g id="Grupo_1006948" data-name="Grupo 1006948">
              <g id="Grupo_1006946" data-name="Grupo 1006946" transform="translate(39.331 0.289)">
                <path id="Trazado_717619" data-name="Trazado 717619" d="M43.111,407.4l.079-7.162h-3.9L39.16,407.4Z" transform="translate(-39.16 -400.24)" fill="#f5f5f5"/>
                <path id="Trazado_717620" data-name="Trazado 717620" d="M39.27,403.349a10.456,10.456,0,0,0,1.811.079,10.456,10.456,0,0,0,1.811-.079,10.456,10.456,0,0,0-1.811-.079A10.456,10.456,0,0,0,39.27,403.349Z" transform="translate(-38.906 -402.072)" fill="#e0e0e0"/>
                <path id="Trazado_717621" data-name="Trazado 717621" d="M39.27,406.139a10.456,10.456,0,0,0,1.811.079,10.456,10.456,0,0,0,1.811-.079,10.456,10.456,0,0,0-1.811-.079A10.456,10.456,0,0,0,39.27,406.139Z" transform="translate(-38.906 -403.758)" fill="#e0e0e0"/>
                <path id="Trazado_717622" data-name="Trazado 717622" d="M39.27,408.929a10.456,10.456,0,0,0,1.811.079,10.456,10.456,0,0,0,1.811-.079,10.456,10.456,0,0,0-1.811-.079A10.456,10.456,0,0,0,39.27,408.929Z" transform="translate(-38.906 -405.445)" fill="#e0e0e0"/>
                <path id="Trazado_717623" data-name="Trazado 717623" d="M39.27,411.729a10.465,10.465,0,0,0,1.811.079,10.462,10.462,0,0,0,1.811-.079,10.456,10.456,0,0,0-1.811-.079A10.456,10.456,0,0,0,39.27,411.729Z" transform="translate(-38.906 -407.138)" fill="#e0e0e0"/>
                <path id="Trazado_717624" data-name="Trazado 717624" d="M39.27,414.519a10.456,10.456,0,0,0,1.811.079,10.456,10.456,0,0,0,1.811-.079,10.46,10.46,0,0,0-1.811-.079A10.46,10.46,0,0,0,39.27,414.519Z" transform="translate(-38.906 -408.824)" fill="#e0e0e0"/>
              </g>
              <path id="Trazado_717625" data-name="Trazado 717625" d="M82.207,399.77H39.013a20.273,20.273,0,0,0,0,7.74H82.025v-.526h-2.63a1.244,1.244,0,0,1-1.242-1.242v-4.283a1.241,1.241,0,0,1,1.242-1.242h2.812Z" transform="translate(-38.64 -399.667)" fill="#005b8b"/>
              <g id="Grupo_1006947" data-name="Grupo 1006947" transform="translate(21.266 2.472)">
                <path id="Trazado_717626" data-name="Trazado 717626" d="M62.738,407.263h-.72a.2.2,0,0,0-.079.02.15.15,0,0,0-.079.134.177.177,0,0,0,0,.047c.016.059.032.123.047.186a2.01,2.01,0,0,0,.451.815.842.842,0,0,0,.613.316.644.644,0,0,0,.087,0,.7.7,0,0,0,.49-.356,1.626,1.626,0,0,0,.214-.866,2.214,2.214,0,0,0-.087-.617,2.06,2.06,0,0,0-.427-.834.868.868,0,0,0-.649-.344.6.6,0,0,0-.273.063.877.877,0,0,0-.419.526.155.155,0,0,0-.016.071.194.194,0,0,0,.02.079.15.15,0,0,0,.134.079.1.1,0,0,0,.047-.008.139.139,0,0,0,.1-.1l.008-.012a.764.764,0,0,1,.087-.17.409.409,0,0,1,.344-.206.391.391,0,0,1,.237.087,1.269,1.269,0,0,1,.392.566,2.105,2.105,0,0,1,.17.815,1.434,1.434,0,0,1-.123.641.414.414,0,0,1-.376.281.516.516,0,0,1-.348-.21,1.964,1.964,0,0,1-.372-.668c.332,0,.506,0,.518-.008.111-.02.17-.075.174-.174a.112.112,0,0,0-.016-.051.161.161,0,0,0-.162-.087Z" transform="translate(-50.648 -405.76)" fill="#fafafa"/>
                <path id="Trazado_717627" data-name="Trazado 717627" d="M67.3,405.885l-.02.051c-.032.107-.2,1-.51,2.677a.117.117,0,0,0-.008.04.18.18,0,0,0,.02.079.148.148,0,0,0,.131.079h.024a.139.139,0,0,0,.119-.107l.17-.89h.886l.427.894a.108.108,0,0,0,.016.028.17.17,0,0,0,.134.075.146.146,0,0,0,.083-.024.149.149,0,0,0,.071-.13.1.1,0,0,0-.008-.047c-.028-.063-.071-.158-.131-.293q-.931-2.035-1.115-2.4a.162.162,0,0,0-.15-.107.158.158,0,0,0-.142.079Zm.194.6.479,1.008h-.676Z" transform="translate(-57.66 -405.79)" fill="#fafafa"/>
                <path id="Trazado_717628" data-name="Trazado 717628" d="M73.23,408.812h1.3a.146.146,0,0,0,.083-.024.249.249,0,0,0,.075-.162h0c0-.055-.119-.941-.36-2.665a.126.126,0,0,0-.008-.055.143.143,0,0,0-.138-.095.189.189,0,0,0-.071.016.144.144,0,0,0-.083.138c.012.119.04.36.087.732.15,1.139.225,1.74.233,1.8H73.242a.183.183,0,0,0-.083.016.145.145,0,0,0-.1.146.117.117,0,0,0,.008.051.181.181,0,0,0,.162.107Z" transform="translate(-66.001 -405.79)" fill="#fafafa"/>
                <path id="Trazado_717629" data-name="Trazado 717629" d="M77.888,405.885l-.02.051c-.032.107-.2,1-.51,2.677a.117.117,0,0,0-.008.04.18.18,0,0,0,.02.079.148.148,0,0,0,.131.079h.024a.139.139,0,0,0,.119-.107l.17-.89H78.7l.427.894a.108.108,0,0,0,.016.028.17.17,0,0,0,.134.075.146.146,0,0,0,.083-.024.149.149,0,0,0,.071-.13.1.1,0,0,0-.008-.047c-.028-.063-.071-.158-.131-.293q-.931-2.035-1.115-2.4a.162.162,0,0,0-.15-.107.158.158,0,0,0-.142.079Zm.194.6.479,1.008h-.676Z" transform="translate(-72.438 -405.79)" fill="#fafafa"/>
                <path id="Trazado_717630" data-name="Trazado 717630" d="M84.364,407.436c-.1.281-.182.5-.233.653-.134.372-.2.566-.2.589a.143.143,0,0,0,.024.079.149.149,0,0,0,.131.071c.059,0,.1-.036.131-.1.008-.028.02-.051.024-.067.071-.162.186-.467.348-.918l.736,1.008a.194.194,0,0,0,.138.083.18.18,0,0,0,.079-.02.148.148,0,0,0,.075-.131v-.032c0-.024-.028-.063-.079-.127q-.368-.48-.819-1.139c.032-.087.059-.17.091-.245q.415-1.115.415-1.151a.18.18,0,0,0-.02-.079.138.138,0,0,0-.127-.079.159.159,0,0,0-.146.087l-.435,1.171-.87-1.182a.182.182,0,0,0-.138-.075.155.155,0,0,0-.071.016.144.144,0,0,0-.075.138.155.155,0,0,0,.016.071l1.008,1.384Z" transform="translate(-80.991 -405.802)" fill="#fafafa"/>
                <path id="Trazado_717631" data-name="Trazado 717631" d="M89.144,405.818a.154.154,0,0,0-.071.016.152.152,0,0,0-.083.134q.32,2.527.352,2.729a1.652,1.652,0,0,0,.281.712,1.008,1.008,0,0,0,.866.423.989.989,0,0,0,.415-.111.917.917,0,0,0,.459-.4.161.161,0,0,0,.016-.075.2.2,0,0,0-.02-.079.149.149,0,0,0-.253-.016.833.833,0,0,1-.668.38.655.655,0,0,1-.518-.261,1.444,1.444,0,0,1-.289-.819.722.722,0,0,0,.194.2.777.777,0,0,0,.467.154.634.634,0,0,0,.087,0,.694.694,0,0,0,.494-.356,1.59,1.59,0,0,0,.218-.866c0-.158-.008-.32-.02-.49-.024-.265-.083-.637-.178-1.123a.14.14,0,0,0-.012-.043.145.145,0,0,0-.138-.107.163.163,0,0,0-.075.02.137.137,0,0,0-.079.123,5.737,5.737,0,0,0,.071.593,8.5,8.5,0,0,1,.1.906,1.878,1.878,0,0,1-.115.708c-.091.214-.218.316-.388.316a.117.117,0,0,1-.051-.008.71.71,0,0,1-.388-.312,1.87,1.87,0,0,1-.32-.716l-.2-1.483a.146.146,0,0,0-.02-.067.143.143,0,0,0-.134-.083Z" transform="translate(-88.99 -405.79)" fill="#fafafa"/>
              </g>
              <path id="Trazado_717632" data-name="Trazado 717632" d="M143.639,407.451c.044,0,.079-1.776.079-3.971s-.036-3.971-.079-3.971-.079,1.776-.079,3.971S143.6,407.451,143.639,407.451Z" transform="translate(-141.645 -399.51)" fill="#f5f5f5"/>
              <path id="Trazado_717633" data-name="Trazado 717633" d="M54.259,407.451c.044,0,.079-1.776.079-3.971s-.036-3.971-.079-3.971-.079,1.776-.079,3.971S54.216,407.451,54.259,407.451Z" transform="translate(-16.917 -399.51)" fill="#e0e0e0"/>
              <path id="Trazado_717634" data-name="Trazado 717634" d="M145.549,407.451c.044,0,.079-1.776.079-3.971s-.036-3.971-.079-3.971-.079,1.776-.079,3.971S145.506,407.451,145.549,407.451Z" transform="translate(-144.31 -399.51)" fill="#f5f5f5"/>
              <path id="Trazado_717635" data-name="Trazado 717635" d="M52.469,407.451c.043,0,.079-1.776.079-3.971s-.036-3.971-.079-3.971-.079,1.776-.079,3.971S52.426,407.451,52.469,407.451Z" transform="translate(-14.419 -399.51)" fill="#e0e0e0"/>
            </g>
            <g id="Grupo_1006949" data-name="Grupo 1006949" transform="translate(5.514 1.064)">
              <path id="Trazado_717636" data-name="Trazado 717636" d="M109.805,402.8l.008-.012c-1.179.953-2.784,2.246-4.564,3.682l-.04.032.051.012c.194.051.4.107.609.158,1.388.364,2.7.708,3.856,1.012h.016c1.432-.609,2.642-1.119,3.492-1.483l.989-.423c.111-.047.2-.087.261-.115.028-.012.051-.024.067-.032l.024-.012a.061.061,0,0,0-.024.008c-.016.008-.04.016-.067.028-.063.024-.15.059-.265.107-.233.095-.569.237-.993.411-.854.356-2.064.862-3.5,1.463h.016c-1.155-.3-2.468-.652-3.852-1.016-.21-.055-.415-.111-.609-.158l.008.047c1.78-1.443,3.377-2.741,4.556-3.694h.008v-.012" transform="translate(-102.849 -402.557)" fill="#e0e0e0"/>
              <path id="Trazado_717637" data-name="Trazado 717637" d="M127.519,410.65l-.245.233-.336-.071.146.308-.174.293.34-.04.229.253.063-.336.312-.138-.3-.162Z" transform="translate(-124.711 -407.308)" fill="#e0e0e0"/>
              <path id="Trazado_717638" data-name="Trazado 717638" d="M116.613,414.32l-.17.142-.214-.063.083.206-.123.186.221-.016.134.174.055-.214.206-.079-.186-.115Z" transform="translate(-109.423 -409.527)" fill="#e0e0e0"/>
              <path id="Trazado_717639" data-name="Trazado 717639" d="M105.213,409l-.273.016-.166-.214-.067.265-.257.091.229.146.012.273.21-.174.261.075-.1-.253Z" transform="translate(-93.187 -406.19)" fill="#e0e0e0"/>
              <path id="Trazado_717640" data-name="Trazado 717640" d="M133.693,402.664l-.273.02-.166-.214-.067.261-.257.095.229.146.012.269.21-.174.261.075-.1-.253Z" transform="translate(-132.93 -402.363)" fill="#e0e0e0"/>
              <path id="Trazado_717641" data-name="Trazado 717641" d="M117.2,402.323l-.174.012-.107-.134-.044.166-.162.059.146.095,0,.17.134-.107.166.047-.063-.162Z" transform="translate(-110.019 -402.2)" fill="#e0e0e0"/>
              <path id="Trazado_717642" data-name="Trazado 717642" d="M117.22,403s1.479-.032,3.3-.111,3.3-.154,3.294-.174-1.479.032-3.3.111S117.22,402.98,117.22,403Z" transform="translate(-116.836 -402.51)" fill="#e0e0e0"/>
            </g>
          </g>
          <g id="Grupo_1006951" data-name="Grupo 1006951" transform="translate(3.828 8.372)">
            <path id="Trazado_717643" data-name="Trazado 717643" d="M26.492,394.026H70.3a3.675,3.675,0,0,0,0-3.646H26.5a4.23,4.23,0,0,0,0,3.646Z" transform="translate(-26.084 -390.38)" fill="#112e4c"/>
            <rect id="Rectángulo_347176" data-name="Rectángulo 347176" width="23.733" height="1.329" transform="translate(11.415 1.04)" fill="#ebebeb"/>
            <path id="Trazado_717644" data-name="Trazado 717644" d="M29.655,394.191a1.7,1.7,0,0,0,.344-.439,3.159,3.159,0,0,0,.4-1.293,3.213,3.213,0,0,0-.166-1.345,1.231,1.231,0,0,0-.265-.494,4.267,4.267,0,0,0,.154.53,3.658,3.658,0,0,1,.115,1.3,3.882,3.882,0,0,1-.34,1.258,3.939,3.939,0,0,0-.245.494Z" transform="translate(12.883 -390.525)" fill="#e0e0e0"/>
            <path id="Trazado_717645" data-name="Trazado 717645" d="M32.055,394.191a1.7,1.7,0,0,0,.344-.439,3.159,3.159,0,0,0,.4-1.293,3.213,3.213,0,0,0-.166-1.345,1.231,1.231,0,0,0-.265-.494,4.267,4.267,0,0,0,.154.53,3.657,3.657,0,0,1,.115,1.3,3.882,3.882,0,0,1-.34,1.258,3.941,3.941,0,0,0-.245.494Z" transform="translate(9.534 -390.525)" fill="#e0e0e0"/>
            <path id="Trazado_717646" data-name="Trazado 717646" d="M134.066,393.97a5.488,5.488,0,0,1-.02-3.571,3.718,3.718,0,0,0,.02,3.571Z" transform="translate(-131.886 -390.391)" fill="#f5f5f5"/>
            <path id="Trazado_717647" data-name="Trazado 717647" d="M131.8,394.078c.047-.012-.138-.779-.131-1.744s.186-1.736.134-1.744a4.288,4.288,0,0,0-.3,1.744,4.221,4.221,0,0,0,.293,1.748Z" transform="translate(-128.801 -390.507)" fill="#f5f5f5"/>
          </g>
        </g>
      </g>
      <g id="Plant" transform="translate(6.16 117.568)">
        <g id="Grupo_1006957" data-name="Grupo 1006957">
          <g id="Grupo_1006954" data-name="Grupo 1006954">
            <path id="Trazado_717648" data-name="Trazado 717648" d="M329.963,345.112s9.606-11.054,13.229-22.111,1.9-9.788,1.9-9.788-4.892,10.737-8.609,15.926-10.33,12.8-10.33,12.8l3.8,3.172Z" transform="translate(-307.217 -302.368)" fill="#455a64"/>
            <path id="Trazado_717649" data-name="Trazado 717649" d="M372.4,317.2a.559.559,0,0,1,1.04.356c-.585,3.884-1.851,13-1.8,18.908.063,7.676,0,10.646,0,10.646h-4s.708-15.87,1.613-20.711A33.22,33.22,0,0,1,372.4,317.2Z" transform="translate(-351.571 -304.633)" fill="#455a64"/>
            <path id="Trazado_717650" data-name="Trazado 717650" d="M383,343.726a42.385,42.385,0,0,1-3.29-11.935c-.328-2.828.257-6.644,1.131-11.742a31.818,31.818,0,0,0,.506-5.651.954.954,0,0,0-1.792-.447,25.415,25.415,0,0,0-2.234,5.647c-.969,5.034-2.064,7.55-1.226,12.323s3.935,12.129,3.935,12.129l2.966-.324Z" transform="translate(-364.352 -302.54)" fill="#455a64"/>
            <path id="Trazado_717651" data-name="Trazado 717651" d="M399.959,334.7s-10.547-22.665-11.279-26.026-3.215-11.109-3.508-10.67-.732,4.532,1.171,9.211,10.013,28.178,10.013,28.178h3.6" transform="translate(-384.91 -293.189)" fill="#455a64"/>
            <path id="Trazado_717652" data-name="Trazado 717652" d="M326.457,343.316s.107-.063.3-.2.471-.34.819-.625a37.371,37.371,0,0,0,2.836-2.5,47.581,47.581,0,0,0,7.652-9.82,64.431,64.431,0,0,0,5.224-11.315c.53-1.507.918-2.737,1.167-3.595.13-.427.218-.763.281-.989a2.471,2.471,0,0,0,.083-.348,2.19,2.19,0,0,0-.127.336c-.079.241-.186.566-.32.977-.277.846-.684,2.068-1.234,3.567a68.3,68.3,0,0,1-5.268,11.251,49.6,49.6,0,0,1-7.569,9.824c-1.127,1.123-2.1,1.977-2.776,2.547-.336.293-.613.5-.791.656a2.45,2.45,0,0,0-.269.237Z" transform="translate(-306.65 -302.822)" fill="#263238"/>
            <path id="Trazado_717653" data-name="Trazado 717653" d="M368.972,335.05s.047-.237.095-.664c.051-.471.115-1.08.194-1.815.166-1.534.427-3.646.8-5.972s.791-4.413,1.111-5.92c.154-.724.285-1.325.384-1.788a3.727,3.727,0,0,0,.119-.66,3.838,3.838,0,0,0-.2.641c-.119.415-.273,1.02-.455,1.772-.364,1.5-.8,3.591-1.179,5.92s-.609,4.453-.736,5.991c-.063.771-.107,1.392-.123,1.827a3.8,3.8,0,0,0-.008.672Z" transform="translate(-350.32 -305.428)" fill="#263238"/>
            <path id="Trazado_717654" data-name="Trazado 717654" d="M381.9,314.26a2.427,2.427,0,0,0-.123.289c-.079.214-.186.494-.316.842-.138.364-.3.815-.451,1.349s-.36,1.131-.514,1.815c-.083.34-.17.7-.261,1.064s-.15.763-.233,1.167c-.174.8-.277,1.677-.407,2.594a38.721,38.721,0,0,0,.427,11.983c.194.906.364,1.768.593,2.559.111.4.2.783.316,1.147s.229.712.336,1.044c.2.668.447,1.254.641,1.772s.384.961.55,1.313.281.609.376.819a1.328,1.328,0,0,0,.146.277,1.536,1.536,0,0,0-.1-.3c-.087-.21-.2-.486-.336-.834-.154-.36-.332-.8-.51-1.325s-.415-1.107-.609-1.776q-.154-.5-.32-1.044c-.111-.364-.2-.751-.3-1.147-.221-.787-.38-1.649-.569-2.551a39.99,39.99,0,0,1-.427-11.92c.123-.914.221-1.78.384-2.582.075-.4.134-.795.217-1.163s.166-.724.245-1.064c.142-.68.332-1.281.479-1.815s.289-.989.415-1.356.206-.637.277-.854a1.832,1.832,0,0,0,.083-.3Z" transform="translate(-365.715 -303.028)" fill="#263238"/>
            <path id="Trazado_717655" data-name="Trazado 717655" d="M389.27,299.164a.982.982,0,0,0,.008.1c.012.079.028.178.047.293.047.257.107.641.21,1.127.2.977.542,2.377,1.072,4.081s1.246,3.7,2.1,5.893,1.839,4.584,2.776,7.13,1.685,5.019,2.373,7.269,1.329,4.275,1.954,5.94a38.077,38.077,0,0,0,1.665,3.876c.218.451.411.783.534,1.012.059.1.107.19.146.261a.43.43,0,0,0,.055.083.517.517,0,0,0-.036-.095c-.036-.071-.075-.162-.127-.269-.111-.237-.293-.577-.5-1.032-.423-.9-1-2.219-1.594-3.891s-1.234-3.694-1.906-5.948-1.4-4.742-2.357-7.289c-.937-2.551-1.934-4.94-2.8-7.126s-1.6-4.172-2.14-5.865-.906-3.085-1.135-4.05c-.115-.482-.19-.862-.249-1.119-.028-.115-.051-.214-.067-.289a.357.357,0,0,0-.032-.1Z" transform="translate(-388.885 -293.899)" fill="#263238"/>
            <g id="Grupo_1006953" data-name="Grupo 1006953" transform="translate(16.301)">
              <path id="Trazado_717656" data-name="Trazado 717656" d="M352.46,286.12a.908.908,0,0,1,1.495.925,25.93,25.93,0,0,1-1.325,3.409c-1.451,3.081-5.711,14.134-7.7,20.209s-4.8,17.4-4.8,17.4l-4.255-.692s3.9-18.611,7.7-25.318c3.057-5.386,6.114-13.173,8.89-15.934Z" transform="translate(-335.857 -285.858)" fill="#455a64"/>
              <path id="Trazado_717657" data-name="Trazado 717657" d="M365.371,358.17s-.091.178-.217.51-.3.823-.49,1.428c-.392,1.214-.87,2.911-1.356,4.793s-.882,3.6-1.163,4.845c-.127.589-.233,1.084-.32,1.475a2.494,2.494,0,0,0-.087.55,2.845,2.845,0,0,0,.174-.526c.1-.388.233-.878.392-1.459.324-1.281.755-2.962,1.226-4.825.482-1.882.937-3.583,1.289-4.805.166-.577.308-1.064.423-1.447a2.362,2.362,0,0,0,.134-.538Z" transform="translate(-357.464 -329.572)" fill="#263238"/>
              <path id="Trazado_717658" data-name="Trazado 717658" d="M337.111,328a.977.977,0,0,0,.024-.115c.012-.087.028-.2.047-.336.043-.293.083-.732.174-1.289.154-1.119.435-2.729.894-4.694a67.939,67.939,0,0,1,1.993-6.8c.874-2.523,1.969-5.248,3.211-8.068,2.5-5.636,5.007-10.63,6.652-14.328.83-1.843,1.475-3.35,1.9-4.4.217-.522.372-.933.478-1.21.047-.13.087-.233.119-.316a.477.477,0,0,0,.032-.111.579.579,0,0,0-.055.1c-.036.083-.083.182-.138.308-.127.289-.3.688-.518,1.194-.447,1.036-1.111,2.531-1.962,4.366-1.681,3.674-4.2,8.661-6.711,14.3-1.242,2.824-2.333,5.556-3.2,8.091a64.89,64.89,0,0,0-1.954,6.834,46.558,46.558,0,0,0-.823,4.718c-.075.562-.1,1-.134,1.3-.012.138-.02.249-.028.336a.419.419,0,0,0,0,.115Z" transform="translate(-334.982 -286.143)" fill="#263238"/>
              <path id="Trazado_717659" data-name="Trazado 717659" d="M369.945,363.477s.067-.253.142-.716c.083-.5.2-1.159.332-1.958.293-1.649.74-3.923,1.384-6.395s1.356-4.679,1.91-6.257c.273-.763.494-1.392.664-1.871a4.437,4.437,0,0,0,.225-.692,4.547,4.547,0,0,0-.309.66c-.182.431-.439,1.06-.736,1.847a61.794,61.794,0,0,0-1.977,6.256,65.342,65.342,0,0,0-1.325,6.423c-.123.831-.214,1.5-.261,1.969a4.286,4.286,0,0,0-.055.728Z" transform="translate(-369.935 -321.967)" fill="#263238"/>
            </g>
          </g>
          <g id="Grupo_1006956" data-name="Grupo 1006956" transform="translate(7.575 40.897)">
            <rect id="Rectángulo_347177" data-name="Rectángulo 347177" width="16.618" height="20.244" transform="translate(0)" fill="#ffa031"/>
            <g id="Grupo_1006955" data-name="Grupo 1006955" transform="translate(0)" opacity="0.3">
              <rect id="Rectángulo_347178" data-name="Rectángulo 347178" width="16.618" height="20.244"/>
            </g>
            <rect id="Rectángulo_347179" data-name="Rectángulo 347179" width="14.743" height="20.244" transform="translate(5.299)" fill="#ffa031"/>
          </g>
        </g>
      </g>
      <g id="Character" transform="translate(46.587 32.892)">
        <g id="Grupo_1006973" data-name="Grupo 1006973">
          <g id="Grupo_1006962" data-name="Grupo 1006962" transform="translate(0 52.379)">
            <g id="Grupo_1006958" data-name="Grupo 1006958">
              <path id="Trazado_717660" data-name="Trazado 717660" d="M123.512,224.483l-.012-.008C123.5,224.459,123.508,224.463,123.512,224.483Z" transform="translate(-45.508 -216.447)" fill="#003f60"/>
              <path id="Trazado_717661" data-name="Trazado 717661" d="M81.144,267.363c.131-2.84,4.394-41.066,5.034-45.974,1.028-7.838,7.332-9.8,7.332-9.8h0l21.431-7.4h21.205l22.981,8.028.012.392c0-.214,0-.344,0-.384.229.127,5.889,1.736,7.241,7.308.74,3.045,9.373,46.243,9.5,47.512s-1.016,9.013-7.107,10.025c-2.282.38-7.221.032-12.5-.558L160.4,297.7H93.787l2.353-15.135c-5.3-2.064-10.844-4.37-11.769-5.331-1.807-1.879-3.358-7.032-3.227-9.871ZM156.5,256.48Z" transform="translate(-81.136 -204.19)" fill="#003f60"/>
            </g>
            <g id="Grupo_1006959" data-name="Grupo 1006959" transform="translate(57.371 51.997)" opacity="0.3">
              <path id="Trazado_717662" data-name="Trazado 717662" d="M153.515,342.353a12.084,12.084,0,0,1,.981-3.951,4.818,4.818,0,0,1,2.962-2.634,3.056,3.056,0,0,1,3.484,1.443c2.4,6.747.218,10.543-4.366,14.19a2.847,2.847,0,0,1-2.515.763c-.874-.265-1.052-.906-1.1-1.819a49.249,49.249,0,0,1,.546-7.993Z" transform="translate(-152.942 -335.67)" fill="#003f60"/>
            </g>
            <path id="Trazado_717663" data-name="Trazado 717663" d="M120.567,333.186s.154.036.435.071c.32.036.724.075,1.206.127,1.028.1,2.468.229,4.109.368l-.047-.016c.376.261.763.53,1.151.815a21.209,21.209,0,0,1,3.781,3.35,10.894,10.894,0,0,1,.9,1.242,3.151,3.151,0,0,0,.3.482,2.659,2.659,0,0,0-.225-.522,8.947,8.947,0,0,0-.854-1.293,19.308,19.308,0,0,0-3.773-3.425c-.392-.285-.783-.558-1.159-.815l-.024-.016h-.028c-1.641-.131-3.085-.233-4.113-.3-.486-.028-.89-.051-1.21-.067a2.072,2.072,0,0,0-.439,0Z" transform="translate(-53.233 -282.166)" fill="#003f60"/>
            <path id="Trazado_717664" data-name="Trazado 717664" d="M87.273,351.908a.749.749,0,0,0-.032.119c-.02.091-.044.206-.075.352-.055.312-.138.775-.21,1.376a44.951,44.951,0,0,0-.277,5.106c0,.542,0,1.107.012,1.7a2.489,2.489,0,0,0,.6,1.748,2.688,2.688,0,0,0,1.768.886c.664.115,1.353.233,2.053.356,2.808.494,5.889,1.088,9.139,1.614s6.371.9,9.219,1.147a48.16,48.16,0,0,0,7.577.293,10.708,10.708,0,0,0,1.534-.214,4.3,4.3,0,0,0,1.281-.526,9.916,9.916,0,0,0,1.72-1.38c.435-.423.751-.763.969-1,.1-.111.182-.2.241-.269s.079-.095.079-.095a.593.593,0,0,0-.091.083c-.067.063-.15.15-.257.253-.225.225-.554.558-.993.969a10.2,10.2,0,0,1-1.724,1.337,4.324,4.324,0,0,1-1.254.494,10.9,10.9,0,0,1-1.515.194,49.444,49.444,0,0,1-7.554-.336c-2.84-.261-5.952-.633-9.2-1.163s-6.328-1.111-9.139-1.6c-.7-.119-1.388-.237-2.056-.348a2.511,2.511,0,0,1-1.669-.819,2.328,2.328,0,0,1-.566-1.641c-.016-.589-.024-1.151-.028-1.693a49.026,49.026,0,0,1,.21-5.1c.059-.6.127-1.064.17-1.376.024-.146.04-.265.055-.356a.477.477,0,0,0,.012-.123Z" transform="translate(-30.305 -293.484)" fill="#003f60"/>
            <path id="Trazado_717665" data-name="Trazado 717665" d="M135.914,270.9c-.055,0,.451,5.632,1.131,12.56s1.281,12.548,1.337,12.541-.451-5.628-1.131-12.56S135.969,270.9,135.914,270.9Z" transform="translate(-65.29 -244.518)" fill="#003f60"/>
            <path id="Trazado_717666" data-name="Trazado 717666" d="M274.224,258.52a.861.861,0,0,0,0,.095v.281c.008.265.02.625.032,1.08.032.937.095,2.29.182,3.963.178,3.346.494,7.961.89,13.059s.736,9.709.949,13.051c.1,1.657.19,3.006.249,3.959.032.455.055.815.071,1.076.008.111.016.206.024.281a.364.364,0,0,0,.016.095.345.345,0,0,0,0-.095v-.281c-.008-.265-.02-.625-.032-1.08-.032-.937-.095-2.29-.182-3.963-.178-3.346-.494-7.961-.89-13.059s-.736-9.709-.949-13.051c-.1-1.657-.19-3.006-.249-3.959-.032-.455-.055-.815-.071-1.076-.008-.111-.016-.206-.024-.281A.36.36,0,0,0,274.224,258.52Z" transform="translate(-258.239 -237.034)" fill="#003f60"/>
            <path id="Trazado_717667" data-name="Trazado 717667" d="M284.23,353.839a16.6,16.6,0,0,1,1.23-1.748,9.634,9.634,0,0,1,4.2-2.855,17.225,17.225,0,0,1,2.76-.645,6.451,6.451,0,0,1,2.29.075,6.344,6.344,0,0,1,1.459.538,3.881,3.881,0,0,0,.518.257c0-.008-.036-.04-.119-.095s-.2-.142-.36-.233a5.666,5.666,0,0,0-1.463-.605,6.318,6.318,0,0,0-2.345-.123,16.505,16.505,0,0,0-2.8.637A9.384,9.384,0,0,0,285.349,352a8.5,8.5,0,0,0-.878,1.313,2.467,2.467,0,0,0-.237.526Z" transform="translate(-282.245 -291.338)" fill="#003f60"/>
            <path id="Trazado_717668" data-name="Trazado 717668" d="M249.216,384.407a2.212,2.212,0,0,0,.229.119c.174.079.4.178.68.3.593.261,1.447.637,2.511,1.088a24.822,24.822,0,0,0,3.836,1.349,5.817,5.817,0,0,0,2.416.071,4.67,4.67,0,0,0,2.262-1.269,6.477,6.477,0,0,0,1.4-2.187,15.272,15.272,0,0,0,.747-2.29,33.923,33.923,0,0,0,.712-4c.138-1.147.218-2.08.273-2.725.024-.3.04-.55.055-.744a1.006,1.006,0,0,0,0-.261,1.142,1.142,0,0,0-.047.257c-.024.19-.055.435-.095.74-.079.641-.178,1.57-.336,2.713a36.661,36.661,0,0,1-.751,3.975,15.081,15.081,0,0,1-.747,2.258,6.284,6.284,0,0,1-1.357,2.116,4.5,4.5,0,0,1-2.163,1.222,5.636,5.636,0,0,1-2.333-.059,26.493,26.493,0,0,1-3.824-1.3c-1.052-.427-1.914-.775-2.535-1.028-.285-.111-.514-.2-.692-.269a1.017,1.017,0,0,0-.249-.079Z" transform="translate(-236.067 -306.76)" fill="#003f60"/>
            <g id="Grupo_1006960" data-name="Grupo 1006960" transform="translate(56.923 68.631)" opacity="0.3">
              <path id="Trazado_717669" data-name="Trazado 717669" d="M128.926,377.738c.589.823,1.847.993,2.843,1.163,5.288.9,10.065,1.756,15.408,2.333l.68,3.5a79.492,79.492,0,0,1-16.084-3.994,6.36,6.36,0,0,1-1.946-1.056,2.434,2.434,0,0,1-.9-1.95Z" transform="translate(-128.92 -377.73)" fill="#003f60"/>
            </g>
            <g id="Grupo_1006961" data-name="Grupo 1006961" transform="translate(18.967 68.259)" opacity="0.3">
              <path id="Trazado_717670" data-name="Trazado 717670" d="M261.6,376.79a19.957,19.957,0,0,1-2.444,8.266c-.328.565-.827,1.19-1.479,1.119a1.721,1.721,0,0,1-1.123-.945,14.064,14.064,0,0,1-2.27-5.141l5.05-2.013Z" transform="translate(-254.28 -376.79)" fill="#003f60"/>
            </g>
            <path id="Trazado_717671" data-name="Trazado 717671" d="M182.74,375.289c-.036.044,3.8,3.061,8.578,6.735s8.669,6.616,8.7,6.573-3.8-3.061-8.578-6.735-8.669-6.616-8.7-6.573Z" transform="translate(-145.446 -307.623)" fill="#003f60"/>
            <path id="Trazado_717672" data-name="Trazado 717672" d="M265.992,357.64s-.032.233-.055.656a7.436,7.436,0,0,0,.008.775,9.413,9.413,0,0,0,.083,1.024,26.34,26.34,0,0,0,1.428,5.754,31.17,31.17,0,0,0,2.511,5.374,14.863,14.863,0,0,0,1,1.495,3.7,3.7,0,0,0,.427.5,3.746,3.746,0,0,0-.36-.55c-.237-.352-.57-.862-.941-1.523a35.261,35.261,0,0,1-2.44-5.371,29.5,29.5,0,0,1-1.479-5.7c-.051-.376-.1-.712-.111-1.012s-.051-.558-.043-.767a4.08,4.08,0,0,0-.024-.656Z" transform="translate(-249.722 -296.954)" fill="#003f60"/>
          </g>
          <g id="Grupo_1006965" data-name="Grupo 1006965" transform="translate(45.82 91.315)">
            <path id="Trazado_717673" data-name="Trazado 717673" d="M150.47,311.28s5.869-9.377,10.476-7.534c0,0,2.341-1.918,3.84-.692s.961,3.725.961,3.725,2.84-2.3,4.109-1.115.344,3.223,0,4.224a18.453,18.453,0,0,0-.538,3.108s1.728-.882,2.535.538-2.266,6.181-2.725,6.834-3.417,3.571-5.454,2.8a8.608,8.608,0,0,1-3.456-2.8Z" transform="translate(-150.47 -302.645)" fill="#ffbe9d"/>
            <path id="Trazado_717674" data-name="Trazado 717674" d="M163.046,313.982s-.2.107-.53.332c-.36.249-.834.573-1.4.965-.6.423-1.3.914-2.068,1.455a3.135,3.135,0,0,0-.562.5,1.228,1.228,0,0,0-.312.747,1.532,1.532,0,0,0,.894,1.36,2.58,2.58,0,0,0,1.633.17,5.557,5.557,0,0,0,1.42-.53c.85-.439,1.594-.87,2.207-1.25s1.1-.708,1.424-.945a3.074,3.074,0,0,0,.494-.388,4.244,4.244,0,0,0-.538.32c-.34.214-.834.522-1.451.886s-1.368.779-2.215,1.2a5.409,5.409,0,0,1-1.372.5,2.406,2.406,0,0,1-1.5-.158,1.346,1.346,0,0,1-.787-1.171,1.576,1.576,0,0,1,.787-1.1c.759-.554,1.451-1.06,2.041-1.491.554-.415,1.012-.755,1.364-1.02a3.881,3.881,0,0,0,.486-.4Z" transform="translate(-147.769 -309.491)" fill="#eb996e"/>
            <path id="Trazado_717675" data-name="Trazado 717675" d="M176.554,307.8s-.063.036-.174.115c-.127.095-.285.217-.479.36-.415.312-1.012.771-1.772,1.305a12.3,12.3,0,0,1-2.836,1.562,6.939,6.939,0,0,1-1.855.411,3.992,3.992,0,0,1-1.977-.269,1.6,1.6,0,0,1-.708-.664,1.17,1.17,0,0,1-.079-.914,4.583,4.583,0,0,1,1.056-1.542A22.092,22.092,0,0,1,170.159,306c.732-.569,1.345-1.008,1.772-1.305l.49-.344c.111-.079.17-.123.166-.13a.752.752,0,0,0-.186.095c-.119.067-.293.174-.514.312-.439.277-1.068.7-1.815,1.258a20.023,20.023,0,0,0-2.476,2.151c-.21.229-.423.467-.621.724a2.941,2.941,0,0,0-.49.89,1.4,1.4,0,0,0,.091,1.068,1.8,1.8,0,0,0,.8.755,4.17,4.17,0,0,0,2.084.285,7.078,7.078,0,0,0,1.9-.435,11.716,11.716,0,0,0,2.855-1.621c.755-.55,1.337-1.028,1.74-1.36.182-.158.332-.289.455-.392.1-.091.154-.142.15-.15Z" transform="translate(-161.352 -303.595)" fill="#eb996e"/>
            <g id="Grupo_1006963" data-name="Grupo 1006963" transform="translate(13.891 10.33)">
              <path id="Trazado_717676" data-name="Trazado 717676" d="M159.582,328.78l-4.129,1.981c-.471.225-1.012.566-.993,1.084a1.055,1.055,0,0,0,.3.637,3.363,3.363,0,0,0,2.745.993,10.025,10.025,0,0,0,2.907-.779" transform="translate(-154.363 -328.775)" fill="#ffbe9d"/>
              <path id="Trazado_717677" data-name="Trazado 717677" d="M160.509,332.687c-.012-.04-.684.245-1.807.53a5.1,5.1,0,0,1-2,.111,3.339,3.339,0,0,1-1.1-.384,2.2,2.2,0,0,1-.874-.85.624.624,0,0,1,0-.55,1.164,1.164,0,0,1,.4-.427,9.281,9.281,0,0,1,1.052-.558c.68-.336,1.3-.641,1.839-.906.49-.249.9-.459,1.23-.629a2.187,2.187,0,0,0,.439-.257,2.363,2.363,0,0,0-.475.182q-.5.225-1.258.569c-.542.253-1.167.546-1.855.866a8.659,8.659,0,0,0-1.088.562,1.366,1.366,0,0,0-.463.506.844.844,0,0,0,0,.724,2.876,2.876,0,0,0,2.136,1.333,5.04,5.04,0,0,0,2.064-.158,10.748,10.748,0,0,0,1.309-.455,2.063,2.063,0,0,0,.459-.217Z" transform="translate(-154.459 -328.766)" fill="#eb996e"/>
            </g>
            <path id="Trazado_717678" data-name="Trazado 717678" d="M152.805,346.913l6.221,4.694a10.361,10.361,0,0,0,1.012-9.3h-1.5l.34,1.673-2.836.593-3.243,2.341Z" transform="translate(-140.13 -326.623)" fill="#ffbe9d"/>
            <g id="Grupo_1006964" data-name="Grupo 1006964" transform="translate(15.637 15.572)">
              <path id="Trazado_717679" data-name="Trazado 717679" d="M158.608,342.02q-1.145,1.489-2.286,2.978a4.767,4.767,0,0,1-.886.961,1.613,1.613,0,0,1-1.226.348" transform="translate(-154.206 -342.02)" fill="#ffbe9d"/>
              <path id="Trazado_717680" data-name="Trazado 717680" d="M154.209,346.308a1.2,1.2,0,0,0,.937-.083,2.5,2.5,0,0,0,.823-.633c.261-.289.51-.629.779-.973.538-.7,1.012-1.337,1.349-1.807a4.306,4.306,0,0,0,.51-.783,4.128,4.128,0,0,0-.625.7c-.368.447-.862,1.072-1.4,1.768-.269.348-.514.692-.759.973a2.582,2.582,0,0,1-.747.629,2.064,2.064,0,0,1-.874.218Z" transform="translate(-154.205 -342.025)" fill="#eb996e"/>
            </g>
          </g>
          <g id="Grupo_1006966" data-name="Grupo 1006966" transform="translate(13.796 99.201)">
            <path id="Trazado_717681" data-name="Trazado 717681" d="M208.614,330.94,201,323.655a3.849,3.849,0,0,0-2.784-1.068l-39.077,1.143a.82.82,0,0,0-.463,1.479l10.974,8.06a1.062,1.062,0,0,0,.66.2l37.97-1.649a.513.513,0,0,0,.332-.882Z" transform="translate(-158.34 -322.585)" fill="#e0e0e0"/>
            <path id="Trazado_717682" data-name="Trazado 717682" d="M159.584,326.083s.047,0,.138.008h.4c.368,0,.886-.016,1.546-.024l5.687-.13c4.813-.13,11.437-.3,18.753-.5,3.662-.107,7.15-.21,10.326-.3l2.317-.071a9.2,9.2,0,0,1,1.1,0,2.815,2.815,0,0,1,.989.316,3.818,3.818,0,0,1,.8.625c.249.229.494.459.736.68q.724.664,1.384,1.277l4.192,3.844c.49.443.874.791,1.147,1.036.127.111.225.2.3.265s.107.087.107.087a1.278,1.278,0,0,0-.095-.1c-.071-.071-.166-.162-.289-.281-.265-.253-.641-.609-1.119-1.064-.989-.929-2.4-2.254-4.145-3.891q-.658-.617-1.376-1.285l-.732-.684a3.949,3.949,0,0,0-.831-.656,2.9,2.9,0,0,0-1.048-.344,8.189,8.189,0,0,0-1.123,0c-.751.02-1.527.04-2.317.063-3.176.087-6.664.186-10.326.285-7.316.221-13.944.419-18.753.562-2.389.083-4.33.146-5.683.194l-1.546.063c-.166.008-.3.016-.4.02a.768.768,0,0,0-.138.016Z" transform="translate(-159.567 -323.961)" fill="#263238"/>
          </g>
          <g id="Grupo_1006967" data-name="Grupo 1006967" transform="translate(6.069 68.395)">
            <path id="Trazado_717683" data-name="Trazado 717683" d="M282.939,275.984c-.051.028,1.9,3.789,4.346,8.4s4.481,8.329,4.532,8.3-1.9-3.785-4.35-8.4-4.481-8.329-4.528-8.3Z" transform="translate(-282.938 -263.605)" fill="#fff"/>
            <path id="Trazado_717684" data-name="Trazado 717684" d="M259.866,274.024c-.055.012.728,3.373,1.744,7.5s1.89,7.471,1.946,7.455-.728-3.373-1.744-7.506-1.89-7.467-1.946-7.455Z" transform="translate(-245.553 -262.421)" fill="#fff"/>
            <path id="Trazado_717685" data-name="Trazado 717685" d="M128.523,289.569c-.044-.036-2.432,2.626-5.339,5.952s-5.228,6.051-5.185,6.086,2.432-2.626,5.343-5.952,5.228-6.051,5.185-6.086Z" transform="translate(-54.417 -271.82)" fill="#fff"/>
            <path id="Trazado_717686" data-name="Trazado 717686" d="M147.254,256.13c-.055-.016-1.305,4.113-2.792,9.219s-2.65,9.262-2.594,9.278,1.305-4.113,2.792-9.219S147.306,256.146,147.254,256.13Z" transform="translate(-82.585 -251.606)" fill="#fff"/>
            <path id="Trazado_717687" data-name="Trazado 717687" d="M238.872,244.69s-.012.095-.02.281c0,.206-.008.471-.012.8v2.954c.016,2.515.04,5.948.067,9.745.051,3.8.095,7.229.127,9.745.028,1.23.047,2.23.063,2.954.012.332.02.6.028.8a1.329,1.329,0,0,0,.024.281,1.531,1.531,0,0,0,.02-.281c0-.206.008-.471.012-.8v-2.954c-.016-2.515-.04-5.952-.067-9.745-.051-3.8-.095-7.229-.127-9.745-.028-1.23-.047-2.23-.063-2.954-.012-.332-.02-.6-.028-.8A1.331,1.331,0,0,0,238.872,244.69Z" transform="translate(-212.86 -244.69)" fill="#fff"/>
          </g>
          <g id="Grupo_1006971" data-name="Grupo 1006971" transform="translate(16.468)">
            <g id="Grupo_1006970" data-name="Grupo 1006970">
              <path id="Trazado_717688" data-name="Trazado 717688" d="M149.526,91.833c1.475-1.582,3.263-3.073,3.781-5.173.475-1.93-.206-4.145.815-5.849,1.258-2.1,4.394-2.274,5.9-4.2.732-.933.989-2.167,1.712-3.1,1.234-1.6,3.528-1.958,5.525-1.681s3.907,1.064,5.916,1.269c2.756.281,5.632-.526,8.258.352,2.9.969,4.6,3.619,6.423,6.185l2.385,2.986a11.016,11.016,0,0,0,1.61,1.4,19.494,19.494,0,0,1,3.069,2.1,4.893,4.893,0,0,1-.55,7.032,5.227,5.227,0,0,1,3.354,5.24,14.937,14.937,0,0,1-1.064,3.516,5.246,5.246,0,0,0-.218,3.6A2.292,2.292,0,0,0,199.4,106.9a5.5,5.5,0,0,1-3.116,3.563,3.291,3.291,0,0,0,2.179,1.056c-2.412,5.185-8.6,7.747-14.316,7.585s-11.117-2.511-16.345-4.825l-15.257-4.52c-1.341-.356-1.847-2.017-1.784-3.4s.467-2.816.016-4.129c-.617-1.8-2.65-2.812-3.3-4.6-.74-2.033.566-4.224,2.041-5.806Z" transform="translate(-147.26 -71.745)" fill="#263238"/>
              <g id="Grupo_1006969" data-name="Grupo 1006969" transform="translate(7.998 1.738)">
                <g id="Grupo_1006968" data-name="Grupo 1006968" transform="translate(0 1.232)">
                  <path id="Trazado_717689" data-name="Trazado 717689" d="M175.584,122.381a63.149,63.149,0,0,0,3.073-10.508,22.184,22.184,0,0,0-.546-10.836c-.178-.526-1.72-4.058-2.27-4.018-.4.028.522,3.306.312,3.642a18.816,18.816,0,0,0-2.44,10.891,49.447,49.447,0,0,0,1.871,10.828" transform="translate(-145.38 -89.994)" fill="#263238"/>
                  <path id="Trazado_717690" data-name="Trazado 717690" d="M197.121,81.91l.846-.02c9.159.316,14.008,8.273,13.438,17.421l-.261,31.543a10.729,10.729,0,0,1-10.255,10.63h0a10.728,10.728,0,0,1-11.2-10.413c-.047-1.657-.087-2.816-.091-2.816s-8.827-1.159-9.143-9.946c-.154-4.247.241-13.015.692-20.944a16.382,16.382,0,0,1,15.969-15.447Z" transform="translate(-180.426 -80.848)" fill="#ffbe9d"/>
                  <path id="Trazado_717691" data-name="Trazado 717691" d="M206.93,193.528A21.232,21.232,0,0,0,218.3,189.87s-2.5,6.541-11.287,5.96l-.075-2.3Z" transform="translate(-197.753 -146.124)" fill="#eb996e"/>
                  <path id="Trazado_717692" data-name="Trazado 717692" d="M240.91,139.752a1.256,1.256,0,0,0,1.242,1.238,1.2,1.2,0,0,0,1.266-1.163,1.252,1.252,0,0,0-1.238-1.238,1.2,1.2,0,0,0-1.269,1.163Z" transform="translate(-236.312 -115.124)" fill="#263238"/>
                  <path id="Trazado_717693" data-name="Trazado 717693" d="M239.551,128.008c.158.158,1.1-.566,2.444-.6,1.349-.047,2.357.625,2.5.455.071-.075-.095-.368-.534-.672a3.424,3.424,0,0,0-2.005-.566,3.319,3.319,0,0,0-1.942.676c-.407.328-.542.629-.463.7Z" transform="translate(-236.86 -107.892)" fill="#263238"/>
                  <path id="Trazado_717694" data-name="Trazado 717694" d="M209.99,139.752a1.256,1.256,0,0,0,1.242,1.238,1.2,1.2,0,0,0,1.266-1.163,1.255,1.255,0,0,0-1.238-1.238A1.2,1.2,0,0,0,209.99,139.752Z" transform="translate(-193.164 -115.124)" fill="#263238"/>
                  <path id="Trazado_717695" data-name="Trazado 717695" d="M206.061,128.6c.158.158,1.1-.566,2.444-.593,1.349-.047,2.357.625,2.5.455.071-.075-.095-.368-.534-.672a3.424,3.424,0,0,0-2.005-.566,3.319,3.319,0,0,0-1.942.676C206.117,128.232,205.982,128.533,206.061,128.6Z" transform="translate(-190.125 -108.255)" fill="#263238"/>
                  <path id="Trazado_717696" data-name="Trazado 717696" d="M232.757,140.02a9.084,9.084,0,0,0-2.2-.344c-.344-.028-.672-.087-.74-.324a1.759,1.759,0,0,1,.206-1.028q.457-1.264.957-2.65a44.761,44.761,0,0,0,2.128-6.925,45.215,45.215,0,0,0-2.681,6.739q-.481,1.394-.914,2.666a1.978,1.978,0,0,0-.146,1.356.863.863,0,0,0,.577.49,2.189,2.189,0,0,0,.589.067,8.681,8.681,0,0,0,2.223-.051Z" transform="translate(-221.421 -109.175)" fill="#263238"/>
                  <path id="Trazado_717697" data-name="Trazado 717697" d="M223.716,159.37c-.221-.008-.19,1.459-1.42,2.531s-2.8.945-2.8,1.151c-.02.091.356.277,1.016.277a3.655,3.655,0,0,0,2.341-.878,3.174,3.174,0,0,0,1.1-2.12c.04-.613-.131-.973-.229-.961Z" transform="translate(-208.381 -127.686)" fill="#263238"/>
                  <path id="Trazado_717698" data-name="Trazado 717698" d="M203.1,115.2c.142.364,1.487.158,3.077.312,1.594.123,2.883.554,3.085.221.091-.158-.142-.5-.664-.842a5.376,5.376,0,0,0-4.694-.4c-.577.249-.862.546-.8.716Z" transform="translate(-187.218 -100.336)" fill="#263238"/>
                  <path id="Trazado_717699" data-name="Trazado 717699" d="M239.357,116.5c.245.3,1.167-.04,2.286-.083,1.115-.079,2.072.158,2.282-.17.091-.158-.063-.463-.486-.743a3.313,3.313,0,0,0-3.682.2c-.388.324-.51.645-.4.791Z" transform="translate(-236.215 -100.887)" fill="#263238"/>
                  <path id="Trazado_717700" data-name="Trazado 717700" d="M167.058,141.945c.15-.067,6-1.93,5.948,4.085s-6.078,4.726-6.086,4.552S167.058,141.945,167.058,141.945Z" transform="translate(-136.639 -116.956)" fill="#ffbe9d"/>
                  <path id="Trazado_717701" data-name="Trazado 717701" d="M170.79,151.3c.028-.02.1.075.281.158a1.052,1.052,0,0,0,.783.024,2.593,2.593,0,0,0,1.218-2.317,3.48,3.48,0,0,0-.281-1.5,1.211,1.211,0,0,0-.783-.811.538.538,0,0,0-.621.281c-.083.166-.044.289-.075.3-.016.016-.127-.1-.079-.348a.686.686,0,0,1,.241-.376.814.814,0,0,1,.581-.15,1.476,1.476,0,0,1,1.088.941,3.558,3.558,0,0,1,.348,1.681,2.72,2.72,0,0,1-1.55,2.586,1.128,1.128,0,0,1-.957-.166C170.8,151.444,170.766,151.31,170.79,151.3Z" transform="translate(-138.655 -119.935)" fill="#eb996e"/>
                  <path id="Trazado_717702" data-name="Trazado 717702" d="M174.532,85.869c-.965-.554,2.009-3.654,4.421-4.7,3.642-1.578,9.179-2.5,12.5-1.495,3.994,1.206,7.293,3.259,9.246,6.945a23.669,23.669,0,0,1,2.452,12.121,7.17,7.17,0,0,1-.91,3.658c-.862,1.317-2.488,2.124-2.448,3.963a2.521,2.521,0,0,1-.656,1.827c-1.119,1.151-2.448.028-3.049-1.084-1.281-2.377-1.38-5.193-1.451-7.894a17.53,17.53,0,0,1,.479-5.715c.312-1,.8-1.938,1.056-2.95a3.6,3.6,0,0,0-.376-3.01,3.769,3.769,0,0,0-.479-.5,6.266,6.266,0,0,0-6.2-1.289c-3.405,1.139-9.223,2.832-10.713,1.657a9.268,9.268,0,0,1-2.646-2.776l-1.218,1.242Z" transform="translate(-169.749 -79.255)" fill="#263238"/>
                </g>
                <path id="Trazado_717703" data-name="Trazado 717703" d="M197.626,76.97a13.219,13.219,0,0,0-10.172.384,6.867,6.867,0,0,0-3.694,3.931,3.944,3.944,0,0,0,1.894,4.7l.115.075c2.551.906,4.224.593,6.8-.249,2.163-.708,4.1-2.005,6.272-2.7A12.232,12.232,0,0,1,206,83.025a19.9,19.9,0,0,0-8.372-6.055Z" transform="translate(-176.225 -76.14)" fill="#263238"/>
              </g>
            </g>
            <path id="Trazado_717704" data-name="Trazado 717704" d="M190.393,107.9a2.678,2.678,0,0,0,.3-.348,4.778,4.778,0,0,0,.637-1.155,5.175,5.175,0,0,0,.348-2.06,5.136,5.136,0,0,0-1.981-3.8,5.617,5.617,0,0,0-1.542-.834,13.22,13.22,0,0,1-3.5-1.467,2.945,2.945,0,0,1-1.111-1.629,6.854,6.854,0,0,1-.119-2.12,11.984,11.984,0,0,0-.328-4.548,6.965,6.965,0,0,0-2.8-3.567,10.413,10.413,0,0,0-3.927-1.629,9.987,9.987,0,0,0-3.848,0,8.368,8.368,0,0,0-3.085,1.309,8.127,8.127,0,0,0-3,3.745,6.789,6.789,0,0,0-.36,1.269c-.02.138-.036.253-.047.34a.5.5,0,0,0-.008.115,9.07,9.07,0,0,1,.49-1.7,8.308,8.308,0,0,1,6.047-4.916,9.867,9.867,0,0,1,3.777.012,10.283,10.283,0,0,1,3.848,1.61,6.75,6.75,0,0,1,2.717,3.464,11.845,11.845,0,0,1,.324,4.473,6.964,6.964,0,0,0,.13,2.183,3.109,3.109,0,0,0,1.186,1.728,13.117,13.117,0,0,0,3.551,1.475,5.136,5.136,0,0,1,2.59,1.942,4.945,4.945,0,0,1,.878,2.539,5.087,5.087,0,0,1-.308,2.025,5.965,5.965,0,0,1-.862,1.534Z" transform="translate(-146.962 -79.487)" fill="#455a64"/>
            <path id="Trazado_717705" data-name="Trazado 717705" d="M185.8,105.647a3.544,3.544,0,0,0,.463-.269,6.072,6.072,0,0,0,1.159-1,6.459,6.459,0,0,0,1.242-2.08,6.157,6.157,0,0,0,.249-3.191,6.262,6.262,0,0,0-1.827-3.409,33.238,33.238,0,0,0-3.6-2.634,7.409,7.409,0,0,1-1.689-1.665,8.137,8.137,0,0,1-1.072-2.23,46.736,46.736,0,0,0-1.542-5.062,9.577,9.577,0,0,0-3.484-3.963,9.791,9.791,0,0,0-4.671-1.554,10.714,10.714,0,0,0-4.413.649,10.905,10.905,0,0,0-3.346,1.985,11.712,11.712,0,0,0-3.2,4.591A9,9,0,0,0,159.5,87.8s.016-.044.04-.131.059-.225.1-.384a12.638,12.638,0,0,1,.494-1.44,11.875,11.875,0,0,1,3.223-4.508,10.84,10.84,0,0,1,3.31-1.934,10.532,10.532,0,0,1,4.342-.621,9.63,9.63,0,0,1,4.572,1.534,9.4,9.4,0,0,1,3.405,3.88,47.347,47.347,0,0,1,1.538,5.038,8.466,8.466,0,0,0,1.1,2.282,7.525,7.525,0,0,0,1.736,1.7,34.349,34.349,0,0,1,3.595,2.606,6.137,6.137,0,0,1,1.8,3.314,6.012,6.012,0,0,1-.214,3.124,6.347,6.347,0,0,1-2.318,3.085c-.281.206-.447.293-.439.3Z" transform="translate(-141.72 -75.866)" fill="#455a64"/>
          </g>
          <g id="Grupo_1006972" data-name="Grupo 1006972" transform="translate(10.401 101.089)">
            <path id="Trazado_717706" data-name="Trazado 717706" d="M205.91,334.36s16.337-3.8,18.829-3.986c2.341-.174,2.954,1.293,2.954,1.293s3.5-.439,4.275,1.606a1.273,1.273,0,0,1-.819,1.8c-1.436.609-9.226,2.321-10.828,3.812S205.293,348,205.293,348l-5.414,2.211s-2.432-6.351-2.543-8.174a4.822,4.822,0,0,1,.554-2.816s-3.369-3.425-3.757-4.8a66.273,66.273,0,0,0-2.816-6.134,2.911,2.911,0,0,1,4.54.411,33.261,33.261,0,0,0,4.137,4.449,8.06,8.06,0,0,0,5.92,1.226Z" transform="translate(-191.317 -327.36)" fill="#ffbe9d"/>
            <path id="Trazado_717707" data-name="Trazado 717707" d="M202.46,345.708a1.1,1.1,0,0,0,.174-.067l.479-.229,1.76-.842c1.491-.7,3.575-1.614,5.932-2.48,1.179-.435,2.314-.815,3.354-1.139s1.993-.562,2.76-.9A3.618,3.618,0,0,0,218.5,338.9a1.955,1.955,0,0,0,.253-.475.628.628,0,0,0,.051-.178,5.141,5.141,0,0,1-.368.605,3.707,3.707,0,0,1-1.578,1.064c-.755.312-1.716.526-2.76.85s-2.183.692-3.369,1.127a59.406,59.406,0,0,0-5.924,2.543c-.74.368-1.329.68-1.732.906-.182.1-.336.19-.463.265a.882.882,0,0,0-.154.1Z" transform="translate(-182.429 -333.943)" fill="#eb996e"/>
            <path id="Trazado_717708" data-name="Trazado 717708" d="M262.272,343.286a4.726,4.726,0,0,0,3.306,1.748c.012-.063-.823-.229-1.736-.716S262.315,343.238,262.272,343.286Z" transform="translate(-252.855 -336.986)" fill="#eb996e"/>
          </g>
        </g>
      </g>
      <g id="Table" transform="translate(8.906 178.713)">
        <path id="Trazado_717709" data-name="Trazado 717709" d="M18.04,440.573c0,.055,35.237.1,78.692.1s78.7-.047,78.7-.1-35.229-.1-78.7-.1S18.04,440.517,18.04,440.573Z" transform="translate(-18.04 -440.47)" fill="#263238"/>
      </g>
      <g id="Windows" transform="translate(18.425 4.605)">
        <g id="Grupo_1006977" data-name="Grupo 1006977" transform="translate(102.78 44.713)">
          <g id="Grupo_1006974" data-name="Grupo 1006974" transform="translate(0)">
            <path id="Trazado_717710" data-name="Trazado 717710" d="M.26,113.55H52.313v21.415H5.5l-3.191,3.191v-3.191H.26Z" transform="translate(-0.189 -113.443)" fill="#fff"/>
            <path id="Trazado_717711" data-name="Trazado 717711" d="M.071,113.387s0,.123-.008.364,0,.613-.008,1.088c0,.969-.012,2.389-.016,4.224C.032,122.756.016,128.118,0,134.8v.071H2.12l-.075-.075c0,.985,0,2.072,0,3.191v.19l.134-.134c1-.993,2.076-2.072,3.2-3.188l-.059.024c12.386,0,27.838.012,44.554.02h2.361v-.1c0-7.514,0-14.739,0-21.419v-.1h-.1l-37.424.047c-4.6.012-8.265.02-10.781.028-1.25,0-2.211.008-2.867.012-.32,0-.566,0-.736.008s-.245.008-.245.008.087,0,.257.008.423,0,.747.008c.66,0,1.629.008,2.887.012,2.519.008,6.189.016,10.8.028l37.357.047-.1-.1c0,6.676,0,13.9,0,21.419l.1-.1H49.862c-16.717.008-32.164.016-44.554.02H5.272l-.024.024c-1.115,1.115-2.195,2.2-3.188,3.2l.134.055c0-1.115,0-2.207,0-3.191v-.075H.067l.071.071c-.016-6.668-.028-12.015-.04-15.7-.008-1.843-.012-3.267-.016-4.24,0-.482,0-.85-.008-1.1s-.008-.38-.008-.38Z" transform="translate(0 -113.28)" fill="#263238"/>
          </g>
          <g id="Grupo_1006975" data-name="Grupo 1006975" transform="translate(4.801 6.233)">
            <rect id="Rectángulo_347180" data-name="Rectángulo 347180" width="25.564" height="1.792" rx="0.896" fill="#e0e0e0"/>
            <rect id="Rectángulo_347181" data-name="Rectángulo 347181" width="25.564" height="1.792" rx="0.896" transform="translate(0 3.994)" fill="#e0e0e0"/>
            <rect id="Rectángulo_347182" data-name="Rectángulo 347182" width="25.564" height="1.792" rx="0.896" transform="translate(0 7.989)" fill="#e0e0e0"/>
          </g>
          <g id="Grupo_1006976" data-name="Grupo 1006976" transform="translate(34.648 4.54)">
            <rect id="Rectángulo_347183" data-name="Rectángulo 347183" width="13.169" height="13.169" rx="4.47" transform="translate(0)" fill="#455a64"/>
            <path id="Trazado_717712" data-name="Trazado 717712" d="M24.544,143.172l.3-.253-2.662-3.164a.967.967,0,0,0-1.325-.233l-1.57,1.048-1.847-2.333a.96.96,0,0,0-.728-.368.981.981,0,0,0-.755.312l-2.278,2.464.289.269,2.278-2.464a.575.575,0,0,1,.878.036l2.076,2.622,1.871-1.25a.579.579,0,0,1,.795.146l2.673,3.176Z" transform="translate(-12.675 -132.684)" fill="#fff"/>
            <ellipse id="Elipse_7724" data-name="Elipse 7724" cx="1.179" cy="1.179" rx="1.179" ry="1.179" transform="translate(6.585 2.238)" fill="#fff"/>
          </g>
        </g>
        <g id="Grupo_1006981" data-name="Grupo 1006981" transform="translate(9.052 83.536)">
          <g id="Grupo_1006978" data-name="Grupo 1006978" transform="translate(0 0)">
            <path id="Trazado_717713" data-name="Trazado 717713" d="M249.23,211.71h47.319v20.161h-4.88l-.514,4.441-3.646-4.441H249.23Z" transform="translate(-249.159 -211.607)" fill="#fff"/>
            <path id="Trazado_717714" data-name="Trazado 717714" d="M249.031,211.553s0,.115-.008.344,0,.577-.008,1.028c0,.914-.012,2.25-.016,3.979-.008,3.48-.024,8.526-.04,14.811v.071h.071c9.962.008,23.294.02,38.278.028l-.079-.036c1.155,1.408,2.393,2.915,3.642,4.441l.154.186.028-.241c.162-1.408.34-2.919.518-4.441l-.1.091h4.987v-.1c0-7.079,0-13.877,0-20.161v-.1h-.1l-34.047.047c-4.18.012-7.5.02-9.784.028-1.131,0-2.005.008-2.6.012-.289,0-.51,0-.668,0s-.221,0-.221,0,.079,0,.233,0,.384,0,.68.008c.6,0,1.479.008,2.622.012,2.286.008,5.616.016,9.808.028l33.983.047-.1-.1c0,6.284,0,13.082,0,20.161l.1-.1h-4.975l-.012.091c-.178,1.523-.352,3.033-.514,4.441l.182-.051c-1.254-1.527-2.491-3.033-3.646-4.441l-.032-.036h-.047l-38.278.032.071.071c-.016-6.264-.032-11.3-.04-14.767-.008-1.736-.012-3.081-.016-3.994,0-.455,0-.8-.008-1.04s-.008-.36-.008-.36Z" transform="translate(-248.96 -211.45)" fill="#263238"/>
          </g>
          <g id="Grupo_1006979" data-name="Grupo 1006979" transform="translate(4.758 4.568)">
            <path id="Trazado_717715" data-name="Trazado 717715" d="M305.659,224.9h18.793a.947.947,0,0,0,.949-.949h0a.947.947,0,0,0-.949-.949H305.659a.947.947,0,0,0-.949.949h0A.947.947,0,0,0,305.659,224.9Z" transform="translate(-304.71 -223)" fill="#112e4c"/>
            <path id="Trazado_717716" data-name="Trazado 717716" d="M305.659,235.6h18.793a.947.947,0,0,0,.949-.949h0a.947.947,0,0,0-.949-.949H305.659a.947.947,0,0,0-.949.949h0A.947.947,0,0,0,305.659,235.6Z" transform="translate(-304.71 -229.468)" fill="#112e4c"/>
            <path id="Trazado_717717" data-name="Trazado 717717" d="M305.659,246.308h18.793a.947.947,0,0,0,.949-.949h0a.947.947,0,0,0-.949-.949H305.659a.947.947,0,0,0-.949.949h0A.947.947,0,0,0,305.659,246.308Z" transform="translate(-304.71 -235.943)" fill="#112e4c"/>
          </g>
          <g id="Grupo_1006980" data-name="Grupo 1006980" transform="translate(29.993 2.768)">
            <rect id="Rectángulo_347184" data-name="Rectángulo 347184" width="13.96" height="13.96" rx="4.47" transform="translate(0)" fill="#112e4c"/>
            <path id="Trazado_717718" data-name="Trazado 717718" d="M272.14,237.987l.3-.253-2.824-3.354a1.017,1.017,0,0,0-1.392-.245l-1.673,1.115-1.966-2.484a1.026,1.026,0,0,0-.763-.388,1.037,1.037,0,0,0-.791.328l-2.416,2.61.289.269,2.416-2.61a.626.626,0,0,1,.482-.2.636.636,0,0,1,.467.237l2.191,2.768,1.977-1.317a.624.624,0,0,1,.858.158l2.832,3.365Z" transform="translate(-259.552 -226.87)" fill="#fff"/>
            <path id="Trazado_717719" data-name="Trazado 717719" d="M269.25,225.71a1.25,1.25,0,1,0,1.25-1.25A1.25,1.25,0,0,0,269.25,225.71Z" transform="translate(-262.27 -222.083)" fill="#fff"/>
          </g>
        </g>
        <g id="Grupo_1006985" data-name="Grupo 1006985" transform="translate(104.428 79.24)">
          <path id="Trazado_717720" data-name="Trazado 717720" d="M23.152,200.82H60.825a2.481,2.481,0,0,1,2.48,2.48v21.917a2.174,2.174,0,0,1-2.175,2.175h-30.7L25.6,232.221v-4.829H23.812a2.623,2.623,0,0,1-2.622-2.622V202.786a1.965,1.965,0,0,1,1.966-1.966Z" transform="translate(-21.106 -200.728)" fill="#fff"/>
          <path id="Trazado_717721" data-name="Trazado 717721" d="M60.666,200.82H23.108a1.917,1.917,0,0,0-1.918,1.918v3.021a.221.221,0,0,0,.221.221H63.087a.221.221,0,0,0,.221-.221v-2.3a2.64,2.64,0,0,0-2.638-2.638Z" transform="translate(-21.109 -200.728)" fill="#e0e0e0"/>
          <g id="Grupo_1006984" data-name="Grupo 1006984" transform="translate(25.292 9.489)">
            <rect id="Rectángulo_347185" data-name="Rectángulo 347185" width="12.608" height="12.608" rx="4.47" fill="#ffa031"/>
            <g id="Grupo_1006982" data-name="Grupo 1006982" transform="translate(1.091 5.062)" opacity="0.3">
              <path id="Trazado_717722" data-name="Trazado 717722" d="M34.877,240.065s.158-.131.419-.4c.285-.293.649-.672,1.088-1.127.229-.241.479-.506.743-.783a.66.66,0,0,1,.969.024c.542.688,1.135,1.44,1.756,2.231l.134.17.059.075.079-.051,1.36-.914.316-.21a.635.635,0,0,1,.312-.091.658.658,0,0,1,.542.269h0v0c.751.87,1.392,1.61,1.875,2.167.214.237.392.439.538.6a1.151,1.151,0,0,0,.206.2.925.925,0,0,0-.162-.237c-.134-.174-.3-.384-.5-.633-.467-.569-1.088-1.325-1.815-2.215h0a.845.845,0,0,0-.7-.348.829.829,0,0,0-.407.111c-.119.071-.218.142-.332.214-.439.289-.894.593-1.364.906l.138.024-.134-.17c-.629-.787-1.226-1.538-1.776-2.227a.834.834,0,0,0-1.234-.016c-.257.285-.5.554-.724.8-.419.471-.767.866-1.04,1.171a3.237,3.237,0,0,0-.36.447Z" transform="translate(-34.868 -237.379)"/>
            </g>
            <g id="Grupo_1006983" data-name="Grupo 1006983" transform="translate(6.304 2.147)" opacity="0.3">
              <path id="Trazado_717723" data-name="Trazado 717723" d="M42.3,231.137a1.127,1.127,0,1,0,1.127-1.127A1.129,1.129,0,0,0,42.3,231.137Z" transform="translate(-42.3 -230.01)"/>
            </g>
          </g>
          <path id="Trazado_717724" data-name="Trazado 717724" d="M22.992,200.679a1.709,1.709,0,0,0-.558.067,1.993,1.993,0,0,0-1.234,1.028,2.348,2.348,0,0,0-.21,1.182c0,.443,0,.925,0,1.443,0,1.044-.008,2.242-.012,3.591,0,2.693-.012,5.972-.02,9.741q0,2.83-.008,6.019a4.561,4.561,0,0,0,.162,1.621,2.922,2.922,0,0,0,.981,1.36,2.866,2.866,0,0,0,1.61.6c.581.016,1.151,0,1.736.008l-.087-.087c0,1.511,0,3.148,0,4.829v.217l.154-.154c1.527-1.523,3.156-3.148,4.833-4.825l-.067.028c8.439,0,17.749,0,27.525.008H60.5a4.779,4.779,0,0,0,.914-.043,2.27,2.27,0,0,0,1.8-1.91,7.673,7.673,0,0,0,.024-.9v-6.96c0-4.564,0-8.962-.008-13.154v-.783a5.968,5.968,0,0,0-.028-.791,2.522,2.522,0,0,0-.68-1.42,2.6,2.6,0,0,0-1.356-.755,3.63,3.63,0,0,0-.767-.051h-.747c-1.985,0-3.915,0-5.778,0l-10.369.012c-6.336.012-11.465.024-15.016.032l-4.081.02c-.463,0-.819.008-1.06.012s-.36.012-.36.012.123.008.36.012.6,0,1.06.012l4.081.02c3.551.008,8.681.02,15.016.032,3.172,0,6.644.008,10.369.012,1.863,0,3.793,0,5.778,0a10.166,10.166,0,0,1,1.479.047,2.4,2.4,0,0,1,1.258.7,2.352,2.352,0,0,1,.629,1.317,6.058,6.058,0,0,1,.024.763v.783c0,4.192,0,8.594-.008,13.154v6.96a7.855,7.855,0,0,1-.024.87,2.114,2.114,0,0,1-.285.791,2.077,2.077,0,0,1-1.356.949,4.535,4.535,0,0,1-.874.04H57.786c-9.776,0-19.086,0-27.525.008h-.04l-.028.028c-1.673,1.677-3.3,3.306-4.825,4.833l.154.063c0-1.681,0-3.318,0-4.829v-.083h-.087c-.581,0-1.167.008-1.728-.008a2.685,2.685,0,0,1-1.519-.562,2.742,2.742,0,0,1-.929-1.281,4.438,4.438,0,0,1-.158-1.57q0-3.186-.008-6.019c-.008-3.773-.016-7.047-.02-9.741,0-1.345-.008-2.547-.012-3.591,0-.522,0-1,0-1.443a2.292,2.292,0,0,1,.19-1.159,1.955,1.955,0,0,1,1.194-1.024,2.839,2.839,0,0,1,.55-.091Z" transform="translate(-20.946 -200.587)" fill="#263238"/>
          <path id="Trazado_717725" data-name="Trazado 717725" d="M25.9,205.776a.886.886,0,1,0,.886-.886A.884.884,0,0,0,25.9,205.776Z" transform="translate(12.664 -203.188)" fill="#fff"/>
          <path id="Trazado_717726" data-name="Trazado 717726" d="M32.64,205.776a.886.886,0,1,0,.886-.886A.884.884,0,0,0,32.64,205.776Z" transform="translate(3.259 -203.188)" fill="#fff"/>
          <path id="Trazado_717727" data-name="Trazado 717727" d="M39.39,205.776a.886.886,0,1,0,.886-.886A.884.884,0,0,0,39.39,205.776Z" transform="translate(-6.161 -203.188)" fill="#fff"/>
          <path id="Trazado_717728" data-name="Trazado 717728" d="M74.56,230.663c0,.055,3.441.1,7.688.1s7.688-.047,7.688-.1-3.441-.1-7.688-.1S74.56,230.607,74.56,230.663Z" transform="translate(-68.844 -218.706)" fill="#263238"/>
          <path id="Trazado_717729" data-name="Trazado 717729" d="M74.56,238.023c0,.055,3.441.1,7.688.1s7.688-.047,7.688-.1-3.441-.1-7.688-.1S74.56,237.967,74.56,238.023Z" transform="translate(-68.844 -223.156)" fill="#263238"/>
          <path id="Trazado_717730" data-name="Trazado 717730" d="M74.56,245.393c0,.055,3.441.1,7.688.1s7.688-.047,7.688-.1-3.441-.1-7.688-.1S74.56,245.337,74.56,245.393Z" transform="translate(-68.844 -227.611)" fill="#263238"/>
        </g>
        <g id="Grupo_1006987" data-name="Grupo 1006987" transform="translate(0 54.295)">
          <g id="Grupo_1006986" data-name="Grupo 1006986">
            <path id="Trazado_717731" data-name="Trazado 717731" d="M330.028,137.74H289.67v20.391h33.263l3.706,3.706v-3.706h3.389Z" transform="translate(-289.579 -137.649)" fill="#fff"/>
            <path id="Trazado_717732" data-name="Trazado 717732" d="M329.9,137.6s0,.127-.008.368,0,.6-.008,1.06c0,.933-.012,2.3-.02,4.058-.008,3.52-.024,8.606-.04,14.909l.075-.075c-1.052,0-2.2,0-3.385,0h-.079V158c0,1.151,0,2.412,0,3.706l.146-.059c-1.163-1.167-2.412-2.416-3.7-3.71l-.028-.028h-.036c-8.961,0-19.465-.008-30.641-.012h-2.622l.1.1c0-7.194,0-14.067-.008-20.391l-.095.095,29.016-.047c3.567-.012,6.395-.02,8.341-.028.969,0,1.712-.008,2.227-.012.249,0,.443,0,.577,0s.2,0,.2,0-.063,0-.186,0-.32,0-.566,0c-.506,0-1.246-.008-2.207-.012-1.938-.008-4.762-.016-8.317-.028l-29.079-.047h-.095v.095c0,6.324,0,13.2-.008,20.391v.1h2.725l30.641-.012-.063-.028c1.293,1.289,2.543,2.539,3.71,3.7l.146.146V161.7c0-1.293,0-2.551,0-3.706l-.079.079c1.186,0,2.333,0,3.385,0h.075V158c-.016-6.32-.032-11.425-.04-14.957-.008-1.752-.016-3.112-.02-4.042,0-.455-.008-.8-.008-1.044s-.008-.352-.008-.352Z" transform="translate(-289.45 -137.51)" fill="#263238"/>
          </g>
          <path id="Trazado_717733" data-name="Trazado 717733" d="M306.4,153.3c0,.055,6.031.1,13.474.1s13.474-.047,13.474-.1-6.031-.1-13.474-.1S306.4,153.247,306.4,153.3Z" transform="translate(-299.515 -146.995)" fill="#263238"/>
          <path id="Trazado_717734" data-name="Trazado 717734" d="M306.4,160.673c0,.055,6.031.1,13.474.1s13.474-.047,13.474-.1-6.031-.1-13.474-.1S306.4,160.617,306.4,160.673Z" transform="translate(-299.515 -151.45)" fill="#263238"/>
          <path id="Trazado_717735" data-name="Trazado 717735" d="M306.4,168.043c0,.055,6.031.1,13.474.1s13.474-.047,13.474-.1-6.031-.1-13.474-.1S306.4,167.987,306.4,168.043Z" transform="translate(-299.515 -155.906)" fill="#263238"/>
        </g>
        <g id="Grupo_1006989" data-name="Grupo 1006989" transform="translate(100.89 15.851)">
          <g id="Grupo_1006988" data-name="Grupo 1006988" transform="translate(0)">
            <path id="Trazado_717736" data-name="Trazado 717736" d="M64.3,40.52H92.909V60.915H71.391l-3.706,3.7v-3.7H64.3Z" transform="translate(-64.221 -40.433)" fill="#fff"/>
            <path id="Trazado_717737" data-name="Trazado 717737" d="M64.119,40.387s0,.119-.008.356,0,.6-.008,1.06c0,.945-.012,2.317-.02,4.081-.012,3.551-.024,8.657-.044,14.894v.083h.083c1.056,0,2.207,0,3.385,0l-.087-.087c0,1.159,0,2.416,0,3.706V64.7l.154-.154c1.171-1.171,2.42-2.416,3.71-3.7l-.067.028c5.817,0,12.208,0,18.892.008h2.725v-.1c0-7.344-.008-14.273-.012-20.391V40.3h-.091l-20.711.047c-2.5.012-4.477.02-5.837.024-.668,0-1.182.008-1.538.012-.17,0-.3,0-.392,0s-.131,0-.131,0,.047,0,.138,0,.229,0,.4,0c.36,0,.878.008,1.554.012,1.364,0,3.346.016,5.857.024l20.652.047-.091-.091c0,6.122-.008,13.047-.012,20.391l.1-.1H90.1c-6.687,0-13.074,0-18.892.008h-.04l-.028.028c-1.285,1.285-2.531,2.535-3.7,3.71l.154.063c0-1.289,0-2.547,0-3.706v-.087H67.5c-1.182,0-2.329,0-3.385,0l.083.083c-.02-6.213-.032-11.3-.044-14.842-.008-1.768-.016-3.152-.02-4.1,0-.467-.008-.827-.008-1.076s-.008-.376-.008-.376Z" transform="translate(-64.04 -40.3)" fill="#263238"/>
          </g>
          <path id="Trazado_717738" data-name="Trazado 717738" d="M96.406,56.093c0-.055-3.441-.1-7.688-.1s-7.688.047-7.688.1,3.441.1,7.688.1S96.406,56.148,96.406,56.093Z" transform="translate(-74.335 -49.785)" fill="#263238"/>
          <path id="Trazado_717739" data-name="Trazado 717739" d="M96.406,63.463c0-.055-3.441-.1-7.688-.1s-7.688.047-7.688.1,3.441.1,7.688.1S96.406,63.518,96.406,63.463Z" transform="translate(-74.335 -54.24)" fill="#263238"/>
          <path id="Trazado_717740" data-name="Trazado 717740" d="M96.406,70.833c0-.055-3.441-.1-7.688-.1s-7.688.047-7.688.1,3.441.1,7.688.1S96.406,70.888,96.406,70.833Z" transform="translate(-74.335 -58.696)" fill="#263238"/>
        </g>
        <g id="Grupo_1006991" data-name="Grupo 1006991" transform="translate(68.552 0)">
          <g id="Grupo_1006990" data-name="Grupo 1006990" transform="translate(0)">
            <path id="Trazado_717741" data-name="Trazado 717741" d="M168.43.44h19.758V20.2H186.3v2.946L183.355,20.2H168.43Z" transform="translate(-168.343 -0.353)" fill="#fff"/>
            <path id="Trazado_717742" data-name="Trazado 717742" d="M168.247.307s-.008.115-.008.352,0,.593-.012,1.044c0,.929-.012,2.278-.024,3.994-.012,3.468-.028,8.416-.044,14.372v.087h.087c4.433,0,9.5.008,14.929.016l-.071-.032c.937.937,1.934,1.934,2.942,2.946l.174.174V20.069l-.1.1h1.993v-.1c0-7.257-.012-14.012-.016-19.762V.22h-.087c-5.952.02-10.9.036-14.368.044-1.716.008-3.065.016-3.994.024-.451,0-.8.008-1.044.012s-.352.008-.352.008.13.008.372.008.605,0,1.064.012c.933,0,2.29.012,4.014.024,3.456.012,8.384.028,14.312.044l-.087-.087c0,5.75-.008,12.5-.016,19.762l.1-.1H186.02v3.045l.174-.071c-1.012-1.012-2.009-2.009-2.946-2.942l-.032-.032h-.043c-5.426,0-10.492.008-14.929.016l.087.087c-.02-5.936-.036-10.864-.044-14.316-.008-1.724-.016-3.081-.024-4.014,0-.459-.008-.815-.012-1.06s-.008-.372-.008-.372Z" transform="translate(-168.16 -0.22)" fill="#263238"/>
          </g>
          <path id="Trazado_717743" data-name="Trazado 717743" d="M184.551,16.606a2.984,2.984,0,0,1-1.78-2.764,2.81,2.81,0,1,1,5.608-.028,2.985,2.985,0,0,1-1.788,2.792c4.315.649,4.117,5.339,4.117,5.339l-10.2.047s-.233-4.738,4.042-5.382Z" transform="translate(-175.64 -6.64)" fill="#112e4c"/>
        </g>
        <g id="Grupo_1006993" data-name="Grupo 1006993" transform="translate(6.177 26.311)">
          <g id="Grupo_1006992" data-name="Grupo 1006992">
            <path id="Trazado_717744" data-name="Trazado 717744" d="M345.852,66.97H326.09V86.732h1.89v2.942l2.942-2.942h14.929Z" transform="translate(-325.983 -66.883)" fill="#fff"/>
            <path id="Trazado_717745" data-name="Trazado 717745" d="M345.749,66.837s-.008.131-.008.372,0,.6-.012,1.06c0,.933-.012,2.29-.024,4.014-.012,3.452-.028,8.384-.044,14.316l.087-.087c-4.433,0-9.5-.008-14.929-.016h-.044l-.032.032c-.937.937-1.934,1.934-2.946,2.942l.174.071V86.5h-1.993l.1.1c0-7.257-.012-14.012-.016-19.762l-.087.087c5.928-.02,10.856-.036,14.312-.044,1.724-.008,3.081-.016,4.014-.024.459,0,.815-.008,1.064-.012s.372-.008.372-.008-.115-.008-.352-.008-.593,0-1.044-.012c-.929,0-2.282-.012-3.994-.024-3.468-.012-8.416-.028-14.368-.044H325.9v.087c0,5.75-.008,12.5-.016,19.762v.1h1.993l-.1-.1V89.79l.174-.174c1.012-1.012,2.009-2.009,2.942-2.946l-.071.032c5.426,0,10.492-.008,14.929-.016h.087V86.6c-.02-5.956-.036-10.9-.044-14.372-.008-1.716-.016-3.065-.024-3.994q-.006-.676-.012-1.044c0-.233-.008-.352-.008-.352Z" transform="translate(-325.88 -66.75)" fill="#263238"/>
          </g>
          <path id="Trazado_717746" data-name="Trazado 717746" d="M338.927,81.583a4.807,4.807,0,1,1,8.95,2.428h0l-.012.02c-.186.312-.415.534-.649.858l-2.792,3.7a.868.868,0,0,1-1.384,0L340.3,84.953a9.444,9.444,0,0,1-.7-.925l-.012-.012h0a4.775,4.775,0,0,1-.664-2.428Zm4.805,2.092a2.116,2.116,0,1,0-2.116-2.116A2.116,2.116,0,0,0,343.732,83.675Z" transform="translate(-333.747 -72.812)" fill="#ffa031"/>
        </g>
        <g id="Grupo_1006996" data-name="Grupo 1006996" transform="translate(65.699 94.146)">
          <g id="Grupo_1006994" data-name="Grupo 1006994" transform="translate(0)">
            <path id="Trazado_717747" data-name="Trazado 717747" d="M166.027,238.5h20.565a1.872,1.872,0,0,1,1.871,1.871v18.963a1.872,1.872,0,0,1-1.871,1.871H169.712l-3.381,3.381V261.2h-.3a1.872,1.872,0,0,1-1.871-1.871V240.371a1.872,1.872,0,0,1,1.871-1.871Z" transform="translate(-164.076 -238.412)" fill="#fff"/>
            <path id="Trazado_717748" data-name="Trazado 717748" d="M165.835,238.366a1.574,1.574,0,0,0-.463.043,1.876,1.876,0,0,0-1.436,1.685c-.016.368-.008.759-.012,1.19,0,.858-.008,1.839-.012,2.942,0,2.2-.012,4.876-.02,7.937,0,1.53,0,3.16-.008,4.876v1.969a2.415,2.415,0,0,0,.063.688,1.951,1.951,0,0,0,.811,1.139,1.863,1.863,0,0,0,.664.281,3.4,3.4,0,0,0,.716.047l-.091-.091v3.607l.162-.162c1.068-1.068,2.215-2.211,3.385-3.381l-.071.028c4.5,0,9.4,0,14.486,0h2.464a1.959,1.959,0,0,0,1.847-1.507,2.229,2.229,0,0,0,.055-.621V254.9c0-3.112,0-6.114-.008-8.973,0-1.428,0-2.824,0-4.18v-1.507a1.986,1.986,0,0,0-.071-.51,1.963,1.963,0,0,0-1.364-1.376,3.484,3.484,0,0,0-.961-.071h-2.737c-1.179,0-2.314,0-3.393.008-4.319.012-7.819.024-10.243.032l-2.784.02q-.469.006-.724.012a1.937,1.937,0,0,0-.245.012s.083.008.245.012.411,0,.724.012l2.784.02c2.424.008,5.924.02,10.243.032,1.08,0,2.215,0,3.393.008h2.737a3.2,3.2,0,0,1,.917.067,1.78,1.78,0,0,1,1.242,1.258,3.838,3.838,0,0,1,.063.965v1.008q0,2.035,0,4.18c0,2.859,0,5.861-.008,8.973v3.543a5.985,5.985,0,0,1-.051,1.171,1.756,1.756,0,0,1-1.657,1.349h-2.456c-5.086,0-9.982,0-14.486,0h-.04l-.028.028c-1.171,1.171-2.314,2.317-3.381,3.385l.162.067v-3.472h-.091a3.2,3.2,0,0,1-.68-.04,1.82,1.82,0,0,1-.605-.253,1.781,1.781,0,0,1-.74-1.036,2.3,2.3,0,0,1-.059-.645v-1.969c0-1.716-.008-3.346-.008-4.876-.008-3.061-.016-5.73-.02-7.937,0-1.1-.008-2.084-.012-2.942,0-.427-.012-.827,0-1.182a1.84,1.84,0,0,1,1.372-1.665,2.549,2.549,0,0,1,.455-.071Z" transform="translate(-163.884 -238.278)" fill="#263238"/>
          </g>
          <g id="Grupo_1006995" data-name="Grupo 1006995" transform="translate(3.798 4.64)">
            <rect id="Rectángulo_347186" data-name="Rectángulo 347186" width="16.551" height="13.929" rx="6.964" transform="translate(0 0)" fill="#455a64"/>
            <path id="Trazado_717749" data-name="Trazado 717749" d="M191.059,265.867a.646.646,0,0,1-.969-.558V260.3a.645.645,0,0,1,.969-.558l2.167,1.25,2.167,1.254a.646.646,0,0,1,0,1.119l-2.167,1.254-2.167,1.25Z" transform="translate(-183.873 -255.842)" fill="#fff"/>
          </g>
        </g>
      </g>
      <g id="Speech_Bubble" data-name="Speech Bubble" transform="translate(41.702 0)">
        <g id="Grupo_1006999" data-name="Grupo 1006999">
          <g id="Grupo_1006997" data-name="Grupo 1006997">
            <ellipse id="Elipse_7725" data-name="Elipse 7725" cx="14.087" cy="14.087" rx="14.087" ry="14.087" transform="translate(25.576 37.393) rotate(-155.2)" fill="#fff"/>
            <path id="Trazado_717750" data-name="Trazado 717750" d="M249.91,14.2s.012-.079.024-.229.024-.38.043-.668c.008-.146.02-.312.032-.49s.059-.376.091-.589a10.246,10.246,0,0,1,.293-1.451,13.442,13.442,0,0,1,1.562-3.733A14.075,14.075,0,0,1,261.418.447,12.913,12.913,0,0,1,263.19.241c.3-.012.605-.04.914-.036l.925.047c.154.012.312.008.467.032l.467.071c.312.051.629.087.941.154a14.743,14.743,0,0,1,1.867.55,14.271,14.271,0,0,1,1.823.8c.3.162.577.348.87.522a7.1,7.1,0,0,1,.842.581,15.456,15.456,0,0,1,1.586,1.349,16.416,16.416,0,0,1,1.372,1.621,13.566,13.566,0,0,1,2,3.852,14.969,14.969,0,0,1,.72,4.414,14.969,14.969,0,0,1-.72,4.414c-.127.348-.253.692-.38,1.036-.158.328-.316.66-.475.985a3.739,3.739,0,0,1-.261.479l-.281.463-.281.459-.32.431a16.415,16.415,0,0,1-1.372,1.621,15.894,15.894,0,0,1-1.586,1.349,7.094,7.094,0,0,1-.842.581c-.293.174-.577.36-.87.522a14.52,14.52,0,0,1-1.823.8,15.428,15.428,0,0,1-1.867.55c-.312.063-.629.1-.941.154l-.467.071c-.154.02-.312.02-.467.032l-.925.047c-.309,0-.609-.024-.914-.036a12.458,12.458,0,0,1-1.772-.206,14.075,14.075,0,0,1-9.464-6.589,13.442,13.442,0,0,1-1.562-3.733,10.236,10.236,0,0,1-.293-1.451c-.032-.214-.071-.407-.091-.589s-.02-.344-.032-.49c-.02-.289-.032-.51-.044-.668s-.024-.229-.024-.229v.229c0,.158.012.38.024.672.008.146.012.312.02.494s.051.38.079.593a9.63,9.63,0,0,0,.277,1.463,13.343,13.343,0,0,0,1.538,3.773,13.988,13.988,0,0,0,11.322,6.913c.3.012.613.044.925.04l.937-.047c.158-.012.316-.008.475-.032l.475-.071c.316-.051.637-.087.953-.154a16.054,16.054,0,0,0,1.894-.55,14.129,14.129,0,0,0,1.851-.811c.3-.162.589-.352.886-.526a7.685,7.685,0,0,0,.858-.589,15.876,15.876,0,0,0,1.61-1.364,15.522,15.522,0,0,0,1.392-1.645l.328-.435.285-.467.285-.471a3.821,3.821,0,0,0,.265-.482c.158-.332.32-.664.482-1,.127-.348.257-.7.388-1.052a15.14,15.14,0,0,0,.732-4.477,15.139,15.139,0,0,0-.732-4.477,13.706,13.706,0,0,0-2.033-3.907,15.882,15.882,0,0,0-1.392-1.641,15.8,15.8,0,0,0-1.61-1.364,7.493,7.493,0,0,0-.858-.589c-.3-.174-.585-.364-.886-.526a14.932,14.932,0,0,0-1.851-.811,14.445,14.445,0,0,0-1.89-.55c-.316-.063-.637-.1-.953-.154l-.475-.071c-.158-.02-.316-.02-.475-.032L264.1.039c-.308,0-.617.028-.925.04a12.67,12.67,0,0,0-1.791.214,14.158,14.158,0,0,0-9.531,6.7,13.392,13.392,0,0,0-1.538,3.773,9.724,9.724,0,0,0-.277,1.463c-.028.214-.063.411-.079.593s-.016.348-.02.494c-.012.289-.02.51-.024.672s0,.229,0,.229Z" transform="translate(-245.298 4.494)" fill="#263238"/>
          </g>
          <path id="Trazado_717751" data-name="Trazado 717751" d="M279.3,29.9a2.424,2.424,0,0,0,1.274-.344,2.136,2.136,0,0,0,.265-1.353V23.7a2.894,2.894,0,0,0-.083-.846.572.572,0,0,0-.593-.388,1.126,1.126,0,0,0-.2.02c-.067.012-.257.063-.57.15v-.293l.4-.131q1.649-.54,2.3-.811a1.233,1.233,0,0,1,.34-.115.538.538,0,0,1,.02.142V28.2a2.2,2.2,0,0,0,.261,1.349,1.954,1.954,0,0,0,1.175.348v.265h-4.58V29.9Zm1.5-12.6a.979.979,0,0,1,1.388-.008.955.955,0,0,1,.289.7.914.914,0,0,1-.289.688.988.988,0,0,1-1.388,0,.934.934,0,0,1-.281-.688A.958.958,0,0,1,280.8,17.293Z" transform="translate(-262.618 -5.759)" fill="#263238"/>
          <g id="Grupo_1006998" data-name="Grupo 1006998" transform="translate(28.169 31.978)">
            <path id="Trazado_717752" data-name="Trazado 717752" d="M250.63,71.845a2.215,2.215,0,1,0,2.215-2.215A2.216,2.216,0,0,0,250.63,71.845Z" transform="translate(-250.617 -69.554)" fill="#fff"/>
            <path id="Trazado_717753" data-name="Trazado 717753" d="M250.373,71.728c.02,0,.016-.2.107-.53a2.191,2.191,0,0,1,.811-1.171,2.128,2.128,0,1,1,0,3.409,2.219,2.219,0,0,1-.811-1.171c-.091-.332-.087-.534-.107-.53s-.012.047-.012.142a2.031,2.031,0,0,0,.043.407,2.219,2.219,0,0,0,.8,1.269,2.287,2.287,0,0,0,3.251-.451,2.328,2.328,0,0,0,.455-1.368,2.293,2.293,0,0,0-.455-1.368,2.246,2.246,0,0,0-1.08-.8,2.286,2.286,0,0,0-2.171.352,2.186,2.186,0,0,0-.8,1.269,1.589,1.589,0,0,0-.043.407.438.438,0,0,0,.012.142Z" transform="translate(-250.36 -69.437)" fill="#263238"/>
          </g>
        </g>
      </g>
    </g>
  </g>
</svg>
