<svg xmlns="http://www.w3.org/2000/svg" xmlns:xlink="http://www.w3.org/1999/xlink" width="386.384" height="297.189" viewBox="0 0 386.384 297.189">
  <defs>
    <clipPath id="clip-path">
      <path id="Trazado_715417" data-name="Trazado 715417" d="M206.513,245.475c6.683-8.181,12.557-17.678,21.241-24.218,8.65-6.512,20.65-9.409,29.942-15.169a127.07,127.07,0,0,0,20.071-15,55.882,55.882,0,0,1-12.181,13.32c-6.327,4.969-14.132,8.054-21.255,11.672-6.859,3.485-13.172,7.618-18.429,13.283-10.261,11.061-19.4,23.216-32.771,30.757a80.672,80.672,0,0,1-8.693,4.234,75.091,75.091,0,0,0,22.074-18.883m72.5-141.149c-10.873-9.488-24.471-14.894-36.364-22.885-9.571-6.432-16.705-21.107-21.377-30.812-6.309-13.107-15.733-28.094-28.016-37.106a63.148,63.148,0,0,0-15.637-8.256c3.36.74,6.716,1.491,10.011,2.5,6.123,1.879,11.329,5.381,16.062,9.612A90.614,90.614,0,0,1,222.83,42.467c4.327,8.311,7.038,17.458,12.359,25.243,4.83,7.067,11.7,12.371,18.846,16.913,15.552,9.885,33.244,17.641,40.252,36.1,2.782,7.324,2.824,15.626,2.182,23.469-.234-14.944-5.665-29.582-17.454-39.871M145.507,0c-32.8.019-68.154,14.151-83.7,36.543-8.351,12.024-9.185,20.71-8.184,34.5,1.458,20.126-5.151,31.355-19.771,45.035-11.734,10.98-22.951,23.462-28.514,37.87q.495-1.844,1.114-3.661c3.478-10.181,10.059-19.2,17.079-27.215,6.348-7.253,14.014-13.371,19.478-21.374C54.594,84.72,46.8,64.063,52.423,45.514,58.5,25.477,80.253,16.549,97.906,9.438c.531-.214-.387-.492-.644-.409C79.508,14.7,59.615,23.969,51.31,41.783c-3.824,8.2-3.911,17.6-4.038,26.461C47.1,80.154,46.6,90.977,39.9,101.282c-5.679,8.744-14.471,15.42-21.24,23.308C11.609,132.817,5.649,142.107,2.384,152.5c-4.775,15.2-2.232,34.652,6.348,48.875a141.806,141.806,0,0,0,11.492,20.773c24.347,36.963,74.148,49.584,115.866,51.214,13.285.519,24.907-.431,35.329-3.569a42.932,42.932,0,0,0,8.268-2c4.383-1.587,8.829-3.545,13.05-5.494,14.633-6.757,24.908-19.527,35.777-30.935,11.917-12.5,28.884-16.134,42.231-26.49a53.979,53.979,0,0,0,14.647-18.027,41.424,41.424,0,0,0,4.317-12.221q1.247-2.571,2.276-5.251c8.557-12.971,10.2-31.65,6.448-46.143-4.86-18.764-22.842-28.21-38.216-37.29-8.425-4.977-16.378-10.658-22.245-18.608-5.813-7.877-9.08-17.543-13.651-26.145a94.3,94.3,0,0,0-19.066-24.256c-8.043-7.408-17.622-10.369-28.17-12.283-.884-.16-1.768-.314-2.652-.467a84.691,84.691,0,0,0-10.7-2.628A103.472,103.472,0,0,0,145.656,0Z" transform="translate(0 -0.004)" fill="#efaeb8"/>
    </clipPath>
    <filter id="Rectángulo_33844" x="315.901" y="84.57" width="51.279" height="32.155" filterUnits="userSpaceOnUse">
      <feOffset dy="3" input="SourceAlpha"/>
      <feGaussianBlur stdDeviation="3" result="blur"/>
      <feFlood flood-opacity="0.161"/>
      <feComposite operator="in" in2="blur"/>
      <feComposite in="SourceGraphic"/>
    </filter>
    <filter id="Trazado_113690" x="327.988" y="94.153" width="47.411" height="33.036" filterUnits="userSpaceOnUse">
      <feOffset dy="3" input="SourceAlpha"/>
      <feGaussianBlur stdDeviation="3" result="blur-2"/>
      <feFlood flood-opacity="0.161"/>
      <feComposite operator="in" in2="blur-2"/>
      <feComposite in="SourceGraphic"/>
    </filter>
    <filter id="Rectángulo_33844-2" x="129.833" y="254.57" width="51.279" height="32.155" filterUnits="userSpaceOnUse">
      <feOffset dy="3" input="SourceAlpha"/>
      <feGaussianBlur stdDeviation="3" result="blur-3"/>
      <feFlood flood-opacity="0.161"/>
      <feComposite operator="in" in2="blur-3"/>
      <feComposite in="SourceGraphic"/>
    </filter>
    <filter id="Trazado_113690-2" x="141.921" y="264.153" width="47.411" height="33.036" filterUnits="userSpaceOnUse">
      <feOffset dy="3" input="SourceAlpha"/>
      <feGaussianBlur stdDeviation="3" result="blur-4"/>
      <feFlood flood-opacity="0.161"/>
      <feComposite operator="in" in2="blur-4"/>
      <feComposite in="SourceGraphic"/>
    </filter>
    <filter id="Trazado_113638" x="145.912" y="37.62" width="80.333" height="80.333" filterUnits="userSpaceOnUse">
      <feOffset dy="3" input="SourceAlpha"/>
      <feGaussianBlur stdDeviation="3" result="blur-5"/>
      <feFlood flood-opacity="0.161"/>
      <feComposite operator="in" in2="blur-5"/>
      <feComposite in="SourceGraphic"/>
    </filter>
    <clipPath id="clip-path-2">
      <rect id="Rectángulo_346995" data-name="Rectángulo 346995" width="359" height="296" transform="translate(963 3156)" fill="#fff" stroke="#707070" stroke-width="1" opacity="0.6"/>
    </clipPath>
    <clipPath id="clip-path-3">
      <rect id="Rectángulo_346994" data-name="Rectángulo 346994" width="337.5" height="348.981" fill="none"/>
    </clipPath>
  </defs>
  <g id="Grupo_1006507" data-name="Grupo 1006507" transform="translate(3841.332 4985)">
    <path id="Trazado_715842" data-name="Trazado 715842" d="M-7436.733-8248h385.384" transform="translate(3595.901 3559)" fill="none" stroke="#002046" stroke-linecap="square" stroke-width="1" opacity="0.4"/>
    <g id="Grupo_1006484" data-name="Grupo 1006484" transform="translate(-4789 -8141)">
      <g id="Grupo_1006262" data-name="Grupo 1006262" transform="translate(996.773 3178.508)">
        <g id="Grupo_1006260" data-name="Grupo 1006260" transform="translate(0 0.004)" clip-path="url(#clip-path)">
          <rect id="Rectángulo_346887" data-name="Rectángulo 346887" width="304.578" height="273.873" transform="translate(-2.392 0)" fill="#efaeb8"/>
        </g>
      </g>
      <g id="Grupo_1006266" data-name="Grupo 1006266" transform="translate(0 39)">
        <g id="Grupo_1006264" data-name="Grupo 1006264" transform="translate(1272.569 3207.57)">
          <g transform="matrix(1, 0, 0, 1, -324.9, -90.57)" filter="url(#Rectángulo_33844)">
            <rect id="Rectángulo_33844-3" data-name="Rectángulo 33844" width="33.279" height="14.154" rx="3" transform="translate(324.9 90.57)" fill="#f9e8dc"/>
          </g>
          <g transform="matrix(1, 0, 0, 1, -324.9, -90.57)" filter="url(#Trazado_113690)">
            <path id="Trazado_113690-3" data-name="Trazado 113690" d="M3.765,15.036h21.88a3.766,3.766,0,0,0,3.765-3.765V3.765A3.765,3.765,0,0,0,25.645,0H3.765A3.765,3.765,0,0,0,0,3.765V11.27a3.765,3.765,0,0,0,3.765,3.765" transform="translate(336.99 100.15)" fill="#eb9ba8"/>
          </g>
          <path id="Trazado_113691" data-name="Trazado 113691" d="M3.658,1.829A1.829,1.829,0,1,0,1.829,3.658,1.829,1.829,0,0,0,3.658,1.829" transform="translate(17.381 15.272)" fill="#fff"/>
          <path id="Trazado_113692" data-name="Trazado 113692" d="M3.658,1.829A1.829,1.829,0,1,0,1.829,3.658,1.829,1.829,0,0,0,3.658,1.829" transform="translate(24.964 15.272)" fill="#fff"/>
          <path id="Trazado_113693" data-name="Trazado 113693" d="M3.658,1.829A1.829,1.829,0,1,0,1.829,3.658,1.829,1.829,0,0,0,3.658,1.829" transform="translate(32.546 15.272)" fill="#fff"/>
        </g>
        <g id="Grupo_1006265" data-name="Grupo 1006265" transform="translate(1298.533 3202.963)">
          <path id="Trazado_113641" data-name="Trazado 113641" d="M1520.528,262.607a.965.965,0,1,1-.965-.965.965.965,0,0,1,.965.965" transform="translate(-1518.599 -261.642)" fill="#ed9aa9"/>
          <path id="Trazado_113642" data-name="Trazado 113642" d="M1572.2,262.607a.965.965,0,1,1-.965-.965.965.965,0,0,1,.965.965" transform="translate(-1566.029 -261.642)" fill="#ed9aa9"/>
          <path id="Trazado_113643" data-name="Trazado 113643" d="M1623.879,262.607a.965.965,0,1,1-.965-.965.965.965,0,0,1,.965.965" transform="translate(-1613.458 -261.642)" fill="#ed9aa9"/>
          <path id="Trazado_113644" data-name="Trazado 113644" d="M1675.554,262.607a.965.965,0,1,1-.965-.965.965.965,0,0,1,.965.965" transform="translate(-1660.887 -261.642)" fill="#ed9aa9"/>
          <path id="Trazado_113646" data-name="Trazado 113646" d="M1520.528,311.933a.965.965,0,1,1-.965-.965.965.965,0,0,1,.965.965" transform="translate(-1518.599 -306.915)" fill="#ed9aa9"/>
          <path id="Trazado_113647" data-name="Trazado 113647" d="M1572.2,311.933a.965.965,0,1,1-.965-.965.965.965,0,0,1,.965.965" transform="translate(-1566.029 -306.915)" fill="#ed9aa9"/>
          <path id="Trazado_113648" data-name="Trazado 113648" d="M1623.879,311.933a.965.965,0,1,1-.965-.965.965.965,0,0,1,.965.965" transform="translate(-1613.458 -306.915)" fill="#ed9aa9"/>
          <path id="Trazado_113649" data-name="Trazado 113649" d="M1675.554,311.933a.965.965,0,1,1-.965-.965.965.965,0,0,1,.965.965" transform="translate(-1660.887 -306.915)" fill="#ed9aa9"/>
          <path id="Trazado_113651" data-name="Trazado 113651" d="M1520.528,361.259a.965.965,0,1,1-.965-.965.965.965,0,0,1,.965.965" transform="translate(-1518.599 -352.189)" fill="#ed9aa9"/>
          <path id="Trazado_113652" data-name="Trazado 113652" d="M1572.2,361.259a.965.965,0,1,1-.965-.965.965.965,0,0,1,.965.965" transform="translate(-1566.029 -352.189)" fill="#ed9aa9"/>
          <path id="Trazado_113653" data-name="Trazado 113653" d="M1623.879,361.259a.965.965,0,1,1-.965-.965.965.965,0,0,1,.965.965" transform="translate(-1613.458 -352.189)" fill="#ed9aa9"/>
          <path id="Trazado_113654" data-name="Trazado 113654" d="M1675.554,361.259a.965.965,0,1,1-.965-.965.965.965,0,0,1,.965.965" transform="translate(-1660.887 -352.189)" fill="#ed9aa9"/>
          <path id="Trazado_113656" data-name="Trazado 113656" d="M1520.528,410.586a.965.965,0,1,1-.965-.965.965.965,0,0,1,.965.965" transform="translate(-1518.599 -397.463)" fill="#ed9aa9"/>
          <path id="Trazado_113657" data-name="Trazado 113657" d="M1572.2,410.586a.965.965,0,1,1-.965-.965.965.965,0,0,1,.965.965" transform="translate(-1566.029 -397.463)" fill="#ed9aa9"/>
          <path id="Trazado_113658" data-name="Trazado 113658" d="M1623.879,410.586a.965.965,0,1,1-.965-.965.965.965,0,0,1,.965.965" transform="translate(-1613.458 -397.463)" fill="#ed9aa9"/>
          <path id="Trazado_113659" data-name="Trazado 113659" d="M1675.554,410.586a.965.965,0,1,1-.965-.965.965.965,0,0,1,.965.965" transform="translate(-1660.887 -397.463)" fill="#ed9aa9"/>
          <path id="Trazado_113661" data-name="Trazado 113661" d="M1520.528,459.912a.965.965,0,1,1-.965-.965.965.965,0,0,1,.965.965" transform="translate(-1518.599 -442.736)" fill="#ed9aa9"/>
          <path id="Trazado_113662" data-name="Trazado 113662" d="M1572.2,459.912a.965.965,0,1,1-.965-.965.965.965,0,0,1,.965.965" transform="translate(-1566.029 -442.736)" fill="#ed9aa9"/>
          <path id="Trazado_113663" data-name="Trazado 113663" d="M1623.879,459.912a.965.965,0,1,1-.965-.965.965.965,0,0,1,.965.965" transform="translate(-1613.458 -442.736)" fill="#ed9aa9"/>
          <path id="Trazado_113664" data-name="Trazado 113664" d="M1675.554,459.912a.965.965,0,1,1-.965-.965.965.965,0,0,1,.965.965" transform="translate(-1660.887 -442.736)" fill="#ed9aa9"/>
        </g>
      </g>
      <g id="Grupo_1006268" data-name="Grupo 1006268" transform="translate(-186.067 209)">
        <g id="Grupo_1006264-2" data-name="Grupo 1006264" transform="translate(1272.569 3207.57)">
          <g transform="matrix(1, 0, 0, 1, -138.83, -260.57)" filter="url(#Rectángulo_33844-2)">
            <rect id="Rectángulo_33844-4" data-name="Rectángulo 33844" width="33.279" height="14.154" rx="3" transform="translate(138.83 260.57)" fill="#f9e8dc"/>
          </g>
          <g transform="matrix(1, 0, 0, 1, -138.83, -260.57)" filter="url(#Trazado_113690-2)">
            <path id="Trazado_113690-4" data-name="Trazado 113690" d="M3.765,15.036h21.88a3.766,3.766,0,0,0,3.765-3.765V3.765A3.765,3.765,0,0,0,25.645,0H3.765A3.765,3.765,0,0,0,0,3.765V11.27a3.765,3.765,0,0,0,3.765,3.765" transform="translate(150.92 270.15)" fill="#eb9ba8"/>
          </g>
          <path id="Trazado_113691-2" data-name="Trazado 113691" d="M3.658,1.829A1.829,1.829,0,1,0,1.829,3.658,1.829,1.829,0,0,0,3.658,1.829" transform="translate(17.381 15.272)" fill="#fff"/>
          <path id="Trazado_113692-2" data-name="Trazado 113692" d="M3.658,1.829A1.829,1.829,0,1,0,1.829,3.658,1.829,1.829,0,0,0,3.658,1.829" transform="translate(24.964 15.272)" fill="#fff"/>
          <path id="Trazado_113693-2" data-name="Trazado 113693" d="M3.658,1.829A1.829,1.829,0,1,0,1.829,3.658,1.829,1.829,0,0,0,3.658,1.829" transform="translate(32.546 15.272)" fill="#fff"/>
        </g>
        <g id="Grupo_1006265-2" data-name="Grupo 1006265" transform="translate(1298.533 3202.963)">
          <path id="Trazado_113641-2" data-name="Trazado 113641" d="M1520.528,262.607a.965.965,0,1,1-.965-.965.965.965,0,0,1,.965.965" transform="translate(-1518.599 -261.642)" fill="#ed9aa9"/>
          <path id="Trazado_113642-2" data-name="Trazado 113642" d="M1572.2,262.607a.965.965,0,1,1-.965-.965.965.965,0,0,1,.965.965" transform="translate(-1566.029 -261.642)" fill="#ed9aa9"/>
          <path id="Trazado_113643-2" data-name="Trazado 113643" d="M1623.879,262.607a.965.965,0,1,1-.965-.965.965.965,0,0,1,.965.965" transform="translate(-1613.458 -261.642)" fill="#ed9aa9"/>
          <path id="Trazado_113644-2" data-name="Trazado 113644" d="M1675.554,262.607a.965.965,0,1,1-.965-.965.965.965,0,0,1,.965.965" transform="translate(-1660.887 -261.642)" fill="#ed9aa9"/>
          <path id="Trazado_113646-2" data-name="Trazado 113646" d="M1520.528,311.933a.965.965,0,1,1-.965-.965.965.965,0,0,1,.965.965" transform="translate(-1518.599 -306.915)" fill="#ed9aa9"/>
          <path id="Trazado_113647-2" data-name="Trazado 113647" d="M1572.2,311.933a.965.965,0,1,1-.965-.965.965.965,0,0,1,.965.965" transform="translate(-1566.029 -306.915)" fill="#ed9aa9"/>
          <path id="Trazado_113648-2" data-name="Trazado 113648" d="M1623.879,311.933a.965.965,0,1,1-.965-.965.965.965,0,0,1,.965.965" transform="translate(-1613.458 -306.915)" fill="#ed9aa9"/>
          <path id="Trazado_113649-2" data-name="Trazado 113649" d="M1675.554,311.933a.965.965,0,1,1-.965-.965.965.965,0,0,1,.965.965" transform="translate(-1660.887 -306.915)" fill="#ed9aa9"/>
          <path id="Trazado_113651-2" data-name="Trazado 113651" d="M1520.528,361.259a.965.965,0,1,1-.965-.965.965.965,0,0,1,.965.965" transform="translate(-1518.599 -352.189)" fill="#ed9aa9"/>
          <path id="Trazado_113652-2" data-name="Trazado 113652" d="M1572.2,361.259a.965.965,0,1,1-.965-.965.965.965,0,0,1,.965.965" transform="translate(-1566.029 -352.189)" fill="#ed9aa9"/>
          <path id="Trazado_113653-2" data-name="Trazado 113653" d="M1623.879,361.259a.965.965,0,1,1-.965-.965.965.965,0,0,1,.965.965" transform="translate(-1613.458 -352.189)" fill="#ed9aa9"/>
          <path id="Trazado_113654-2" data-name="Trazado 113654" d="M1675.554,361.259a.965.965,0,1,1-.965-.965.965.965,0,0,1,.965.965" transform="translate(-1660.887 -352.189)" fill="#ed9aa9"/>
          <path id="Trazado_113656-2" data-name="Trazado 113656" d="M1520.528,410.586a.965.965,0,1,1-.965-.965.965.965,0,0,1,.965.965" transform="translate(-1518.599 -397.463)" fill="#ed9aa9"/>
          <path id="Trazado_113657-2" data-name="Trazado 113657" d="M1572.2,410.586a.965.965,0,1,1-.965-.965.965.965,0,0,1,.965.965" transform="translate(-1566.029 -397.463)" fill="#ed9aa9"/>
          <path id="Trazado_113658-2" data-name="Trazado 113658" d="M1623.879,410.586a.965.965,0,1,1-.965-.965.965.965,0,0,1,.965.965" transform="translate(-1613.458 -397.463)" fill="#ed9aa9"/>
          <path id="Trazado_113659-2" data-name="Trazado 113659" d="M1675.554,410.586a.965.965,0,1,1-.965-.965.965.965,0,0,1,.965.965" transform="translate(-1660.887 -397.463)" fill="#ed9aa9"/>
          <path id="Trazado_113661-2" data-name="Trazado 113661" d="M1520.528,459.912a.965.965,0,1,1-.965-.965.965.965,0,0,1,.965.965" transform="translate(-1518.599 -442.736)" fill="#ed9aa9"/>
          <path id="Trazado_113662-2" data-name="Trazado 113662" d="M1572.2,459.912a.965.965,0,1,1-.965-.965.965.965,0,0,1,.965.965" transform="translate(-1566.029 -442.736)" fill="#ed9aa9"/>
          <path id="Trazado_113663-2" data-name="Trazado 113663" d="M1623.879,459.912a.965.965,0,1,1-.965-.965.965.965,0,0,1,.965.965" transform="translate(-1613.458 -442.736)" fill="#ed9aa9"/>
          <path id="Trazado_113664-2" data-name="Trazado 113664" d="M1675.554,459.912a.965.965,0,1,1-.965-.965.965.965,0,0,1,.965.965" transform="translate(-1660.887 -442.736)" fill="#ed9aa9"/>
        </g>
      </g>
      <g id="Grupo_1006267" data-name="Grupo 1006267" transform="translate(1090.58 3166.618)">
        <g id="Grupo_1003557" data-name="Grupo 1003557" transform="translate(12 33.001)">
          <path id="Trazado_113637" data-name="Trazado 113637" d="M1065.807,477.265a38.785,38.785,0,1,0-38.785,38.785,38.785,38.785,0,0,0,38.785-38.785" transform="translate(-985.967 -438.48)" fill="#e49ca7"/>
          <g transform="matrix(1, 0, 0, 1, -154.91, -43.62)" filter="url(#Trazado_113638)">
            <path id="Trazado_113638-2" data-name="Trazado 113638" d="M1125.66,544.736a31.166,31.166,0,1,0-31.167,31.167,31.167,31.167,0,0,0,31.167-31.167" transform="translate(-908.42 -469.95)" fill="#fff" opacity="0.5"/>
          </g>
        </g>
      </g>
    </g>
    <g id="Enmascarar_grupo_1000172" data-name="Enmascarar grupo 1000172" transform="translate(-4789 -8141)" clip-path="url(#clip-path-2)">
      <g id="Grupo_1006487" data-name="Grupo 1006487" transform="translate(978.27 3155.961)">
        <g id="Grupo_1006486" data-name="Grupo 1006486" transform="translate(0 0.002)">
          <g id="Grupo_1006485" data-name="Grupo 1006485" clip-path="url(#clip-path-3)">
            <path id="Trazado_715843" data-name="Trazado 715843" d="M133.243,264.238c.515,8.22,4.8,15.622-.641,23.015-4.9,6.666-11.6,9.81-13.717,18.95a25.754,25.754,0,0,0,.512,12.309c1.19,3.843,4.731,6.163,6.555,9.682,4.519,8.736-.856,14.072-4.989,20.993-4.692,7.853-5.18,15.846-.129,24.078,4.958,8.079,15.482,8.812,23.666,6.258,8.038-2.509,16.833-4.209,25.075-2.19,3.892.952,7.378,3.232,11.233,4.121,4.054.936,8.8-.067,12.82-1.079,7.951-2.007,16.267-6.141,18.93-14.811,2.758-8.972-4.91-17.645-3.6-26.635.685-4.706,4.535-5.884,7.7-8.277,3.2-2.413,6.416-6.235,7.575-10.121,2.456-8.249.957-16.321-6.553-20.982-7.813-4.848-10.381-11.661-9.235-20.98,1.037-8.455,4.1-17.83-4.043-23.146-8.509-5.556-5.81-15.9-12.258-23.738-8.286-10.077-28.756-9.244-39.664-3.568-12.45,6.479-20.1,22.369-19.233,36.122" transform="translate(-97.018 -185.319)" fill="#4e1715"/>
            <path id="Trazado_715844" data-name="Trazado 715844" d="M310.491,1509.2h39.976c4.229-34.163,8.309-83.607.241-105.775,0,0-50.852-10.278-48.4,25.61,0,0-1.267,42.323,8.182,80.165" transform="translate(-250.093 -1160.222)" fill="#e28262"/>
            <path id="Trazado_715845" data-name="Trazado 715845" d="M505.017,693.84c8.731-.243,13.52,7.52,16.25,15.364,2.868,8.249-4.514,31.255-11.164,25.591-13.07-11.13-19.59-17.83-19.838-26.559s6.022-14.154,14.752-14.4" transform="translate(-405.694 -574.155)" fill="#e28262"/>
            <path id="Trazado_715846" data-name="Trazado 715846" d="M225.492,1132.056c2-.364,10.266,3.9,10.266,3.9s10.317,33.161,10.762,38.2-34.233,31.144-72.973,16.282c0,0,17.933-46.7,19.033-58.2s32.911-.189,32.911-.189" transform="translate(-143.612 -932.673)" fill="#e38865"/>
            <path id="Trazado_715847" data-name="Trazado 715847" d="M223.72,1160.72s9.889,29.907,10.762,38.2c3.085,29.382-36.668,41.7-75.407,26.839,0,0-2.515-40.39,21.467-68.755,0,0,6.369,5.807,43.178,3.713" transform="translate(-131.574 -957.435)" fill="#002046"/>
            <path id="Trazado_715848" data-name="Trazado 715848" d="M199.88,1667.034c7.171-32.861,11.129-67.657,11.129-67.657l-23.556,8.8-28.016-15.383s2.069,40.342,4.5,74.239Z" transform="translate(-131.936 -1318.053)" fill="#f39672"/>
            <path id="Trazado_715849" data-name="Trazado 715849" d="M170.48,1425.574s-13.445,3.88-10.663,28.788c2.719,24.332,47.466,26.641,51.642,1.7,4.494-26.843-17.282-41.066-40.979-30.485" transform="translate(-131.937 -1176.769)" fill="#f39672"/>
            <path id="Trazado_715850" data-name="Trazado 715850" d="M332.451,497.168h26.965c-1.227-3.928-3.766-14.09.164-21.007l-27.24-17.885s4.843,30.017.111,38.892" transform="translate(-275.015 -379.228)" fill="#f39672"/>
            <path id="Trazado_715851" data-name="Trazado 715851" d="M357.481,485.378a17.578,17.578,0,0,1,2.1-9.218l-27.24-17.884a193.422,193.422,0,0,1,2.174,23.39c9.835,3.126,13.885,4.338,22.966,3.712" transform="translate(-275.015 -379.228)" fill="#db765e"/>
            <path id="Trazado_715852" data-name="Trazado 715852" d="M191.48,677.1c-12.621,6.036-5.844,19.983-5.844,19.983l16.4,59.7s15.325,6.268,42.222,3.129c3.733-5.344,11.409-27.739,13.981-44.839,2.121-14.084,8.7-27.963,1.532-35.815-2.749-3.009-23.676-6.014-23.784-6.507l-24.706-.1Z" transform="translate(-152.112 -556.619)" fill="#f39672"/>
            <path id="Trazado_715853" data-name="Trazado 715853" d="M331.173,290.265l1.634-3.978,4.094-11.736a12.029,12.029,0,0,0,.383-6.325,19.157,19.157,0,0,1-.054-9.915c2.771-10.73-1.753-16.637-1.753-16.637-5.823-10.291-20.759-11-20.759-11-18.517.022-20.931,17.827-20.931,17.827-3.575,11.744,5.413,22.1,5.429,22.121,1.137,1.308,1.164,3.345,1.662,4.918a14.92,14.92,0,0,0,2.48,4.657,33.267,33.267,0,0,0,9.079,8.082,36.606,36.606,0,0,0,14.067,4.079c1.885.076,3.735.194,4.67-2.089" transform="translate(-242.416 -190.883)" fill="#f39672"/>
            <path id="Trazado_715854" data-name="Trazado 715854" d="M277.4,272.273c.333-8.439.518-7.912.518-7.912.324-2.455,4.887,3.1,4.95-.111.289-14.715,5.986-21.437,8.13-22.464a25.909,25.909,0,0,1,16.545-2.275c7.367,1.7,6.578,11.574,6.578,11.574,6.241-35.047-31.163-25.76-31.163-25.76-19.931,4.165-18.422,22.44-18.422,22.44-.458,16.452,13.53,31.99,13.53,31.99Z" transform="translate(-218.884 -185.537)" fill="#4e1715"/>
            <path id="Trazado_715855" data-name="Trazado 715855" d="M311.089,433.048a3.967,3.967,0,0,1-2.6.647c-2.857-.186-5.1-2.983-5-6.243s2.491-5.741,5.345-5.555a5.026,5.026,0,0,1,3.461,1.8c1.3,1.509,1.209,4.161.792,5.97a5.46,5.46,0,0,1-2,3.385" transform="translate(-251.138 -349.116)" fill="#f3906b"/>
            <path id="Trazado_715856" data-name="Trazado 715856" d="M323.011,433.849c-.082-1.717-3.622-.259-3.148.73A5.33,5.33,0,0,0,321.179,436a2.5,2.5,0,0,1,.969,1.922c.006.1.012.4-.094.46-.462.286-1.844-1.455-2.146-1.824a2.861,2.861,0,0,1-.276-2.752,1.714,1.714,0,0,1,1.959-1.185c.776.084,1.563.181,1.472,1.142-.005.018-.049.177-.051.09" transform="translate(-264.312 -357.981)" fill="#e47a5d"/>
            <path id="Trazado_715857" data-name="Trazado 715857" d="M323.065,449.087c.381-.34.712-.024,1.061.257a1.639,1.639,0,0,1,.57,1.038,4.022,4.022,0,0,1-.575,2.834,2.157,2.157,0,0,1-1.9.891c-1.04-.082-1.3-1.017-1.3-1.9,0-.232.009-.793.242-.93.261-.143.417.255.576.429a1.468,1.468,0,0,0,.867.377,1.891,1.891,0,0,0,1.58-.613.8.8,0,0,0,.172-.26c-.032.577-.066.7-.109.38a1.774,1.774,0,0,0-.176-.416c-.223-.41-.615-.7-.864-1.1-.12-.181-.334-.813-.144-.989" transform="translate(-265.566 -371.502)" fill="#e47a5d"/>
            <path id="Trazado_715858" data-name="Trazado 715858" d="M331.38,481.237a1.754,1.754,0,1,1-1.664-1.842,1.757,1.757,0,0,1,1.664,1.842" transform="translate(-271.319 -396.703)" fill="#fff"/>
            <path id="Trazado_715859" data-name="Trazado 715859" d="M455.281,495.162l10.2-.487a.593.593,0,0,1,.614.877s-2.073,5.171-5.376,5.322-5.829-4.825-5.829-4.825a.569.569,0,0,1,.393-.886" transform="translate(-376.35 -409.348)" fill="#8f3433"/>
            <path id="Trazado_715860" data-name="Trazado 715860" d="M473.916,509.434a4.362,4.362,0,0,1-7.67.321,5.361,5.361,0,0,1,7.67-.321" transform="translate(-385.823 -420.356)" fill="#c74546"/>
            <path id="Trazado_715861" data-name="Trazado 715861" d="M456.317,495.211l.1-.046,10.2-.487a.881.881,0,0,1,.276.048c.3.446-.01,1.259-.825,1.788a23.717,23.717,0,0,1-8.848.409c-.914-.817-1.281-1.482-.9-1.711" transform="translate(-377.482 -409.351)" fill="#fff"/>
            <path id="Trazado_715862" data-name="Trazado 715862" d="M433.038,407.932c.036,1.375-.507,2.527-1.208,2.581s-1.29-1.016-1.32-2.388.511-2.526,1.209-2.576,1.288,1.015,1.319,2.383" transform="translate(-356.25 -335.594)" fill="#341e13"/>
            <path id="Trazado_715863" data-name="Trazado 715863" d="M516.184,408.044c-.006,1.372-.58,2.469-1.28,2.452s-1.256-1.137-1.245-2.509.579-2.469,1.282-2.451,1.256,1.14,1.243,2.507" transform="translate(-425.058 -335.586)" fill="#341e13"/>
            <path id="Trazado_715864" data-name="Trazado 715864" d="M399.86,377.493c3.011-3.374,10.1-1.427,10.1-1.427s.419.034.467-1.254c0,0,.114-1.129-.8-1.133,0,0-8.714-2.172-9.771,3.814" transform="translate(-330.888 -308.906)" fill="#4e1715"/>
            <path id="Trazado_715865" data-name="Trazado 715865" d="M506.066,375.885c-1-2.771-8.54-1.267-8.54-1.267-.982-.04-.916,1.181-.916,1.181-.017,1.387.44,1.375.44,1.375s7.706-1.663,8.708.154a7.846,7.846,0,0,0,.308-1.442" transform="translate(-410.948 -309.664)" fill="#4e1715"/>
            <path id="Trazado_715866" data-name="Trazado 715866" d="M479.023,450.051a.768.768,0,0,1-.143-1.523c2.295-.437,2.295-.437,2.675-.683.272-.173.314-.2-.2-1.067l-.181-.314a.767.767,0,1,1,1.334-.757l.166.284c.445.749,1.271,2.144-.287,3.146-.632.4-.729.422-3.217.9Z" transform="translate(-395.762 -368.505)" fill="#e47a5d"/>
            <path id="Trazado_715867" data-name="Trazado 715867" d="M532.742,701.584s6.62,0,10.369,16.757c0,0,18.359,55.734,6.585,58.96,0,0-17.581-3.467-34.126-47.849,0,0-1.513-26.806,17.172-27.868" transform="translate(-426.615 -580.568)" fill="#ebc3b5"/>
            <path id="Trazado_715868" data-name="Trazado 715868" d="M529.168,681.717l11.634,2.09s8.48,1.856,8.761,9.114c0,0,.477,13.752-7.01,38.618,0,0-12.377-38.156-13.385-49.822" transform="translate(-437.892 -564.128)" fill="#ebc3b5"/>
            <path id="Trazado_715869" data-name="Trazado 715869" d="M273.848,674.232l5.248.806s10.173,19.67,12.575,40.506c-2.573,17.1-7.726,42.99-13.981,44.839-21.2,6.271-43.333-3.584-43.333-3.584l-10.137-40.483c27.231-10.6,13.471-41.724,13.471-41.724l5.718-1.37,24.065,24.331Z" transform="translate(-185.543 -557.098)" fill="#fcd9cf"/>
            <path id="Trazado_715870" data-name="Trazado 715870" d="M551.739,756.913s10.638,14.738,12.491,22.328c1.222,4.99-7.477,16.229-14.5,18.211-3.838,1.082-3.928-39.547,2.009-40.539" transform="translate(-452.676 -626.353)" fill="#fcd9cf"/>
            <path id="Trazado_715871" data-name="Trazado 715871" d="M428.413,712.518l-.305,13.651-5.029-4.913Z" transform="translate(-350.101 -589.616)" fill="#ddb0a6"/>
            <path id="Trazado_715872" data-name="Trazado 715872" d="M328.482,650.948s-15.253-6.245-19.037-12.465l-7.127,7.362,18.5,17.948,7.664-12.539" transform="translate(-250.17 -528.351)" fill="#fee7dc"/>
            <path id="Trazado_715873" data-name="Trazado 715873" d="M496.041,723.362l-.659-9.16c-2.214-.544-4.586.528-7.78,9.16Z" transform="translate(-403.495 -590.912)" fill="#ddb0a6"/>
            <path id="Trazado_715874" data-name="Trazado 715874" d="M172.2,1483.062h35.493a95.649,95.649,0,0,0,24.724-7.349s8.657-52.707-1.536-104.524c0,0-70.458-6.517-73.744,19.816,0,0-2.747,25.25,2.2,89.313a92.3,92.3,0,0,0,12.862,2.744" transform="translate(-129.403 -1134.081)" fill="#002046"/>
            <path id="Trazado_715875" data-name="Trazado 715875" d="M143.048,687.344s-2.829,2.953-5.111,11.413c0,0-11.16,40.805-2.945,61.541,0,0,2.684,4.213,9.6,6.088l21.948-52.8s9.362-22.108-5.508-33.539l-12.45,3.178a13.414,13.414,0,0,0-5.53,4.124" transform="translate(-109.209 -562.742)" fill="#fcd9cf"/>
            <path id="Trazado_715876" data-name="Trazado 715876" d="M181.576,942.775l-7.838-6.192s-11.8-1.73-17.69-.986c0,0-1.949,2.708,12.932,3.123,0,0-10.438,3.334-13.787,5.813,0,0-.536,3.092,9.008-1.4l4.342-.318-10.1,5.04s.393,1.922,9.586-.576l9.22,1.011Z" transform="translate(-128.419 -774.063)" fill="#f39672"/>
            <path id="Trazado_715877" data-name="Trazado 715877" d="M336.966,955.776l-50.5-6.039a18.644,18.644,0,0,0-3.874,14.547L347.1,984.742s17.046,3.021,12.549-17.5c0,0-7.2-10.465-22.681-11.464" transform="translate(-233.627 -785.917)" fill="#ebc3b5"/>
            <path id="Trazado_715878" data-name="Trazado 715878" d="M513.916,937.709s-9.069,4.894-12.477,5.281l-5.279-9.112,7.215-4.677,4.945-1.141s8.135-2.1,10.277,9.064Z" transform="translate(-410.577 -767.849)" fill="#f39672"/>
            <path id="Trazado_715879" data-name="Trazado 715879" d="M158.255,992.78s-13.838,1.266-10.369-13.79c2.993-8.473,14-11.932,14-11.932l45.61-13.764s4.339,1.658,6.268,12.263c0,0-39.884,27.627-55.511,27.222" transform="translate(-121.915 -788.861)" fill="#fcd9cf"/>
            <path id="Trazado_715880" data-name="Trazado 715880" d="M490.839,664.147s-1.48-5.719-8.726-10.551l.947,19.711s4.025-10.081,7.78-9.16" transform="translate(-398.953 -540.857)" fill="#fee7dc"/>
            <path id="Trazado_715881" data-name="Trazado 715881" d="M163.9,241.984c-10.558,2.893-20.247,8.5-22.245,18.934-.807,4.219-2.153,9.611-.429,13.817,1.821,4.442,5.982,7.825,7.98,12.283,4.3,9.585,1.03,14.132-5.686,21.505-6.334,6.955-8.108,15.688-1.724,23.015,3.031,3.481,7.842,5.68,9.99,9.712,1.851,3.471,4.005,9.474,3.576,13.316-1.061,9.5-13.21,9.423-17.271,16.377-2.048,3.508-.532,7.984-3.678,10.859-3.2,2.929-9.422,3.477-13.847,3.479-3.595,0-9.583-1.633-12.4-3.707-4.173-3.074-3.418-6.118-9.816-6.538-5.524-.362-8.487-.449-8.546-6.144a19.072,19.072,0,0,1,3.849-11.768c5.7-8.294,12.214-13.774,6.551-23.553-5.313-9.167-12.627-14.491-5.273-24.547,5.133-7.021,16.834-11.713,18.682-20.584,1.532-7.353-5.126-13.468-4.9-20.874.426-13.838,14.8-25.987,26.672-30.756a30.547,30.547,0,0,1,21.433.047c.4.152,8.251,4.81,7.084,5.13" transform="translate(-74.311 -194.372)" fill="#4e1715"/>
            <path id="Trazado_715882" data-name="Trazado 715882" d="M1493.3,290.623c-23.805-2.515-11.243-56.251,8.906-54.1,21.051,2.25,18.164,56.956-8.906,54.1" transform="translate(-1224.992 -195.677)" fill="#8c5330"/>
            <path id="Trazado_715883" data-name="Trazado 715883" d="M1161,1794.816c-.054-5.1-.173-8-.173-8,3.045-53.2-72.12-37.141-72.12-37.141-3.942,11.217-5.749,27.089-6.149,45.141Z" transform="translate(-895.825 -1445.99)" fill="#e28262"/>
            <path id="Trazado_715884" data-name="Trazado 715884" d="M990.441,701.2a23.426,23.426,0,0,0-24.074,22.765c-.36,12.931,6.69,46.3,16.539,37.91,19.366-16.49,29.027-26.409,29.39-39.343s-8.92-20.971-21.855-21.331" transform="translate(-799.667 -580.246)" fill="#f6a472"/>
            <path id="Trazado_715885" data-name="Trazado 715885" d="M928.362,796.311l23.609-1.035,12.323,20.912s-24.685,73.633-36.719,87.176c-12.819,14.423-14.089-1.776-15.34-8.187,0,0,7.2-86.705,16.127-98.867" transform="translate(-754.883 -658.099)" fill="#f6a472"/>
            <path id="Trazado_715886" data-name="Trazado 715886" d="M1106.354,1350.416c-2.967-.537-15.208,5.78-15.208,5.78s-15.29,49.129-15.942,56.6,50.715,46.134,108.106,24.116c0,0-26.572-69.18-28.2-86.221s-48.758-.276-48.758-.276" transform="translate(-889.736 -1111.383)" fill="#e38865"/>
            <path id="Trazado_715887" data-name="Trazado 715887" d="M1118.083,1496.888h39.5a143.331,143.331,0,0,0,28.161-7.658s3.721-59.839-31.8-101.861c0,0-9.436,8.609-63.966,5.5,0,0-14.654,44.305-15.942,56.6-2.674,25.437,16.336,42.235,44.05,47.414" transform="translate(-888.565 -1148.062)" fill="#112e4c"/>
            <path id="Trazado_715888" data-name="Trazado 715888" d="M1348.859,1821.836c1.405-31.465-16.269-36.58-16.269-36.58-32.487-14.506-62.532,2.458-61.559,36.58Z" transform="translate(-1051.771 -1473.009)" fill="#f39672"/>
            <path id="Trazado_715889" data-name="Trazado 715889" d="M1272.946,409.845H1233c1.814-5.818,5.576-20.871-.243-31.116l40.356-26.5s-7.174,44.468-.168,57.616" transform="translate(-1020.119 -291.473)" fill="#f6a472"/>
            <path id="Trazado_715890" data-name="Trazado 715890" d="M1235.867,392.381a26.079,26.079,0,0,0-3.109-13.651l40.356-26.5a286.266,286.266,0,0,0-3.22,34.653c-14.575,4.632-20.571,6.427-34.027,5.5" transform="translate(-1020.119 -291.473)" fill="#c07a4e"/>
            <path id="Trazado_715891" data-name="Trazado 715891" d="M1112.387,675.949c18.692,8.939,8.7,30.064,8.7,30.064l-24.3,88.442s-22.705,9.28-62.547,4.634c-5.533-7.92-16.907-41.1-20.715-66.432-3.138-20.864-12.884-41.423-2.267-53.055,4.069-4.461,35.074-8.911,35.229-9.64l36.6-.15Z" transform="translate(-832.828 -554.275)" fill="#f6a472"/>
            <path id="Trazado_715892" data-name="Trazado 715892" d="M1147.306,103.338l-2.421-5.89-6.068-17.391c-.855-2.767-1.387-6.577-.565-9.367a28.377,28.377,0,0,0,.075-14.69c-4.1-15.9,2.6-24.645,2.6-24.645,8.631-15.245,30.757-16.3,30.757-16.3,27.429.031,31.01,26.407,31.01,26.407,5.29,17.4-8.018,32.747-8.045,32.773-1.686,1.941-1.723,4.954-2.462,7.29a22.021,22.021,0,0,1-3.676,6.894,49.244,49.244,0,0,1-13.451,11.977c-4.762,2.736-14.108,5.774-20.838,6.045-2.79.112-5.53.281-6.916-3.1" transform="translate(-940.876 -12.457)" fill="#f6a472"/>
            <path id="Trazado_715893" data-name="Trazado 715893" d="M1187.829,72.147c-.492-12.5-.769-11.719-.769-11.719-.478-3.634-7.24,4.6-7.334-.164-.429-21.8-8.864-31.761-12.04-33.276-8.631-4.117-17.555-4.975-24.516-3.372-10.91,2.515-9.746,17.147-9.746,17.147-12.1-53.172,48.6-39.068,48.6-39.068,29.527,6.169,27.919,33.781,27.919,33.781,5.069,29.3-23.1,47.758-23.1,47.758Z" transform="translate(-936.598 -0.002)" fill="#995a34"/>
            <path id="Trazado_715894" data-name="Trazado 715894" d="M1428,314.878a5.876,5.876,0,0,0,3.858.965c4.233-.276,7.549-4.421,7.4-9.25s-3.687-8.505-7.916-8.23a7.435,7.435,0,0,0-5.126,2.661c-1.928,2.234-1.791,6.161-1.174,8.839a8.087,8.087,0,0,0,2.958,5.016" transform="translate(-1178.897 -246.886)" fill="#f3906b"/>
            <path id="Trazado_715895" data-name="Trazado 715895" d="M1454.509,316.067c.119-2.546,5.365-.387,4.66,1.079a7.749,7.749,0,0,1-1.947,2.1,3.715,3.715,0,0,0-1.433,2.847c-.013.146-.019.587.136.684.684.422,2.733-2.159,3.181-2.705a4.217,4.217,0,0,0,.4-4.074,2.522,2.522,0,0,0-2.9-1.753c-1.151.123-2.317.262-2.18,1.687.009.031.067.262.077.134" transform="translate(-1203.547 -260.02)" fill="#e47a5d"/>
            <path id="Trazado_715896" data-name="Trazado 715896" d="M1453.26,338.635c-.565-.506-1.051-.036-1.573.381a2.448,2.448,0,0,0-.839,1.536,5.941,5.941,0,0,0,.853,4.194,3.2,3.2,0,0,0,2.818,1.323c1.544-.123,1.929-1.505,1.921-2.817,0-.345-.016-1.172-.364-1.371-.385-.218-.618.368-.849.627a2.184,2.184,0,0,1-1.283.56,2.786,2.786,0,0,1-2.341-.907,1.236,1.236,0,0,1-.255-.382c.042.853.1,1.034.161.564a2.288,2.288,0,0,1,.262-.618c.325-.608.91-1.043,1.28-1.625.177-.271.489-1.2.209-1.466" transform="translate(-1200.526 -280.042)" fill="#e47a5d"/>
            <path id="Trazado_715897" data-name="Trazado 715897" d="M1203.188,403.671l-15.107-.72a.876.876,0,0,0-.908,1.3s3.069,7.664,7.964,7.882,8.633-7.149,8.633-7.149a.84.84,0,0,0-.582-1.311" transform="translate(-982.316 -333.445)" fill="#8f3433"/>
            <path id="Trazado_715898" data-name="Trazado 715898" d="M1201.821,424.8c1.363,1.8,3.242,3.523,5.519,3.624s4.321-1.459,5.841-3.147a7.935,7.935,0,0,0-11.36-.476" transform="translate(-994.518 -349.739)" fill="#c74546"/>
            <path id="Trazado_715899" data-name="Trazado 715899" d="M1205.4,403.743l-.145-.067-15.107-.72a1.312,1.312,0,0,0-.409.07c-.444.66.013,1.866,1.222,2.649a35.192,35.192,0,0,0,13.109.6c1.354-1.212,1.9-2.193,1.331-2.535" transform="translate(-984.384 -333.45)" fill="#fff"/>
            <path id="Trazado_715900" data-name="Trazado 715900" d="M1443.214,386.255a2.6,2.6,0,1,0,2.463-2.728,2.6,2.6,0,0,0-2.463,2.728" transform="translate(-1194.27 -317.369)" fill="#fff"/>
            <path id="Trazado_715901" data-name="Trazado 715901" d="M1298.894,274.445c-.054,2.032.751,3.74,1.79,3.82s1.91-1.5,1.954-3.536-.755-3.74-1.789-3.816-1.908,1.5-1.955,3.531" transform="translate(-1074.845 -224.182)" fill="#341e13"/>
            <path id="Trazado_715902" data-name="Trazado 715902" d="M1175.76,274.616c.008,2.031.858,3.656,1.9,3.634s1.86-1.688,1.843-3.718-.857-3.655-1.9-3.628-1.862,1.687-1.843,3.712" transform="translate(-972.953 -224.175)" fill="#341e13"/>
            <path id="Trazado_715903" data-name="Trazado 715903" d="M1290.868,229.35c-4.46-5-14.969-2.114-14.969-2.114s-.623.048-.693-1.856c0,0-.169-1.675,1.186-1.679,0,0,12.91-3.216,14.476,5.65" transform="translate(-1055.239 -184.644)" fill="#995a34"/>
            <path id="Trazado_715904" data-name="Trazado 715904" d="M1141.481,226.956c1.479-4.1,12.651-1.877,12.651-1.877,1.457-.057,1.359,1.751,1.359,1.751.023,2.056-.653,2.035-.653,2.035s-11.415-2.461-12.9.23a11.656,11.656,0,0,1-.458-2.138" transform="translate(-944.587 -185.756)" fill="#995a34"/>
            <path id="Trazado_715905" data-name="Trazado 715905" d="M1204.527,311.815a12.718,12.718,0,0,0,3.284-.461,1.137,1.137,0,1,0-.586-2.2c-3.178.845-5.1.11-6.088-.539a15.548,15.548,0,0,0,4.9-11.3,1.135,1.135,0,0,0-1.119-1.156,1.118,1.118,0,0,0-1.155,1.117,13.1,13.1,0,0,1-4.992,10.346l-.969.653.678.95a7.382,7.382,0,0,0,6.048,2.583" transform="translate(-991.192 -245.078)" fill="#e47a5d"/>
            <path id="Trazado_715906" data-name="Trazado 715906" d="M1018.629,794.655s-15.761,21.833-18.51,33.081c-1.8,7.391,11.083,24.041,21.486,26.976,5.686,1.6,5.819-58.581-2.975-60.056" transform="translate(-827.467 -657.585)" fill="#3c98c3"/>
            <path id="Trazado_715907" data-name="Trazado 715907" d="M1018.629,794.655s-15.761,21.833-18.51,33.081c-1.8,7.391,11.083,24.041,21.486,26.976,5.686,1.6,5.819-58.581-2.975-60.056" transform="translate(-827.467 -657.585)" fill="#253b46"/>
            <path id="Trazado_715908" data-name="Trazado 715908" d="M1071.662,672.175l-8.964,1.193s-14.356,29.327-17.917,60.2c3.809,25.333,11.929,63.5,21.195,66.245,31.405,9.288,64.192-5.313,64.192-5.313l15.019-59.973c-40.343-15.7-19.954-61.81-19.954-61.81l-8.47-2.03s-6.99,17.987-31.492,15.329c0,0-17.5,1.138-13.608-13.836" transform="translate(-864.566 -554.996)" fill="#253b46"/>
            <path id="Trazado_715909" data-name="Trazado 715909" d="M1339.516,1802.56c1.25-8.83,3.828-46.377-42.819-45.8,0,0-35.645,2.206-34.856,45.8Z" transform="translate(-1044.175 -1453.733)" fill="#f39672"/>
            <path id="Trazado_715910" data-name="Trazado 715910" d="M1465.84,710.674c-7.294,10.686-7.98,25.035,2.714,32.329s42.568,19.393,40.829,6.573c-3.409-25.209-5.987-39.561-17.217-45.989-9.524-5.456-19.036-3.607-26.326,7.086" transform="translate(-1208.52 -579.759)" fill="#f6a472"/>
            <path id="Trazado_715911" data-name="Trazado 715911" d="M1485.172,810.551l18.392-14.842,22.325,9.521s26.986,75.2,25.333,93.24c-1.766,19.221-26.494,10.525-31.3,6.1,0,0-22.427-54.213-34.746-94.022" transform="translate(-1228.994 -658.457)" fill="#f6a472"/>
            <path id="Trazado_715912" data-name="Trazado 715912" d="M797.365,1091.137l32.242,79.352-65.639-6.773-29.593-77.878Z" transform="translate(-607.702 -898.542)" fill="#22405e"/>
            <path id="Trazado_715913" data-name="Trazado 715913" d="M765.593,1217.073a18.563,18.563,0,0,0,4.6,5.978c2.288,1.813,6.117,1.262,7.592,2.586,2.567,2.305.747,8.532-4.673,14.773-4.7,5.42-8.164-1.67-9.748-6.032-2.336-6.449-2.183-9.324.482-14.53Z" transform="translate(-630.33 -1007.14)" fill="#e28262"/>
            <path id="Trazado_715914" data-name="Trazado 715914" d="M1164.9,1758.611l-1.042-24.551c-4.868-39.015-109.247-29.354-109.247-29.354-3.87,11.852-5.92,31.575-6.86,53.9Z" transform="translate(-867.02 -1409.784)" fill="#112e4c"/>
            <path id="Trazado_715915" data-name="Trazado 715915" d="M1685.555,1352.382s-4.56,46.9-27.78,93.047c0,0-11.231,3.312-10.2-3.966,1.751-12.362,6.549-76.641,4.863-89.081-2.481-18.326,33.12,0,33.12,0" transform="translate(-1363.327 -1112.37)" fill="#f6a472"/>
            <path id="Trazado_715916" data-name="Trazado 715916" d="M1483.586,1927.63h21.353c.48-1.868.7-3,.7-3l1.948-12.772-10.2-3.965-5.944,2.27-25.429,16.653c5.695.682,17.639.667,17.639.667Z" transform="translate(-1213.139 -1578.803)" fill="#f39672"/>
            <path id="Trazado_715917" data-name="Trazado 715917" d="M1260.335,227.663c26.055-45.063,13.422-108.554,13.422-108.554-2.907-16-17.2-34.2-30.58-21.607l-.568,1.137c9.282.369,16.767,12.682,19.208,20.47,3.212,10.256,4.513,20.589,5.242,31.271,0,0,3.791,44.35-6.723,77.282" transform="translate(-1028.271 -77.205)" fill="#995a34"/>
          </g>
        </g>
      </g>
    </g>
  </g>
</svg>
