<svg xmlns="http://www.w3.org/2000/svg" width="444.031" height="317.668" viewBox="0 0 444.031 317.668">
  <g id="Grupo_1006457" data-name="Grupo 1006457" transform="translate(-57.975 -552.347)">
    <g id="Grupo_958266" data-name="Grupo 958266" transform="translate(57.975 695.352)">
      <path id="Trazado_656773" data-name="Trazado 656773" d="M147.3,802.861a55.986,55.986,0,0,1-9.287,29.373s-14.407-16.541-9.477-42.187c.1-.506.2-1.015.307-1.531l3.622,2.895-2.21-8.858c4.379-16.875,12.187-36.8,10.212-49.893,0,0,9.115,8.339,6.084,36.964-.928,8.776.389,17.368.73,26.364v0l-5.61,8.95Z" transform="translate(-57.852 -732.66)" fill="#22405e"/>
      <path id="Trazado_656774" data-name="Trazado 656774" d="M112.4,854.652s-23.55.816-29.415-17.7c-6.343-20.019-7.991-27.027-23.736-32.312-25.961-8.714-24.323-36.518-5.449-33.226s25.281,32.829,37.1,40.827C104.766,821.636,119.646,832.3,112.4,854.652Z" transform="translate(-39.678 -740.624)" fill="#82a7af"/>
      <g id="Grupo_958258" data-name="Grupo 958258" transform="translate(11.323 40.91)">
        <path id="Trazado_656775" data-name="Trazado 656775" d="M126.454,884.8a1.051,1.051,0,0,1-1.009-.76c-.042-.144-4.283-14.606-15.129-33.82-10-17.716-27.821-43.215-55.936-64.086a1.051,1.051,0,0,1,1.253-1.688c28.435,21.108,46.445,46.889,56.547,64.8,10.951,19.416,15.242,34.064,15.284,34.21a1.05,1.05,0,0,1-.718,1.3A1.072,1.072,0,0,1,126.454,884.8Z" transform="translate(-53.956 -784.243)" fill="#272538"/>
      </g>
      <g id="Grupo_958259" data-name="Grupo 958259" transform="translate(77.009 36.084)">
        <path id="Trazado_656776" data-name="Trazado 656776" d="M151.5,882.735a1.05,1.05,0,0,1-.964-.633,171.718,171.718,0,0,1-13.714-71.749c.444-18.84,3.8-31.3,3.834-31.422a1.051,1.051,0,0,1,2.028.555c-.033.121-3.33,12.384-3.762,30.986a169.607,169.607,0,0,0,13.542,70.792,1.052,1.052,0,0,1-.964,1.47Z" transform="translate(-136.778 -778.158)" fill="#272538"/>
      </g>
      <g id="Grupo_958260" data-name="Grupo 958260" transform="translate(13.666 86.955)">
        <path id="Trazado_656777" data-name="Trazado 656777" d="M101.364,881.192C63.636,864.469,56.91,842.3,56.91,842.3,86.018,852.271,101.364,881.192,101.364,881.192Z" transform="translate(-56.91 -842.301)" fill="#a64a69"/>
        <path id="Trazado_656778" data-name="Trazado 656778" d="M101.364,881.192C63.636,864.469,56.91,842.3,56.91,842.3A418.717,418.717,0,0,1,101.364,881.192Z" transform="translate(-56.91 -842.301)" fill="#cb6a8b"/>
      </g>
      <g id="Grupo_958261" data-name="Grupo 958261" transform="translate(29.819 63.808)">
        <path id="Trazado_656779" data-name="Trazado 656779" d="M103.895,865.86c-28.68-29.674-26.584-52.745-26.584-52.745C100.54,833.292,103.895,865.86,103.895,865.86Z" transform="translate(-77.277 -813.115)" fill="#f97e2a"/>
        <path id="Trazado_656780" data-name="Trazado 656780" d="M103.895,865.86c-28.68-29.674-26.584-52.745-26.584-52.745A418.593,418.593,0,0,1,103.895,865.86Z" transform="translate(-77.277 -813.115)" fill="#db5c25"/>
      </g>
      <g id="Grupo_958262" data-name="Grupo 958262" transform="translate(54.642 73.679)">
        <path id="Trazado_656781" data-name="Trazado 656781" d="M124.316,882.777c-21.656-35.13-14.665-57.216-14.665-57.216C128.018,850.247,124.316,882.777,124.316,882.777Z" transform="translate(-108.575 -825.561)" fill="#a64a69"/>
        <path id="Trazado_656782" data-name="Trazado 656782" d="M124.316,882.777c-21.656-35.13-14.665-57.216-14.665-57.216A418.638,418.638,0,0,1,124.316,882.777Z" transform="translate(-108.575 -825.561)" fill="#cb6a8b"/>
      </g>
      <g id="Grupo_958263" data-name="Grupo 958263" transform="translate(30.324 100.092)">
        <path id="Trazado_656783" data-name="Trazado 656783" d="M116.6,900.244a1.052,1.052,0,0,1-1.036-.878c-1.087-6.488-27.279-30.1-37.28-38.651a1.051,1.051,0,0,1,1.366-1.6c3.739,3.2,36.575,31.48,37.987,39.9a1.051,1.051,0,0,1-.863,1.21A1.1,1.1,0,0,1,116.6,900.244Z" transform="translate(-77.913 -858.865)" fill="#272538"/>
      </g>
      <g id="Grupo_958264" data-name="Grupo 958264" transform="translate(36.257 75.784)">
        <path id="Trazado_656784" data-name="Trazado 656784" d="M110.46,891.633a1.051,1.051,0,0,1-.761-1.777c.713-.748,2.092-5.245-10.083-31.715-6.62-14.393-14.023-28.24-14.1-28.378a1.051,1.051,0,0,1,1.853-.993c.074.139,7.507,14.043,14.154,28.493,13.717,29.824,10.795,32.89,9.695,34.044A1.049,1.049,0,0,1,110.46,891.633Z" transform="translate(-85.394 -828.216)" fill="#272538"/>
      </g>
      <g id="Grupo_958265" data-name="Grupo 958265" transform="translate(60.987 93.401)">
        <path id="Trazado_656785" data-name="Trazado 656785" d="M127.467,900.581a1.052,1.052,0,0,1-1.043-.926,281.334,281.334,0,0,0-9.8-47.851,1.051,1.051,0,1,1,2-.648,283.522,283.522,0,0,1,9.884,48.25,1.051,1.051,0,0,1-.919,1.168A1.116,1.116,0,0,1,127.467,900.581Z" transform="translate(-116.575 -850.428)" fill="#272538"/>
      </g>
    </g>
    <g id="Grupo_958273" data-name="Grupo 958273" transform="translate(431.013 700.22)">
      <path id="Trazado_656786" data-name="Trazado 656786" d="M583.873,738.8c-.169.133-10.993,8.718-16.113,34.17q-.394,1.959-.75,3.919l-6.8,7.055,5.836-1.689c-2.9,16.224-6.238,32.4-24.731,48.109,0,0-5.92-13.246-1.567-30.616l3.379,2.06s-.8-4.527-1.461-8.162a57.185,57.185,0,0,1,2.9-6.4C553.184,770.936,558.961,751.384,583.873,738.8Z" transform="translate(-538.151 -738.799)" fill="#22405e"/>
      <path id="Trazado_656787" data-name="Trazado 656787" d="M552.68,861.6s23.29-3.588,25.6-22.869c2.5-20.85,2.813-28.042,17.3-36.17,23.881-13.4,17.088-40.413-.841-33.66s-18.718,36.967-28.835,47.026C554.023,827.743,541.392,841,552.68,861.6Z" transform="translate(-540.247 -744.808)" fill="#82a7af"/>
      <g id="Grupo_958267" data-name="Grupo 958267" transform="translate(5.392 33.691)">
        <path id="Trazado_656788" data-name="Trazado 656788" d="M546,893.434c-.032,0-.066,0-.1,0a1.051,1.051,0,0,1-.949-1.144c.014-.151,1.5-15.343,8.639-36.46,6.587-19.48,19.475-48.167,43.477-74.206a1.051,1.051,0,1,1,1.546,1.425c-23.751,25.768-36.51,54.167-43.031,73.454-7.062,20.887-8.523,35.834-8.538,35.983A1.051,1.051,0,0,1,546,893.434Z" transform="translate(-544.95 -781.28)" fill="#272538"/>
      </g>
      <g id="Grupo_958268" data-name="Grupo 958268" transform="translate(0.472 31.298)">
        <path id="Trazado_656789" data-name="Trazado 656789" d="M540.818,881.247a1.052,1.052,0,0,1-1.043-.933,171.74,171.74,0,0,1,7.826-72.627c5.924-17.89,12.77-28.826,12.839-28.934a1.051,1.051,0,0,1,1.777,1.122c-.067.106-6.8,10.873-12.642,28.539a169.612,169.612,0,0,0-7.711,71.662,1.052,1.052,0,0,1-.926,1.164C540.9,881.244,540.859,881.247,540.818,881.247Z" transform="translate(-538.746 -778.262)" fill="#272538"/>
      </g>
      <g id="Grupo_958269" data-name="Grupo 958269" transform="translate(34.896 61.169)">
        <path id="Trazado_656790" data-name="Trazado 656790" d="M582.151,867.417c29.99-28.349,28.937-51.491,28.937-51.491C586.972,835.034,582.151,867.417,582.151,867.417Z" transform="translate(-582.151 -815.926)" fill="#f97e2a"/>
        <path id="Trazado_656791" data-name="Trazado 656791" d="M582.151,867.417c29.99-28.349,28.937-51.491,28.937-51.491A418.66,418.66,0,0,0,582.151,867.417Z" transform="translate(-582.151 -815.926)" fill="#db5c25"/>
      </g>
      <g id="Grupo_958270" data-name="Grupo 958270" transform="translate(32.108 84.539)">
        <path id="Trazado_656792" data-name="Trazado 656792" d="M578.635,889.851c35.169-21.593,38.886-44.458,38.886-44.458C590,859.146,578.635,889.851,578.635,889.851Z" transform="translate(-578.635 -845.393)" fill="#a65569"/>
        <path id="Trazado_656793" data-name="Trazado 656793" d="M578.635,889.851c35.169-21.593,38.886-44.458,38.886-44.458A418.6,418.6,0,0,0,578.635,889.851Z" transform="translate(-578.635 -845.393)" fill="#cb6581"/>
      </g>
      <g id="Grupo_958271" data-name="Grupo 958271" transform="translate(27.348 72.795)">
        <path id="Trazado_656794" data-name="Trazado 656794" d="M574.327,892.857a1.048,1.048,0,0,1-.794-.362c-1.046-1.2-3.827-4.4,11.222-33.572,7.291-14.135,15.344-27.689,15.425-27.825a1.051,1.051,0,0,1,1.807,1.076c-.08.135-8.1,13.641-15.367,27.72-13.353,25.888-12.179,30.442-11.5,31.221a1.051,1.051,0,0,1-.792,1.742Z" transform="translate(-572.633 -830.585)" fill="#272538"/>
      </g>
      <g id="Grupo_958272" data-name="Grupo 958272" transform="translate(24.488 99.179)">
        <path id="Trazado_656795" data-name="Trazado 656795" d="M570.077,904.409a1.051,1.051,0,0,1-.874-1.633,283.489,283.489,0,0,1,30.576-38.612,1.051,1.051,0,0,1,1.493,1.48,281.344,281.344,0,0,0-30.318,38.3A1.051,1.051,0,0,1,570.077,904.409Z" transform="translate(-569.027 -863.853)" fill="#272538"/>
      </g>
    </g>
    <path id="Trazado_656796" data-name="Trazado 656796" d="M169.5,799.288c-14.375,8.332-5.833,20.416,0,32.5,6.043,12.516-12.546,13.956-9.791,25.833,2.561,11.043,5.73,20.145-3.96,18.96,0,0,7.189,3.958,9.793-4.375,0,0,.625,6.666-1.041,10.209h23.742L189.6,840.09l1.933-60.3A73.557,73.557,0,0,1,169.5,799.288Zm-4.582,18.957c-9.584-16.042,9.931-19.375,9.931-19.375C162.491,807,164.921,818.245,164.921,818.245Z" transform="translate(-24.017 -47.06)" fill="#9c3325"/>
    <path id="Trazado_656797" data-name="Trazado 656797" d="M193.064,844.069l-1.358,42.324H178.312c8.893-7.917-10.558-13.959-4.724-29.585,3.907-10.466,6.663-15.99,3.516-30-3.789-16.871,12.527-27.789,12.527-27.789Z" transform="translate(-27.477 -51.039)" fill="#822b1f"/>
    <path id="Trazado_656798" data-name="Trazado 656798" d="M388.8,823.69c-.276-.266-.553-.535-.827-.81-13.793-13.7-25.54-36.14-35.082-66.964h4.831a.622.622,0,0,0,.621-.621V744.041a.621.621,0,0,0-.621-.621h-8.455c-2.1-7.721-4.073-16.254-5.926-24.883l2.912.355a.621.621,0,0,0,.622-.621v-6.318a.621.621,0,0,0-.622-.621h-4.477c-.268-1.339-.531-2.675-.784-3.99h2.432a.621.621,0,0,0,.622-.621V700.66a.622.622,0,0,0-.622-.621l-3.794.532c-9.642-53.47-13-104.606-13.2-110.824h2.608a.62.62,0,0,0,.621-.621v-6.9a.62.62,0,0,0-.621-.621H326.19l2.772-4.782a.614.614,0,0,0-.225-.541l-6.549-4.907V552.985a.633.633,0,0,0-.491-.626.622.622,0,0,0-.751.608v18.409l-6.726,4.907a.614.614,0,0,0-.225.541l1.175,4.782h-1.221a.621.621,0,0,0-.621.621v6.9a.621.621,0,0,0,.621.621l2.33.178a943.343,943.343,0,0,1-12.849,110.469l-3.716-.355a.622.622,0,0,0-.622.621v6.061a.621.621,0,0,0,.622.621h2.355c-.252,1.3-.515,2.641-.784,3.99h-4.556a.621.621,0,0,0-.622.621v6.318a.621.621,0,0,0,.622.621l2.99-.355c-1.853,8.629-3.828,17.162-5.926,24.883h-8.533a.621.621,0,0,0-.621.621V755.3a.621.621,0,0,0,.621.621h4.909c-9.542,30.823-21.29,53.266-35.082,66.964q-.413.412-.828.81a.645.645,0,0,0-.113.8.621.621,0,0,0,.953.112q.877-.841,1.738-1.727h28.041q-.276.463-.558.916a.651.651,0,0,0,.136.863.613.613,0,0,0,.369.121.62.62,0,0,0,.527-.293c.324-.522.65-1.058.971-1.608,5.606-9.563,10.666-23.223,15.125-40.79a20.655,20.655,0,0,1,19.852-15.6h.193q.337,0,.673.007a20.608,20.608,0,0,1,19.446,15.591c4.46,17.573,9.52,31.233,15.127,40.8q.482.824.971,1.608a.62.62,0,0,0,.527.293.611.611,0,0,0,.369-.122.651.651,0,0,0,.136-.862q-.282-.451-.559-.916h28.041q.864.886,1.738,1.727a.622.622,0,0,0,.954-.112A.646.646,0,0,0,388.8,823.69ZM314.569,588.5v-5.656h13.843l.532,6.188Zm6.959,19.953c.793,20.7,2.585,56.01,6.481,92.113l-12.963-.532C318.942,663.936,320.736,629.16,321.528,608.458ZM300.334,706.1l-.355-5.173,42.822.355.533,5.529Zm28.958,5.232-15.174.887.113-4.877,14.592-.354C328.969,708.261,329.123,709.931,329.292,711.332Zm-32.476,6.85.532-5.608H346.34l-.71,5.608Zm36.96,25.239h-24.5c1.253-7.708,2.445-15.242,3.547-23.819l17.4-1.064C331.33,727.109,332.522,735.709,333.776,743.42Zm-47.9,1.6,71.217-1.065v6.607l-71.217-.71Zm0,10.543V751.8l71.217-.71v2.871Zm50.065.355q.725,3.9,1.477,7.634a36.772,36.772,0,0,0-31.78-.04c.5-2.472.988-5.36,1.467-7.949Zm-14.455,9.328a31.083,31.083,0,0,0-17.308,5.216q.581-2.654,1.145-5.406c4.964-2.545,10.545-4.779,16.162-4.779,5.648,0,11.257,2.248,16.246,4.821q.566,2.761,1.148,5.422A31.058,31.058,0,0,0,321.491,765.244Z" transform="translate(-44.355 0)" fill="#005b8b"/>
    <path id="Trazado_656799" data-name="Trazado 656799" d="M382.608,877.96H353.772s3.443-13.777,5.379-25.183-.429-18.508,1.659-28.408,2.214-14.849,4.071-30.877,8.243-17.67,8.243-17.67l1.765,19.016Z" transform="translate(-64.989 -46.239)" fill="#112e4c"/>
    <path id="Trazado_656800" data-name="Trazado 656800" d="M371.015,882.921c.952-1.595-5.027-7.967.345-19.086,1.779-3.681,6-10.187,2.367-18.579-7.739-17.862,1.291-19.252-.215-45.457l12.266,83.122Z" transform="translate(-68.158 -51.2)" fill="#092139"/>
    <path id="Trazado_656801" data-name="Trazado 656801" d="M71.7,904.255H461.414S420.541,945.094,258.4,942.729C204.71,941.945,150.775,934.057,71.7,904.255Z" transform="translate(15.465 -72.813)" fill="#efaeb8"/>
    <path id="Trazado_656802" data-name="Trazado 656802" d="M409.038,768.5s-8.791,79.359-7.285,88.4,5.942,17.218,7.921,17.649,35.709,0,35.709,0,7.24-63.257,7.307-64.877-11.755-55.5-11.755-55.5Z" transform="translate(-74.881 -41.759)" fill="#fffbf8"/>
    <path id="Trazado_656803" data-name="Trazado 656803" d="M424.086,812.657a178.818,178.818,0,0,1-23.19-1.444l1.037-7.259-.519,3.63.518-3.63c.285.04,28.791,3.993,52.543-1.868l1.757,7.12A137.358,137.358,0,0,1,424.086,812.657Z" transform="translate(-74.739 -51.673)" fill="#82a7af"/>
    <path id="Trazado_656804" data-name="Trazado 656804" d="M424.087,854.073a178.824,178.824,0,0,1-23.191-1.444l1.037-7.26h0c.343.048,28.815,3.986,52.542-1.868l1.757,7.119A137.312,137.312,0,0,1,424.087,854.073Z" transform="translate(-74.739 -60.243)" fill="#82a7af"/>
    <path id="Trazado_656805" data-name="Trazado 656805" d="M424.086,833.365a178.793,178.793,0,0,1-23.19-1.444l1.037-7.259-.519,3.63.518-3.63c.285.04,28.791,3.993,52.543-1.868l1.757,7.12A137.365,137.365,0,0,1,424.086,833.365Z" transform="translate(-74.739 -55.958)" fill="#82a7af"/>
    <path id="Trazado_656806" data-name="Trazado 656806" d="M424.086,895.488a178.812,178.812,0,0,1-23.19-1.444l1.037-7.259-.519,3.63.518-3.63c.285.041,28.791,3.993,52.543-1.868l1.757,7.12A137.362,137.362,0,0,1,424.086,895.488Z" transform="translate(-74.739 -68.812)" fill="#82a7af"/>
    <path id="Trazado_656807" data-name="Trazado 656807" d="M424.086,874.78a178.773,178.773,0,0,1-23.19-1.444l1.037-7.259c.343.049,28.815,3.988,52.542-1.868l1.757,7.12A137.362,137.362,0,0,1,424.086,874.78Zm-22.671-5.073.518-3.63h0Z" transform="translate(-74.739 -64.527)" fill="#82a7af"/>
    <path id="Trazado_656808" data-name="Trazado 656808" d="M436.266,782.5s-4.07,12.049-8.21,34.431-5.3,37.1-22.042,35.661S405.5,880.6,405.5,880.6l37.5-3.42S440.224,787.445,436.266,782.5Z" transform="translate(-74.23 -47.62)" fill="#dedede" style="mix-blend-mode: multiply;isolation: isolate"/>
    <path id="Trazado_656809" data-name="Trazado 656809" d="M407.088,771.68s-2.223,43.445-1.551,61.308c.217,5.762.454,11.764.678,17.251.469,11.521.872,20.774.872,20.774l-29.007,2.08s-.48-40.08-2.631-51.746-6.055-42.751,0-48.109c7.963-7.049,24.048-2.582,28.576-13.324,1.461-3.465,2.237-2.064,2.647.774A87.524,87.524,0,0,1,407.088,771.68Z" transform="translate(-68.804 -42.524)" fill="#112e4c"/>
    <path id="Trazado_656810" data-name="Trazado 656810" d="M395.954,808.242a34.866,34.866,0,0,0,0,22.19c4.049,12.052,14.554,35.485,14.554,35.485Z" transform="translate(-73.344 -52.947)" fill="#092139"/>
    <path id="Trazado_656811" data-name="Trazado 656811" d="M411.938,772.416s-2.223,43.445-1.551,61.308c.217,5.762.454,11.764.678,17.251l.327,7.929c-4.742-23.387-16.424-44.331-15.706-56.526.583-9.929,11.716-32.8,15.836-40.954A87.527,87.527,0,0,1,411.938,772.416Z" transform="translate(-73.655 -43.26)" fill="#112e4c"/>
    <path id="Trazado_656812" data-name="Trazado 656812" d="M447.01,755.155s.81,21.245-2.018,53.1-4.119,59.827-4.119,59.827l43.9-11.637-3.228-91.82a97.178,97.178,0,0,1-15.28-1.658C459.318,761.451,451.27,754.576,447.01,755.155Z" transform="translate(-83.011 -41.956)" fill="#112e4c"/>
    <path id="Trazado_656813" data-name="Trazado 656813" d="M457.766,800.353s5.042,18.811-2.125,32.679c-7.415,14.347-13.776,29.945-13.776,29.945S452.5,803.182,457.766,800.353Z" transform="translate(-83.216 -51.315)" fill="#092139"/>
    <path id="Trazado_656814" data-name="Trazado 656814" d="M447.187,755.164s11.079,31.718,11.8,43.914-12.512,33-17.255,56.381c0,0,6.564-89.379,2.765-98.776C443.718,754.764,446.926,756.409,447.187,755.164Z" transform="translate(-83.188 -41.965)" fill="#112e4c"/>
    <g id="Grupo_958278" data-name="Grupo 958278" transform="translate(294.688 636.253)">
      <path id="Trazado_656815" data-name="Trazado 656815" d="M427.7,792.058c-6.8.468-10.374-5.986-12.2-11.673a43.962,43.962,0,0,1-1.771-8.257l25.265-17.618s.052.6.115,1.661C439.556,763.32,440.444,791.18,427.7,792.058Z" transform="translate(-372.082 -678.083)" fill="#ef8745"/>
      <path id="Trazado_656816" data-name="Trazado 656816" d="M439.109,756.172c-.263.247-.41.373-.41.373-1.345,12.193-9.912,25.075-20.439,24.277a17.385,17.385,0,0,1-2.76-.436,43.962,43.962,0,0,1-1.771-8.257l25.265-17.618S439.046,755.115,439.109,756.172Z" transform="translate(-372.082 -678.083)" fill="#c76e36"/>
      <path id="Trazado_656817" data-name="Trazado 656817" d="M441.553,733.808s2.348,4.626-2.1,12.567c-2.86,5.107-6.3,2.933-6.3,2.933-1.35,12.19-9.5,22.233-20.026,21.433-7.85-.6-15.074-5.7-16.575-18.6-.719-6.171-1.2-11.235-1.52-15.329q-.052-.659-.1-1.282c-.058-.767-.108-1.495-.154-2.187-.04-.623-.076-1.216-.109-1.78a91.68,91.68,0,0,1-.22-9.534s13.048-7.362,26.773-5.111,9.451,3.825,16.2,8.576S441.553,733.808,441.553,733.808Z" transform="translate(-368.086 -670.216)" fill="#ef8745"/>
      <path id="Trazado_656818" data-name="Trazado 656818" d="M406.773,742.025a28.066,28.066,0,0,1,.517,4.069,21.736,21.736,0,0,1-.122,4.128,19.01,19.01,0,0,1-.378,2.048,6.781,6.781,0,0,0-.346,1.791,3.513,3.513,0,0,0,.435,1.7,13.593,13.593,0,0,0,1.1,1.677,6.255,6.255,0,0,1-1.723-1.222,3.906,3.906,0,0,1-1.042-2.025,6.086,6.086,0,0,1,.113-2.215q.156-.972.28-1.952c.17-1.307.305-2.621.45-3.958A28.074,28.074,0,0,1,406.773,742.025Z" transform="translate(-370.306 -675.5)" fill="#c76e36"/>
      <path id="Trazado_656819" data-name="Trazado 656819" d="M415.543,746.5c.05,1.035.58,1.85,1.183,1.822s1.053-.892,1-1.927-.579-1.85-1.183-1.822S415.494,745.461,415.543,746.5Z" transform="translate(-372.457 -676.026)" fill="#38221a"/>
      <ellipse id="Elipse_4713" data-name="Elipse 4713" cx="1.3" cy="4.619" rx="1.3" ry="4.619" transform="translate(39.623 61.489) rotate(-79.07)" fill="#38221a"/>
      <path id="Trazado_656820" data-name="Trazado 656820" d="M400.591,746.5c-.05,1.035-.58,1.85-1.183,1.822s-1.053-.892-1-1.927.58-1.85,1.183-1.822S400.641,745.461,400.591,746.5Z" transform="translate(-368.911 -676.026)" fill="#38221a"/>
      <path id="Trazado_656821" data-name="Trazado 656821" d="M398.3,736.3a10.4,10.4,0,0,1-3.448.519c-.04-.623-.076-1.216-.109-1.78a11.545,11.545,0,0,1,2.806-1.229c2.321-.7,4.37-.711,4.579-.025S400.62,735.594,398.3,736.3Z" transform="translate(-368.154 -673.689)" fill="#38221a"/>
      <g id="Grupo_958274" data-name="Grupo 958274">
        <path id="Trazado_656822" data-name="Trazado 656822" d="M435.484,706.768c-4.56-7.833-13.5-3.1-19.1-9.25-4.57-5.018-1.748-9.756-4.65-10.827-3.85-1.422-4.351,6.628-4.351,6.628s-13.651-5.55-10.649-16.951l.008,0a12.8,12.8,0,0,0,2.421.647l.01,0c2.306.389,5.652.318,7.312-2.75,3-5.551-1.576-14.775-12.976-15.975s-19.425,4.874-21.524,14.024c0,0-12.751,6-10.5,23.1s22.2,19.2,30.151,18.148,15.3-5.38,23.249-3.139c0,0-.6,6.984,3.45,12.263s3.9,8.427,2.7,10.227c0,0,1.949-.383,2.7-3.418,0,0,.448.418,0,2.218,0,0,2.018-.4,3.9-6.675a11.61,11.61,0,0,1,.96-2.327c1.771-3.189,4.473-3.54,6.091-.981C434.684,721.736,439.384,713.469,435.484,706.768Zm-32.621-43.415c-.454-.384-8.065-6.473-23.377.117C379.485,663.47,390.379,651.878,402.862,663.353Zm-39.578,29.616c7,19.2,24.3,18.9,24.3,18.9C361.586,714.669,363.284,692.969,363.284,692.969Z" transform="translate(-361.217 -658.144)" fill="#462c23"/>
        <path id="Trazado_656823" data-name="Trazado 656823" d="M408.432,681.773a12.8,12.8,0,0,1-2.421-.647C406.1,681.147,406.969,681.367,408.432,681.773Z" transform="translate(-370.486 -662.899)" fill="#22405e"/>
        <path id="Trazado_656824" data-name="Trazado 656824" d="M439.207,710.758c-4.56-7.833-13.5-3.1-19.1-9.25-4.57-5.018-1.748-9.756-4.65-10.827-3.85-1.422-4.351,6.628-4.351,6.628s-13.651-5.55-10.649-16.951a27.743,27.743,0,0,0-5.372-2.271c-14.84-4.722-22.682,17.21-8.169,22.86a24.634,24.634,0,0,0,2.884.912c12.735,3.214,40.217.4,34.69,11.018a6.86,6.86,0,0,0-.614,4.935c.663,2.481,2.726,5.8,8.439,8.9,1.771-3.189,4.473-3.54,6.091-.981C438.407,725.725,443.107,717.459,439.207,710.758Zm-55.324-13.8c-9.676-11.425,2.7-16.6,2.7-16.6C380.508,691.036,383.883,696.958,383.883,696.958Z" transform="translate(-364.94 -662.133)" fill="#38221a"/>
      </g>
      <path id="Trazado_656825" data-name="Trazado 656825" d="M409.845,758.98a1.058,1.058,0,0,1,.56-.983,1.668,1.668,0,0,1,1.022-.232,1.737,1.737,0,0,1,.9.343,1.687,1.687,0,0,1,.594.872,3.092,3.092,0,0,1-.937.319,2.356,2.356,0,0,1-1.291-.1A3.056,3.056,0,0,0,409.845,758.98Z" transform="translate(-371.277 -678.755)" fill="#c76e36"/>
      <g id="Grupo_958275" data-name="Grupo 958275" transform="translate(38.681 63.619)">
        <path id="Trazado_656826" data-name="Trazado 656826" d="M415.488,751.959c-3.032,0-5.5-3.05-5.5-6.8s2.467-6.8,5.5-6.8,5.5,3.05,5.5,6.8S418.521,751.959,415.488,751.959Zm0-12.023c-2.163,0-3.922,2.343-3.922,5.222s1.759,5.223,3.922,5.223,3.922-2.343,3.922-5.223S417.651,739.937,415.488,739.937Z" transform="translate(-409.99 -738.36)" fill="#9c3325"/>
      </g>
      <g id="Grupo_958276" data-name="Grupo 958276" transform="translate(24.513 63.619)">
        <path id="Trazado_656827" data-name="Trazado 656827" d="M397.625,751.959c-3.032,0-5.5-3.05-5.5-6.8s2.467-6.8,5.5-6.8,5.5,3.05,5.5,6.8S400.656,751.959,397.625,751.959Zm0-12.023c-2.163,0-3.922,2.343-3.922,5.222s1.759,5.223,3.922,5.223,3.921-2.343,3.921-5.223S399.786,739.937,397.625,739.937Z" transform="translate(-392.126 -738.36)" fill="#9c3325"/>
      </g>
      <g id="Grupo_958277" data-name="Grupo 958277" transform="translate(34.138 68.868)">
        <path id="Trazado_656828" data-name="Trazado 656828" d="M409.222,747.224c-2.566-1.369-3.754-.2-3.8-.155L404.261,746c.081-.088,2.007-2.14,5.7-.165Z" transform="translate(-404.261 -744.979)" fill="#9c3325"/>
      </g>
      <path id="Trazado_656829" data-name="Trazado 656829" d="M446.077,747.578a8.552,8.552,0,0,1-.184-2.8,9.738,9.738,0,0,1,.635-2.752,5.219,5.219,0,0,1,1.784-2.432,2.4,2.4,0,0,1,1.588-.431,2.207,2.207,0,0,1,1.332.672,3.034,3.034,0,0,0-1.274.1,1.975,1.975,0,0,0-.852.612,7.615,7.615,0,0,0-1.113,2.065c-.313.776-.592,1.6-.891,2.426A27.022,27.022,0,0,1,446.077,747.578Z" transform="translate(-378.73 -674.905)" fill="#c76e36"/>
      <path id="Trazado_656830" data-name="Trazado 656830" d="M450.292,746.653a15.67,15.67,0,0,1-.218-1.669c-.042-.51-.079-.987-.153-1.418a5.417,5.417,0,0,0-.324-1.212,5.782,5.782,0,0,0-.872-1.276,2.161,2.161,0,0,1,1.827.486,2.946,2.946,0,0,1,.926,1.76,3.749,3.749,0,0,1-.181,1.835A3.356,3.356,0,0,1,450.292,746.653Z" transform="translate(-379.324 -675.295)" fill="#c76e36"/>
      <path id="Trazado_656831" data-name="Trazado 656831" d="M407.991,766.009l3.22-.447c1.044-.156,2.064-.344,3.069-.571a25.813,25.813,0,0,0,2.974-.849c1-.312,1.933-.78,2.995-1.2a7.792,7.792,0,0,1-2.458,2.317,10.267,10.267,0,0,1-3.161,1.269,11.906,11.906,0,0,1-3.372.268A9.088,9.088,0,0,1,407.991,766.009Z" transform="translate(-370.895 -679.827)" fill="#c76e36"/>
      <path id="Trazado_656832" data-name="Trazado 656832" d="M413.987,770.045c.575-.1,1.045-.168,1.484-.239a11.251,11.251,0,0,0,1.186-.247,6.238,6.238,0,0,0,1.1-.387c.4-.156.788-.4,1.337-.642a2.38,2.38,0,0,1-.546,1.6,2.74,2.74,0,0,1-1.485.956,3.054,3.054,0,0,1-1.727-.048A2.532,2.532,0,0,1,413.987,770.045Z" transform="translate(-372.136 -680.984)" fill="#c76e36"/>
      <path id="Trazado_656833" data-name="Trazado 656833" d="M422.158,761.316a1.2,1.2,0,0,1,1.009-.527,1.737,1.737,0,0,1,1.033.323,1.784,1.784,0,0,1,.634.807,1.63,1.63,0,0,1,.026,1.09,3.031,3.031,0,0,1-.547-.127,2.87,2.87,0,0,1-.416-.151,3.124,3.124,0,0,1-.608-.332,3.2,3.2,0,0,1-.472-.424A8.062,8.062,0,0,0,422.158,761.316Z" transform="translate(-373.827 -679.382)" fill="#c76e36"/>
    </g>
    <path id="Trazado_656834" data-name="Trazado 656834" d="M204.967,915.168c39.156,1.839,77.249-3.285,89.512-12.745s-69.025-7.709-71.127-5.606S204.967,915.168,204.967,915.168Z" transform="translate(-34.2 -70.93)" fill="#dbdbdb" style="mix-blend-mode: multiply;isolation: isolate"/>
    <path id="Trazado_656835" data-name="Trazado 656835" d="M305.228,874.246c0,15-5.691,22.08-23.057,22.358-12.5.2-29.842-4.284-38.566-6.806-3.39-.983-5.482-1.666-5.482-1.666s23.9-14.265,35.019-26.326c3.269-3.543,5.434-6.9,5.56-9.645.552-12.083,3.333-20.834,3.747-20.555s15,0,15,0S305.228,857.6,305.228,874.246Z" transform="translate(-41.06 -57.78)" fill="#ef8745"/>
    <path id="Trazado_656836" data-name="Trazado 656836" d="M288.412,866.391s5.6-.539,16.388,2.222c0,0-2.222-6.112-2.916-17.917a83.9,83.9,0,0,1,1.389-20.834l-14.861-1.315Z" transform="translate(-51.465 -57.148)" fill="#c76e36"/>
    <path id="Trazado_656837" data-name="Trazado 656837" d="M306.838,820.518a16.2,16.2,0,0,0-2.941.243,27.339,27.339,0,0,0-15.254,8.229c-2.458,2.538-3.9-.333-4.6-5.789-.22-1.692-.368-3.631-.454-5.736v0c-.082-2-.107-4.146-.083-6.369.019-1.91.074-3.874.163-5.849.094-2.148.226-4.307.389-6.419.155-1.99.335-3.939.54-5.8.291-2.635.627-5.089.992-7.22.019-.108.037-.214.056-.321a37.7,37.7,0,0,1,1.319-5.539,3.773,3.773,0,0,1,1.125-1.93,7.691,7.691,0,0,1,2.225.99,15.27,15.27,0,0,1,4.391,4.244,25.6,25.6,0,0,1,3.04,5.821q.477,1.25.9,2.693c.214.737.435,1.489.654,2.251.513,1.769,1.041,3.592,1.564,5.414.479,1.672.958,3.344,1.421,4.971v0c.543,1.9,1.067,3.739,1.553,5.457.516,1.825.992,3.509,1.4,4.975C306.212,818.282,306.838,820.518,306.838,820.518Z" transform="translate(-50.448 -46.694)" fill="#fffbf8"/>
    <path id="Trazado_656838" data-name="Trazado 656838" d="M305.265,823.145a83.2,83.2,0,0,0-13.675,4.442,53.48,53.48,0,0,0-7.524,3.922c-.22-1.692-.368-3.631-.454-5.736v0a78.621,78.621,0,0,1,20.249-7.6C304.378,819.995,304.853,821.679,305.265,823.145Z" transform="translate(-50.472 -55.001)" fill="#82a7af"/>
    <path id="Trazado_656839" data-name="Trazado 656839" d="M302.287,809.99v0a84.124,84.124,0,0,0-14.466,4.627c-1.632.7-3.066,1.4-4.314,2.062.019-1.91.074-3.874.163-5.849a85.5,85.5,0,0,1,17.2-5.813C301.344,806.691,301.823,808.363,302.287,809.99Z" transform="translate(-50.45 -52.28)" fill="#82a7af"/>
    <path id="Trazado_656840" data-name="Trazado 656840" d="M299.445,796.9a84.973,84.973,0,0,0-15.219,4.8l-.024.011c.155-1.99.336-3.939.54-5.8a92.387,92.387,0,0,1,13.149-3.955q.477,1.25.9,2.693C299.005,795.388,299.226,796.141,299.445,796.9Z" transform="translate(-50.594 -49.578)" fill="#82a7af"/>
    <path id="Trazado_656841" data-name="Trazado 656841" d="M295.251,783.511a92.744,92.744,0,0,0-9.117,2.557,39.055,39.055,0,0,1,1.375-5.86q1.607-.482,3.351-.94A15.269,15.269,0,0,1,295.251,783.511Z" transform="translate(-50.994 -46.952)" fill="#82a7af"/>
    <path id="Trazado_656842" data-name="Trazado 656842" d="M303.9,822.464a27.34,27.34,0,0,0-15.254,8.229c-2.458,2.538-3.9-.333-4.6-5.789-.22-1.692-.368-3.631-.454-5.736v0c-.082-2-.107-4.146-.083-6.369.019-1.91.074-3.874.163-5.849.094-2.148.226-4.307.389-6.419.155-1.99.335-3.939.54-5.8.291-2.636.627-5.089.992-7.22.019-.108.037-.214.056-.321a8.6,8.6,0,0,1,.916-.942s1.059,8.727,6.334,20.718C296.978,816.249,301.916,819.924,303.9,822.464Z" transform="translate(-50.448 -48.396)" fill="#dedede" style="mix-blend-mode: multiply;isolation: isolate"/>
    <path id="Trazado_656843" data-name="Trazado 656843" d="M262.392,775.3s7.725.761,10.642,2.15c0,0-2.5,20.958-1.389,31.729s23.966,34.349.695,46.189c0,0-5.746-1.111-17.109,1.111s-35.809,6.111-40.253,0-4.444-25.417-2.916-41.251-4.578-24.182,1.253-32.369S262.392,775.3,262.392,775.3Z" transform="translate(-35.394 -46.13)" fill="#fffbf8"/>
    <path id="Trazado_656844" data-name="Trazado 656844" d="M219.826,805.713a86.255,86.255,0,0,0,11.1,28.579c8.9,14.491,3.45,24.109,18.661,26.688s-17.664,15.164-31.631,12.906-14.188-35.657-10.471-43.373S219.826,805.713,219.826,805.713Z" transform="translate(-34.298 -52.424)" fill="#dedede" style="mix-blend-mode: multiply;isolation: isolate"/>
    <path id="Trazado_656845" data-name="Trazado 656845" d="M252.793,828.69c-10.291,1.062-16.072-20.408-22.464-31.592s-7.063-11.983-7.063-11.983l14.4-3.984,1.288-.357,15.221,6.575.394.168a.043.043,0,0,0,0,.016c.006.026.016.084.032.168.21,1.261,1.524,8.856,2.649,15.31v.021c.394,3.1.7,6.359.825,9.481C258.411,820.87,257.365,828.218,252.793,828.69Z" transform="translate(-37.986 -47.264)" fill="#ef8745"/>
    <path id="Trazado_656846" data-name="Trazado 656846" d="M273.124,756.641c-2.459-8.424-5.106-22.6-5.106-22.6L266.2,732.66s-25.572,42.024-5.261,45.8C280.086,782.013,274.947,762.89,273.124,756.641ZM267.945,777.9s6.146-1.909,5.624-13.54C273.569,764.362,277.493,777.626,267.945,777.9Z" transform="translate(-44.158 -37.309)" fill="#822b1f"/>
    <path id="Trazado_656847" data-name="Trazado 656847" d="M261.836,812.513a8.693,8.693,0,0,1-1.6.284c-10.428.914-18.232-26.478-18.232-26.478l-.584-5.188,1.288-.357,15.221,6.575.394.168a.043.043,0,0,0,0,.016c.006.026.016.084.032.168.21,1.261,1.524,8.856,2.649,15.31v.021C261.406,806.128,261.716,809.391,261.836,812.513Z" transform="translate(-41.743 -47.264)" fill="#c76e36"/>
    <path id="Trazado_656848" data-name="Trazado 656848" d="M256.578,778.156c-10.432.91-14.73-5.679-14.73-5.679l-3.727-33.009s17.158-10.06,25.144-8.994c0,0,.946,3.624,2,8.962.083.43.171.872.255,1.324.084.424.163.857.245,1.3,0,.023.009.044.013.067.548,2.992,1.09,6.352,1.51,9.825.174,1.43.328,2.878.453,4.33.062.713.117,1.428.163,2.141C268.449,766.637,264.847,777.434,256.578,778.156Z" transform="translate(-41.06 -36.84)" fill="#ef8745"/>
    <path id="Trazado_656849" data-name="Trazado 656849" d="M186.029,743.323a.049.049,0,0,0,0,.014v-.014Z" transform="translate(-30.281 -39.515)" fill="#b53933"/>
    <path id="Trazado_656850" data-name="Trazado 656850" d="M265.5,751.361a15.374,15.374,0,0,1,1.439,2.674,25.763,25.763,0,0,1,1.01,2.8l.2.715a5.838,5.838,0,0,1,.159.838,4.484,4.484,0,0,1-.167,1.7,3.758,3.758,0,0,1-2.064,2.412,5.78,5.78,0,0,0,.847-2.646,4.9,4.9,0,0,0-.1-1.254,5.824,5.824,0,0,0-.173-.609l-.22-.71a25.942,25.942,0,0,1-.683-2.9A15.447,15.447,0,0,1,265.5,751.361Z" transform="translate(-46.724 -41.178)" fill="#c76e36"/>
    <path id="Trazado_656851" data-name="Trazado 656851" d="M256.128,752.059c.147.948-.183,1.786-.737,1.872s-1.12-.615-1.267-1.563.183-1.786.737-1.872S255.982,751.111,256.128,752.059Z" transform="translate(-44.364 -40.998)" fill="#822b1f"/>
    <path id="Trazado_656852" data-name="Trazado 656852" d="M271.934,750.06c.147.949-.183,1.787-.737,1.872s-1.12-.614-1.267-1.562.184-1.786.737-1.872S271.788,749.112,271.934,750.06Z" transform="translate(-47.634 -40.584)" fill="#822b1f"/>
    <path id="Trazado_656853" data-name="Trazado 656853" d="M278.783,875.225C266.359,877.128,256.3,888.6,243.6,898c-3.39-.983-5.482-1.666-5.482-1.666s22.882-13.033,34-25.094C276.418,875.707,278.783,875.225,278.783,875.225Z" transform="translate(-41.06 -65.982)" fill="#c76e36"/>
    <ellipse id="Elipse_4714" data-name="Elipse 4714" cx="4.968" cy="2.775" rx="4.968" ry="2.775" transform="translate(202.556 717.661) rotate(-6.265)" fill="#c76e36"/>
    <path id="Trazado_656854" data-name="Trazado 656854" d="M274.92,761.905c-1.193-.38-2.007-1.079-2.1-1.954a2.668,2.668,0,0,1,1.65-2.376C274.641,759.005,274.8,760.453,274.92,761.905Z" transform="translate(-48.236 -42.464)" fill="#c76e36"/>
    <path id="Trazado_656855" data-name="Trazado 656855" d="M256.932,769.787c.9.037,1.708.126,2.505.2s1.563.15,2.326.207,1.521.085,2.3.094c.194,0,.392,0,.593.01.2-.011.4-.016.6-.017l.313,0c.1-.006.206-.014.312-.017.212-.01.433-.008.665,0a5.179,5.179,0,0,1-.491.459c-.086.074-.175.141-.265.212s-.189.116-.284.174c-.194.11-.391.218-.594.319-.205.082-.416.159-.63.231a6.917,6.917,0,0,1-2.652.3,7.822,7.822,0,0,1-2.564-.634c-.2-.094-.4-.186-.59-.3s-.381-.22-.561-.351c-.09-.066-.179-.128-.267-.2s-.172-.14-.255-.215A3.627,3.627,0,0,1,256.932,769.787Z" transform="translate(-44.952 -44.99)" fill="#c76e36"/>
    <path id="Trazado_656856" data-name="Trazado 656856" d="M259.964,774.558c.466-.013.873.01,1.271.035l1.151.082c.376.032.747.049,1.133.067s.78.013,1.255.06a2.289,2.289,0,0,1-.237.252c-.041.042-.086.078-.129.117s-.094.063-.141.1c-.1.061-.194.12-.3.174s-.209.088-.317.128a3.3,3.3,0,0,1-1.344.169,3.682,3.682,0,0,1-1.294-.339A2.717,2.717,0,0,1,259.964,774.558Z" transform="translate(-45.579 -45.977)" fill="#c76e36"/>
    <path id="Trazado_656857" data-name="Trazado 656857" d="M254.878,743.107c.193.637-1.393,1.678-3.543,2.328s-4.046.659-4.239.022,1.394-1.678,3.543-2.327S254.686,742.471,254.878,743.107Z" transform="translate(-42.913 -39.373)" fill="#9c3325"/>
    <path id="Trazado_656858" data-name="Trazado 656858" d="M271.792,744.3c-.321-.07-.654-.156-1-.259-2.149-.648-3.736-1.689-3.543-2.327.186-.617,1.972-.626,4.038-.037.083.43.171.872.255,1.324C271.631,743.43,271.71,743.863,271.792,744.3Z" transform="translate(-47.084 -39.085)" fill="#9c3325"/>
    <path id="Trazado_656859" data-name="Trazado 656859" d="M233.948,734l.081,0A.563.563,0,0,1,233.948,734Z" transform="translate(-40.196 -37.586)" fill="#ff7c6e"/>
    <path id="Trazado_656860" data-name="Trazado 656860" d="M265.974,870.078c-23.611,3.612-49.167,43.056-71.113,33.611-15.8-6.8-15.578-33.411-14.427-47.831.448-5.609.715-9.448.715-9.448,5.44-.106,10.429,0,14.328.152,16.416.639,20.234,3.068,20.234,3.068L214.538,864.8c7.175-.834,22.269-.278,34.449-.556S265.974,870.078,265.974,870.078Z" transform="translate(-29.028 -60.836)" fill="#ef8745"/>
    <path id="Trazado_656861" data-name="Trazado 656861" d="M218,849.682l-1.173,15.169a36.255,36.255,0,0,0-25.782,10.971c.206-.291,6.884-9.874,6.721-29.208C214.185,847.253,218,849.682,218,849.682Z" transform="translate(-31.32 -60.887)" fill="#c76e36"/>
    <path id="Trazado_656862" data-name="Trazado 656862" d="M218.863,807.141c0,1.746-.04,3.52-.117,5.291-.076,1.838-.188,3.674-.323,5.475v0c-.135,1.779-.293,3.52-.463,5.2-.2,1.916-.406,3.747-.619,5.445-.24,1.9-.481,3.631-.7,5.133-.536,3.638-.956,5.922-.956,5.922a77.837,77.837,0,0,0-18.236-3.594,59.025,59.025,0,0,0-7.5-.053,34.687,34.687,0,0,0-8.826,1.451s.028-.675.1-1.869c.062-1.077.158-2.577.3-4.382.122-1.56.277-3.348.47-5.294.181-1.815.4-3.768.653-5.793.217-1.725.463-3.5.742-5.3.3-1.931.637-3.881,1.013-5.8q.294-1.48.616-2.928.277-1.236.575-2.373a56.35,56.35,0,0,1,2.131-6.588,37.734,37.734,0,0,1,2.54-5.257,16.475,16.475,0,0,1,3.235-4.217,13.634,13.634,0,0,1,10.248-6.35c5.624-.483,11.524,2.882,13.775,11.9.172.689.324,1.409.459,2.155a52.166,52.166,0,0,1,.671,5.489C218.8,802.83,218.863,804.965,218.863,807.141Z" transform="translate(-29.266 -47.354)" fill="#fffbf8"/>
    <path id="Trazado_656863" data-name="Trazado 656863" d="M217.444,840.029c-.24,1.9-.481,3.631-.7,5.133-12.916-3.19-22.625-3.559-28.884-3.206a58.12,58.12,0,0,0-6.234.68c.122-1.56.277-3.348.47-5.294C189.349,836.305,201.1,836.043,217.444,840.029Z" transform="translate(-29.37 -58.832)" fill="#82a7af"/>
    <path id="Trazado_656864" data-name="Trazado 656864" d="M218.819,826.537v0c-.135,1.779-.293,3.52-.463,5.2-13.577-3.5-23.733-3.907-30.206-3.539-1.926.108-3.629.289-5.111.5.217-1.725.463-3.5.742-5.3C191.281,822.511,202.934,822.532,218.819,826.537Z" transform="translate(-29.663 -55.986)" fill="#82a7af"/>
    <path id="Trazado_656865" data-name="Trazado 656865" d="M219.717,812.933c0,1.746-.04,3.52-.117,5.291-13.972-3.688-24.395-4.118-30.992-3.743-1.2.067-2.325.166-3.356.281q.294-1.48.616-2.928.277-1.236.575-2.373C194.023,808.825,205.094,809.194,219.717,812.933Z" transform="translate(-30.12 -53.147)" fill="#82a7af"/>
    <path id="Trazado_656866" data-name="Trazado 656866" d="M220.369,803.56c-13.923-3.663-24.314-4.088-30.894-3.718l-.034,0a37.738,37.738,0,0,1,2.54-5.257,106.569,106.569,0,0,1,27.717,3.484A52.161,52.161,0,0,1,220.369,803.56Z" transform="translate(-30.987 -50.119)" fill="#82a7af"/>
    <path id="Trazado_656867" data-name="Trazado 656867" d="M203.743,781.268c-1.574.942-3.821,3.794-5.308,12.145-2.35,13.18-1.144,39.477-.989,42.61a59.025,59.025,0,0,0-7.5-.053,34.687,34.687,0,0,0-8.826,1.451s.028-.675.1-1.869c.062-1.077.158-2.577.3-4.382.122-1.56.277-3.348.47-5.294.181-1.815.4-3.768.653-5.793.217-1.725.463-3.5.742-5.3.3-1.931.637-3.881,1.013-5.8q.294-1.48.616-2.928.277-1.236.575-2.373a56.351,56.351,0,0,1,2.131-6.588,37.734,37.734,0,0,1,2.54-5.257,16.475,16.475,0,0,1,3.235-4.217A13.635,13.635,0,0,1,203.743,781.268Z" transform="translate(-29.266 -47.366)" fill="#dedede" style="mix-blend-mode: multiply;isolation: isolate"/>
    <ellipse id="Elipse_4715" data-name="Elipse 4715" cx="16.991" cy="4.58" rx="16.991" ry="4.58" transform="translate(238.089 842.211) rotate(-16.044)" fill="#dbdbdb" style="mix-blend-mode: multiply;isolation: isolate"/>
    <g id="Grupo_958279" data-name="Grupo 958279" transform="translate(223.798 816.202)">
      <path id="Trazado_656868" data-name="Trazado 656868" d="M309.128,889.095c-.013,1.233.006,2.854-.048,4.7-.029.995-.079,2.054-.162,3.152-.328,4.213-1.193,9.006-3.487,12.925a16.858,16.858,0,0,1-1.934,2.677c-2.76,3.093-6.875,5.182-13.016,5.182a17.655,17.655,0,0,1-8.639-2.011l0,0c-9.983-5.477-9.942-20.636-10-26.623Z" transform="translate(-271.833 -885.878)" fill="#cb6f9b"/>
      <path id="Trazado_656869" data-name="Trazado 656869" d="M313.442,898.3a6.764,6.764,0,0,0-.8,13.481c2.291-3.921,3.159-8.714,3.485-12.924A6.646,6.646,0,0,0,313.442,898.3Z" transform="translate(-279.042 -887.782)" fill="#fffdfc"/>
      <path id="Trazado_656870" data-name="Trazado 656870" d="M311.692,893.8c.052-1.845.036-3.468.048-4.7H301.086c.132,1.991.247,4.824.142,7.925a46.421,46.421,0,0,1-1.34,10.07c-1.887,7.08-6.165,12.362-15.426,8.63h-.01a17.694,17.694,0,0,0,8.641,2.007c6.139,0,10.254-2.087,13.013-5.182a9.784,9.784,0,0,0,5.587-18.753Zm-2.849,16.125a6.612,6.612,0,0,1-.8-.048c2.291-3.921,3.159-8.714,3.485-12.924a6.764,6.764,0,0,1-2.686,12.972Z" transform="translate(-274.444 -885.879)" fill="#a65b7e"/>
      <path id="Trazado_656871" data-name="Trazado 656871" d="M285.619,909.615c-3.434.754-7.482-4.382-9.038-11.471a22.333,22.333,0,0,1-.263-9.049h10.42a24.52,24.52,0,0,1,2.286,6.318C290.58,902.5,289.056,908.86,285.619,909.615Z" transform="translate(-272.689 -885.878)" fill="#121212" style="mix-blend-mode: screen;isolation: isolate"/>
      <ellipse id="Elipse_4716" data-name="Elipse 4716" cx="18.649" cy="3.217" rx="18.649" ry="3.217" transform="translate(0 0)" fill="#faa1cb"/>
      <path id="Trazado_656872" data-name="Trazado 656872" d="M306.362,888.47c0,.385-.8.747-2.174,1.054a83.826,83.826,0,0,1-25.461,0c-1.379-.307-2.174-.669-2.174-1.054,0-1.122,6.673-2.029,14.9-2.029S306.362,887.348,306.362,888.47Z" transform="translate(-272.809 -885.329)" fill="#a65b7e"/>
      <path id="Trazado_656873" data-name="Trazado 656873" d="M304.756,890.074a83.826,83.826,0,0,1-25.461,0,83.816,83.816,0,0,1,25.461,0Z" transform="translate(-273.377 -885.88)" fill="#825459"/>
    </g>
    <path id="Trazado_656874" data-name="Trazado 656874" d="M292.649,878.453s-7.009-6.389-.991-12.781-13.693-16.77-6.611-28.589c6.863-11.452,35.891,3.111,36.029,15.9S284.948,864.615,292.649,878.453Z" transform="translate(-50.447 -58.057)" fill="#121212" style="mix-blend-mode: screen;isolation: isolate"/>
    <g id="Grupo_958280" data-name="Grupo 958280" transform="translate(155.726 664.538)">
      <path id="Trazado_656875" data-name="Trazado 656875" d="M238.324,755.654c-.532-11,0-21.651,0-21.651l-4.492,3.441-1.689,1.294-.03-.121S206.34,744.1,206.34,752.8c0,5.189-4.135,13.36-6.786,17.516-1.791,2.808-3.291,4.683-3.291,4.683l-1.762,4.824c10.52-14.211,25.721,7.421,36.014,5.647S238.856,766.658,238.324,755.654Zm-7.453,28.218c-3.358,1.975-7.04-.133-10.585-3.256a9.239,9.239,0,0,0,12.093-3.187,21.672,21.672,0,0,0,2.289-5.218C234.583,777.766,233.573,782.283,230.871,783.873Z" transform="translate(-187.76 -702.124)" fill="#9c3325"/>
      <path id="Trazado_656876" data-name="Trazado 656876" d="M235.15,738.342l-1.689,1.294-.03-.121S207.658,745,207.658,753.7c0,5.189-4.135,13.36-6.786,17.516,4.55,1.409,16.432,4.177,24.75-2.06C234.416,762.557,235.23,745.643,235.15,738.342Zm-31.18,31.343c17.925,1.065,22.361-5.324,22.361-5.324C218.878,778.913,203.971,769.685,203.971,769.685Z" transform="translate(-189.078 -703.022)" fill="#822b1f"/>
      <path id="Trazado_656877" data-name="Trazado 656877" d="M255.449,723.877a4.162,4.162,0,0,0-.726,2.941v0a.532.532,0,0,1-.531.531c-.017,0-.037,0-.056,0-8.283-.946-16.959,3.233-23.981,7.126-3.509,1.945-6.6,3.819-9.029,4.943-5.2,2.408-13.273,6.259-16.649,7.9-.985.481-.74-.522-1.273-1.481-.587-1.06-1.826-2.221-4.44-2.52-6.211-.71-14.553-3.9-12.424-10.471,1.954-6.025,9.856-10.272,10.649-13.843,1.42-6.389,3.9-6.389,9.938-12.6.155-.159.309-.314.46-.463,0-.006.01-.01.014-.016.309-.307.61-.6.908-.87,5.259-4.827-.231-6.49,15.655-3.265,7.133,1.448,15.085,3.727,20.409,4.614s10.927.248,14.02,5.146l.009.017C260.717,715.263,257.736,721.279,255.449,723.877Z" transform="translate(-186.001 -695.116)" fill="#f97e2a"/>
      <path id="Trazado_656878" data-name="Trazado 656878" d="M217.127,696.31c2.071,2.356,3.806,5.7,3.217,6.219s-2.745-.973-4.816-3.329-3.271-4.686-2.682-5.2S215.057,693.955,217.127,696.31Z" transform="translate(-191.525 -693.808)" fill="#f97e2a"/>
      <path id="Trazado_656879" data-name="Trazado 656879" d="M251.875,724.113c-1.64-4.861-24.875,15.471-37.432,1.192-6.667-7.581-12.916.344-15.833-.914-3.314-1.43,3.819-7.291,5.833-11.944a19.109,19.109,0,0,1,2.945-4.985q-.227.224-.46.463c-6.034,6.212-8.519,6.212-9.938,12.6-.793,3.57-8.695,7.818-10.649,13.843a6.852,6.852,0,0,0-.319,1.535v.017c-.006.064-.01.128-.013.19v.009c-.259,5.39,7.124,8.074,12.755,8.719,2.614.3,3.853,1.46,4.44,2.52.533.959.288,1.961,1.273,1.481,3.375-1.646,11.452-5.5,16.649-7.9.287-.133.585-.277.891-.43,2.275-1.139,5.046-2.8,8.139-4.513C225.719,729.53,252.949,727.3,251.875,724.113Z" transform="translate(-186.001 -696.633)" fill="#db5c25"/>
    </g>
    <path id="Trazado_656880" data-name="Trazado 656880" d="M425.842,889.405s-1.22,22.812,6.743,30.774A38.025,38.025,0,0,0,425.842,889.405Z" transform="translate(-79.887 -69.74)" fill="#092139"/>
    <g id="Grupo_958289" data-name="Grupo 958289" transform="translate(268.773 722.664)">
      <g id="Grupo_958282" data-name="Grupo 958282" transform="translate(0 108.478)">
        <path id="Trazado_656881" data-name="Trazado 656881" d="M372.324,913.688c2.492,1,4.741,1.986,6.817,2.928l-26.553,16.992,33.36.162s30.744-8.241,38.934-9.921c27.33-5.606,54.66-7.358,63.42-19.972Z" transform="translate(-333.517 -903.877)" fill="#dbdbdb" style="mix-blend-mode: multiply;isolation: isolate"/>
        <g id="Grupo_958281" data-name="Grupo 958281" transform="translate(0 4.555)">
          <path id="Trazado_656882" data-name="Trazado 656882" d="M409.671,911.176l-1.577.915.021,4.972h1.556v1.556L381.6,934.958l-45.909-3.779-4.115-4.7,7.043-4.1,20.7-12.051h.005l38.43-.536,11.915-.168Z" transform="translate(-329.169 -909.62)" fill="#22405e"/>
          <path id="Trazado_656883" data-name="Trazado 656883" d="M420.76,911.581,392.691,927.92v5.887l28.069-16.339Z" transform="translate(-341.814 -910.026)" fill="#defff0"/>
          <path id="Trazado_656884" data-name="Trazado 656884" d="M379.417,931.777v5.886h1.555v1.555H333.04a4.5,4.5,0,1,1,0-9h47.932v1.555Z" transform="translate(-328.541 -913.883)" fill="#2a5075"/>
          <path id="Trazado_656885" data-name="Trazado 656885" d="M394.651,925.959l28.069-16.339v1.555l-28.069,16.339Z" transform="translate(-342.22 -909.62)" fill="#272538"/>
          <path id="Trazado_656886" data-name="Trazado 656886" d="M394.651,935.342,422.721,919v1.555L394.651,936.9Z" transform="translate(-342.22 -911.562)" fill="#272538"/>
          <path id="Trazado_656887" data-name="Trazado 656887" d="M333.446,938.069a2.943,2.943,0,0,1,0-5.886h46.378v5.886Z" transform="translate(-328.947 -914.289)" fill="#fffbf8"/>
          <path id="Trazado_656888" data-name="Trazado 656888" d="M399.594,909.832a27.784,27.784,0,0,1-7.242,5.671,48.4,48.4,0,0,1-6.806,3.159c-8.146,3.08-18.526,4.924-29.836,4.924a98.072,98.072,0,0,1-15.253-1.167l20.7-12.052h0Z" transform="translate(-331.006 -909.664)" fill="#2a5075"/>
        </g>
      </g>
      <g id="Grupo_958285" data-name="Grupo 958285" transform="translate(31.12)">
        <g id="Grupo_958283" data-name="Grupo 958283" transform="translate(0 98.481)">
          <path id="Trazado_656889" data-name="Trazado 656889" d="M419.533,908.49s-8.226,3.731-15.3,3.922c-1.014.027-2.063,0-3.115-.057a75.634,75.634,0,0,1-12.762-2.048c-2.3.671-3.348,0-8.511.574s-5.548-1.052-5.548-1.052c-4.019.671-3.826-1.817-3.826-1.817s-.231-.038-.559-.129c-.825-.229-2.256-.784-2.119-1.88.19-1.529,3.731-2.869,6.026-4.59a20.628,20.628,0,0,1,2.557-1.626,22.06,22.06,0,0,0,3.133-2.034,25.171,25.171,0,0,1,5.309-2.653c3.538-1.531,5.069-3.921,10.52-3.826,3.6.063,11.742.668,16.86,1.071,2.636.208,4.469.363,4.469.363C420.5,893.021,419.533,908.49,419.533,908.49Z" transform="translate(-367.779 -891.272)" fill="#ef8745"/>
          <path id="Trazado_656890" data-name="Trazado 656890" d="M428.23,908.77s-8.226,3.731-15.3,3.922c-1.014.027-2.063,0-3.115-.057,13.106-2.754,11.768-16.107,11.08-20.01,2.636.208,4.469.363,4.469.363C429.2,893.3,428.23,908.77,428.23,908.77Z" transform="translate(-376.476 -891.552)" fill="#c76e36"/>
          <path id="Trazado_656891" data-name="Trazado 656891" d="M393.1,908.739s-3.014.251-5.166.467-4.878,1.219-9.469,2.007-3.467,2.176-3.467,2.176c-4.019.671-3.826-1.817-3.826-1.817,1.6,1.148,8.577-2.258,13.39-2.834A34.488,34.488,0,0,1,393.1,908.739Z" transform="translate(-368.48 -894.832)" fill="#c76e36"/>
          <path id="Trazado_656892" data-name="Trazado 656892" d="M372.584,907.805a77.9,77.9,0,0,1,7.819-4.376c3.085-1.362,5.237-1.435,8.035-2.439s3.8-1.578,4.95-1.578c0,0-.288-.573-5.883.718s-7.722,1.291-9.348,2.8S373.04,905.722,372.584,907.805Z" transform="translate(-368.774 -892.93)" fill="#c76e36"/>
        </g>
        <g id="Grupo_958284" data-name="Grupo 958284" transform="translate(46.063)">
          <path id="Trazado_656893" data-name="Trazado 656893" d="M466.077,804.848s-5.091,21.278-3.1,27.034c5.308,15.351,1.291,14.491-2.405,15.782-4.333,1.513,1.831,6.025-5.055,11.907-5.128,4.38-13.907,7.818-13.907,7.818l38.727-1.935S479.706,815.013,466.077,804.848Z" transform="translate(-429.119 -774.909)" fill="#112e4c"/>
          <path id="Trazado_656894" data-name="Trazado 656894" d="M505.986,871.415c-1.936,8.824-15.063,9.471-30.988,15.315s-42.395,8.143-42.395,8.143A92.853,92.853,0,0,0,428,869.39a42.929,42.929,0,0,0-2.136-5.291s27.4-9.254,32.351-14.061a12.006,12.006,0,0,1,6.733-3.47,3.324,3.324,0,0,0,2.839-2.867,2.211,2.211,0,0,1,.429-1.122,3.129,3.129,0,0,1,1.45-.931,1.468,1.468,0,0,0,.629-2.321,33.065,33.065,0,0,1-2.079-2.773c-1.4-2.152.113-9.9-2.038-13.342s-4.95-9.04-4.736-13.989c.147-3.362,1.188-10.2,2.11-18.154.357-3.085.7-6.339.958-9.624q.086-1.065.16-2.13c.01-.158.024-.312.036-.464a13.4,13.4,0,0,1,.27-1.758,12.956,12.956,0,0,1,22.581-5.292c9.669,11.727,13.268,35.837,13.268,42.162,0,8.612,7.747,19.149,5.164,30.125S507.924,862.592,505.986,871.415Z" transform="translate(-425.86 -767.098)" fill="#112e4c"/>
        </g>
      </g>
      <g id="Grupo_958288" data-name="Grupo 958288" transform="translate(93.181 63.385)">
        <ellipse id="Elipse_4717" data-name="Elipse 4717" cx="16.991" cy="4.58" rx="16.991" ry="4.58" transform="translate(12.433 67.373) rotate(-16.044)" fill="#dbdbdb" style="mix-blend-mode: multiply;isolation: isolate"/>
        <g id="Grupo_958287" data-name="Grupo 958287">
          <g id="Grupo_958286" data-name="Grupo 958286" transform="translate(0 41.321)">
            <path id="Trazado_656895" data-name="Trazado 656895" d="M483.328,903.178c-.013,1.233,0,2.854-.048,4.7-.029.995-.078,2.053-.161,3.153-.328,4.213-1.193,9.006-3.487,12.925a16.779,16.779,0,0,1-1.935,2.676c-2.759,3.094-6.875,5.183-13.015,5.183a17.652,17.652,0,0,1-8.639-2.011l0,0c-9.983-5.477-9.942-20.636-10-26.623Z" transform="translate(-446.033 -899.961)" fill="#f97e2a"/>
            <path id="Trazado_656896" data-name="Trazado 656896" d="M489.7,908.993a9.784,9.784,0,1,0,6.932,9.36A9.769,9.769,0,0,0,489.7,908.993Zm-2.848,16.125a6.648,6.648,0,0,1-.8-.048,6.763,6.763,0,1,1,.8.048Z" transform="translate(-452.454 -901.077)" fill="#f97e2a"/>
            <path id="Trazado_656897" data-name="Trazado 656897" d="M485.891,907.877c.053-1.845.036-3.466.048-4.7H475.283a79.292,79.292,0,0,1,.142,7.929,46.4,46.4,0,0,1-1.336,10.068c-1.888,7.079-6.165,12.359-15.426,8.63a.028.028,0,0,0-.01,0,17.652,17.652,0,0,0,8.639,2.011c6.14,0,10.256-2.089,13.015-5.183a9.784,9.784,0,0,0,5.583-18.754ZM483.043,924a6.647,6.647,0,0,1-.8-.047c2.294-3.919,3.159-8.712,3.487-12.925A6.765,6.765,0,0,1,483.043,924Z" transform="translate(-448.643 -899.961)" fill="#db5c25"/>
            <path id="Trazado_656898" data-name="Trazado 656898" d="M459.819,923.7c-3.434.755-7.482-4.381-9.039-11.47a22.331,22.331,0,0,1-.263-9.049h10.42a24.52,24.52,0,0,1,2.286,6.318C464.779,916.584,463.255,922.943,459.819,923.7Z" transform="translate(-446.888 -899.961)" fill="#121212" style="mix-blend-mode: screen;isolation: isolate"/>
            <ellipse id="Elipse_4718" data-name="Elipse 4718" cx="18.649" cy="3.217" rx="18.649" ry="3.217" fill="#ff8e2b"/>
            <path id="Trazado_656899" data-name="Trazado 656899" d="M480.561,902.553c0,.385-.795.747-2.174,1.054a83.816,83.816,0,0,1-25.46,0c-1.379-.307-2.175-.669-2.175-1.054,0-1.122,6.673-2.029,14.9-2.029S480.561,901.431,480.561,902.553Z" transform="translate(-447.009 -899.412)" fill="#db5c25"/>
            <path id="Trazado_656900" data-name="Trazado 656900" d="M478.955,904.157a83.816,83.816,0,0,1-25.46,0,83.816,83.816,0,0,1,25.46,0Z" transform="translate(-447.576 -899.963)" fill="#822b1f"/>
          </g>
          <path id="Trazado_656901" data-name="Trazado 656901" d="M466.849,892.536s-7.009-6.389-.992-12.781-13.692-16.77-6.61-28.589c6.862-11.452,35.891,3.111,36.029,15.9S459.148,878.7,466.849,892.536Z" transform="translate(-448.444 -847.02)" fill="#121212" style="mix-blend-mode: screen;isolation: isolate"/>
        </g>
      </g>
    </g>
    <g id="Grupo_958291" data-name="Grupo 958291" transform="translate(152.753 619.77)">
      <g id="Grupo_958290" data-name="Grupo 958290" transform="translate(0 0)">
        <path id="Trazado_656902" data-name="Trazado 656902" d="M214.128,637.36c17.605,0,31.876,8.663,31.876,19.349,0,7.2-6.478,13.482-16.087,16.813l4.949,13.211-16.449-10.849c-1.4.116-2.835.175-4.289.175-17.6,0-31.875-8.662-31.875-19.351S196.524,637.36,214.128,637.36Z" transform="translate(-182.253 -637.36)" fill="#fff"/>
      </g>
      <path id="Trazado_715314" data-name="Trazado 715314" d="M6-5.715H3.952V.658h-1.8V-5.715H.137V-7.1H6Zm7.028,3.192A3.242,3.242,0,0,1,12.122-.16,3.17,3.17,0,0,1,9.749.77,3.21,3.21,0,0,1,7.356-.16,3.226,3.226,0,0,1,6.44-2.523v-1.4a3.234,3.234,0,0,1,.914-2.36,3.19,3.19,0,0,1,2.384-.932,3.185,3.185,0,0,1,2.376.932,3.229,3.229,0,0,1,.916,2.36Zm-1.8-1.407a2.244,2.244,0,0,0-.392-1.364,1.292,1.292,0,0,0-1.106-.533,1.3,1.3,0,0,0-1.116.53A2.264,2.264,0,0,0,8.235-3.93v1.407a2.263,2.263,0,0,0,.392,1.375,1.308,1.308,0,0,0,1.122.533,1.279,1.279,0,0,0,1.1-.533,2.274,2.274,0,0,0,.389-1.375Zm4.694,1.614V.658h-1.8V-7.1h2.7a3.354,3.354,0,0,1,2.137.623,2.056,2.056,0,0,1,.789,1.7,1.7,1.7,0,0,1-.317,1.034,2.248,2.248,0,0,1-.935.7,1.736,1.736,0,0,1,1.026.674,2.086,2.086,0,0,1,.312,1.175V-.7A3.093,3.093,0,0,0,19.931,0a.917.917,0,0,0,.314.554V.658H18.385a.872.872,0,0,1-.277-.581,5.163,5.163,0,0,1-.064-.783v-.469a1.147,1.147,0,0,0-.293-.847,1.163,1.163,0,0,0-.858-.293Zm0-1.385h.911a1.239,1.239,0,0,0,.831-.248.887.887,0,0,0,.288-.711,1.024,1.024,0,0,0-.3-.765,1.14,1.14,0,0,0-.834-.29h-.9Zm6.958,1.385V.658h-1.8V-7.1h2.7a3.354,3.354,0,0,1,2.137.623,2.056,2.056,0,0,1,.789,1.7A1.7,1.7,0,0,1,26.4-3.738a2.248,2.248,0,0,1-.935.7,1.736,1.736,0,0,1,1.026.674A2.086,2.086,0,0,1,26.8-1.186V-.7A3.093,3.093,0,0,0,26.889,0,.917.917,0,0,0,27.2.551V.658H25.344a.872.872,0,0,1-.277-.581A5.163,5.163,0,0,1,25-.706v-.469a1.147,1.147,0,0,0-.293-.847,1.163,1.163,0,0,0-.858-.293Zm0-1.385H23.8a1.239,1.239,0,0,0,.831-.248.887.887,0,0,0,.288-.711,1.024,1.024,0,0,0-.3-.765,1.14,1.14,0,0,0-.834-.29h-.9Zm9.692,1.039H29.846V-.728h3.277V.658H28.045V-7.1h5.083v1.385H29.846v1.668h2.733Z" transform="translate(11.972 21.385)" fill="#005b8b"/>
    </g>
  </g>
</svg>
