<svg xmlns="http://www.w3.org/2000/svg" xmlns:xlink="http://www.w3.org/1999/xlink" width="326.294" height="283.269" viewBox="0 0 326.294 283.269">
  <defs>
    <clipPath id="clip-path">
      <path id="Trazado_715417" data-name="Trazado 715417" d="M206.513,245.475c6.683-8.181,12.557-17.678,21.241-24.218,8.65-6.512,20.65-9.409,29.942-15.169a127.07,127.07,0,0,0,20.071-15,55.882,55.882,0,0,1-12.181,13.32c-6.327,4.969-14.132,8.054-21.255,11.672-6.859,3.485-13.172,7.618-18.429,13.283-10.261,11.061-19.4,23.216-32.771,30.757a80.672,80.672,0,0,1-8.693,4.234,75.091,75.091,0,0,0,22.074-18.883m72.5-141.149c-10.873-9.488-24.471-14.894-36.364-22.885-9.571-6.432-16.705-21.107-21.377-30.812-6.309-13.107-15.733-28.094-28.016-37.106a63.148,63.148,0,0,0-15.637-8.256c3.36.74,6.716,1.491,10.011,2.5,6.123,1.879,11.329,5.381,16.062,9.612A90.614,90.614,0,0,1,222.83,42.467c4.327,8.311,7.038,17.458,12.359,25.243,4.83,7.067,11.7,12.371,18.846,16.913,15.552,9.885,33.244,17.641,40.252,36.1,2.782,7.324,2.824,15.626,2.182,23.469-.234-14.944-5.665-29.582-17.454-39.871M145.507,0c-32.8.019-68.154,14.151-83.7,36.543-8.351,12.024-9.185,20.71-8.184,34.5,1.458,20.126-5.151,31.355-19.771,45.035-11.734,10.98-22.951,23.462-28.514,37.87q.495-1.844,1.114-3.661c3.478-10.181,10.059-19.2,17.079-27.215,6.348-7.253,14.014-13.371,19.478-21.374C54.594,84.72,46.8,64.063,52.423,45.514,58.5,25.477,80.253,16.549,97.906,9.438c.531-.214-.387-.492-.644-.409C79.508,14.7,59.615,23.969,51.31,41.783c-3.824,8.2-3.911,17.6-4.038,26.461C47.1,80.154,46.6,90.977,39.9,101.282c-5.679,8.744-14.471,15.42-21.24,23.308C11.609,132.817,5.649,142.107,2.384,152.5c-4.775,15.2-2.232,34.652,6.348,48.875a141.806,141.806,0,0,0,11.492,20.773c24.347,36.963,74.148,49.584,115.866,51.214,13.285.519,24.907-.431,35.329-3.569a42.932,42.932,0,0,0,8.268-2c4.383-1.587,8.829-3.545,13.05-5.494,14.633-6.757,24.908-19.527,35.777-30.935,11.917-12.5,28.884-16.134,42.231-26.49a53.979,53.979,0,0,0,14.647-18.027,41.424,41.424,0,0,0,4.317-12.221q1.247-2.571,2.276-5.251c8.557-12.971,10.2-31.65,6.448-46.143-4.86-18.764-22.842-28.21-38.216-37.29-8.425-4.977-16.378-10.658-22.245-18.608-5.813-7.877-9.08-17.543-13.651-26.145a94.3,94.3,0,0,0-19.066-24.256c-8.043-7.408-17.622-10.369-28.17-12.283-.884-.16-1.768-.314-2.652-.467a84.691,84.691,0,0,0-10.7-2.628A103.472,103.472,0,0,0,145.656,0Z" transform="translate(0 -0.004)" fill="#efaeb8"/>
    </clipPath>
    <filter id="Rectángulo_33844" x="266.796" y="70.65" width="51.279" height="32.154" filterUnits="userSpaceOnUse">
      <feOffset dy="3" input="SourceAlpha"/>
      <feGaussianBlur stdDeviation="3" result="blur"/>
      <feFlood flood-opacity="0.161"/>
      <feComposite operator="in" in2="blur"/>
      <feComposite in="SourceGraphic"/>
    </filter>
    <filter id="Trazado_113690" x="278.883" y="80.233" width="47.411" height="33.036" filterUnits="userSpaceOnUse">
      <feOffset dy="3" input="SourceAlpha"/>
      <feGaussianBlur stdDeviation="3" result="blur-2"/>
      <feFlood flood-opacity="0.161"/>
      <feComposite operator="in" in2="blur-2"/>
      <feComposite in="SourceGraphic"/>
    </filter>
    <filter id="Rectángulo_33844-2" x="80.729" y="240.65" width="51.279" height="32.154" filterUnits="userSpaceOnUse">
      <feOffset dy="3" input="SourceAlpha"/>
      <feGaussianBlur stdDeviation="3" result="blur-3"/>
      <feFlood flood-opacity="0.161"/>
      <feComposite operator="in" in2="blur-3"/>
      <feComposite in="SourceGraphic"/>
    </filter>
    <filter id="Trazado_113690-2" x="92.816" y="250.233" width="47.411" height="33.036" filterUnits="userSpaceOnUse">
      <feOffset dy="3" input="SourceAlpha"/>
      <feGaussianBlur stdDeviation="3" result="blur-4"/>
      <feFlood flood-opacity="0.161"/>
      <feComposite operator="in" in2="blur-4"/>
      <feComposite in="SourceGraphic"/>
    </filter>
    <filter id="Trazado_113638" x="96.807" y="23.7" width="80.333" height="80.333" filterUnits="userSpaceOnUse">
      <feOffset dy="3" input="SourceAlpha"/>
      <feGaussianBlur stdDeviation="3" result="blur-5"/>
      <feFlood flood-opacity="0.161"/>
      <feComposite operator="in" in2="blur-5"/>
      <feComposite in="SourceGraphic"/>
    </filter>
    <clipPath id="clip-path-2">
      <rect id="Rectángulo_346922" data-name="Rectángulo 346922" width="237" height="282" transform="translate(1035 5249)" fill="#fff" stroke="#707070" stroke-width="1" opacity="0.63"/>
    </clipPath>
    <clipPath id="clip-path-3">
      <rect id="Rectángulo_346921" data-name="Rectángulo 346921" width="221.038" height="346.949" fill="none"/>
    </clipPath>
    <clipPath id="clip-path-4">
      <rect id="Rectángulo_346923" data-name="Rectángulo 346923" width="86.098" height="71.652" fill="none"/>
    </clipPath>
  </defs>
  <g id="Grupo_1006506" data-name="Grupo 1006506" transform="translate(3792.227 2892)">
    <g id="Grupo_1006403" data-name="Grupo 1006403" transform="translate(-4789 -8141)">
      <g id="Grupo_1006335" data-name="Grupo 1006335" transform="translate(0 2079.08)">
        <g id="Grupo_1006262" data-name="Grupo 1006262" transform="translate(996.773 3178.508)">
          <g id="Grupo_1006260" data-name="Grupo 1006260" transform="translate(0 0.004)" clip-path="url(#clip-path)">
            <rect id="Rectángulo_346887" data-name="Rectángulo 346887" width="304.578" height="273.873" transform="translate(-2.392 0)" fill="#efaeb8"/>
          </g>
        </g>
        <g id="Grupo_1006266" data-name="Grupo 1006266" transform="translate(0 39)">
          <g id="Grupo_1006264" data-name="Grupo 1006264" transform="translate(1272.569 3207.57)">
            <g transform="matrix(1, 0, 0, 1, -275.8, -76.65)" filter="url(#Rectángulo_33844)">
              <rect id="Rectángulo_33844-3" data-name="Rectángulo 33844" width="33.279" height="14.154" rx="3" transform="translate(275.8 76.65)" fill="#f9e8dc"/>
            </g>
            <g transform="matrix(1, 0, 0, 1, -275.8, -76.65)" filter="url(#Trazado_113690)">
              <path id="Trazado_113690-3" data-name="Trazado 113690" d="M3.765,15.036h21.88a3.766,3.766,0,0,0,3.765-3.765V3.765A3.765,3.765,0,0,0,25.645,0H3.765A3.765,3.765,0,0,0,0,3.765V11.27a3.765,3.765,0,0,0,3.765,3.765" transform="translate(287.88 86.23)" fill="#eb9ba8"/>
            </g>
            <path id="Trazado_113691" data-name="Trazado 113691" d="M3.658,1.829A1.829,1.829,0,1,0,1.829,3.658,1.829,1.829,0,0,0,3.658,1.829" transform="translate(17.381 15.272)" fill="#fff"/>
            <path id="Trazado_113692" data-name="Trazado 113692" d="M3.658,1.829A1.829,1.829,0,1,0,1.829,3.658,1.829,1.829,0,0,0,3.658,1.829" transform="translate(24.964 15.272)" fill="#fff"/>
            <path id="Trazado_113693" data-name="Trazado 113693" d="M3.658,1.829A1.829,1.829,0,1,0,1.829,3.658,1.829,1.829,0,0,0,3.658,1.829" transform="translate(32.546 15.272)" fill="#fff"/>
          </g>
          <g id="Grupo_1006265" data-name="Grupo 1006265" transform="translate(1298.533 3202.963)">
            <path id="Trazado_113641" data-name="Trazado 113641" d="M1520.528,262.607a.965.965,0,1,1-.965-.965.965.965,0,0,1,.965.965" transform="translate(-1518.599 -261.642)" fill="#ed9aa9"/>
            <path id="Trazado_113642" data-name="Trazado 113642" d="M1572.2,262.607a.965.965,0,1,1-.965-.965.965.965,0,0,1,.965.965" transform="translate(-1566.029 -261.642)" fill="#ed9aa9"/>
            <path id="Trazado_113643" data-name="Trazado 113643" d="M1623.879,262.607a.965.965,0,1,1-.965-.965.965.965,0,0,1,.965.965" transform="translate(-1613.458 -261.642)" fill="#ed9aa9"/>
            <path id="Trazado_113644" data-name="Trazado 113644" d="M1675.554,262.607a.965.965,0,1,1-.965-.965.965.965,0,0,1,.965.965" transform="translate(-1660.887 -261.642)" fill="#ed9aa9"/>
            <path id="Trazado_113646" data-name="Trazado 113646" d="M1520.528,311.933a.965.965,0,1,1-.965-.965.965.965,0,0,1,.965.965" transform="translate(-1518.599 -306.915)" fill="#ed9aa9"/>
            <path id="Trazado_113647" data-name="Trazado 113647" d="M1572.2,311.933a.965.965,0,1,1-.965-.965.965.965,0,0,1,.965.965" transform="translate(-1566.029 -306.915)" fill="#ed9aa9"/>
            <path id="Trazado_113648" data-name="Trazado 113648" d="M1623.879,311.933a.965.965,0,1,1-.965-.965.965.965,0,0,1,.965.965" transform="translate(-1613.458 -306.915)" fill="#ed9aa9"/>
            <path id="Trazado_113649" data-name="Trazado 113649" d="M1675.554,311.933a.965.965,0,1,1-.965-.965.965.965,0,0,1,.965.965" transform="translate(-1660.887 -306.915)" fill="#ed9aa9"/>
            <path id="Trazado_113651" data-name="Trazado 113651" d="M1520.528,361.259a.965.965,0,1,1-.965-.965.965.965,0,0,1,.965.965" transform="translate(-1518.599 -352.189)" fill="#ed9aa9"/>
            <path id="Trazado_113652" data-name="Trazado 113652" d="M1572.2,361.259a.965.965,0,1,1-.965-.965.965.965,0,0,1,.965.965" transform="translate(-1566.029 -352.189)" fill="#ed9aa9"/>
            <path id="Trazado_113653" data-name="Trazado 113653" d="M1623.879,361.259a.965.965,0,1,1-.965-.965.965.965,0,0,1,.965.965" transform="translate(-1613.458 -352.189)" fill="#ed9aa9"/>
            <path id="Trazado_113654" data-name="Trazado 113654" d="M1675.554,361.259a.965.965,0,1,1-.965-.965.965.965,0,0,1,.965.965" transform="translate(-1660.887 -352.189)" fill="#ed9aa9"/>
            <path id="Trazado_113656" data-name="Trazado 113656" d="M1520.528,410.586a.965.965,0,1,1-.965-.965.965.965,0,0,1,.965.965" transform="translate(-1518.599 -397.463)" fill="#ed9aa9"/>
            <path id="Trazado_113657" data-name="Trazado 113657" d="M1572.2,410.586a.965.965,0,1,1-.965-.965.965.965,0,0,1,.965.965" transform="translate(-1566.029 -397.463)" fill="#ed9aa9"/>
            <path id="Trazado_113658" data-name="Trazado 113658" d="M1623.879,410.586a.965.965,0,1,1-.965-.965.965.965,0,0,1,.965.965" transform="translate(-1613.458 -397.463)" fill="#ed9aa9"/>
            <path id="Trazado_113659" data-name="Trazado 113659" d="M1675.554,410.586a.965.965,0,1,1-.965-.965.965.965,0,0,1,.965.965" transform="translate(-1660.887 -397.463)" fill="#ed9aa9"/>
            <path id="Trazado_113661" data-name="Trazado 113661" d="M1520.528,459.912a.965.965,0,1,1-.965-.965.965.965,0,0,1,.965.965" transform="translate(-1518.599 -442.736)" fill="#ed9aa9"/>
            <path id="Trazado_113662" data-name="Trazado 113662" d="M1572.2,459.912a.965.965,0,1,1-.965-.965.965.965,0,0,1,.965.965" transform="translate(-1566.029 -442.736)" fill="#ed9aa9"/>
            <path id="Trazado_113663" data-name="Trazado 113663" d="M1623.879,459.912a.965.965,0,1,1-.965-.965.965.965,0,0,1,.965.965" transform="translate(-1613.458 -442.736)" fill="#ed9aa9"/>
            <path id="Trazado_113664" data-name="Trazado 113664" d="M1675.554,459.912a.965.965,0,1,1-.965-.965.965.965,0,0,1,.965.965" transform="translate(-1660.887 -442.736)" fill="#ed9aa9"/>
          </g>
        </g>
        <g id="Grupo_1006268" data-name="Grupo 1006268" transform="translate(-186.067 209)">
          <g id="Grupo_1006264-2" data-name="Grupo 1006264" transform="translate(1272.569 3207.57)">
            <g transform="matrix(1, 0, 0, 1, -89.73, -246.65)" filter="url(#Rectángulo_33844-2)">
              <rect id="Rectángulo_33844-4" data-name="Rectángulo 33844" width="33.279" height="14.154" rx="3" transform="translate(89.73 246.65)" fill="#f9e8dc"/>
            </g>
            <g transform="matrix(1, 0, 0, 1, -89.73, -246.65)" filter="url(#Trazado_113690-2)">
              <path id="Trazado_113690-4" data-name="Trazado 113690" d="M3.765,15.036h21.88a3.766,3.766,0,0,0,3.765-3.765V3.765A3.765,3.765,0,0,0,25.645,0H3.765A3.765,3.765,0,0,0,0,3.765V11.27a3.765,3.765,0,0,0,3.765,3.765" transform="translate(101.82 256.23)" fill="#eb9ba8"/>
            </g>
            <path id="Trazado_113691-2" data-name="Trazado 113691" d="M3.658,1.829A1.829,1.829,0,1,0,1.829,3.658,1.829,1.829,0,0,0,3.658,1.829" transform="translate(17.381 15.272)" fill="#fff"/>
            <path id="Trazado_113692-2" data-name="Trazado 113692" d="M3.658,1.829A1.829,1.829,0,1,0,1.829,3.658,1.829,1.829,0,0,0,3.658,1.829" transform="translate(24.964 15.272)" fill="#fff"/>
            <path id="Trazado_113693-2" data-name="Trazado 113693" d="M3.658,1.829A1.829,1.829,0,1,0,1.829,3.658,1.829,1.829,0,0,0,3.658,1.829" transform="translate(32.546 15.272)" fill="#fff"/>
          </g>
          <g id="Grupo_1006265-2" data-name="Grupo 1006265" transform="translate(1298.533 3202.963)">
            <path id="Trazado_113641-2" data-name="Trazado 113641" d="M1520.528,262.607a.965.965,0,1,1-.965-.965.965.965,0,0,1,.965.965" transform="translate(-1518.599 -261.642)" fill="#ed9aa9"/>
            <path id="Trazado_113642-2" data-name="Trazado 113642" d="M1572.2,262.607a.965.965,0,1,1-.965-.965.965.965,0,0,1,.965.965" transform="translate(-1566.029 -261.642)" fill="#ed9aa9"/>
            <path id="Trazado_113643-2" data-name="Trazado 113643" d="M1623.879,262.607a.965.965,0,1,1-.965-.965.965.965,0,0,1,.965.965" transform="translate(-1613.458 -261.642)" fill="#ed9aa9"/>
            <path id="Trazado_113644-2" data-name="Trazado 113644" d="M1675.554,262.607a.965.965,0,1,1-.965-.965.965.965,0,0,1,.965.965" transform="translate(-1660.887 -261.642)" fill="#ed9aa9"/>
            <path id="Trazado_113646-2" data-name="Trazado 113646" d="M1520.528,311.933a.965.965,0,1,1-.965-.965.965.965,0,0,1,.965.965" transform="translate(-1518.599 -306.915)" fill="#ed9aa9"/>
            <path id="Trazado_113647-2" data-name="Trazado 113647" d="M1572.2,311.933a.965.965,0,1,1-.965-.965.965.965,0,0,1,.965.965" transform="translate(-1566.029 -306.915)" fill="#ed9aa9"/>
            <path id="Trazado_113648-2" data-name="Trazado 113648" d="M1623.879,311.933a.965.965,0,1,1-.965-.965.965.965,0,0,1,.965.965" transform="translate(-1613.458 -306.915)" fill="#ed9aa9"/>
            <path id="Trazado_113649-2" data-name="Trazado 113649" d="M1675.554,311.933a.965.965,0,1,1-.965-.965.965.965,0,0,1,.965.965" transform="translate(-1660.887 -306.915)" fill="#ed9aa9"/>
            <path id="Trazado_113651-2" data-name="Trazado 113651" d="M1520.528,361.259a.965.965,0,1,1-.965-.965.965.965,0,0,1,.965.965" transform="translate(-1518.599 -352.189)" fill="#ed9aa9"/>
            <path id="Trazado_113652-2" data-name="Trazado 113652" d="M1572.2,361.259a.965.965,0,1,1-.965-.965.965.965,0,0,1,.965.965" transform="translate(-1566.029 -352.189)" fill="#ed9aa9"/>
            <path id="Trazado_113653-2" data-name="Trazado 113653" d="M1623.879,361.259a.965.965,0,1,1-.965-.965.965.965,0,0,1,.965.965" transform="translate(-1613.458 -352.189)" fill="#ed9aa9"/>
            <path id="Trazado_113654-2" data-name="Trazado 113654" d="M1675.554,361.259a.965.965,0,1,1-.965-.965.965.965,0,0,1,.965.965" transform="translate(-1660.887 -352.189)" fill="#ed9aa9"/>
            <path id="Trazado_113656-2" data-name="Trazado 113656" d="M1520.528,410.586a.965.965,0,1,1-.965-.965.965.965,0,0,1,.965.965" transform="translate(-1518.599 -397.463)" fill="#ed9aa9"/>
            <path id="Trazado_113657-2" data-name="Trazado 113657" d="M1572.2,410.586a.965.965,0,1,1-.965-.965.965.965,0,0,1,.965.965" transform="translate(-1566.029 -397.463)" fill="#ed9aa9"/>
            <path id="Trazado_113658-2" data-name="Trazado 113658" d="M1623.879,410.586a.965.965,0,1,1-.965-.965.965.965,0,0,1,.965.965" transform="translate(-1613.458 -397.463)" fill="#ed9aa9"/>
            <path id="Trazado_113659-2" data-name="Trazado 113659" d="M1675.554,410.586a.965.965,0,1,1-.965-.965.965.965,0,0,1,.965.965" transform="translate(-1660.887 -397.463)" fill="#ed9aa9"/>
            <path id="Trazado_113661-2" data-name="Trazado 113661" d="M1520.528,459.912a.965.965,0,1,1-.965-.965.965.965,0,0,1,.965.965" transform="translate(-1518.599 -442.736)" fill="#ed9aa9"/>
            <path id="Trazado_113662-2" data-name="Trazado 113662" d="M1572.2,459.912a.965.965,0,1,1-.965-.965.965.965,0,0,1,.965.965" transform="translate(-1566.029 -442.736)" fill="#ed9aa9"/>
            <path id="Trazado_113663-2" data-name="Trazado 113663" d="M1623.879,459.912a.965.965,0,1,1-.965-.965.965.965,0,0,1,.965.965" transform="translate(-1613.458 -442.736)" fill="#ed9aa9"/>
            <path id="Trazado_113664-2" data-name="Trazado 113664" d="M1675.554,459.912a.965.965,0,1,1-.965-.965.965.965,0,0,1,.965.965" transform="translate(-1660.887 -442.736)" fill="#ed9aa9"/>
          </g>
        </g>
        <g id="Grupo_1006267" data-name="Grupo 1006267" transform="translate(1090.58 3166.618)" opacity="0.73">
          <g id="Grupo_1003557" data-name="Grupo 1003557" transform="translate(12 33.001)">
            <path id="Trazado_113637" data-name="Trazado 113637" d="M1065.807,477.265a38.785,38.785,0,1,0-38.785,38.785,38.785,38.785,0,0,0,38.785-38.785" transform="translate(-985.967 -438.48)" fill="#e49ca7"/>
            <g transform="matrix(1, 0, 0, 1, -105.81, -29.7)" filter="url(#Trazado_113638)">
              <path id="Trazado_113638-2" data-name="Trazado 113638" d="M1125.66,544.736a31.166,31.166,0,1,0-31.167,31.167,31.167,31.167,0,0,0,31.167-31.167" transform="translate(-957.52 -483.87)" fill="#fff" opacity="0.5"/>
            </g>
          </g>
        </g>
      </g>
      <g id="Grupo_1006349" data-name="Grupo 1006349" transform="translate(6443.349 13438.559)">
        <g id="Grupo_958296" data-name="Grupo 958296" transform="translate(-5239.035 -8131.905)">
          <path id="Trazado_656905" data-name="Trazado 656905" d="M705.488,743.491a108.38,108.38,0,0,1,15.336-22.568l1.953,14.508,2.74-19.177c6.2-5.5,11.933-7.873,15.829-5.847,8.107,4.217,5.2,25.865-6.5,48.354s-27.751,37.3-35.858,33.084S693.792,765.98,705.488,743.491Z" transform="translate(-665.493 -661.864)" fill="#f7e5cc"/>
          <path id="Trazado_656906" data-name="Trazado 656906" d="M753.662,712.4l11.082,9.541-9.254-15.252c8.029-23.127,21.22-38.87,31.056-36.118,10.856,3.037,13.514,27.456,5.936,54.542s-22.523,46.579-33.379,43.541-13.514-27.456-5.936-54.541Q753.41,713.249,753.662,712.4Z" transform="translate(-738.342 -670.258)" fill="#e6c6a1"/>
          <path id="Trazado_656907" data-name="Trazado 656907" d="M738.954,827.2l-10.591-1.77,12.953-1.945c9.275-15.4,11.958-30.237,5.784-34.493-6.815-4.7-21.841,5.278-33.56,22.28s-15.7,34.594-8.881,39.291,21.841-5.277,33.56-22.28C738.468,827.927,738.712,827.566,738.954,827.2Z" transform="translate(-660.844 -710.818)" fill="#e6c6a1"/>
          <path id="Trazado_656908" data-name="Trazado 656908" d="M711.006,873.63a.148.148,0,0,0,.142-.11c12.642-49.614,29.34-86.694,41.123-109.064,12.764-24.233,22.662-36.894,22.761-37.019a.147.147,0,0,0-.231-.182c-.1.125-10.013,12.807-22.789,37.064a455.1,455.1,0,0,0-20.829,45.746,538.239,538.239,0,0,0-20.319,63.382.146.146,0,0,0,.143.183Z" transform="translate(-697.561 -676.577)" fill="#e6c6a1"/>
          <path id="Trazado_656909" data-name="Trazado 656909" d="M768.922,834.513a.16.16,0,0,0,.147-.1,814.09,814.09,0,0,0,34.776-95.612c7.12-24.266,10.3-39.64,10.33-39.792a.16.16,0,0,0-.314-.064c-.031.152-3.208,15.516-10.324,39.771a814.045,814.045,0,0,1-34.76,95.568.161.161,0,0,0,.147.225Z" transform="translate(-768.762 -680.111)" fill="#f2dabe"/>
          <path id="Trazado_656910" data-name="Trazado 656910" d="M719.938,914.481a.16.16,0,0,0,.155-.118c9.192-33.578,24.376-61.17,35.494-78.4,12.506-19.383,22.613-30.193,23.238-30.5a.157.157,0,0,0,.1-.2.162.162,0,0,0-.206-.1c-.531.175-10.572,10.776-23.271,30.422-11.175,17.292-26.435,44.98-35.664,78.694a.161.161,0,0,0,.155.2Z" transform="translate(-701.429 -716.793)" fill="#f2dabe"/>
        </g>
        <g id="Grupo_958322" data-name="Grupo 958322" transform="translate(-5304.546 -7976.68)">
          <g id="Grupo_958318" data-name="Grupo 958318" transform="translate(0 45.093)">
            <path id="Trazado_656953" data-name="Trazado 656953" d="M973.816,976.613H935.1c2.511,0,4.547,4.391,4.547,9.905h0c0,5.514-2.035,9.905-4.547,9.905h38.715c2.511,0,4.547-4.391,4.547-9.905h0C978.362,981,976.327,976.613,973.816,976.613Z" transform="translate(-934.179 -976.259)" fill="#f7f1eb"/>
            <path id="Trazado_656954" data-name="Trazado 656954" d="M1048.9,976.073H969.938c5.122,0,9.273,4.523,9.273,10.259h0c0,5.736-4.152,10.259-9.273,10.259H1048.9c5.122,0,9.274-4.523,9.274-10.259h0C1058.178,980.6,1054.026,976.073,1048.9,976.073Z" transform="translate(-946.196 -976.073)" fill="#bd7b87"/>
            <path id="Trazado_656955" data-name="Trazado 656955" d="M957.435,996.5H933.853a.16.16,0,0,1,0-.321h23.581c5.2,0,9.113-4.189,9.113-9.745s-3.918-9.745-9.113-9.745H933.853a.16.16,0,0,1,0-.321h23.581a9.139,9.139,0,0,1,6.673,2.851,10.808,10.808,0,0,1,0,14.429A9.139,9.139,0,0,1,957.435,996.5Z" transform="translate(-933.693 -976.175)" fill="#84524d"/>
            <path id="Trazado_656956" data-name="Trazado 656956" d="M960.313,980.47H939.794a.16.16,0,1,1,0-.321h20.518a.16.16,0,1,1,0,.321Z" transform="translate(-935.742 -977.479)" fill="#e6d0be"/>
            <path id="Trazado_656957" data-name="Trazado 656957" d="M961.933,986.951H941.414a.16.16,0,1,1,0-.321h20.518a.16.16,0,1,1,0,.321Z" transform="translate(-936.301 -979.715)" fill="#e6d0be"/>
            <path id="Trazado_656958" data-name="Trazado 656958" d="M966.01,990.731H941.954a.16.16,0,1,1,0-.321H966.01a.16.16,0,0,1,0,.321Z" transform="translate(-936.488 -981.019)" fill="#e6d0be"/>
            <path id="Trazado_656959" data-name="Trazado 656959" d="M963.7,998.292H941.414a.161.161,0,0,1,0-.321H963.7a.161.161,0,0,1,0,.321Z" transform="translate(-936.301 -983.627)" fill="#e6d0be"/>
            <rect id="Rectángulo_344337" data-name="Rectángulo 344337" width="21.226" height="11.674" transform="translate(83.648 4.245)" fill="#8e5c65"/>
            <rect id="Rectángulo_344338" data-name="Rectángulo 344338" width="38.206" height="11.674" transform="translate(41.551 4.245)" fill="#8e5c65"/>
          </g>
          <g id="Grupo_958319" data-name="Grupo 958319" transform="translate(0 31.838)">
            <path id="Trazado_656960" data-name="Trazado 656960" d="M973.816,956.361H935.1c2.511,0,4.547,3.014,4.547,6.544h0c0,3.53-2.035,6.544-4.547,6.544h38.715c2.511,0,4.547-3.014,4.547-6.544h0C978.362,959.375,976.327,956.361,973.816,956.361Z" transform="translate(-934.179 -956.018)" fill="#f7f1eb"/>
            <path id="Trazado_656961" data-name="Trazado 656961" d="M1048.9,955.838H969.938c5.122,0,7.479,3.025,7.479,6.893h0c0,3.867-2.357,6.892-7.479,6.892H1048.9c5.122,0,7.479-3.025,7.479-6.892h0C1056.384,958.863,1054.026,955.838,1048.9,955.838Z" transform="translate(-946.196 -955.838)" fill="#112e4c"/>
            <path id="Trazado_656962" data-name="Trazado 656962" d="M957.435,969.526H933.853a.16.16,0,1,1,0-.321h23.581c4.583,0,7.319-2.386,7.319-6.384s-2.736-6.384-7.319-6.384H933.853a.161.161,0,0,1,0-.321h23.581c4.783,0,7.639,2.506,7.639,6.7S962.218,969.526,957.435,969.526Z" transform="translate(-933.693 -955.934)" fill="#005b8b"/>
            <path id="Trazado_656963" data-name="Trazado 656963" d="M960.313,959.137H939.794a.161.161,0,0,1,0-.321h20.518a.161.161,0,0,1,0,.321Z" transform="translate(-935.742 -956.865)" fill="#e6d0be"/>
            <path id="Trazado_656964" data-name="Trazado 656964" d="M961.933,963.458H941.414a.16.16,0,0,1,0-.321h20.518a.16.16,0,0,1,0,.321Z" transform="translate(-936.301 -958.356)" fill="#e6d0be"/>
            <path id="Trazado_656965" data-name="Trazado 656965" d="M966.01,965.618H941.954a.16.16,0,1,1,0-.321H966.01a.16.16,0,0,1,0,.321Z" transform="translate(-936.488 -959.101)" fill="#e6d0be"/>
            <path id="Trazado_656966" data-name="Trazado 656966" d="M963.7,971.019H941.414a.16.16,0,1,1,0-.321H963.7a.16.16,0,1,1,0,.321Z" transform="translate(-936.301 -960.964)" fill="#e6d0be"/>
          </g>
          <g id="Grupo_958320" data-name="Grupo 958320" transform="translate(0.117)">
            <path id="Trazado_656967" data-name="Trazado 656967" d="M1035.077,926.522h36.263c-2.352,0-4.259-4.21-4.259-9.375h0c0-5.165,1.907-9.375,4.259-9.375h-36.263c-2.352,0-4.258,4.21-4.258,9.375h0C1030.819,922.312,1032.726,926.522,1035.077,926.522Z" transform="translate(-967.316 -907.418)" fill="#f7f1eb"/>
            <path id="Trazado_656968" data-name="Trazado 656968" d="M942.558,926.689h73.964c-4.8,0-8.686-4.356-8.686-9.729h0c0-5.373,3.889-9.729,8.686-9.729H942.558c-4.8,0-8.686,4.356-8.686,9.729h0C933.872,922.333,937.761,926.689,942.558,926.689Z" transform="translate(-933.872 -907.232)" fill="#112e4c"/>
            <path id="Trazado_656969" data-name="Trazado 656969" d="M1077.5,926.6h-22.107c-4.961,0-8.847-4.188-8.847-9.535s3.886-9.535,8.847-9.535H1077.5a.161.161,0,0,1,0,.321h-22.107c-4.781,0-8.526,4.047-8.526,9.214s3.745,9.214,8.526,9.214H1077.5a.16.16,0,0,1,0,.321Z" transform="translate(-972.74 -907.334)" fill="#84524d"/>
            <path id="Trazado_656970" data-name="Trazado 656970" d="M1078.066,932.691h-19.457a.16.16,0,1,1,0-.321h19.457a.16.16,0,1,1,0,.321Z" transform="translate(-976.847 -915.904)" fill="#e6d0be"/>
            <path id="Trazado_656971" data-name="Trazado 656971" d="M1076.447,926.75H1056.99a.16.16,0,1,1,0-.321h19.457a.16.16,0,0,1,0,.321Z" transform="translate(-976.288 -913.854)" fill="#e6d0be"/>
            <path id="Trazado_656972" data-name="Trazado 656972" d="M1074.23,923.51h-22.641a.16.16,0,0,1,0-.321h22.641a.16.16,0,1,1,0,.321Z" transform="translate(-974.425 -912.737)" fill="#e6d0be"/>
            <path id="Trazado_656973" data-name="Trazado 656973" d="M1075.7,915.949h-20.872a.16.16,0,0,1,0-.321H1075.7a.16.16,0,0,1,0,.321Z" transform="translate(-975.543 -910.128)" fill="#e6d0be"/>
            <rect id="Rectángulo_344339" data-name="Rectángulo 344339" width="20.164" height="10.967" transform="translate(34.004 15.565) rotate(180)" fill="#d3bba3"/>
          </g>
          <g id="Grupo_958321" data-name="Grupo 958321" transform="translate(1.799 19.297)">
            <path id="Trazado_656974" data-name="Trazado 656974" d="M1035.077,948.964h36.263c-2.352,0-4.259-2.707-4.259-6.014h0c0-3.307,1.907-6.014,4.259-6.014h-36.263c-2.352,0-4.258,2.707-4.258,6.014h0C1030.819,946.256,1032.726,948.964,1035.077,948.964Z" transform="translate(-968.997 -936.776)" fill="#f7f1eb"/>
            <path id="Trazado_656975" data-name="Trazado 656975" d="M943.444,949.317h73.964c-4.8,0-7.005-2.751-7.005-6.191h0c0-3.44,2.208-6.191,7.005-6.191H943.444c-4.8,0-7,2.751-7,6.191h0C936.439,946.566,938.646,949.317,943.444,949.317Z" transform="translate(-936.439 -936.776)" fill="#d3bba3"/>
            <path id="Trazado_656976" data-name="Trazado 656976" d="M1078.383,949.04h-22.107c-4.487,0-7.165-2.308-7.165-6.174s2.678-6.174,7.165-6.174h22.107a.161.161,0,1,1,0,.321h-22.107c-4.35,0-6.844,2.133-6.844,5.853s2.495,5.853,6.844,5.853h22.107a.161.161,0,1,1,0,.321Z" transform="translate(-975.307 -936.691)" fill="#84524d"/>
            <path id="Trazado_656977" data-name="Trazado 656977" d="M1078.066,952.674h-19.457a.16.16,0,1,1,0-.321h19.457a.16.16,0,1,1,0,.321Z" transform="translate(-978.529 -942.094)" fill="#e6d0be"/>
            <path id="Trazado_656978" data-name="Trazado 656978" d="M1076.447,949.433H1056.99a.16.16,0,1,1,0-.321h19.457a.16.16,0,0,1,0,.321Z" transform="translate(-977.97 -940.976)" fill="#e6d0be"/>
            <path id="Trazado_656979" data-name="Trazado 656979" d="M1074.23,947.273h-22.641a.16.16,0,0,1,0-.321h22.641a.16.16,0,1,1,0,.321Z" transform="translate(-976.107 -940.231)" fill="#e6d0be"/>
            <path id="Trazado_656980" data-name="Trazado 656980" d="M1075.7,942.412h-20.872a.16.16,0,0,1,0-.321H1075.7a.16.16,0,0,1,0,.321Z" transform="translate(-977.225 -938.554)" fill="#e6d0be"/>
          </g>
        </g>
        <g id="Grupo_958324" data-name="Grupo 958324" transform="translate(-5239.035 -8069.871)">
          <g id="Grupo_958323" data-name="Grupo 958323" transform="translate(1.624)">
            <path id="Trazado_656981" data-name="Trazado 656981" d="M1046.539,816.834a194.772,194.772,0,0,1,2.871,37.965,192.436,192.436,0,0,1-13.159-74.622A194.724,194.724,0,0,1,1046.539,816.834Z" transform="translate(-1036.184 -770.211)" fill="#636363"/>
            <path id="Trazado_656982" data-name="Trazado 656982" d="M1068.851,828.635a194.7,194.7,0,0,1-14.836,35.064,192.466,192.466,0,0,1,22.479-72.362A194.725,194.725,0,0,1,1068.851,828.635Z" transform="translate(-1042.335 -774.061)" fill="#636363"/>
            <path id="Trazado_656983" data-name="Trazado 656983" d="M1063.283,835.315h-.021a.16.16,0,0,1-.139-.145,141.673,141.673,0,0,1,7.224-55.315.16.16,0,0,1,.31.041,141.666,141.666,0,0,1-7.224,55.315A.161.161,0,0,1,1063.283,835.315Zm7.113-54.622a141.694,141.694,0,0,0-7.011,53.677,141.733,141.733,0,0,0,7.011-53.677Zm-.76,27.2h0Z" transform="translate(-1045.368 -770.063)" fill="#8b865c"/>
            <path id="Trazado_656984" data-name="Trazado 656984" d="M1049.863,840.956a.161.161,0,0,1-.155-.118,192.649,192.649,0,0,1-3.919-75.741.161.161,0,0,1,.15-.134.157.157,0,0,1,.163.117,192.614,192.614,0,0,1,3.919,75.742.16.16,0,0,1-.15.134Zm-3.875-75.049a192.7,192.7,0,0,0,3.835,74.106,199.1,199.1,0,0,0,1.683-37.239h0A199.153,199.153,0,0,0,1045.988,765.906Z" transform="translate(-1038.792 -764.963)" fill="#636363"/>
            <path id="Trazado_656985" data-name="Trazado 656985" d="M1059.712,826.828a194.725,194.725,0,0,1-8.667,37.073,192.488,192.488,0,0,1,9.865-75.128A194.725,194.725,0,0,1,1059.712,826.828Z" transform="translate(-1041.164 -773.177)" fill="#636363"/>
          </g>
          <path id="Trazado_656986" data-name="Trazado 656986" d="M1035.606,855.925a38.792,38.792,0,0,0-1.9,12.339c0,8.7,2.575,16.315,6.574,21.268h20.686c4-4.953,6.574-12.567,6.574-21.268a38.809,38.809,0,0,0-1.9-12.339Z" transform="translate(-1033.705 -796.342)" fill="#253b46"/>
        </g>
      </g>
      <g id="Grupo_1006347" data-name="Grupo 1006347">
        <g id="Enmascarar_grupo_1000166" data-name="Enmascarar grupo 1000166" transform="translate(-38)" clip-path="url(#clip-path-2)">
          <g id="Grupo_1006345" data-name="Grupo 1006345" transform="translate(1041.919 5252.813)">
            <g id="Grupo_1006344" data-name="Grupo 1006344" transform="translate(0 0.003)" clip-path="url(#clip-path-3)">
              <path id="Trazado_715638" data-name="Trazado 715638" d="M197.23,472.594c2,1.025,3.482,1.4,5.286.843a91.225,91.225,0,0,1,13.958-2.8c1.108-.162,1.341-.555.9-1.422-1.347-2.674.27-5.181.4-7.768a1.689,1.689,0,0,1,1.516-1.473,2.021,2.021,0,0,1,2.2,1.165,7.727,7.727,0,0,1,.984,4.935c-.465,3.72,1.591,5.561,4.366,7.33a61.9,61.9,0,0,0,23.33,9.017c5.284.88,7.646,4.413,7.651,9.489,0,1.882.985,3.486.918,5.4a183.015,183.015,0,0,1-2.594,22.912q-2.973,18.335-7.28,36.409c-.859,3.576-1.813,7.129-2.646,10.711-.639,2.749-2.789,4.671-3.8,7.2-1.337,3.344-3.644,4.835-7.313,5.4-7.891,1.217-15.757,2.437-23.759,2.28a50.225,50.225,0,0,1-15.308-2.228c-4.8-1.635-8.6-4.793-12.043-8.517-9.653-10.438-15.72-23.1-22.095-35.533-5.557-10.841-8.121-22.669-10.417-34.544-1.678-8.676,0-16.792,3.906-24.561,3.063-6.1,6.891-8.074,13.64-7.007a54.166,54.166,0,0,0,12.063.246c3.917-.258,7.918-.422,11.513-2.41.893-.494,2.006-.723,2.605-1.573,1.27-1.8,3.1-1.814,4.946-1.7a3.311,3.311,0,0,1,3.069,2.288,2.73,2.73,0,0,1-1.186,3.644,32.866,32.866,0,0,1-4.821,2.268" transform="translate(-119.911 -365.607)" fill="#f59b78"/>
              <path id="Trazado_715639" data-name="Trazado 715639" d="M386.215,284.349c-.129,6.716-1.582,13.236-2.971,19.761-2.019,9.481-4.971,18.71-7.689,28a8.418,8.418,0,0,1-.83,2.075c-.39.628-1.082,1.416-1.824.953-1.784-1.114-3.419-.069-5.125.033-5.149.307-10.227-.03-15.018-2.2-1.119-.507-2.2-1.1-3.3-1.656-2.851-1.438-3.181-2.3-1.8-5.157a54.588,54.588,0,0,0,4.665-13.925,18.661,18.661,0,0,0,.528-3.424c-.03-5.517,3.174-9.523,6.507-13.27a84.976,84.976,0,0,1,16.815-14.915,35.136,35.136,0,0,1,3.675-2.221,4.221,4.221,0,0,1,6.359,3.893c0,.684,0,1.367,0,2.051" transform="translate(-275.738 -220.877)" fill="#f59b78"/>
              <path id="Trazado_715640" data-name="Trazado 715640" d="M494.885,514.088a.446.446,0,0,1-.427-.319c-.889-3-.047-7.613-.011-7.808a.446.446,0,0,1,.876.163c-.009.046-.839,4.6-.011,7.391a.446.446,0,0,1-.3.554.451.451,0,0,1-.127.018" transform="translate(-392.734 -401.912)" fill="#cf6c46"/>
              <path id="Trazado_715641" data-name="Trazado 715641" d="M252.232,1203.324c-.392-22.3-.061-44.661,6.129-59.88,4.424-10.877,13.939-25.45,13.326-29.8-.757-5.366-.783-14.718,2.28-16.61,6.344-3.919,13.946-5.024,20.8-5.674a228.549,228.549,0,0,1,30.9-1.267,137.6,137.6,0,0,1,15.067,1.589,4.593,4.593,0,0,1,4.25,4.784c.341,9.434,2.833,18.528,4.286,27.785,3.133,19.95,7.4,39.643,10.039,59.678.842,6.383,2.594,14.515-2.871,19.424-8.058,7.238-103.885,18.428-104.21-.031" transform="translate(-200.416 -866.444)" fill="#112e4c"/>
              <path id="Trazado_715642" data-name="Trazado 715642" d="M488.29,1333.2a1.413,1.413,0,0,0-1.868-.661,2.223,2.223,0,0,0-.764.794,7.936,7.936,0,0,0-1.068,4.378,2.421,2.421,0,0,0,.747,1.93,1.249,1.249,0,0,0,1.755-.222,4.921,4.921,0,0,0,.953-2.08c.324-1.205.846-2.946.245-4.139" transform="translate(-385.203 -1059.155)" fill="#091f35"/>
              <path id="Trazado_715643" data-name="Trazado 715643" d="M468.906,1433.224a1.412,1.412,0,0,0-1.91-.526,2.227,2.227,0,0,0-.706.846,7.936,7.936,0,0,0-.752,4.443,2.421,2.421,0,0,0,.883,1.871,1.249,1.249,0,0,0,1.735-.347,4.919,4.919,0,0,0,.8-2.142c.237-1.225.633-3-.051-4.145" transform="translate(-370.021 -1138.735)" fill="#9c5b33"/>
              <path id="Trazado_715644" data-name="Trazado 715644" d="M452.672,1521.452a1.412,1.412,0,0,0-1.91-.526,2.223,2.223,0,0,0-.705.846,7.934,7.934,0,0,0-.752,4.443,2.419,2.419,0,0,0,.882,1.871,1.249,1.249,0,0,0,1.735-.346,4.922,4.922,0,0,0,.8-2.143c.237-1.225.633-3-.051-4.145" transform="translate(-357.116 -1208.87)" fill="#9c5b33"/>
              <path id="Trazado_715645" data-name="Trazado 715645" d="M361.4,1186.674a.446.446,0,0,1-.206-.841c.193-.1,19.9-9.938,69.042-2.433a.445.445,0,1,1-.134.881c-48.8-7.452-68.306,2.245-68.5,2.343a.442.442,0,0,1-.2.05" transform="translate(-286.932 -938.472)" fill="#091f35"/>
              <path id="Trazado_715646" data-name="Trazado 715646" d="M386.811,1282.02l-.05,0a.445.445,0,0,1-.393-.493c2.7-24.2,20.468-99.273,20.6-99.621a.446.446,0,0,1,.842.289c-.218.825-17.842,75.129-20.558,99.43a.445.445,0,0,1-.442.4" transform="translate(-307.131 -939.297)" fill="#091f35"/>
              <path id="Trazado_715647" data-name="Trazado 715647" d="M405.225,18.664c-.857-.126-1.945-.267-2.04-1.372-.1-1.2.917-1.11,1.745-1.14.184-.007.49-.076.528-.189.848-2.494,4.5-2.2,6.3-2.132.979.038,1.828-.21,1.813-2.262-.012-1.635-.266-3.267-.345-4.9-.13-2.68.865-4.293,3.349-5.265,7.921-3.1,11.993-.894,16.206,5.123,2.5,3.569,1.237,8.631-2.166,11.261a7.211,7.211,0,0,0-3.115,7.042c.115.753-18.937-5.673-22.275-6.162" transform="translate(-320.495 -0.002)" fill="#804439"/>
              <path id="Trazado_715648" data-name="Trazado 715648" d="M470.276,30.488a.446.446,0,0,1-.439-.369c-.136-.782-1.275-7.685.63-9.217,1.275-1.026,5.223-1.978,8.27-1.076a4.706,4.706,0,0,1,3.361,3.021,4.426,4.426,0,0,1-.2,3.672,5.952,5.952,0,0,1-3.538,2.492.446.446,0,0,1-.2-.868,5.127,5.127,0,0,0,2.967-2.065,3.579,3.579,0,0,0,.132-2.952,3.806,3.806,0,0,0-2.767-2.445c-2.821-.834-6.484.132-7.459.916-1.129.908-.79,5.616-.31,8.37a.445.445,0,0,1-.439.522" transform="translate(-373.118 -15.474)" fill="#663127"/>
              <path id="Trazado_715649" data-name="Trazado 715649" d="M485.155,36.184a.446.446,0,0,1-.367-.7,2.021,2.021,0,0,0,.436-1.656c-.179-.706-.909-1.391-2.171-2.037a1.384,1.384,0,0,0-1.151-.086c-1.112.4-2.043,2.076-2.308,2.688a.446.446,0,1,1-.818-.354c.045-.1,1.124-2.563,2.824-3.173a2.262,2.262,0,0,1,1.859.131c1.521.778,2.381,1.632,2.629,2.611a2.887,2.887,0,0,1-.565,2.38.445.445,0,0,1-.368.193" transform="translate(-380.561 -24.427)" fill="#663127"/>
              <path id="Trazado_715650" data-name="Trazado 715650" d="M590.615,626.855c.058-7.612,1.973-14.429,3.958-21.23,1.721-5.9,3.526-11.776,6.4-17.238,1.218-2.318,2.293-4.905,5.3-5.573.876-.195.536-.724.417-1.256-.165-.74,0-1.4.84-1.606a1.572,1.572,0,0,1,1.937.736,29.369,29.369,0,0,1,2.093,5.32c2.02,6.01,3.192,12.268,4.91,18.359,1.195,4.237,3.362,7.836,5.553,11.507,3.884,6.508,7.7,13.047,11.066,19.841.635,1.283,1.383,2.51,2.075,3.765.782,1.418,1.693,2.553,3.564,1.717.808-.361,1.141.217,1.387.791,1.789,4.166,4.837,7.633,6.76,11.666,4.112,8.623,2.222,14.7-4.777,20.94-.759.677-1.656,1.2-2.482,1.8a7.358,7.358,0,0,1-9.292.054C624.6,672.474,619,668.332,614.251,663.2a50.9,50.9,0,0,1-8.225-11.416,3.269,3.269,0,0,1-.606-2.525c.534-1.446-.231-2.376-1.07-3.238a66.96,66.96,0,0,1-7.566-9.642c-.35-.524-.577-1.24-1.556-.925-2.142.689-3.22-.572-3.778-2.378a18.632,18.632,0,0,1-.836-6.219" transform="translate(-469.48 -460.957)" fill="#f3e3d5"/>
              <path id="Trazado_715651" data-name="Trazado 715651" d="M244.157,534.961c.7-1.867.475-4.221.574-6.189.668-13.337-6.969-40.566-7.074-40.957-.569-2.134.875-2.245,3.03-1.764,2.926.652,5.295,2.58,7.8,4.108,2.73,1.666,5.8,2.638,8.7,3.958,3.913,1.782,7.833,3.561,11.83,5.14,5.17,2.043,7.31,7.109,8.44,11.856,1.2,5.035,4.6,17.406,4.935,18.862.162.7-9.839,22.88-9.112,27.928.572,3.968,1.022,7.963,1.805,11.89,1.415,7.091,3.9,13.907,5.646,20.912,1.033,4.153,2.426,8.216,3.03,12.492a9.425,9.425,0,0,1-4.776,10.011c-.779.421-1.909,1.127-2.464.693-1.708-1.337-4.151-1.91-4.935-4.255a1.1,1.1,0,0,0-1.125-.91,205.335,205.335,0,0,0-24.135-.136c-6,.265-11.929,1.12-17.848,1.9-3.428.452-6.818,1.656-10.258,2.384-2.375.5-4.757.97-7.137,1.445-1.407.281-2.433-.725-3.207-1.464-9.805-9.361-18.463-19.589-23.009-32.638-1.461-4.195-2.551-8.506-3.953-12.72-1.416-4.257-3.548-8.155-5.165-12.323a68.27,68.27,0,0,1-3.086-12.16,167.78,167.78,0,0,1-2.9-26.322c-.252-9.034-.634-18.695,2.162-27.414,1.024-3.194,3.25-3.846,6.255-3.615a77.159,77.159,0,0,1,7.658,1.129c2.942.527,6.01-.507,8.86-1.136,3.712-.819,7.76-2.183,11.58-2.183,1.858-.064,2.336-.253,2.687.9.879,2.894,3.534,6.694,5.382,8.96,7.118,8.725,13.961,17.685,20.262,27.021q2.517,3.729,4.913,7.54c.74,1.178,1.436,2.384,2.16,3.572.525.861,1.549,3.172,2.473,3.486" transform="translate(-134.813 -384.291)" fill="#f3e3d5"/>
              <path id="Trazado_715652" data-name="Trazado 715652" d="M4.163,605.026c0-1.642.63-3.065.63-4.707.492-1.679.407-3.563.837-5.258a224.107,224.107,0,0,1,14.289-40.091A84.156,84.156,0,0,0,27.2,529.292c.686-5.612,1.48-11.225,2.6-16.764a24.99,24.99,0,0,1,4.4-9.316c1.8-2.542,3.971-5.668,6.582-7.423,2.182-1.466,4.93-2.275,6.867-.529,8.521,7.683,8.507,21.516,11.5,31.957,1.042,3.638.826,7.409,1.345,11.119.549,3.927,1.118,7.7.5,11.674-.452,2.889-2.555,4.7-3.011,7.625-.252,1.614-.4,3.247-.711,4.85q-1.8,9.43-4.011,18.775c-1.336,5.69-2,13.409-6.9,17.344a12.2,12.2,0,0,1-4.224,2.117c-2.1.622-4.367.3-6.416.986a12.672,12.672,0,0,0-2.367,1.247c-3.912,2.329-8.407,3.6-12.666,5.134-2.356.849-4.476,1.871-7.012,1.886a6.315,6.315,0,0,0-2.376.259,4.8,4.8,0,0,1-5.377-2.092c-.436-.989-1.752-1.973-1.752-3.113" transform="translate(-3.309 -392.907)" fill="#f3e3d5"/>
              <path id="Trazado_715653" data-name="Trazado 715653" d="M267.444,512.482a1.02,1.02,0,0,1-.753-.32c-.718-.718-9.956-6.676-15.991-10.505a.446.446,0,0,1,.477-.752c1.545.981,15.125,9.609,16.144,10.628.306.306,1.8-.77,3.237-1.811a59.592,59.592,0,0,1,6.219-4.053.446.446,0,0,1,.432.779,58.021,58.021,0,0,0-6.13,4c-1.692,1.223-2.821,2.039-3.636,2.039" transform="translate(-199.123 -398.126)" fill="#d9b79a"/>
              <path id="Trazado_715654" data-name="Trazado 715654" d="M543.846,805.957a.446.446,0,0,1-.164-.86c.064-.025,6.441-2.583,7.806-6.815,1.491-4.622,3-29.514,1.3-34.607-1.653-4.958-19.938-28.421-20.884-29.412a.446.446,0,0,1,.645-.615c.872.913,19.333,24.49,21.085,29.746,1.729,5.187.211,30.474-1.3,35.162-1.495,4.635-8.049,7.261-8.327,7.371a.453.453,0,0,1-.163.031" transform="translate(-422.729 -583.085)" fill="#d9b79a"/>
              <path id="Trazado_715655" data-name="Trazado 715655" d="M374.887,651a.446.446,0,0,1-.381-.213c-1.815-2.964-13.938-21.76-24.635-38.343-4.238-6.57-8.2-12.713-11.1-17.219-1.45-2.253-2.634-4.1-3.455-5.38-1.421-2.223-1.421-2.223-1.287-2.469l.774.441-.383-.227.4-.2c.251.461,7.8,12.171,15.8,24.569,10.7,16.588,22.827,35.388,24.646,38.361a.446.446,0,0,1-.38.678" transform="translate(-265.483 -466.917)" fill="#d9b79a"/>
              <path id="Trazado_715656" data-name="Trazado 715656" d="M546.732,540.659c-3.068,0-8.614-.547-10.611-1.878a30.007,30.007,0,0,0-6.7-2.914.445.445,0,0,1,.052-.888,28.6,28.6,0,0,1,7.141,3.06c2.208,1.472,9.694,1.9,11.522,1.673a29.208,29.208,0,0,0-4.948-3.639.446.446,0,1,1,.471-.757c3.754,2.334,5.6,3.905,5.494,4.668a.648.648,0,0,1-.506.537,8.932,8.932,0,0,1-1.915.137" transform="translate(-420.538 -425.268)" fill="#d9b79a"/>
              <path id="Trazado_715657" data-name="Trazado 715657" d="M229.847,579.1a.446.446,0,0,1-.441-.383c-5.682-40.212-15.665-62.548-18.589-68.436-.112-.225-.172-.355-.183-.386a.446.446,0,0,1,.84-.3c.018.041.066.136.141.288,2.939,5.918,12.973,28.363,18.673,68.707a.446.446,0,0,1-.379.5.434.434,0,0,1-.063,0" transform="translate(-167.421 -404.86)" fill="#d9b79a"/>
              <path id="Trazado_715658" data-name="Trazado 715658" d="M236.461,771.662a.446.446,0,0,1-.432-.338c-.043-.174-.048-.191.728-3.681,1.7-7.647,6.216-27.961,5.99-37.67a.445.445,0,0,1,.435-.456.434.434,0,0,1,.456.435c.228,9.817-4.144,29.485-6.011,37.884-.386,1.737-.693,3.116-.72,3.364a.445.445,0,0,1-.337.448.44.44,0,0,1-.108.014" transform="translate(-187.613 -579.911)" fill="#d9b79a"/>
              <path id="Trazado_715659" data-name="Trazado 715659" d="M237.442,650.02h-.026a.445.445,0,0,1-.419-.471c.213-3.628-.967-36.751-.979-37.086a.446.446,0,0,1,.43-.461.438.438,0,0,1,.461.429c.049,1.366,1.194,33.5.978,37.17a.446.446,0,0,1-.444.419" transform="translate(-187.616 -486.495)" fill="#d9b79a"/>
              <path id="Trazado_715660" data-name="Trazado 715660" d="M154.441,857.534a.447.447,0,0,1-.446-.45c.285-25.472-5.218-36.812-5.273-36.924a.446.446,0,0,1,.8-.4c.057.113,5.655,11.612,5.367,37.332a.446.446,0,0,1-.446.441" transform="translate(-118.185 -651.453)" fill="#d9b79a"/>
              <path id="Trazado_715661" data-name="Trazado 715661" d="M667.341,632.429a.486.486,0,0,1-.073-.006.446.446,0,0,1-.367-.513,120.47,120.47,0,0,0,.493-32.128c-.045-.4-.057-.506-.057-.569a.446.446,0,0,1,.891-.008c0,.056.022.218.051.477a121.384,121.384,0,0,1-.5,32.373.446.446,0,0,1-.439.373" transform="translate(-530.131 -475.976)" fill="#d9b79a"/>
              <path id="Trazado_715662" data-name="Trazado 715662" d="M674.929,805.322a.446.446,0,0,1-.431-.333l-4.765-18.134a.457.457,0,0,1-.015-.105c-.353-19.613-2.748-27.992-2.772-28.074a.445.445,0,1,1,.855-.251c.025.083,2.448,8.563,2.807,28.256l4.751,18.082a.446.446,0,0,1-.318.544.456.456,0,0,1-.113.015" transform="translate(-530.158 -602.636)" fill="#d9b79a"/>
              <path id="Trazado_715663" data-name="Trazado 715663" d="M680.979,721.693a.446.446,0,0,1-.352-.718c2.773-3.591,3.766-11.131,3.694-12.264a.445.445,0,0,1,.127-.595.479.479,0,0,1,.6.06c.65.681-.9,9.691-3.718,13.344a.446.446,0,0,1-.353.173" transform="translate(-540.973 -562.836)" fill="#d9b79a"/>
              <path id="Trazado_715664" data-name="Trazado 715664" d="M213.883,1134.428a39.067,39.067,0,0,0,8.3-9.106,146.494,146.494,0,0,0,10.2-16.267,6.081,6.081,0,0,1,1.291-1.823,1.831,1.831,0,0,1,2.585-.256,1.874,1.874,0,0,1,.643,2.673c-2.89,4.778-5.358,9.811-8.705,14.313-2.436,3.277-4.836,6.581-7.267,9.862a15.879,15.879,0,0,1-1.445,1.713c-2.426,2.456-1.363,1.554-7.778,1.051,0-.274,2.182-1.887,2.182-2.16" transform="translate(-168.286 -879.618)" fill="#f3e3d5"/>
              <path id="Trazado_715665" data-name="Trazado 715665" d="M854.122,709.978c.405,1.174.039-2-.559-.256a16.038,16.038,0,0,1-3.689,5.784,1.588,1.588,0,0,1-2.082.248c-.927-.613-4.08-.622-3.929-1.785,1.194-1.737,4.288-5.946,7.717-5.057.67.174,1.112,1.352,1.058.381.411,0,1.073.684,1.484.684" transform="translate(-670.802 -563.436)" fill="#f3e3d5"/>
              <path id="Trazado_715666" data-name="Trazado 715666" d="M901.244,783.33c-2.5,1.849-5.145,1.308-6.341-1.337-1.908-4.219-4.146-8.3-5.436-12.787-.112-.391-.4-.9-.259-1.169.962-1.867,1.558-4.132,2.756-5.6,2.66-3.271,3.336-4.709,1.769-8.593a3.721,3.721,0,0,1-.434-1.545c.067-.82.366-1.7,1.345-1.823A2.135,2.135,0,0,1,897.037,752c1.036,2.954,2.159,5.89,2.987,8.9,2.02,7.349,3.871,14.745,5.377,22.221.549,2.727-.793,5.14-2.341,7.914-.346.62-.968-1.836-1.605-2.233-.718-.447-.5-1.253-.312-1.866a6.19,6.19,0,0,0,.1-3.606" transform="translate(-706.822 -596.553)" fill="#d9b79a"/>
              <path id="Trazado_715667" data-name="Trazado 715667" d="M770.013,556.612A15.305,15.305,0,0,1,766.07,553c-3.174-4.523-3.4-8.907-.307-13.666a113.234,113.234,0,0,0,8.307-14.4c2.63-5.745,5.259-11.509,7.653-17.369a131.951,131.951,0,0,0,7.528-23.944c1.1-5.5,1.8-11.071,2.412-16.637.329-2.972,2.165-4.96,3.824-7.013,2.961-3.663,6.094-7.178,8.55-11.228.483-.8,1.1-1.825,2.245-1.5,1.177.336,1.022,1.484,1.023,2.46a11.019,11.019,0,0,1-1.871,6.011c-1.038,1.636-2.025,3.3-3,4.978a1.357,1.357,0,0,0-.026,1.641c.568.611,1.039-.041,1.5-.318a12.605,12.605,0,0,0,4.776-5.725c2.4-5.038,5.6-9.586,8.552-14.288a5.7,5.7,0,0,1,4.015-2.756,9.067,9.067,0,0,0,3.8-1.3,1.8,1.8,0,0,1,2.627.221c.744,1.1.1,1.864-.4,2.627a35.865,35.865,0,0,1-1.862,3.179c-4.516,5.643-7.271,12.149-9.261,19.015-.554,1.913-2.021,3.143-3.183,4.571a81.791,81.791,0,0,0-9.942,15.153c-.867,1.743-6.717,24-9.491,33.076-2.093,6.845-3.759,13.825-6.457,20.476q-2.258,5.566-4.711,11.051a7.4,7.4,0,0,1-3.474,3.649,13.077,13.077,0,0,0-4.691,4.337c-.751,1.174-2.219.422-3.027,1.306Z" transform="translate(-606.973 -347.777)" fill="#f59b78"/>
              <path id="Trazado_715668" data-name="Trazado 715668" d="M926.988,503.508a.446.446,0,0,1-.408-.624,15.692,15.692,0,0,1,5.095-6.05,28.471,28.471,0,0,1,2.861-1.629c2.887-1.5,5.873-3.058,7.123-6.99a33.4,33.4,0,0,0,1-4.477c.629-3.6,1.224-7,5.357-9.22a3.4,3.4,0,0,1,2.4-.255,1.014,1.014,0,0,1,.537.714,3.265,3.265,0,0,1-.453,1.871,36.593,36.593,0,0,0-2.41,8.585.446.446,0,1,1-.878-.156,37.419,37.419,0,0,1,2.466-8.774,3.056,3.056,0,0,0,.4-1.342.129.129,0,0,0-.075-.108,2.746,2.746,0,0,0-1.606.266c-3.717,2-4.224,4.9-4.866,8.571a34.071,34.071,0,0,1-1.031,4.593c-1.361,4.283-4.655,6-7.561,7.51a27.685,27.685,0,0,0-2.772,1.576,15.058,15.058,0,0,0-4.779,5.67.446.446,0,0,1-.408.266" transform="translate(-736.531 -376.885)" fill="#cf6c46"/>
              <path id="Trazado_715669" data-name="Trazado 715669" d="M698.43,753.982a5.682,5.682,0,0,1,.378-2.425,22.6,22.6,0,0,1,7.226-8.336c2.951-2.014,7.884-4.467,11.525-3.568.266.066.19-1.447.977-.715.919.855,2.625-2.126,3.184-3.048.49-.81-.74-1.416-.864-2.252a5.9,5.9,0,0,1,.43-2.788c1.808-4.977,4.493-9.668,6.444-14.6.9-2.265,3.289-3.794,5.018-5.391a1.363,1.363,0,0,1,.862-.468c1.077,0-.677,4.339-.792,5.077a17.206,17.206,0,0,0,.181,5.919c.748,3.847,2.478,7.409,3.942,11.015A58.324,58.324,0,0,0,751,752.834c2.435,2.311,2.435,3.056.636,6.016a87.058,87.058,0,0,1-6.957,9.855c-.729.892-1.445,1.457-2.593.755-1.257-.769-2.171-.1-3.1.7-2.671,2.3-5.289,4.667-8.074,6.82A28.679,28.679,0,0,1,723.5,781.2c-1.69.55-3.117,1.066-4.83.071a7.413,7.413,0,0,1-1.808-1.685c-3.582-4.178-6.835-8.621-10.2-12.974-1.708-2.212-3.446-4.4-5.262-6.523-1.513-1.768-3.116-3.622-2.971-6.107" transform="translate(-555.191 -564.704)" fill="#f3e3d5"/>
              <path id="Trazado_715670" data-name="Trazado 715670" d="M701.255,863.564a.446.446,0,0,1-.446-.446c0-.39,3.434-6.2,8.21-10.306,3.964-3.407,7.851-4.851,11.549-4.289a.446.446,0,0,1-.133.881c-9.984-1.52-18.512,13.382-18.755,13.849a.446.446,0,0,1-.425.31" transform="translate(-557.09 -674.418)" fill="#d9b79a"/>
              <path id="Trazado_715671" data-name="Trazado 715671" d="M758.427,877.769a.411.411,0,0,1-.062,0,.445.445,0,0,1-.38-.5c.976-7.051,5.659-16.166,5.858-16.55a.445.445,0,1,1,.791.409c-.048.093-4.812,9.366-5.767,16.263a.446.446,0,0,1-.441.385" transform="translate(-602.537 -684.01)" fill="#d9b79a"/>
              <path id="Trazado_715672" data-name="Trazado 715672" d="M829.7,861.373a.443.443,0,0,1-.292-.109,59.087,59.087,0,0,1-18.817-32.219.446.446,0,1,1,.881-.133,58.156,58.156,0,0,0,18.52,31.68.446.446,0,0,1-.292.782" transform="translate(-644.354 -658.621)" fill="#d9b79a"/>
              <path id="Trazado_715673" data-name="Trazado 715673" d="M913.709,865.758a1.784,1.784,0,0,1-1.046-.454c-2.782-2.166-9.493-13.439-9.777-13.918a.446.446,0,1,1,.766-.455c.069.116,6.908,11.606,9.558,13.67.356.278.5.263.5.264.382-.3.057-3.068-.7-5.8a.446.446,0,0,1,.859-.237c.489,1.777,1.5,6,.319,6.783a.853.853,0,0,1-.483.148" transform="translate(-717.676 -676.252)" fill="#d9b79a"/>
              <path id="Trazado_715674" data-name="Trazado 715674" d="M304.41,151.556v-5.747c1-1.782.991-3.811,1.155-5.73,1.15-13.394,15.624-20.776,25.038-19.349,4.255.645,8.464,1.291,11.808,4.138,7.274,6.194,10.757,14.27,11.227,23.735.487,9.81-2.551,18.759-6.872,27.326-2.876,5.7-13.977,17.575-25.628,9.209-.4-.284-1.141-1.113-2.029-1.861a23.287,23.287,0,0,1-2.428-2.191,69.46,69.46,0,0,1-9.138-16.586,31.429,31.429,0,0,1-2.4-11.05c-.021-.686.308-1.577-.734-1.9" transform="translate(-241.983 -95.833)" fill="#f59b78"/>
              <path id="Trazado_715675" data-name="Trazado 715675" d="M414.855,997.687a4.175,4.175,0,0,1-.945,2.846,35.421,35.421,0,0,1-5.305,5.92c-1.082.959-2.431,1.529-3.717.587-1.305-.956-.8-2.327-.222-3.523a48.582,48.582,0,0,1,6.273-8.974,3.483,3.483,0,0,1,3.485-.547c1.117.5.522,2.578.431,3.691" transform="translate(-321.202 -789.967)" fill="#f59b78"/>
              <path id="Trazado_715676" data-name="Trazado 715676" d="M432.32,924.112c-1.789.755-6.967.753-9.191.591-5.556-.4-32.935-2.248-41-3.609-3.038-.51-3.837-1.539-3.151-4.578.828-3.668,1.981-7.239,3.128-10.81,3.31-10.3,6.627-20.6,9.811-30.944,2.964-9.628,5.308-19.45,8.961-28.864,1.741-4.486,3.328-5.493,7.96-4.589,11.542,2.253,23.268,3.319,34.823,5.467,5.035.936,7.844.852,12.734,2.465,2.052.677,2.546,2.257,1.773,4.2-1.566,3.933-2.231,8.071-3.862,11.976-4.149,9.935-6.265,19.757-10.093,29.818-2.732,7.18-5.071,14.692-8.3,21.657-1.518,3.274-.663,5.986-3.592,7.221" transform="translate(-301.074 -668.536)" fill="#6b3a3a"/>
              <path id="Trazado_715677" data-name="Trazado 715677" d="M309.509,1019.177c3.676-2.176,8.656-2.283,6.851-.223-.6.687-6.707,4.092-7.527,4.477-1.18.555-2.541.651-6.287.814-4.78.208-8.586.585-13.355,1.07-5.994.609-11.983,1.28-17.969,1.964-1.369.156-2.721.419-4.071.692a12.252,12.252,0,0,1-4.079.068c-3.579-.455-7.193-.633-10.792-.934-.516-.043-1.2.2-1.464-.43-.284-.673.5-.643.783-.957a2.236,2.236,0,0,0,.447-.894,21.982,21.982,0,0,1,4.591-8.135c1.659-2.043,3.959-2.6,6.262-3.012a13.049,13.049,0,0,0,3.921-1,40.223,40.223,0,0,0,9.2-6.4c2.847-2.72,5.369-5.788,8.469-8.237a28.76,28.76,0,0,1,5.388-3.585c.248-.116.867-.384.674.151a13.056,13.056,0,0,1-.932,2.913c-.832,1.245-1.086,5.014-.769,6.141.253.9,3.441,1.355,6.275,1.083,4.51-.432,2.18,0,6.558-1.1,3-.758,6.8-1.744,9.84-2.545,2.008-.53,7.164-1.678,7.642.651.108.528-1.617.89-2.616,1.245-3.468,1.234-5.469,2.81-10.434,4.015-1.125.273-3.951,1.071-5.759,1.5a.219.219,0,0,0,.05.432c4.944-.047,17.955-2.562,21.954-2.377,5.2.241,4.735,2.859,3.51,3.3,0,0-1.229.3-2.544.679-.3.087.111,1.289-.418,1.684-.392.293-7.231,2.94-9.552,3.727-1.817.616-13,1.374-12.959,2.3.02.493,6.274,2.611,9.116.928" transform="translate(-199.332 -790.377)" fill="#f59b78"/>
              <path id="Trazado_715678" data-name="Trazado 715678" d="M457.217,1066.508a.446.446,0,0,1-.031-.89c2.133-.149,4.549-.344,4.824-.411a.454.454,0,0,1,.545.306.437.437,0,0,1-.277.544c-.33.109-3.292.329-5.029.451h-.032" transform="translate(-363.099 -846.748)" fill="#cf6c46"/>
              <path id="Trazado_715679" data-name="Trazado 715679" d="M463.751,1093.454a.446.446,0,0,1-.054-.888c.744-.092,4.477-.552,4.851-.552a.445.445,0,0,1,0,.891c-.264,0-3.048.336-4.742.545a.421.421,0,0,1-.055,0" transform="translate(-368.293 -868.069)" fill="#cf6c46"/>
              <path id="Trazado_715680" data-name="Trazado 715680" d="M469.606,1116.612c-.824,0-1.8-.03-2.082-.039a.445.445,0,0,1-.431-.46.441.441,0,0,1,.46-.431c1.009.032,2.728.064,3.044.007a.446.446,0,1,1,.157.877,8.953,8.953,0,0,1-1.148.046" transform="translate(-371.303 -886.882)" fill="#cf6c46"/>
              <path id="Trazado_715681" data-name="Trazado 715681" d="M.025,947.365a103.794,103.794,0,0,1,5.053-24.281c1.934-5.595,6.05-3.765,11.956-1.29a40.351,40.351,0,0,0,5.793,1.975c3.648.912,6.057,3.8,9.223,5.466.618.325.756,1.049.861,1.77a10.47,10.47,0,0,0,1.81,4.71,11.764,11.764,0,0,0,4.289,3.186c2.573,1.38,5.265,2.528,7.818,3.949,2.608,1.452,5.168,2.973,7.782,4.431a17.66,17.66,0,0,0,6.089,2.142,14.587,14.587,0,0,0,3.313.084,11.965,11.965,0,0,1,3.082-.3c2.064.359,1.975,2.028,1.346,3.568-3.733,9.148-9.506,17.19-14.015,25.916-1,1.939-1.841,3.961-2.789,5.928-2.149,4.46-4.046,3.921-7.726,3.3-4.466-.758-8.747-2.534-13.274-3.21-1.128-.169-.683-2.341-.617-3.555.051-.943-1.272-1.925-1.884-2.458-1.212-1.058-2.538-1.929-3.851-2.863-5.562-3.956-10.577-8.459-15.724-12.927A45.082,45.082,0,0,1,4.435,958.8a35.824,35.824,0,0,1-3.544-4.458,7.875,7.875,0,0,1-.851-3.693c-.078-1.088-.015-2.187-.015-3.281" transform="translate(0 -730.861)" fill="#f3e3d5"/>
              <path id="Trazado_715682" data-name="Trazado 715682" d="M99.975,996.513a.452.452,0,0,1-.185-.04c-.11-.051-11.157-5.019-21.812-3.717a.445.445,0,1,1-.108-.884c10.909-1.338,22.179,3.739,22.291,3.791a.445.445,0,0,1-.185.851" transform="translate(-61.589 -788.285)" fill="#d9b79a"/>
              <path id="Trazado_715683" data-name="Trazado 715683" d="M149.119,1090.569a.446.446,0,0,1-.4-.241c-.129-.251-.129-.251,1.592-3.254.688-1.2,2.1-3.648,3.836-6.559,2.71-4.547,6.405-10.562,8.623-13.391a33,33,0,0,1,10.088-8.407.446.446,0,0,1,.357.816,32.254,32.254,0,0,0-9.744,8.14c-4.129,5.267-13.556,21.823-13.937,22.6a.444.444,0,0,1-.215.244.439.439,0,0,1-.2.05" transform="translate(-118.184 -841.571)" fill="#d9b79a"/>
              <path id="Trazado_715684" data-name="Trazado 715684" d="M85.1,1085.113a48.836,48.836,0,0,1-7.379-.341.446.446,0,0,1,.344-.819,111.3,111.3,0,0,0,25.274-1.161.446.446,0,1,1,.158.877,109.288,109.288,0,0,1-18.4,1.444" transform="translate(-61.589 -860.732)" fill="#d9b79a"/>
              <path id="Trazado_715685" data-name="Trazado 715685" d="M315.432,1065.93a.424.424,0,0,1-.107-.013.445.445,0,0,1-.326-.539,3.764,3.764,0,0,0-.162-2.136c-.413-.908-2.712-.481-3.761-.132a.446.446,0,0,1-.282-.846c.407-.136,4-1.271,4.854.609a4.625,4.625,0,0,1,.217,2.718.446.446,0,0,1-.432.339" transform="translate(-246.816 -844.052)" fill="#d9b79a"/>
              <path id="Trazado_715686" data-name="Trazado 715686" d="M94.627,940.121a.443.443,0,0,1-.267-.09,1.256,1.256,0,0,1-.293-.409c-3.428-5.838-9.329-9.347-13.676-11.264a.446.446,0,1,1,.359-.815c4.467,1.969,10.537,5.585,14.085,11.628.056.1.1.164.122.2a.445.445,0,0,1-.33.746" transform="translate(-63.693 -737.297)" fill="#d9b79a"/>
              <path id="Trazado_715687" data-name="Trazado 715687" d="M429.4,233.9a12.092,12.092,0,0,1,5.251,1.163c.6.347,1.263.77,1.023,1.581-.289.977-1.13.8-1.783.744a19.808,19.808,0,0,0-6.6.17c-.4.08-1,.233-1.4.292a1.665,1.665,0,0,1-2.02-.993c-.418-.94.4-1.552,1.062-1.982a8.709,8.709,0,0,1,4.464-.973" transform="translate(-336.858 -185.934)" fill="#804439"/>
              <path id="Trazado_715688" data-name="Trazado 715688" d="M320.942,253.043c.193-1.145,2.934-4.284,5.684-4.99,2.825-.726,2.656-.679,3.885-.138a1.382,1.382,0,0,1,.77,1.725,1.493,1.493,0,0,1-1.445.96c-2.98.34-5.954.7-8.894,2.442" transform="translate(-255.124 -196.751)" fill="#804439"/>
              <path id="Trazado_715689" data-name="Trazado 715689" d="M250.841,125.344c-2.516-1.591-3.6-4.725-5.52-7-4.523-5.355-4.619-16.511-.409-21.07a6.592,6.592,0,0,0,1.48-3.1,31.847,31.847,0,0,1,12.9-19.314,47.087,47.087,0,0,1,18.535-7.6c3.237-.659,8.471-.074,11.556.79,2.3.642,2.432,1.947,4.672,2.781.691.257,1.286.682,2.08.106.739-.536,1.415.035,2.053.438,2.461,1.553,4.1,3.88,5.742,6.187a49.722,49.722,0,0,1,4.3,7.2,65.861,65.861,0,0,0,6.706,11.387,11.652,11.652,0,0,1,1.807,11.067c-1.829,5.942-5.041,10.731-10.721,13.571a9.7,9.7,0,0,1-5.4.857c-.461-.047-1.075-.039-1.156-.623-.1-.7.587-.712,1.005-.712,2.12,0,2.34-1.043,2.47-3.013.165-2.5-.525-4.823-.57-7.24a1.456,1.456,0,0,0-.413-.9c-4.354-4.345-6.9-9.977-10.584-14.8-1.7-2.224-3.422-4.429-5.2-6.592-.943-1.149-2.236-1.562-3.408-.475-7.861,7.294-15.821,14.52-22.337,23.09-2.6,3.414-3.736,7.443-2.236,11.761.855,2.461-3.446,1.36-4.409.814a5.415,5.415,0,0,0-2.009-.985.32.32,0,0,0-.317.454,12.47,12.47,0,0,0,1.586,1.885,7.013,7.013,0,0,0,5.41,2.443c.33.02,1.131-.236,1.418-.068,1.075.628-2.141,3.019-9.037-1.342m.814-39.738c.634-.621-.729.136-1,.649-.385.719-.648,1.493-.986,2.233-.3.656-.985,1.309-1.147,1.991-.172.722,2.151-3.908,3.136-4.873M247.036,97.9c-1.317,1.216-3.366,3.482-2.8,5.511.111.394,3.446-6.107,2.8-5.511" transform="translate(-192.243 -53.242)" fill="#804439"/>
              <path id="Trazado_715690" data-name="Trazado 715690" d="M299.245,270.351a.443.443,0,0,1-.207-.052,6.306,6.306,0,0,1-2.889-4.161c-.746-3.4.8-7.637,4.585-12.584a.446.446,0,1,1,.708.542c-3.562,4.65-5.093,8.741-4.427,11.829a5.415,5.415,0,0,0,2.44,3.587.446.446,0,0,1-.21.839" transform="translate(-235.271 -201.418)" fill="#663127"/>
              <path id="Trazado_715691" data-name="Trazado 715691" d="M316.866,175.918a.445.445,0,0,1-.376-.684c3.5-5.521,18.466-21.931,23.661-25.47a.446.446,0,0,1,.5.737c-5.135,3.5-19.946,19.741-23.41,25.21a.445.445,0,0,1-.377.207" transform="translate(-251.53 -118.991)" fill="#663127"/>
              <path id="Trazado_715692" data-name="Trazado 715692" d="M285.454,296.206a.444.444,0,0,1-.3-.121,6.723,6.723,0,0,1-1.569-6.729.446.446,0,1,1,.853.258,5.834,5.834,0,0,0,1.327,5.823.446.446,0,0,1-.307.769" transform="translate(-225.171 -229.765)" fill="#663127"/>
              <path id="Trazado_715693" data-name="Trazado 715693" d="M271.055,137.856a.446.446,0,0,1-.446-.446c0-.968,13.547-26.713,33.222-33.928a.446.446,0,1,1,.307.837c-18.783,6.887-32.179,31.5-32.641,33.147a.446.446,0,0,1-.442.389" transform="translate(-215.114 -82.24)" fill="#663127"/>
              <path id="Trazado_715694" data-name="Trazado 715694" d="M319.214,103.442a.445.445,0,0,1-.349-.722c.024-.034.083-.124.175-.263,4.053-6.13,14.563-20.543,24.607-21.969a10,10,0,0,1,8.178,2.411.446.446,0,1,1-.577.679,9.137,9.137,0,0,0-7.476-2.207c-9.957,1.413-20.879,16.873-23.989,21.578-.137.208-.219.325-.235.343a.445.445,0,0,1-.334.15" transform="translate(-253.397 -63.894)" fill="#663127"/>
              <path id="Trazado_715695" data-name="Trazado 715695" d="M463.342,114.212a.445.445,0,0,1-.385-.221,1.865,1.865,0,0,0-2.289-.989.446.446,0,1,1-.323-.831,2.766,2.766,0,0,1,3.382,1.37.446.446,0,0,1-.385.67" transform="translate(-365.713 -89.044)" fill="#663127"/>
              <path id="Trazado_715696" data-name="Trazado 715696" d="M507.359,229.869a.443.443,0,0,1-.177-.037c-2.227-.965-8.213-7.15-8.466-7.413a.445.445,0,0,1,.641-.619c.061.063,6.114,6.319,8.18,7.214a.446.446,0,0,1-.177.855" transform="translate(-396.342 -176.207)" fill="#663127"/>
              <path id="Trazado_715697" data-name="Trazado 715697" d="M522.151,188.848a.446.446,0,0,1-.372-.2c-.013-.018-.04-.054-.08-.108-1.931-2.571-6.446-9.511-6.669-18.412a.445.445,0,1,1,.891-.022,32.4,32.4,0,0,0,6.491,17.9c.059.079.1.13.111.152a.446.446,0,0,1-.372.69" transform="translate(-409.41 -134.878)" fill="#663127"/>
              <path id="Trazado_715698" data-name="Trazado 715698" d="M562.761,216.36a.446.446,0,0,1-.3-.774,12.723,12.723,0,0,0,2.811-13.772.446.446,0,0,1,.834-.315,13.846,13.846,0,0,1-3.043,14.744.444.444,0,0,1-.3.117" transform="translate(-446.998 -159.948)" fill="#663127"/>
              <path id="Trazado_715699" data-name="Trazado 715699" d="M464.76,74.21a.444.444,0,0,1-.282-.1,20.063,20.063,0,0,0-8.718-3.883,22.833,22.833,0,0,0-4.541-.466.44.44,0,0,1-.458-.433.445.445,0,0,1,.433-.458,23.488,23.488,0,0,1,4.738.483,20.941,20.941,0,0,1,9.11,4.068.446.446,0,0,1-.283.79" transform="translate(-358.321 -54.745)" fill="#663127"/>
              <path id="Trazado_715700" data-name="Trazado 715700" d="M354.206,279.891c-.1.7-.067,1.495-.782,1.675-.826.208-1.175-.574-1.456-1.169a2.748,2.748,0,0,1,.113-2.979.678.678,0,0,1,.973-.224,2.966,2.966,0,0,1,1.152,2.7" transform="translate(-279.483 -220.25)" fill="#592525"/>
              <path id="Trazado_715701" data-name="Trazado 715701" d="M451.434,265.226a5.1,5.1,0,0,1-.2,1.359.934.934,0,0,1-.941.731c-1.347-.015-1.533-1.345-1.592-2.4-.052-.933.07-2.225,1.253-2.177s1.508,1.331,1.483,2.489" transform="translate(-356.673 -208.855)" fill="#592525"/>
              <path id="Trazado_715702" data-name="Trazado 715702" d="M402.177,363.067c.255-.822-3.716.535-4.456.8-4.031,1.454-5.026,1.272-8.569,1.415-.645.026-1.209.368-.713,1.158.253.4.932,2.444,5.486,1.892,3.173-.385,7.918-4.19,8.253-5.267" transform="translate(-308.629 -288.404)" fill="#fff"/>
              <path id="Trazado_715703" data-name="Trazado 715703" d="M385.088,373.229a12.073,12.073,0,0,1-4.27-.768,14.144,14.144,0,0,1-4.546-3.44c-.325-.322-.642-.635-.951-.927a.446.446,0,0,1,.611-.649c.315.3.637.616.968.943a13.529,13.529,0,0,0,4.232,3.238c5.394,2.024,11.024-.6,14.494-3.729,4.327-3.9,9.712-8.76,10.149-14.87a.446.446,0,1,1,.889.064c-.462,6.468-5.995,11.458-10.441,15.468a17.326,17.326,0,0,1-11.134,4.67" transform="translate(-298.241 -280.302)" fill="#cf6c46"/>
              <path id="Trazado_715704" data-name="Trazado 715704" d="M400.576,296.921c-.966,0-2.136-.169-2.422-.943-.53-1.432.04-8.759.107-9.589a.434.434,0,1,1,.865.07c-.256,3.185-.509,8.269-.158,9.218.016.042.088.111.245.178a5.893,5.893,0,0,0,2.776.069.434.434,0,0,1,.724.324c0,.436-.5.525-.765.573a9.581,9.581,0,0,1-1.372.1" transform="translate(-316.324 -227.341)" fill="#cf6c46"/>
              <path id="Trazado_715705" data-name="Trazado 715705" d="M243.98,1173.406a.445.445,0,0,1-.367-.7c.314-.508,7.413-13.7,10.129-18.753a.446.446,0,0,1,.785.422c-3,5.585-10,18.6-10.191,18.85a.445.445,0,0,1-.356.178" transform="translate(-193.591 -917.121)" fill="#d9b79a"/>
              <path id="Trazado_715706" data-name="Trazado 715706" d="M530.2,259.066c-.947,4.748-1.785,9.495-5.78,13.212-1.1,1.027-1.373,1.706-2.622,1.307-1.266-.4-1.065-1.824-1.043-2.81a28,28,0,0,1,2.742-10.419c.48-1.112.634-2.386,1.6-3.286,1.03-.961,2.1-1.945,3.6-1.326,1.424.587,1.594,1.923,1.5,3.321" transform="translate(-413.938 -203.145)" fill="#f59b78"/>
              <path id="Trazado_715707" data-name="Trazado 715707" d="M531.748,277.067a.451.451,0,0,1-.133-.02.446.446,0,0,1-.292-.558,22.116,22.116,0,0,1,2.363-5.079c1.056-1.532,2.137-2.178,3.208-1.925a.446.446,0,1,1-.206.867c-.848-.2-1.7.739-2.269,1.564a21.576,21.576,0,0,0-2.246,4.839.446.446,0,0,1-.425.313" transform="translate(-422.345 -214.177)" fill="#cf6c46"/>
              <path id="Trazado_715708" data-name="Trazado 715708" d="M544.961,282.082a.445.445,0,0,1-.445-.426,1.554,1.554,0,0,0-.46-1.235,1.359,1.359,0,0,0-1.167-.071.629.629,0,0,1-.18.031.446.446,0,0,1-.079-.884,2.2,2.2,0,0,1,1.951.2,2.361,2.361,0,0,1,.825,1.917.446.446,0,0,1-.426.464h-.02" transform="translate(-431.058 -222.079)" fill="#cf6c46"/>
              <path id="Trazado_715709" data-name="Trazado 715709" d="M521.351,251.214c.088,2.772-.783,5.2-1.443,8.324a5.053,5.053,0,0,0,.976,4.433c3.284,4.14,3.312,8.653,1.484,13.346-.619,1.589-1.37,3.128-2.089,4.677-.286.616-1.32,1.251-1.478.988-.061-.1.312-.543.6-1.157,1.024-2.173,1.056-5.081,1.564-7.434a9.1,9.1,0,0,0-1.592-7.968c-2.338-2.875-2.365-5.915-1.656-9.271.856-4.05,1.117-4.81-.084-8.764-.254-.835-1.259.009-.548-.434.9-.559,2.336,1.151,2.823,1.882,1.257,1.889,1.418-.84,1.443,1.379" transform="translate(-410.845 -197.017)" fill="#804439"/>
              <path id="Trazado_715710" data-name="Trazado 715710" d="M692.962,888.822c-.006-.022-.016-.04-.023-.061,0-.048,0-.1-.009-.144a1.446,1.446,0,0,0-.333-.77,1.517,1.517,0,0,0-1.008-.409,1.851,1.851,0,0,0-1.373.515,1.728,1.728,0,0,0-.119,2.27,1.094,1.094,0,0,0,.493.725,1.145,1.145,0,0,0,1.08.032,1.8,1.8,0,0,0,.661-.45,1.623,1.623,0,0,0,.63-1.708" transform="translate(-548.283 -705.444)" fill="#d9b79a"/>
              <path id="Trazado_715711" data-name="Trazado 715711" d="M564.956,869.822a1.718,1.718,0,1,0-3.128,1.359,1.349,1.349,0,0,0,.82.67c.041.01.082.011.123.018a1.209,1.209,0,0,0,.724.148,1.748,1.748,0,0,0,1.46-2.194" transform="translate(-446.436 -690.478)" fill="#d9b79a"/>
              <path id="Trazado_715712" data-name="Trazado 715712" d="M494.544,1075.629a.449.449,0,0,1-.432-.322.44.44,0,0,1,.293-.547c.274-.083,2.2-.335,6.867-.931,1.367-.175,2.832-.362,4.289-.551,1.553-.2,10.756-1.881,10.848-1.9a.445.445,0,1,1,.16.876c-.38.069-9.319,1.7-10.894,1.906-1.457.188-2.923.376-4.291.551-3.3.422-6.426.821-6.725.9a.466.466,0,0,1-.116.015" transform="translate(-392.767 -851.66)" fill="#cf6c46"/>
            </g>
          </g>
        </g>
        <g id="Grupo_1006346" data-name="Grupo 1006346" transform="translate(1126.424 5283.421)">
          <g id="Grupo_1006346-2" data-name="Grupo 1006346" clip-path="url(#clip-path-4)">
            <path id="Trazado_715713" data-name="Trazado 715713" d="M50.8,46.262c-18.572.67-33.282,12.706-33.37,27.08L0,77.731l18.893,3.5c4.375,11.209,18,19.077,33.831,18.506,18.956-.684,33.892-13.208,33.359-27.974S69.752,45.578,50.8,46.262" transform="translate(0 -39.162)" fill="#f3e3d5"/>
            <path id="Trazado_715714" data-name="Trazado 715714" d="M391.821,440.554s.2,2,1.779,2.137c-1.577.138-1.779,2.137-1.779,2.137s-.2-2-1.78-2.137c1.577-.138,1.78-2.137,1.78-2.137" transform="translate(-330.388 -373.175)" fill="#6b3a3a"/>
            <path id="Trazado_715715" data-name="Trazado 715715" d="M458.44,0s.358,3.53,3.144,3.774c-2.786.244-3.144,3.774-3.144,3.774s-.358-3.53-3.144-3.774C458.082,3.53,458.44,0,458.44,0" transform="translate(-385.662)" fill="#6b3a3a"/>
            <path id="Trazado_715716" data-name="Trazado 715716" d="M202.727,61.272s.246,2.425,2.159,2.593c-1.914.168-2.159,2.593-2.159,2.593s-.246-2.425-2.16-2.593c1.914-.168,2.16-2.593,2.16-2.593" transform="translate(-169.892 -51.901)" fill="#6b3a3a"/>
            <path id="Trazado_715717" data-name="Trazado 715717" d="M463.566,318.332s.492,4.85,4.319,5.185c-3.827.336-4.319,5.185-4.319,5.185s-.492-4.85-4.319-5.185c3.827-.335,4.319-5.185,4.319-5.185" transform="translate(-389.009 -269.646)" fill="#6b3a3a"/>
          </g>
        </g>
      </g>
    </g>
  </g>
</svg>
