<svg xmlns="http://www.w3.org/2000/svg" xmlns:xlink="http://www.w3.org/1999/xlink" width="85" height="82" viewBox="0 0 85 82">
  <defs>
    <filter id="Elipse_7683" x="6" y="5" width="77" height="77" filterUnits="userSpaceOnUse">
      <feOffset dy="3" input="SourceAlpha"/>
      <feGaussianBlur stdDeviation="3" result="blur"/>
      <feFlood flood-opacity="0.161"/>
      <feComposite operator="in" in2="blur"/>
      <feComposite in="SourceGraphic"/>
    </filter>
  </defs>
  <g id="Grupo_1010469" data-name="Grupo 1010469" transform="translate(-135 -1916)">
    <g id="Grupo_1005927" data-name="Grupo 1005927" transform="translate(-1200 1491)">
      <rect id="Rectángulo_345292" data-name="Rectángulo 345292" width="85" height="81" rx="5" transform="translate(1335 425)" fill="#4db1f0"/>
      <g id="Grupo_1003705" data-name="Grupo 1003705" transform="translate(1350.197 436.281)">
        <g transform="matrix(1, 0, 0, 1, -15.2, -11.28)" filter="url(#Elipse_7683)">
          <circle id="Elipse_7683-2" data-name="Elipse 7683" cx="29.5" cy="29.5" r="29.5" transform="translate(15 11)" fill="#bfe5f9"/>
        </g>
      </g>
      <g id="hola_3_" data-name="hola (3)" transform="translate(1343 436.281)">
        <path id="Trazado_708777" data-name="Trazado 708777" d="M47.9,45.74a6.93,6.93,0,0,1-2.494-5.324v-.8H33.068v.8a6.93,6.93,0,0,1-2.494,5.324l4.55,4.553H43.35Z" transform="translate(-1.195 -0.94)" fill="#cf8c78"/>
        <path id="Trazado_708778" data-name="Trazado 708778" d="M47.924,45.709a6.919,6.919,0,0,1-2.477-4.984c-.135.082-.267.168-.411.245A11.788,11.788,0,0,1,35,41.661a.481.481,0,0,0-.647.346l-.012.049a6.863,6.863,0,0,1-3.51,4.311l-1.028.546,2.945,4.118,2.705.45s2.061-.694,3.271-1.22h4.651Z" transform="translate(-1.217 -0.909)" fill="#f1b8a0"/>
        <path id="Trazado_708779" data-name="Trazado 708779" d="M54.845,10.574V13a102.171,102.171,0,0,1-.72,12.132H24.72A102.172,102.172,0,0,1,24,13v-.933Z" transform="translate(-1.38 -1.758)" fill="#4c4c4c"/>
        <path id="Trazado_708780" data-name="Trazado 708780" d="M27.113,24a4.113,4.113,0,0,0,0,8.225h.378" transform="translate(-1.408 -1.38)" fill="#cf8c78"/>
        <path id="Trazado_708781" data-name="Trazado 708781" d="M51.01,24a4.113,4.113,0,0,1,0,8.225h-.378" transform="translate(-0.63 -1.38)" fill="#cf8c78"/>
        <path id="Trazado_708782" data-name="Trazado 708782" d="M50.237,15.209l.062.124a13.058,13.058,0,0,1,1.378,5.839V29.4a12.749,12.749,0,0,1-6.557,11.144,11.887,11.887,0,0,1-11.561,0A12.749,12.749,0,0,1,27,29.4V21.173a13.059,13.059,0,0,1,1.38-5.844l.226-.453" transform="translate(-1.296 -1.637)" fill="#cf8c78"/>
        <path id="Trazado_708783" data-name="Trazado 708783" d="M35.558,40.541a11.893,11.893,0,0,0,4.752,1.432,11.893,11.893,0,0,0,4.752-1.432A12.749,12.749,0,0,0,51.62,29.4V21.172a13.059,13.059,0,0,0-1.38-5.844l-.059-.119-19.588-.3-.211.423A13.058,13.058,0,0,0,29,21.172V29.4a12.749,12.749,0,0,0,6.557,11.144Z" transform="translate(-1.239 -1.636)" fill="#f1b8a0"/>
        <path id="Trazado_708785" data-name="Trazado 708785" d="M63.268,63.507V55.812a8.729,8.729,0,0,0-6.22-8.357L48.873,45l-.478.478a12.411,12.411,0,0,1-17.551,0L30.366,45,17,48.085v11.31l7.2,1.028v3.085Z" transform="translate(-1.577 -0.788)" fill="#0059bd"/>
        <path id="Trazado_708786" data-name="Trazado 708786" d="M56.791,47.452,48.617,45l-.478.478a12.411,12.411,0,0,1-17.552,0L30.11,45l-4.026.925a24.339,24.339,0,0,0,22.246,14.5H63.012v-4.61a8.729,8.729,0,0,0-6.22-8.36Z" transform="translate(-1.321 -0.788)" fill="#006bda"/>
        <path id="Trazado_708787" data-name="Trazado 708787" d="M53,59h2.056v4.113H53Z" transform="translate(-0.563 -0.394)" fill="#004c9c"/>
        <path id="Trazado_708788" data-name="Trazado 708788" d="M10.225,5.085H9.2V2L2,7.141l7.2,5.141V9.2H9.6a6.928,6.928,0,0,1,5.764,3.084L18.451,9.2a10.282,10.282,0,0,0-8.225-4.113Z" transform="translate(-2 -2)" fill="#a7d309"/>
        <path id="Trazado_708789" data-name="Trazado 708789" d="M10.225,5.085H9.2V2L2,7.141h8.768a7.431,7.431,0,0,1,6.272,3.466L18.451,9.2a10.282,10.282,0,0,0-8.225-4.113Z" transform="translate(-2 -2)" fill="#8cbe00"/>
        <path id="Trazado_708790" data-name="Trazado 708790" d="M35.148,14.976l-6.542-.1-.226.453A13.058,13.058,0,0,0,27,21.173v7.283c.265-.431.514-.874.745-1.337l.151-.3,6.77-10.641a3.4,3.4,0,0,0,.482-1.2Z" transform="translate(-1.296 -1.637)" fill="#a0695f"/>
        <path id="Trazado_708791" data-name="Trazado 708791" d="M25.66,4.593a5.278,5.278,0,0,0,.056,9.2,28.864,28.864,0,0,0,14.018,3.632h3.09a16.2,16.2,0,0,0,7.244-1.71A10.552,10.552,0,0,0,55.9,6.274V4.056L54.553,5.405a2.414,2.414,0,0,1-1.708.707,8.818,8.818,0,0,1-3.95-.933A30.132,30.132,0,0,0,35.423,2a19.675,19.675,0,0,0-9.764,2.594Z" transform="translate(-1.408 -2)" fill="#212121"/>
        <path id="Trazado_708792" data-name="Trazado 708792" d="M52.789,6.113a8.818,8.818,0,0,1-3.95-.933A30.132,30.132,0,0,0,35.367,2a19.681,19.681,0,0,0-9.7,2.558,5.265,5.265,0,0,0,2.046,7.176,28.864,28.864,0,0,0,14.018,3.633h3.09a16.2,16.2,0,0,0,7.244-1.71A10.448,10.448,0,0,0,53.7,12.617a10.7,10.7,0,0,0,.641-.914,10.551,10.551,0,0,0,1.5-5.429V4.056L54.5,5.405a2.414,2.414,0,0,1-1.708.707Z" transform="translate(-1.352 -2)" fill="#383838"/>
        <path id="Trazado_708793" data-name="Trazado 708793" d="M34.9,14.506a2.412,2.412,0,0,1-.391,1.326L27.7,26.535l-.175.35a15.68,15.68,0,0,1-9.079,7.876L12.282,49.155h5.141V59.437l-8.04-1.069a8.522,8.522,0,0,1-6.652-11.9l7.5-16.852v-.812a13.855,13.855,0,0,1,6.167-11.525l3.95-5.523a3.991,3.991,0,0,1,3.249-1.676h1.851l.175-.3a3.641,3.641,0,0,1,3.115-1.758h1.511A2.508,2.508,0,0,1,32.28,7a1.6,1.6,0,0,1,1.594,1.594,1.559,1.559,0,0,1-.247.853l-1.265,2.026,1.429.956a2.485,2.485,0,0,1,1.11,2.077Z" transform="translate(-2 -1.859)" fill="#cf8c78"/>
        <path id="Trazado_708794" data-name="Trazado 708794" d="M34.352,12.963a2.445,2.445,0,0,0-.56-.533l-1.429-.956,1.265-2.026a1.559,1.559,0,0,0,.247-.855A1.6,1.6,0,0,0,32.28,7a2.508,2.508,0,0,0-2.036,1.028H28.733a3.64,3.64,0,0,0-3.115,1.757l-.175.3H23.592a3.991,3.991,0,0,0-3.249,1.676l-3.948,5.521a13.856,13.856,0,0,0-6.169,11.526v.812L2.73,46.472a8.522,8.522,0,0,0,6.652,11.9l8.04,1.069V49.155h-7.2l6.169-14.394a15.68,15.68,0,0,0,9.079-7.876Z" transform="translate(-2 -1.859)" fill="#f1b8a0"/>
        <g id="Grupo_1003779" data-name="Grupo 1003779" transform="translate(13.539 6.169)">
          <path id="Trazado_708795" data-name="Trazado 708795" d="M16.879,26.7l-1.711-1.141a9.973,9.973,0,0,1,5.726-4.1l.531,1.986A7.917,7.917,0,0,0,16.879,26.7Z" transform="translate(-15.168 -7.621)" fill="#cf8c78"/>
          <path id="Trazado_708796" data-name="Trazado 708796" d="M23.2,14.837l2.581-4.308L24.895,10H23.7l-2.264,3.78Z" transform="translate(-14.992 -7.944)" fill="#cf8c78"/>
          <path id="Trazado_708797" data-name="Trazado 708797" d="M27.152,16.629l1.744,1.09,3.612-5.782-.848-.568-.878-.549Z" transform="translate(-14.83 -7.921)" fill="#cf8c78"/>
          <path id="Trazado_708798" data-name="Trazado 708798" d="M25.923,16.725l4.421-7.956a1.56,1.56,0,0,1,.1-.152L29.625,8H28.418l-4.292,7.726Z" transform="translate(-14.916 -8)" fill="#cf8c78"/>
          <path id="Trazado_708799" data-name="Trazado 708799" d="M22.085,27.31H20.028V22.754a1.475,1.475,0,0,0-.153-.65A8.321,8.321,0,0,1,19,18.4a2.4,2.4,0,0,1,4.318-1.439l.823,1.093A10.355,10.355,0,0,1,26.2,24.225H24.141A8.288,8.288,0,0,0,22.5,19.29l-.823-1.1a.357.357,0,0,0-.617.206,6.255,6.255,0,0,0,.658,2.786,3.544,3.544,0,0,1,.37,1.567Z" transform="translate(-15.06 -7.774)" fill="#cf8c78"/>
        </g>
      </g>
    </g>
  </g>
</svg>
