<svg xmlns="http://www.w3.org/2000/svg" xmlns:xlink="http://www.w3.org/1999/xlink" width="77" height="77" viewBox="0 0 77 77">
  <defs>
    <filter id="Elipse_7812" x="0" y="0" width="77" height="77" filterUnits="userSpaceOnUse">
      <feOffset dy="3" input="SourceAlpha"/>
      <feGaussianBlur stdDeviation="3" result="blur"/>
      <feFlood flood-opacity="0.161"/>
      <feComposite operator="in" in2="blur"/>
      <feComposite in="SourceGraphic"/>
    </filter>
  </defs>
  <g id="Grupo_1010477" data-name="Grupo 1010477" transform="translate(-301 -2206.816)">
    <g transform="matrix(1, 0, 0, 1, 301, 2206.82)" filter="url(#Elipse_7812)">
      <circle id="Elipse_7812-2" data-name="Elipse 7812" cx="29.5" cy="29.5" r="29.5" transform="translate(9 6)" fill="#f5b3bf"/>
    </g>
    <g id="biomecanica_1_" data-name="biomecanica (1)" transform="translate(285.554 2209.205)">
      <path id="Trazado_720534" data-name="Trazado 720534" d="M43.557,62.611V56.527a13.334,13.334,0,0,0-1.9-6.86L38.09,43.723a17.778,17.778,0,0,1-2.533-9.147V28.834a1.778,1.778,0,0,1,1.778-1.778h0A2.667,2.667,0,0,1,40,29.722v4.444a1.778,1.778,0,0,0,1.778,1.778h0a1.778,1.778,0,0,0,1.778-1.778V12.516a2.309,2.309,0,0,1,1.993-2.338A2.223,2.223,0,0,1,48,12.389V9.722a2.223,2.223,0,0,1,2.451-2.211,2.309,2.309,0,0,1,1.993,2.338v2.54A2.223,2.223,0,0,1,54.9,10.179a2.309,2.309,0,0,1,1.993,2.338v4.318a2.223,2.223,0,0,1,2.451-2.211,2.309,2.309,0,0,1,1.993,2.338v16" transform="translate(0 0)" fill="none" stroke="#000" stroke-linecap="round" stroke-linejoin="round" stroke-miterlimit="10" stroke-width="1.8"/>
      <line id="Línea_174" data-name="Línea 174" y2="16" transform="translate(48.001 11.945)" fill="none" stroke="#000" stroke-linecap="round" stroke-linejoin="round" stroke-miterlimit="10" stroke-width="1.8"/>
      <line id="Línea_175" data-name="Línea 175" y2="16" transform="translate(52.446 11.945)" fill="none" stroke="#000" stroke-linecap="round" stroke-linejoin="round" stroke-miterlimit="10" stroke-width="1.8"/>
      <line id="Línea_176" data-name="Línea 176" y2="14.222" transform="translate(56.89 16.389)" fill="none" stroke="#000" stroke-linecap="round" stroke-linejoin="round" stroke-miterlimit="10" stroke-width="1.8"/>
      <line id="Línea_177" data-name="Línea 177" y1="31.111" transform="translate(48.001 31.5)" fill="none" stroke="#000" stroke-linecap="round" stroke-linejoin="round" stroke-miterlimit="10" stroke-width="1.8"/>
      <line id="Línea_178" data-name="Línea 178" y2="31.111" transform="translate(52.446 31.5)" fill="none" stroke="#000" stroke-linecap="round" stroke-linejoin="round" stroke-miterlimit="10" stroke-width="1.8"/>
      <path id="Trazado_720535" data-name="Trazado 720535" d="M83.653,296.081l4.078,6.627a20.445,20.445,0,0,1,3.033,10.715v5.769" transform="translate(-42.763 -256.581)" fill="none" stroke="#000" stroke-linecap="round" stroke-linejoin="round" stroke-miterlimit="10" stroke-width="1.8"/>
      <circle id="Elipse_7787" data-name="Elipse 7787" cx="14.222" cy="14.222" r="14.222" transform="translate(56.001 34.167)" fill="none" stroke="#000" stroke-linecap="round" stroke-linejoin="round" stroke-miterlimit="10" stroke-width="1.8"/>
      <path id="Trazado_720536" data-name="Trazado 720536" d="M187.863,262.206a17.662,17.662,0,0,1,3.75-10.893,3.424,3.424,0,0,0,.695-2.109v-1.22" transform="translate(-135.417 -213.817)" fill="none" stroke="#000" stroke-linecap="round" stroke-linejoin="round" stroke-miterlimit="10" stroke-width="1.8"/>
      <path id="Trazado_720537" data-name="Trazado 720537" d="M290.069,307.4l-.924-.533a6.957,6.957,0,0,0,0-3.8l.924-.533a.9.9,0,0,0,.371-1.136,8.957,8.957,0,0,0-.98-1.7.9.9,0,0,0-1.169-.247l-.921.532a7.1,7.1,0,0,0-3.294-1.9v-1.068a.9.9,0,0,0-.8-.889,8.953,8.953,0,0,0-1.96,0,.9.9,0,0,0-.8.889v1.068a7.1,7.1,0,0,0-3.294,1.9l-.921-.532a.9.9,0,0,0-1.169.247,8.955,8.955,0,0,0-.98,1.7.9.9,0,0,0,.371,1.136l.924.533a6.955,6.955,0,0,0,0,3.8l-.924.533a.9.9,0,0,0-.371,1.135,8.948,8.948,0,0,0,.98,1.7.9.9,0,0,0,1.169.247l.921-.532a7.1,7.1,0,0,0,3.294,1.9v1.068a.9.9,0,0,0,.8.889,8.958,8.958,0,0,0,1.96,0,.9.9,0,0,0,.8-.889v-1.068a7.1,7.1,0,0,0,3.294-1.9l.921.532a.9.9,0,0,0,1.169-.247,8.952,8.952,0,0,0,.98-1.7A.9.9,0,0,0,290.069,307.4Z" transform="translate(-212.075 -256.582)" fill="none" stroke="#000" stroke-linecap="round" stroke-linejoin="round" stroke-miterlimit="10" stroke-width="1.8"/>
      <path id="Trazado_720538" data-name="Trazado 720538" d="M320.565,344.29a3.552,3.552,0,1,0,2.555,2.555" transform="translate(-249.453 -299.344)" fill="none" stroke="#000" stroke-linecap="round" stroke-linejoin="round" stroke-miterlimit="10" stroke-width="1.8"/>
    </g>
  </g>
</svg>
