<svg xmlns="http://www.w3.org/2000/svg" xmlns:xlink="http://www.w3.org/1999/xlink" width="77" height="77" viewBox="0 0 77 77">
  <defs>
    <filter id="Elipse_7694" x="0" y="0" width="77" height="77" filterUnits="userSpaceOnUse">
      <feOffset dy="3" input="SourceAlpha"/>
      <feGaussianBlur stdDeviation="3" result="blur"/>
      <feFlood flood-opacity="0.161"/>
      <feComposite operator="in" in2="blur"/>
      <feComposite in="SourceGraphic"/>
    </filter>
  </defs>
  <g id="Grupo_1010460" data-name="Grupo 1010460" transform="translate(-266 -2943.705)">
    <g transform="matrix(1, 0, 0, 1, 266, 2943.71)" filter="url(#Elipse_7694)">
      <circle id="Elipse_7694-2" data-name="Elipse 7694" cx="29.5" cy="29.5" r="29.5" transform="translate(9 6)" fill="#f5b3bf"/>
    </g>
    <g id="lenguaje-de-senas_1_" data-name="lenguaje-de-senas(1)" transform="translate(279 2959.36)">
      <path id="Trazado_656695" data-name="Trazado 656695" d="M.972,333.3a.968.968,0,1,0,.684,1.653A.968.968,0,0,0,.972,333.3Zm0,0" transform="translate(-0.003 -301.022)" fill="#12263f"/>
      <path id="Trazado_656696" data-name="Trazado 656696" d="M492.975,160.444a.966.966,0,1,0-.685-.283A.977.977,0,0,0,492.975,160.444Zm0,0" transform="translate(-444.353 -143.155)" fill="#12263f"/>
      <path id="Trazado_656697" data-name="Trazado 656697" d="M49.059,25.813a.968.968,0,0,0-1.3.428l-.453.9a30.621,30.621,0,0,0-1.816,4.425l-1.441,4.483A28.235,28.235,0,0,1,37.46,47.086c-.091.093-.182.185-.274.277a.938.938,0,0,1-.661.269.8.8,0,0,1-.574-.244.838.838,0,0,1,.017-1.165,26.973,26.973,0,0,0,5.861-8.687.968.968,0,0,0-1.663-.961,28.625,28.625,0,0,1-8.93,6.529.834.834,0,0,1-.707-1.51,26.969,26.969,0,0,0,8.4-6.141,22.565,22.565,0,0,0,2.5-2.447.968.968,0,0,0-1.457-1.276A20.376,20.376,0,0,1,29.533,38.1l-2.308.575a.834.834,0,0,1-.4-1.618l2.308-.575a18.709,18.709,0,0,0,9.358-5.59,8.956,8.956,0,0,0,1.781-2.409.968.968,0,0,0-1.727-.876,7.057,7.057,0,0,1-1.107,1.595.961.961,0,0,0-.167.15c-.056.064-.114.128-.171.191a6.958,6.958,0,0,1-4.789,1.893H32.3a7.094,7.094,0,0,1-4.851-1.962l-.667-.627a.876.876,0,0,1-.09-1.2.846.846,0,0,1,1.217-.061l.771.723a5.359,5.359,0,0,0,6.259.769,4.727,4.727,0,0,0,2-2.06l.479-.944a4.843,4.843,0,0,0,.413-3.205l-.018-.084a4.856,4.856,0,0,0-4.72-3.808,5.653,5.653,0,0,0-5.64,5.608.878.878,0,0,1-.843.878h0a.846.846,0,0,1-.846-.846A7.341,7.341,0,0,1,33.1,17.286H44.73a.968.968,0,0,0,0-1.936H33.1a9.278,9.278,0,0,0-8.244,5.035,2.868,2.868,0,0,0-.722-1.081l-.667-.627a9.031,9.031,0,0,0-5.92-2.48,16.928,16.928,0,0,1,3.385-1.238l2.308-.575A2.77,2.77,0,0,0,21.9,9.007l-1.438.359a2.771,2.771,0,0,0-2.924-4.658,30.659,30.659,0,0,0-5.158,3.058,25.187,25.187,0,0,1,2.612-3.05A2.786,2.786,0,0,0,15.045.845,2.72,2.72,0,0,0,13.092,0a2.885,2.885,0,0,0-2.056.835c-.1.1-.195.2-.292.3A30.191,30.191,0,0,0,3.7,12.929L2.258,17.412a28.637,28.637,0,0,1-1.7,4.144l-.453.9a.968.968,0,1,0,1.728.873l.453-.9A30.608,30.608,0,0,0,4.1,18l1.441-4.483A28.237,28.237,0,0,1,12.131,2.481q.136-.14.274-.278a.928.928,0,0,1,.661-.269.8.8,0,0,1,.574.244.838.838,0,0,1-.017,1.165,26.965,26.965,0,0,0-5.861,8.687.968.968,0,0,0,1.663.96,28.629,28.629,0,0,1,8.93-6.529.834.834,0,1,1,.707,1.51,26.962,26.962,0,0,0-8.4,6.141,22.593,22.593,0,0,0-2.5,2.446.968.968,0,0,0,1.457,1.276,20.375,20.375,0,0,1,10.445-6.374l2.308-.575a.834.834,0,0,1,.4,1.618l-2.308.575a18.711,18.711,0,0,0-9.358,5.59,8.967,8.967,0,0,0-1.781,2.41.968.968,0,1,0,1.727.876,7.045,7.045,0,0,1,1.106-1.594.96.96,0,0,0,.168-.151c.056-.064.114-.128.171-.191a6.958,6.958,0,0,1,4.789-1.892h.006a7.091,7.091,0,0,1,4.85,1.961l.667.627a.877.877,0,0,1,.091,1.2.846.846,0,0,1-1.218.061l-.771-.723a5.359,5.359,0,0,0-6.259-.769,4.727,4.727,0,0,0-2,2.06l-.479.944a4.845,4.845,0,0,0-.413,3.206l.018.083a4.856,4.856,0,0,0,4.72,3.807,5.653,5.653,0,0,0,5.64-5.608.879.879,0,0,1,.843-.878h0a.846.846,0,0,1,.846.846,7.341,7.341,0,0,1-7.332,7.332H4.841a.968.968,0,1,0,0,1.936H16.492a9.278,9.278,0,0,0,8.244-5.035,2.871,2.871,0,0,0,.722,1.081l.667.627a9.031,9.031,0,0,0,5.92,2.48,16.905,16.905,0,0,1-3.385,1.238l-2.308.575a2.77,2.77,0,1,0,1.34,5.376l1.438-.359a2.771,2.771,0,0,0,2.924,4.658A30.664,30.664,0,0,0,37.215,41.8,25.2,25.2,0,0,1,34.6,44.85a2.787,2.787,0,0,0-.056,3.871,2.72,2.72,0,0,0,1.953.847h.037a2.873,2.873,0,0,0,2.018-.835q.147-.147.292-.3a30.182,30.182,0,0,0,7.046-11.8l1.441-4.483a28.651,28.651,0,0,1,1.7-4.144l.453-.9a.968.968,0,0,0-.427-1.3ZM29.395,24.6a3.712,3.712,0,0,1,3.7-3.683A2.909,2.909,0,0,1,35.926,23.2l.018.083A2.9,2.9,0,0,1,35.7,25.2l-.479.944a2.8,2.8,0,0,1-1.183,1.224,3.446,3.446,0,0,1-4.028-.468l-.771-.723q-.1-.1-.217-.185a2.821,2.821,0,0,0,.375-1.394Zm-9.2.371a3.712,3.712,0,0,1-3.7,3.683,2.909,2.909,0,0,1-2.827-2.281l-.018-.083a2.9,2.9,0,0,1,.248-1.92l.479-.944A2.8,2.8,0,0,1,15.556,22.2a3.692,3.692,0,0,1,1.728-.44,3.334,3.334,0,0,1,2.3.908l.77.723c.07.065.143.127.217.185a2.829,2.829,0,0,0-.375,1.394Zm0,0" transform="translate(0 0.002)" fill="#12263f"/>
    </g>
  </g>
</svg>
