<svg xmlns="http://www.w3.org/2000/svg" xmlns:xlink="http://www.w3.org/1999/xlink" width="77" height="77" viewBox="0 0 77 77">
  <defs>
    <filter id="Elipse_7804" x="0" y="0" width="77" height="77" filterUnits="userSpaceOnUse">
      <feOffset dy="3" input="SourceAlpha"/>
      <feGaussianBlur stdDeviation="3" result="blur"/>
      <feFlood flood-opacity="0.161"/>
      <feComposite operator="in" in2="blur"/>
      <feComposite in="SourceGraphic"/>
    </filter>
  </defs>
  <g id="Grupo_1010480" data-name="Grupo 1010480" transform="translate(-376 8761.729)">
    <g transform="matrix(1, 0, 0, 1, 376, -8761.73)" filter="url(#Elipse_7804)">
      <circle id="Elipse_7804-2" data-name="Elipse 7804" cx="29.5" cy="29.5" r="29.5" transform="translate(9 6)" fill="#f5b3bf"/>
    </g>
    <g id="triste" transform="translate(385.004 -8748.457)">
      <path id="Trazado_720539" data-name="Trazado 720539" d="M44.326,44.68a12.013,12.013,0,0,0-4.38-7.566.821.821,0,0,0-.832-.733c-.056,0-.11.008-.168.009a11.925,11.925,0,0,0-2.663-1.279l-3.065-1.023V31.242a10.126,10.126,0,0,0,5.744-7.5h.152A3.359,3.359,0,0,0,40.8,17.474V15.321a11.8,11.8,0,0,0-6.26-10.408,5.869,5.869,0,0,0-11.067,0,11.8,11.8,0,0,0-6.26,10.408v2.154a3.359,3.359,0,0,0,1.685,6.27h.152a10.126,10.126,0,0,0,5.744,7.5v2.851l-3.068,1.023a11.918,11.918,0,0,0-8.052,9.614L13,52.311a.842.842,0,0,0,.842.917H44.168a.842.842,0,0,0,.842-.917Zm-8.582-3.245a1.685,1.685,0,0,1-1.685-1.685V39.5a3.394,3.394,0,0,0-.253-1.272,6.31,6.31,0,0,1,1.38.5l.178.089a.842.842,0,0,0,.753,0l.178-.089a6.31,6.31,0,0,1,1.387-.5,3.394,3.394,0,0,0-.253,1.272v.244A1.685,1.685,0,0,1,35.744,41.435ZM34.9,25.429a6.282,6.282,0,0,1,.842-1.809,6.282,6.282,0,0,1,.842,1.809.842.842,0,0,1-1.685,0Zm4.212-3.37V18.69a1.685,1.685,0,0,1,0,3.37ZM29,2.685A4.22,4.22,0,0,1,31.973,3.92a11.391,11.391,0,0,0-5.936,0A4.22,4.22,0,0,1,29,2.685ZM18.9,15.321a10.109,10.109,0,0,1,20.218,0v1.685a.842.842,0,0,0-.576-.8A4.5,4.5,0,0,1,35.7,13.37l-.842-2.527a.842.842,0,0,0-1.485-.223A13.264,13.264,0,0,1,22.6,16.163H19.739a.842.842,0,0,0-.842.842h0Zm-1.685,5.054A1.685,1.685,0,0,1,18.9,18.69v3.37A1.685,1.685,0,0,1,17.211,20.375Zm3.37,1.685V17.848H22.6a14.96,14.96,0,0,0,11.15-5L34.1,13.9a6.208,6.208,0,0,0,3.324,3.678v4.48a8.389,8.389,0,0,1-.064.992c-.337-.594-.7-1.137-.927-1.471a.874.874,0,0,0-1.387,0c-.553.8-1.835,2.771-1.835,3.848a2.527,2.527,0,0,0,1.88,2.433,8.414,8.414,0,0,1-14.516-5.8ZM39.114,51.544V49.215l.344-.687a4.763,4.763,0,0,0,.5-2.114,4.7,4.7,0,0,0-1.385-3.343l-.547-.547-1.191,1.191.547.547a3.026,3.026,0,0,1,.891,2.152,3.068,3.068,0,0,1-.321,1.361l-.433.864a.842.842,0,0,0-.088.377v2.527H20.581V49.017a.842.842,0,0,0-.088-.377l-.433-.864a3.068,3.068,0,0,1-.321-1.361,3.026,3.026,0,0,1,.891-2.152l.547-.547-1.191-1.191-.547.547a4.7,4.7,0,0,0-1.385,3.343,4.763,4.763,0,0,0,.5,2.114l.344.687v2.328H14.761l.59-6.615a10.24,10.24,0,0,1,2.643-5.483l.074.443a.842.842,0,0,0,.564.66l.259.084A31.927,31.927,0,0,0,29,42.277c.864,0,1.74-.035,2.6-.106l-.136-1.679a30.372,30.372,0,0,1-11.828-1.382l-.163-.975a10.3,10.3,0,0,1,2.78-1.426L25.9,35.5a.842.842,0,0,0,.574-.8V31.832a9.763,9.763,0,0,0,5.054,0V34.7a.842.842,0,0,0,.576.8l3.643,1.215c.175.058.337.142.511.21-.174.067-.35.129-.519.207a8.032,8.032,0,0,0-3.37-.746.842.842,0,0,0-.758,1.219l.576,1.152a1.692,1.692,0,0,1,.178.753v.246a3.365,3.365,0,0,0,2.493,3.239,7.239,7.239,0,0,1-2.106,4.445l-.144.144L33.8,48.77l.144-.144a8.9,8.9,0,0,0,2.595-5.615,3.37,3.37,0,0,0,2.571-3.261V39.5a1.692,1.692,0,0,1,.178-.753h0a10.3,10.3,0,0,1,3.36,6.128l.59,6.665Z"/>
      <rect id="Rectángulo_347431" data-name="Rectángulo 347431" width="5.054" height="1.685" transform="translate(26.478 26.281)"/>
    </g>
  </g>
</svg>
