<svg xmlns="http://www.w3.org/2000/svg" xmlns:xlink="http://www.w3.org/1999/xlink" width="77" height="77" viewBox="0 0 77 77">
  <defs>
    <filter id="Elipse_7691" x="0" y="0" width="77" height="77" filterUnits="userSpaceOnUse">
      <feOffset dy="3" input="SourceAlpha"/>
      <feGaussianBlur stdDeviation="3" result="blur"/>
      <feFlood flood-opacity="0.161"/>
      <feComposite operator="in" in2="blur"/>
      <feComposite in="SourceGraphic"/>
    </filter>
  </defs>
  <g id="Grupo_1010465" data-name="Grupo 1010465" transform="translate(6083.982 8127)">
    <g transform="matrix(1, 0, 0, 1, -6083.98, -8127)" filter="url(#Elipse_7691)">
      <circle id="Elipse_7691-2" data-name="Elipse 7691" cx="29.5" cy="29.5" r="29.5" transform="translate(9 6)" fill="#f5b3bf"/>
    </g>
    <g id="Grupo_1006488" data-name="Grupo 1006488" transform="translate(-6536.51 -11459.845)">
      <g id="Grupo_957808" data-name="Grupo 957808" transform="translate(465.527 3358.353)">
        <g id="g1099" transform="translate(0 0)">
          <path id="path1101" d="M.568-332.05H-12.508a.964.964,0,0,1-.962-.909,14.367,14.367,0,0,0-.742-3.03.964.964,0,0,1,.627-1.21.964.964,0,0,1,1.21.627,23.375,23.375,0,0,1,.711,2.6H-.322c.353-2.32,1.907-3.6,3.415-4.845a9.624,9.624,0,0,0,3.337-4.043c.495-1.32.82-2.366,1.058-3.13.183-.586.327-1.049.474-1.4a.356.356,0,0,0,.033-.115,2.574,2.574,0,0,0-.7-.107c-.052,0-.107,0-.165.005a1.911,1.911,0,0,0-1.433.665l-.294.44a6.589,6.589,0,0,1-2.917,2.728,3.991,3.991,0,0,1-5.2-.909c-.961-1.367-1-3.736,1.762-6.284C.075-351.924,1.433-353,2.8-352.9A2.272,2.272,0,0,1,4.424-352c.53.669,1.633,2.06,2.26,2.121a.854.854,0,0,0,.675-.228c.17-.213.063-.638-.015-.873a10.858,10.858,0,0,0-2.618-4.041c-1.174-1.128-2.537-.83-4.664-.249-.593.162-1.206.329-1.836.451a.964.964,0,0,1-.9-.3.964.964,0,0,1-.208-.924L.342-366.765a2.131,2.131,0,0,0-1.183-2.8c-.7-.211-1.241.192-1.526,1.135l-4.5,14.877a.964.964,0,0,1-1.2.643.964.964,0,0,1-.644-1.2l4.5-14.877c.691-2.283,2.47-2.862,3.928-2.423a4.031,4.031,0,0,1,2.473,5.2L-.55-357.1l.1-.028c2.1-.574,4.484-1.224,6.506.719a12.733,12.733,0,0,1,3.111,4.821,2.79,2.79,0,0,1-.164,2.486,1.892,1.892,0,0,1,.734,2.448c-.113.273-.246.7-.414,1.238-.245.786-.58,1.861-1.094,3.232a11.327,11.327,0,0,1-3.915,4.854c-1.548,1.277-2.771,2.285-2.788,4.329A.964.964,0,0,1,.568-332.05ZM2.6-350.975c-.285,0-.934.2-2.253,1.419-1.524,1.4-2.11,2.879-1.492,3.758a2.12,2.12,0,0,0,2.735.309,4.769,4.769,0,0,0,2.2-2.086l.3-.455a3.1,3.1,0,0,1,.694-.727A13.5,13.5,0,0,1,2.914-350.8a.352.352,0,0,0-.269-.17Zm-17.944,4.425a1.97,1.97,0,0,1-.33-.039c-.929-.16-.929-1.167-.929-1.708l.578-9.887c.121-2.067.98-2.889,1.679-3.215a2.755,2.755,0,0,1,2.815.426,3.151,3.151,0,0,1,1.347,2.875.964.964,0,0,1-.046.184C-13.867-347.674-14.525-346.55-15.342-346.55Zm2-13.139a.434.434,0,0,0-.184.036c-.237.11-.511.584-.569,1.581l-.357,6.083c.577-1.5,1.346-3.576,2.371-6.458a1.36,1.36,0,0,0-.6-.979A1.2,1.2,0,0,0-13.345-359.689Z" transform="translate(16.6 371.541)" fill="#12263f"/>
        </g>
        <g id="g1103" transform="translate(3.705 2.983)">
          <path id="path1105" d="M-90.562-117.459a.973.973,0,0,1-.129-.009.964.964,0,0,1-.828-1.083l1.761-13.179a3.166,3.166,0,0,1,1.783-2.789,2.946,2.946,0,0,1,2.908.558,4.89,4.89,0,0,1,1.758,4.488l-.649,4.645a.964.964,0,0,1-1.088.821.964.964,0,0,1-.821-1.088l.649-4.645a2.93,2.93,0,0,0-1.032-2.7,1.108,1.108,0,0,0-.995-.3c-.288.118-.514.589-.6,1.261L-89.608-118.3A.964.964,0,0,1-90.562-117.459Z" transform="translate(91.527 134.697)" fill="#12263f"/>
        </g>
      </g>
      <g id="Grupo_957809" data-name="Grupo 957809" transform="translate(488.35 3348.5)">
        <g id="g1107" transform="translate(0 0)">
          <path id="path1109" d="M-233.912-261.781a3.161,3.161,0,0,1-.911-.136,4.031,4.031,0,0,1-2.473-5.2l2.737-9.107-.1.028c-2.1.574-4.484,1.224-6.506-.719a12.73,12.73,0,0,1-3.111-4.821,2.79,2.79,0,0,1,.164-2.486,1.892,1.892,0,0,1-.734-2.448c.113-.273.246-.7.414-1.238.245-.786.58-1.861,1.094-3.233a11.327,11.327,0,0,1,3.915-4.853c1.548-1.277,2.772-2.285,2.788-4.329a.964.964,0,0,1,.964-.956H-222.6a.964.964,0,0,1,.962.909,17.864,17.864,0,0,0,.942,3.655,36.747,36.747,0,0,1,2.188,11.683l-.578,9.887c-.121,2.067-.98,2.89-1.679,3.216a2.756,2.756,0,0,1-2.816-.427,3.151,3.151,0,0,1-1.346-2.875.964.964,0,0,1,1.093-.815.964.964,0,0,1,.814,1.093,1.286,1.286,0,0,0,.589,1.051.941.941,0,0,0,.851.226c.237-.11.511-.584.569-1.581l.576-9.831a35.075,35.075,0,0,0-2.1-11.038,28.971,28.971,0,0,1-.914-3.225h-11.341c-.353,2.32-1.907,3.6-3.415,4.845a9.624,9.624,0,0,0-3.336,4.043c-.495,1.32-.82,2.366-1.058,3.13-.183.586-.327,1.049-.474,1.4a.356.356,0,0,0-.033.115,2.571,2.571,0,0,0,.7.107c.052,0,.107,0,.165-.005a1.911,1.911,0,0,0,1.433-.665l.294-.44a6.589,6.589,0,0,1,2.917-2.728,3.991,3.991,0,0,1,5.2.909c.961,1.367,1,3.736-1.763,6.284-.984.906-2.265,1.928-3.563,1.928-.063,0-.125,0-.188-.007a2.272,2.272,0,0,1-1.629-.894c-.53-.669-1.634-2.06-2.26-2.121a.854.854,0,0,0-.675.228c-.17.213-.063.638.015.873a10.854,10.854,0,0,0,2.618,4.041c1.174,1.128,2.537.83,4.663.249.593-.162,1.206-.329,1.836-.451a.964.964,0,0,1,.9.3.964.964,0,0,1,.208.924l-3.222,10.721a2.131,2.131,0,0,0,1.183,2.8c.7.211,1.241-.193,1.526-1.135l4.5-14.877a.964.964,0,0,1,1.2-.644.964.964,0,0,1,.643,1.2l-4.5,14.877A3.167,3.167,0,0,1-233.912-261.781Zm-5.991-22.784a13.5,13.5,0,0,1,1.881,2.046.352.352,0,0,0,.269.17c.261.02.906-.137,2.3-1.417,1.524-1.4,2.11-2.88,1.492-3.758a2.12,2.12,0,0,0-2.735-.309,4.769,4.769,0,0,0-2.2,2.086l-.3.455A3.1,3.1,0,0,1-239.9-284.565Z" transform="translate(245.03 301.273)" fill="#12263f"/>
        </g>
        <g id="g1111" transform="translate(14.55 19.27)">
          <path id="path1113" d="M-19.045-86.547a3.272,3.272,0,0,1-1.984-.736,4.89,4.89,0,0,1-1.758-4.488l.649-4.646a.964.964,0,0,1,1.088-.821.964.964,0,0,1,.821,1.088l-.649,4.646a2.93,2.93,0,0,0,1.032,2.7,1.108,1.108,0,0,0,.995.3c.288-.118.514-.589.6-1.261l1.761-13.179a.964.964,0,0,1,1.083-.828.964.964,0,0,1,.828,1.083l-1.761,13.179a3.166,3.166,0,0,1-1.783,2.789A2.428,2.428,0,0,1-19.045-86.547Z" transform="translate(22.834 103.785)" fill="#12263f"/>
        </g>
      </g>
      <g id="g1115" transform="translate(467.575 3389.462)">
        <path id="path1117" fill="#12263f"/>
      </g>
    </g>
  </g>
</svg>
