<svg xmlns="http://www.w3.org/2000/svg" xmlns:xlink="http://www.w3.org/1999/xlink" width="77" height="77" viewBox="0 0 77 77">
  <defs>
    <filter id="Elipse_7801" x="0" y="0" width="77" height="77" filterUnits="userSpaceOnUse">
      <feOffset dy="3" input="SourceAlpha"/>
      <feGaussianBlur stdDeviation="3" result="blur"/>
      <feFlood flood-opacity="0.161"/>
      <feComposite operator="in" in2="blur"/>
      <feComposite in="SourceGraphic"/>
    </filter>
  </defs>
  <g id="Grupo_1010481" data-name="Grupo 1010481" transform="translate(-685 8108.569)">
    <g transform="matrix(1, 0, 0, 1, 685, -8108.57)" filter="url(#Elipse_7801)">
      <circle id="Elipse_7801-2" data-name="Elipse 7801" cx="29.5" cy="29.5" r="29.5" transform="translate(9 6)" fill="#f5b3bf"/>
    </g>
    <g id="Out_line" data-name="Out line" transform="translate(681 -8113.385)">
      <path id="Trazado_720543" data-name="Trazado 720543" d="M169.15,306.3h2.3a1.15,1.15,0,0,0,0-2.3h-2.3a1.15,1.15,0,0,0,0,2.3Z" transform="translate(-130.145 -260.29)"/>
      <path id="Trazado_720544" data-name="Trazado 720544" d="M56.09,163.922a16.861,16.861,0,0,0-7.923-2.531,3.436,3.436,0,0,0-.9-1.166L45.6,158.839a11.538,11.538,0,0,0,5.823-7.833h.234a4.6,4.6,0,0,0,2.3-8.583v-3.593a5.077,5.077,0,0,0-5.077-5.077h-.12a2.58,2.58,0,0,0-.757-1.83l-.738-.738a10.87,10.87,0,0,0-15.372,0l-3.044,3.044a.279.279,0,0,1-.395,0,2.58,2.58,0,0,0-4.4,1.824v1.011a7,7,0,0,0,2.062,4.979c.111.111.227.217.344.32a4.6,4.6,0,0,0,2.195,8.644h.234a11.538,11.538,0,0,0,5.647,7.735,3.261,3.261,0,0,0-1.107,2.607c-.058,0-.115.01-.173.01h-.093A16.868,16.868,0,0,0,16.8,174.134,26.7,26.7,0,0,0,16,180.6v.309h2.3V180.6a24.385,24.385,0,0,1,.727-5.908,14.492,14.492,0,0,1,6.175-8.666v5.681a1.15,1.15,0,0,0,1.577,1.068l1.53-.612-4.05,5.786,1.885,1.319,7.45-10.643,7.117,4.067a1.15,1.15,0,0,1,.369,1.663l-3.351,4.74,1.879,1.328,3.351-4.74a3.445,3.445,0,0,0-.105-4.122l4.963-6.617a3.44,3.44,0,0,0,.586-1.233c.211.018.421.042.631.069L46.712,173.84a31.5,31.5,0,0,0-.805,7.072h2.3a29.184,29.184,0,0,1,.745-6.55l.722-3.127,3.857,1.543a1.15,1.15,0,0,0,1.577-1.068v-5.681a14.491,14.491,0,0,1,6.174,8.663,24.392,24.392,0,0,1,.728,5.91v.309h2.3V180.6a26.688,26.688,0,0,0-.8-6.465A16.787,16.787,0,0,0,56.09,163.922ZM51.658,148.7v-4.6a2.3,2.3,0,1,1,0,4.6ZM26.352,136.052a.279.279,0,0,1,.477-.2,2.583,2.583,0,0,0,3.648,0l3.044-3.044a8.569,8.569,0,0,1,12.119,0l.738.738a.288.288,0,0,1,0,.407l-1.284,1.284a1.15,1.15,0,0,0,1.627,1.627l.813-.813h1.348a2.777,2.777,0,0,1,2.777,2.777V141.8H50.113a3.427,3.427,0,0,1-2.44-1.011l-3.253-3.253a1.151,1.151,0,0,0-1.627,0A14.463,14.463,0,0,1,32.5,141.8H31.093a4.741,4.741,0,0,1-4.741-4.741Zm0,10.352a2.3,2.3,0,0,1,2.3-2.3v4.6A2.3,2.3,0,0,1,26.352,146.4Zm4.6,2.3v-4.6c.047,0,.093,0,.14,0H32.5a16.735,16.735,0,0,0,11.081-4.152l2.467,2.467a5.706,5.706,0,0,0,3.311,1.634V148.7a9.219,9.219,0,0,1-5.739,8.527,3.448,3.448,0,0,0-4.69,1.017l-.242.364-.195-.13a3.3,3.3,0,0,0-.688-.35,1.15,1.15,0,0,0-.716-.749A9.218,9.218,0,0,1,30.953,148.7Zm2.3,14.953a4.613,4.613,0,0,0,.964-.1l.01.02L32.3,166.459,32,166.9l-.719-3.117a14.589,14.589,0,0,1,1.883-.124ZM27.5,164.8a14.526,14.526,0,0,1,1.524-.546l1.087,4.709L27.5,170.011Zm18.473-1.238-4.981,6.641-6.1-3.486,1.617-2.425a1.15,1.15,0,0,0,.072-1.153l-.759-1.519a.96.96,0,0,1,1.392-1.228l1.152.768a1.15,1.15,0,0,0,1.6-.319l.88-1.321a1.15,1.15,0,0,1,1.694-.246l3.256,2.713a1.15,1.15,0,0,1,.184,1.574Zm4.222,5.4,1.087-4.709a14.571,14.571,0,0,1,1.524.546v5.207Z" transform="translate(0 -109.596)"/>
      <path id="Trazado_720545" data-name="Trazado 720545" d="M258.517,13.01l-2.356-1.885,2.356-1.885a.586.586,0,0,0-.27-1.035l-2.391-.4,2.123-2.123a.586.586,0,0,0-.5-.994l-3.307.472.454-2.724a.586.586,0,0,0-.839-.62l-2.909,1.455L249.924.4a.586.586,0,0,0-1.111,0l-.958,2.873-2.909-1.455a.585.585,0,0,0-.839.62l.454,2.724-3.307-.472a.586.586,0,0,0-.5.994l2.123,2.123-2.391.4a.586.586,0,0,0-.27,1.035l2.356,1.885-.16.128.732.914.732-.586a.586.586,0,0,0,0-.914l-1.9-1.523,2.22-.37a.586.586,0,0,0,.318-.992L242.827,6.1l2.36.337a.586.586,0,0,0,.66-.676l-.4-2.379,2.485,1.242a.586.586,0,0,0,.817-.339l.616-1.847.616,1.847a.586.586,0,0,0,.817.339l2.485-1.242-.4,2.379a.586.586,0,0,0,.66.676l2.36-.337-1.686,1.686a.586.586,0,0,0,.318.992l2.22.37-1.9,1.523a.586.586,0,0,0,0,.914l2.087,1.67-2.492.831a.586.586,0,0,0-.229.97l1.686,1.686-2.36-.337a.586.586,0,0,0-.66.676l.363,2.18-2.389-1.592a.585.585,0,0,0-.88.3l-.616,1.847-.616-1.847a.585.585,0,0,0-.88-.3l-2.928,1.952.65.974,2.29-1.526.929,2.786a.586.586,0,0,0,1.111,0l.929-2.786,2.875,1.917a.586.586,0,0,0,.9-.583l-.454-2.724,3.307.472a.586.586,0,0,0,.5-.994l-2.258-2.258,2.614-.871a.586.586,0,0,0,.181-1.013Z" transform="translate(-186.792 15.46)"/>
      <path id="Trazado_720546" data-name="Trazado 720546" d="M344,185.757A1.757,1.757,0,1,0,345.757,184,1.757,1.757,0,0,0,344,185.757Zm2.342,0a.586.586,0,1,1-.586-.586A.586.586,0,0,1,346.342,185.757Z" transform="translate(-283.181 -155.073)"/>
      <path id="Trazado_720547" data-name="Trazado 720547" d="M340.548,72.21a.586.586,0,0,0-.45-.21h-3.513a.585.585,0,0,0-.576.69l1.171,6.441a.585.585,0,0,0,.576.481h1.171a.585.585,0,0,0,.576-.481l1.171-6.441A.585.585,0,0,0,340.548,72.21Zm-2.109,6.23h-.194l-.958-5.27h2.11Z" transform="translate(-275.766 -51.27)"/>
    </g>
  </g>
</svg>
